<svg width="35" height="35" viewBox="0 0 35 35" fill="none" xmlns="http://www.w3.org/2000/svg">
<path d="M32.0846 5.84781C30.6263 6.5624 29.1971 6.85261 27.7096 7.29156C26.0748 5.44677 23.6511 5.34469 21.3221 6.21677C18.9932 7.08886 17.4678 9.22094 17.5013 11.6666V13.1249C12.769 13.2459 8.55443 11.0905 5.83464 7.29156C5.83464 7.29156 -0.264115 18.1314 11.668 23.3332C8.93797 25.1518 6.21526 26.3782 2.91797 26.2499C7.74214 28.8793 12.9994 29.7834 17.5509 28.4622C22.7717 26.9455 27.0621 23.0328 28.7086 17.1718C29.1997 15.3892 29.4436 13.5476 29.4334 11.6986C29.4305 11.3355 31.6355 7.65615 32.0846 5.84636V5.84781Z" fill="white"/>
</svg>
