<svg width="250" height="50" viewBox="0 0 250 50" fill="none" xmlns="http://www.w3.org/2000/svg">
<path d="M16.8399 3.55583C16.9012 3.65801 16.8399 3.55583 17.9026 4.86373C18.9652 6.17162 17.9026 13.222 17.9026 13.222C17.9026 13.222 18.4135 13.4979 18.7098 13.4979C18.9959 13.4979 19.5272 13.222 19.5272 13.222C19.5272 13.222 18.7404 5.65051 19.5272 4.86373C20.2425 4.14847 20.5081 3.67845 20.549 3.58649C20.8147 3.21864 20.9782 2.75884 20.9782 2.26838C20.9782 1.02179 19.9666 0 18.7098 0C17.453 0 16.4414 1.01157 16.4414 2.26838C16.4414 2.74862 16.5947 3.19821 16.8399 3.55583Z" fill="white"/>
<path d="M34.0767 24.5335H24.1654C23.6136 24.5335 23.0925 24.3189 22.694 23.9408C22.3772 23.6343 22.0298 23.2869 21.662 22.9191C20.8854 22.1323 20.8241 20.8755 21.5189 20.0069C23.5421 17.1153 25.5754 20.1909 25.5754 20.1909L25.5857 20.1704C26.1987 20.9266 27.1286 21.417 28.181 21.417C30.1428 21.417 31.7062 19.7413 31.5427 17.7488C31.3894 15.9709 29.7852 14.663 28.0073 14.6732C27.1081 14.6834 26.2498 14.7447 25.4324 14.8776C23.8997 14.7856 22.1729 14.6017 20.5176 14.2543C22.4794 13.4164 24.0734 12.2005 24.758 10.443C25.1259 10.6984 25.5754 10.8517 26.0557 10.8517C27.3023 10.8517 28.3241 9.84012 28.3241 8.58332C28.3241 7.32652 27.3125 6.31494 26.0557 6.31494C24.7989 6.31494 23.7873 7.32652 23.7873 8.58332C23.7873 8.91029 23.8588 9.20661 23.9814 9.49271C23.4603 11.6793 21.3657 13.0077 18.8112 13.8251C16.175 13.0281 13.9781 11.6896 13.457 9.48249C13.5694 9.20661 13.6409 8.91029 13.6409 8.59354C13.6409 7.34695 12.6293 6.32516 11.3725 6.32516C10.1157 6.32516 9.10417 7.33673 9.10417 8.59354C9.10417 9.85034 10.1157 10.8619 11.3725 10.8619C11.8528 10.8619 12.3024 10.7086 12.6702 10.443C13.365 12.2311 14.9795 13.4675 17.0231 14.3054C15.4291 14.6528 13.7738 14.8367 12.2819 14.9389C11.3521 14.7652 10.3814 14.6834 9.36983 14.6834C7.58169 14.6732 5.9877 15.9811 5.83443 17.759C5.66072 19.7515 7.23428 21.4272 9.19612 21.4272C10.2486 21.4272 11.1682 20.9368 11.7915 20.1807L11.8017 20.2011C11.8017 20.2011 13.7431 17.1051 15.8582 20.0172C16.553 20.8857 16.5019 22.1323 15.7151 22.9293C15.3473 23.2971 14.9999 23.6445 14.6831 23.9511C14.2846 24.3291 13.7635 24.5437 13.2118 24.5437H12.1389H12.0265H3.21864C1.45095 24.5437 0 25.9946 0 27.7623C0 29.5403 1.44073 30.981 3.21864 30.981H12.0878C13.3344 30.981 14.3562 31.9926 14.3562 33.2494V33.2596C14.346 36.9687 7.61235 35.1908 7.04014 35.201H6.99927C5.23157 35.2521 3.6478 36.4578 3.30039 38.1948C2.80993 40.6165 4.65937 42.752 6.99927 42.752H7.0708C7.95975 42.7725 14.5912 43.0586 16.1034 45.6539C15.6028 45.797 15.2247 46.2363 15.2247 46.7779C15.2247 47.4318 15.756 47.9632 16.41 47.9632C16.4508 47.9632 16.4917 47.9427 16.5326 47.9427C16.7983 48.9134 17.677 49.6287 18.7192 49.6287C19.7717 49.6287 20.6504 48.9134 20.9059 47.9427C20.9569 47.9529 20.9978 47.9734 21.0387 47.9734C21.6926 47.9734 22.224 47.442 22.224 46.7881C22.224 46.2057 21.7948 45.7459 21.243 45.6437C22.5918 43.2425 28.2934 42.8338 29.9181 42.7725L30.2553 42.7622C32.3397 42.7622 34.0257 41.0763 34.0257 38.9918C34.0257 36.9074 32.3397 35.2214 30.2553 35.2214H30.1633C29.3254 35.1908 23.0618 36.9074 23.072 33.2596C23.072 32.013 24.1143 31.0014 25.3609 31.0014H25.6265H34.0257H34.2096C36.0897 31.0014 37.6019 29.387 37.418 27.466C37.2647 25.7596 35.7627 24.5335 34.0767 24.5335ZM17.5237 24.5335C17.8916 24.1759 18.2798 23.7671 18.6783 23.3278C19.0768 23.7569 19.4651 24.1759 19.833 24.5335H17.5237ZM20.5074 17.2788C20.0986 17.6875 19.7104 18.2699 19.4447 18.6377C19.2097 18.9647 18.9542 19.2917 18.6886 19.6187C18.4229 19.2917 18.1777 18.8421 17.9427 18.5151C17.6157 18.0553 17.6055 18.0145 16.8698 17.2788C16.1954 16.6044 15.4699 16.1139 14.6831 15.7256C16.0319 15.5519 17.4318 15.2863 18.7397 14.898C20.0373 15.2658 21.427 15.5213 22.8064 15.6848C21.9787 16.073 21.2124 16.5839 20.5074 17.2788Z" fill="white"/>
<path d="M89.0555 30.8556V46.2346H85.4294V31.0378C85.4294 25.9539 82.3864 22.7834 78.0314 22.7834C73.0569 22.7287 69.449 26.3366 69.8317 32.7871L69.777 32.5684V46.2529H66.2238V31.056C66.2238 25.9175 63.1808 22.8016 58.9898 22.8016C54.7442 22.8016 50.6807 25.298 50.5714 31.6209V46.2529H46.9453V19.8315H50.5714V24.5873C51.9198 21.0888 55.7099 19.2666 59.6094 19.2666C63.9097 19.2666 67.4082 21.5261 68.8842 25.5895C70.7974 20.3235 75.3893 19.2666 78.6145 19.2666C84.9921 19.2666 89.0555 23.5669 89.0555 30.8556Z" fill="white" stroke="white" stroke-width="0.5" stroke-miterlimit="10"/>
<path d="M94.543 10.1184C94.543 8.58777 95.8367 7.5127 97.3127 7.5127C98.898 7.5127 100.137 8.58777 100.137 10.1184C100.137 11.5943 98.898 12.6694 97.3127 12.6694C95.8367 12.6512 94.543 11.5761 94.543 10.1184ZM95.5087 19.8305H99.1348V46.2337H95.5087V19.8305Z" fill="white" stroke="white" stroke-width="0.5" stroke-miterlimit="10"/>
<path d="M129.415 30.8551V46.2341H125.789V31.0373C125.789 25.9535 122.563 22.8376 118.336 22.8376C114.09 22.8376 109.626 25.2064 109.517 31.6022V46.2341H105.891V19.831H109.517V24.5868C111.102 20.7967 115.402 19.2661 118.682 19.2661C125.06 19.2661 129.415 23.5664 129.415 30.8551Z" fill="white" stroke="white" stroke-width="0.5" stroke-miterlimit="10"/>
<path d="M147.218 22.9467H141.168V46.2339H137.615V22.9467H132.805V19.8308H137.615V9.31689H141.168V19.8308H147.218V22.9467Z" fill="white" stroke="white" stroke-width="0.5" stroke-miterlimit="10"/>
<path d="M151.23 26.8457C151.23 15.767 159.813 6.83838 170.892 6.83838C181.97 6.83838 190.553 15.767 190.553 26.8457C190.553 37.8698 181.97 46.7985 170.892 46.7985C159.813 46.7985 151.23 37.8698 151.23 26.8457ZM186.854 26.8457C186.854 17.8078 179.893 10.3369 170.91 10.3369C161.927 10.3369 154.966 17.7896 154.966 26.8457C154.966 35.8837 161.927 43.2999 170.91 43.2999C179.893 43.2999 186.854 35.8837 186.854 26.8457Z" fill="white" stroke="white" stroke-width="0.5" stroke-miterlimit="10"/>
<path d="M221.545 19.8315V46.2346H217.919V41.0961C215.932 44.7222 211.814 46.7995 207.405 46.7995C200.061 46.7995 194.012 41.0415 194.012 33.0057C194.012 24.97 200.007 19.2666 207.405 19.2666C211.869 19.2666 215.932 21.3621 217.919 24.9153V19.8315H221.545ZM217.937 33.1151C217.937 26.7375 212.962 22.7105 207.696 22.7105C202.157 22.7105 197.638 27.1201 197.638 32.9328C197.638 38.8184 202.157 43.3374 207.696 43.3374C213.181 43.3556 217.937 39.2193 217.937 33.1151Z" fill="white" stroke="white" stroke-width="0.5" stroke-miterlimit="10"/>
<path d="M244.16 46.234L230.821 32.6588V46.234H227.195V4.96191H230.821V29.9438L240.716 19.8308H245.745L234.448 31.3104L249.098 46.234H244.16Z" fill="white" stroke="white" stroke-width="0.5" stroke-miterlimit="10"/>
</svg>
