<svg width="20" height="20" viewBox="0 0 20 20" fill="none" xmlns="http://www.w3.org/2000/svg">
<path d="M15.0007 3.33215H5.00065C4.08018 3.33215 3.33398 4.07835 3.33398 4.99882V14.9988C3.33398 15.9193 4.08018 16.6655 5.00065 16.6655H15.0007C15.9211 16.6655 16.6673 15.9193 16.6673 14.9988V4.99882C16.6673 4.07835 15.9211 3.33215 15.0007 3.33215Z" stroke="#252525" stroke-linecap="round" stroke-linejoin="round"/>
<path d="M10 6.66642V4.99976" stroke="#46AC34" stroke-linecap="round" stroke-linejoin="round"/>
<path d="M12.3613 7.63744L13.5558 6.44299" stroke="#252525" stroke-linecap="round" stroke-linejoin="round"/>
<path d="M13.334 10.0001H15.0007" stroke="#46AC34" stroke-linecap="round" stroke-linejoin="round"/>
<path d="M12.3613 12.3606L13.5558 13.555" stroke="#252525" stroke-linecap="round" stroke-linejoin="round"/>
<path d="M10 13.333V14.9997" stroke="#46AC34" stroke-linecap="round" stroke-linejoin="round"/>
<path d="M7.63976 12.3606L6.44531 13.555" stroke="#252525" stroke-linecap="round" stroke-linejoin="round"/>
<path d="M6.66667 10.0001H5" stroke="#46AC34" stroke-linecap="round" stroke-linejoin="round"/>
<path d="M7.63976 7.63744L6.44531 6.44299" stroke="#252525" stroke-linecap="round" stroke-linejoin="round"/>
</svg>
