<svg width="20" height="20" viewBox="0 0 20 20" fill="none" xmlns="http://www.w3.org/2000/svg">
<path d="M9.99935 10.8333C10.4596 10.8333 10.8327 10.4602 10.8327 9.99996C10.8327 9.53972 10.4596 9.16663 9.99935 9.16663C9.53911 9.16663 9.16602 9.53972 9.16602 9.99996C9.16602 10.4602 9.53911 10.8333 9.99935 10.8333Z" stroke="#252525" stroke-linecap="round" stroke-linejoin="round"/>
<path d="M14.1041 9.2775C13.961 8.46591 13.5805 7.71497 13.0107 7.11964C12.4408 6.52432 11.7073 6.11133 10.9027 5.93292C10.0982 5.75451 9.25876 5.81869 8.49069 6.11733C7.72261 6.41598 7.06034 6.93568 6.58763 7.61072C6.11492 8.28575 5.85299 9.08581 5.83498 9.9097C5.81697 10.7336 6.04368 11.5443 6.48644 12.2394C6.92919 12.9344 7.56812 13.4826 8.32241 13.8145C9.0767 14.1464 9.91248 14.2472 10.7241 14.1042" stroke="#46AC34" stroke-linecap="round" stroke-linejoin="round"/>
<path d="M2.5 10C2.5 11.4834 2.93987 12.9334 3.76398 14.1668C4.58809 15.4001 5.75943 16.3614 7.12987 16.9291C8.50032 17.4968 10.0083 17.6453 11.4632 17.3559C12.918 17.0665 14.2544 16.3522 15.3033 15.3033C16.3522 14.2544 17.0665 12.918 17.3559 11.4632C17.6453 10.0083 17.4968 8.50032 16.9291 7.12987C16.3614 5.75943 15.4001 4.58809 14.1668 3.76398C12.9334 2.93987 11.4834 2.5 10 2.5" stroke="#252525" stroke-linecap="round" stroke-linejoin="round"/>
</svg>
