<svg width="20" height="20" viewBox="0 0 20 20" fill="none" xmlns="http://www.w3.org/2000/svg">
<path d="M10.002 12.5021L12.8353 17.4096L14.167 14.7162L17.1654 14.9096L14.3321 10.0021" stroke="#252525" stroke-linecap="round" stroke-linejoin="round"/>
<path d="M5.66797 10.0021L2.83464 14.9096L5.83303 14.7162L7.16476 17.4096L9.9981 12.5021" stroke="#252525" stroke-linecap="round" stroke-linejoin="round"/>
<path d="M10 12.4996C12.7614 12.4996 15 10.2611 15 7.49963C15 4.73821 12.7614 2.49963 10 2.49963C7.23858 2.49963 5 4.73821 5 7.49963C5 10.2611 7.23858 12.4996 10 12.4996Z" stroke="#252525" stroke-linecap="round" stroke-linejoin="round"/>
<path d="M9.99935 10.8329C11.8403 10.8329 13.3327 9.34054 13.3327 7.49959C13.3327 5.65864 11.8403 4.16626 9.99935 4.16626C8.1584 4.16626 6.66602 5.65864 6.66602 7.49959C6.66602 9.34054 8.1584 10.8329 9.99935 10.8329Z" stroke="#46AC34" stroke-linecap="round" stroke-linejoin="round"/>
</svg>
