<svg width="20" height="20" viewBox="0 0 20 20" fill="none" xmlns="http://www.w3.org/2000/svg">
<path d="M11.666 2.50037V5.8337C11.666 6.05471 11.7538 6.26667 11.9101 6.42295C12.0664 6.57924 12.2783 6.66703 12.4993 6.66703H15.8327" stroke="#252525" stroke-linecap="round" stroke-linejoin="round"/>
<path d="M9.99935 17.5004H5.83268C5.39065 17.5004 4.96673 17.3248 4.65417 17.0122C4.34161 16.6996 4.16602 16.2757 4.16602 15.8337V4.16703C4.16602 3.72501 4.34161 3.30108 4.65417 2.98852C4.96673 2.67596 5.39065 2.50037 5.83268 2.50037H11.666L15.8327 6.66703V10.417" stroke="#252525" stroke-linecap="round" stroke-linejoin="round"/>
<path d="M13.7493 16.6667C14.8999 16.6667 15.8327 15.7339 15.8327 14.5833C15.8327 13.4327 14.8999 12.5 13.7493 12.5C12.5988 12.5 11.666 13.4327 11.666 14.5833C11.666 15.7339 12.5988 16.6667 13.7493 16.6667Z" stroke="#46AC34" stroke-linecap="round" stroke-linejoin="round"/>
<path d="M15.416 16.2504L17.4993 18.3337" stroke="#46AC34" stroke-linecap="round" stroke-linejoin="round"/>
</svg>
