<svg width="20" height="20" viewBox="0 0 20 20" fill="none" xmlns="http://www.w3.org/2000/svg">
<path d="M8.33333 14.167C11.555 14.167 14.1667 11.5554 14.1667 8.3337C14.1667 5.11204 11.555 2.50037 8.33333 2.50037C5.11167 2.50037 2.5 5.11204 2.5 8.3337C2.5 11.5554 5.11167 14.167 8.33333 14.167Z" stroke="#252525" stroke-linecap="round" stroke-linejoin="round"/>
<path d="M17.5 17.5L12.5 12.5" stroke="#252525" stroke-linecap="round" stroke-linejoin="round"/>
<path d="M8.33398 10.8334V10.8417" stroke="#46AC34" stroke-linecap="round" stroke-linejoin="round"/>
<path d="M8.33281 8.33289C8.54257 8.33299 8.74897 8.28031 8.93302 8.1797C9.11707 8.07909 9.27284 7.93379 9.38598 7.75717C9.49913 7.58055 9.56601 7.3783 9.58047 7.16904C9.59493 6.95979 9.55649 6.75026 9.46871 6.55976C9.38093 6.36926 9.24662 6.20391 9.07816 6.07895C8.9097 5.95398 8.7125 5.87342 8.50472 5.84468C8.29695 5.81594 8.08528 5.83994 7.88922 5.91448C7.69316 5.98902 7.51901 6.1117 7.38281 6.27122" stroke="#46AC34" stroke-linecap="round" stroke-linejoin="round"/>
</svg>
