<svg width="20" height="20" viewBox="0 0 20 20" fill="none" xmlns="http://www.w3.org/2000/svg">
<path d="M14.8326 16.5137L13.0226 17.4621C12.9688 17.49 12.9084 17.5025 12.848 17.4981C12.7876 17.4937 12.7296 17.4726 12.6805 17.4372C12.6314 17.4017 12.5932 17.3533 12.57 17.2974C12.5468 17.2415 12.5396 17.1802 12.5492 17.1204L12.8951 15.1112L11.4309 13.6887C11.3872 13.6465 11.3562 13.5928 11.3416 13.5338C11.3269 13.4748 11.3292 13.4129 11.348 13.3551C11.3669 13.2973 11.4016 13.246 11.4482 13.207C11.4949 13.168 11.5515 13.1429 11.6117 13.1346L13.6351 12.8412L14.5401 11.0137C14.5671 10.9593 14.6088 10.9135 14.6605 10.8815C14.7122 10.8495 14.7718 10.8325 14.8326 10.8325C14.8933 10.8325 14.9529 10.8495 15.0046 10.8815C15.0563 10.9135 15.098 10.9593 15.1251 11.0137L16.0301 12.8412L18.0534 13.1346C18.1134 13.1432 18.1698 13.1685 18.2163 13.2075C18.2627 13.2465 18.2973 13.2978 18.3161 13.3554C18.3349 13.4131 18.3372 13.4749 18.3227 13.5338C18.3083 13.5927 18.2776 13.6464 18.2342 13.6887L16.7701 15.1112L17.1151 17.1196C17.1254 17.1795 17.1188 17.2411 17.0959 17.2974C17.073 17.3537 17.0348 17.4024 16.9855 17.4381C16.9363 17.4738 16.8781 17.4949 16.8175 17.4991C16.7569 17.5034 16.6963 17.4905 16.6426 17.4621L14.8326 16.5137V16.5137Z" stroke="#252525" stroke-linecap="round" stroke-linejoin="round"/>
<path d="M5.16654 16.5137L3.35654 17.4621C3.30283 17.49 3.2424 17.5025 3.18201 17.4981C3.12161 17.4937 3.06363 17.4726 3.01453 17.4372C2.96543 17.4017 2.92715 17.3533 2.90396 17.2974C2.88077 17.2415 2.87359 17.1802 2.88321 17.1204L3.22904 15.1112L1.76487 13.6887C1.72117 13.6465 1.69023 13.5928 1.67557 13.5338C1.66092 13.4748 1.66315 13.4129 1.68201 13.3551C1.70086 13.2973 1.73559 13.246 1.78222 13.207C1.82884 13.168 1.8855 13.1429 1.94571 13.1346L3.96904 12.8412L4.87404 11.0137C4.9011 10.9593 4.94282 10.9135 4.9945 10.8815C5.04617 10.8495 5.10575 10.8325 5.16654 10.8325C5.22733 10.8325 5.28691 10.8495 5.33858 10.8815C5.39026 10.9135 5.43197 10.9593 5.45904 11.0137L6.36404 12.8412L8.38737 13.1346C8.44741 13.1432 8.50383 13.1685 8.55025 13.2075C8.59667 13.2465 8.63125 13.2978 8.65006 13.3554C8.66888 13.4131 8.67118 13.4749 8.65672 13.5338C8.64225 13.5927 8.61159 13.6464 8.56821 13.6887L7.10404 15.1112L7.44904 17.1196C7.45939 17.1795 7.45275 17.2411 7.42985 17.2974C7.40696 17.3537 7.36874 17.4024 7.31953 17.4381C7.27032 17.4738 7.2121 17.4949 7.15147 17.4991C7.09084 17.5034 7.03023 17.4905 6.97654 17.4621L5.16654 16.5137V16.5137Z" stroke="#252525" stroke-linecap="round" stroke-linejoin="round"/>
<path d="M10.0005 8.18037L8.19052 9.1287C8.13681 9.15665 8.07638 9.16913 8.01599 9.16473C7.9556 9.16034 7.89761 9.13924 7.84852 9.1038C7.79942 9.06836 7.76114 9.01997 7.73795 8.96403C7.71476 8.9081 7.70757 8.84682 7.71719 8.78703L8.06302 6.77787L6.59886 5.35537C6.55515 5.31312 6.52421 5.25943 6.50956 5.20044C6.49491 5.14145 6.49714 5.07952 6.51599 5.02174C6.53485 4.96395 6.56957 4.91263 6.6162 4.87363C6.66283 4.83464 6.71948 4.80954 6.77969 4.8012L8.80302 4.50787L9.70802 2.68037C9.73509 2.62594 9.77681 2.58014 9.82848 2.54812C9.88015 2.51611 9.93974 2.49915 10.0005 2.49915C10.0613 2.49915 10.1209 2.51611 10.1726 2.54812C10.2242 2.58014 10.266 2.62594 10.293 2.68037L11.198 4.50787L13.2214 4.8012C13.2814 4.80983 13.3378 4.8351 13.3842 4.87413C13.4307 4.91316 13.4652 4.96441 13.484 5.02207C13.5029 5.07973 13.5052 5.1415 13.4907 5.2004C13.4762 5.2593 13.4456 5.31298 13.4022 5.35537L11.938 6.77787L12.283 8.7862C12.2934 8.84609 12.2867 8.90768 12.2638 8.96398C12.2409 9.02028 12.2027 9.06904 12.1535 9.10471C12.1043 9.14038 12.0461 9.16153 11.9855 9.16578C11.9248 9.17002 11.8642 9.15717 11.8105 9.1287L10.0005 8.18037V8.18037Z" stroke="#46AC34" stroke-linecap="round" stroke-linejoin="round"/>
</svg>
