<svg width="20" height="20" viewBox="0 0 20 20" fill="none" xmlns="http://www.w3.org/2000/svg">
<path d="M13.334 5.00004H15.834C16.055 5.00004 16.267 5.08784 16.4232 5.24412C16.5795 5.4004 16.6673 5.61236 16.6673 5.83337V15C16.6673 15.4421 16.4917 15.866 16.1792 16.1786C15.8666 16.4911 15.4427 16.6667 15.0007 16.6667C14.5586 16.6667 14.1347 16.4911 13.8221 16.1786C13.5096 15.866 13.334 15.4421 13.334 15V4.16671C13.334 3.94569 13.2462 3.73373 13.0899 3.57745C12.9336 3.42117 12.7217 3.33337 12.5007 3.33337H4.16732C3.9463 3.33337 3.73434 3.42117 3.57806 3.57745C3.42178 3.73373 3.33398 3.94569 3.33398 4.16671V14.1667C3.33398 14.8297 3.59738 15.4656 4.06622 15.9345C4.53506 16.4033 5.17094 16.6667 5.83398 16.6667H15.0007" stroke="#252525" stroke-linecap="round" stroke-linejoin="round"/>
<path d="M6.66602 6.66663H9.99935" stroke="#46AC34" stroke-linecap="round" stroke-linejoin="round"/>
<path d="M6.66602 9.99963H9.99935" stroke="#46AC34" stroke-linecap="round" stroke-linejoin="round"/>
<path d="M6.66602 13.3334H9.99935" stroke="#46AC34" stroke-linecap="round" stroke-linejoin="round"/>
</svg>
