<svg width="20" height="20" viewBox="0 0 20 20" fill="none" xmlns="http://www.w3.org/2000/svg">
<path d="M15 7.49951C15.345 7.7906 15.625 8.16805 15.8179 8.60197C16.0107 9.03589 16.1111 9.51437 16.1111 9.99951C16.1111 10.4847 16.0107 10.9631 15.8179 11.3971C15.625 11.831 15.345 12.2084 15 12.4995" stroke="#46AC34" stroke-linecap="round" stroke-linejoin="round"/>
<path d="M16.834 5.83252C17.4412 6.33469 17.9309 6.9695 18.2674 7.69045C18.6038 8.4114 18.7784 9.20023 18.7784 9.99919C18.7784 10.7981 18.6038 11.587 18.2674 12.3079C17.9309 13.0289 17.4412 13.6637 16.834 14.1659" stroke="#46AC34" stroke-linecap="round" stroke-linejoin="round"/>
<path d="M5 7.49951C4.65501 7.7906 4.375 8.16805 4.18215 8.60197C3.98929 9.03589 3.88889 9.51437 3.88889 9.99951C3.88889 10.4847 3.98929 10.9631 4.18215 11.3971C4.375 11.831 4.65501 12.2084 5 12.4995" stroke="#46AC34" stroke-linecap="round" stroke-linejoin="round"/>
<path d="M3.16602 5.83252C2.55882 6.33469 2.06907 6.9695 1.73263 7.69045C1.39619 8.4114 1.22157 9.20023 1.22157 9.99919C1.22157 10.7981 1.39619 11.587 1.73263 12.3079C2.06907 13.0289 2.55882 13.6637 3.16602 14.1659" stroke="#46AC34" stroke-linecap="round" stroke-linejoin="round"/>
<path d="M12.9154 7.34832C12.9154 5.59105 11.6095 4.1665 9.9987 4.1665C8.38787 4.1665 7.08203 5.59105 7.08203 7.34832V12.6514C7.08203 14.4086 8.38787 15.8332 9.9987 15.8332C11.6095 15.8332 12.9154 14.4086 12.9154 12.6514V7.34832Z" stroke="#252525" stroke-linecap="round" stroke-linejoin="round"/>
</svg>
