<svg width="20" height="20" viewBox="0 0 20 20" fill="none" xmlns="http://www.w3.org/2000/svg">
<path d="M3.33398 5.00004C3.33398 4.55801 3.51143 4.13409 3.82728 3.82153C4.14313 3.50897 4.57151 3.33337 5.01819 3.33337H13.4392C13.6626 3.33337 13.8768 3.42117 14.0347 3.57745C14.1926 3.73373 14.2814 3.94569 14.2814 4.16671V6.66671H15.1235M3.33398 5.00004C3.33398 5.44207 3.51143 5.86599 3.82728 6.17855C4.14313 6.49111 4.57151 6.66671 5.01819 6.66671H15.1235M3.33398 5.00004V15C3.33398 15.4421 3.51143 15.866 3.82728 16.1786C4.14313 16.4911 4.57151 16.6667 5.01819 16.6667H15.1235C15.3468 16.6667 15.561 16.5789 15.7189 16.4226C15.8768 16.2663 15.9656 16.0544 15.9656 15.8334V13.3334M15.1235 6.66671C15.3468 6.66671 15.561 6.7545 15.7189 6.91078M15.1235 6.66671C15.1235 6.66671 15.5176 6.66671 15.7189 6.91078M15.7189 6.91078C15.8768 7.06707 15.9656 7.27903 15.9656 7.50004M15.7189 6.91078C15.9656 7.09406 15.9656 7.50004 15.9656 7.50004M15.9656 7.50004V9.65816V8.9744V8.1197V7.50004Z" stroke="#252525" stroke-linecap="round" stroke-linejoin="round"/>
<path d="M16.6655 9.64917V13.1579H13.1567C12.6914 13.1579 12.2452 12.9731 11.9162 12.6441C11.5872 12.3151 11.4023 11.8688 11.4023 11.4036C11.4023 10.9383 11.5872 10.492 11.9162 10.163C12.2452 9.83401 12.6914 9.64917 13.1567 9.64917H16.6655Z" stroke="#252525" stroke-linecap="round" stroke-linejoin="round"/>
<path d="M7.52344 13.8813C8.90415 13.8813 10.0234 12.7621 10.0234 11.3813C10.0234 10.0006 8.90415 8.88135 7.52344 8.88135C6.14273 8.88135 5.02344 10.0006 5.02344 11.3813C5.02344 12.7621 6.14273 13.8813 7.52344 13.8813Z" stroke="#46AC34" stroke-linecap="round" stroke-linejoin="round"/>
<path d="M7.19336 10.3506V11.6664L7.89511 12.4558" stroke="#46AC34" stroke-linecap="round" stroke-linejoin="round"/>
</svg>
