<svg width="21" height="21" viewBox="0 0 21 21" fill="none" xmlns="http://www.w3.org/2000/svg">
<path d="M12.5 9.16667L16.6667 5L20 8.33333L15.8333 12.5" stroke="#46AC34" stroke-linecap="round" stroke-linejoin="round"/>
<path d="M9.16667 12.5L5 16.6667L8.33333 20L12.5 15.8333" stroke="#46AC34" stroke-linecap="round" stroke-linejoin="round"/>
<path d="M5.83256 8.33366H8.33256V5.83366L5.41589 2.91699C6.34892 2.47139 7.39714 2.326 8.41623 2.50084C9.43531 2.67569 10.3751 3.16217 11.1063 3.8933C11.8374 4.62443 12.3239 5.56425 12.4987 6.58333C12.6736 7.60241 12.5282 8.65063 12.0826 9.58366L17.0826 14.5837C17.4141 14.9152 17.6003 15.3648 17.6003 15.8337C17.6003 16.3025 17.4141 16.7521 17.0826 17.0837C16.751 17.4152 16.3014 17.6014 15.8326 17.6014C15.3637 17.6014 14.9141 17.4152 14.5826 17.0837L9.58256 12.0837C8.64954 12.5293 7.60131 12.6747 6.58223 12.4998C5.56315 12.325 4.62333 11.8385 3.8922 11.1073C3.16108 10.3762 2.67459 9.43641 2.49975 8.41732C2.3249 7.39824 2.47029 6.35002 2.91589 5.41699L5.83256 8.33366Z" stroke="#252525" stroke-linecap="round" stroke-linejoin="round"/>
<path d="M16.666 9.16663L17.916 10.4166" stroke="#46AC34" stroke-linecap="round" stroke-linejoin="round"/>
<path d="M9.16602 16.6666L10.416 17.9166" stroke="#46AC34" stroke-linecap="round" stroke-linejoin="round"/>
</svg>
