<svg width="20" height="20" viewBox="0 0 20 20" fill="none" xmlns="http://www.w3.org/2000/svg">
<path d="M16.666 3.33289V8.33289M14.166 5.83289H19.166H14.166Z" stroke="#46AC34" stroke-linecap="round" stroke-linejoin="round"/>
<path d="M7.49935 9.16667C9.3403 9.16667 10.8327 7.67428 10.8327 5.83333C10.8327 3.99238 9.3403 2.5 7.49935 2.5C5.6584 2.5 4.16602 3.99238 4.16602 5.83333C4.16602 7.67428 5.6584 9.16667 7.49935 9.16667Z" stroke="#252525" stroke-linecap="round" stroke-linejoin="round"/>
<path d="M2.5 17.5004V15.8337C2.5 14.9496 2.85119 14.1018 3.47631 13.4767C4.10143 12.8516 4.94928 12.5004 5.83333 12.5004H9.16667C10.0507 12.5004 10.8986 12.8516 11.5237 13.4767C12.1488 14.1018 12.5 14.9496 12.5 15.8337V17.5004" stroke="#252525" stroke-linecap="round" stroke-linejoin="round"/>
</svg>
