<svg width="20" height="20" viewBox="0 0 20 20" fill="none" xmlns="http://www.w3.org/2000/svg">
<path d="M5.00065 17.5C5.92113 17.5 6.66732 16.7538 6.66732 15.8333C6.66732 14.9128 5.92113 14.1666 5.00065 14.1666C4.08018 14.1666 3.33398 14.9128 3.33398 15.8333C3.33398 16.7538 4.08018 17.5 5.00065 17.5Z" stroke="#252525" stroke-linecap="round" stroke-linejoin="round"/>
<path d="M14.1667 17.5C15.0871 17.5 15.8333 16.7538 15.8333 15.8333C15.8333 14.9128 15.0871 14.1666 14.1667 14.1666C13.2462 14.1666 12.5 14.9128 12.5 15.8333C12.5 16.7538 13.2462 17.5 14.1667 17.5Z" stroke="#252525" stroke-linecap="round" stroke-linejoin="round"/>
<path d="M14.1673 14.1667H5.00065V2.5H3.33398" stroke="#252525" stroke-linecap="round" stroke-linejoin="round"/>
<path d="M15.9525 10.0021L15.8333 10.8338H5M5 4.16711L10.0042 4.52461L5 4.16711Z" stroke="#252525" stroke-linecap="round" stroke-linejoin="round"/>
<path d="M11.1045 8.56836C11.3584 8.56836 11.5146 8.40723 11.5146 8.14355V3.07031H11.5488L13.6387 8.08008C13.7461 8.33398 13.9121 8.45117 14.166 8.45117C14.4199 8.45117 14.5811 8.33398 14.6934 8.07031L16.7832 3.07031H16.8174V8.14355C16.8174 8.40723 16.9736 8.56836 17.2275 8.56836C17.4814 8.56836 17.6377 8.40723 17.6377 8.14355V1.93262C17.6377 1.60059 17.418 1.38574 17.0859 1.38574C16.7832 1.38574 16.5928 1.53223 16.4561 1.85449L14.1855 7.33301H14.1465L11.8711 1.85449C11.7344 1.52734 11.5537 1.38574 11.2559 1.38574C10.9189 1.38574 10.6943 1.60547 10.6943 1.93262V8.14355C10.6943 8.40723 10.8506 8.56836 11.1045 8.56836Z" fill="#46AC34"/>
</svg>
