<svg width="857" height="440" viewBox="0 0 857 440" fill="none" xmlns="http://www.w3.org/2000/svg">
<path d="M855.308 47.9101C855.308 52.2186 853.419 55.6978 851.089 55.6978H834.996C832.666 55.6978 830.776 52.2186 830.776 47.9101V26.0328C830.776 21.7393 832.666 18.2553 834.996 18.2553H851.089C853.419 18.2553 855.308 21.7393 855.308 26.0328V47.9101ZM855.308 412.655C855.308 416.948 853.419 420.432 851.089 420.432H834.996C832.666 420.432 830.776 416.948 830.776 412.655V390.777C830.776 386.48 832.666 382.997 834.996 382.997H851.089C853.419 382.997 855.308 386.48 855.308 390.777V412.655ZM817.854 47.9101C817.854 52.2186 815.97 55.6978 813.635 55.6978H797.543C795.218 55.6978 793.328 52.2186 793.328 47.9101V26.0328C793.328 21.7393 795.218 18.2553 797.543 18.2553H813.635C815.97 18.2553 817.854 21.7393 817.854 26.0328V47.9101ZM817.854 412.655C817.854 416.948 815.97 420.432 813.635 420.432H797.543C795.218 420.432 793.328 416.948 793.328 412.655V390.777C793.328 386.48 795.218 382.997 797.543 382.997H813.635C815.97 382.997 817.854 386.48 817.854 390.777V412.655ZM780.406 47.9101C780.406 52.2186 778.517 55.6978 776.187 55.6978H760.094C757.764 55.6978 755.87 52.2186 755.87 47.9101V26.0328C755.87 21.7393 757.764 18.2553 760.094 18.2553H776.187C778.517 18.2553 780.406 21.7393 780.406 26.0328V47.9101ZM780.406 412.655C780.406 416.948 778.517 420.432 776.187 420.432H760.094C757.764 420.432 755.87 416.948 755.87 412.655V390.777C755.87 386.48 757.764 382.997 760.094 382.997H776.187C778.517 382.997 780.406 386.48 780.406 390.777V412.655ZM742.948 47.9101C742.948 52.2186 741.064 55.6978 738.734 55.6978H722.636C720.311 55.6978 718.416 52.2186 718.416 47.9101V26.0328C718.416 21.7393 720.311 18.2553 722.636 18.2553H738.734C741.064 18.2553 742.948 21.7393 742.948 26.0328V47.9101ZM742.948 412.655C742.948 416.948 741.064 420.432 738.734 420.432H722.636C720.311 420.432 718.416 416.948 718.416 412.655V390.777C718.416 386.48 720.311 382.997 722.636 382.997H738.734C741.064 382.997 742.948 386.48 742.948 390.777V412.655ZM705.505 47.9101C705.505 52.2186 703.615 55.6978 701.28 55.6978H685.188C682.858 55.6978 680.968 52.2186 680.968 47.9101V26.0328C680.968 21.7393 682.858 18.2553 685.188 18.2553H701.28C703.615 18.2553 705.505 21.7393 705.505 26.0328V47.9101ZM705.505 412.655C705.505 416.948 703.615 420.432 701.28 420.432H685.188C682.858 420.432 680.968 416.948 680.968 412.655V390.777C680.968 386.48 682.858 382.997 685.188 382.997H701.28C703.615 382.997 705.505 386.48 705.505 390.777V412.655ZM668.046 47.9101C668.046 52.2186 666.162 55.6978 663.827 55.6978H647.734C645.404 55.6978 643.515 52.2186 643.515 47.9101V26.0328C643.515 21.7393 645.404 18.2553 647.734 18.2553H663.827C666.162 18.2553 668.046 21.7393 668.046 26.0328V47.9101ZM668.046 412.655C668.046 416.948 666.162 420.432 663.827 420.432H647.734C645.404 420.432 643.515 416.948 643.515 412.655V390.777C643.515 386.48 645.404 382.997 647.734 382.997H663.827C666.162 382.997 668.046 386.48 668.046 390.777V412.655ZM630.598 47.9101C630.598 52.2186 628.709 55.6978 626.379 55.6978H610.286C607.956 55.6978 606.067 52.2186 606.067 47.9101V26.0328C606.067 21.7393 607.956 18.2553 610.286 18.2553H626.379C628.709 18.2553 630.598 21.7393 630.598 26.0328V47.9101ZM630.598 412.655C630.598 416.948 628.709 420.432 626.379 420.432H610.286C607.956 420.432 606.067 416.948 606.067 412.655V390.777C606.067 386.48 607.956 382.997 610.286 382.997H626.379C628.709 382.997 630.598 386.48 630.598 390.777V412.655ZM593.145 47.9101C593.145 52.2186 591.256 55.6978 588.926 55.6978H572.833C570.503 55.6978 568.608 52.2186 568.608 47.9101V26.0328C568.608 21.7393 570.503 18.2553 572.833 18.2553H588.926C591.256 18.2553 593.145 21.7393 593.145 26.0328V47.9101ZM593.145 412.655C593.145 416.948 591.256 420.432 588.926 420.432H572.833C570.503 420.432 568.608 416.948 568.608 412.655V390.777C568.608 386.48 570.503 382.997 572.833 382.997H588.926C591.256 382.997 593.145 386.48 593.145 390.777V412.655ZM555.687 47.9101C555.687 52.2186 553.802 55.6978 551.472 55.6978H535.38C533.055 55.6978 531.16 52.2186 531.16 47.9101V26.0328C531.16 21.7393 533.055 18.2553 535.38 18.2553H551.472C553.802 18.2553 555.687 21.7393 555.687 26.0328V47.9101ZM555.687 412.655C555.687 416.948 553.802 420.432 551.472 420.432H535.38C533.055 420.432 531.16 416.948 531.16 412.655V390.777C531.16 386.48 533.055 382.997 535.38 382.997H551.472C553.802 382.997 555.687 386.48 555.687 390.777V412.655ZM518.243 47.9101C518.243 52.2186 516.354 55.6978 514.019 55.6978H497.926C495.596 55.6978 493.707 52.2186 493.707 47.9101V26.0328C493.707 21.7393 495.596 18.2553 497.926 18.2553H514.019C516.354 18.2553 518.243 21.7393 518.243 26.0328V47.9101ZM518.243 412.655C518.243 416.948 516.354 420.432 514.019 420.432H497.926C495.596 420.432 493.707 416.948 493.707 412.655V390.777C493.707 386.48 495.596 382.997 497.926 382.997H514.019C516.354 382.997 518.243 386.48 518.243 390.777V412.655ZM480.785 47.9101C480.785 52.2186 478.901 55.6978 476.565 55.6978H460.478C458.153 55.6978 456.258 52.2186 456.258 47.9101V26.0328C456.258 21.7393 458.153 18.2553 460.478 18.2553H476.565C478.901 18.2553 480.785 21.7393 480.785 26.0328V47.9101ZM480.785 412.655C480.785 416.948 478.901 420.432 476.565 420.432H460.478C458.153 420.432 456.258 416.948 456.258 412.655V390.777C456.258 386.48 458.153 382.997 460.478 382.997H476.565C478.901 382.997 480.785 386.48 480.785 390.777V412.655ZM443.337 47.9101C443.337 52.2186 441.452 55.6978 439.117 55.6978H423.025C420.695 55.6978 418.805 52.2186 418.805 47.9101V26.0328C418.805 21.7393 420.695 18.2553 423.025 18.2553H439.117C441.452 18.2553 443.337 21.7393 443.337 26.0328V47.9101ZM443.337 412.655C443.337 416.948 441.452 420.432 439.117 420.432H423.025C420.695 420.432 418.805 416.948 418.805 412.655V390.777C418.805 386.48 420.695 382.997 423.025 382.997H439.117C441.452 382.997 443.337 386.48 443.337 390.777V412.655ZM405.883 47.9101C405.883 52.2186 403.994 55.6978 401.664 55.6978H385.571C383.241 55.6978 381.352 52.2186 381.352 47.9101V26.0328C381.352 21.7393 383.241 18.2553 385.571 18.2553H401.664C403.994 18.2553 405.883 21.7393 405.883 26.0328V47.9101ZM405.883 412.655C405.883 416.948 403.994 420.432 401.664 420.432H385.571C383.241 420.432 381.352 416.948 381.352 412.655V390.777C381.352 386.48 383.241 382.997 385.571 382.997H401.664C403.994 382.997 405.883 386.48 405.883 390.777V412.655ZM368.435 47.9101C368.435 52.2186 366.546 55.6978 364.216 55.6978H348.118C345.793 55.6978 343.904 52.2186 343.904 47.9101V26.0328C343.904 21.7393 345.793 18.2553 348.118 18.2553H364.216C366.546 18.2553 368.435 21.7393 368.435 26.0328V47.9101ZM368.435 412.655C368.435 416.948 366.546 420.432 364.216 420.432H348.118C345.793 420.432 343.904 416.948 343.904 412.655V390.777C343.904 386.48 345.793 382.997 348.118 382.997H364.216C366.546 382.997 368.435 386.48 368.435 390.777V412.655ZM330.982 47.9101C330.982 52.2186 329.092 55.6978 326.757 55.6978H310.67C308.335 55.6978 306.445 52.2186 306.445 47.9101V26.0328C306.445 21.7393 308.335 18.2553 310.67 18.2553H326.757C329.092 18.2553 330.982 21.7393 330.982 26.0328V47.9101ZM330.982 412.655C330.982 416.948 329.092 420.432 326.757 420.432H310.67C308.335 420.432 306.445 416.948 306.445 412.655V390.777C306.445 386.48 308.335 382.997 310.67 382.997H326.757C329.092 382.997 330.982 386.48 330.982 390.777V412.655ZM293.528 47.9101C293.528 52.2186 291.639 55.6978 289.314 55.6978H273.216C270.886 55.6978 268.997 52.2186 268.997 47.9101V26.0328C268.997 21.7393 270.886 18.2553 273.216 18.2553H289.314C291.639 18.2553 293.528 21.7393 293.528 26.0328V47.9101ZM293.528 412.655C293.528 416.948 291.639 420.432 289.314 420.432H273.216C270.886 420.432 268.997 416.948 268.997 412.655V390.777C268.997 386.48 270.886 382.997 273.216 382.997H289.314C291.639 382.997 293.528 386.48 293.528 390.777V412.655ZM256.08 47.9101C256.08 52.2186 254.191 55.6978 251.856 55.6978H235.763C233.433 55.6978 231.544 52.2186 231.544 47.9101V26.0328C231.544 21.7393 233.433 18.2553 235.763 18.2553H251.856C254.191 18.2553 256.08 21.7393 256.08 26.0328V47.9101ZM256.08 412.655C256.08 416.948 254.191 420.432 251.856 420.432H235.763C233.433 420.432 231.544 416.948 231.544 412.655V390.777C231.544 386.48 233.433 382.997 235.763 382.997H251.856C254.191 382.997 256.08 386.48 256.08 390.777V412.655ZM218.627 47.9101C218.627 52.2186 216.732 55.6978 214.407 55.6978H198.315C195.985 55.6978 194.09 52.2186 194.09 47.9101V26.0328C194.09 21.7393 195.985 18.2553 198.315 18.2553H214.407C216.732 18.2553 218.627 21.7393 218.627 26.0328V47.9101ZM218.627 412.655C218.627 416.948 216.732 420.432 214.407 420.432H198.315C195.985 420.432 194.09 416.948 194.09 412.655V390.777C194.09 386.48 195.985 382.997 198.315 382.997H214.407C216.732 382.997 218.627 386.48 218.627 390.777V412.655ZM181.174 47.9101C181.174 52.2186 179.284 55.6978 176.954 55.6978H160.857C158.531 55.6978 156.642 52.2186 156.642 47.9101V26.0328C156.642 21.7393 158.531 18.2553 160.857 18.2553H176.954C179.284 18.2553 181.174 21.7393 181.174 26.0328V47.9101ZM181.174 412.655C181.174 416.948 179.284 420.432 176.954 420.432H160.857C158.531 420.432 156.642 416.948 156.642 412.655V390.777C156.642 386.48 158.531 382.997 160.857 382.997H176.954C179.284 382.997 181.174 386.48 181.174 390.777V412.655ZM143.72 47.9101C143.72 52.2186 141.831 55.6978 139.496 55.6978H123.408C121.078 55.6978 119.189 52.2186 119.189 47.9101V26.0328C119.189 21.7393 121.078 18.2553 123.408 18.2553H139.496C141.831 18.2553 143.72 21.7393 143.72 26.0328V47.9101ZM143.72 412.655C143.72 416.948 141.831 420.432 139.496 420.432H123.408C121.078 420.432 119.189 416.948 119.189 412.655V390.777C119.189 386.48 121.078 382.997 123.408 382.997H139.496C141.831 382.997 143.72 386.48 143.72 390.777V412.655ZM106.267 47.9101C106.267 52.2186 104.383 55.6978 102.053 55.6978H85.955C83.6299 55.6978 81.7354 52.2186 81.7354 47.9101V26.0328C81.7354 21.7393 83.6299 18.2553 85.955 18.2553H102.053C104.383 18.2553 106.267 21.7393 106.267 26.0328V47.9101ZM106.267 412.655C106.267 416.948 104.383 420.432 102.053 420.432H85.955C83.6299 420.432 81.7354 416.948 81.7354 412.655V390.777C81.7354 386.48 83.6299 382.997 85.955 382.997H102.053C104.383 382.997 106.267 386.48 106.267 390.777V412.655ZM68.8137 47.9101C68.8137 52.2186 66.9294 55.6978 64.5943 55.6978H48.5067C46.1766 55.6978 44.2872 52.2186 44.2872 47.9101V26.0328C44.2872 21.7393 46.1766 18.2553 48.5067 18.2553H64.5943C66.9294 18.2553 68.8137 21.7393 68.8137 26.0328V47.9101ZM68.8137 412.655C68.8137 416.948 66.9294 420.432 64.5943 420.432H48.5067C46.1766 420.432 44.2872 416.948 44.2872 412.655V390.777C44.2872 386.48 46.1766 382.997 48.5067 382.997H64.5943C66.9294 382.997 68.8137 386.48 68.8137 390.777V412.655ZM31.3655 47.9101C31.3655 52.2186 29.4761 55.6978 27.146 55.6978H11.0533C8.72327 55.6978 6.82886 52.2186 6.82886 47.9101V26.0328C6.82886 21.7393 8.72327 18.2553 11.0533 18.2553H27.146C29.4761 18.2553 31.3655 21.7393 31.3655 26.0328V47.9101ZM31.3655 412.655C31.3655 416.948 29.4761 420.432 27.146 420.432H11.0533C8.72327 420.432 6.82886 416.948 6.82886 412.655V390.777C6.82886 386.48 8.72327 382.997 11.0533 382.997H27.146C29.4761 382.997 31.3655 386.48 31.3655 390.777V412.655ZM-6.08789 47.9101C-6.08789 52.2186 -7.97217 55.6978 -10.3073 55.6978H-26.405C-28.73 55.6978 -30.6194 52.2186 -30.6194 47.9101V26.0328C-30.6194 21.7393 -28.73 18.2553 -26.405 18.2553H-10.3073C-7.97217 18.2553 -6.08789 21.7393 -6.08789 26.0328V47.9101ZM-6.08789 412.655C-6.08789 416.948 -7.97217 420.432 -10.3073 420.432H-26.405C-28.73 420.432 -30.6194 416.948 -30.6194 412.655V390.777C-30.6194 386.48 -28.73 382.997 -26.405 382.997H-10.3073C-7.97217 382.997 -6.08789 386.48 -6.08789 390.777V412.655ZM-43.5361 47.9101C-43.5361 52.2186 -45.4254 55.6978 -47.7606 55.6978H-63.8533C-66.1833 55.6978 -68.0727 52.2186 -68.0727 47.9101V26.0328C-68.0727 21.7393 -66.1833 18.2553 -63.8533 18.2553H-47.7606C-45.4254 18.2553 -43.5361 21.7393 -43.5361 26.0328V47.9101ZM-43.5361 412.655C-43.5361 416.948 -45.4254 420.432 -47.7606 420.432H-63.8533C-66.1833 420.432 -68.0727 416.948 -68.0727 412.655V390.777C-68.0727 386.48 -66.1833 382.997 -63.8533 382.997H-47.7606C-45.4254 382.997 -43.5361 386.48 -43.5361 390.777V412.655ZM-80.9945 47.9101C-80.9945 52.2186 -82.8788 55.6978 -85.2089 55.6978H-101.307C-103.632 55.6978 -105.526 52.2186 -105.526 47.9101V26.0328C-105.526 21.7393 -103.632 18.2553 -101.307 18.2553H-85.2089C-82.8788 18.2553 -80.9945 21.7393 -80.9945 26.0328V47.9101ZM-80.9945 412.655C-80.9945 416.948 -82.8788 420.432 -85.2089 420.432H-101.307C-103.632 420.432 -105.526 416.948 -105.526 412.655V390.777C-105.526 386.48 -103.632 382.997 -101.307 382.997H-85.2089C-82.8788 382.997 -80.9945 386.48 -80.9945 390.777V412.655ZM-118.443 47.9101C-118.443 52.2186 -120.332 55.6978 -122.662 55.6978H-138.755C-141.085 55.6978 -142.974 52.2186 -142.974 47.9101V26.0328C-142.974 21.7393 -141.085 18.2553 -138.755 18.2553H-122.662C-120.332 18.2553 -118.443 21.7393 -118.443 26.0328V47.9101ZM-118.443 412.655C-118.443 416.948 -120.332 420.432 -122.662 420.432H-138.755C-141.085 420.432 -142.974 416.948 -142.974 412.655V390.777C-142.974 386.48 -141.085 382.997 -138.755 382.997H-122.662C-120.332 382.997 -118.443 386.48 -118.443 390.777V412.655ZM-155.896 47.9101C-155.896 52.2186 -157.785 55.6978 -160.115 55.6978H-176.208C-178.538 55.6978 -180.433 52.2186 -180.433 47.9101V26.0328C-180.433 21.7393 -178.538 18.2553 -176.208 18.2553H-160.115C-157.785 18.2553 -155.896 21.7393 -155.896 26.0328V47.9101ZM-155.896 412.655C-155.896 416.948 -157.785 420.432 -160.115 420.432H-176.208C-178.538 420.432 -180.433 416.948 -180.433 412.655V390.777C-180.433 386.48 -178.538 382.997 -176.208 382.997H-160.115C-157.785 382.997 -155.896 386.48 -155.896 390.777V412.655ZM-193.349 47.9101C-193.349 52.2186 -195.239 55.6978 -197.569 55.6978H-213.661C-215.987 55.6978 -217.876 52.2186 -217.876 47.9101V26.0328C-217.876 21.7393 -215.987 18.2553 -213.661 18.2553H-197.569C-195.239 18.2553 -193.349 21.7393 -193.349 26.0328V47.9101ZM-193.349 412.655C-193.349 416.948 -195.239 420.432 -197.569 420.432H-213.661C-215.987 420.432 -217.876 416.948 -217.876 412.655V390.777C-217.876 386.48 -215.987 382.997 -213.661 382.997H-197.569C-195.239 382.997 -193.349 386.48 -193.349 390.777V412.655ZM-230.797 47.9101C-230.797 52.2186 -232.687 55.6978 -235.024 55.6978H-251.114C-253.439 55.6978 -255.334 52.2186 -255.334 47.9101V26.0328C-255.334 21.7393 -253.439 18.2553 -251.114 18.2553H-235.024C-232.687 18.2553 -230.797 21.7393 -230.797 26.0328V47.9101ZM-230.797 412.655C-230.797 416.948 -232.687 420.432 -235.024 420.432H-251.114C-253.439 420.432 -255.334 416.948 -255.334 412.655V390.777C-255.334 386.48 -253.439 382.997 -251.114 382.997H-235.024C-232.687 382.997 -230.797 386.48 -230.797 390.777V412.655ZM-268.253 47.9101C-268.253 52.2186 -270.139 55.6978 -272.47 55.6978H-288.564C-290.895 55.6978 -292.784 52.2186 -292.784 47.9101V26.0328C-292.784 21.7393 -290.895 18.2553 -288.564 18.2553H-272.47C-270.139 18.2553 -268.253 21.7393 -268.253 26.0328V47.9101ZM-268.253 412.655C-268.253 416.948 -270.139 420.432 -272.47 420.432H-288.564C-290.895 420.432 -292.784 416.948 -292.784 412.655V390.777C-292.784 386.48 -290.895 382.997 -288.564 382.997H-272.47C-270.139 382.997 -268.253 386.48 -268.253 390.777V412.655ZM-305.705 47.9101C-305.705 52.2186 -307.591 55.6978 -309.926 55.6978H-326.016C-328.345 55.6978 -330.237 52.2186 -330.237 47.9101V26.0328C-330.237 21.7393 -328.345 18.2553 -326.016 18.2553H-309.926C-307.591 18.2553 -305.705 21.7393 -305.705 26.0328V47.9101ZM-305.705 412.655C-305.705 416.948 -307.591 420.432 -309.926 420.432H-326.016C-328.345 420.432 -330.237 416.948 -330.237 412.655V390.777C-330.237 386.48 -328.345 382.997 -326.016 382.997H-309.926C-307.591 382.997 -305.705 386.48 -305.705 390.777V412.655ZM-343.155 47.9101C-343.155 52.2186 -345.041 55.6978 -347.375 55.6978H-363.466C-365.797 55.6978 -367.687 52.2186 -367.687 47.9101V26.0328C-367.687 21.7393 -365.797 18.2553 -363.466 18.2553H-347.375C-345.041 18.2553 -343.155 21.7393 -343.155 26.0328V47.9101ZM-343.155 412.655C-343.155 416.948 -345.041 420.432 -347.375 420.432H-363.466C-365.797 420.432 -367.687 416.948 -367.687 412.655V390.777C-367.687 386.48 -365.797 382.997 -363.466 382.997H-347.375C-345.041 382.997 -343.155 386.48 -343.155 390.777V412.655ZM-380.607 47.9101C-380.607 52.2186 -382.497 55.6978 -384.826 55.6978H-400.922C-403.247 55.6978 -405.142 52.2186 -405.142 47.9101V26.0328C-405.142 21.7393 -403.247 18.2553 -400.922 18.2553H-384.826C-382.497 18.2553 -380.607 21.7393 -380.607 26.0328V47.9101ZM-380.607 412.655C-380.607 416.948 -382.497 420.432 -384.826 420.432H-400.922C-403.247 420.432 -405.142 416.948 -405.142 412.655V390.777C-405.142 386.48 -403.247 382.997 -400.922 382.997H-384.826C-382.497 382.997 -380.607 386.48 -380.607 390.777V412.655ZM-418.059 47.9101C-418.059 52.2186 -419.947 55.6978 -422.278 55.6978H-438.368C-440.699 55.6978 -442.593 52.2186 -442.593 47.9101V26.0328C-442.593 21.7393 -440.699 18.2553 -438.368 18.2553H-422.278C-419.947 18.2553 -418.059 21.7393 -418.059 26.0328V47.9101ZM-418.059 412.655C-418.059 416.948 -419.947 420.432 -422.278 420.432H-438.368C-440.699 420.432 -442.593 416.948 -442.593 412.655V390.777C-442.593 386.48 -440.699 382.997 -438.368 382.997H-422.278C-419.947 382.997 -418.059 386.48 -418.059 390.777V412.655ZM-455.515 47.9101C-455.515 52.2186 -457.399 55.6978 -459.734 55.6978H-475.824C-478.149 55.6978 -480.045 52.2186 -480.045 47.9101V26.0328C-480.045 21.7393 -478.149 18.2553 -475.824 18.2553H-459.734C-457.399 18.2553 -455.515 21.7393 -455.515 26.0328V47.9101ZM-455.515 412.655C-455.515 416.948 -457.399 420.432 -459.734 420.432H-475.824C-478.149 420.432 -480.045 416.948 -480.045 412.655V390.777C-480.045 386.48 -478.149 382.997 -475.824 382.997H-459.734C-457.399 382.997 -455.515 386.48 -455.515 390.777V412.655ZM-492.965 47.9101C-492.965 52.2186 -494.849 55.6978 -497.184 55.6978H-513.276C-515.607 55.6978 -517.495 52.2186 -517.495 47.9101V26.0328C-517.495 21.7393 -515.607 18.2553 -513.276 18.2553H-497.184C-494.849 18.2553 -492.965 21.7393 -492.965 26.0328V47.9101ZM-492.965 412.655C-492.965 416.948 -494.849 420.432 -497.184 420.432H-513.276C-515.607 420.432 -517.495 416.948 -517.495 412.655V390.777C-517.495 386.48 -515.607 382.997 -513.276 382.997H-497.184C-494.849 382.997 -492.965 386.48 -492.965 390.777V412.655ZM-530.417 47.9101C-530.417 52.2186 -532.305 55.6978 -534.636 55.6978H-550.729C-553.057 55.6978 -554.947 52.2186 -554.947 47.9101V26.0328C-554.947 21.7393 -553.057 18.2553 -550.729 18.2553H-534.636C-532.305 18.2553 -530.417 21.7393 -530.417 26.0328V47.9101ZM-530.417 412.655C-530.417 416.948 -532.305 420.432 -534.636 420.432H-550.729C-553.057 420.432 -554.947 416.948 -554.947 412.655V390.777C-554.947 386.48 -553.057 382.997 -550.729 382.997H-534.636C-532.305 382.997 -530.417 386.48 -530.417 390.777V412.655ZM-567.867 47.9101C-567.867 52.2186 -569.751 55.6978 -572.088 55.6978H-588.184C-590.509 55.6978 -592.397 52.2186 -592.397 47.9101V26.0328C-592.397 21.7393 -590.509 18.2553 -588.184 18.2553H-572.088C-569.751 18.2553 -567.867 21.7393 -567.867 26.0328V47.9101ZM-567.867 412.655C-567.867 416.948 -569.751 420.432 -572.088 420.432H-588.184C-590.509 420.432 -592.397 416.948 -592.397 412.655V390.777C-592.397 386.48 -590.509 382.997 -588.184 382.997H-572.088C-569.751 382.997 -567.867 386.48 -567.867 390.777V412.655ZM-605.317 47.9101C-605.317 52.2186 -607.207 55.6978 -609.538 55.6978H-625.631C-627.963 55.6978 -629.855 52.2186 -629.855 47.9101V26.0328C-629.855 21.7393 -627.963 18.2553 -625.631 18.2553H-609.538C-607.207 18.2553 -605.317 21.7393 -605.317 26.0328V47.9101ZM-605.317 412.655C-605.317 416.948 -607.207 420.432 -609.538 420.432H-625.631C-627.963 420.432 -629.855 416.948 -629.855 412.655V390.777C-629.855 386.48 -627.963 382.997 -625.631 382.997H-609.538C-607.207 382.997 -605.317 386.48 -605.317 390.777V412.655ZM-642.773 47.9101C-642.773 52.2186 -644.659 55.6978 -646.994 55.6978H-663.086C-665.411 55.6978 -667.305 52.2186 -667.305 47.9101V26.0328C-667.305 21.7393 -665.411 18.2553 -663.086 18.2553H-646.994C-644.659 18.2553 -642.773 21.7393 -642.773 26.0328V47.9101ZM-642.773 412.655C-642.773 416.948 -644.659 420.432 -646.994 420.432H-663.086C-665.411 420.432 -667.305 416.948 -667.305 412.655V390.777C-667.305 386.48 -665.411 382.997 -663.086 382.997H-646.994C-644.659 382.997 -642.773 386.48 -642.773 390.777V412.655ZM-680.22 47.9101C-680.22 52.2186 -682.111 55.6978 -684.446 55.6978H-700.536C-702.865 55.6978 -704.755 52.2186 -704.755 47.9101V26.0328C-704.755 21.7393 -702.865 18.2553 -700.536 18.2553H-684.446C-682.111 18.2553 -680.22 21.7393 -680.22 26.0328V47.9101ZM-680.22 412.655C-680.22 416.948 -682.111 420.432 -684.446 420.432H-700.536C-702.865 420.432 -704.755 416.948 -704.755 412.655V390.777C-704.755 386.48 -702.865 382.997 -700.536 382.997H-684.446C-682.111 382.997 -680.22 386.48 -680.22 390.777V412.655ZM-717.676 47.9101C-717.676 52.2186 -719.565 55.6978 -721.896 55.6978H-737.989C-740.317 55.6978 -742.211 52.2186 -742.211 47.9101V26.0328C-742.211 21.7393 -740.317 18.2553 -737.989 18.2553H-721.896C-719.565 18.2553 -717.676 21.7393 -717.676 26.0328V47.9101ZM-717.676 412.655C-717.676 416.948 -719.565 420.432 -721.896 420.432H-737.989C-740.317 420.432 -742.211 416.948 -742.211 412.655V390.777C-742.211 386.48 -740.317 382.997 -737.989 382.997H-721.896C-719.565 382.997 -717.676 386.48 -717.676 390.777V412.655ZM-755.128 47.9101C-755.128 52.2186 -757.017 55.6978 -759.346 55.6978H-775.442C-777.767 55.6978 -779.659 52.2186 -779.659 47.9101V26.0328C-779.659 21.7393 -777.767 18.2553 -775.442 18.2553H-759.346C-757.017 18.2553 -755.128 21.7393 -755.128 26.0328V47.9101ZM-755.128 412.655C-755.128 416.948 -757.017 420.432 -759.346 420.432H-775.442C-777.767 420.432 -779.659 416.948 -779.659 412.655V390.777C-779.659 386.48 -777.767 382.997 -775.442 382.997H-759.346C-757.017 382.997 -755.128 386.48 -755.128 390.777V412.655ZM-792.579 47.9101C-792.579 52.2186 -794.469 55.6978 -796.802 55.6978H-812.889C-815.22 55.6978 -817.113 52.2186 -817.113 47.9101V26.0328C-817.113 21.7393 -815.22 18.2553 -812.889 18.2553H-796.802C-794.469 18.2553 -792.579 21.7393 -792.579 26.0328V47.9101ZM-792.579 412.655C-792.579 416.948 -794.469 420.432 -796.802 420.432H-812.889C-815.22 420.432 -817.113 416.948 -817.113 412.655V390.777C-817.113 386.48 -815.22 382.997 -812.889 382.997H-796.802C-794.469 382.997 -792.579 386.48 -792.579 390.777V412.655ZM-830.036 47.9101C-830.036 52.2186 -831.92 55.6978 -834.248 55.6978H-850.345C-852.669 55.6978 -854.565 52.2186 -854.565 47.9101V26.0328C-854.565 21.7393 -852.669 18.2553 -850.345 18.2553H-834.248C-831.92 18.2553 -830.036 21.7393 -830.036 26.0328V47.9101ZM-830.036 412.655C-830.036 416.948 -831.92 420.432 -834.248 420.432H-850.345C-852.669 420.432 -854.565 416.948 -854.565 412.655V390.777C-854.565 386.48 -852.669 382.997 -850.345 382.997H-834.248C-831.92 382.997 -830.036 386.48 -830.036 390.777V412.655ZM-867.482 47.9101C-867.482 52.2186 -869.369 55.6978 -871.705 55.6978H-887.797C-890.128 55.6978 -892.015 52.2186 -892.015 47.9101V26.0328C-892.015 21.7393 -890.128 18.2553 -887.797 18.2553H-871.705C-869.369 18.2553 -867.482 21.7393 -867.482 26.0328V47.9101ZM-867.482 412.655C-867.482 416.948 -869.369 420.432 -871.705 420.432H-887.797C-890.128 420.432 -892.015 416.948 -892.015 412.655V390.777C-892.015 386.48 -890.128 382.997 -887.797 382.997H-871.705C-869.369 382.997 -867.482 386.48 -867.482 390.777V412.655ZM-898.844 0.346558V439.884H856.214V0.346558H-898.844Z" fill="#252525"/>
</svg>
