<svg width="120" height="120" viewBox="0 0 120 120" fill="none" xmlns="http://www.w3.org/2000/svg">
<circle cx="60" cy="60" r="42.4264" transform="rotate(-45 60 60)" fill="url(#paint0_linear_2334_19359)"/>
<path d="M78.5592 48.0684H41.4361C38.5072 48.0684 36.1328 50.4427 36.1328 53.3717V77.2365C36.1328 80.1654 38.5072 82.5398 41.4361 82.5398H78.5592C81.4882 82.5398 83.8625 80.1654 83.8625 77.2365V53.3717C83.8625 50.4427 81.4882 48.0684 78.5592 48.0684Z" stroke="#252525" stroke-width="2" stroke-linecap="round" stroke-linejoin="round"/>
<path d="M49.3906 48.0685V42.7652C49.3906 41.3587 49.9494 40.0098 50.9439 39.0152C51.9385 38.0207 53.2874 37.4619 54.6939 37.4619H65.3005C66.7071 37.4619 68.056 38.0207 69.0505 39.0152C70.0451 40.0098 70.6038 41.3587 70.6038 42.7652V48.0685" stroke="#252525" stroke-width="2" stroke-linecap="round" stroke-linejoin="round"/>
<path d="M70.3086 61.1367H55.5788C53.9518 61.1367 52.6328 62.3804 52.6328 63.9146V72.2483C52.6328 73.7824 53.9518 75.0261 55.5788 75.0261H70.3086C71.9356 75.0261 73.2545 73.7824 73.2545 72.2483V63.9146C73.2545 62.3804 71.9356 61.1367 70.3086 61.1367Z" stroke="#252525" stroke-width="2" stroke-linecap="round" stroke-linejoin="round"/>
<path d="M62.9381 70.8605C64.5652 70.8605 65.8841 69.6168 65.8841 68.0826C65.8841 66.5484 64.5652 65.3047 62.9381 65.3047C61.3111 65.3047 59.9922 66.5484 59.9922 68.0826C59.9922 69.6168 61.3111 70.8605 62.9381 70.8605Z" stroke="#252525" stroke-width="2" stroke-linecap="round" stroke-linejoin="round"/>
<path d="M67.3639 61.1368V58.3589C67.3639 57.6222 67.0535 56.9156 66.5011 56.3947C65.9486 55.8737 65.1993 55.5811 64.4179 55.5811H49.6881C48.9068 55.5811 48.1575 55.8737 47.605 56.3947C47.0526 56.9156 46.7422 57.6222 46.7422 58.3589V66.6926C46.7422 67.4293 47.0526 68.1359 47.605 68.6569C48.1575 69.1778 48.9068 69.4705 49.6881 69.4705H52.6341" stroke="#252525" stroke-width="2" stroke-linecap="round" stroke-linejoin="round"/>
<defs>
<linearGradient id="paint0_linear_2334_19359" x1="60" y1="17.5736" x2="85.0207" y2="102.426" gradientUnits="userSpaceOnUse">
<stop stop-color="#A7CD7E"/>
<stop offset="1" stop-color="#7BCD25" stop-opacity="0"/>
</linearGradient>
</defs>
</svg>
