<svg width="1287" height="298" viewBox="0 0 1287 298" fill="none" xmlns="http://www.w3.org/2000/svg">
<path d="M642.5 1L1160 1V31.5V62M642.5 1L642 61M642.5 1L125 1V61" stroke="#C4C4C4"/>
<circle r="7" transform="matrix(0 1 1 0 642 61)" fill="#C4C4C4"/>
<circle r="7" transform="matrix(0 1 1 0 125 61)" fill="#C4C4C4"/>
<circle r="7" transform="matrix(0 1 1 0 1160 61)" fill="#C4C4C4"/>
<path d="M130.815 257.191C119.678 259.587 108.067 258.824 97.3539 254.986C86.4674 251.087 76.9778 244.182 70.039 235.113C63.1003 226.044 59.0112 215.202 58.2677 203.907C57.5242 192.612 60.1583 181.348 65.8504 171.487C71.5426 161.626 80.0481 153.591 90.3332 148.363C100.618 143.134 112.239 140.938 123.78 142.042C135.321 143.146 146.284 147.502 155.334 154.58C164.237 161.542 170.911 170.842 174.576 181.378C166.537 183.256 158.972 186.717 152.345 191.551C145.569 196.494 139.923 202.764 135.769 209.961C131.614 217.158 129.043 225.124 128.22 233.348C127.416 241.387 128.3 249.5 130.815 257.191Z" fill="#EEF7E5" stroke="black"/>
<path d="M132.114 257.922C140.153 256.044 147.719 252.584 154.345 247.75C161.122 242.807 166.768 236.537 170.922 229.339C175.077 222.142 177.648 214.177 178.47 205.952C179.275 197.913 178.391 189.799 175.875 182.109C180.092 181.202 184.396 180.744 188.715 180.741C188.715 180.741 188.715 180.741 188.715 180.741L132.114 257.922Z" fill="#D2E6BB" stroke="black"/>
<g opacity="0.2">
<path opacity="0.2" d="M105.636 125.519H5.10703C4.99369 125.519 4.885 125.404 4.80486 125.199C4.72472 124.994 4.67969 124.716 4.67969 124.426C4.67969 124.136 4.72472 123.858 4.80486 123.653C4.885 123.448 4.99369 123.333 5.10703 123.333H105.636C105.749 123.333 105.858 123.448 105.938 123.653C106.018 123.858 106.063 124.136 106.063 124.426C106.063 124.716 106.018 124.994 105.938 125.199C105.858 125.404 105.749 125.519 105.636 125.519Z" fill="#CDCDCD"/>
</g>
<g opacity="0.2">
<path opacity="0.2" d="M0.427345 272.846C0.314006 272.846 0.205302 272.731 0.12516 272.526C0.0450169 272.321 0 272.043 0 271.753V134.621C0 134.331 0.0450169 134.053 0.12516 133.848C0.205302 133.643 0.314006 133.527 0.427345 133.527C0.540684 133.527 0.649374 133.643 0.729517 133.848C0.80966 134.053 0.85469 134.331 0.85469 134.621V271.753C0.85469 272.043 0.80966 272.321 0.729517 272.526C0.649374 272.731 0.540684 272.846 0.427345 272.846Z" fill="#CDCDCD"/>
</g>
<path d="M106.063 246.172V221.169C106.066 221.1 106.066 221.03 106.063 220.961V192.363C106.066 192.293 106.066 192.224 106.063 192.155V164.276C106.066 164.206 106.066 164.137 106.063 164.068V134.883C106.066 134.814 106.066 134.744 106.063 134.674V134.621C106.063 134.331 106.018 134.053 105.938 133.848C105.858 133.643 105.749 133.527 105.636 133.527H5.10703C4.99369 133.527 4.885 133.643 4.80486 133.848C4.72472 134.053 4.67969 134.331 4.67969 134.621V271.753C4.67969 271.78 4.68525 271.802 4.68567 271.828C4.68734 272.075 4.72608 272.31 4.7938 272.484C4.79807 272.495 4.79935 272.512 4.80362 272.523C4.84364 272.625 4.89112 272.706 4.94336 272.761C4.99506 272.817 5.05056 272.845 5.10661 272.845H51.3983C51.4592 272.947 51.5303 273 51.603 273C51.6757 273 51.7468 272.947 51.8077 272.845H63.6059C63.6668 272.947 63.7379 273 63.8106 273C63.8832 273 63.9543 272.947 64.0152 272.845H74.5643C74.6252 272.947 74.6963 273 74.7689 273C74.8416 273 74.9127 272.947 74.9736 272.845H85.4009C85.4618 272.947 85.5329 273 85.6056 273C85.6782 273 85.7493 272.947 85.8103 272.845H95.5452C95.6062 272.947 95.6774 273 95.7501 273C95.8228 273 95.894 272.947 95.955 272.845H105.636C105.749 272.845 105.858 272.73 105.938 272.525C106.018 272.32 106.063 272.042 106.063 271.752V246.387C106.066 246.316 106.066 246.243 106.063 246.172V246.172ZM86.7042 270.662L105.208 223.714V245.854L95.6306 270.662H86.7042ZM75.8553 270.662L105.209 194.938V220.631L85.4906 270.658L75.8553 270.662ZM64.8977 270.662L105.209 166.843V191.833L74.6514 270.661L64.8977 270.662ZM52.7021 270.662L105.208 137.422V163.738L63.6926 270.663L52.7021 270.662ZM40.8335 270.662L94.3136 135.714H104.669L51.4881 270.66L40.8335 270.662ZM28.996 270.662L82.4748 135.714H93.0961L39.6156 270.66L28.996 270.662ZM17.7171 270.662L71.1959 135.714H81.2577L27.7773 270.66L17.7171 270.662ZM6.14677 270.662L59.3238 135.714H69.9788L16.4983 270.66L6.14677 270.662ZM5.53438 160.699L15.18 135.714H24.1085L5.53438 182.835V160.699ZM5.53438 185.918L25.3204 135.714H34.9549L5.53438 211.614V185.918ZM5.53438 214.719L36.16 135.714H45.9138L5.53438 239.709V214.719ZM5.53438 242.816L47.1185 135.718H58.1102L5.53438 269.129V242.816ZM13.9783 135.718L5.53438 157.584V135.718H13.9783ZM96.8327 270.66L105.209 248.964V270.66H96.8327Z" fill="#CDCDCD"/>
<path d="M1156.99 116.001L1049.06 154.669L1101.32 296.001L1209.24 257.333L1156.99 116.001Z" fill="#DDDDDD"/>
<path d="M1081.02 154.202L1060.91 161.406L1067.71 179.805L1087.83 172.601L1081.02 154.202Z" fill="white"/>
<path d="M1168.79 172.848L1151.07 179.182L1167.35 223.104L1185.07 216.77L1168.79 172.848Z" fill="#8DDBE0"/>
<path d="M1164.69 217.211L1090.91 243.91L1093.03 249.708L1166.81 223.009L1164.69 217.211Z" fill="#DFDFDF"/>
<path d="M1168.16 170.223L1076.23 203.522L1078.24 209.028L1170.17 175.728L1168.16 170.223Z" fill="white"/>
<path d="M1185.67 217.851L1093.58 250.637L1075.79 202.85L1076.66 202.542L1094.11 249.434L1184.47 217.264L1167.02 170.372L1167.89 170.064L1185.67 217.851Z" fill="white"/>
<path d="M1094.48 200.077L1093.66 200.378L1109.56 244.036L1110.39 243.734L1094.48 200.077Z" fill="white"/>
<path d="M1172.02 180.604L1080.01 214.104L1080.34 215.028L1172.35 181.527L1172.02 180.604Z" fill="white"/>
<path d="M1174.16 186.515L1082.15 220.016L1082.49 220.939L1174.5 187.439L1174.16 186.515Z" fill="white"/>
<path d="M1176.31 192.426L1084.3 225.926L1084.64 226.849L1176.65 193.349L1176.31 192.426Z" fill="white"/>
<path d="M1178.46 198.337L1086.45 231.837L1086.79 232.76L1178.79 199.26L1178.46 198.337Z" fill="white"/>
<path d="M1180.61 204.249L1088.6 237.749L1088.93 238.672L1180.94 205.172L1180.61 204.249Z" fill="white"/>
<path d="M1182.76 210.159L1090.75 243.659L1091.08 244.582L1183.09 211.082L1182.76 210.159Z" fill="white"/>
<path d="M1132.82 186.099L1132 186.4L1147.9 230.058L1148.73 229.757L1132.82 186.099Z" fill="white"/>
<path d="M1151.46 179.305L1150.63 179.606L1166.54 223.264L1167.36 222.963L1151.46 179.305Z" fill="white"/>
<path d="M1193.73 240.661L1165.96 250.64L1169.72 260.816L1197.49 250.838L1193.73 240.661Z" fill="white"/>
<path d="M1188.16 225.026L1096.14 258.543L1096.47 259.45L1188.49 225.933L1188.16 225.026Z" fill="white"/>
<path d="M1190.93 232.624L1098.91 266.142L1099.24 267.049L1191.26 233.532L1190.93 232.624Z" fill="white"/>
<path d="M1156.62 138.221L1093.08 161.355L1093.41 162.262L1156.95 139.128L1156.62 138.221Z" fill="white"/>
<path d="M1128.33 157.137L1095.84 168.953L1096.17 169.859L1128.66 158.042L1128.33 157.137Z" fill="white"/>
<path d="M1162.45 154.246L1070.43 187.764L1070.76 188.671L1162.78 155.154L1162.45 154.246Z" fill="white"/>
<path d="M1165.21 161.844L1073.19 195.361L1073.52 196.269L1165.54 162.751L1165.21 161.844Z" fill="white"/>
<path d="M1153 128.363L1089.5 151.412L1090.85 155.113L1154.35 132.064L1153 128.363Z" fill="white"/>
<path d="M1105.25 129.484H1220.18V278.97H1105.25V129.484Z" fill="#EEF7E5" stroke="#252525" stroke-width="0.5"/>
<path d="M1211.1 178.81H1189.28V186.945H1211.1V178.81Z" fill="white"/>
<path d="M1211.1 192.271H1189.28V200.406H1211.1V192.271Z" fill="white"/>
<path d="M1211.1 226.646H1189.28V234.781H1211.1V226.646Z" fill="#959595"/>
<path d="M1211.1 240.106H1189.28V248.242H1211.1V240.106Z" fill="#959595"/>
<path d="M1184.87 178.809H1114.11V186.944H1184.87V178.809Z" fill="white"/>
<path d="M1184.87 192.27H1114.11V200.405H1184.87V192.27Z" fill="white"/>
<path d="M1130.8 210.923C1130.74 211.021 1130.68 211.093 1130.62 211.14C1130.55 211.182 1130.48 211.203 1130.38 211.203C1130.29 211.203 1130.18 211.168 1130.06 211.098C1129.95 211.023 1129.82 210.942 1129.66 210.853C1129.5 210.764 1129.31 210.685 1129.1 210.615C1128.89 210.54 1128.64 210.503 1128.35 210.503C1128.09 210.503 1127.86 210.536 1127.66 210.601C1127.47 210.662 1127.3 210.748 1127.16 210.86C1127.03 210.972 1126.94 211.107 1126.87 211.266C1126.81 211.42 1126.77 211.59 1126.77 211.777C1126.77 212.015 1126.84 212.213 1126.97 212.372C1127.1 212.531 1127.28 212.666 1127.5 212.778C1127.72 212.89 1127.97 212.99 1128.25 213.079C1128.53 213.168 1128.82 213.263 1129.11 213.366C1129.4 213.464 1129.69 213.581 1129.97 213.716C1130.25 213.847 1130.5 214.015 1130.72 214.22C1130.94 214.421 1131.11 214.668 1131.25 214.962C1131.38 215.256 1131.45 215.613 1131.45 216.033C1131.45 216.49 1131.37 216.92 1131.21 217.321C1131.06 217.718 1130.83 218.065 1130.52 218.364C1130.23 218.658 1129.86 218.891 1129.43 219.064C1128.99 219.232 1128.49 219.316 1127.93 219.316C1127.61 219.316 1127.3 219.283 1126.98 219.218C1126.67 219.157 1126.37 219.069 1126.08 218.952C1125.79 218.835 1125.53 218.695 1125.27 218.532C1125.02 218.369 1124.8 218.187 1124.6 217.986L1125.16 217.083C1125.2 217.018 1125.26 216.964 1125.34 216.922C1125.41 216.875 1125.49 216.852 1125.58 216.852C1125.69 216.852 1125.82 216.901 1125.95 216.999C1126.09 217.092 1126.25 217.197 1126.44 217.314C1126.62 217.431 1126.84 217.538 1127.09 217.636C1127.34 217.729 1127.64 217.776 1127.99 217.776C1128.53 217.776 1128.94 217.65 1129.24 217.398C1129.53 217.141 1129.68 216.775 1129.68 216.299C1129.68 216.033 1129.61 215.816 1129.47 215.648C1129.34 215.48 1129.17 215.34 1128.95 215.228C1128.73 215.111 1128.48 215.013 1128.2 214.934C1127.92 214.855 1127.64 214.768 1127.35 214.675C1127.06 214.582 1126.77 214.47 1126.49 214.339C1126.21 214.208 1125.96 214.038 1125.74 213.828C1125.52 213.618 1125.35 213.357 1125.21 213.044C1125.08 212.727 1125.02 212.337 1125.02 211.875C1125.02 211.506 1125.09 211.147 1125.23 210.797C1125.38 210.447 1125.6 210.137 1125.88 209.866C1126.16 209.595 1126.5 209.378 1126.91 209.215C1127.32 209.052 1127.79 208.97 1128.33 208.97C1128.92 208.97 1129.47 209.063 1129.98 209.25C1130.48 209.437 1130.91 209.698 1131.27 210.034L1130.8 210.923ZM1140.96 215.382L1139.73 212.015C1139.67 211.866 1139.6 211.688 1139.54 211.483C1139.47 211.278 1139.41 211.056 1139.34 210.818C1139.28 211.056 1139.22 211.28 1139.15 211.49C1139.09 211.695 1139.02 211.875 1138.96 212.029L1137.74 215.382H1140.96ZM1144.28 219.204H1142.83C1142.66 219.204 1142.53 219.164 1142.43 219.085C1142.33 219.001 1142.25 218.898 1142.2 218.777L1141.44 216.712H1137.25L1136.49 218.777C1136.46 218.884 1136.38 218.982 1136.28 219.071C1136.17 219.16 1136.04 219.204 1135.88 219.204H1134.41L1138.39 209.082H1140.31L1144.28 219.204ZM1156 209.082L1151.92 219.204H1150.22L1146.13 209.082H1147.64C1147.8 209.082 1147.94 209.122 1148.04 209.201C1148.14 209.28 1148.22 209.383 1148.27 209.509L1150.66 215.683C1150.74 215.884 1150.81 216.105 1150.88 216.348C1150.95 216.586 1151.02 216.836 1151.09 217.097C1151.15 216.836 1151.21 216.586 1151.27 216.348C1151.34 216.105 1151.41 215.884 1151.49 215.683L1153.86 209.509C1153.9 209.402 1153.97 209.304 1154.08 209.215C1154.19 209.126 1154.33 209.082 1154.49 209.082H1156ZM1161.41 219.204H1159.52V209.082H1161.41V219.204ZM1175.19 209.082V219.204H1174.22C1174.08 219.204 1173.95 219.181 1173.85 219.134C1173.75 219.083 1173.65 218.999 1173.56 218.882L1168.27 212.134C1168.3 212.442 1168.32 212.727 1168.32 212.988V219.204H1166.66V209.082H1167.64C1167.72 209.082 1167.79 209.087 1167.85 209.096C1167.91 209.101 1167.96 209.115 1168 209.138C1168.05 209.157 1168.09 209.187 1168.13 209.229C1168.18 209.266 1168.22 209.318 1168.27 209.383L1173.58 216.159C1173.57 215.996 1173.55 215.835 1173.55 215.676C1173.54 215.517 1173.53 215.37 1173.53 215.235V209.082H1175.19ZM1188.77 214.129V218.224C1188.26 218.602 1187.71 218.88 1187.13 219.057C1186.55 219.23 1185.93 219.316 1185.27 219.316C1184.44 219.316 1183.69 219.188 1183.02 218.931C1182.35 218.674 1181.78 218.317 1181.3 217.86C1180.83 217.403 1180.47 216.857 1180.21 216.222C1179.96 215.587 1179.83 214.894 1179.83 214.143C1179.83 213.382 1179.95 212.685 1180.2 212.05C1180.45 211.415 1180.8 210.869 1181.25 210.412C1181.71 209.955 1182.26 209.6 1182.91 209.348C1183.56 209.096 1184.28 208.97 1185.09 208.97C1185.5 208.97 1185.88 209.003 1186.24 209.068C1186.6 209.133 1186.93 209.224 1187.23 209.341C1187.54 209.453 1187.82 209.591 1188.07 209.754C1188.32 209.917 1188.56 210.097 1188.77 210.293L1188.23 211.147C1188.14 211.282 1188.03 211.366 1187.9 211.399C1187.76 211.427 1187.62 211.392 1187.46 211.294C1187.3 211.205 1187.15 211.117 1186.99 211.028C1186.84 210.939 1186.67 210.862 1186.48 210.797C1186.29 210.732 1186.08 210.678 1185.84 210.636C1185.61 210.594 1185.34 210.573 1185.03 210.573C1184.53 210.573 1184.08 210.657 1183.67 210.825C1183.27 210.993 1182.93 211.233 1182.64 211.546C1182.36 211.859 1182.14 212.234 1181.98 212.673C1181.83 213.112 1181.75 213.602 1181.75 214.143C1181.75 214.722 1181.83 215.24 1182 215.697C1182.16 216.15 1182.4 216.535 1182.7 216.852C1183 217.165 1183.36 217.405 1183.79 217.573C1184.21 217.736 1184.69 217.818 1185.21 217.818C1185.58 217.818 1185.92 217.778 1186.21 217.699C1186.5 217.62 1186.79 217.512 1187.07 217.377V215.543H1185.8C1185.68 215.543 1185.58 215.51 1185.51 215.445C1185.45 215.375 1185.41 215.291 1185.41 215.193V214.129H1188.77ZM1198.96 210.923C1198.91 211.021 1198.84 211.093 1198.78 211.14C1198.72 211.182 1198.64 211.203 1198.55 211.203C1198.45 211.203 1198.34 211.168 1198.23 211.098C1198.11 211.023 1197.98 210.942 1197.82 210.853C1197.66 210.764 1197.47 210.685 1197.26 210.615C1197.05 210.54 1196.8 210.503 1196.51 210.503C1196.25 210.503 1196.02 210.536 1195.83 210.601C1195.63 210.662 1195.46 210.748 1195.33 210.86C1195.2 210.972 1195.1 211.107 1195.03 211.266C1194.97 211.42 1194.94 211.59 1194.94 211.777C1194.94 212.015 1195 212.213 1195.13 212.372C1195.27 212.531 1195.44 212.666 1195.66 212.778C1195.88 212.89 1196.13 212.99 1196.41 213.079C1196.69 213.168 1196.98 213.263 1197.27 213.366C1197.57 213.464 1197.86 213.581 1198.14 213.716C1198.42 213.847 1198.66 214.015 1198.88 214.22C1199.1 214.421 1199.28 214.668 1199.41 214.962C1199.54 215.256 1199.61 215.613 1199.61 216.033C1199.61 216.49 1199.53 216.92 1199.37 217.321C1199.22 217.718 1198.99 218.065 1198.69 218.364C1198.39 218.658 1198.02 218.891 1197.59 219.064C1197.16 219.232 1196.66 219.316 1196.1 219.316C1195.78 219.316 1195.46 219.283 1195.15 219.218C1194.83 219.157 1194.53 219.069 1194.24 218.952C1193.96 218.835 1193.69 218.695 1193.44 218.532C1193.19 218.369 1192.96 218.187 1192.77 217.986L1193.32 217.083C1193.37 217.018 1193.43 216.964 1193.5 216.922C1193.58 216.875 1193.66 216.852 1193.74 216.852C1193.86 216.852 1193.98 216.901 1194.12 216.999C1194.25 217.092 1194.41 217.197 1194.6 217.314C1194.79 217.431 1195 217.538 1195.25 217.636C1195.5 217.729 1195.8 217.776 1196.15 217.776C1196.69 217.776 1197.11 217.65 1197.4 217.398C1197.69 217.141 1197.84 216.775 1197.84 216.299C1197.84 216.033 1197.77 215.816 1197.64 215.648C1197.51 215.48 1197.33 215.34 1197.11 215.228C1196.89 215.111 1196.64 215.013 1196.36 214.934C1196.08 214.855 1195.8 214.768 1195.51 214.675C1195.22 214.582 1194.94 214.47 1194.66 214.339C1194.38 214.208 1194.13 214.038 1193.91 213.828C1193.69 213.618 1193.51 213.357 1193.38 213.044C1193.24 212.727 1193.18 212.337 1193.18 211.875C1193.18 211.506 1193.25 211.147 1193.4 210.797C1193.55 210.447 1193.76 210.137 1194.04 209.866C1194.32 209.595 1194.67 209.378 1195.08 209.215C1195.49 209.052 1195.96 208.97 1196.49 208.97C1197.09 208.97 1197.64 209.063 1198.14 209.25C1198.65 209.437 1199.08 209.698 1199.43 210.034L1198.96 210.923Z" fill="#959595"/>
<path d="M1184.87 226.645H1114.11V234.78H1184.87V226.645Z" fill="white"/>
<path d="M1184.87 240.106H1114.11V248.242H1184.87V240.106Z" fill="white"/>
<path d="M1211.1 166.222H1189.28V174.692H1211.1V166.222Z" fill="#DFDFDF"/>
<path d="M1184.87 166.223H1114.11V174.693H1184.87V166.223Z" fill="#DFDFDF"/>
<path d="M1211.11 256.735H1173.62V265.56H1211.11V256.735Z" fill="#DFDFDF"/>
<path d="M1118.99 156.27V140.276H1122.38V156.27H1118.99Z" fill="#959595"/>
<path d="M1140.57 156.27H1136.26L1129.32 144.171H1129.22C1129.36 146.307 1129.43 147.832 1129.43 148.743V156.27H1126.4V140.276H1130.67L1137.61 152.255H1137.68C1137.57 150.177 1137.52 148.707 1137.52 147.846V140.276H1140.57V156.27Z" fill="#959595"/>
<path d="M1153.69 140.276H1157.11L1151.68 156.27H1147.99L1142.57 140.276H1145.99L1148.99 149.794C1149.16 150.355 1149.33 151.009 1149.51 151.757C1149.69 152.505 1149.8 153.024 1149.85 153.316C1150.04 152.126 1150.32 150.951 1150.67 149.796L1153.69 140.276Z" fill="#959595"/>
<path d="M1173.61 148.252C1173.61 150.899 1172.96 152.934 1171.65 154.356C1170.34 155.778 1168.46 156.489 1166.01 156.489C1163.57 156.489 1161.69 155.778 1160.38 154.356C1159.07 152.934 1158.41 150.892 1158.41 148.23C1158.41 145.568 1159.07 143.535 1160.38 142.132C1161.7 140.728 1163.58 140.026 1166.03 140.025C1168.49 140.025 1170.36 140.733 1171.66 142.148C1172.96 143.563 1173.61 145.597 1173.61 148.252ZM1161.96 148.252C1161.96 150.039 1162.3 151.385 1162.98 152.288C1163.33 152.745 1163.8 153.108 1164.33 153.344C1164.86 153.58 1165.43 153.684 1166.01 153.645C1168.71 153.645 1170.06 151.847 1170.06 148.252C1170.06 144.65 1168.72 142.848 1166.03 142.848C1165.45 142.81 1164.87 142.914 1164.34 143.151C1163.81 143.389 1163.35 143.752 1162.99 144.21C1162.3 145.118 1161.96 146.465 1161.96 148.252V148.252Z" fill="#959595"/>
<path d="M1176.92 156.27V140.276H1180.31V156.27H1176.92Z" fill="#959595"/>
<path d="M1191.11 142.871C1190.54 142.844 1189.97 142.962 1189.45 143.214C1188.93 143.465 1188.49 143.841 1188.15 144.309C1187.45 145.268 1187.1 146.605 1187.1 148.318C1187.1 151.884 1188.44 153.667 1191.11 153.667C1192.51 153.613 1193.88 153.329 1195.19 152.825V155.669C1193.79 156.232 1192.3 156.511 1190.8 156.49C1188.47 156.49 1186.7 155.784 1185.47 154.373C1184.24 152.962 1183.62 150.937 1183.62 148.297C1183.59 146.79 1183.9 145.295 1184.53 143.926C1185.09 142.726 1185.99 141.723 1187.13 141.049C1188.34 140.361 1189.72 140.015 1191.11 140.048C1192.74 140.064 1194.33 140.449 1195.79 141.173L1194.7 143.929C1194.11 143.649 1193.51 143.401 1192.89 143.185C1192.32 142.98 1191.72 142.874 1191.11 142.871Z" fill="#959595"/>
<path d="M1207.78 156.27H1198.58V140.276H1207.78V143.055H1201.97V146.566H1207.37V149.345H1201.96V153.469H1207.77L1207.78 156.27Z" fill="#959595"/>
<path d="M1254.92 165.561C1254.92 173.019 1248.88 179.065 1241.44 179.065C1233.99 179.065 1227.96 173.019 1227.96 165.561C1227.96 158.102 1233.99 152.057 1241.44 152.057C1248.88 152.057 1254.92 158.102 1254.92 165.561Z" fill="#D2E6BB" stroke="black"/>
<g opacity="0.29">
<path opacity="0.29" d="M1250 165.56C1250 170.299 1246.17 174.139 1241.44 174.139C1236.71 174.139 1232.88 170.299 1232.88 165.56C1232.88 160.822 1236.71 156.982 1241.44 156.982C1246.17 156.982 1250 160.822 1250 165.56Z" fill="white" stroke="black"/>
</g>
<path d="M1239.87 162.18C1239.99 162.07 1240.13 161.973 1240.3 161.892V162.239H1240.8H1241.19C1240.97 162.284 1240.76 162.369 1240.59 162.517C1240.27 162.778 1240.15 163.153 1240.15 163.548C1240.15 164.136 1240.57 164.496 1240.93 164.721C1241.17 164.871 1241.48 165.02 1241.77 165.162C1241.91 165.228 1242.04 165.293 1242.17 165.355C1243.01 165.789 1243.63 166.267 1243.63 167.221C1243.63 167.866 1243.42 168.379 1243.05 168.732C1242.92 168.854 1242.77 168.963 1242.58 169.054V169.041V168.541H1242.17C1242.24 168.505 1242.29 168.463 1242.35 168.415C1242.67 168.136 1242.78 167.747 1242.78 167.357C1242.78 166.765 1242.39 166.381 1242.02 166.127C1241.75 165.943 1241.41 165.77 1241.1 165.608C1240.98 165.551 1240.87 165.495 1240.77 165.441C1239.9 164.98 1239.3 164.516 1239.3 163.64C1239.3 162.994 1239.52 162.508 1239.87 162.18ZM1242.58 162.239V161.821C1242.62 161.837 1242.66 161.854 1242.7 161.872C1242.94 161.977 1243.16 162.114 1243.35 162.278L1243.02 162.659C1242.9 162.573 1242.77 162.497 1242.63 162.433C1242.43 162.343 1242.23 162.278 1242.02 162.239H1242.08H1242.58ZM1240.3 169.041V169.203C1239.89 169.094 1239.5 168.919 1239.15 168.685L1239.45 168.214C1239.71 168.381 1240 168.514 1240.3 168.607V169.041ZM1241.3 170.334C1241.39 170.332 1241.49 170.328 1241.58 170.321V170.629H1241.3V170.334ZM1241.58 160.338V160.632C1241.56 160.632 1241.54 160.632 1241.52 160.632C1241.45 160.632 1241.37 160.634 1241.3 160.638V160.338H1241.58Z" fill="white" stroke="black"/>
<path d="M1276.64 191.445C1276.64 196.184 1272.81 200.023 1268.08 200.023C1263.35 200.023 1259.52 196.184 1259.52 191.445C1259.52 186.707 1263.35 182.867 1268.08 182.867C1272.81 182.867 1276.64 186.707 1276.64 191.445Z" fill="#D2E6BB" stroke="black"/>
<g opacity="0.29">
<path opacity="0.29" d="M1273.45 191.445C1273.45 194.42 1271.05 196.83 1268.08 196.83C1265.11 196.83 1262.7 194.42 1262.7 191.445C1262.7 188.471 1265.11 186.061 1268.08 186.061C1271.05 186.061 1273.45 188.471 1273.45 191.445Z" fill="white" stroke="black"/>
</g>
<path d="M1267.16 193.565C1267.05 193.523 1266.94 193.472 1266.84 193.413L1266.85 193.401C1266.95 193.456 1267.06 193.504 1267.16 193.544V193.565ZM1269 193.201H1268.98C1269.09 193.016 1269.12 192.806 1269.12 192.608C1269.12 192.136 1268.81 191.841 1268.56 191.666C1268.37 191.54 1268.14 191.419 1267.93 191.312C1267.86 191.277 1267.79 191.243 1267.73 191.211C1267.17 190.912 1266.87 190.656 1266.87 190.199C1266.87 189.838 1266.99 189.578 1267.16 189.403V189.467H1267.29C1267.13 189.663 1267.07 189.904 1267.07 190.139C1267.07 190.617 1267.42 190.896 1267.66 191.048C1267.82 191.151 1268.04 191.256 1268.23 191.35C1268.32 191.392 1268.4 191.431 1268.47 191.467C1269.01 191.745 1269.33 192.01 1269.33 192.521C1269.33 192.9 1269.21 193.183 1269 193.373C1269 193.375 1269 193.378 1269 193.38V193.201Z" fill="white" stroke="black"/>
<path d="M1235.47 205.754L1281.74 219.859C1283.78 220.483 1284.94 222.648 1284.31 224.697L1267.55 279.841C1266.93 281.89 1264.77 283.045 1262.73 282.422L1216.46 268.316C1214.41 267.693 1213.26 265.527 1213.88 263.478L1230.64 208.334C1231.26 206.285 1233.42 205.131 1235.47 205.754Z" fill="#D9D9D9" stroke="black"/>
<path d="M1236.68 211L1277.8 223.535C1278.87 223.863 1279.48 225 1279.15 226.077L1277.27 232.27C1276.94 233.347 1275.81 233.953 1274.73 233.626L1233.62 221.091C1232.54 220.764 1231.94 219.626 1232.26 218.549L1234.15 212.356C1234.47 211.279 1235.61 210.673 1236.68 211Z" fill="white" stroke="black"/>
<path d="M1231.49 225.899L1240.74 228.717C1241.48 228.943 1241.9 229.727 1241.67 230.469L1239.52 237.561C1239.29 238.303 1238.51 238.721 1237.77 238.495L1228.52 235.677C1227.78 235.451 1227.36 234.667 1227.59 233.925L1229.74 226.834C1229.97 226.091 1230.75 225.674 1231.49 225.899Z" fill="#D2E6BB" stroke="black"/>
<path d="M1248.03 230.941L1257.28 233.759C1258.02 233.985 1258.44 234.769 1258.21 235.511L1256.06 242.603C1255.83 243.345 1255.05 243.763 1254.31 243.537L1245.06 240.719C1244.32 240.493 1243.9 239.709 1244.13 238.967L1246.28 231.876C1246.51 231.133 1247.29 230.716 1248.03 230.941Z" fill="#A8A8A8" stroke="black"/>
<path d="M1264.58 235.984L1273.82 238.802C1274.56 239.028 1274.98 239.812 1274.75 240.554L1272.6 247.646C1272.37 248.388 1271.59 248.806 1270.85 248.58L1261.6 245.762C1260.86 245.536 1260.45 244.752 1260.67 244.01L1262.83 236.919C1263.05 236.176 1263.84 235.759 1264.58 235.984Z" fill="#A8A8A8" stroke="black"/>
<path d="M1227.12 240.288L1236.37 243.106C1237.11 243.332 1237.53 244.116 1237.3 244.858L1235.14 251.949C1234.92 252.692 1234.14 253.109 1233.4 252.884L1224.15 250.066C1223.41 249.84 1222.99 249.056 1223.22 248.314L1225.37 241.222C1225.6 240.48 1226.38 240.062 1227.12 240.288Z" fill="#A8A8A8" stroke="black"/>
<path d="M1243.66 245.331L1252.91 248.149C1253.65 248.375 1254.06 249.159 1253.84 249.901L1251.68 256.992C1251.46 257.735 1250.67 258.152 1249.94 257.927L1240.69 255.109C1239.95 254.883 1239.53 254.099 1239.76 253.357L1241.91 246.265C1242.14 245.523 1242.92 245.105 1243.66 245.331Z" fill="#A8A8A8" stroke="black"/>
<path d="M1222.75 254.674L1231.99 257.493C1232.73 257.718 1233.15 258.502 1232.92 259.245L1230.77 266.336C1230.54 267.078 1229.76 267.496 1229.02 267.271L1219.78 264.452C1219.04 264.227 1218.62 263.443 1218.84 262.7L1221 255.609C1221.22 254.867 1222.01 254.449 1222.75 254.674Z" fill="#A8A8A8" stroke="black"/>
<path d="M1239.29 259.718L1248.54 262.537C1249.28 262.762 1249.69 263.546 1249.47 264.289L1247.31 271.38C1247.09 272.122 1246.3 272.54 1245.56 272.315L1236.32 269.496C1235.58 269.271 1235.16 268.487 1235.39 267.744L1237.54 260.653C1237.77 259.911 1238.55 259.493 1239.29 259.718Z" fill="#A8A8A8" stroke="black"/>
<path d="M1254.64 263.873L1254.64 263.873L1258.46 251.307C1258.46 251.307 1258.46 251.307 1258.46 251.307C1258.56 250.95 1258.81 250.652 1259.14 250.477C1259.46 250.302 1259.85 250.264 1260.2 250.372C1260.2 250.372 1260.2 250.372 1260.2 250.372L1269.45 253.191L1269.45 253.191C1269.8 253.299 1270.1 253.544 1270.28 253.873C1270.45 254.201 1270.49 254.586 1270.38 254.943C1270.38 254.943 1270.38 254.943 1270.38 254.943L1266.56 267.509L1266.56 267.509L1265.76 270.153L1266.24 270.298L1265.76 270.153L1263.85 276.422L1263.85 276.422C1263.8 276.599 1263.71 276.763 1263.59 276.905C1263.48 277.048 1263.33 277.166 1263.17 277.252C1263.01 277.339 1262.83 277.393 1262.65 277.411C1262.47 277.429 1262.28 277.41 1262.1 277.357L1262.1 277.357L1252.86 274.538L1252.72 275.004L1252.86 274.538C1252.68 274.485 1252.52 274.397 1252.38 274.28C1252.24 274.163 1252.12 274.019 1252.03 273.856C1251.95 273.693 1251.89 273.515 1251.87 273.331C1251.86 273.148 1251.87 272.962 1251.93 272.786L1251.93 272.786L1253.83 266.516L1253.83 266.516L1254.64 263.873Z" fill="#D9EEC7" stroke="black"/>
<path d="M1075.5 234.062H1075.5C1076.99 234.062 1078.2 232.853 1078.2 231.361V228.856C1078.2 227.365 1076.99 226.156 1075.5 226.156H1075.5C1074.01 226.156 1072.8 227.365 1072.8 228.856V231.361C1072.8 232.853 1074.01 234.062 1075.5 234.062Z" fill="#9D9D9D"/>
<path d="M1069.2 270.873C1069.19 271.706 1069.35 272.533 1069.66 273.305C1069.97 274.076 1070.44 274.778 1071.02 275.37C1071.61 275.961 1072.31 276.431 1073.08 276.751C1073.84 277.072 1074.67 277.237 1075.5 277.237C1076.33 277.237 1077.16 277.072 1077.92 276.751C1078.69 276.431 1079.39 275.961 1079.98 275.37C1080.56 274.778 1081.02 274.076 1081.34 273.305C1081.65 272.533 1081.81 271.706 1081.8 270.873" fill="#F3F5FD"/>
<path d="M1069.2 270.873C1069.19 271.706 1069.35 272.533 1069.66 273.305C1069.97 274.076 1070.44 274.778 1071.02 275.37C1071.61 275.961 1072.31 276.431 1073.08 276.751C1073.84 277.072 1074.67 277.237 1075.5 277.237C1076.33 277.237 1077.16 277.072 1077.92 276.751C1078.69 276.431 1079.39 275.961 1079.98 275.37C1080.56 274.778 1081.02 274.076 1081.34 273.305C1081.65 272.533 1081.81 271.706 1081.8 270.873" fill="#616161"/>
<path d="M1054.7 269.236L1054.7 269.236C1054.58 269.423 1054.51 269.64 1054.5 269.863C1054.49 270.085 1054.54 270.306 1054.65 270.502C1054.76 270.698 1054.91 270.861 1055.11 270.974C1055.3 271.088 1055.51 271.148 1055.74 271.148H1095.26C1095.48 271.148 1095.7 271.088 1095.89 270.974C1096.08 270.861 1096.24 270.698 1096.35 270.502C1096.45 270.306 1096.5 270.085 1096.5 269.863C1096.49 269.64 1096.42 269.423 1096.3 269.236L1096.3 269.236C1095.86 268.56 1095.42 267.827 1095.07 267.133C1094.72 266.45 1094.43 265.764 1094.34 265.193L1054.7 269.236ZM1054.7 269.236C1055.13 268.56 1055.57 267.827 1055.93 267.133C1056.28 266.45 1056.56 265.764 1056.66 265.193L1054.7 269.236Z" fill="#CECECE" stroke="black"/>
<path d="M673.087 163.273C673.089 158.409 671.931 153.615 669.711 149.286C667.49 144.957 664.271 141.218 660.318 138.378C656.364 135.538 651.791 133.678 646.976 132.952C642.161 132.226 637.242 132.655 632.626 134.203C628.01 135.751 623.828 138.374 620.428 141.855C617.027 145.337 614.504 149.576 613.068 154.224C611.632 158.871 611.324 163.793 612.169 168.584C613.014 173.374 614.988 177.894 617.928 181.772M673.087 163.273C673.106 170.1 670.83 176.735 666.624 182.115C660.85 189.687 657.719 198.934 657.701 208.442H657.201M673.087 163.273L672.587 163.273C672.589 158.489 671.45 153.772 669.266 149.514C667.082 145.256 663.915 141.578 660.026 138.784C656.137 135.99 651.638 134.16 646.902 133.446C642.165 132.732 637.326 133.154 632.785 134.677C628.244 136.2 624.131 138.78 620.785 142.205C617.44 145.629 614.958 149.8 613.546 154.371C612.133 158.943 611.83 163.785 612.661 168.497C613.492 173.209 615.434 177.655 618.326 181.47M673.087 163.273L672.587 163.275C672.605 169.989 670.367 176.515 666.23 181.808L666.23 181.808L666.226 181.812C660.386 189.471 657.219 198.824 657.201 208.442M617.928 181.772C623.874 189.585 627.097 199.127 627.106 208.942M617.928 181.772L618.326 181.47M617.928 181.772L618.325 181.469C618.326 181.469 618.326 181.469 618.326 181.47M627.106 208.942H657.203C657.201 208.775 657.201 208.608 657.201 208.442M627.106 208.942L627.606 208.941C627.606 208.775 627.605 208.608 627.603 208.442M627.106 208.942V208.442H627.603M657.201 208.442H627.603M627.603 208.442C627.487 198.694 624.237 189.237 618.326 181.47" fill="white" stroke="black"/>
<path d="M657.698 209.906H627.102C626.848 209.906 626.605 209.806 626.426 209.627C626.246 209.448 626.146 209.205 626.146 208.951C626.119 199.346 622.965 190.011 617.158 182.354C614.128 178.357 612.093 173.697 611.222 168.759C610.351 163.821 610.669 158.747 612.149 153.956C613.628 149.164 616.228 144.793 619.733 141.204C623.238 137.614 627.547 134.909 632.305 133.311C637.063 131.713 642.134 131.269 647.098 132.015C652.062 132.761 656.777 134.675 660.854 137.6C664.931 140.526 668.253 144.378 670.546 148.838C672.838 153.299 674.035 158.24 674.038 163.254C674.054 170.29 671.696 177.126 667.346 182.66C661.608 190.218 658.55 199.467 658.654 208.951C658.654 209.205 658.553 209.448 658.374 209.627C658.195 209.806 657.952 209.906 657.698 209.906ZM628.058 207.996H656.742C656.86 198.416 660.062 189.127 665.873 181.504C669.951 176.302 672.157 169.88 672.136 163.273C672.13 159.201 671.289 155.173 669.664 151.438C668.039 147.703 665.666 144.34 662.689 141.556C657.243 136.501 650.099 133.666 642.664 133.612C635.229 133.557 628.044 136.286 622.524 141.261C617.004 146.237 613.55 153.097 612.844 160.489C612.137 167.882 614.229 175.27 618.707 181.199C624.56 188.931 627.831 198.305 628.058 207.996Z" fill="#252525"/>
<path d="M657.007 217.46H626.955C624.991 217.46 623.398 219.051 623.398 221.013V222.388C623.398 224.35 624.991 225.94 626.955 225.94H657.007C658.971 225.94 660.563 224.35 660.563 222.388V221.013C660.563 219.051 658.971 217.46 657.007 217.46Z" fill="#CDCDCD"/>
<path d="M657.006 226.895H626.954C625.758 226.893 624.612 226.417 623.766 225.572C622.92 224.728 622.444 223.582 622.441 222.388V221.013C622.444 219.818 622.92 218.673 623.766 217.828C624.612 216.983 625.758 216.507 626.954 216.505H657.006C658.202 216.507 659.348 216.983 660.194 217.828C661.04 218.673 661.516 219.818 661.519 221.013V222.388C661.516 223.582 661.04 224.728 660.194 225.572C659.348 226.417 658.202 226.893 657.006 226.895ZM626.954 218.405C626.265 218.405 625.603 218.679 625.115 219.166C624.628 219.653 624.354 220.314 624.354 221.003V222.378C624.354 223.067 624.628 223.728 625.115 224.215C625.603 224.702 626.265 224.976 626.954 224.976H657.006C657.696 224.976 658.357 224.702 658.845 224.215C659.332 223.728 659.606 223.067 659.606 222.378V221.003C659.606 220.314 659.332 219.653 658.845 219.166C658.357 218.679 657.696 218.405 657.006 218.405H626.954Z" fill="white"/>
<path d="M657.007 208.979H626.955C624.991 208.979 623.398 210.57 623.398 212.532V213.907C623.398 215.869 624.991 217.46 626.955 217.46H657.007C658.971 217.46 660.563 215.869 660.563 213.907V212.532C660.563 210.57 658.971 208.979 657.007 208.979Z" fill="#CDCDCD"/>
<path d="M657.006 218.405H626.954C625.758 218.403 624.612 217.927 623.766 217.082C622.92 216.237 622.444 215.092 622.441 213.898V212.522C622.444 211.328 622.92 210.182 623.766 209.338C624.612 208.493 625.758 208.017 626.954 208.015H657.006C658.202 208.017 659.348 208.493 660.194 209.338C661.04 210.182 661.516 211.328 661.519 212.522V213.898C661.516 215.092 661.04 216.237 660.194 217.082C659.348 217.927 658.202 218.403 657.006 218.405V218.405ZM626.954 209.925C626.265 209.925 625.603 210.198 625.115 210.685C624.628 211.173 624.354 211.833 624.354 212.522V213.898C624.354 214.586 624.628 215.247 625.115 215.734C625.603 216.221 626.265 216.495 626.954 216.495H657.006C657.696 216.495 658.357 216.221 658.845 215.734C659.332 215.247 659.606 214.586 659.606 213.898V212.522C659.606 211.833 659.332 211.173 658.845 210.685C658.357 210.198 657.696 209.925 657.006 209.925H626.954Z" fill="white"/>
<path d="M657.007 200.499H626.955C624.991 200.499 623.398 202.09 623.398 204.052V205.427C623.398 207.389 624.991 208.98 626.955 208.98H657.007C658.971 208.98 660.563 207.389 660.563 205.427V204.052C660.563 202.09 658.971 200.499 657.007 200.499Z" fill="#CDCDCD"/>
<path d="M657.006 209.934H626.954C625.758 209.932 624.612 209.456 623.766 208.611C622.92 207.766 622.444 206.621 622.441 205.426V204.08C622.444 202.885 622.92 201.74 623.766 200.895C624.612 200.051 625.758 199.575 626.954 199.572H657.006C658.202 199.575 659.348 200.051 660.194 200.895C661.04 201.74 661.516 202.885 661.519 204.08V205.455C661.509 206.645 661.029 207.783 660.184 208.621C659.339 209.46 658.197 209.932 657.006 209.934ZM626.954 201.454C626.265 201.454 625.603 201.727 625.115 202.214C624.628 202.702 624.354 203.362 624.354 204.051V205.426C624.354 206.115 624.628 206.776 625.115 207.263C625.603 207.75 626.265 208.024 626.954 208.024H657.006C657.696 208.024 658.357 207.75 658.845 207.263C659.332 206.776 659.606 206.115 659.606 205.426V204.08C659.606 203.391 659.332 202.73 658.845 202.243C658.357 201.756 657.696 201.482 657.006 201.482L626.954 201.454Z" fill="white"/>
<path d="M690.738 294.527V253.216C690.738 246.117 687.915 239.308 682.889 234.287C677.864 229.266 671.048 226.444 663.94 226.441C663.94 226.441 663.94 226.441 663.94 226.441M690.738 294.527L593.559 253.216C593.559 245.984 596.434 239.048 601.553 233.933C606.672 228.819 613.616 225.944 620.856 225.941H663.94L663.94 226.441M690.738 294.527H594.059M690.738 294.527H594.059M663.94 226.441H620.856C620.856 226.441 620.856 226.441 620.856 226.441C613.748 226.444 606.932 229.266 601.907 234.287C596.881 239.308 594.059 246.117 594.059 253.216V294.527M663.94 226.441L594.059 294.527" fill="#D2E6BB" stroke="black"/>
<path d="M691.237 295.982H593.558C593.304 295.982 593.061 295.881 592.882 295.702C592.702 295.523 592.602 295.28 592.602 295.027V253.216C592.609 245.733 595.588 238.559 600.885 233.266C606.181 227.974 613.363 224.996 620.855 224.986H663.939C671.431 224.996 678.613 227.974 683.91 233.266C689.206 238.559 692.185 245.733 692.193 253.216V295.027C692.193 295.28 692.092 295.523 691.913 295.702C691.733 295.881 691.49 295.982 691.237 295.982ZM594.514 294.072H690.281V253.216C690.275 246.239 687.499 239.549 682.56 234.614C677.622 229.68 670.925 226.904 663.939 226.896H620.855C613.87 226.904 607.173 229.68 602.234 234.614C597.295 239.549 594.519 246.239 594.514 253.216V294.072Z" fill="#252525"/>
<path d="M660.19 225.941L649.797 257.094L641.804 281.045L634.04 255.785L624.852 225.941H660.19Z" fill="white"/>
<path d="M641.801 282C641.589 282.009 641.38 281.948 641.207 281.825C641.034 281.702 640.907 281.525 640.845 281.322L623.902 226.218C623.858 226.075 623.848 225.924 623.873 225.776C623.898 225.629 623.957 225.489 624.046 225.368C624.135 225.25 624.25 225.153 624.383 225.087C624.516 225.021 624.662 224.986 624.811 224.986H660.188C660.339 224.986 660.487 225.022 660.622 225.091C660.756 225.159 660.873 225.259 660.961 225.381C661.05 225.503 661.108 225.644 661.132 225.793C661.155 225.942 661.143 226.094 661.096 226.237L642.71 281.351C642.646 281.541 642.523 281.705 642.36 281.822C642.197 281.938 642.002 282.001 641.801 282V282ZM626.14 226.896L641.83 277.913L658.859 226.896H626.14Z" fill="white"/>
<path d="M640.273 226.191H644.509C645.997 226.191 647.204 227.397 647.204 228.883V230.955C647.204 232.441 645.997 233.647 644.509 233.647H640.273C638.784 233.647 637.578 232.441 637.578 230.955V228.883C637.578 227.397 638.784 226.191 640.273 226.191Z" fill="#EEF6E5" stroke="black" stroke-width="0.5"/>
<path d="M649.744 261.039L641.768 288.083L634.257 260.433L639.577 234.25H645.146L649.744 261.039Z" fill="#EEF6E5" stroke="black" stroke-width="0.5"/>
<path d="M615.816 295.981C615.562 295.981 615.319 295.88 615.139 295.701C614.96 295.522 614.859 295.279 614.859 295.026V249.405C614.859 249.152 614.96 248.909 615.139 248.73C615.319 248.551 615.562 248.45 615.816 248.45C616.069 248.45 616.312 248.551 616.492 248.73C616.671 248.909 616.772 249.152 616.772 249.405V295.026C616.772 295.279 616.671 295.522 616.492 295.701C616.312 295.88 616.069 295.981 615.816 295.981V295.981Z" fill="#252525"/>
<path d="M668.98 295.981C668.726 295.981 668.483 295.88 668.303 295.701C668.124 295.522 668.023 295.279 668.023 295.026V249.405C668.023 249.152 668.124 248.909 668.303 248.73C668.483 248.551 668.726 248.45 668.98 248.45C669.233 248.45 669.476 248.551 669.656 248.73C669.835 248.909 669.936 249.152 669.936 249.405V295.026C669.936 295.279 669.835 295.522 669.656 295.701C669.476 295.88 669.233 295.981 668.98 295.981Z" fill="#252525"/>
<path d="M593.556 295.025L581.623 248.679L565.531 253.492L571.651 295.025H593.556Z" fill="#D2E6BB"/>
<path d="M593.752 295.458C593.732 295.467 593.713 295.474 593.693 295.48H593.558L571.644 295.48L571.638 295.48C571.528 295.482 571.421 295.443 571.337 295.372C571.254 295.301 571.199 295.202 571.182 295.095C571.182 295.094 571.182 295.094 571.182 295.094L565.063 253.554C565.063 253.554 565.063 253.554 565.063 253.554C565.048 253.446 565.071 253.337 565.13 253.245C565.188 253.154 565.277 253.086 565.381 253.054C565.382 253.054 565.382 253.054 565.382 253.054L581.472 248.28C581.531 248.262 581.593 248.257 581.654 248.264C581.715 248.271 581.774 248.29 581.827 248.32C581.879 248.35 581.925 248.391 581.962 248.439C581.998 248.488 582.025 248.543 582.04 248.602L582.041 248.603L594.002 294.931L594.002 294.931C594.02 294.999 594.021 295.071 594.006 295.14C593.992 295.209 593.961 295.274 593.917 295.329C593.872 295.384 593.816 295.428 593.752 295.458ZM572.029 294.144L572.092 294.57H572.523H592.373H593.019L592.857 293.945L581.431 249.795L581.301 249.292L580.804 249.441L566.461 253.739L566.047 253.863L566.11 254.291L572.029 294.144Z" fill="white" stroke="black"/>
<path d="M581.622 248.678C581.622 248.678 580.934 240.303 578.878 236.025C576.823 231.746 573.744 226.283 572.377 228.384C571.009 230.485 573.744 236.416 573.744 236.416C573.744 236.416 549.611 231.46 547.049 234.506C544.486 237.553 544.821 241.191 547.049 243.053C549.276 244.916 563.437 249.738 563.437 249.738C564.357 250.877 565.067 252.17 565.531 253.558L581.622 248.678Z" fill="white"/>
<path d="M565.536 254.448C565.317 254.454 565.103 254.385 564.929 254.253C564.755 254.121 564.632 253.934 564.579 253.722C564.186 252.559 563.594 251.474 562.83 250.513C560.478 249.711 548.602 245.614 546.403 243.761C543.611 241.402 543.535 237.152 546.288 233.877C548.774 230.897 564.971 233.676 572.162 235.08C571.358 232.95 570.402 229.541 571.559 227.803C571.723 227.521 571.964 227.291 572.253 227.139C572.542 226.987 572.868 226.919 573.194 226.943C573.921 226.991 575.632 227.106 579.715 235.615C581.828 239.998 582.517 248.25 582.583 248.603C582.593 248.815 582.531 249.024 582.408 249.197C582.285 249.37 582.108 249.497 581.905 249.558L565.822 254.333C565.731 254.382 565.635 254.42 565.536 254.448V254.448ZM551.624 234.392C549.568 234.392 548.182 234.593 547.799 235.07C545.447 237.936 545.963 240.801 547.675 242.281C549.205 243.57 558.135 246.865 563.757 248.765C563.926 248.825 564.075 248.931 564.187 249.071C564.979 250.052 565.64 251.13 566.157 252.28L580.595 248.011C580.375 245.881 579.639 239.798 578.023 236.465C575.384 230.983 573.768 229.159 573.185 228.901C572.487 230.133 573.624 233.819 574.619 235.997C574.685 236.153 574.708 236.323 574.686 236.491C574.664 236.659 574.598 236.818 574.495 236.952C574.384 237.093 574.235 237.2 574.066 237.261C573.897 237.322 573.714 237.334 573.538 237.296C565.526 235.653 556.615 234.421 551.624 234.421V234.392Z" fill="#CDCDCD"/>
<path d="M568.614 242.626C568.373 242.626 568.141 242.536 567.964 242.373C567.787 242.211 567.677 241.987 567.658 241.747C567.343 237.688 571.387 235.835 573.577 235.434C573.824 235.389 574.078 235.443 574.286 235.585C574.493 235.726 574.637 235.943 574.686 236.189C574.733 236.437 574.681 236.694 574.539 236.903C574.398 237.113 574.179 237.258 573.93 237.306C573.739 237.306 569.303 238.261 569.57 241.594C569.589 241.846 569.507 242.095 569.342 242.287C569.177 242.478 568.943 242.597 568.691 242.616L568.614 242.626Z" fill="white"/>
<path d="M691.867 295.025L703.8 248.679L719.892 253.492L713.772 295.025H691.867Z" fill="#D2E6BB"/>
<path d="M691.869 295.48H691.861L691.854 295.481C691.783 295.483 691.712 295.469 691.648 295.439C691.583 295.409 691.527 295.365 691.483 295.31C691.438 295.255 691.408 295.19 691.393 295.121C691.378 295.052 691.38 294.98 691.397 294.912L691.398 294.911L703.33 248.565L703.33 248.564C703.346 248.504 703.373 248.448 703.41 248.399C703.448 248.35 703.495 248.31 703.548 248.279C703.602 248.249 703.661 248.23 703.723 248.223C703.784 248.217 703.846 248.222 703.905 248.24L703.905 248.24L703.908 248.241L719.991 253.016L719.993 253.017C720.098 253.048 720.189 253.115 720.248 253.207C720.308 253.299 720.332 253.409 720.317 253.517C720.317 253.517 720.317 253.517 720.317 253.517L714.198 295.058L714.196 295.067L714.195 295.076C714.183 295.184 714.133 295.285 714.052 295.359C713.974 295.432 713.872 295.475 713.764 295.48H691.869ZM692.619 293.946L692.458 294.57H693.103H712.952H713.384L713.447 294.143L719.318 254.243L719.381 253.815L718.966 253.691L704.624 249.394L704.126 249.244L703.997 249.748L692.619 293.946Z" fill="white" stroke="black"/>
<path d="M703.801 248.678C703.801 248.678 704.489 240.303 706.545 236.025C708.601 231.746 711.679 226.283 713.047 228.384C714.414 230.485 711.679 236.416 711.679 236.416C711.679 236.416 735.803 231.46 738.375 234.506C740.947 237.553 740.603 241.191 738.375 243.053C736.147 244.916 721.987 249.738 721.987 249.738C721.066 250.877 720.357 252.17 719.893 253.558L703.801 248.678Z" fill="white"/>
<path d="M719.893 254.447C719.8 254.457 719.707 254.457 719.615 254.447L703.523 249.672C703.32 249.611 703.143 249.484 703.02 249.311C702.897 249.138 702.836 248.929 702.845 248.717C702.845 248.364 703.571 240.122 705.713 235.729C709.805 227.22 711.507 227.134 712.243 227.057C712.569 227.036 712.894 227.105 713.182 227.257C713.471 227.409 713.712 227.637 713.878 227.917C715.035 229.655 714.07 233.064 713.276 235.194C720.457 233.79 736.654 231.002 739.149 233.991C741.874 237.266 741.826 241.516 739.034 243.875C736.835 245.728 724.96 249.825 722.608 250.627C721.831 251.553 721.219 252.607 720.801 253.74C720.749 253.952 720.625 254.14 720.451 254.272C720.277 254.404 720.063 254.473 719.845 254.466L719.893 254.447ZM704.833 248.01L719.281 252.337C719.797 251.187 720.459 250.109 721.25 249.128C721.362 248.988 721.511 248.882 721.681 248.822C727.303 246.912 736.223 243.627 737.753 242.338C739.474 240.886 739.991 237.945 737.638 235.127C736.281 233.504 723.201 235.003 711.871 237.333C711.695 237.372 711.512 237.36 711.343 237.299C711.174 237.238 711.025 237.131 710.914 236.99C710.812 236.855 710.748 236.695 710.728 236.528C710.708 236.36 710.733 236.19 710.8 236.035C711.813 233.819 712.97 230.037 712.243 228.939C711.67 229.178 710.044 230.992 707.396 236.502C705.809 239.769 705.053 245.852 704.833 248.01Z" fill="#CDCDCD"/>
<path d="M716.815 242.625H716.738C716.486 242.605 716.252 242.487 716.087 242.295C715.922 242.104 715.84 241.855 715.859 241.603C716.126 238.241 711.69 237.353 711.499 237.315C711.245 237.268 711.02 237.122 710.874 236.91C710.728 236.698 710.672 236.436 710.719 236.183C710.766 235.93 710.912 235.706 711.125 235.56C711.337 235.414 711.599 235.358 711.852 235.405C714.042 235.806 718.086 237.659 717.761 241.717C717.749 241.961 717.644 242.19 717.468 242.359C717.292 242.527 717.059 242.623 716.815 242.625V242.625Z" fill="white"/>
<path d="M593.635 192.553C593.61 191.866 593.358 191.205 592.919 190.675C592.48 190.145 591.878 189.775 591.206 189.621C590.03 189.364 588.835 189.172 587.649 188.991C587.485 188.98 587.328 188.918 587.201 188.814C587.074 188.709 586.983 188.567 586.942 188.408C586.588 187.453 586.196 186.498 585.785 185.61C585.718 185.502 585.688 185.375 585.698 185.248C585.708 185.121 585.759 185 585.842 184.904C586.559 183.949 587.295 182.936 587.955 181.914C588.342 181.338 588.524 180.649 588.474 179.957C588.424 179.265 588.144 178.609 587.678 178.094C586.588 176.91 585.421 175.783 584.283 174.647C583.722 174.012 582.94 173.615 582.096 173.537C581.252 173.459 580.41 173.706 579.742 174.227C578.853 174.847 577.963 175.478 577.084 176.137C576.989 176.223 576.87 176.277 576.743 176.29C576.615 176.304 576.487 176.277 576.376 176.213C575.42 175.764 574.359 175.344 573.326 174.952C573.203 174.92 573.093 174.85 573.011 174.752C572.929 174.655 572.879 174.535 572.867 174.408C572.705 173.319 572.523 172.231 572.332 171.151C572.233 170.379 571.862 169.667 571.286 169.142C570.709 168.617 569.965 168.314 569.186 168.286C567.516 168.248 565.843 168.248 564.166 168.286C563.455 168.301 562.768 168.554 562.217 169.004C561.666 169.454 561.282 170.076 561.126 170.769C560.858 171.992 560.667 173.224 560.466 174.446C560.457 174.575 560.407 174.697 560.325 174.796C560.243 174.896 560.132 174.967 560.007 175C559.051 175.392 558.095 175.802 557.139 176.232C557.036 176.296 556.915 176.324 556.795 176.314C556.674 176.304 556.56 176.255 556.469 176.175C555.513 175.468 554.557 174.742 553.534 174.083C552.959 173.697 552.271 173.511 551.579 173.556C550.887 173.601 550.23 173.874 549.71 174.332C548.435 175.497 547.204 176.713 546.019 177.98C545.464 178.54 545.134 179.285 545.094 180.072C545.053 180.86 545.304 181.634 545.799 182.249C546.459 183.204 547.138 184.159 547.778 185.056C547.823 185.13 547.851 185.213 547.861 185.298C547.871 185.384 547.862 185.471 547.836 185.553C547.434 186.604 547.004 187.654 546.564 188.685C546.526 188.765 546.472 188.835 546.404 188.891C546.336 188.947 546.257 188.988 546.172 189.01C545.091 189.211 544.001 189.392 542.911 189.564C542.151 189.659 541.448 190.016 540.924 190.574C540.4 191.132 540.089 191.856 540.043 192.62C539.986 194.358 539.986 196.106 540.043 197.854C540.074 198.534 540.326 199.187 540.76 199.712C541.195 200.237 541.789 200.607 542.452 200.766C543.695 201.043 544.958 201.234 546.22 201.444C546.34 201.456 546.454 201.503 546.548 201.58C546.641 201.656 546.71 201.759 546.746 201.874C547.138 202.829 547.558 203.851 547.989 204.825C548.047 204.923 548.074 205.036 548.063 205.15C548.053 205.263 548.007 205.37 547.931 205.455C547.271 206.353 546.612 207.251 546.019 208.177C545.525 208.828 545.291 209.639 545.362 210.452C545.432 211.265 545.803 212.024 546.401 212.58C547.447 213.649 548.505 214.706 549.576 215.75C550.144 216.372 550.928 216.754 551.769 216.818C552.609 216.882 553.442 216.623 554.098 216.094C555.054 215.454 555.915 214.814 556.814 214.184C556.901 214.121 557.007 214.087 557.115 214.087C557.223 214.087 557.328 214.121 557.416 214.184C558.372 214.585 559.271 214.986 560.218 215.33C560.363 215.371 560.491 215.457 560.584 215.575C560.677 215.694 560.729 215.839 560.734 215.989C560.896 217.059 561.078 218.128 561.269 219.198C561.365 219.941 561.718 220.628 562.266 221.14C562.813 221.653 563.523 221.959 564.272 222.006C566.031 222.073 567.79 222.063 569.549 222.006C570.239 221.972 570.898 221.714 571.427 221.271C571.955 220.828 572.323 220.224 572.475 219.551C572.733 218.367 572.915 217.164 573.116 215.96C573.124 215.818 573.176 215.682 573.265 215.571C573.355 215.46 573.476 215.379 573.613 215.34C574.569 214.967 575.573 214.557 576.539 214.127C576.639 214.074 576.752 214.051 576.865 214.063C576.977 214.075 577.083 214.121 577.17 214.194C578.069 214.853 578.986 215.493 579.895 216.104C580.528 216.567 581.301 216.799 582.084 216.763C582.8 216.754 583.485 216.47 583.997 215.97C585.154 214.881 586.263 213.754 587.391 212.637C588.04 212.069 588.446 211.272 588.522 210.413C588.599 209.554 588.341 208.698 587.802 208.024C587.181 207.136 586.55 206.258 585.89 205.379C585.815 205.292 585.768 205.184 585.756 205.07C585.744 204.955 585.767 204.84 585.823 204.739C586.25 203.765 586.661 202.781 587.056 201.788C587.089 201.663 587.162 201.551 587.264 201.47C587.365 201.389 587.49 201.343 587.62 201.339L590.871 200.805C591.642 200.71 592.353 200.345 592.878 199.774C593.404 199.204 593.709 198.466 593.74 197.691C593.635 195.991 593.635 194.272 593.635 192.553ZM566.758 206.735C564.462 206.739 562.217 206.062 560.307 204.791C558.397 203.519 556.907 201.71 556.027 199.593C555.147 197.475 554.915 195.144 555.362 192.896C555.809 190.647 556.914 188.581 558.537 186.96C560.161 185.338 562.229 184.235 564.48 183.788C566.732 183.342 569.066 183.573 571.186 184.452C573.306 185.331 575.117 186.819 576.39 188.727C577.663 190.635 578.34 192.877 578.336 195.17C578.331 198.241 577.106 201.184 574.929 203.352C572.753 205.521 569.803 206.738 566.729 206.735H566.758Z" fill="#EEF6E5" stroke="#252525" stroke-width="2.03" stroke-linecap="round" stroke-linejoin="round"/>
<path d="M744.894 192.553C744.869 191.866 744.618 191.205 744.179 190.675C743.739 190.145 743.137 189.775 742.465 189.621C741.289 189.364 740.094 189.172 738.909 188.991C738.745 188.979 738.589 188.917 738.462 188.812C738.335 188.708 738.244 188.567 738.201 188.408C737.847 187.453 737.455 186.498 737.044 185.61C736.979 185.501 736.95 185.373 736.962 185.246C736.974 185.119 737.026 184.999 737.111 184.904C737.828 183.949 738.555 182.936 739.215 181.914C739.601 181.338 739.784 180.649 739.734 179.957C739.683 179.265 739.403 178.609 738.937 178.094C737.857 176.91 736.69 175.783 735.553 174.647C734.989 174.013 734.205 173.618 733.36 173.54C732.515 173.462 731.672 173.707 731.001 174.227C730.112 174.847 729.223 175.478 728.353 176.137C728.256 176.222 728.135 176.276 728.007 176.289C727.878 176.303 727.748 176.276 727.636 176.213C726.635 175.767 725.622 175.347 724.595 174.952C724.47 174.924 724.358 174.855 724.275 174.757C724.192 174.659 724.143 174.536 724.136 174.408C723.964 173.319 723.783 172.231 723.591 171.151C723.492 170.379 723.121 169.667 722.545 169.142C721.969 168.617 721.225 168.314 720.446 168.286C718.776 168.248 717.102 168.248 715.426 168.286C714.715 168.303 714.029 168.556 713.478 169.006C712.928 169.456 712.543 170.076 712.385 170.769C712.118 171.992 711.926 173.224 711.726 174.446C711.716 174.575 711.667 174.697 711.585 174.796C711.502 174.896 711.391 174.967 711.267 175C710.311 175.392 709.354 175.802 708.398 176.232C708.294 176.296 708.172 176.325 708.049 176.315C707.927 176.305 707.812 176.256 707.719 176.175C706.763 175.468 705.807 174.742 704.784 174.083C704.209 173.697 703.521 173.511 702.829 173.556C702.137 173.601 701.48 173.874 700.96 174.332C699.688 175.497 698.445 176.71 697.269 177.98C696.714 178.54 696.384 179.285 696.344 180.072C696.303 180.86 696.554 181.634 697.049 182.249C697.709 183.204 698.388 184.159 699.028 185.056C699.073 185.13 699.101 185.213 699.111 185.298C699.121 185.384 699.112 185.471 699.086 185.553C698.684 186.604 698.263 187.654 697.814 188.685C697.777 188.766 697.723 188.837 697.655 188.893C697.587 188.949 697.508 188.989 697.422 189.01C696.341 189.211 695.251 189.392 694.161 189.564C693.401 189.659 692.698 190.016 692.174 190.574C691.65 191.132 691.339 191.856 691.293 192.62C691.236 194.358 691.236 196.106 691.293 197.854C691.324 198.534 691.576 199.187 692.01 199.712C692.445 200.237 693.039 200.607 693.702 200.766C694.945 201.043 696.217 201.234 697.47 201.444C697.591 201.454 697.706 201.5 697.8 201.577C697.894 201.653 697.963 201.757 697.996 201.874C698.388 202.829 698.808 203.851 699.248 204.825C699.303 204.924 699.327 205.037 699.316 205.149C699.306 205.261 699.262 205.368 699.191 205.455C698.521 206.353 697.862 207.251 697.278 208.177C696.781 208.826 696.544 209.636 696.613 210.45C696.682 211.264 697.052 212.024 697.651 212.58C698.703 213.649 699.755 214.709 700.826 215.75C701.394 216.372 702.178 216.754 703.019 216.818C703.859 216.882 704.692 216.623 705.348 216.094C706.257 215.454 707.174 214.814 708.073 214.184C708.16 214.122 708.263 214.089 708.37 214.089C708.476 214.089 708.58 214.122 708.666 214.184C709.622 214.585 710.521 214.986 711.468 215.33C711.613 215.372 711.742 215.457 711.836 215.576C711.93 215.694 711.985 215.838 711.993 215.989C712.156 217.059 712.328 218.128 712.519 219.198C712.615 219.941 712.968 220.628 713.516 221.14C714.063 221.653 714.773 221.959 715.522 222.006C717.281 222.073 719.05 222.063 720.809 222.006C721.498 221.971 722.156 221.712 722.685 221.269C723.213 220.826 723.581 220.223 723.735 219.551C723.993 218.367 724.165 217.164 724.366 215.96C724.377 215.819 724.43 215.684 724.519 215.574C724.607 215.463 724.727 215.381 724.863 215.34C725.819 214.967 726.823 214.557 727.789 214.127C727.889 214.074 728.002 214.051 728.115 214.063C728.227 214.075 728.333 214.121 728.42 214.194C729.328 214.853 730.236 215.493 731.145 216.104C731.778 216.567 732.551 216.799 733.334 216.763C734.05 216.754 734.735 216.47 735.247 215.97C736.404 214.881 737.513 213.754 738.641 212.637C739.293 212.07 739.699 211.273 739.776 210.413C739.852 209.554 739.593 208.697 739.052 208.024C738.431 207.136 737.8 206.258 737.14 205.379C737.067 205.291 737.022 205.183 737.01 205.069C736.998 204.955 737.02 204.841 737.073 204.739C737.506 203.765 737.917 202.781 738.306 201.788C738.341 201.663 738.414 201.553 738.515 201.472C738.617 201.391 738.741 201.345 738.87 201.339L742.131 200.805C742.901 200.71 743.612 200.345 744.138 199.774C744.663 199.204 744.969 198.466 744.999 197.691C744.942 195.991 744.942 194.272 744.894 192.553ZM718.027 206.735C715.733 206.731 713.492 206.048 711.586 204.772C709.681 203.496 708.198 201.684 707.323 199.566C706.449 197.448 706.223 195.119 706.674 192.872C707.126 190.626 708.234 188.563 709.858 186.946C711.483 185.329 713.551 184.229 715.802 183.785C718.052 183.342 720.384 183.575 722.502 184.456C724.62 185.336 726.428 186.824 727.7 188.731C728.971 190.638 729.647 192.879 729.644 195.17C729.641 196.691 729.339 198.197 728.754 199.602C728.168 201.006 727.312 202.282 726.233 203.356C725.154 204.43 723.875 205.281 722.466 205.861C721.058 206.44 719.55 206.738 718.027 206.735V206.735Z" fill="#D2E6BB" stroke="#252525" stroke-width="2.03" stroke-linecap="round" stroke-linejoin="round"/>
<path d="M602.114 157.687C602.007 157.686 601.9 157.666 601.799 157.63L595.976 155.614C595.738 155.53 595.543 155.355 595.434 155.128C595.325 154.901 595.31 154.64 595.393 154.402C595.475 154.162 595.649 153.966 595.877 153.855C596.105 153.744 596.367 153.727 596.607 153.81L602.42 155.825C602.674 155.865 602.901 156.005 603.052 156.212C603.202 156.42 603.264 156.679 603.223 156.932C603.183 157.186 603.043 157.412 602.835 157.563C602.627 157.713 602.368 157.775 602.114 157.735V157.687Z" fill="#DFEAEF"/>
<path d="M642.628 125.092C642.374 125.092 642.131 124.991 641.952 124.812C641.773 124.633 641.672 124.39 641.672 124.137V116.955C641.672 116.702 641.773 116.459 641.952 116.28C642.131 116.101 642.374 116 642.628 116C642.882 116 643.125 116.101 643.304 116.28C643.483 116.459 643.584 116.702 643.584 116.955V124.137C643.584 124.39 643.483 124.633 643.304 124.812C643.125 124.991 642.882 125.092 642.628 125.092V125.092Z" fill="#DFEAEF"/>
<path d="M615.815 134.479C615.566 134.481 615.326 134.385 615.146 134.212L611.034 130.249C610.852 130.073 610.747 129.831 610.742 129.578C610.738 129.325 610.834 129.08 611.011 128.897C611.187 128.715 611.428 128.61 611.682 128.606C611.936 128.601 612.181 128.698 612.364 128.874L616.475 132.837C616.653 133.016 616.753 133.258 616.753 133.51C616.753 133.762 616.653 134.004 616.475 134.183C616.302 134.365 616.065 134.471 615.815 134.479V134.479Z" fill="#DFEAEF"/>
<path d="M683.596 157.686C683.342 157.728 683.082 157.667 682.873 157.518C682.664 157.368 682.524 157.142 682.482 156.889C682.44 156.635 682.5 156.376 682.65 156.167C682.8 155.958 683.026 155.818 683.28 155.776L688.816 153.866C688.935 153.825 689.06 153.807 689.186 153.814C689.311 153.821 689.434 153.853 689.547 153.907C689.661 153.962 689.762 154.038 689.846 154.132C689.929 154.226 689.994 154.335 690.035 154.453C690.077 154.572 690.094 154.697 690.087 154.823C690.08 154.948 690.048 155.071 689.994 155.184C689.939 155.297 689.863 155.398 689.769 155.482C689.675 155.565 689.566 155.63 689.447 155.671L683.911 157.581C683.813 157.634 683.706 157.67 683.596 157.686V157.686Z" fill="#DFEAEF"/>
<path d="M669.896 134.48C669.767 134.48 669.64 134.453 669.522 134.402C669.403 134.351 669.297 134.277 669.208 134.184C669.03 134.005 668.93 133.763 668.93 133.511C668.93 133.259 669.03 133.017 669.208 132.838L674.352 127.891C674.537 127.736 674.773 127.658 675.014 127.67C675.255 127.683 675.482 127.786 675.65 127.958C675.818 128.131 675.914 128.361 675.92 128.601C675.926 128.842 675.84 129.076 675.681 129.256L670.537 134.213C670.364 134.379 670.136 134.474 669.896 134.48V134.48Z" fill="#DFEAEF"/>
</svg>
