<svg width="217" height="153" viewBox="0 0 217 153" fill="none" xmlns="http://www.w3.org/2000/svg">
<path d="M56.7953 109.254V122.214H54.9413V113.331C54.9413 113.187 54.9443 113.031 54.9503 112.863C54.9623 112.689 54.9773 112.515 54.9953 112.341L50.8283 120.036C50.6663 120.354 50.4173 120.513 50.0813 120.513H49.7843C49.4423 120.513 49.1933 120.354 49.0373 120.036L44.8073 112.323C44.8253 112.497 44.8373 112.671 44.8433 112.845C44.8553 113.019 44.8613 113.181 44.8613 113.331V122.214H43.0073V109.254H44.5823C44.7683 109.254 44.9123 109.272 45.0143 109.308C45.1163 109.338 45.2093 109.437 45.2933 109.605L49.4513 117.138C49.5413 117.312 49.6253 117.492 49.7033 117.678C49.7873 117.858 49.8623 118.044 49.9283 118.236C50.0003 118.044 50.0753 117.855 50.1533 117.669C50.2373 117.477 50.3243 117.294 50.4143 117.12L54.5093 109.605C54.5933 109.437 54.6863 109.338 54.7883 109.308C54.8903 109.272 55.0343 109.254 55.2203 109.254H56.7953ZM63.5525 112.89C64.2305 112.89 64.8425 113.001 65.3885 113.223C65.9405 113.445 66.4085 113.76 66.7925 114.168C67.1825 114.576 67.4825 115.071 67.6925 115.653C67.9025 116.235 68.0075 116.889 68.0075 117.615C68.0075 118.341 67.9025 118.995 67.6925 119.577C67.4825 120.159 67.1825 120.657 66.7925 121.071C66.4085 121.479 65.9405 121.794 65.3885 122.016C64.8425 122.238 64.2305 122.349 63.5525 122.349C62.8685 122.349 62.2505 122.238 61.6985 122.016C61.1525 121.794 60.6845 121.479 60.2945 121.071C59.9045 120.657 59.6045 120.159 59.3945 119.577C59.1845 118.995 59.0795 118.341 59.0795 117.615C59.0795 116.889 59.1845 116.235 59.3945 115.653C59.6045 115.071 59.9045 114.576 60.2945 114.168C60.6845 113.76 61.1525 113.445 61.6985 113.223C62.2505 113.001 62.8685 112.89 63.5525 112.89ZM63.5525 120.837C64.3805 120.837 64.9955 120.561 65.3975 120.009C65.8055 119.451 66.0095 118.656 66.0095 117.624C66.0095 116.592 65.8055 115.797 65.3975 115.239C64.9955 114.675 64.3805 114.393 63.5525 114.393C62.7125 114.393 62.0885 114.675 61.6805 115.239C61.2725 115.797 61.0685 116.592 61.0685 117.624C61.0685 118.656 61.2725 119.451 61.6805 120.009C62.0885 120.561 62.7125 120.837 63.5525 120.837ZM76.0857 115.293C75.8157 114.945 75.5187 114.702 75.1947 114.564C74.8707 114.426 74.5197 114.357 74.1417 114.357C73.3857 114.357 72.7947 114.636 72.3687 115.194C71.9427 115.746 71.7297 116.565 71.7297 117.651C71.7297 118.215 71.7777 118.698 71.8737 119.1C71.9697 119.496 72.1077 119.82 72.2877 120.072C72.4677 120.324 72.6867 120.507 72.9447 120.621C73.2027 120.735 73.4937 120.792 73.8177 120.792C74.3097 120.792 74.7327 120.687 75.0867 120.477C75.4467 120.261 75.7797 119.958 76.0857 119.568V115.293ZM78.0207 108.894V122.214H76.8507C76.5927 122.214 76.4277 122.091 76.3557 121.845L76.1847 120.846C75.8007 121.296 75.3627 121.659 74.8707 121.935C74.3847 122.211 73.8177 122.349 73.1697 122.349C72.6537 122.349 72.1857 122.247 71.7657 122.043C71.3457 121.833 70.9857 121.53 70.6857 121.134C70.3857 120.738 70.1517 120.249 69.9837 119.667C69.8217 119.079 69.7407 118.407 69.7407 117.651C69.7407 116.967 69.8307 116.334 70.0107 115.752C70.1967 115.17 70.4607 114.666 70.8027 114.24C71.1447 113.808 71.5587 113.472 72.0447 113.232C72.5367 112.986 73.0857 112.863 73.6917 112.863C74.2317 112.863 74.6907 112.95 75.0687 113.124C75.4467 113.292 75.7857 113.529 76.0857 113.835V108.894H78.0207ZM88.4868 113.034V122.214H87.3168C87.0588 122.214 86.8938 122.091 86.8218 121.845L86.6778 120.99C86.4858 121.194 86.2818 121.38 86.0658 121.548C85.8558 121.716 85.6308 121.86 85.3908 121.98C85.1508 122.1 84.8928 122.193 84.6168 122.259C84.3468 122.325 84.0558 122.358 83.7438 122.358C83.2398 122.358 82.7958 122.274 82.4118 122.106C82.0278 121.938 81.7038 121.701 81.4398 121.395C81.1818 121.089 80.9868 120.723 80.8548 120.297C80.7228 119.865 80.6568 119.391 80.6568 118.875V113.034H82.5918V118.875C82.5918 119.493 82.7328 119.973 83.0148 120.315C83.3028 120.657 83.7378 120.828 84.3198 120.828C84.7458 120.828 85.1418 120.732 85.5078 120.54C85.8798 120.342 86.2278 120.072 86.5518 119.73V113.034H88.4868ZM93.1677 108.894V122.214H91.2327V108.894H93.1677ZM100.821 118.2C100.131 118.224 99.549 118.281 99.075 118.371C98.601 118.455 98.217 118.566 97.923 118.704C97.629 118.836 97.416 118.995 97.284 119.181C97.158 119.367 97.095 119.571 97.095 119.793C97.095 120.009 97.128 120.195 97.194 120.351C97.266 120.501 97.362 120.627 97.482 120.729C97.608 120.825 97.752 120.897 97.914 120.945C98.082 120.987 98.265 121.008 98.463 121.008C98.967 121.008 99.399 120.915 99.759 120.729C100.125 120.537 100.479 120.261 100.821 119.901V118.2ZM95.691 114.312C96.729 113.346 97.965 112.863 99.399 112.863C99.927 112.863 100.395 112.95 100.803 113.124C101.217 113.292 101.562 113.532 101.838 113.844C102.12 114.156 102.333 114.528 102.477 114.96C102.627 115.386 102.702 115.86 102.702 116.382V122.214H101.838C101.652 122.214 101.511 122.187 101.415 122.133C101.319 122.073 101.238 121.956 101.172 121.782L100.983 121.035C100.749 121.245 100.518 121.434 100.29 121.602C100.062 121.764 99.825 121.902 99.579 122.016C99.339 122.13 99.078 122.214 98.796 122.268C98.52 122.328 98.214 122.358 97.878 122.358C97.506 122.358 97.158 122.307 96.834 122.205C96.516 122.103 96.24 121.95 96.006 121.746C95.772 121.536 95.586 121.278 95.448 120.972C95.316 120.666 95.25 120.306 95.25 119.892C95.25 119.538 95.343 119.193 95.529 118.857C95.721 118.521 96.033 118.221 96.465 117.957C96.903 117.687 97.476 117.465 98.184 117.291C98.898 117.117 99.777 117.018 100.821 116.994V116.382C100.821 115.722 100.68 115.23 100.398 114.906C100.116 114.582 99.702 114.42 99.156 114.42C98.784 114.42 98.472 114.468 98.22 114.564C97.968 114.654 97.749 114.753 97.563 114.861C97.377 114.969 97.212 115.071 97.068 115.167C96.924 115.257 96.771 115.302 96.609 115.302C96.477 115.302 96.363 115.269 96.267 115.203C96.177 115.131 96.102 115.044 96.042 114.942L95.691 114.312ZM107.156 114.735C107.444 114.153 107.792 113.697 108.2 113.367C108.608 113.031 109.097 112.863 109.667 112.863C109.865 112.863 110.051 112.887 110.225 112.935C110.399 112.977 110.555 113.043 110.693 113.133L110.558 114.591C110.534 114.693 110.495 114.765 110.441 114.807C110.393 114.843 110.327 114.861 110.243 114.861C110.153 114.861 110.024 114.846 109.856 114.816C109.688 114.78 109.511 114.762 109.325 114.762C109.055 114.762 108.815 114.801 108.605 114.879C108.401 114.957 108.215 115.071 108.047 115.221C107.885 115.371 107.741 115.554 107.615 115.77C107.489 115.986 107.372 116.232 107.264 116.508V122.214H105.329V113.034H106.454C106.658 113.034 106.799 113.073 106.877 113.151C106.955 113.223 107.009 113.352 107.039 113.538L107.156 114.735ZM118.724 119.91C118.994 120.258 119.288 120.504 119.606 120.648C119.93 120.786 120.287 120.855 120.677 120.855C121.433 120.855 122.021 120.579 122.441 120.027C122.867 119.475 123.08 118.653 123.08 117.561C123.08 116.997 123.032 116.517 122.936 116.121C122.84 115.719 122.702 115.392 122.522 115.14C122.342 114.888 122.123 114.705 121.865 114.591C121.607 114.477 121.316 114.42 120.992 114.42C120.5 114.42 120.074 114.528 119.714 114.744C119.36 114.954 119.03 115.257 118.724 115.653V119.91ZM118.625 114.366C119.009 113.916 119.444 113.553 119.93 113.277C120.422 113.001 120.992 112.863 121.64 112.863C122.156 112.863 122.624 112.968 123.044 113.178C123.464 113.382 123.824 113.682 124.124 114.078C124.424 114.474 124.655 114.966 124.817 115.554C124.985 116.136 125.069 116.805 125.069 117.561C125.069 118.239 124.976 118.872 124.79 119.46C124.61 120.042 124.349 120.549 124.007 120.981C123.665 121.407 123.251 121.743 122.765 121.989C122.279 122.229 121.73 122.349 121.118 122.349C120.578 122.349 120.119 122.262 119.741 122.088C119.369 121.914 119.03 121.674 118.724 121.368V125.265H116.789V113.034H117.959C118.223 113.034 118.391 113.157 118.463 113.403L118.625 114.366ZM129.136 114.735C129.424 114.153 129.772 113.697 130.18 113.367C130.588 113.031 131.077 112.863 131.647 112.863C131.845 112.863 132.031 112.887 132.205 112.935C132.379 112.977 132.535 113.043 132.673 113.133L132.538 114.591C132.514 114.693 132.475 114.765 132.421 114.807C132.373 114.843 132.307 114.861 132.223 114.861C132.133 114.861 132.004 114.846 131.836 114.816C131.668 114.78 131.491 114.762 131.305 114.762C131.035 114.762 130.795 114.801 130.585 114.879C130.381 114.957 130.195 115.071 130.027 115.221C129.865 115.371 129.721 115.554 129.595 115.77C129.469 115.986 129.352 116.232 129.244 116.508V122.214H127.309V113.034H128.434C128.638 113.034 128.779 113.073 128.857 113.151C128.935 113.223 128.989 113.352 129.019 113.538L129.136 114.735ZM137.966 112.89C138.644 112.89 139.256 113.001 139.802 113.223C140.354 113.445 140.822 113.76 141.206 114.168C141.596 114.576 141.896 115.071 142.106 115.653C142.316 116.235 142.421 116.889 142.421 117.615C142.421 118.341 142.316 118.995 142.106 119.577C141.896 120.159 141.596 120.657 141.206 121.071C140.822 121.479 140.354 121.794 139.802 122.016C139.256 122.238 138.644 122.349 137.966 122.349C137.282 122.349 136.664 122.238 136.112 122.016C135.566 121.794 135.098 121.479 134.708 121.071C134.318 120.657 134.018 120.159 133.808 119.577C133.598 118.995 133.493 118.341 133.493 117.615C133.493 116.889 133.598 116.235 133.808 115.653C134.018 115.071 134.318 114.576 134.708 114.168C135.098 113.76 135.566 113.445 136.112 113.223C136.664 113.001 137.282 112.89 137.966 112.89ZM137.966 120.837C138.794 120.837 139.409 120.561 139.811 120.009C140.219 119.451 140.423 118.656 140.423 117.624C140.423 116.592 140.219 115.797 139.811 115.239C139.409 114.675 138.794 114.393 137.966 114.393C137.126 114.393 136.502 114.675 136.094 115.239C135.686 115.797 135.482 116.592 135.482 117.624C135.482 118.656 135.686 119.451 136.094 120.009C136.502 120.561 137.126 120.837 137.966 120.837ZM150.499 115.293C150.229 114.945 149.932 114.702 149.608 114.564C149.284 114.426 148.933 114.357 148.555 114.357C147.799 114.357 147.208 114.636 146.782 115.194C146.356 115.746 146.143 116.565 146.143 117.651C146.143 118.215 146.191 118.698 146.287 119.1C146.383 119.496 146.521 119.82 146.701 120.072C146.881 120.324 147.1 120.507 147.358 120.621C147.616 120.735 147.907 120.792 148.231 120.792C148.723 120.792 149.146 120.687 149.5 120.477C149.86 120.261 150.193 119.958 150.499 119.568V115.293ZM152.434 108.894V122.214H151.264C151.006 122.214 150.841 122.091 150.769 121.845L150.598 120.846C150.214 121.296 149.776 121.659 149.284 121.935C148.798 122.211 148.231 122.349 147.583 122.349C147.067 122.349 146.599 122.247 146.179 122.043C145.759 121.833 145.399 121.53 145.099 121.134C144.799 120.738 144.565 120.249 144.397 119.667C144.235 119.079 144.154 118.407 144.154 117.651C144.154 116.967 144.244 116.334 144.424 115.752C144.61 115.17 144.874 114.666 145.216 114.24C145.558 113.808 145.972 113.472 146.458 113.232C146.95 112.986 147.499 112.863 148.105 112.863C148.645 112.863 149.104 112.95 149.482 113.124C149.86 113.292 150.199 113.529 150.499 113.835V108.894H152.434ZM162.901 113.034V122.214H161.731C161.473 122.214 161.308 122.091 161.236 121.845L161.092 120.99C160.9 121.194 160.696 121.38 160.48 121.548C160.27 121.716 160.045 121.86 159.805 121.98C159.565 122.1 159.307 122.193 159.031 122.259C158.761 122.325 158.47 122.358 158.158 122.358C157.654 122.358 157.21 122.274 156.826 122.106C156.442 121.938 156.118 121.701 155.854 121.395C155.596 121.089 155.401 120.723 155.269 120.297C155.137 119.865 155.071 119.391 155.071 118.875V113.034H157.006V118.875C157.006 119.493 157.147 119.973 157.429 120.315C157.717 120.657 158.152 120.828 158.734 120.828C159.16 120.828 159.556 120.732 159.922 120.54C160.294 120.342 160.642 120.072 160.966 119.73V113.034H162.901ZM172.099 114.834C172.039 114.912 171.982 114.972 171.928 115.014C171.874 115.056 171.796 115.077 171.694 115.077C171.592 115.077 171.484 115.041 171.37 114.969C171.262 114.897 171.13 114.819 170.974 114.735C170.824 114.645 170.641 114.564 170.425 114.492C170.209 114.42 169.939 114.384 169.615 114.384C169.195 114.384 168.826 114.459 168.508 114.609C168.196 114.759 167.932 114.975 167.716 115.257C167.506 115.533 167.347 115.872 167.239 116.274C167.137 116.67 167.086 117.117 167.086 117.615C167.086 118.131 167.143 118.59 167.257 118.992C167.371 119.394 167.533 119.733 167.743 120.009C167.959 120.285 168.217 120.495 168.517 120.639C168.823 120.783 169.165 120.855 169.543 120.855C169.915 120.855 170.218 120.81 170.452 120.72C170.686 120.63 170.881 120.531 171.037 120.423C171.193 120.315 171.325 120.216 171.433 120.126C171.547 120.036 171.667 119.991 171.793 119.991C171.949 119.991 172.069 120.051 172.153 120.171L172.702 120.882C172.48 121.152 172.234 121.38 171.964 121.566C171.694 121.752 171.409 121.905 171.109 122.025C170.809 122.139 170.497 122.22 170.173 122.268C169.849 122.322 169.522 122.349 169.192 122.349C168.622 122.349 168.088 122.244 167.59 122.034C167.098 121.818 166.666 121.509 166.294 121.107C165.928 120.699 165.637 120.204 165.421 119.622C165.211 119.034 165.106 118.365 165.106 117.615C165.106 116.937 165.202 116.31 165.394 115.734C165.586 115.152 165.865 114.651 166.231 114.231C166.603 113.811 167.062 113.484 167.608 113.25C168.154 113.01 168.784 112.89 169.498 112.89C170.164 112.89 170.749 112.998 171.253 113.214C171.763 113.43 172.216 113.736 172.612 114.132L172.099 114.834ZM177.562 122.358C176.8 122.358 176.212 122.145 175.798 121.719C175.39 121.287 175.186 120.681 175.186 119.901V114.555H174.178C174.07 114.555 173.977 114.522 173.899 114.456C173.821 114.384 173.782 114.279 173.782 114.141V113.358L175.267 113.142L175.69 110.487C175.72 110.385 175.771 110.304 175.843 110.244C175.915 110.178 176.011 110.145 176.131 110.145H177.121V113.16H179.668V114.555H177.121V119.766C177.121 120.096 177.202 120.348 177.364 120.522C177.526 120.696 177.742 120.783 178.012 120.783C178.162 120.783 178.291 120.765 178.399 120.729C178.507 120.687 178.6 120.645 178.678 120.603C178.756 120.555 178.822 120.513 178.876 120.477C178.936 120.435 178.993 120.414 179.047 120.414C179.155 120.414 179.242 120.474 179.308 120.594L179.884 121.539C179.584 121.803 179.23 122.007 178.822 122.151C178.414 122.289 177.994 122.358 177.562 122.358ZM93.6714 141.699C93.6234 141.783 93.5694 141.843 93.5094 141.879C93.4494 141.915 93.3744 141.933 93.2844 141.933C93.1824 141.933 93.0714 141.903 92.9514 141.843C92.8314 141.777 92.6904 141.705 92.5284 141.627C92.3664 141.549 92.1744 141.48 91.9524 141.42C91.7364 141.354 91.4814 141.321 91.1874 141.321C90.9474 141.321 90.7284 141.351 90.5304 141.411C90.3384 141.465 90.1734 141.546 90.0354 141.654C89.9034 141.756 89.8014 141.879 89.7294 142.023C89.6574 142.161 89.6214 142.311 89.6214 142.473C89.6214 142.689 89.6874 142.869 89.8194 143.013C89.9514 143.157 90.1254 143.283 90.3414 143.391C90.5574 143.493 90.8034 143.586 91.0794 143.67C91.3554 143.754 91.6374 143.844 91.9254 143.94C92.2134 144.036 92.4954 144.147 92.7714 144.273C93.0474 144.399 93.2934 144.555 93.5094 144.741C93.7254 144.921 93.8994 145.143 94.0314 145.407C94.1634 145.665 94.2294 145.98 94.2294 146.352C94.2294 146.784 94.1514 147.183 93.9954 147.549C93.8394 147.915 93.6114 148.233 93.3114 148.503C93.0114 148.773 92.6364 148.983 92.1864 149.133C91.7424 149.283 91.2324 149.358 90.6564 149.358C90.3384 149.358 90.0294 149.328 89.7294 149.268C89.4354 149.214 89.1534 149.139 88.8834 149.043C88.6194 148.941 88.3704 148.821 88.1364 148.683C87.9084 148.545 87.7044 148.395 87.5244 148.233L87.9744 147.495C88.0284 147.405 88.0944 147.336 88.1724 147.288C88.2564 147.234 88.3584 147.207 88.4784 147.207C88.6044 147.207 88.7274 147.249 88.8474 147.333C88.9734 147.411 89.1174 147.498 89.2794 147.594C89.4474 147.69 89.6484 147.78 89.8824 147.864C90.1164 147.942 90.4074 147.981 90.7554 147.981C91.0434 147.981 91.2924 147.948 91.5024 147.882C91.7124 147.81 91.8864 147.714 92.0244 147.594C92.1624 147.474 92.2644 147.339 92.3304 147.189C92.3964 147.033 92.4294 146.868 92.4294 146.694C92.4294 146.46 92.3634 146.268 92.2314 146.118C92.0994 145.968 91.9224 145.839 91.7004 145.731C91.4844 145.623 91.2354 145.527 90.9534 145.443C90.6774 145.359 90.3954 145.269 90.1074 145.173C89.8194 145.077 89.5344 144.966 89.2524 144.84C88.9764 144.714 88.7274 144.555 88.5054 144.363C88.2894 144.165 88.1154 143.928 87.9834 143.652C87.8514 143.37 87.7854 143.028 87.7854 142.626C87.7854 142.26 87.8574 141.912 88.0014 141.582C88.1514 141.252 88.3674 140.961 88.6494 140.709C88.9374 140.457 89.2884 140.259 89.7024 140.115C90.1224 139.965 90.6054 139.89 91.1514 139.89C91.7694 139.89 92.3304 139.989 92.8344 140.187C93.3384 140.385 93.7614 140.655 94.1034 140.997L93.6714 141.699ZM99.3509 149.358C98.5889 149.358 98.0009 149.145 97.5869 148.719C97.1789 148.287 96.9749 147.681 96.9749 146.901V141.555H95.9669C95.8589 141.555 95.7659 141.522 95.6879 141.456C95.6099 141.384 95.5709 141.279 95.5709 141.141V140.358L97.0559 140.142L97.4789 137.487C97.5089 137.385 97.5599 137.304 97.6319 137.244C97.7039 137.178 97.7999 137.145 97.9199 137.145H98.9099V140.16H101.457V141.555H98.9099V146.766C98.9099 147.096 98.9909 147.348 99.1529 147.522C99.3149 147.696 99.5309 147.783 99.8009 147.783C99.9509 147.783 100.08 147.765 100.188 147.729C100.296 147.687 100.389 147.645 100.467 147.603C100.545 147.555 100.611 147.513 100.665 147.477C100.725 147.435 100.782 147.414 100.836 147.414C100.944 147.414 101.031 147.474 101.097 147.594L101.673 148.539C101.373 148.803 101.019 149.007 100.611 149.151C100.203 149.289 99.7829 149.358 99.3509 149.358ZM108.247 145.2C107.557 145.224 106.975 145.281 106.501 145.371C106.027 145.455 105.643 145.566 105.349 145.704C105.055 145.836 104.842 145.995 104.71 146.181C104.584 146.367 104.521 146.571 104.521 146.793C104.521 147.009 104.554 147.195 104.62 147.351C104.692 147.501 104.788 147.627 104.908 147.729C105.034 147.825 105.178 147.897 105.34 147.945C105.508 147.987 105.691 148.008 105.889 148.008C106.393 148.008 106.825 147.915 107.185 147.729C107.551 147.537 107.905 147.261 108.247 146.901V145.2ZM103.117 141.312C104.155 140.346 105.391 139.863 106.825 139.863C107.353 139.863 107.821 139.95 108.229 140.124C108.643 140.292 108.988 140.532 109.264 140.844C109.546 141.156 109.759 141.528 109.903 141.96C110.053 142.386 110.128 142.86 110.128 143.382V149.214H109.264C109.078 149.214 108.937 149.187 108.841 149.133C108.745 149.073 108.664 148.956 108.598 148.782L108.409 148.035C108.175 148.245 107.944 148.434 107.716 148.602C107.488 148.764 107.251 148.902 107.005 149.016C106.765 149.13 106.504 149.214 106.222 149.268C105.946 149.328 105.64 149.358 105.304 149.358C104.932 149.358 104.584 149.307 104.26 149.205C103.942 149.103 103.666 148.95 103.432 148.746C103.198 148.536 103.012 148.278 102.874 147.972C102.742 147.666 102.676 147.306 102.676 146.892C102.676 146.538 102.769 146.193 102.955 145.857C103.147 145.521 103.459 145.221 103.891 144.957C104.329 144.687 104.902 144.465 105.61 144.291C106.324 144.117 107.203 144.018 108.247 143.994V143.382C108.247 142.722 108.106 142.23 107.824 141.906C107.542 141.582 107.128 141.42 106.582 141.42C106.21 141.42 105.898 141.468 105.646 141.564C105.394 141.654 105.175 141.753 104.989 141.861C104.803 141.969 104.638 142.071 104.494 142.167C104.35 142.257 104.197 142.302 104.035 142.302C103.903 142.302 103.789 142.269 103.693 142.203C103.603 142.131 103.528 142.044 103.468 141.942L103.117 141.312ZM119.244 141.834C119.184 141.912 119.127 141.972 119.073 142.014C119.019 142.056 118.941 142.077 118.839 142.077C118.737 142.077 118.629 142.041 118.515 141.969C118.407 141.897 118.275 141.819 118.119 141.735C117.969 141.645 117.786 141.564 117.57 141.492C117.354 141.42 117.084 141.384 116.76 141.384C116.34 141.384 115.971 141.459 115.653 141.609C115.341 141.759 115.077 141.975 114.861 142.257C114.651 142.533 114.492 142.872 114.384 143.274C114.282 143.67 114.231 144.117 114.231 144.615C114.231 145.131 114.288 145.59 114.402 145.992C114.516 146.394 114.678 146.733 114.888 147.009C115.104 147.285 115.362 147.495 115.662 147.639C115.968 147.783 116.31 147.855 116.688 147.855C117.06 147.855 117.363 147.81 117.597 147.72C117.831 147.63 118.026 147.531 118.182 147.423C118.338 147.315 118.47 147.216 118.578 147.126C118.692 147.036 118.812 146.991 118.938 146.991C119.094 146.991 119.214 147.051 119.298 147.171L119.847 147.882C119.625 148.152 119.379 148.38 119.109 148.566C118.839 148.752 118.554 148.905 118.254 149.025C117.954 149.139 117.642 149.22 117.318 149.268C116.994 149.322 116.667 149.349 116.337 149.349C115.767 149.349 115.233 149.244 114.735 149.034C114.243 148.818 113.811 148.509 113.439 148.107C113.073 147.699 112.782 147.204 112.566 146.622C112.356 146.034 112.251 145.365 112.251 144.615C112.251 143.937 112.347 143.31 112.539 142.734C112.731 142.152 113.01 141.651 113.376 141.231C113.748 140.811 114.207 140.484 114.753 140.25C115.299 140.01 115.929 139.89 116.643 139.89C117.309 139.89 117.894 139.998 118.398 140.214C118.908 140.43 119.361 140.736 119.757 141.132L119.244 141.834ZM123.698 135.894V143.616H124.112C124.244 143.616 124.352 143.598 124.436 143.562C124.52 143.526 124.607 143.451 124.697 143.337L127.271 140.394C127.361 140.274 127.46 140.184 127.568 140.124C127.676 140.064 127.814 140.034 127.982 140.034H129.737L126.641 143.526C126.461 143.76 126.263 143.946 126.047 144.084C126.167 144.168 126.272 144.264 126.362 144.372C126.452 144.474 126.539 144.591 126.623 144.723L129.926 149.214H128.198C128.042 149.214 127.907 149.19 127.793 149.142C127.685 149.088 127.589 148.992 127.505 148.854L124.85 145.254C124.76 145.116 124.67 145.029 124.58 144.993C124.49 144.951 124.355 144.93 124.175 144.93H123.698V149.214H121.763V135.894H123.698Z" fill="#F1F1F1"/>
<path d="M213 36.452V18.8329V1.21387L103 1.21387L4 1.21387L4 36.2139" stroke="#C4C4C4"/>
<circle r="4" transform="matrix(0 1 1 0 4 36.2139)" fill="#C4C4C4"/>
<circle r="4" transform="matrix(0 1 1 0 213 36.2139)" fill="#C4C4C4"/>
<line x1="109.5" y1="1.21387" x2="109.5" y2="94.2139" stroke="#C4C4C4"/>
<circle r="6" transform="matrix(0 1 1 0 109 96.2139)" fill="#B0D472"/>
</svg>
