<svg width="87" height="86" viewBox="0 0 87 86" fill="none" xmlns="http://www.w3.org/2000/svg">
<g opacity="0.2">
<path d="M78.2235 0H8.74816C6.42884 0.00267691 4.20529 0.925199 2.56527 2.56519C0.925259 4.20519 0.00270768 6.42873 0 8.74804V76.6596C0.00268209 78.9789 0.925222 81.2025 2.56524 82.8425C4.20526 84.4825 6.42883 85.405 8.74816 85.4077H78.2235C80.5426 85.405 82.7659 84.4823 84.4056 82.8423C86.0453 81.2022 86.9675 78.9787 86.9697 76.6596V8.74804C86.9674 6.42893 86.0453 4.20542 84.4056 2.56539C82.7659 0.925362 80.5426 0.00275446 78.2235 0ZM8.74816 3.86792H78.2235C79.5171 3.86966 80.7572 4.38445 81.6717 5.29934C82.5863 6.21424 83.1006 7.45453 83.1018 8.74814V47.633L65.1579 30.2568C64.7984 29.9086 64.3179 29.7133 63.8173 29.7121C63.3168 29.7109 62.8353 29.9038 62.4741 30.2502L37.0187 54.6597L28.5656 45.9372C28.2221 45.5845 27.7573 45.3758 27.2656 45.3533C26.7738 45.3309 26.2919 45.4964 25.9177 45.8163L3.86792 64.7449V8.74804C3.8693 7.45416 4.38391 6.21366 5.29884 5.29876C6.21377 4.38385 7.45427 3.86927 8.74816 3.86792ZM3.86792 76.6596V69.8427L27.0566 49.9373L35.5684 58.7206L35.5724 58.727L35.5787 58.7313L57.6821 81.5398H8.74816C7.45426 81.5384 6.21374 81.0238 5.29881 80.1089C4.38388 79.194 3.86927 77.9535 3.86792 76.6596ZM78.2235 81.5398H63.0683L39.7108 57.4376L63.8075 34.3315L83.1018 53.0173V76.6596C83.1006 77.9532 82.5863 79.1935 81.6717 80.1084C80.7572 81.0233 79.5171 81.538 78.2235 81.5398Z" fill="#808080"/>
<path d="M21.1449 29.5594C22.9413 29.5594 24.6973 29.0267 26.1909 28.0288C27.6845 27.0308 28.8486 25.6123 29.536 23.9527C30.2235 22.2931 30.4033 20.4669 30.0529 18.7051C29.7024 16.9433 28.8374 15.3249 27.5672 14.0547C26.297 12.7845 24.6787 11.9195 22.9168 11.5691C21.155 11.2186 19.3288 11.3985 17.6692 12.0859C16.0096 12.7733 14.5912 13.9374 13.5932 15.431C12.5952 16.9246 12.0625 18.6806 12.0625 20.477C12.0652 22.885 13.0229 25.1936 14.7256 26.8963C16.4284 28.599 18.737 29.5567 21.1449 29.5594ZM21.1449 15.2625C22.1763 15.2625 23.1845 15.5683 24.042 16.1413C24.8995 16.7142 25.5679 17.5286 25.9625 18.4815C26.3572 19.4343 26.4605 20.4828 26.2593 21.4943C26.0581 22.5058 25.5614 23.4349 24.8322 24.1642C24.1029 24.8935 23.1738 25.3901 22.1622 25.5913C21.1507 25.7925 20.1023 25.6892 19.1494 25.2946C18.1966 24.8999 17.3822 24.2315 16.8092 23.374C16.2362 22.5165 15.9304 21.5083 15.9304 20.477C15.9321 19.0945 16.482 17.7691 17.4596 16.7916C18.4371 15.814 19.7625 15.2641 21.1449 15.2625Z" fill="#808080"/>
</g>
</svg>
