<svg width="668" height="638" viewBox="0 0 668 638" fill="none" xmlns="http://www.w3.org/2000/svg">
<path d="M381.1 321.201H282.717V387.579H381.1V321.201Z" fill="#D0E6BB"/>
<path opacity="0.55" d="M382.202 320.135H280.572V337.005H382.202V320.135Z" fill="#D0E6BB"/>
<path d="M399.47 392.234H264.354V399.116H399.47V392.234Z" fill="white"/>
<path d="M394.73 385.352H269.094V392.234H394.73V385.352Z" fill="white"/>
<path d="M394.728 390.394H269.092V392.236H394.728V390.394Z" fill="#252525"/>
<path d="M399.47 397.275H264.354V399.117H399.47V397.275Z" fill="#252525"/>
<path d="M404 399.118H260V406H404V399.118Z" fill="white"/>
<path d="M260.5 405.5V404.659H403.5V405.5H260.5Z" fill="#F5FBF3" stroke="black"/>
<path d="M278.916 382.004V326.623H289.289V382.004H278.916Z" fill="white" stroke="black" stroke-width="0.5"/>
<path d="M306.34 382.004V326.623H316.712V382.004H306.34Z" fill="white" stroke="black" stroke-width="0.5"/>
<path d="M374.541 382.004V326.623H384.914V382.004H374.541Z" fill="white" stroke="black" stroke-width="0.5"/>
<path d="M275.387 321.201H292.808V327.541C292.808 327.754 292.724 327.957 292.576 328.108C292.428 328.258 292.228 328.342 292.018 328.342H276.176C275.967 328.342 275.766 328.258 275.618 328.108C275.47 327.957 275.387 327.754 275.387 327.541V321.201Z" fill="#AAC986"/>
<path d="M302.811 321.201H320.231V327.541C320.231 327.753 320.148 327.957 320 328.107C319.852 328.258 319.651 328.342 319.442 328.342H303.6C303.391 328.342 303.19 328.258 303.042 328.107C302.894 327.957 302.811 327.753 302.811 327.541V321.201Z" fill="#AAC986"/>
<path d="M371.016 321.201H388.437V327.541C388.437 327.753 388.354 327.957 388.206 328.107C388.058 328.258 387.857 328.342 387.648 328.342H371.805C371.596 328.342 371.395 328.258 371.247 328.107C371.099 327.957 371.016 327.753 371.016 327.541V321.201H371.016Z" fill="#AAC986"/>
<path d="M276.176 380.341H292.018C292.227 380.341 292.428 380.426 292.576 380.576C292.724 380.726 292.807 380.93 292.807 381.142V385.351H275.387V381.142C275.387 380.93 275.47 380.726 275.618 380.576C275.766 380.426 275.967 380.341 276.176 380.341Z" fill="#AAC986"/>
<path d="M303.6 380.341H319.442C319.651 380.341 319.852 380.426 320 380.576C320.148 380.726 320.231 380.93 320.231 381.142V385.351H302.811V381.142C302.811 380.93 302.894 380.726 303.042 380.576C303.19 380.426 303.391 380.341 303.6 380.341Z" fill="#AAC986"/>
<path d="M371.806 380.341H387.648C387.857 380.341 388.058 380.426 388.206 380.576C388.354 380.726 388.437 380.93 388.437 381.142V385.351H371.018V381.142C371.018 380.93 371.101 380.726 371.248 380.576C371.396 380.426 371.597 380.341 371.806 380.341Z" fill="#AAC986"/>
<path d="M282.716 331.407C282.716 331.101 282.471 330.852 282.169 330.852C281.866 330.852 281.621 331.101 281.621 331.407V377.219C281.621 377.526 281.866 377.775 282.169 377.775C282.471 377.775 282.716 377.526 282.716 377.219V331.407Z" fill="#AAC986"/>
<path d="M286.575 331.407C286.575 331.101 286.33 330.852 286.028 330.852C285.726 330.852 285.48 331.101 285.48 331.407V377.219C285.48 377.526 285.726 377.775 286.028 377.775C286.33 377.775 286.575 377.526 286.575 377.219V331.407Z" fill="#AAC986"/>
<path d="M310.142 331.407C310.142 331.101 309.897 330.852 309.594 330.852C309.292 330.852 309.047 331.101 309.047 331.407V377.219C309.047 377.526 309.292 377.775 309.594 377.775C309.897 377.775 310.142 377.526 310.142 377.219V331.407Z" fill="#AAC986"/>
<path d="M314.005 331.407C314.005 331.101 313.76 330.852 313.458 330.852C313.155 330.852 312.91 331.101 312.91 331.407V377.219C312.91 377.526 313.155 377.775 313.458 377.775C313.76 377.775 314.005 377.526 314.005 377.219V331.407Z" fill="#AAC986"/>
<path d="M347.961 382.004V326.623H358.333V382.004H347.961Z" fill="white" stroke="black" stroke-width="0.5"/>
<path d="M341.75 354.245H324.35V384.523H341.75V354.245Z" fill="#73A92C"/>
<path d="M344.443 321.201H361.864V327.541C361.864 327.753 361.781 327.957 361.633 328.107C361.485 328.258 361.284 328.342 361.075 328.342H345.233C345.023 328.342 344.823 328.258 344.675 328.107C344.527 327.957 344.443 327.753 344.443 327.541V321.201Z" fill="#AAC986"/>
<path d="M345.233 380.341H361.076C361.285 380.341 361.486 380.426 361.634 380.576C361.782 380.726 361.865 380.93 361.865 381.142V385.351H344.443V381.142C344.443 380.93 344.527 380.726 344.675 380.576C344.823 380.426 345.023 380.341 345.233 380.341Z" fill="#AAC986"/>
<path d="M351.775 331.407C351.775 331.101 351.53 330.852 351.227 330.852C350.925 330.852 350.68 331.101 350.68 331.407V377.219C350.68 377.526 350.925 377.775 351.227 377.775C351.53 377.775 351.775 377.526 351.775 377.219V331.407Z" fill="#AAC986"/>
<path d="M355.622 331.407C355.622 331.101 355.377 330.852 355.075 330.852C354.772 330.852 354.527 331.101 354.527 331.407V377.219C354.527 377.526 354.772 377.775 355.075 377.775C355.377 377.775 355.622 377.526 355.622 377.219V331.407Z" fill="#AAC986"/>
<path d="M378.353 331.407C378.353 331.101 378.108 330.852 377.805 330.852C377.503 330.852 377.258 331.101 377.258 331.407V377.219C377.258 377.526 377.503 377.775 377.805 377.775C378.108 377.775 378.353 377.526 378.353 377.219V331.407Z" fill="#AAC986"/>
<path d="M382.204 331.407C382.204 331.101 381.959 330.852 381.657 330.852C381.355 330.852 381.109 331.101 381.109 331.407V377.219C381.109 377.526 381.355 377.775 381.657 377.775C381.959 377.775 382.204 377.526 382.204 377.219V331.407Z" fill="#AAC986"/>
<path d="M271.172 318.326L271.172 318.326C271.083 318.388 271.01 318.471 270.959 318.569C270.908 318.667 270.881 318.776 270.881 318.888V322.778C270.881 322.866 270.916 322.95 270.975 323.01C271.034 323.07 271.113 323.102 271.193 323.102H392.38L271.172 318.326ZM271.172 318.326L331.543 276.615C331.653 276.54 331.781 276.5 331.912 276.5C332.042 276.5 332.17 276.54 332.28 276.615L392.4 318.152L392.4 318.152M271.172 318.326L392.4 318.152M392.4 318.152C392.489 318.213 392.563 318.296 392.614 318.394C392.665 318.492 392.692 318.602 392.692 318.714V322.778M392.4 318.152L392.692 322.778M392.692 322.778C392.692 322.866 392.658 322.95 392.598 323.01M392.692 322.778L392.598 323.01M392.598 323.01C392.539 323.07 392.461 323.102 392.38 323.102L392.598 323.01Z" fill="#F5FBF3" stroke="black"/>
<path d="M287.436 315.606L289.046 314.493L289.189 314.699L290.799 313.586L290.657 313.38L292.268 312.267L292.41 312.473L294.02 311.36L293.878 311.154L295.489 310.042L295.631 310.247L297.242 309.134L297.1 308.929L298.71 307.816L298.852 308.022L300.463 306.909L300.321 306.703L301.932 305.59L302.074 305.796L303.684 304.683L303.542 304.477L305.153 303.365L305.295 303.57L306.906 302.457L306.763 302.252L308.374 301.139L308.516 301.345L310.127 300.232L309.985 300.026L311.595 298.913L311.737 299.119L313.348 298.006L313.206 297.8L314.817 296.688L314.959 296.893L316.569 295.781L316.427 295.575L318.038 294.462L318.18 294.668L319.791 293.555L319.649 293.349L321.259 292.236L321.401 292.442L323.012 291.329L322.87 291.124L324.48 290.011L324.623 290.216L326.233 289.104L326.091 288.898L327.702 287.785L327.844 287.991L329.454 286.878L329.312 286.672L330.923 285.559L331.065 285.765L331.87 285.209C331.87 285.209 331.87 285.209 331.87 285.209C331.873 285.207 331.876 285.205 331.878 285.204L331.769 284.979C331.797 284.966 331.827 284.956 331.857 284.952L331.895 285.199C331.898 285.198 331.901 285.198 331.904 285.198C331.907 285.198 331.91 285.198 331.913 285.199L331.95 284.952C331.981 284.956 332.011 284.966 332.039 284.979L331.93 285.204C331.932 285.205 331.935 285.207 331.938 285.209L332.743 285.765L332.885 285.559L334.496 286.672L334.353 286.878L335.964 287.991L336.106 287.785L337.717 288.898L337.575 289.104L339.186 290.216L339.328 290.011L340.938 291.123L340.796 291.329L342.407 292.442L342.549 292.236L344.16 293.349L344.018 293.555L345.628 294.668L345.77 294.462L347.381 295.575L347.239 295.781L348.85 296.893L348.992 296.688L350.603 297.8L350.46 298.006L352.071 299.119L352.213 298.913L353.824 300.026L353.682 300.232L355.293 301.345L355.435 301.139L357.045 302.252L356.903 302.457L358.514 303.57L358.656 303.365L360.267 304.477L360.125 304.683L361.735 305.796L361.877 305.59L363.488 306.703L363.346 306.909L364.957 308.022L365.099 307.816L366.71 308.929L366.567 309.134L368.178 310.247L368.32 310.042L369.931 311.154L369.789 311.36L371.4 312.473L371.542 312.267L373.152 313.38L373.01 313.586L374.621 314.699L374.763 314.493L376.374 315.606L376.232 315.811L377.037 316.368L287.436 315.606ZM287.436 315.606L287.578 315.811L286.773 316.368L287.436 315.606ZM377.218 316.194L377.045 316.374C377.042 316.372 377.04 316.37 377.037 316.368L377.218 316.194ZM377.218 316.194C377.242 316.217 377.262 316.244 377.278 316.273L377.057 316.391L377.218 316.194ZM286.797 316.49C286.8 316.491 286.803 316.491 286.806 316.491H287.787V316.741H289.747V316.491H291.708V316.741H293.669V316.491H295.63V316.741H297.591V316.491H299.551V316.741H301.512V316.491H303.473V316.741H305.434V316.491H307.395V316.741H309.355V316.491H311.316V316.741H313.277V316.491H315.238V316.741H317.199V316.491H319.16V316.741H321.12V316.491H323.081V316.741H325.042V316.491H327.003V316.741H328.964V316.491H330.924V316.741H332.885V316.491H334.846V316.741H336.807V316.491H338.768V316.741H340.728V316.491H342.689V316.741H344.65V316.491H346.611V316.741H348.572V316.491H350.533V316.741H352.493V316.491H354.454V316.741H356.415V316.491H358.376V316.741H360.337V316.491H362.297V316.741H364.258V316.491H366.219V316.741H368.18V316.491H370.141V316.741H372.101V316.491H374.062V316.741H376.023V316.491H377.003C377.006 316.491 377.01 316.491 377.013 316.49L377.053 316.737C377.086 316.732 377.117 316.721 377.147 316.706L377.031 316.484C377.033 316.483 377.036 316.481 377.039 316.479L377.189 316.679L377.039 316.479C377.042 316.477 377.044 316.475 377.046 316.472L377.226 316.646C377.25 316.622 377.269 316.594 377.283 316.564L377.058 316.455C377.06 316.452 377.061 316.448 377.062 316.445C377.064 316.441 377.064 316.438 377.065 316.434L377.312 316.468C377.317 316.435 377.316 316.401 377.311 316.368L377.064 316.412C377.064 316.408 377.063 316.404 377.062 316.401C377.061 316.398 377.06 316.396 377.059 316.394L286.797 316.49ZM286.797 316.49L286.757 316.737M286.797 316.49L286.757 316.737M286.757 316.737C286.724 316.732 286.692 316.721 286.663 316.706L286.779 316.484C286.776 316.483 286.774 316.481 286.771 316.479L286.621 316.679L286.771 316.479C286.768 316.477 286.766 316.475 286.763 316.472L286.583 316.646C286.56 316.622 286.541 316.594 286.526 316.564L286.751 316.455C286.75 316.452 286.748 316.448 286.747 316.445C286.746 316.441 286.745 316.438 286.745 316.434L286.497 316.468C286.493 316.435 286.493 316.401 286.499 316.368L286.745 316.412C286.746 316.408 286.747 316.404 286.748 316.401C286.749 316.397 286.751 316.394 286.752 316.391L286.532 316.273C286.547 316.244 286.568 316.217 286.592 316.194L286.765 316.374C286.767 316.372 286.77 316.37 286.773 316.368L286.757 316.737Z" fill="#D0E6BB" stroke="black" stroke-width="0.5" stroke-dasharray="2 2"/>
<path d="M332.765 92.4303C333.004 92.5685 333.31 92.4867 333.448 92.2476L333.508 92.1424L333.569 92.2476C333.707 92.4867 334.013 92.5685 334.252 92.4304L337.702 98.4002C337.462 98.5384 337.381 98.8442 337.519 99.0833L340.481 104.21C340.619 104.449 340.925 104.531 341.164 104.393L342.639 106.945C342.399 107.083 342.318 107.389 342.456 107.628L343.443 109.337C343.581 109.576 343.887 109.658 344.126 109.52L347.576 115.489C347.336 115.628 347.255 115.933 347.393 116.173L350.355 121.299C350.493 121.538 350.799 121.62 351.038 121.482L352.513 124.034C352.273 124.172 352.192 124.478 352.33 124.717L353.317 126.426C353.455 126.665 353.761 126.747 354 126.609L357.45 132.579C357.21 132.717 357.129 133.023 357.267 133.262L360.229 138.389C360.367 138.628 360.673 138.71 360.912 138.571L362.386 141.123C362.147 141.262 362.066 141.567 362.204 141.806L363.191 143.515C363.329 143.755 363.635 143.836 363.874 143.698L367.323 149.668C367.084 149.806 367.003 150.112 367.141 150.351L370.103 155.478C370.241 155.717 370.547 155.799 370.786 155.661L372.26 158.213C372.021 158.351 371.94 158.657 372.078 158.896L373.065 160.605C373.203 160.844 373.509 160.926 373.748 160.787L377.197 166.757C376.958 166.895 376.876 167.201 377.015 167.44L379.977 172.567C380.115 172.806 380.421 172.888 380.66 172.75L382.134 175.302C381.895 175.44 381.813 175.746 381.952 175.985L382.939 177.694C383.077 177.933 383.383 178.015 383.622 177.877L387.071 183.847C386.832 183.985 386.75 184.291 386.889 184.53L389.851 189.656C389.989 189.896 390.295 189.977 390.534 189.839L392.008 192.391C391.769 192.529 391.687 192.835 391.826 193.074L392.813 194.783C392.951 195.022 393.257 195.104 393.496 194.966L396.945 200.936C396.706 201.074 396.624 201.38 396.763 201.619L399.725 206.746C399.863 206.985 400.169 207.067 400.408 206.928L401.882 209.48C401.643 209.619 401.561 209.924 401.7 210.164L402.687 211.872C402.825 212.112 403.131 212.193 403.37 212.055L406.819 218.025C406.58 218.163 406.498 218.469 406.637 218.708L409.599 223.835C409.737 224.074 410.043 224.156 410.282 224.018L411.756 226.57C411.517 226.708 411.435 227.014 411.574 227.253L412.561 228.962C412.699 229.201 413.005 229.283 413.244 229.145L416.693 235.114C416.454 235.253 416.372 235.558 416.51 235.797L419.473 240.924C419.611 241.163 419.917 241.245 420.156 241.107L421.63 243.659C421.391 243.797 421.309 244.103 421.447 244.342L422.435 246.051C422.573 246.29 422.879 246.372 423.118 246.234L426.567 252.204C426.328 252.342 426.246 252.648 426.384 252.887L429.347 258.014C429.485 258.253 429.791 258.334 430.03 258.196L431.504 260.748C431.265 260.886 431.183 261.192 431.321 261.431L432.309 263.14C432.447 263.379 432.753 263.461 432.992 263.323L436.441 269.293C436.202 269.431 436.12 269.737 436.258 269.976L439.221 275.103C439.359 275.342 439.665 275.424 439.904 275.286L441.378 277.838C441.139 277.976 441.057 278.282 441.195 278.521L442.183 280.23C442.321 280.469 442.627 280.551 442.866 280.412L446.315 286.382C446.076 286.52 445.994 286.826 446.132 287.065L449.095 292.192C449.233 292.431 449.539 292.513 449.778 292.375L451.252 294.927C451.013 295.065 450.931 295.371 451.069 295.61L452.057 297.319C452.195 297.558 452.501 297.64 452.74 297.502L456.189 303.472C455.95 303.61 455.868 303.915 456.006 304.155L458.969 309.281C459.107 309.52 459.413 309.602 459.652 309.464L461.126 312.016C460.887 312.154 460.805 312.46 460.943 312.699L461.931 314.408C462.069 314.647 462.375 314.729 462.614 314.591L466.063 320.561C465.824 320.699 465.742 321.005 465.88 321.244L468.843 326.371C468.981 326.61 469.286 326.692 469.526 326.553L471 329.105C470.761 329.244 470.679 329.549 470.817 329.789L471.805 331.497C471.943 331.737 472.249 331.818 472.488 331.68L475.937 337.65C475.698 337.788 475.616 338.094 475.754 338.333L478.716 343.46C478.855 343.699 479.16 343.781 479.4 343.643L480.874 346.195C480.635 346.333 480.553 346.639 480.691 346.878L481.679 348.587C481.817 348.826 482.123 348.908 482.362 348.77L485.811 354.739C485.572 354.878 485.49 355.183 485.628 355.422L488.59 360.549C488.729 360.788 489.034 360.87 489.274 360.732L490.748 363.284C490.509 363.422 490.427 363.728 490.565 363.967L491.553 365.676C491.691 365.915 491.997 365.997 492.236 365.859L495.685 371.829C495.446 371.967 495.364 372.273 495.502 372.512L498.464 377.639C498.603 377.878 498.908 377.959 499.147 377.821L500.622 380.373C500.383 380.511 500.301 380.817 500.439 381.056L501.427 382.765C501.565 383.004 501.871 383.086 502.11 382.948L505.559 388.918C505.32 389.056 505.238 389.362 505.376 389.601L508.338 394.728C508.477 394.967 508.782 395.049 509.021 394.911L510.496 397.463C510.257 397.601 510.175 397.907 510.313 398.146L511.301 399.855C511.439 400.094 511.745 400.176 511.984 400.037L515.433 406.007C515.194 406.145 515.112 406.451 515.25 406.69L518.212 411.817C518.35 412.056 518.656 412.138 518.895 412L520.37 414.552C520.131 414.69 520.049 414.996 520.187 415.235L521.175 416.944C521.313 417.183 521.619 417.265 521.858 417.127L525.307 423.096C525.068 423.235 524.986 423.54 525.124 423.78L528.086 428.906C528.224 429.145 528.53 429.227 528.769 429.089L530.244 431.641C530.005 431.779 529.923 432.085 530.061 432.324L531.049 434.033C531.187 434.272 531.492 434.354 531.732 434.216L535.181 440.186C534.942 440.324 534.86 440.63 534.998 440.869L537.96 445.996C538.098 446.235 538.404 446.317 538.643 446.178L540.118 448.73C539.879 448.869 539.797 449.174 539.935 449.413L540.922 451.122C541.061 451.362 541.366 451.443 541.606 451.305L545.055 457.275C544.816 457.413 544.734 457.719 544.872 457.958L547.834 463.085C547.972 463.324 548.278 463.406 548.517 463.268L549.992 465.82C549.753 465.958 549.671 466.264 549.809 466.503L550.796 468.212C550.935 468.451 551.24 468.533 551.48 468.394L554.929 474.364C554.69 474.502 554.608 474.808 554.746 475.047L557.708 480.174C557.846 480.413 558.152 480.495 558.391 480.357L559.866 482.909C559.627 483.047 559.545 483.353 559.683 483.592L560.67 485.301C560.809 485.54 561.114 485.622 561.353 485.484L564.803 491.454C564.564 491.592 564.482 491.898 564.62 492.137L567.582 497.263C567.72 497.503 568.026 497.584 568.265 497.446L569.74 499.998C569.501 500.136 569.419 500.442 569.557 500.681L569.617 500.786H569.496C569.22 500.786 568.996 501.009 568.996 501.286H562.097C562.097 501.009 561.873 500.786 561.597 500.786H555.673C555.396 500.786 555.173 501.009 555.173 501.286H552.223C552.223 501.009 551.999 500.786 551.723 500.786H549.748C549.472 500.786 549.248 501.009 549.248 501.286H542.349C542.349 501.009 542.125 500.786 541.849 500.786H535.925C535.648 500.786 535.425 501.009 535.425 501.286H532.475C532.475 501.009 532.251 500.786 531.975 500.786H530C529.724 500.786 529.5 501.009 529.5 501.286H522.601C522.601 501.009 522.377 500.786 522.101 500.786H516.177C515.901 500.786 515.677 501.009 515.677 501.286H512.727C512.727 501.009 512.503 500.786 512.227 500.786H510.252C509.976 500.786 509.752 501.009 509.752 501.286H502.853C502.853 501.009 502.629 500.786 502.353 500.786H496.429C496.153 500.786 495.929 501.009 495.929 501.286H492.979C492.979 501.009 492.755 500.786 492.479 500.786H490.504C490.228 500.786 490.004 501.009 490.004 501.286H483.105C483.105 501.009 482.881 500.786 482.605 500.786H476.681C476.405 500.786 476.181 501.009 476.181 501.286H473.231C473.231 501.009 473.007 500.786 472.731 500.786H470.756C470.48 500.786 470.256 501.009 470.256 501.286H463.357C463.357 501.009 463.133 500.786 462.857 500.786H456.933C456.657 500.786 456.433 501.009 456.433 501.286H453.483C453.483 501.009 453.259 500.786 452.983 500.786H451.009C450.732 500.786 450.509 501.009 450.509 501.286H443.609C443.609 501.009 443.385 500.786 443.109 500.786H437.185C436.909 500.786 436.685 501.009 436.685 501.286H433.735C433.735 501.009 433.512 500.786 433.235 500.786H431.261C430.984 500.786 430.761 501.009 430.761 501.286H423.861C423.861 501.009 423.638 500.786 423.361 500.786H417.437C417.161 500.786 416.937 501.009 416.937 501.286H413.987C413.987 501.009 413.764 500.786 413.487 500.786H411.513C411.237 500.786 411.013 501.009 411.013 501.286H404.113C404.113 501.009 403.89 500.786 403.613 500.786H397.689C397.413 500.786 397.189 501.009 397.189 501.286H394.24C394.24 501.009 394.016 500.786 393.74 500.786H391.765C391.489 500.786 391.265 501.009 391.265 501.286H384.366C384.366 501.009 384.142 500.786 383.866 500.786H377.941C377.665 500.786 377.441 501.009 377.441 501.286H374.492C374.492 501.009 374.268 500.786 373.992 500.786H372.017C371.741 500.786 371.517 501.009 371.517 501.286H364.618C364.618 501.009 364.394 500.786 364.118 500.786H358.193C357.917 500.786 357.693 501.009 357.693 501.286H354.744C354.744 501.009 354.52 500.786 354.244 500.786H352.269C351.993 500.786 351.769 501.009 351.769 501.286H344.87C344.87 501.009 344.646 500.786 344.37 500.786H338.445C338.169 500.786 337.945 501.009 337.945 501.286H334.996C334.996 501.009 334.772 500.786 334.496 500.786H332.521C332.245 500.786 332.021 501.009 332.021 501.286H325.122C325.122 501.009 324.898 500.786 324.622 500.786H318.697C318.421 500.786 318.197 501.009 318.197 501.286H315.248C315.248 501.009 315.024 500.786 314.748 500.786H312.773C312.497 500.786 312.273 501.009 312.273 501.286H305.374C305.374 501.009 305.15 500.786 304.874 500.786H298.949C298.673 500.786 298.449 501.009 298.449 501.286H295.5C295.5 501.009 295.276 500.786 295 500.786H293.025C292.749 500.786 292.525 501.009 292.525 501.286H285.626C285.626 501.009 285.402 500.786 285.126 500.786H279.202C278.925 500.786 278.702 501.009 278.702 501.286H275.752C275.752 501.009 275.528 500.786 275.252 500.786H273.277C273.001 500.786 272.777 501.009 272.777 501.286H265.878C265.878 501.009 265.654 500.786 265.378 500.786H259.454C259.178 500.786 258.954 501.009 258.954 501.286H256.004C256.004 501.009 255.78 500.786 255.504 500.786H253.529C253.253 500.786 253.029 501.009 253.029 501.286H246.13C246.13 501.009 245.906 500.786 245.63 500.786H239.706C239.43 500.786 239.206 501.009 239.206 501.286H236.256C236.256 501.009 236.032 500.786 235.756 500.786H233.781C233.505 500.786 233.281 501.009 233.281 501.286H226.382C226.382 501.009 226.158 500.786 225.882 500.786H219.958C219.682 500.786 219.458 501.009 219.458 501.286H216.508C216.508 501.009 216.284 500.786 216.008 500.786H214.033C213.757 500.786 213.533 501.009 213.533 501.286H206.634C206.634 501.009 206.41 500.786 206.134 500.786H200.21C199.934 500.786 199.71 501.009 199.71 501.286H196.76C196.76 501.009 196.536 500.786 196.26 500.786H194.285C194.009 500.786 193.785 501.009 193.785 501.286H186.886C186.886 501.009 186.662 500.786 186.386 500.786H180.462C180.186 500.786 179.962 501.009 179.962 501.286H177.012C177.012 501.009 176.788 500.786 176.512 500.786H174.538C174.261 500.786 174.038 501.009 174.038 501.286H167.138C167.138 501.009 166.915 500.786 166.638 500.786H160.714C160.438 500.786 160.214 501.009 160.214 501.286H157.264C157.264 501.009 157.041 500.786 156.764 500.786H154.79C154.513 500.786 154.29 501.009 154.29 501.286H147.39C147.39 501.009 147.167 500.786 146.89 500.786H140.966C140.69 500.786 140.466 501.009 140.466 501.286H137.516C137.516 501.009 137.293 500.786 137.016 500.786H135.042C134.766 500.786 134.542 501.009 134.542 501.286H127.643C127.643 501.009 127.419 500.786 127.143 500.786H121.218C120.942 500.786 120.718 501.009 120.718 501.286H117.769C117.769 501.009 117.545 500.786 117.269 500.786H115.294C115.018 500.786 114.794 501.009 114.794 501.286H107.895C107.895 501.009 107.671 500.786 107.395 500.786H101.47C101.194 500.786 100.97 501.009 100.97 501.286H98.0206C98.0206 501.009 97.7968 500.786 97.5206 500.786H97.3996L97.4599 500.681C97.598 500.442 97.5162 500.136 97.2771 499.998L100.726 494.028C100.965 494.167 101.271 494.085 101.409 493.846L104.372 488.719C104.51 488.48 104.428 488.174 104.189 488.036L105.663 485.484C105.902 485.622 106.208 485.54 106.346 485.301L107.334 483.592C107.472 483.353 107.39 483.047 107.151 482.909L110.6 476.939C110.839 477.077 111.145 476.995 111.283 476.756L114.246 471.63C114.384 471.39 114.302 471.085 114.063 470.946L115.537 468.394C115.776 468.533 116.082 468.451 116.22 468.212L117.208 466.503C117.346 466.264 117.264 465.958 117.025 465.82L120.474 459.85C120.713 459.988 121.019 459.906 121.157 459.667L124.12 454.54C124.258 454.301 124.176 453.995 123.937 453.857L125.411 451.305C125.65 451.443 125.956 451.362 126.094 451.122L127.082 449.413C127.22 449.174 127.138 448.869 126.899 448.73L130.348 442.761C130.587 442.899 130.893 442.817 131.031 442.578L133.994 437.451C134.132 437.212 134.05 436.906 133.811 436.768L135.285 434.216C135.524 434.354 135.83 434.272 135.968 434.033L136.956 432.324C137.094 432.085 137.012 431.779 136.773 431.641L140.222 425.671C140.461 425.809 140.767 425.728 140.905 425.488L143.868 420.362C144.006 420.123 143.924 419.817 143.685 419.679L145.159 417.127C145.398 417.265 145.704 417.183 145.842 416.944L146.83 415.235C146.968 414.996 146.886 414.69 146.647 414.552L150.096 408.582C150.335 408.72 150.641 408.638 150.779 408.399L153.741 403.272C153.88 403.033 153.798 402.728 153.559 402.589L155.033 400.037C155.272 400.176 155.578 400.094 155.716 399.855L156.704 398.146C156.842 397.907 156.76 397.601 156.521 397.463L159.97 391.493C160.209 391.631 160.515 391.549 160.653 391.31L163.615 386.183C163.754 385.944 163.672 385.638 163.433 385.5L164.907 382.948C165.146 383.086 165.452 383.004 165.59 382.765L166.578 381.056C166.716 380.817 166.634 380.511 166.395 380.373L169.844 374.403C170.083 374.542 170.389 374.46 170.527 374.221L173.489 369.094C173.628 368.855 173.546 368.549 173.307 368.411L174.781 365.859C175.02 365.997 175.326 365.915 175.464 365.676L176.452 363.967C176.59 363.728 176.508 363.422 176.269 363.284L179.718 357.314C179.957 357.452 180.263 357.371 180.401 357.131L183.363 352.005C183.502 351.766 183.42 351.46 183.181 351.322L184.655 348.77C184.894 348.908 185.2 348.826 185.338 348.587L186.326 346.878C186.464 346.639 186.382 346.333 186.143 346.195L189.592 340.225C189.831 340.363 190.137 340.281 190.275 340.042L193.237 334.915C193.375 334.676 193.294 334.37 193.055 334.232L194.529 331.68C194.768 331.818 195.074 331.737 195.212 331.497L196.199 329.789C196.338 329.549 196.256 329.244 196.017 329.106L199.466 323.136C199.705 323.274 200.011 323.192 200.149 322.953L203.111 317.826C203.249 317.587 203.168 317.281 202.928 317.143L204.403 314.591C204.642 314.729 204.948 314.647 205.086 314.408L206.073 312.699C206.212 312.46 206.13 312.154 205.891 312.016L209.34 306.046C209.579 306.185 209.885 306.103 210.023 305.864L212.985 300.737C213.123 300.498 213.042 300.192 212.802 300.054L214.277 297.502C214.516 297.64 214.822 297.558 214.96 297.319L215.947 295.61C216.086 295.371 216.004 295.065 215.765 294.927L219.214 288.957C219.453 289.095 219.759 289.013 219.897 288.774L222.859 283.648C222.997 283.408 222.916 283.103 222.676 282.964L224.151 280.412C224.39 280.551 224.696 280.469 224.834 280.23L225.821 278.521C225.96 278.282 225.878 277.976 225.639 277.838L229.088 271.868C229.327 272.006 229.633 271.924 229.771 271.685L232.733 266.558C232.871 266.319 232.79 266.013 232.55 265.875L234.025 263.323C234.264 263.461 234.57 263.379 234.708 263.14L235.695 261.431C235.834 261.192 235.752 260.887 235.513 260.748L238.962 254.779C239.201 254.917 239.507 254.835 239.645 254.596L242.607 249.469C242.745 249.23 242.663 248.924 242.424 248.786L243.899 246.234C244.138 246.372 244.444 246.29 244.582 246.051L245.569 244.342C245.708 244.103 245.626 243.797 245.387 243.659L248.836 237.689C249.075 237.827 249.381 237.746 249.519 237.506L252.481 232.38C252.619 232.141 252.537 231.835 252.298 231.697L253.773 229.145C254.012 229.283 254.318 229.201 254.456 228.962L255.443 227.253C255.581 227.014 255.5 226.708 255.261 226.57L258.71 220.6C258.949 220.738 259.255 220.656 259.393 220.417L262.355 215.29C262.493 215.051 262.411 214.745 262.172 214.607L263.647 212.055C263.886 212.193 264.192 212.112 264.33 211.873L265.317 210.164C265.455 209.924 265.374 209.619 265.134 209.481L268.584 203.511C268.823 203.649 269.129 203.567 269.267 203.328L272.229 198.201C272.367 197.962 272.285 197.656 272.046 197.518L273.521 194.966C273.76 195.104 274.066 195.022 274.204 194.783L275.191 193.074C275.329 192.835 275.248 192.529 275.008 192.391L278.458 186.421C278.697 186.56 279.003 186.478 279.141 186.239L282.103 181.112C282.241 180.873 282.159 180.567 281.92 180.429L283.395 177.877C283.634 178.015 283.94 177.933 284.078 177.694L285.065 175.985C285.203 175.746 285.122 175.44 284.882 175.302L288.332 169.332C288.571 169.47 288.877 169.388 289.015 169.149L291.977 164.023C292.115 163.783 292.033 163.478 291.794 163.339L293.269 160.787C293.508 160.926 293.814 160.844 293.952 160.605L294.939 158.896C295.077 158.657 294.995 158.351 294.756 158.213L298.206 152.243C298.445 152.381 298.751 152.299 298.889 152.06L301.851 146.933C301.989 146.694 301.907 146.388 301.668 146.25L303.143 143.698C303.382 143.836 303.688 143.754 303.826 143.515L304.813 141.806C304.951 141.567 304.869 141.262 304.63 141.123L308.08 135.154C308.319 135.292 308.625 135.21 308.763 134.971L311.725 129.844C311.863 129.605 311.781 129.299 311.542 129.161L313.017 126.609C313.256 126.747 313.562 126.665 313.7 126.426L314.687 124.717C314.825 124.478 314.743 124.172 314.504 124.034L317.954 118.064C318.193 118.202 318.499 118.121 318.637 117.881L321.599 112.755C321.737 112.516 321.655 112.21 321.416 112.072L322.891 109.52C323.13 109.658 323.436 109.576 323.574 109.337L324.561 107.628C324.699 107.389 324.617 107.083 324.378 106.945L327.828 100.975C328.067 101.113 328.373 101.031 328.511 100.792L331.473 95.6654C331.611 95.4263 331.529 95.1205 331.29 94.9823L332.765 92.4303Z" stroke="#F1F1F1" stroke-linecap="round" stroke-dasharray="2 4 6 8"/>
<g filter="url(#filter0_d_1348_1428)">
<ellipse cx="96.8493" cy="502.779" rx="92.8493" ry="92.7792" fill="#DFEFD4"/>
<ellipse opacity="0.7" cx="96.3845" cy="502.315" rx="0.464529" ry="0.463896" fill="black"/>
</g>
<g filter="url(#filter1_d_1348_1428)">
<ellipse cx="570.849" cy="502.779" rx="92.8493" ry="92.7792" fill="#DFEFD4"/>
<ellipse opacity="0.7" cx="569.904" cy="500.687" rx="0.456336" ry="0.455714" fill="black"/>
</g>
<g filter="url(#filter2_d_1348_1428)">
<ellipse cx="333.849" cy="92.7792" rx="92.8493" ry="92.7792" fill="#DFEFD4"/>
<ellipse cx="333.384" cy="92.3152" rx="0.464529" ry="0.463896" fill="black"/>
</g>
<path d="M275.974 105.896V118H274.393V109.687L270.806 118H269.599L265.961 109.738L265.978 118H264.397V105.896H265.808L270.211 115.892L274.563 105.896H275.974ZM286.44 109.432V118H284.774V116.572C284.502 117.071 284.128 117.456 283.652 117.728C283.176 117.989 282.637 118.119 282.037 118.119C279.974 118.119 278.943 116.974 278.943 114.685V109.432H280.643V114.668C280.643 115.371 280.784 115.892 281.068 116.232C281.362 116.561 281.804 116.725 282.394 116.725C283.096 116.725 283.657 116.498 284.077 116.045C284.507 115.592 284.723 114.991 284.723 114.243V109.432H286.44ZM289.295 105.488H290.995V118H289.295V105.488ZM296.078 110.758V115.059C296.078 115.648 296.203 116.068 296.452 116.317C296.713 116.555 297.07 116.674 297.523 116.674C297.818 116.674 298.118 116.629 298.424 116.538V117.932C298.05 118.057 297.625 118.119 297.149 118.119C296.265 118.119 295.58 117.87 295.092 117.371C294.605 116.872 294.361 116.147 294.361 115.195V110.758H292.695V109.432H294.361V107.29L296.078 106.695V109.432H298.441V110.758H296.078ZM300.367 109.432H302.067V118H300.367V109.432ZM302.203 105.692V107.494H300.214V105.692H302.203ZM309.463 109.228C310.2 109.228 310.857 109.415 311.435 109.789C312.013 110.163 312.461 110.69 312.778 111.37C313.107 112.05 313.271 112.832 313.271 113.716C313.271 114.6 313.112 115.376 312.795 116.045C312.478 116.702 312.03 117.212 311.452 117.575C310.874 117.938 310.211 118.119 309.463 118.119C308.806 118.119 308.228 117.983 307.729 117.711C307.242 117.428 306.873 117.025 306.624 116.504V121.672H304.924V111.846C304.924 110.951 304.879 110.146 304.788 109.432H306.386L306.556 111.013C306.783 110.446 307.151 110.01 307.661 109.704C308.171 109.387 308.772 109.228 309.463 109.228ZM309.072 116.759C309.843 116.759 310.443 116.493 310.874 115.96C311.305 115.427 311.52 114.679 311.52 113.716C311.52 112.741 311.305 111.982 310.874 111.438C310.443 110.883 309.843 110.605 309.072 110.605C308.279 110.605 307.672 110.871 307.253 111.404C306.834 111.937 306.624 112.696 306.624 113.682C306.624 114.668 306.834 115.427 307.253 115.96C307.684 116.493 308.29 116.759 309.072 116.759ZM315.623 105.488H317.323V118H315.623V105.488ZM327.49 113.75H321.37C321.427 115.756 322.339 116.759 324.107 116.759C325.093 116.759 325.994 116.436 326.81 115.79L327.337 117.014C326.952 117.354 326.459 117.626 325.858 117.83C325.269 118.023 324.674 118.119 324.073 118.119C322.702 118.119 321.625 117.728 320.843 116.946C320.061 116.153 319.67 115.07 319.67 113.699C319.67 112.826 319.84 112.05 320.18 111.37C320.531 110.69 321.019 110.163 321.642 109.789C322.265 109.415 322.974 109.228 323.767 109.228C324.923 109.228 325.83 109.602 326.487 110.35C327.156 111.098 327.49 112.135 327.49 113.461V113.75ZM323.801 110.503C323.155 110.503 322.628 110.696 322.22 111.081C321.812 111.466 321.551 112.016 321.438 112.73H325.977C325.909 112.005 325.688 111.455 325.314 111.081C324.94 110.696 324.436 110.503 323.801 110.503ZM334.826 105.896H336.577V116.538H342.459V118H334.826V105.896ZM344.393 109.432H346.093V118H344.393V109.432ZM346.229 105.692V107.494H344.24V105.692H346.229ZM353.488 109.228C354.236 109.228 354.899 109.409 355.477 109.772C356.055 110.135 356.503 110.65 356.82 111.319C357.138 111.988 357.296 112.764 357.296 113.648C357.296 114.532 357.132 115.314 356.803 115.994C356.486 116.663 356.038 117.184 355.46 117.558C354.882 117.932 354.225 118.119 353.488 118.119C352.831 118.119 352.253 117.983 351.754 117.711C351.267 117.428 350.899 117.025 350.649 116.504V118H348.949V105.488H350.649V110.843C350.899 110.333 351.267 109.936 351.754 109.653C352.253 109.37 352.831 109.228 353.488 109.228ZM353.097 116.759C353.868 116.759 354.469 116.487 354.899 115.943C355.33 115.388 355.545 114.623 355.545 113.648C355.545 112.685 355.33 111.937 354.899 111.404C354.469 110.871 353.868 110.605 353.097 110.605C352.315 110.605 351.709 110.871 351.278 111.404C350.859 111.937 350.649 112.696 350.649 113.682C350.649 114.668 350.859 115.427 351.278 115.96C351.709 116.493 352.315 116.759 353.097 116.759ZM363.916 109.228C364.176 109.228 364.448 109.268 364.732 109.347L364.698 110.911C364.392 110.798 364.057 110.741 363.695 110.741C362.913 110.741 362.323 110.979 361.927 111.455C361.541 111.92 361.349 112.509 361.349 113.223V118H359.649V111.846C359.649 110.951 359.603 110.146 359.513 109.432H361.111L361.264 110.979C361.49 110.412 361.842 109.982 362.318 109.687C362.794 109.381 363.326 109.228 363.916 109.228ZM374.051 109.432V118H372.351V116.538C372.102 117.048 371.728 117.439 371.229 117.711C370.742 117.983 370.17 118.119 369.512 118.119C368.753 118.119 368.084 117.938 367.506 117.575C366.94 117.212 366.498 116.702 366.18 116.045C365.863 115.376 365.704 114.6 365.704 113.716C365.704 112.832 365.863 112.05 366.18 111.37C366.509 110.69 366.962 110.163 367.54 109.789C368.118 109.415 368.776 109.228 369.512 109.228C370.17 109.228 370.742 109.37 371.229 109.653C371.717 109.925 372.091 110.316 372.351 110.826V109.432H374.051ZM369.92 116.759C370.691 116.759 371.286 116.493 371.705 115.96C372.136 115.416 372.351 114.657 372.351 113.682C372.351 112.696 372.136 111.937 371.705 111.404C371.286 110.871 370.685 110.605 369.903 110.605C369.133 110.605 368.526 110.883 368.084 111.438C367.654 111.982 367.438 112.741 367.438 113.716C367.438 114.679 367.654 115.427 368.084 115.96C368.526 116.493 369.138 116.759 369.92 116.759ZM381.181 109.228C381.441 109.228 381.713 109.268 381.997 109.347L381.963 110.911C381.657 110.798 381.322 110.741 380.96 110.741C380.178 110.741 379.588 110.979 379.192 111.455C378.806 111.92 378.614 112.509 378.614 113.223V118H376.914V111.846C376.914 110.951 376.868 110.146 376.778 109.432H378.376L378.529 110.979C378.755 110.412 379.107 109.982 379.583 109.687C380.059 109.381 380.591 109.228 381.181 109.228ZM383.645 109.432H385.345V118H383.645V109.432ZM385.481 105.692V107.494H383.492V105.692H385.481ZM395.512 113.75H389.392C389.449 115.756 390.361 116.759 392.129 116.759C393.115 116.759 394.016 116.436 394.832 115.79L395.359 117.014C394.974 117.354 394.481 117.626 393.88 117.83C393.291 118.023 392.696 118.119 392.095 118.119C390.724 118.119 389.647 117.728 388.865 116.946C388.083 116.153 387.692 115.07 387.692 113.699C387.692 112.826 387.862 112.05 388.202 111.37C388.553 110.69 389.041 110.163 389.664 109.789C390.287 109.415 390.996 109.228 391.789 109.228C392.945 109.228 393.852 109.602 394.509 110.35C395.178 111.098 395.512 112.135 395.512 113.461V113.75ZM391.823 110.503C391.177 110.503 390.65 110.696 390.242 111.081C389.834 111.466 389.573 112.016 389.46 112.73H393.999C393.931 112.005 393.71 111.455 393.336 111.081C392.962 110.696 392.458 110.503 391.823 110.503ZM400.814 118.119C399.318 118.119 398.14 117.756 397.278 117.031L397.788 115.79C398.684 116.47 399.709 116.81 400.865 116.81C401.455 116.81 401.902 116.714 402.208 116.521C402.514 116.317 402.667 116.034 402.667 115.671C402.667 115.365 402.56 115.127 402.344 114.957C402.14 114.776 401.789 114.623 401.29 114.498L399.862 114.158C399.114 113.999 398.542 113.722 398.145 113.325C397.76 112.917 397.567 112.413 397.567 111.812C397.567 111.041 397.873 110.418 398.485 109.942C399.109 109.466 399.93 109.228 400.95 109.228C401.562 109.228 402.14 109.324 402.684 109.517C403.24 109.71 403.71 109.982 404.095 110.333L403.568 111.54C402.741 110.883 401.868 110.554 400.95 110.554C400.395 110.554 399.964 110.662 399.658 110.877C399.352 111.081 399.199 111.37 399.199 111.744C399.199 112.039 399.296 112.277 399.488 112.458C399.681 112.639 399.987 112.781 400.406 112.883L401.868 113.24C402.684 113.421 403.285 113.71 403.67 114.107C404.067 114.492 404.265 114.997 404.265 115.62C404.265 116.391 403.954 117.003 403.33 117.456C402.718 117.898 401.88 118.119 400.814 118.119ZM305.939 127.865C304.998 127.865 304.528 128.403 304.528 129.48V130.432H306.534V131.758H304.528V139H302.811V131.758H301.162V130.432H302.811V129.344C302.811 128.392 303.049 127.667 303.525 127.168C304.012 126.669 304.692 126.42 305.565 126.42C306.018 126.42 306.432 126.477 306.806 126.59V128.001C306.5 127.91 306.211 127.865 305.939 127.865ZM312.223 139.119C311.385 139.119 310.648 138.938 310.013 138.575C309.379 138.212 308.886 137.697 308.534 137.028C308.194 136.359 308.024 135.577 308.024 134.682C308.024 133.787 308.194 133.005 308.534 132.336C308.886 131.656 309.379 131.135 310.013 130.772C310.648 130.409 311.385 130.228 312.223 130.228C313.051 130.228 313.782 130.409 314.416 130.772C315.051 131.135 315.538 131.656 315.878 132.336C316.23 133.005 316.405 133.787 316.405 134.682C316.405 135.577 316.23 136.359 315.878 137.028C315.538 137.697 315.051 138.212 314.416 138.575C313.782 138.938 313.051 139.119 312.223 139.119ZM312.206 137.759C313 137.759 313.606 137.498 314.025 136.977C314.445 136.456 314.654 135.691 314.654 134.682C314.654 133.696 314.439 132.937 314.008 132.404C313.589 131.871 312.994 131.605 312.223 131.605C311.441 131.605 310.835 131.871 310.404 132.404C309.974 132.937 309.758 133.696 309.758 134.682C309.758 135.691 309.968 136.456 310.387 136.977C310.818 137.498 311.424 137.759 312.206 137.759ZM323.019 130.228C323.28 130.228 323.552 130.268 323.835 130.347L323.801 131.911C323.495 131.798 323.161 131.741 322.798 131.741C322.016 131.741 321.427 131.979 321.03 132.455C320.645 132.92 320.452 133.509 320.452 134.223V139H318.752V132.846C318.752 131.951 318.707 131.146 318.616 130.432H320.214L320.367 131.979C320.594 131.412 320.945 130.982 321.421 130.687C321.897 130.381 322.43 130.228 323.019 130.228ZM338.465 136.008H332.345L331.053 139H329.268L334.657 126.896H336.136L341.542 139H339.757L338.465 136.008ZM337.87 134.614L335.405 128.851L332.94 134.614H337.87ZM343.45 126.896H348.482C349.751 126.896 350.737 127.208 351.44 127.831C352.154 128.443 352.511 129.282 352.511 130.347C352.511 131.412 352.148 132.257 351.423 132.88C350.709 133.492 349.728 133.798 348.482 133.798H345.201V139H343.45V126.896ZM348.278 132.404C349.116 132.404 349.745 132.228 350.165 131.877C350.595 131.526 350.811 131.016 350.811 130.347C350.811 129.69 350.595 129.185 350.165 128.834C349.745 128.483 349.116 128.307 348.278 128.307H345.201V132.404H348.278ZM354.979 126.896H356.73V139H354.979V126.896ZM362.724 139.119C361.228 139.119 360.049 138.756 359.188 138.031L359.698 136.79C360.593 137.47 361.619 137.81 362.775 137.81C363.364 137.81 363.812 137.714 364.118 137.521C364.424 137.317 364.577 137.034 364.577 136.671C364.577 136.365 364.469 136.127 364.254 135.957C364.05 135.776 363.698 135.623 363.2 135.498L361.772 135.158C361.024 134.999 360.451 134.722 360.055 134.325C359.669 133.917 359.477 133.413 359.477 132.812C359.477 132.041 359.783 131.418 360.395 130.942C361.018 130.466 361.84 130.228 362.86 130.228C363.472 130.228 364.05 130.324 364.594 130.517C365.149 130.71 365.619 130.982 366.005 131.333L365.478 132.54C364.65 131.883 363.778 131.554 362.86 131.554C362.304 131.554 361.874 131.662 361.568 131.877C361.262 132.081 361.109 132.37 361.109 132.744C361.109 133.039 361.205 133.277 361.398 133.458C361.59 133.639 361.896 133.781 362.316 133.883L363.778 134.24C364.594 134.421 365.194 134.71 365.58 135.107C365.976 135.492 366.175 135.997 366.175 136.62C366.175 137.391 365.863 138.003 365.24 138.456C364.628 138.898 363.789 139.119 362.724 139.119Z" fill="#252525"/>
<path d="M335.824 72.7872L345.389 75.6559M320.34 50.6067L323.209 60.1669L320.34 50.6067Z" stroke="#46AC34" stroke-width="3" stroke-linecap="round" stroke-linejoin="round"/>
<path d="M333.289 62.7135L346.247 49.7558" stroke="#46AC34" stroke-width="3" stroke-linecap="round" stroke-linejoin="round"/>
<path d="M319.377 50.7477C321.242 50.7477 322.753 49.2371 322.753 47.3736C322.753 45.5102 321.242 43.9996 319.377 43.9996C317.513 43.9996 316.002 45.5102 316.002 47.3736C316.002 49.2371 317.513 50.7477 319.377 50.7477Z" stroke="#46AC34" stroke-width="3" stroke-linecap="round" stroke-linejoin="round"/>
<path d="M348.624 50.7477C350.488 50.7477 351.999 49.2371 351.999 47.3736C351.999 45.5102 350.488 43.9996 348.624 43.9996C346.759 43.9996 345.248 45.5102 345.248 47.3736C345.248 49.2371 346.759 50.7477 348.624 50.7477Z" stroke="#46AC34" stroke-width="3" stroke-linecap="round" stroke-linejoin="round"/>
<path d="M348.624 79.9986C350.488 79.9986 351.999 78.488 351.999 76.6245C351.999 74.7611 350.488 73.2505 348.624 73.2505C346.759 73.2505 345.248 74.7611 345.248 76.6245C345.248 78.488 346.759 79.9986 348.624 79.9986Z" stroke="#46AC34" stroke-width="3" stroke-linecap="round" stroke-linejoin="round"/>
<path d="M326.127 80.0001C331.719 80.0001 336.252 75.4669 336.252 69.8751C336.252 64.2832 331.719 59.7501 326.127 59.7501C320.535 59.7501 316.002 64.2832 316.002 69.8751C316.002 75.4669 320.535 80.0001 326.127 80.0001Z" stroke="#46AC34" stroke-width="3" stroke-linecap="round" stroke-linejoin="round"/>
<path d="M550.189 515.896V528H548.608V519.687L545.021 528H543.814L540.176 519.738L540.193 528H538.612V515.896H540.023L544.426 525.892L548.778 515.896H550.189ZM556.897 528.119C556.059 528.119 555.322 527.938 554.687 527.575C554.053 527.212 553.56 526.697 553.208 526.028C552.868 525.359 552.698 524.577 552.698 523.682C552.698 522.787 552.868 522.005 553.208 521.336C553.56 520.656 554.053 520.135 554.687 519.772C555.322 519.409 556.059 519.228 556.897 519.228C557.725 519.228 558.456 519.409 559.09 519.772C559.725 520.135 560.212 520.656 560.552 521.336C560.904 522.005 561.079 522.787 561.079 523.682C561.079 524.577 560.904 525.359 560.552 526.028C560.212 526.697 559.725 527.212 559.09 527.575C558.456 527.938 557.725 528.119 556.897 528.119ZM556.88 526.759C557.674 526.759 558.28 526.498 558.699 525.977C559.119 525.456 559.328 524.691 559.328 523.682C559.328 522.696 559.113 521.937 558.682 521.404C558.263 520.871 557.668 520.605 556.897 520.605C556.115 520.605 555.509 520.871 555.078 521.404C554.648 521.937 554.432 522.696 554.432 523.682C554.432 524.691 554.642 525.456 555.061 525.977C555.492 526.498 556.098 526.759 556.88 526.759ZM571.263 515.488V528H569.563V526.538C569.314 527.048 568.94 527.439 568.441 527.711C567.954 527.983 567.382 528.119 566.724 528.119C565.988 528.119 565.33 527.932 564.752 527.558C564.174 527.184 563.721 526.663 563.392 525.994C563.075 525.314 562.916 524.532 562.916 523.648C562.916 522.764 563.075 521.988 563.392 521.319C563.71 520.65 564.152 520.135 564.718 519.772C565.296 519.409 565.965 519.228 566.724 519.228C567.37 519.228 567.937 519.364 568.424 519.636C568.923 519.908 569.297 520.293 569.546 520.792V515.488H571.263ZM567.115 526.759C567.897 526.759 568.498 526.493 568.917 525.96C569.348 525.416 569.563 524.657 569.563 523.682C569.563 522.707 569.348 521.954 568.917 521.421C568.498 520.877 567.903 520.605 567.132 520.605C566.35 520.605 565.738 520.871 565.296 521.404C564.866 521.937 564.65 522.685 564.65 523.648C564.65 524.623 564.866 525.388 565.296 525.943C565.738 526.487 566.345 526.759 567.115 526.759ZM581.572 519.432V528H579.906V526.572C579.634 527.071 579.26 527.456 578.784 527.728C578.308 527.989 577.769 528.119 577.169 528.119C575.106 528.119 574.075 526.974 574.075 524.685V519.432H575.775V524.668C575.775 525.371 575.916 525.892 576.2 526.232C576.494 526.561 576.936 526.725 577.526 526.725C578.228 526.725 578.789 526.498 579.209 526.045C579.639 525.592 579.855 524.991 579.855 524.243V519.432H581.572ZM584.427 515.488H586.127V528H584.427V515.488ZM596.82 519.432V528H595.12V526.538C594.871 527.048 594.497 527.439 593.998 527.711C593.511 527.983 592.939 528.119 592.281 528.119C591.522 528.119 590.853 527.938 590.275 527.575C589.709 527.212 589.267 526.702 588.949 526.045C588.632 525.376 588.473 524.6 588.473 523.716C588.473 522.832 588.632 522.05 588.949 521.37C589.278 520.69 589.731 520.163 590.309 519.789C590.887 519.415 591.545 519.228 592.281 519.228C592.939 519.228 593.511 519.37 593.998 519.653C594.486 519.925 594.86 520.316 595.12 520.826V519.432H596.82ZM592.689 526.759C593.46 526.759 594.055 526.493 594.474 525.96C594.905 525.416 595.12 524.657 595.12 523.682C595.12 522.696 594.905 521.937 594.474 521.404C594.055 520.871 593.454 520.605 592.672 520.605C591.902 520.605 591.295 520.883 590.853 521.438C590.423 521.982 590.207 522.741 590.207 523.716C590.207 524.679 590.423 525.427 590.853 525.96C591.295 526.493 591.907 526.759 592.689 526.759ZM603.95 519.228C604.21 519.228 604.482 519.268 604.766 519.347L604.732 520.911C604.426 520.798 604.091 520.741 603.729 520.741C602.947 520.741 602.357 520.979 601.961 521.455C601.575 521.92 601.383 522.509 601.383 523.223V528H599.683V521.846C599.683 520.951 599.637 520.146 599.547 519.432H601.145L601.298 520.979C601.524 520.412 601.876 519.982 602.352 519.687C602.828 519.381 603.36 519.228 603.95 519.228ZM543.874 549.136C542.707 549.136 541.687 548.887 540.814 548.388C539.953 547.878 539.29 547.158 538.825 546.229C538.36 545.3 538.128 544.2 538.128 542.931C538.128 541.673 538.36 540.579 538.825 539.65C539.29 538.721 539.953 538.007 540.814 537.508C541.687 537.009 542.707 536.76 543.874 536.76C544.701 536.76 545.466 536.89 546.169 537.151C546.883 537.4 547.484 537.769 547.971 538.256L547.359 539.548C546.792 539.083 546.231 538.749 545.676 538.545C545.132 538.33 544.537 538.222 543.891 538.222C542.633 538.222 541.658 538.63 540.967 539.446C540.287 540.262 539.947 541.424 539.947 542.931C539.947 544.45 540.287 545.623 540.967 546.45C541.658 547.266 542.633 547.674 543.891 547.674C544.537 547.674 545.132 547.572 545.676 547.368C546.231 547.153 546.792 546.813 547.359 546.348L547.971 547.64C547.484 548.127 546.883 548.501 546.169 548.762C545.466 549.011 544.701 549.136 543.874 549.136ZM553.884 549.119C553.046 549.119 552.309 548.938 551.674 548.575C551.04 548.212 550.547 547.697 550.195 547.028C549.855 546.359 549.685 545.577 549.685 544.682C549.685 543.787 549.855 543.005 550.195 542.336C550.547 541.656 551.04 541.135 551.674 540.772C552.309 540.409 553.046 540.228 553.884 540.228C554.712 540.228 555.443 540.409 556.077 540.772C556.712 541.135 557.199 541.656 557.539 542.336C557.891 543.005 558.066 543.787 558.066 544.682C558.066 545.577 557.891 546.359 557.539 547.028C557.199 547.697 556.712 548.212 556.077 548.575C555.443 548.938 554.712 549.119 553.884 549.119ZM553.867 547.759C554.661 547.759 555.267 547.498 555.686 546.977C556.106 546.456 556.315 545.691 556.315 544.682C556.315 543.696 556.1 542.937 555.669 542.404C555.25 541.871 554.655 541.605 553.884 541.605C553.102 541.605 552.496 541.871 552.065 542.404C551.635 542.937 551.419 543.696 551.419 544.682C551.419 545.691 551.629 546.456 552.048 546.977C552.479 547.498 553.085 547.759 553.867 547.759ZM564.969 540.228C567.02 540.228 568.046 541.373 568.046 543.662V549H566.329V543.764C566.329 543.016 566.182 542.472 565.887 542.132C565.604 541.792 565.145 541.622 564.51 541.622C563.785 541.622 563.201 541.849 562.759 542.302C562.328 542.755 562.113 543.362 562.113 544.121V549H560.413V542.846C560.413 541.951 560.368 541.146 560.277 540.432H561.875L562.028 541.911C562.3 541.367 562.691 540.953 563.201 540.67C563.722 540.375 564.312 540.228 564.969 540.228ZM574.553 549.119C573.692 549.119 572.938 548.938 572.292 548.575C571.658 548.212 571.17 547.702 570.83 547.045C570.49 546.376 570.32 545.6 570.32 544.716C570.32 543.832 570.496 543.05 570.847 542.37C571.21 541.69 571.714 541.163 572.36 540.789C573.006 540.415 573.76 540.228 574.621 540.228C575.222 540.228 575.8 540.33 576.355 540.534C576.911 540.727 577.358 540.993 577.698 541.333L577.171 542.574C576.367 541.939 575.556 541.622 574.74 541.622C573.913 541.622 573.267 541.894 572.802 542.438C572.338 542.971 572.105 543.724 572.105 544.699C572.105 545.674 572.338 546.427 572.802 546.96C573.267 547.481 573.913 547.742 574.74 547.742C575.579 547.742 576.389 547.425 577.171 546.79L577.698 548.031C577.336 548.371 576.871 548.637 576.304 548.83C575.749 549.023 575.165 549.119 574.553 549.119ZM586.964 544.75H580.844C580.9 546.756 581.813 547.759 583.581 547.759C584.567 547.759 585.468 547.436 586.284 546.79L586.811 548.014C586.425 548.354 585.932 548.626 585.332 548.83C584.742 549.023 584.147 549.119 583.547 549.119C582.175 549.119 581.099 548.728 580.317 547.946C579.535 547.153 579.144 546.07 579.144 544.699C579.144 543.826 579.314 543.05 579.654 542.37C580.005 541.69 580.492 541.163 581.116 540.789C581.739 540.415 582.447 540.228 583.241 540.228C584.397 540.228 585.303 540.602 585.961 541.35C586.629 542.098 586.964 543.135 586.964 544.461V544.75ZM583.275 541.503C582.629 541.503 582.102 541.696 581.694 542.081C581.286 542.466 581.025 543.016 580.912 543.73H585.451C585.383 543.005 585.162 542.455 584.788 542.081C584.414 541.696 583.909 541.503 583.275 541.503ZM593.813 540.228C594.55 540.228 595.207 540.415 595.785 540.789C596.363 541.163 596.811 541.69 597.128 542.37C597.457 543.05 597.621 543.832 597.621 544.716C597.621 545.6 597.462 546.376 597.145 547.045C596.828 547.702 596.38 548.212 595.802 548.575C595.224 548.938 594.561 549.119 593.813 549.119C593.156 549.119 592.578 548.983 592.079 548.711C591.592 548.428 591.223 548.025 590.974 547.504V552.672H589.274V542.846C589.274 541.951 589.229 541.146 589.138 540.432H590.736L590.906 542.013C591.133 541.446 591.501 541.01 592.011 540.704C592.521 540.387 593.122 540.228 593.813 540.228ZM593.422 547.759C594.193 547.759 594.793 547.493 595.224 546.96C595.655 546.427 595.87 545.679 595.87 544.716C595.87 543.741 595.655 542.982 595.224 542.438C594.793 541.883 594.193 541.605 593.422 541.605C592.629 541.605 592.022 541.871 591.603 542.404C591.184 542.937 590.974 543.696 590.974 544.682C590.974 545.668 591.184 546.427 591.603 546.96C592.034 547.493 592.64 547.759 593.422 547.759ZM602.167 541.758V546.059C602.167 546.648 602.292 547.068 602.541 547.317C602.802 547.555 603.159 547.674 603.612 547.674C603.907 547.674 604.207 547.629 604.513 547.538V548.932C604.139 549.057 603.714 549.119 603.238 549.119C602.354 549.119 601.668 548.87 601.181 548.371C600.694 547.872 600.45 547.147 600.45 546.195V541.758H598.784V540.432H600.45V538.29L602.167 537.695V540.432H604.53V541.758H602.167Z" fill="#252525"/>
<path d="M557.503 484.6L553.002 482.125V476.5" stroke="#46AC34" stroke-width="3" stroke-linecap="round" stroke-linejoin="round"/>
<path d="M553.002 467.5V461.875L557.503 459.4" stroke="#46AC34" stroke-width="3" stroke-linecap="round" stroke-linejoin="round"/>
<path d="M566.512 454.224L571.013 451.75L575.513 454.224" stroke="#46AC34" stroke-width="3" stroke-linecap="round" stroke-linejoin="round"/>
<path d="M584.502 459.4L589.003 461.875V467.5" stroke="#46AC34" stroke-width="3" stroke-linecap="round" stroke-linejoin="round"/>
<path d="M589.003 476.5V482.125L584.502 484.645" stroke="#46AC34" stroke-width="3" stroke-linecap="round" stroke-linejoin="round"/>
<path d="M575.513 489.775L571.013 492.249L566.512 489.775" stroke="#46AC34" stroke-width="3" stroke-linecap="round" stroke-linejoin="round"/>
<path d="M571 471.999L575.501 469.525" stroke="#46AC34" stroke-width="3" stroke-linecap="round" stroke-linejoin="round"/>
<path d="M584.502 464.349L589.003 461.875" stroke="#46AC34" stroke-width="3" stroke-linecap="round" stroke-linejoin="round"/>
<path d="M571 472V477.624" stroke="#46AC34" stroke-width="3" stroke-linecap="round" stroke-linejoin="round"/>
<path d="M571 486.625V492.249" stroke="#46AC34" stroke-width="3" stroke-linecap="round" stroke-linejoin="round"/>
<path d="M571.013 471.999L566.512 469.48" stroke="#46AC34" stroke-width="3" stroke-linecap="round" stroke-linejoin="round"/>
<path d="M557.503 464.349L553.002 461.875" stroke="#46AC34" stroke-width="3" stroke-linecap="round" stroke-linejoin="round"/>
<path d="M78.9752 515.896H86.8292V517.324H80.7092V521.132H86.4892V522.56H80.7092V526.572H86.8292V528H78.9752V515.896ZM97.0432 519.432V528H95.3432V526.538C95.0938 527.048 94.7198 527.439 94.2212 527.711C93.7338 527.983 93.1615 528.119 92.5042 528.119C91.7448 528.119 91.0762 527.938 90.4982 527.575C89.9315 527.212 89.4895 526.702 89.1722 526.045C88.8548 525.376 88.6962 524.6 88.6962 523.716C88.6962 522.832 88.8548 522.05 89.1722 521.37C89.5008 520.69 89.9542 520.163 90.5322 519.789C91.1102 519.415 91.7675 519.228 92.5042 519.228C93.1615 519.228 93.7338 519.37 94.2212 519.653C94.7085 519.925 95.0825 520.316 95.3432 520.826V519.432H97.0432ZM92.9122 526.759C93.6828 526.759 94.2778 526.493 94.6972 525.96C95.1278 525.416 95.3432 524.657 95.3432 523.682C95.3432 522.696 95.1278 521.937 94.6972 521.404C94.2778 520.871 93.6772 520.605 92.8952 520.605C92.1245 520.605 91.5182 520.883 91.0762 521.438C90.6455 521.982 90.4302 522.741 90.4302 523.716C90.4302 524.679 90.6455 525.427 91.0762 525.96C91.5182 526.493 92.1302 526.759 92.9122 526.759ZM102.898 528.119C101.402 528.119 100.223 527.756 99.3615 527.031L99.8715 525.79C100.767 526.47 101.793 526.81 102.949 526.81C103.538 526.81 103.986 526.714 104.292 526.521C104.598 526.317 104.751 526.034 104.751 525.671C104.751 525.365 104.643 525.127 104.428 524.957C104.224 524.776 103.872 524.623 103.374 524.498L101.946 524.158C101.198 523.999 100.625 523.722 100.229 523.325C99.8432 522.917 99.6505 522.413 99.6505 521.812C99.6505 521.041 99.9565 520.418 100.569 519.942C101.192 519.466 102.014 519.228 103.034 519.228C103.646 519.228 104.224 519.324 104.768 519.517C105.323 519.71 105.793 519.982 106.179 520.333L105.652 521.54C104.824 520.883 103.952 520.554 103.034 520.554C102.478 520.554 102.048 520.662 101.742 520.877C101.436 521.081 101.283 521.37 101.283 521.744C101.283 522.039 101.379 522.277 101.572 522.458C101.764 522.639 102.07 522.781 102.49 522.883L103.952 523.24C104.768 523.421 105.368 523.71 105.754 524.107C106.15 524.492 106.349 524.997 106.349 525.62C106.349 526.391 106.037 527.003 105.414 527.456C104.802 527.898 103.963 528.119 102.898 528.119ZM116.366 519.432L112.371 528.697C111.929 529.706 111.373 530.442 110.705 530.907C110.047 531.383 109.231 531.7 108.257 531.859L107.883 530.533C108.687 530.352 109.294 530.114 109.702 529.819C110.121 529.536 110.455 529.105 110.705 528.527L111.011 527.813L107.407 519.432H109.226L111.912 526.062L114.649 519.432H116.366ZM33.7791 536.896H35.5301V549H33.7791V536.896ZM48.3066 540.228C50.2106 540.228 51.1626 541.373 51.1626 543.662V549H49.4456V543.747C49.4456 543.01 49.3152 542.472 49.0546 542.132C48.8052 541.792 48.3972 541.622 47.8306 541.622C47.1732 541.622 46.6519 541.849 46.2666 542.302C45.8926 542.755 45.7056 543.373 45.7056 544.155V549H43.9886V543.747C43.9886 543.01 43.8582 542.472 43.5976 542.132C43.3482 541.792 42.9402 541.622 42.3736 541.622C41.7162 541.622 41.1949 541.849 40.8096 542.302C40.4242 542.755 40.2316 543.373 40.2316 544.155V549H38.5316V542.846C38.5316 541.951 38.4862 541.146 38.3956 540.432H39.9936L40.1466 541.86C40.3959 541.339 40.7529 540.936 41.2176 540.653C41.6822 540.37 42.2262 540.228 42.8496 540.228C44.1756 540.228 45.0426 540.778 45.4506 541.877C45.7112 541.367 46.0909 540.965 46.5896 540.67C47.0996 540.375 47.6719 540.228 48.3066 540.228ZM58.5014 540.228C59.238 540.228 59.8954 540.415 60.4734 540.789C61.0514 541.163 61.499 541.69 61.8164 542.37C62.145 543.05 62.3094 543.832 62.3094 544.716C62.3094 545.6 62.1507 546.376 61.8334 547.045C61.516 547.702 61.0684 548.212 60.4904 548.575C59.9124 548.938 59.2494 549.119 58.5014 549.119C57.844 549.119 57.266 548.983 56.7674 548.711C56.28 548.428 55.9117 548.025 55.6624 547.504V552.672H53.9624V542.846C53.9624 541.951 53.917 541.146 53.8264 540.432H55.4244L55.5944 542.013C55.821 541.446 56.1894 541.01 56.6994 540.704C57.2094 540.387 57.81 540.228 58.5014 540.228ZM58.1104 547.759C58.881 547.759 59.4817 547.493 59.9124 546.96C60.343 546.427 60.5584 545.679 60.5584 544.716C60.5584 543.741 60.343 542.982 59.9124 542.438C59.4817 541.883 58.881 541.605 58.1104 541.605C57.317 541.605 56.7107 541.871 56.2914 542.404C55.872 542.937 55.6624 543.696 55.6624 544.682C55.6624 545.668 55.872 546.427 56.2914 546.96C56.722 547.493 57.3284 547.759 58.1104 547.759ZM64.6618 536.488H66.3618V549H64.6618V536.488ZM76.5285 544.75H70.4085C70.4652 546.756 71.3775 547.759 73.1455 547.759C74.1315 547.759 75.0325 547.436 75.8485 546.79L76.3755 548.014C75.9902 548.354 75.4972 548.626 74.8965 548.83C74.3072 549.023 73.7122 549.119 73.1115 549.119C71.7402 549.119 70.6635 548.728 69.8815 547.946C69.0995 547.153 68.7085 546.07 68.7085 544.699C68.7085 543.826 68.8785 543.05 69.2185 542.37C69.5699 541.69 70.0572 541.163 70.6805 540.789C71.3039 540.415 72.0122 540.228 72.8055 540.228C73.9615 540.228 74.8682 540.602 75.5255 541.35C76.1942 542.098 76.5285 543.135 76.5285 544.461V544.75ZM72.8395 541.503C72.1935 541.503 71.6665 541.696 71.2585 542.081C70.8505 542.466 70.5899 543.016 70.4765 543.73H75.0155C74.9475 543.005 74.7265 542.455 74.3525 542.081C73.9785 541.696 73.4742 541.503 72.8395 541.503ZM88.6138 540.228C90.5178 540.228 91.4698 541.373 91.4698 543.662V549H89.7528V543.747C89.7528 543.01 89.6225 542.472 89.3618 542.132C89.1125 541.792 88.7045 541.622 88.1378 541.622C87.4805 541.622 86.9592 541.849 86.5738 542.302C86.1998 542.755 86.0128 543.373 86.0128 544.155V549H84.2958V543.747C84.2958 543.01 84.1655 542.472 83.9048 542.132C83.6555 541.792 83.2475 541.622 82.6808 541.622C82.0235 541.622 81.5022 541.849 81.1168 542.302C80.7315 542.755 80.5388 543.373 80.5388 544.155V549H78.8388V542.846C78.8388 541.951 78.7935 541.146 78.7028 540.432H80.3008L80.4538 541.86C80.7032 541.339 81.0602 540.936 81.5248 540.653C81.9895 540.37 82.5335 540.228 83.1568 540.228C84.4828 540.228 85.3498 540.778 85.7578 541.877C86.0185 541.367 86.3982 540.965 86.8968 540.67C87.4068 540.375 87.9792 540.228 88.6138 540.228ZM101.58 544.75H95.4596C95.5163 546.756 96.4286 547.759 98.1966 547.759C99.1826 547.759 100.084 547.436 100.9 546.79L101.427 548.014C101.041 548.354 100.548 548.626 99.9476 548.83C99.3583 549.023 98.7633 549.119 98.1626 549.119C96.7913 549.119 95.7146 548.728 94.9326 547.946C94.1506 547.153 93.7596 546.07 93.7596 544.699C93.7596 543.826 93.9296 543.05 94.2696 542.37C94.621 541.69 95.1083 541.163 95.7316 540.789C96.355 540.415 97.0633 540.228 97.8566 540.228C99.0126 540.228 99.9193 540.602 100.577 541.35C101.245 542.098 101.58 543.135 101.58 544.461V544.75ZM97.8906 541.503C97.2446 541.503 96.7176 541.696 96.3096 542.081C95.9016 542.466 95.641 543.016 95.5276 543.73H100.067C99.9986 543.005 99.7776 542.455 99.4036 542.081C99.0296 541.696 98.5253 541.503 97.8906 541.503ZM108.446 540.228C110.497 540.228 111.523 541.373 111.523 543.662V549H109.806V543.764C109.806 543.016 109.659 542.472 109.364 542.132C109.081 541.792 108.622 541.622 107.987 541.622C107.262 541.622 106.678 541.849 106.236 542.302C105.805 542.755 105.59 543.362 105.59 544.121V549H103.89V542.846C103.89 541.951 103.845 541.146 103.754 540.432H105.352L105.505 541.911C105.777 541.367 106.168 540.953 106.678 540.67C107.199 540.375 107.789 540.228 108.446 540.228ZM116.534 541.758V546.059C116.534 546.648 116.659 547.068 116.908 547.317C117.169 547.555 117.526 547.674 117.979 547.674C118.274 547.674 118.574 547.629 118.88 547.538V548.932C118.506 549.057 118.081 549.119 117.605 549.119C116.721 549.119 116.035 548.87 115.548 548.371C115.061 547.872 114.817 547.147 114.817 546.195V541.758H113.151V540.432H114.817V538.29L116.534 537.695V540.432H118.897V541.758H116.534ZM128.66 540.432V549H126.96V547.538C126.711 548.048 126.337 548.439 125.838 548.711C125.351 548.983 124.778 549.119 124.121 549.119C123.362 549.119 122.693 548.938 122.115 548.575C121.548 548.212 121.106 547.702 120.789 547.045C120.472 546.376 120.313 545.6 120.313 544.716C120.313 543.832 120.472 543.05 120.789 542.37C121.118 541.69 121.571 541.163 122.149 540.789C122.727 540.415 123.384 540.228 124.121 540.228C124.778 540.228 125.351 540.37 125.838 540.653C126.325 540.925 126.699 541.316 126.96 541.826V540.432H128.66ZM124.529 547.759C125.3 547.759 125.895 547.493 126.314 546.96C126.745 546.416 126.96 545.657 126.96 544.682C126.96 543.696 126.745 542.937 126.314 542.404C125.895 541.871 125.294 541.605 124.512 541.605C123.741 541.605 123.135 541.883 122.693 542.438C122.262 542.982 122.047 543.741 122.047 544.716C122.047 545.679 122.262 546.427 122.693 546.96C123.135 547.493 123.747 547.759 124.529 547.759ZM133.749 541.758V546.059C133.749 546.648 133.874 547.068 134.123 547.317C134.384 547.555 134.741 547.674 135.194 547.674C135.489 547.674 135.789 547.629 136.095 547.538V548.932C135.721 549.057 135.296 549.119 134.82 549.119C133.936 549.119 133.251 548.87 132.763 548.371C132.276 547.872 132.032 547.147 132.032 546.195V541.758H130.366V540.432H132.032V538.29L133.749 537.695V540.432H136.112V541.758H133.749ZM138.038 540.432H139.738V549H138.038V540.432ZM139.874 536.692V538.494H137.885V536.692H139.874ZM146.284 549.119C145.445 549.119 144.708 548.938 144.074 548.575C143.439 548.212 142.946 547.697 142.595 547.028C142.255 546.359 142.085 545.577 142.085 544.682C142.085 543.787 142.255 543.005 142.595 542.336C142.946 541.656 143.439 541.135 144.074 540.772C144.708 540.409 145.445 540.228 146.284 540.228C147.111 540.228 147.842 540.409 148.477 540.772C149.111 541.135 149.599 541.656 149.939 542.336C150.29 543.005 150.466 543.787 150.466 544.682C150.466 545.577 150.29 546.359 149.939 547.028C149.599 547.697 149.111 548.212 148.477 548.575C147.842 548.938 147.111 549.119 146.284 549.119ZM146.267 547.759C147.06 547.759 147.666 547.498 148.086 546.977C148.505 546.456 148.715 545.691 148.715 544.682C148.715 543.696 148.499 542.937 148.069 542.404C147.649 541.871 147.054 541.605 146.284 541.605C145.502 541.605 144.895 541.871 144.465 542.404C144.034 542.937 143.819 543.696 143.819 544.682C143.819 545.691 144.028 546.456 144.448 546.977C144.878 547.498 145.485 547.759 146.267 547.759ZM157.369 540.228C159.42 540.228 160.446 541.373 160.446 543.662V549H158.729V543.764C158.729 543.016 158.581 542.472 158.287 542.132C158.003 541.792 157.544 541.622 156.91 541.622C156.184 541.622 155.601 541.849 155.159 542.302C154.728 542.755 154.513 543.362 154.513 544.121V549H152.813V542.846C152.813 541.951 152.767 541.146 152.677 540.432H154.275L154.428 541.911C154.7 541.367 155.091 540.953 155.601 540.67C156.122 540.375 156.711 540.228 157.369 540.228Z" fill="#252525"/>
<path d="M93.7752 457.183C94.5968 453.796 99.4144 453.796 100.236 457.183C100.359 457.691 100.601 458.164 100.941 458.562C101.282 458.959 101.711 459.271 102.195 459.471C102.678 459.672 103.202 459.755 103.724 459.715C104.246 459.674 104.751 459.511 105.198 459.238C108.174 457.426 111.582 460.831 109.769 463.809C109.497 464.256 109.334 464.761 109.294 465.282C109.253 465.804 109.336 466.327 109.537 466.811C109.737 467.294 110.048 467.723 110.445 468.064C110.843 468.404 111.314 468.646 111.823 468.769C115.209 469.591 115.209 474.409 111.823 475.23C111.314 475.353 110.842 475.595 110.444 475.936C110.046 476.276 109.734 476.705 109.534 477.189C109.334 477.673 109.25 478.197 109.291 478.719C109.331 479.24 109.494 479.745 109.767 480.192C111.58 483.168 108.174 486.576 105.196 484.763C104.749 484.491 104.245 484.328 103.723 484.288C103.202 484.247 102.678 484.331 102.195 484.531C101.711 484.731 101.282 485.042 100.942 485.44C100.601 485.837 100.36 486.309 100.236 486.817C99.4144 490.204 94.5968 490.204 93.7752 486.817C93.652 486.308 93.4103 485.836 93.0699 485.438C92.7296 485.04 92.3001 484.729 91.8165 484.528C91.3329 484.328 90.8088 484.245 90.2869 484.285C89.7649 484.326 89.26 484.489 88.813 484.761C85.8372 486.574 82.4294 483.168 84.2423 480.19C84.5144 479.744 84.6773 479.239 84.7177 478.718C84.758 478.196 84.6748 477.672 84.4746 477.189C84.2745 476.706 83.9632 476.276 83.5659 475.936C83.1686 475.596 82.6967 475.354 82.1884 475.23C78.8018 474.409 78.8018 469.591 82.1884 468.769C82.6971 468.646 83.1696 468.405 83.5673 468.064C83.965 467.724 84.2767 467.294 84.4771 466.811C84.6775 466.327 84.7608 465.803 84.7203 465.281C84.6799 464.759 84.5167 464.254 84.2442 463.807C82.4314 460.831 85.8372 457.424 88.8149 459.237C90.7435 460.409 93.2429 459.372 93.7752 457.183Z" stroke="#46AC34" stroke-width="3" stroke-linecap="round" stroke-linejoin="round"/>
<path d="M97.0042 475.857C99.1348 475.857 100.862 474.13 100.862 472C100.862 469.87 99.1348 468.143 97.0042 468.143C94.8737 468.143 93.1465 469.87 93.1465 472C93.1465 474.13 94.8737 475.857 97.0042 475.857Z" stroke="#46AC34" stroke-width="3" stroke-linecap="round" stroke-linejoin="round"/>
<path d="M70 468.491C70.8571 461.98 74.068 456.003 79.0316 451.679C83.9952 447.355 90.3712 444.98 96.9661 445C103.561 445.02 109.923 447.432 114.86 451.785C119.798 456.139 122.973 462.135 123.791 468.651C124.609 475.167 123.014 481.757 119.304 487.187C115.595 492.616 110.025 496.514 103.638 498.149C97.2509 499.785 90.4841 499.046 84.6044 496.072" stroke="#46AC34" stroke-width="3" stroke-linecap="round" stroke-linejoin="round"/>
<defs>
<filter id="filter0_d_1348_1428" x="0" y="410" width="193.699" height="193.558" filterUnits="userSpaceOnUse" color-interpolation-filters="sRGB">
<feFlood flood-opacity="0" result="BackgroundImageFix"/>
<feColorMatrix in="SourceAlpha" type="matrix" values="0 0 0 0 0 0 0 0 0 0 0 0 0 0 0 0 0 0 127 0" result="hardAlpha"/>
<feOffset dy="4"/>
<feGaussianBlur stdDeviation="2"/>
<feComposite in2="hardAlpha" operator="out"/>
<feColorMatrix type="matrix" values="0 0 0 0 0 0 0 0 0 0 0 0 0 0 0 0 0 0 0.25 0"/>
<feBlend mode="normal" in2="BackgroundImageFix" result="effect1_dropShadow_1348_1428"/>
<feBlend mode="normal" in="SourceGraphic" in2="effect1_dropShadow_1348_1428" result="shape"/>
</filter>
<filter id="filter1_d_1348_1428" x="474" y="410" width="193.699" height="193.558" filterUnits="userSpaceOnUse" color-interpolation-filters="sRGB">
<feFlood flood-opacity="0" result="BackgroundImageFix"/>
<feColorMatrix in="SourceAlpha" type="matrix" values="0 0 0 0 0 0 0 0 0 0 0 0 0 0 0 0 0 0 127 0" result="hardAlpha"/>
<feOffset dy="4"/>
<feGaussianBlur stdDeviation="2"/>
<feComposite in2="hardAlpha" operator="out"/>
<feColorMatrix type="matrix" values="0 0 0 0 0 0 0 0 0 0 0 0 0 0 0 0 0 0 0.25 0"/>
<feBlend mode="normal" in2="BackgroundImageFix" result="effect1_dropShadow_1348_1428"/>
<feBlend mode="normal" in="SourceGraphic" in2="effect1_dropShadow_1348_1428" result="shape"/>
</filter>
<filter id="filter2_d_1348_1428" x="237" y="0" width="193.699" height="193.558" filterUnits="userSpaceOnUse" color-interpolation-filters="sRGB">
<feFlood flood-opacity="0" result="BackgroundImageFix"/>
<feColorMatrix in="SourceAlpha" type="matrix" values="0 0 0 0 0 0 0 0 0 0 0 0 0 0 0 0 0 0 127 0" result="hardAlpha"/>
<feOffset dy="4"/>
<feGaussianBlur stdDeviation="2"/>
<feComposite in2="hardAlpha" operator="out"/>
<feColorMatrix type="matrix" values="0 0 0 0 0 0 0 0 0 0 0 0 0 0 0 0 0 0 0.25 0"/>
<feBlend mode="normal" in2="BackgroundImageFix" result="effect1_dropShadow_1348_1428"/>
<feBlend mode="normal" in="SourceGraphic" in2="effect1_dropShadow_1348_1428" result="shape"/>
</filter>
</defs>
</svg>
