<svg width="668" height="638" viewBox="0 0 668 638" fill="none" xmlns="http://www.w3.org/2000/svg">
<path d="M332.915 92.4304C333.154 92.5686 333.46 92.4868 333.598 92.2478L333.659 92.1422L333.72 92.2478C333.858 92.4869 334.164 92.5687 334.403 92.4305L337.854 98.4005C337.615 98.5387 337.533 98.8445 337.671 99.0836L340.635 104.21C340.773 104.449 341.079 104.531 341.318 104.393L342.793 106.945C342.554 107.083 342.472 107.389 342.611 107.628L343.598 109.337C343.737 109.576 344.042 109.658 344.281 109.52L347.732 115.49C347.493 115.628 347.412 115.934 347.55 116.173L350.513 121.3C350.651 121.539 350.957 121.62 351.196 121.482L352.672 124.034C352.433 124.173 352.351 124.478 352.489 124.717L353.477 126.426C353.615 126.665 353.921 126.747 354.16 126.609L357.611 132.579C357.372 132.717 357.29 133.023 357.428 133.262L360.392 138.389C360.53 138.628 360.836 138.71 361.075 138.572L362.55 141.124C362.311 141.262 362.229 141.568 362.367 141.807L363.355 143.516C363.493 143.755 363.799 143.837 364.038 143.698L367.489 149.668C367.25 149.806 367.168 150.112 367.307 150.351L370.27 155.478C370.408 155.717 370.714 155.799 370.953 155.661L372.429 158.213C372.19 158.351 372.108 158.657 372.246 158.896L373.234 160.605C373.372 160.844 373.678 160.926 373.917 160.788L377.368 166.758C377.129 166.896 377.047 167.202 377.185 167.441L380.149 172.567C380.287 172.807 380.593 172.888 380.832 172.75L382.307 175.302C382.068 175.44 381.986 175.746 382.124 175.985L383.112 177.694C383.25 177.933 383.556 178.015 383.795 177.877L387.246 183.847C387.007 183.985 386.925 184.291 387.064 184.53L390.027 189.657C390.165 189.896 390.471 189.978 390.71 189.839L392.186 192.391C391.946 192.53 391.865 192.835 392.003 193.075L392.991 194.783C393.129 195.023 393.435 195.104 393.674 194.966L397.125 200.936C396.886 201.074 396.804 201.38 396.942 201.619L399.906 206.746C400.044 206.985 400.35 207.067 400.589 206.929L402.064 209.481C401.825 209.619 401.743 209.925 401.881 210.164L402.869 211.873C403.007 212.112 403.313 212.194 403.552 212.055L407.003 218.025C406.764 218.164 406.682 218.469 406.821 218.708L409.784 223.835C409.922 224.074 410.228 224.156 410.467 224.018L411.942 226.57C411.703 226.708 411.622 227.014 411.76 227.253L412.748 228.962C412.886 229.201 413.192 229.283 413.431 229.145L416.882 235.115C416.643 235.253 416.561 235.559 416.699 235.798L419.663 240.925C419.801 241.164 420.107 241.245 420.346 241.107L421.821 243.659C421.582 243.797 421.5 244.103 421.638 244.342L422.626 246.051C422.764 246.29 423.07 246.372 423.309 246.234L426.76 252.204C426.521 252.342 426.439 252.648 426.578 252.887L429.541 258.014C429.679 258.253 429.985 258.335 430.224 258.196L431.699 260.749C431.46 260.887 431.379 261.193 431.517 261.432L432.505 263.141C432.643 263.38 432.949 263.461 433.188 263.323L436.639 269.293C436.4 269.431 436.318 269.737 436.456 269.976L439.42 275.103C439.558 275.342 439.864 275.424 440.103 275.286L441.578 277.838C441.339 277.976 441.257 278.282 441.395 278.521L442.383 280.23C442.521 280.469 442.827 280.551 443.066 280.413L446.517 286.382C446.278 286.521 446.196 286.826 446.334 287.066L449.298 292.192C449.436 292.431 449.742 292.513 449.981 292.375L451.456 294.927C451.217 295.065 451.135 295.371 451.274 295.61L452.262 297.319C452.4 297.558 452.706 297.64 452.945 297.502L456.396 303.472C456.156 303.61 456.075 303.916 456.213 304.155L459.176 309.282C459.315 309.521 459.621 309.602 459.86 309.464L461.335 312.016C461.096 312.155 461.014 312.46 461.152 312.699L462.14 314.408C462.278 314.647 462.584 314.729 462.823 314.591L466.274 320.561C466.035 320.699 465.953 321.005 466.091 321.244L469.055 326.371C469.193 326.61 469.499 326.692 469.738 326.554L471.213 329.106C470.974 329.244 470.892 329.55 471.031 329.789L472.018 331.498C472.157 331.737 472.463 331.819 472.702 331.68L476.153 337.65C475.913 337.788 475.832 338.094 475.97 338.333L478.933 343.46C479.072 343.699 479.377 343.781 479.617 343.643L481.092 346.195C480.853 346.333 480.771 346.639 480.909 346.878L481.897 348.587C482.035 348.826 482.341 348.908 482.58 348.77L486.031 354.74C485.792 354.878 485.71 355.184 485.848 355.423L488.812 360.549C488.95 360.789 489.256 360.87 489.495 360.732L490.97 363.284C490.731 363.422 490.649 363.728 490.788 363.967L491.775 365.676C491.914 365.915 492.219 365.997 492.459 365.859L495.909 371.829C495.67 371.967 495.589 372.273 495.727 372.512L498.69 377.639C498.829 377.878 499.134 377.96 499.373 377.821L500.849 380.373C500.61 380.512 500.528 380.818 500.666 381.057L501.654 382.765C501.792 383.005 502.098 383.086 502.337 382.948L505.788 388.918C505.549 389.056 505.467 389.362 505.605 389.601L508.569 394.728C508.707 394.967 509.013 395.049 509.252 394.911L510.727 397.463C510.488 397.601 510.406 397.907 510.545 398.146L511.532 399.855C511.671 400.094 511.976 400.176 512.215 400.037L515.666 406.007C515.427 406.146 515.346 406.451 515.484 406.69L518.447 411.817C518.586 412.056 518.891 412.138 519.13 412L520.606 414.552C520.367 414.69 520.285 414.996 520.423 415.235L521.411 416.944C521.549 417.183 521.855 417.265 522.094 417.127L525.545 423.097C525.306 423.235 525.224 423.541 525.362 423.78L528.326 428.907C528.464 429.146 528.77 429.227 529.009 429.089L530.484 431.641C530.245 431.78 530.163 432.085 530.301 432.324L531.289 434.033C531.428 434.272 531.733 434.354 531.972 434.216L535.423 440.186C535.184 440.324 535.103 440.63 535.241 440.869L538.204 445.996C538.342 446.235 538.648 446.317 538.887 446.178L540.363 448.731C540.124 448.869 540.042 449.175 540.18 449.414L541.168 451.123C541.306 451.362 541.612 451.443 541.851 451.305L545.302 457.275C545.063 457.413 544.981 457.719 545.119 457.958L548.083 463.085C548.221 463.324 548.527 463.406 548.766 463.268L550.241 465.82C550.002 465.958 549.92 466.264 550.058 466.503L551.046 468.212C551.184 468.451 551.49 468.533 551.729 468.395L555.18 474.365C554.941 474.503 554.859 474.809 554.998 475.048L557.961 480.174C558.099 480.413 558.405 480.495 558.644 480.357L560.12 482.909C559.88 483.047 559.799 483.353 559.937 483.592L560.925 485.301C561.063 485.54 561.369 485.622 561.608 485.484L565.059 491.454C564.82 491.592 564.738 491.898 564.876 492.137L567.84 497.264C567.978 497.503 568.284 497.585 568.523 497.446L569.998 499.998C569.759 500.137 569.677 500.442 569.815 500.682L569.876 500.786H569.754C569.478 500.786 569.254 501.01 569.254 501.286H562.352C562.352 501.01 562.128 500.786 561.852 500.786H555.924C555.648 500.786 555.424 501.01 555.424 501.286H552.473C552.473 501.01 552.249 500.786 551.973 500.786H549.997C549.721 500.786 549.497 501.01 549.497 501.286H542.595C542.595 501.01 542.371 500.786 542.095 500.786H536.168C535.891 500.786 535.668 501.01 535.668 501.286H532.716C532.716 501.01 532.492 500.786 532.216 500.786H530.24C529.964 500.786 529.74 501.01 529.74 501.286H522.838C522.838 501.01 522.614 500.786 522.338 500.786H516.411C516.134 500.786 515.911 501.01 515.911 501.286H512.959C512.959 501.01 512.735 500.786 512.459 500.786H510.483C510.207 500.786 509.983 501.01 509.983 501.286H503.081C503.081 501.01 502.857 500.786 502.581 500.786H496.654C496.377 500.786 496.154 501.01 496.154 501.286H493.202C493.202 501.01 492.978 500.786 492.702 500.786H490.727C490.45 500.786 490.227 501.01 490.227 501.286H483.324C483.324 501.01 483.1 500.786 482.824 500.786H476.897C476.621 500.786 476.397 501.01 476.397 501.286H473.445C473.445 501.01 473.221 500.786 472.945 500.786H470.97C470.693 500.786 470.47 501.01 470.47 501.286H463.567C463.567 501.01 463.343 500.786 463.067 500.786H457.14C456.864 500.786 456.64 501.01 456.64 501.286H453.688C453.688 501.01 453.464 500.786 453.188 500.786H451.213C450.936 500.786 450.713 501.01 450.713 501.286H443.81C443.81 501.01 443.586 500.786 443.31 500.786H437.383C437.107 500.786 436.883 501.01 436.883 501.286H433.931C433.931 501.01 433.707 500.786 433.431 500.786H431.456C431.18 500.786 430.956 501.01 430.956 501.286H424.053C424.053 501.01 423.829 500.786 423.553 500.786H417.626C417.35 500.786 417.126 501.01 417.126 501.286H414.174C414.174 501.01 413.951 500.786 413.674 500.786H411.699C411.423 500.786 411.199 501.01 411.199 501.286H404.296C404.296 501.01 404.072 500.786 403.796 500.786H397.869C397.593 500.786 397.369 501.01 397.369 501.286H394.417C394.417 501.01 394.194 500.786 393.917 500.786H391.942C391.666 500.786 391.442 501.01 391.442 501.286H384.539C384.539 501.01 384.315 500.786 384.039 500.786H378.112C377.836 500.786 377.612 501.01 377.612 501.286H374.66C374.66 501.01 374.437 500.786 374.16 500.786H372.185C371.909 500.786 371.685 501.01 371.685 501.286H364.782C364.782 501.01 364.558 500.786 364.282 500.786H358.355C358.079 500.786 357.855 501.01 357.855 501.286H354.904C354.904 501.01 354.68 500.786 354.404 500.786H352.428C352.152 500.786 351.928 501.01 351.928 501.286H345.025C345.025 501.01 344.801 500.786 344.525 500.786H338.598C338.322 500.786 338.098 501.01 338.098 501.286H335.147C335.147 501.01 334.923 500.786 334.647 500.786H332.671C332.395 500.786 332.171 501.01 332.171 501.286H325.268C325.268 501.01 325.044 500.786 324.768 500.786H318.841C318.565 500.786 318.341 501.01 318.341 501.286H315.39C315.39 501.01 315.166 500.786 314.89 500.786H312.914C312.638 500.786 312.414 501.01 312.414 501.286H305.511C305.511 501.01 305.287 500.786 305.011 500.786H299.084C298.808 500.786 298.584 501.01 298.584 501.286H295.633C295.633 501.01 295.409 500.786 295.133 500.786H293.157C292.881 500.786 292.657 501.01 292.657 501.286H285.754C285.754 501.01 285.53 500.786 285.254 500.786H279.327C279.051 500.786 278.827 501.01 278.827 501.286H275.876C275.876 501.01 275.652 500.786 275.376 500.786H273.4C273.124 500.786 272.9 501.01 272.9 501.286H265.997C265.997 501.01 265.773 500.786 265.497 500.786H259.57C259.294 500.786 259.07 501.01 259.07 501.286H256.119C256.119 501.01 255.895 500.786 255.619 500.786H253.643C253.367 500.786 253.143 501.01 253.143 501.286H246.24C246.24 501.01 246.016 500.786 245.74 500.786H239.813C239.537 500.786 239.313 501.01 239.313 501.286H236.362C236.362 501.01 236.138 500.786 235.862 500.786H233.886C233.61 500.786 233.386 501.01 233.386 501.286H226.483C226.483 501.01 226.26 500.786 225.983 500.786H220.056C219.78 500.786 219.556 501.01 219.556 501.286H216.605C216.605 501.01 216.381 500.786 216.105 500.786H214.129C213.853 500.786 213.629 501.01 213.629 501.286H206.726C206.726 501.01 206.503 500.786 206.226 500.786H200.299C200.023 500.786 199.799 501.01 199.799 501.286H196.848C196.848 501.01 196.624 500.786 196.348 500.786H194.372C194.096 500.786 193.872 501.01 193.872 501.286H186.969C186.969 501.01 186.746 500.786 186.469 500.786H180.542C180.266 500.786 180.042 501.01 180.042 501.286H177.091C177.091 501.01 176.867 500.786 176.591 500.786H174.615C174.339 500.786 174.115 501.01 174.115 501.286H167.213C167.213 501.01 166.989 500.786 166.713 500.786H160.785C160.509 500.786 160.285 501.01 160.285 501.286H157.334C157.334 501.01 157.11 500.786 156.834 500.786H154.858C154.582 500.786 154.358 501.01 154.358 501.286H147.456C147.456 501.01 147.232 500.786 146.956 500.786H141.028C140.752 500.786 140.528 501.01 140.528 501.286H137.577C137.577 501.01 137.353 500.786 137.077 500.786H135.101C134.825 500.786 134.601 501.01 134.601 501.286H127.699C127.699 501.01 127.475 500.786 127.199 500.786H121.272C120.995 500.786 120.772 501.01 120.772 501.286H117.82C117.82 501.01 117.596 500.786 117.32 500.786H115.344C115.068 500.786 114.844 501.01 114.844 501.286H107.942C107.942 501.01 107.718 500.786 107.442 500.786H101.515C101.238 500.786 101.015 501.01 101.015 501.286H98.0632C98.0632 501.01 97.8394 500.786 97.5632 500.786H97.4419L97.5022 500.681C97.6404 500.442 97.5586 500.137 97.3196 499.998L100.771 494.028C101.01 494.167 101.315 494.085 101.454 493.846L104.417 488.719C104.555 488.48 104.474 488.174 104.235 488.036L105.71 485.484C105.949 485.622 106.255 485.54 106.393 485.301L107.381 483.592C107.519 483.353 107.437 483.047 107.198 482.909L110.649 476.939C110.888 477.077 111.194 476.996 111.332 476.756L114.296 471.63C114.434 471.391 114.352 471.085 114.113 470.947L115.588 468.394C115.827 468.533 116.133 468.451 116.271 468.212L117.259 466.503C117.397 466.264 117.316 465.958 117.077 465.82L120.527 459.85C120.767 459.988 121.072 459.906 121.211 459.667L124.174 454.54C124.312 454.301 124.231 453.995 123.991 453.857L125.467 451.305C125.706 451.443 126.012 451.362 126.15 451.123L127.138 449.414C127.276 449.175 127.194 448.869 126.955 448.73L130.406 442.761C130.645 442.899 130.951 442.817 131.089 442.578L134.053 437.451C134.191 437.212 134.109 436.906 133.87 436.768L135.345 434.216C135.584 434.354 135.89 434.272 136.028 434.033L137.016 432.324C137.154 432.085 137.073 431.779 136.833 431.641L140.284 425.671C140.523 425.809 140.829 425.728 140.967 425.489L143.931 420.362C144.069 420.123 143.987 419.817 143.748 419.679L145.224 417.127C145.463 417.265 145.769 417.183 145.907 416.944L146.895 415.235C147.033 414.996 146.951 414.69 146.712 414.552L150.163 408.582C150.402 408.72 150.708 408.638 150.846 408.399L153.81 403.273C153.948 403.034 153.866 402.728 153.627 402.589L155.102 400.037C155.341 400.176 155.647 400.094 155.785 399.855L156.773 398.146C156.911 397.907 156.829 397.601 156.59 397.463L160.041 391.493C160.28 391.631 160.586 391.549 160.724 391.31L163.688 386.183C163.826 385.944 163.744 385.638 163.505 385.5L164.981 382.948C165.22 383.086 165.525 383.005 165.664 382.765L166.652 381.057C166.79 380.817 166.708 380.512 166.469 380.373L169.92 374.403C170.159 374.542 170.465 374.46 170.603 374.221L173.566 369.094C173.705 368.855 173.623 368.549 173.384 368.411L174.859 365.859C175.098 365.997 175.404 365.915 175.542 365.676L176.53 363.967C176.668 363.728 176.586 363.422 176.347 363.284L179.798 357.314C180.037 357.452 180.343 357.371 180.481 357.132L183.445 352.005C183.583 351.766 183.501 351.46 183.262 351.322L184.738 348.77C184.977 348.908 185.282 348.826 185.421 348.587L186.408 346.878C186.547 346.639 186.465 346.333 186.226 346.195L189.677 340.225C189.916 340.363 190.222 340.281 190.36 340.042L193.323 334.915C193.462 334.676 193.38 334.371 193.141 334.232L194.616 331.68C194.855 331.818 195.161 331.737 195.299 331.498L196.287 329.789C196.425 329.55 196.343 329.244 196.104 329.106L199.555 323.136C199.794 323.274 200.1 323.192 200.238 322.953L203.202 317.826C203.34 317.587 203.258 317.281 203.019 317.143L204.494 314.591C204.734 314.729 205.039 314.647 205.178 314.408L206.165 312.699C206.304 312.46 206.222 312.155 205.983 312.016L209.434 306.046C209.673 306.185 209.979 306.103 210.117 305.864L213.08 300.737C213.219 300.498 213.137 300.192 212.898 300.054L214.373 297.502C214.612 297.64 214.918 297.558 215.056 297.319L216.044 295.61C216.182 295.371 216.1 295.065 215.861 294.927L219.312 288.957C219.551 289.095 219.857 289.014 219.995 288.774L222.959 283.648C223.097 283.409 223.015 283.103 222.776 282.965L224.251 280.412C224.49 280.551 224.796 280.469 224.935 280.23L225.922 278.521C226.061 278.282 225.979 277.976 225.74 277.838L229.191 271.868C229.43 272.006 229.736 271.924 229.874 271.685L232.837 266.558C232.975 266.319 232.894 266.013 232.655 265.875L234.13 263.323C234.369 263.461 234.675 263.38 234.813 263.141L235.801 261.432C235.939 261.193 235.857 260.887 235.618 260.749L239.069 254.779C239.308 254.917 239.614 254.835 239.752 254.596L242.716 249.469C242.854 249.23 242.772 248.924 242.533 248.786L244.008 246.234C244.247 246.372 244.553 246.29 244.691 246.051L245.679 244.342C245.818 244.103 245.736 243.797 245.497 243.659L248.948 237.689C249.187 237.827 249.493 237.746 249.631 237.507L252.594 232.38C252.732 232.141 252.651 231.835 252.412 231.697L253.887 229.145C254.126 229.283 254.432 229.201 254.57 228.962L255.558 227.253C255.696 227.014 255.614 226.708 255.375 226.57L258.826 220.6C259.065 220.738 259.371 220.656 259.509 220.417L262.473 215.291C262.611 215.052 262.529 214.746 262.29 214.607L263.765 212.055C264.004 212.194 264.31 212.112 264.448 211.873L265.436 210.164C265.574 209.925 265.493 209.619 265.254 209.481L268.705 203.511C268.944 203.649 269.249 203.567 269.388 203.328L272.351 198.201C272.489 197.962 272.408 197.656 272.169 197.518L273.644 194.966C273.883 195.104 274.189 195.023 274.327 194.783L275.315 193.075C275.453 192.835 275.371 192.53 275.132 192.391L278.583 186.421C278.822 186.56 279.128 186.478 279.266 186.239L282.23 181.112C282.368 180.873 282.286 180.567 282.047 180.429L283.522 177.877C283.761 178.015 284.067 177.933 284.205 177.694L285.193 175.985C285.331 175.746 285.25 175.44 285.011 175.302L288.461 169.332C288.701 169.47 289.006 169.389 289.145 169.15L292.108 164.023C292.246 163.784 292.165 163.478 291.925 163.34L293.401 160.788C293.64 160.926 293.946 160.844 294.084 160.605L295.072 158.896C295.21 158.657 295.128 158.351 294.889 158.213L298.34 152.243C298.579 152.381 298.885 152.299 299.023 152.06L301.987 146.933C302.125 146.694 302.043 146.389 301.804 146.25L303.279 143.698C303.518 143.836 303.824 143.755 303.962 143.516L304.95 141.807C305.088 141.568 305.007 141.262 304.768 141.124L308.218 135.154C308.458 135.292 308.763 135.21 308.902 134.971L311.865 129.844C312.003 129.605 311.922 129.299 311.682 129.161L313.158 126.609C313.397 126.747 313.703 126.665 313.841 126.426L314.829 124.717C314.967 124.478 314.885 124.172 314.646 124.034L318.097 118.064C318.336 118.203 318.642 118.121 318.78 117.882L321.744 112.755C321.882 112.516 321.8 112.21 321.561 112.072L323.036 109.52C323.275 109.658 323.581 109.576 323.719 109.337L324.707 107.628C324.845 107.389 324.764 107.083 324.524 106.945L327.975 100.975C328.214 101.113 328.52 101.031 328.659 100.792L331.622 95.6656C331.76 95.4265 331.678 95.1207 331.439 94.9825L332.915 92.4304Z" stroke="#F1F1F1" stroke-linecap="round" stroke-dasharray="2 4 6 8"/>
<g filter="url(#filter0_d_1348_1431)">
<ellipse cx="96.8918" cy="502.779" rx="92.8918" ry="92.7792" fill="#DFEFD4"/>
<ellipse opacity="0.7" cx="96.4255" cy="502.315" rx="0.464529" ry="0.463896" fill="black"/>
</g>
<g filter="url(#filter1_d_1348_1431)">
<ellipse cx="571.109" cy="502.779" rx="92.8918" ry="92.7792" fill="#DFEFD4"/>
<ellipse opacity="0.7" cx="570.161" cy="500.687" rx="0.456336" ry="0.455714" fill="black"/>
</g>
<g filter="url(#filter2_d_1348_1431)">
<ellipse cx="334.001" cy="92.7792" rx="92.8918" ry="92.7792" fill="#DFEFD4"/>
<ellipse cx="333.535" cy="92.3152" rx="0.464529" ry="0.463896" fill="black"/>
</g>
<path d="M287.634 99.896H291.867C293.828 99.896 295.347 100.423 296.423 101.477C297.5 102.531 298.038 104.016 298.038 105.931C298.038 107.858 297.5 109.354 296.423 110.419C295.347 111.473 293.828 112 291.867 112H287.634V99.896ZM291.765 110.538C294.746 110.538 296.236 109.002 296.236 105.931C296.236 102.882 294.746 101.358 291.765 101.358H289.385V110.538H291.765ZM307.931 107.75H301.811C301.868 109.756 302.78 110.759 304.548 110.759C305.534 110.759 306.435 110.436 307.251 109.79L307.778 111.014C307.393 111.354 306.9 111.626 306.299 111.83C305.71 112.023 305.115 112.119 304.514 112.119C303.143 112.119 302.066 111.728 301.284 110.946C300.502 110.153 300.111 109.07 300.111 107.699C300.111 106.826 300.281 106.05 300.621 105.37C300.973 104.69 301.46 104.163 302.083 103.789C302.707 103.415 303.415 103.228 304.208 103.228C305.364 103.228 306.271 103.602 306.928 104.35C307.597 105.098 307.931 106.135 307.931 107.461V107.75ZM304.242 104.503C303.596 104.503 303.069 104.696 302.661 105.081C302.253 105.466 301.993 106.016 301.879 106.73H306.418C306.35 106.005 306.129 105.455 305.755 105.081C305.381 104.696 304.877 104.503 304.242 104.503ZM313.964 112.119C313.103 112.119 312.349 111.938 311.703 111.575C311.069 111.212 310.581 110.702 310.241 110.045C309.901 109.376 309.731 108.6 309.731 107.716C309.731 106.832 309.907 106.05 310.258 105.37C310.621 104.69 311.125 104.163 311.771 103.789C312.417 103.415 313.171 103.228 314.032 103.228C314.633 103.228 315.211 103.33 315.766 103.534C316.322 103.727 316.769 103.993 317.109 104.333L316.582 105.574C315.778 104.939 314.967 104.622 314.151 104.622C313.324 104.622 312.678 104.894 312.213 105.438C311.749 105.971 311.516 106.724 311.516 107.699C311.516 108.674 311.749 109.427 312.213 109.96C312.678 110.481 313.324 110.742 314.151 110.742C314.99 110.742 315.8 110.425 316.582 109.79L317.109 111.031C316.747 111.371 316.282 111.637 315.715 111.83C315.16 112.023 314.576 112.119 313.964 112.119ZM319.065 99.488H320.765V112H319.065V99.488ZM331.068 103.432V112H329.402V110.572C329.13 111.071 328.756 111.456 328.28 111.728C327.804 111.989 327.265 112.119 326.665 112.119C324.602 112.119 323.571 110.974 323.571 108.685V103.432H325.271V108.668C325.271 109.371 325.412 109.892 325.696 110.232C325.99 110.561 326.432 110.725 327.022 110.725C327.724 110.725 328.285 110.498 328.705 110.045C329.135 109.592 329.351 108.991 329.351 108.243V103.432H331.068ZM336.15 104.758V109.059C336.15 109.648 336.274 110.068 336.524 110.317C336.784 110.555 337.141 110.674 337.595 110.674C337.889 110.674 338.19 110.629 338.496 110.538V111.932C338.122 112.057 337.697 112.119 337.221 112.119C336.337 112.119 335.651 111.87 335.164 111.371C334.676 110.872 334.433 110.147 334.433 109.195V104.758H332.767V103.432H334.433V101.29L336.15 100.695V103.432H338.513V104.758H336.15ZM342.649 104.758V109.059C342.649 109.648 342.773 110.068 343.023 110.317C343.283 110.555 343.64 110.674 344.094 110.674C344.388 110.674 344.689 110.629 344.995 110.538V111.932C344.621 112.057 344.196 112.119 343.72 112.119C342.836 112.119 342.15 111.87 341.663 111.371C341.175 110.872 340.932 110.147 340.932 109.195V104.758H339.266V103.432H340.932V101.29L342.649 100.695V103.432H345.012V104.758H342.649ZM354.248 107.75H348.128C348.184 109.756 349.097 110.759 350.865 110.759C351.851 110.759 352.752 110.436 353.568 109.79L354.095 111.014C353.709 111.354 353.216 111.626 352.616 111.83C352.026 112.023 351.431 112.119 350.831 112.119C349.459 112.119 348.383 111.728 347.601 110.946C346.819 110.153 346.428 109.07 346.428 107.699C346.428 106.826 346.598 106.05 346.938 105.37C347.289 104.69 347.776 104.163 348.4 103.789C349.023 103.415 349.731 103.228 350.525 103.228C351.681 103.228 352.587 103.602 353.245 104.35C353.913 105.098 354.248 106.135 354.248 107.461V107.75ZM350.559 104.503C349.913 104.503 349.386 104.696 348.978 105.081C348.57 105.466 348.309 106.016 348.196 106.73H352.735C352.667 106.005 352.446 105.455 352.072 105.081C351.698 104.696 351.193 104.503 350.559 104.503ZM360.825 103.228C361.086 103.228 361.358 103.268 361.641 103.347L361.607 104.911C361.301 104.798 360.967 104.741 360.604 104.741C359.822 104.741 359.233 104.979 358.836 105.455C358.451 105.92 358.258 106.509 358.258 107.223V112H356.558V105.846C356.558 104.951 356.513 104.146 356.422 103.432H358.02L358.173 104.979C358.4 104.412 358.751 103.982 359.227 103.687C359.703 103.381 360.236 103.228 360.825 103.228ZM370.433 107.75H364.313C364.37 109.756 365.282 110.759 367.05 110.759C368.036 110.759 368.937 110.436 369.753 109.79L370.28 111.014C369.895 111.354 369.402 111.626 368.801 111.83C368.212 112.023 367.617 112.119 367.016 112.119C365.645 112.119 364.568 111.728 363.786 110.946C363.004 110.153 362.613 109.07 362.613 107.699C362.613 106.826 362.783 106.05 363.123 105.37C363.475 104.69 363.962 104.163 364.585 103.789C365.209 103.415 365.917 103.228 366.71 103.228C367.866 103.228 368.773 103.602 369.43 104.35C370.099 105.098 370.433 106.135 370.433 107.461V107.75ZM366.744 104.503C366.098 104.503 365.571 104.696 365.163 105.081C364.755 105.466 364.495 106.016 364.381 106.73H368.92C368.852 106.005 368.631 105.455 368.257 105.081C367.883 104.696 367.379 104.503 366.744 104.503ZM380.581 99.488V112H378.881V110.538C378.631 111.048 378.257 111.439 377.759 111.711C377.271 111.983 376.699 112.119 376.042 112.119C375.305 112.119 374.648 111.932 374.07 111.558C373.492 111.184 373.038 110.663 372.71 109.994C372.392 109.314 372.234 108.532 372.234 107.648C372.234 106.764 372.392 105.988 372.71 105.319C373.027 104.65 373.469 104.135 374.036 103.772C374.614 103.409 375.282 103.228 376.042 103.228C376.688 103.228 377.254 103.364 377.742 103.636C378.24 103.908 378.614 104.293 378.864 104.792V99.488H380.581ZM376.433 110.759C377.215 110.759 377.815 110.493 378.235 109.96C378.665 109.416 378.881 108.657 378.881 107.682C378.881 106.707 378.665 105.954 378.235 105.421C377.815 104.877 377.22 104.605 376.45 104.605C375.668 104.605 375.056 104.871 374.614 105.404C374.183 105.937 373.968 106.685 373.968 107.648C373.968 108.623 374.183 109.388 374.614 109.943C375.056 110.487 375.662 110.759 376.433 110.759ZM303.583 124.228C304.319 124.228 304.977 124.415 305.555 124.789C306.133 125.163 306.58 125.69 306.898 126.37C307.226 127.05 307.391 127.832 307.391 128.716C307.391 129.6 307.232 130.376 306.915 131.045C306.597 131.702 306.15 132.212 305.572 132.575C304.994 132.938 304.331 133.119 303.583 133.119C302.925 133.119 302.347 132.983 301.849 132.711C301.361 132.428 300.993 132.025 300.744 131.504V136.672H299.044V126.846C299.044 125.951 298.998 125.146 298.908 124.432H300.506L300.676 126.013C300.902 125.446 301.271 125.01 301.781 124.704C302.291 124.387 302.891 124.228 303.583 124.228ZM303.192 131.759C303.962 131.759 304.563 131.493 304.994 130.96C305.424 130.427 305.64 129.679 305.64 128.716C305.64 127.741 305.424 126.982 304.994 126.438C304.563 125.883 303.962 125.605 303.192 125.605C302.398 125.605 301.792 125.871 301.373 126.404C300.953 126.937 300.744 127.696 300.744 128.682C300.744 129.668 300.953 130.427 301.373 130.96C301.803 131.493 302.41 131.759 303.192 131.759ZM317.58 124.432V133H315.88V131.538C315.631 132.048 315.257 132.439 314.758 132.711C314.271 132.983 313.698 133.119 313.041 133.119C312.282 133.119 311.613 132.938 311.035 132.575C310.468 132.212 310.026 131.702 309.709 131.045C309.392 130.376 309.233 129.6 309.233 128.716C309.233 127.832 309.392 127.05 309.709 126.37C310.038 125.69 310.491 125.163 311.069 124.789C311.647 124.415 312.304 124.228 313.041 124.228C313.698 124.228 314.271 124.37 314.758 124.653C315.245 124.925 315.619 125.316 315.88 125.826V124.432H317.58ZM313.449 131.759C314.22 131.759 314.815 131.493 315.234 130.96C315.665 130.416 315.88 129.657 315.88 128.682C315.88 127.696 315.665 126.937 315.234 126.404C314.815 125.871 314.214 125.605 313.432 125.605C312.661 125.605 312.055 125.883 311.613 126.438C311.182 126.982 310.967 127.741 310.967 128.716C310.967 129.679 311.182 130.427 311.613 130.96C312.055 131.493 312.667 131.759 313.449 131.759ZM328.228 124.432L324.233 133.697C323.791 134.706 323.236 135.442 322.567 135.907C321.91 136.383 321.094 136.7 320.119 136.859L319.745 135.533C320.55 135.352 321.156 135.114 321.564 134.819C321.984 134.536 322.318 134.105 322.567 133.527L322.873 132.813L319.269 124.432H321.088L323.774 131.062L326.511 124.432H328.228ZM339.672 124.228C341.576 124.228 342.528 125.373 342.528 127.662V133H340.811V127.747C340.811 127.01 340.68 126.472 340.42 126.132C340.17 125.792 339.762 125.622 339.196 125.622C338.538 125.622 338.017 125.849 337.632 126.302C337.258 126.755 337.071 127.373 337.071 128.155V133H335.354V127.747C335.354 127.01 335.223 126.472 334.963 126.132C334.713 125.792 334.305 125.622 333.739 125.622C333.081 125.622 332.56 125.849 332.175 126.302C331.789 126.755 331.597 127.373 331.597 128.155V133H329.897V126.846C329.897 125.951 329.851 125.146 329.761 124.432H331.359L331.512 125.86C331.761 125.339 332.118 124.936 332.583 124.653C333.047 124.37 333.591 124.228 334.215 124.228C335.541 124.228 336.408 124.778 336.816 125.877C337.076 125.367 337.456 124.965 337.955 124.67C338.465 124.375 339.037 124.228 339.672 124.228ZM352.638 128.75H346.518C346.574 130.756 347.487 131.759 349.255 131.759C350.241 131.759 351.142 131.436 351.958 130.79L352.485 132.014C352.099 132.354 351.606 132.626 351.006 132.83C350.416 133.023 349.821 133.119 349.221 133.119C347.849 133.119 346.773 132.728 345.991 131.946C345.209 131.153 344.818 130.07 344.818 128.699C344.818 127.826 344.988 127.05 345.328 126.37C345.679 125.69 346.166 125.163 346.79 124.789C347.413 124.415 348.121 124.228 348.915 124.228C350.071 124.228 350.977 124.602 351.635 125.35C352.303 126.098 352.638 127.135 352.638 128.461V128.75ZM348.949 125.503C348.303 125.503 347.776 125.696 347.368 126.081C346.96 126.466 346.699 127.016 346.586 127.73H351.125C351.057 127.005 350.836 126.455 350.462 126.081C350.088 125.696 349.583 125.503 348.949 125.503ZM359.504 124.228C361.555 124.228 362.581 125.373 362.581 127.662V133H360.864V127.764C360.864 127.016 360.717 126.472 360.422 126.132C360.139 125.792 359.68 125.622 359.045 125.622C358.32 125.622 357.736 125.849 357.294 126.302C356.863 126.755 356.648 127.362 356.648 128.121V133H354.948V126.846C354.948 125.951 354.903 125.146 354.812 124.432H356.41L356.563 125.911C356.835 125.367 357.226 124.953 357.736 124.67C358.257 124.375 358.847 124.228 359.504 124.228ZM367.592 125.758V130.059C367.592 130.648 367.717 131.068 367.966 131.317C368.227 131.555 368.584 131.674 369.037 131.674C369.332 131.674 369.632 131.629 369.938 131.538V132.932C369.564 133.057 369.139 133.119 368.663 133.119C367.779 133.119 367.093 132.87 366.606 132.371C366.119 131.872 365.875 131.147 365.875 130.195V125.758H364.209V124.432H365.875V122.29L367.592 121.695V124.432H369.955V125.758H367.592ZM301.256 154.119C299.76 154.119 298.581 153.756 297.72 153.031L298.23 151.79C299.125 152.47 300.151 152.81 301.307 152.81C301.896 152.81 302.344 152.714 302.65 152.521C302.956 152.317 303.109 152.034 303.109 151.671C303.109 151.365 303.001 151.127 302.786 150.957C302.582 150.776 302.23 150.623 301.732 150.498L300.304 150.158C299.556 149.999 298.983 149.722 298.587 149.325C298.201 148.917 298.009 148.413 298.009 147.812C298.009 147.041 298.315 146.418 298.927 145.942C299.55 145.466 300.372 145.228 301.392 145.228C302.004 145.228 302.582 145.324 303.126 145.517C303.681 145.71 304.151 145.982 304.537 146.333L304.01 147.54C303.182 146.883 302.31 146.554 301.392 146.554C300.836 146.554 300.406 146.662 300.1 146.877C299.794 147.081 299.641 147.37 299.641 147.744C299.641 148.039 299.737 148.277 299.93 148.458C300.122 148.639 300.428 148.781 300.848 148.883L302.31 149.24C303.126 149.421 303.726 149.71 304.112 150.107C304.508 150.492 304.707 150.997 304.707 151.62C304.707 152.391 304.395 153.003 303.772 153.456C303.16 153.898 302.321 154.119 301.256 154.119ZM310.76 154.119C309.921 154.119 309.184 153.938 308.55 153.575C307.915 153.212 307.422 152.697 307.071 152.028C306.731 151.359 306.561 150.577 306.561 149.682C306.561 148.787 306.731 148.005 307.071 147.336C307.422 146.656 307.915 146.135 308.55 145.772C309.184 145.409 309.921 145.228 310.76 145.228C311.587 145.228 312.318 145.409 312.953 145.772C313.587 146.135 314.075 146.656 314.415 147.336C314.766 148.005 314.942 148.787 314.942 149.682C314.942 150.577 314.766 151.359 314.415 152.028C314.075 152.697 313.587 153.212 312.953 153.575C312.318 153.938 311.587 154.119 310.76 154.119ZM310.743 152.759C311.536 152.759 312.142 152.498 312.562 151.977C312.981 151.456 313.191 150.691 313.191 149.682C313.191 148.696 312.975 147.937 312.545 147.404C312.125 146.871 311.53 146.605 310.76 146.605C309.978 146.605 309.371 146.871 308.941 147.404C308.51 147.937 308.295 148.696 308.295 149.682C308.295 150.691 308.504 151.456 308.924 151.977C309.354 152.498 309.961 152.759 310.743 152.759ZM317.289 141.488H318.989V154H317.289V141.488ZM329.291 145.432V154H327.625V152.572C327.353 153.071 326.979 153.456 326.503 153.728C326.027 153.989 325.489 154.119 324.888 154.119C322.826 154.119 321.794 152.974 321.794 150.685V145.432H323.494V150.668C323.494 151.371 323.636 151.892 323.919 152.232C324.214 152.561 324.656 152.725 325.245 152.725C325.948 152.725 326.509 152.498 326.928 152.045C327.359 151.592 327.574 150.991 327.574 150.243V145.432H329.291ZM334.373 146.758V151.059C334.373 151.648 334.498 152.068 334.747 152.317C335.008 152.555 335.365 152.674 335.818 152.674C336.113 152.674 336.413 152.629 336.719 152.538V153.932C336.345 154.057 335.92 154.119 335.444 154.119C334.56 154.119 333.875 153.87 333.387 153.371C332.9 152.872 332.656 152.147 332.656 151.195V146.758H330.99V145.432H332.656V143.29L334.373 142.695V145.432H336.736V146.758H334.373ZM338.662 145.432H340.362V154H338.662V145.432ZM340.498 141.692V143.494H338.509V141.692H340.498ZM346.908 154.119C346.069 154.119 345.332 153.938 344.698 153.575C344.063 153.212 343.57 152.697 343.219 152.028C342.879 151.359 342.709 150.577 342.709 149.682C342.709 148.787 342.879 148.005 343.219 147.336C343.57 146.656 344.063 146.135 344.698 145.772C345.332 145.409 346.069 145.228 346.908 145.228C347.735 145.228 348.466 145.409 349.101 145.772C349.735 146.135 350.223 146.656 350.563 147.336C350.914 148.005 351.09 148.787 351.09 149.682C351.09 150.577 350.914 151.359 350.563 152.028C350.223 152.697 349.735 153.212 349.101 153.575C348.466 153.938 347.735 154.119 346.908 154.119ZM346.891 152.759C347.684 152.759 348.29 152.498 348.71 151.977C349.129 151.456 349.339 150.691 349.339 149.682C349.339 148.696 349.123 147.937 348.693 147.404C348.273 146.871 347.678 146.605 346.908 146.605C346.126 146.605 345.519 146.871 345.089 147.404C344.658 147.937 344.443 148.696 344.443 149.682C344.443 150.691 344.652 151.456 345.072 151.977C345.502 152.498 346.109 152.759 346.891 152.759ZM357.993 145.228C360.044 145.228 361.07 146.373 361.07 148.662V154H359.353V148.764C359.353 148.016 359.205 147.472 358.911 147.132C358.627 146.792 358.168 146.622 357.534 146.622C356.808 146.622 356.225 146.849 355.783 147.302C355.352 147.755 355.137 148.362 355.137 149.121V154H353.437V147.846C353.437 146.951 353.391 146.146 353.301 145.432H354.899L355.052 146.911C355.324 146.367 355.715 145.953 356.225 145.67C356.746 145.375 357.335 145.228 357.993 145.228ZM366.846 154.119C365.35 154.119 364.171 153.756 363.31 153.031L363.82 151.79C364.715 152.47 365.741 152.81 366.897 152.81C367.486 152.81 367.934 152.714 368.24 152.521C368.546 152.317 368.699 152.034 368.699 151.671C368.699 151.365 368.591 151.127 368.376 150.957C368.172 150.776 367.821 150.623 367.322 150.498L365.894 150.158C365.146 149.999 364.574 149.722 364.177 149.325C363.792 148.917 363.599 148.413 363.599 147.812C363.599 147.041 363.905 146.418 364.517 145.942C365.14 145.466 365.962 145.228 366.982 145.228C367.594 145.228 368.172 145.324 368.716 145.517C369.271 145.71 369.742 145.982 370.127 146.333L369.6 147.54C368.773 146.883 367.9 146.554 366.982 146.554C366.427 146.554 365.996 146.662 365.69 146.877C365.384 147.081 365.231 147.37 365.231 147.744C365.231 148.039 365.327 148.277 365.52 148.458C365.713 148.639 366.019 148.781 366.438 148.883L367.9 149.24C368.716 149.421 369.317 149.71 369.702 150.107C370.099 150.492 370.297 150.997 370.297 151.62C370.297 152.391 369.985 153.003 369.362 153.456C368.75 153.898 367.911 154.119 366.846 154.119Z" fill="#252525"/>
<path d="M346 39H332H335.818C337.168 39 338.463 39.5418 339.418 40.5063C340.373 41.4708 340.909 42.7789 340.909 44.1429C340.909 45.5068 340.373 46.8149 339.418 47.7794C338.463 48.7439 337.168 49.2857 335.818 49.2857H332L339.636 57" stroke="#46AC34" stroke-width="3" stroke-linecap="round" stroke-linejoin="round"/>
<path d="M332 44H346" stroke="#46AC34" stroke-width="3" stroke-linecap="round" stroke-linejoin="round"/>
<path d="M349 33H329C326.239 33 324 35.2386 324 38V58C324 60.7614 326.239 63 329 63H349C351.761 63 354 60.7614 354 58V38C354 35.2386 351.761 33 349 33Z" stroke="#46AC34" stroke-width="3" stroke-linecap="round" stroke-linejoin="round"/>
<path d="M344 63V68C344 69.3261 343.473 70.5979 342.536 71.5355C341.598 72.4732 340.326 73 339 73H319C317.674 73 316.402 72.4732 315.464 71.5355C314.527 70.5979 314 69.3261 314 68V48C314 46.6739 314.527 45.4021 315.464 44.4645C316.402 43.5268 317.674 43 319 43H324" stroke="#46AC34" stroke-width="3" stroke-linecap="round" stroke-linejoin="round"/>
<path d="M538.493 518.136C537.325 518.136 536.305 517.887 535.433 517.388C534.571 516.878 533.908 516.158 533.444 515.229C532.979 514.3 532.747 513.2 532.747 511.931C532.747 510.673 532.979 509.579 533.444 508.65C533.908 507.721 534.571 507.007 535.433 506.508C536.305 506.009 537.325 505.76 538.493 505.76C539.32 505.76 540.085 505.89 540.788 506.151C541.502 506.4 542.102 506.769 542.59 507.256L541.978 508.548C541.411 508.083 540.85 507.749 540.295 507.545C539.751 507.33 539.156 507.222 538.51 507.222C537.252 507.222 536.277 507.63 535.586 508.446C534.906 509.262 534.566 510.424 534.566 511.931C534.566 513.45 534.906 514.623 535.586 515.45C536.277 516.266 537.252 516.674 538.51 516.674C539.156 516.674 539.751 516.572 540.295 516.368C540.85 516.153 541.411 515.813 541.978 515.348L542.59 516.64C542.102 517.127 541.502 517.501 540.788 517.762C540.085 518.011 539.32 518.136 538.493 518.136ZM552.26 509.432V518H550.594V516.572C550.322 517.071 549.948 517.456 549.472 517.728C548.996 517.989 548.457 518.119 547.857 518.119C545.794 518.119 544.763 516.974 544.763 514.685V509.432H546.463V514.668C546.463 515.371 546.604 515.892 546.888 516.232C547.182 516.561 547.624 516.725 548.214 516.725C548.916 516.725 549.477 516.498 549.897 516.045C550.327 515.592 550.543 514.991 550.543 514.243V509.432H552.26ZM558.107 518.119C556.611 518.119 555.432 517.756 554.571 517.031L555.081 515.79C555.976 516.47 557.002 516.81 558.158 516.81C558.747 516.81 559.195 516.714 559.501 516.521C559.807 516.317 559.96 516.034 559.96 515.671C559.96 515.365 559.852 515.127 559.637 514.957C559.433 514.776 559.081 514.623 558.583 514.498L557.155 514.158C556.407 513.999 555.834 513.722 555.438 513.325C555.052 512.917 554.86 512.413 554.86 511.812C554.86 511.041 555.166 510.418 555.778 509.942C556.401 509.466 557.223 509.228 558.243 509.228C558.855 509.228 559.433 509.324 559.977 509.517C560.532 509.71 561.002 509.982 561.388 510.333L560.861 511.54C560.033 510.883 559.161 510.554 558.243 510.554C557.687 510.554 557.257 510.662 556.951 510.877C556.645 511.081 556.492 511.37 556.492 511.744C556.492 512.039 556.588 512.277 556.781 512.458C556.973 512.639 557.279 512.781 557.699 512.883L559.161 513.24C559.977 513.421 560.577 513.71 560.963 514.107C561.359 514.492 561.558 514.997 561.558 515.62C561.558 516.391 561.246 517.003 560.623 517.456C560.011 517.898 559.172 518.119 558.107 518.119ZM566.066 510.758V515.059C566.066 515.648 566.19 516.068 566.44 516.317C566.7 516.555 567.057 516.674 567.511 516.674C567.805 516.674 568.106 516.629 568.412 516.538V517.932C568.038 518.057 567.613 518.119 567.137 518.119C566.253 518.119 565.567 517.87 565.08 517.371C564.592 516.872 564.349 516.147 564.349 515.195V510.758H562.683V509.432H564.349V507.29L566.066 506.695V509.432H568.429V510.758H566.066ZM574.043 518.119C573.205 518.119 572.468 517.938 571.833 517.575C571.199 517.212 570.706 516.697 570.354 516.028C570.014 515.359 569.844 514.577 569.844 513.682C569.844 512.787 570.014 512.005 570.354 511.336C570.706 510.656 571.199 510.135 571.833 509.772C572.468 509.409 573.205 509.228 574.043 509.228C574.871 509.228 575.602 509.409 576.236 509.772C576.871 510.135 577.358 510.656 577.698 511.336C578.05 512.005 578.225 512.787 578.225 513.682C578.225 514.577 578.05 515.359 577.698 516.028C577.358 516.697 576.871 517.212 576.236 517.575C575.602 517.938 574.871 518.119 574.043 518.119ZM574.026 516.759C574.82 516.759 575.426 516.498 575.845 515.977C576.265 515.456 576.474 514.691 576.474 513.682C576.474 512.696 576.259 511.937 575.828 511.404C575.409 510.871 574.814 510.605 574.043 510.605C573.261 510.605 572.655 510.871 572.224 511.404C571.794 511.937 571.578 512.696 571.578 513.682C571.578 514.691 571.788 515.456 572.207 515.977C572.638 516.498 573.244 516.759 574.026 516.759ZM590.347 509.228C592.251 509.228 593.203 510.373 593.203 512.662V518H591.486V512.747C591.486 512.01 591.356 511.472 591.095 511.132C590.846 510.792 590.438 510.622 589.871 510.622C589.214 510.622 588.693 510.849 588.307 511.302C587.933 511.755 587.746 512.373 587.746 513.155V518H586.029V512.747C586.029 512.01 585.899 511.472 585.638 511.132C585.389 510.792 584.981 510.622 584.414 510.622C583.757 510.622 583.236 510.849 582.85 511.302C582.465 511.755 582.272 512.373 582.272 513.155V518H580.572V511.846C580.572 510.951 580.527 510.146 580.436 509.432H582.034L582.187 510.86C582.437 510.339 582.794 509.936 583.258 509.653C583.723 509.37 584.267 509.228 584.89 509.228C586.216 509.228 587.083 509.778 587.491 510.877C587.752 510.367 588.132 509.965 588.63 509.67C589.14 509.375 589.713 509.228 590.347 509.228ZM603.313 513.75H597.193C597.25 515.756 598.162 516.759 599.93 516.759C600.916 516.759 601.817 516.436 602.633 515.79L603.16 517.014C602.775 517.354 602.282 517.626 601.681 517.83C601.092 518.023 600.497 518.119 599.896 518.119C598.525 518.119 597.448 517.728 596.666 516.946C595.884 516.153 595.493 515.07 595.493 513.699C595.493 512.826 595.663 512.05 596.003 511.37C596.354 510.69 596.842 510.163 597.465 509.789C598.088 509.415 598.797 509.228 599.59 509.228C600.746 509.228 601.653 509.602 602.31 510.35C602.979 511.098 603.313 512.135 603.313 513.461V513.75ZM599.624 510.503C598.978 510.503 598.451 510.696 598.043 511.081C597.635 511.466 597.374 512.016 597.261 512.73H601.8C601.732 512.005 601.511 511.455 601.137 511.081C600.763 510.696 600.259 510.503 599.624 510.503ZM609.89 509.228C610.151 509.228 610.423 509.268 610.706 509.347L610.672 510.911C610.366 510.798 610.032 510.741 609.669 510.741C608.887 510.741 608.298 510.979 607.901 511.455C607.516 511.92 607.323 512.509 607.323 513.223V518H605.623V511.846C605.623 510.951 605.578 510.146 605.487 509.432H607.085L607.238 510.979C607.465 510.412 607.816 509.982 608.292 509.687C608.768 509.381 609.301 509.228 609.89 509.228ZM522.25 530.228C522.51 530.228 522.782 530.268 523.066 530.347L523.032 531.911C522.726 531.798 522.391 531.741 522.029 531.741C521.247 531.741 520.657 531.979 520.261 532.455C519.875 532.92 519.683 533.509 519.683 534.223V539H517.983V532.846C517.983 531.951 517.937 531.146 517.847 530.432H519.445L519.598 531.979C519.824 531.412 520.176 530.982 520.652 530.687C521.128 530.381 521.66 530.228 522.25 530.228ZM531.858 534.75H525.738C525.795 536.756 526.707 537.759 528.475 537.759C529.461 537.759 530.362 537.436 531.178 536.79L531.705 538.014C531.32 538.354 530.827 538.626 530.226 538.83C529.637 539.023 529.042 539.119 528.441 539.119C527.07 539.119 525.993 538.728 525.211 537.946C524.429 537.153 524.038 536.07 524.038 534.699C524.038 533.826 524.208 533.05 524.548 532.37C524.9 531.69 525.387 531.163 526.01 530.789C526.634 530.415 527.342 530.228 528.135 530.228C529.291 530.228 530.198 530.602 530.855 531.35C531.524 532.098 531.858 533.135 531.858 534.461V534.75ZM528.169 531.503C527.523 531.503 526.996 531.696 526.588 532.081C526.18 532.466 525.92 533.016 525.806 533.73H530.345C530.277 533.005 530.056 532.455 529.682 532.081C529.308 531.696 528.804 531.503 528.169 531.503ZM537.892 539.119C537.03 539.119 536.277 538.938 535.631 538.575C534.996 538.212 534.509 537.702 534.169 537.045C533.829 536.376 533.659 535.6 533.659 534.716C533.659 533.832 533.834 533.05 534.186 532.37C534.548 531.69 535.053 531.163 535.699 530.789C536.345 530.415 537.098 530.228 537.96 530.228C538.56 530.228 539.138 530.33 539.694 530.534C540.249 530.727 540.697 530.993 541.037 531.333L540.51 532.574C539.705 531.939 538.895 531.622 538.079 531.622C537.251 531.622 536.605 531.894 536.141 532.438C535.676 532.971 535.444 533.724 535.444 534.699C535.444 535.674 535.676 536.427 536.141 536.96C536.605 537.481 537.251 537.742 538.079 537.742C538.917 537.742 539.728 537.425 540.51 536.79L541.037 538.031C540.674 538.371 540.209 538.637 539.643 538.83C539.087 539.023 538.504 539.119 537.892 539.119ZM546.681 539.119C545.842 539.119 545.106 538.938 544.471 538.575C543.836 538.212 543.343 537.697 542.992 537.028C542.652 536.359 542.482 535.577 542.482 534.682C542.482 533.787 542.652 533.005 542.992 532.336C543.343 531.656 543.836 531.135 544.471 530.772C545.106 530.409 545.842 530.228 546.681 530.228C547.508 530.228 548.239 530.409 548.874 530.772C549.509 531.135 549.996 531.656 550.336 532.336C550.687 533.005 550.863 533.787 550.863 534.682C550.863 535.577 550.687 536.359 550.336 537.028C549.996 537.697 549.509 538.212 548.874 538.575C548.239 538.938 547.508 539.119 546.681 539.119ZM546.664 537.759C547.457 537.759 548.064 537.498 548.483 536.977C548.902 536.456 549.112 535.691 549.112 534.682C549.112 533.696 548.897 532.937 548.466 532.404C548.047 531.871 547.452 531.605 546.681 531.605C545.899 531.605 545.293 531.871 544.862 532.404C544.431 532.937 544.216 533.696 544.216 534.682C544.216 535.691 544.426 536.456 544.845 536.977C545.276 537.498 545.882 537.759 546.664 537.759ZM561.115 530.432V538.847C561.115 540.15 560.769 541.131 560.078 541.788C559.398 542.457 558.384 542.791 557.035 542.791C555.732 542.791 554.593 542.508 553.618 541.941L553.907 540.598C554.44 540.881 554.95 541.091 555.437 541.227C555.936 541.363 556.463 541.431 557.018 541.431C558.616 541.431 559.415 540.615 559.415 538.983V537.13C559.154 537.629 558.775 538.025 558.276 538.32C557.777 538.603 557.199 538.745 556.542 538.745C555.794 538.745 555.125 538.569 554.536 538.218C553.958 537.867 553.505 537.368 553.176 536.722C552.859 536.076 552.7 535.334 552.7 534.495C552.7 533.656 552.859 532.914 553.176 532.268C553.505 531.622 553.958 531.123 554.536 530.772C555.125 530.409 555.794 530.228 556.542 530.228C557.199 530.228 557.777 530.37 558.276 530.653C558.775 530.925 559.154 531.316 559.415 531.826V530.432H561.115ZM556.933 537.368C557.704 537.368 558.31 537.113 558.752 536.603C559.194 536.093 559.415 535.39 559.415 534.495C559.415 533.6 559.194 532.897 558.752 532.387C558.321 531.866 557.715 531.605 556.933 531.605C556.162 531.605 555.55 531.866 555.097 532.387C554.655 532.897 554.434 533.6 554.434 534.495C554.434 535.379 554.655 536.082 555.097 536.603C555.55 537.113 556.162 537.368 556.933 537.368ZM568.532 530.228C570.583 530.228 571.609 531.373 571.609 533.662V539H569.892V533.764C569.892 533.016 569.744 532.472 569.45 532.132C569.166 531.792 568.707 531.622 568.073 531.622C567.347 531.622 566.764 531.849 566.322 532.302C565.891 532.755 565.676 533.362 565.676 534.121V539H563.976V532.846C563.976 531.951 563.93 531.146 563.84 530.432H565.438L565.591 531.911C565.863 531.367 566.254 530.953 566.764 530.67C567.285 530.375 567.874 530.228 568.532 530.228ZM574.393 530.432H576.093V539H574.393V530.432ZM576.229 526.692V528.494H574.24V526.692H576.229ZM581.177 531.758V536.059C581.177 536.648 581.301 537.068 581.551 537.317C581.811 537.555 582.168 537.674 582.622 537.674C582.916 537.674 583.217 537.629 583.523 537.538V538.932C583.149 539.057 582.724 539.119 582.248 539.119C581.364 539.119 580.678 538.87 580.191 538.371C579.703 537.872 579.46 537.147 579.46 536.195V531.758H577.794V530.432H579.46V528.29L581.177 527.695V530.432H583.54V531.758H581.177ZM585.465 530.432H587.165V539H585.465V530.432ZM587.301 526.692V528.494H585.312V526.692H587.301ZM593.711 539.119C592.873 539.119 592.136 538.938 591.501 538.575C590.867 538.212 590.374 537.697 590.022 537.028C589.682 536.359 589.512 535.577 589.512 534.682C589.512 533.787 589.682 533.005 590.022 532.336C590.374 531.656 590.867 531.135 591.501 530.772C592.136 530.409 592.873 530.228 593.711 530.228C594.539 530.228 595.27 530.409 595.904 530.772C596.539 531.135 597.026 531.656 597.366 532.336C597.718 533.005 597.893 533.787 597.893 534.682C597.893 535.577 597.718 536.359 597.366 537.028C597.026 537.697 596.539 538.212 595.904 538.575C595.27 538.938 594.539 539.119 593.711 539.119ZM593.694 537.759C594.488 537.759 595.094 537.498 595.513 536.977C595.933 536.456 596.142 535.691 596.142 534.682C596.142 533.696 595.927 532.937 595.496 532.404C595.077 531.871 594.482 531.605 593.711 531.605C592.929 531.605 592.323 531.871 591.892 532.404C591.462 532.937 591.246 533.696 591.246 534.682C591.246 535.691 591.456 536.456 591.875 536.977C592.306 537.498 592.912 537.759 593.694 537.759ZM604.796 530.228C606.847 530.228 607.873 531.373 607.873 533.662V539H606.156V533.764C606.156 533.016 606.009 532.472 605.714 532.132C605.431 531.792 604.972 531.622 604.337 531.622C603.612 531.622 603.028 531.849 602.586 532.302C602.155 532.755 601.94 533.362 601.94 534.121V539H600.24V532.846C600.24 531.951 600.195 531.146 600.104 530.432H601.702L601.855 531.911C602.127 531.367 602.518 530.953 603.028 530.67C603.549 530.375 604.139 530.228 604.796 530.228ZM625.152 539.153C624.222 538.779 623.412 538.263 622.721 537.606C622.233 538.093 621.678 538.467 621.055 538.728C620.443 538.989 619.785 539.119 619.083 539.119C618.289 539.119 617.587 538.989 616.975 538.728C616.374 538.456 615.904 538.076 615.564 537.589C615.235 537.102 615.071 536.541 615.071 535.906C615.071 535.169 615.28 534.512 615.7 533.934C616.13 533.356 616.822 532.795 617.774 532.251C617.275 531.696 616.918 531.214 616.703 530.806C616.499 530.387 616.397 529.956 616.397 529.514C616.397 528.698 616.686 528.041 617.264 527.542C617.842 527.032 618.595 526.777 619.525 526.777C620.397 526.777 621.089 527.004 621.599 527.457C622.12 527.91 622.381 528.522 622.381 529.293C622.381 529.905 622.199 530.449 621.837 530.925C621.474 531.401 620.856 531.911 619.984 532.455L622.636 535.345C623.134 534.359 623.406 533.186 623.452 531.826H624.931C624.863 533.639 624.432 535.181 623.639 536.45C624.296 537.096 625.101 537.606 626.053 537.98L625.152 539.153ZM619.542 528.018C619.088 528.018 618.72 528.154 618.437 528.426C618.153 528.698 618.012 529.055 618.012 529.497C618.012 529.792 618.085 530.081 618.233 530.364C618.391 530.636 618.68 531.016 619.1 531.503C619.791 531.084 620.267 530.721 620.528 530.415C620.788 530.098 620.919 529.752 620.919 529.378C620.919 528.97 620.794 528.641 620.545 528.392C620.295 528.143 619.961 528.018 619.542 528.018ZM619.134 537.776C620.142 537.776 621.021 537.385 621.769 536.603L618.658 533.22C617.978 533.651 617.49 534.064 617.196 534.461C616.901 534.858 616.754 535.311 616.754 535.821C616.754 536.41 616.969 536.886 617.4 537.249C617.83 537.6 618.408 537.776 619.134 537.776ZM518.887 560.119C517.391 560.119 516.212 559.756 515.351 559.031L515.861 557.79C516.756 558.47 517.782 558.81 518.938 558.81C519.527 558.81 519.975 558.714 520.281 558.521C520.587 558.317 520.74 558.034 520.74 557.671C520.74 557.365 520.632 557.127 520.417 556.957C520.213 556.776 519.862 556.623 519.363 556.498L517.935 556.158C517.187 555.999 516.615 555.722 516.218 555.325C515.833 554.917 515.64 554.413 515.64 553.812C515.64 553.041 515.946 552.418 516.558 551.942C517.181 551.466 518.003 551.228 519.023 551.228C519.635 551.228 520.213 551.324 520.757 551.517C521.312 551.71 521.783 551.982 522.168 552.333L521.641 553.54C520.814 552.883 519.941 552.554 519.023 552.554C518.468 552.554 518.037 552.662 517.731 552.877C517.425 553.081 517.272 553.37 517.272 553.744C517.272 554.039 517.368 554.277 517.561 554.458C517.754 554.639 518.06 554.781 518.479 554.883L519.941 555.24C520.757 555.421 521.358 555.71 521.743 556.107C522.14 556.492 522.338 556.997 522.338 557.62C522.338 558.391 522.026 559.003 521.403 559.456C520.791 559.898 519.952 560.119 518.887 560.119ZM532.012 555.75H525.892C525.948 557.756 526.861 558.759 528.629 558.759C529.615 558.759 530.516 558.436 531.332 557.79L531.859 559.014C531.473 559.354 530.98 559.626 530.38 559.83C529.79 560.023 529.195 560.119 528.595 560.119C527.223 560.119 526.147 559.728 525.365 558.946C524.583 558.153 524.192 557.07 524.192 555.699C524.192 554.826 524.362 554.05 524.702 553.37C525.053 552.69 525.54 552.163 526.164 551.789C526.787 551.415 527.495 551.228 528.289 551.228C529.445 551.228 530.351 551.602 531.009 552.35C531.677 553.098 532.012 554.135 532.012 555.461V555.75ZM528.323 552.503C527.677 552.503 527.15 552.696 526.742 553.081C526.334 553.466 526.073 554.016 525.96 554.73H530.499C530.431 554.005 530.21 553.455 529.836 553.081C529.462 552.696 528.957 552.503 528.323 552.503ZM542.227 551.432V559.847C542.227 561.15 541.881 562.131 541.19 562.788C540.51 563.457 539.496 563.791 538.147 563.791C536.844 563.791 535.705 563.508 534.73 562.941L535.019 561.598C535.552 561.881 536.062 562.091 536.549 562.227C537.048 562.363 537.575 562.431 538.13 562.431C539.728 562.431 540.527 561.615 540.527 559.983V558.13C540.266 558.629 539.887 559.025 539.388 559.32C538.889 559.603 538.311 559.745 537.654 559.745C536.906 559.745 536.237 559.569 535.648 559.218C535.07 558.867 534.617 558.368 534.288 557.722C533.971 557.076 533.812 556.334 533.812 555.495C533.812 554.656 533.971 553.914 534.288 553.268C534.617 552.622 535.07 552.123 535.648 551.772C536.237 551.409 536.906 551.228 537.654 551.228C538.311 551.228 538.889 551.37 539.388 551.653C539.887 551.925 540.266 552.316 540.527 552.826V551.432H542.227ZM538.045 558.368C538.816 558.368 539.422 558.113 539.864 557.603C540.306 557.093 540.527 556.39 540.527 555.495C540.527 554.6 540.306 553.897 539.864 553.387C539.433 552.866 538.827 552.605 538.045 552.605C537.274 552.605 536.662 552.866 536.209 553.387C535.767 553.897 535.546 554.6 535.546 555.495C535.546 556.379 535.767 557.082 536.209 557.603C536.662 558.113 537.274 558.368 538.045 558.368ZM554.863 551.228C556.767 551.228 557.719 552.373 557.719 554.662V560H556.002V554.747C556.002 554.01 555.871 553.472 555.611 553.132C555.361 552.792 554.953 552.622 554.387 552.622C553.729 552.622 553.208 552.849 552.823 553.302C552.449 553.755 552.262 554.373 552.262 555.155V560H550.545V554.747C550.545 554.01 550.414 553.472 550.154 553.132C549.904 552.792 549.496 552.622 548.93 552.622C548.272 552.622 547.751 552.849 547.366 553.302C546.98 553.755 546.788 554.373 546.788 555.155V560H545.088V553.846C545.088 552.951 545.042 552.146 544.952 551.432H546.55L546.703 552.86C546.952 552.339 547.309 551.936 547.774 551.653C548.238 551.37 548.782 551.228 549.406 551.228C550.732 551.228 551.599 551.778 552.007 552.877C552.267 552.367 552.647 551.965 553.146 551.67C553.656 551.375 554.228 551.228 554.863 551.228ZM567.829 555.75H561.709C561.765 557.756 562.678 558.759 564.446 558.759C565.432 558.759 566.333 558.436 567.149 557.79L567.676 559.014C567.29 559.354 566.797 559.626 566.197 559.83C565.607 560.023 565.012 560.119 564.412 560.119C563.04 560.119 561.964 559.728 561.182 558.946C560.4 558.153 560.009 557.07 560.009 555.699C560.009 554.826 560.179 554.05 560.519 553.37C560.87 552.69 561.357 552.163 561.981 551.789C562.604 551.415 563.312 551.228 564.106 551.228C565.262 551.228 566.168 551.602 566.826 552.35C567.494 553.098 567.829 554.135 567.829 555.461V555.75ZM564.14 552.503C563.494 552.503 562.967 552.696 562.559 553.081C562.151 553.466 561.89 554.016 561.777 554.73H566.316C566.248 554.005 566.027 553.455 565.653 553.081C565.279 552.696 564.774 552.503 564.14 552.503ZM574.695 551.228C576.746 551.228 577.772 552.373 577.772 554.662V560H576.055V554.764C576.055 554.016 575.908 553.472 575.613 553.132C575.33 552.792 574.871 552.622 574.236 552.622C573.511 552.622 572.927 552.849 572.485 553.302C572.054 553.755 571.839 554.362 571.839 555.121V560H570.139V553.846C570.139 552.951 570.094 552.146 570.003 551.432H571.601L571.754 552.911C572.026 552.367 572.417 551.953 572.927 551.67C573.448 551.375 574.038 551.228 574.695 551.228ZM582.783 552.758V557.059C582.783 557.648 582.908 558.068 583.157 558.317C583.418 558.555 583.775 558.674 584.228 558.674C584.523 558.674 584.823 558.629 585.129 558.538V559.932C584.755 560.057 584.33 560.119 583.854 560.119C582.97 560.119 582.284 559.87 581.797 559.371C581.31 558.872 581.066 558.147 581.066 557.195V552.758H579.4V551.432H581.066V549.29L582.783 548.695V551.432H585.146V552.758H582.783ZM594.909 551.432V560H593.209V558.538C592.959 559.048 592.585 559.439 592.087 559.711C591.599 559.983 591.027 560.119 590.37 560.119C589.61 560.119 588.942 559.938 588.364 559.575C587.797 559.212 587.355 558.702 587.038 558.045C586.72 557.376 586.562 556.6 586.562 555.716C586.562 554.832 586.72 554.05 587.038 553.37C587.366 552.69 587.82 552.163 588.398 551.789C588.976 551.415 589.633 551.228 590.37 551.228C591.027 551.228 591.599 551.37 592.087 551.653C592.574 551.925 592.948 552.316 593.209 552.826V551.432H594.909ZM590.778 558.759C591.548 558.759 592.143 558.493 592.563 557.96C592.993 557.416 593.209 556.657 593.209 555.682C593.209 554.696 592.993 553.937 592.563 553.404C592.143 552.871 591.543 552.605 590.761 552.605C589.99 552.605 589.384 552.883 588.942 553.438C588.511 553.982 588.296 554.741 588.296 555.716C588.296 556.679 588.511 557.427 588.942 557.96C589.384 558.493 589.996 558.759 590.778 558.759ZM599.998 552.758V557.059C599.998 557.648 600.123 558.068 600.372 558.317C600.633 558.555 600.99 558.674 601.443 558.674C601.738 558.674 602.038 558.629 602.344 558.538V559.932C601.97 560.057 601.545 560.119 601.069 560.119C600.185 560.119 599.499 559.87 599.012 559.371C598.525 558.872 598.281 558.147 598.281 557.195V552.758H596.615V551.432H598.281V549.29L599.998 548.695V551.432H602.361V552.758H599.998ZM604.287 551.432H605.987V560H604.287V551.432ZM606.123 547.692V549.494H604.134V547.692H606.123ZM612.533 560.119C611.694 560.119 610.957 559.938 610.323 559.575C609.688 559.212 609.195 558.697 608.844 558.028C608.504 557.359 608.334 556.577 608.334 555.682C608.334 554.787 608.504 554.005 608.844 553.336C609.195 552.656 609.688 552.135 610.323 551.772C610.957 551.409 611.694 551.228 612.533 551.228C613.36 551.228 614.091 551.409 614.726 551.772C615.36 552.135 615.848 552.656 616.188 553.336C616.539 554.005 616.715 554.787 616.715 555.682C616.715 556.577 616.539 557.359 616.188 558.028C615.848 558.697 615.36 559.212 614.726 559.575C614.091 559.938 613.36 560.119 612.533 560.119ZM612.516 558.759C613.309 558.759 613.915 558.498 614.335 557.977C614.754 557.456 614.964 556.691 614.964 555.682C614.964 554.696 614.748 553.937 614.318 553.404C613.898 552.871 613.303 552.605 612.533 552.605C611.751 552.605 611.144 552.871 610.714 553.404C610.283 553.937 610.068 554.696 610.068 555.682C610.068 556.691 610.277 557.456 610.697 557.977C611.127 558.498 611.734 558.759 612.516 558.759ZM623.618 551.228C625.669 551.228 626.695 552.373 626.695 554.662V560H624.978V554.764C624.978 554.016 624.83 553.472 624.536 553.132C624.252 552.792 623.793 552.622 623.159 552.622C622.433 552.622 621.85 552.849 621.408 553.302C620.977 553.755 620.762 554.362 620.762 555.121V560H619.062V553.846C619.062 552.951 619.016 552.146 618.926 551.432H620.524L620.677 552.911C620.949 552.367 621.34 551.953 621.85 551.67C622.371 551.375 622.96 551.228 623.618 551.228Z" fill="#252525"/>
<path d="M583.587 489L571.42 480.549L559.252 489V461.958C559.252 461.062 559.618 460.202 560.27 459.568C560.922 458.934 561.806 458.578 562.728 458.578H580.111C581.033 458.578 581.917 458.934 582.569 459.568C583.221 460.202 583.587 461.062 583.587 461.958V489Z" stroke="#46AC34" stroke-width="3" stroke-linecap="round" stroke-linejoin="round"/>
<path d="M577.522 446.784C577.522 450.287 574.756 453.068 571.417 453.068C568.078 453.068 565.312 450.287 565.312 446.784C565.312 443.28 568.078 440.5 571.417 440.5C574.756 440.5 577.522 443.28 577.522 446.784Z" stroke="#46AC34" stroke-width="3"/>
<path d="M272.395 392.421V306.019H392.253V392.421H272.395Z" fill="white" stroke="#252525"/>
<path opacity="0.56" d="M272.264 392.5V306H392.195V392.5H272.264Z" fill="#DFEBD0" stroke="#252525"/>
<path d="M283.219 305.205C283.219 306.541 282.256 307.532 281.175 307.532C280.094 307.532 279.131 306.541 279.131 305.205C279.131 303.869 280.094 302.878 281.175 302.878C282.256 302.878 283.219 303.869 283.219 305.205Z" fill="#24285B" stroke="#252525"/>
<path d="M290.787 305.205C290.787 306.541 289.824 307.532 288.743 307.532C287.663 307.532 286.699 306.541 286.699 305.205C286.699 303.869 287.663 302.878 288.743 302.878C289.824 302.878 290.787 303.869 290.787 305.205Z" fill="#D8EAC4" stroke="#252525"/>
<path d="M297.906 305.205C297.906 306.541 296.943 307.532 295.862 307.532C294.782 307.532 293.818 306.541 293.818 305.205C293.818 303.869 294.782 302.878 295.862 302.878C296.943 302.878 297.906 303.869 297.906 305.205Z" fill="#93895B" stroke="#252525"/>
<path d="M272.996 321.848V330.199H390.956V314.992L341.216 306.085L286.16 313.44L277.714 315.356L273.075 321.037L272.996 321.848Z" fill="#C2D8AD"/>
<path d="M392.583 295.19H332.246H331.738H271.401L261 315.479H331.738H332.246H402.984L392.583 295.19Z" fill="#DDEDC9"/>
<path d="M276.73 315.802H292.456V315.872C292.456 318.161 291.638 320.355 290.182 321.974C288.726 323.592 286.751 324.501 284.692 324.501H284.495C282.436 324.501 280.461 323.592 279.005 321.974C277.549 320.355 276.73 318.161 276.73 315.872V315.802Z" fill="#D8EAC4"/>
<path d="M308.412 315.802H324.138V315.872C324.138 318.161 323.32 320.355 321.864 321.974C320.408 323.592 318.433 324.501 316.373 324.501H316.177C314.118 324.501 312.143 323.592 310.686 321.974C309.23 320.355 308.412 318.161 308.412 315.872V315.802Z" fill="#D8EAC4"/>
<path d="M339.859 315.802H355.586V315.872C355.586 318.161 354.767 320.355 353.311 321.974C351.855 323.592 349.88 324.501 347.821 324.501H347.624C345.565 324.501 343.59 323.592 342.134 321.974C340.677 320.355 339.859 318.161 339.859 315.872V315.802Z" fill="#D8EAC4"/>
<path d="M371.535 315.802H387.261V315.872C387.261 318.161 386.443 320.355 384.987 321.974C383.531 323.592 381.556 324.501 379.496 324.501H379.3C377.241 324.501 375.266 323.592 373.809 321.974C372.353 320.355 371.535 318.161 371.535 315.872V315.802Z" fill="#D8EAC4"/>
<path opacity="0.75" d="M324.391 315.482V315.412V295.366H339.617V315.482C339.617 317.712 338.819 319.847 337.407 321.416C335.995 322.985 334.086 323.861 332.102 323.861H331.906C329.921 323.861 328.013 322.985 326.601 321.416C325.188 319.847 324.391 317.712 324.391 315.482Z" fill="#D0E6BB" stroke="#252525" stroke-width="0.5"/>
<path opacity="0.75" d="M308.168 315.389L308.167 315.4V315.412V315.482C308.167 317.712 307.37 319.847 305.957 321.416C304.545 322.985 302.637 323.861 300.652 323.861H300.456C298.472 323.861 296.563 322.985 295.152 321.416C293.739 319.847 292.941 317.712 292.941 315.482V315.435L296.649 295.366H310.012L308.168 315.389Z" fill="#D0E6BB" stroke="#252525" stroke-width="0.5"/>
<path d="M276.501 315.33L276.488 315.37V315.412V315.482C276.488 317.712 275.69 319.847 274.278 321.416C272.866 322.985 270.957 323.861 268.973 323.861H268.777C267.794 323.861 266.82 323.646 265.91 323.227C265 322.808 264.171 322.193 263.472 321.416C262.773 320.639 262.217 319.715 261.837 318.697C261.457 317.678 261.262 316.586 261.262 315.482V315.472L271.566 295.366H283.373L276.501 315.33Z" fill="#D0E6BB" stroke="#252525" stroke-width="0.5"/>
<path opacity="0.75" d="M371.285 315.662C371.244 317.827 370.452 319.889 369.077 321.416C367.665 322.985 365.756 323.861 363.772 323.861H363.576C361.592 323.861 359.683 322.985 358.271 321.416C356.859 319.847 356.061 317.712 356.061 315.482V315.412V315.162H355.826L354.008 295.366H367.371L371.066 315.457L371.104 315.662H371.285Z" fill="#D0E6BB" stroke="#252525" stroke-width="0.5"/>
<path d="M387.523 315.093V315.051L387.51 315.012L380.638 295.047H392.445L402.749 315.154V315.164C402.749 316.268 402.554 317.36 402.174 318.379C401.794 319.397 401.238 320.321 400.539 321.098C399.84 321.875 399.011 322.49 398.101 322.909C397.191 323.327 396.217 323.542 395.234 323.542H395.038C394.055 323.542 393.081 323.327 392.171 322.909C391.261 322.49 390.433 321.875 389.733 321.098C389.034 320.321 388.478 319.397 388.099 318.379C387.719 317.36 387.523 316.268 387.523 315.164V315.093Z" fill="#D0E6BB" stroke="#252525" stroke-width="0.5"/>
<path d="M271.904 295.007V288.5H392.253V295.007H271.904Z" fill="#DDEDC9" stroke="#252525"/>
<path d="M360.708 342.457H358.768V342.957H356.829V342.457H354.89V342.957H352.95V342.457H351.011V342.957H349.072V342.457H347.132V342.957H345.193V342.457H343.254V342.957H341.315V342.457H339.375V342.957H337.436V342.457H335.497V342.957H333.557V342.457H331.618V342.957H329.679V342.457H327.739V342.957H325.8V342.457H323.861V342.957H321.921V342.457H319.982V342.957H318.043V342.457H316.104V342.957H314.164V342.457H312.225V342.957H310.286V342.457H308.346V342.957H306.407V342.457H304.468V342.957H303.998V343.461H303.498V345.467H303.998V347.474H303.498V349.48H303.998V351.487H303.498V353.493H303.998V355.5H303.498V357.506H303.998V359.513H303.498V361.519H303.998V363.526H303.498V365.532H303.998V367.539H303.498V369.545H303.998V370.049H304.468V370.549H306.407V370.049H308.346V370.549H310.286V370.049H312.225V370.549H314.164V370.049H316.104V370.549H318.043V370.049H319.982V370.549H321.921V370.049H323.861V370.549H325.8V370.049H327.739V370.549H329.679V370.049H331.618V370.549H333.557V370.049H335.497V370.549H337.436V370.049H339.375V370.549H341.315V370.049H343.254V370.549H345.193V370.049H347.132V370.549H349.072V370.049H351.011V370.549H352.95V370.049H354.89V370.549H356.829V370.049H358.768V370.549H360.708V370.049H361.177V369.545H361.677V367.539H361.177V365.532H361.677V363.526H361.177V361.519H361.677V359.513H361.177V357.506H361.677V355.5H361.177V353.493H361.677V351.487H361.177V349.48H361.677V347.474H361.177V345.467H361.677V343.461H361.177V342.957H360.708V342.457Z" fill="white" stroke="#252525" stroke-dasharray="2 2"/>
<path d="M308.912 364.459V347.984H323.638V364.459H308.912Z" fill="#EEF7E5" stroke="#252525"/>
<path d="M318.569 351.112C318.015 351.068 317.457 351.096 316.908 351.196C316.428 351.279 315.94 351.279 315.46 351.196C314.913 351.096 314.357 351.068 313.804 351.112C313.469 351.14 313.142 351.244 312.844 351.419C312.546 351.593 312.284 351.833 312.074 352.125L310.297 354.561L312.028 356.183L313.124 354.683V359.811H319.25V354.683L320.346 356.183L322.077 354.561L320.3 352.125C320.089 351.834 319.827 351.594 319.529 351.42C319.231 351.245 318.905 351.141 318.569 351.112Z" fill="#8FC055"/>
<path opacity="0.09" d="M316.762 351.211L316.762 351.212L316.762 351.212L316.762 351.211ZM316.773 351.696C316.766 351.809 316.752 351.93 316.725 352.047C316.68 352.253 316.606 352.412 316.51 352.515C316.428 352.603 316.303 352.68 316.068 352.683C315.837 352.686 315.725 352.613 315.653 352.534C315.565 352.437 315.496 352.279 315.455 352.067C315.431 351.939 315.42 351.807 315.417 351.684C315.868 351.724 316.321 351.728 316.773 351.696Z" fill="#252525" stroke="#252525"/>
<path d="M364.579 343.423C364.579 345.231 363.205 346.645 361.571 346.645C359.937 346.645 358.562 345.231 358.562 343.423C358.562 341.615 359.937 340.201 361.571 340.201C363.205 340.201 364.579 341.615 364.579 343.423Z" fill="#C0DE9A" stroke="#252525"/>
<path d="M350.18 350.522H329.031V354.561H350.18V350.522Z" fill="#BCBCBC"/>
<path d="M350.18 357.772H329.031V361.811H350.18V357.772Z" fill="#C9E8A5"/>
<path d="M298.4 339.649H277.568V377.728H298.4V339.649Z" fill="#C2D8AD"/>
<path d="M389.21 340.818H380.346V377.727H389.21V340.818Z" fill="#C2D8AD"/>
<path d="M24.3172 510.358H20.2202V508.896H30.1822V510.358H26.0852V521H24.3172V510.358ZM34.9291 512.228C35.1898 512.228 35.4618 512.268 35.7451 512.347L35.7111 513.911C35.4051 513.798 35.0708 513.741 34.7081 513.741C33.9261 513.741 33.3368 513.979 32.9401 514.455C32.5548 514.92 32.3621 515.509 32.3621 516.223V521H30.6621V514.846C30.6621 513.951 30.6168 513.146 30.5261 512.432H32.1241L32.2771 513.979C32.5038 513.412 32.8551 512.982 33.3311 512.687C33.8071 512.381 34.3398 512.228 34.9291 512.228ZM45.0647 512.432V521H43.3647V519.538C43.1153 520.048 42.7413 520.439 42.2427 520.711C41.7553 520.983 41.183 521.119 40.5257 521.119C39.7663 521.119 39.0977 520.938 38.5197 520.575C37.953 520.212 37.511 519.702 37.1937 519.045C36.8763 518.376 36.7177 517.6 36.7177 516.716C36.7177 515.832 36.8763 515.05 37.1937 514.37C37.5223 513.69 37.9757 513.163 38.5537 512.789C39.1317 512.415 39.789 512.228 40.5257 512.228C41.183 512.228 41.7553 512.37 42.2427 512.653C42.73 512.925 43.104 513.316 43.3647 513.826V512.432H45.0647ZM40.9337 519.759C41.7043 519.759 42.2993 519.493 42.7187 518.96C43.1493 518.416 43.3647 517.657 43.3647 516.682C43.3647 515.696 43.1493 514.937 42.7187 514.404C42.2993 513.871 41.6987 513.605 40.9167 513.605C40.146 513.605 39.5397 513.883 39.0977 514.438C38.667 514.982 38.4517 515.741 38.4517 516.716C38.4517 517.679 38.667 518.427 39.0977 518.96C39.5397 519.493 40.1517 519.759 40.9337 519.759ZM51.6501 521.119C50.7887 521.119 50.0351 520.938 49.3891 520.575C48.7544 520.212 48.2671 519.702 47.9271 519.045C47.5871 518.376 47.4171 517.6 47.4171 516.716C47.4171 515.832 47.5927 515.05 47.9441 514.37C48.3067 513.69 48.8111 513.163 49.4571 512.789C50.1031 512.415 50.8567 512.228 51.7181 512.228C52.3187 512.228 52.8967 512.33 53.4521 512.534C54.0074 512.727 54.4551 512.993 54.7951 513.333L54.2681 514.574C53.4634 513.939 52.6531 513.622 51.8371 513.622C51.0097 513.622 50.3637 513.894 49.8991 514.438C49.4344 514.971 49.2021 515.724 49.2021 516.699C49.2021 517.674 49.4344 518.427 49.8991 518.96C50.3637 519.481 51.0097 519.742 51.8371 519.742C52.6757 519.742 53.4861 519.425 54.2681 518.79L54.7951 520.031C54.4324 520.371 53.9677 520.637 53.4011 520.83C52.8457 521.023 52.2621 521.119 51.6501 521.119ZM62.5475 521L58.4505 516.954V521H56.7505V508.488H58.4505V516.308L62.2585 512.449H64.3835L60.2865 516.563L64.7405 521H62.5475ZM78.8309 512.432V521H77.1309V519.538C76.8816 520.048 76.5076 520.439 76.0089 520.711C75.5216 520.983 74.9493 521.119 74.2919 521.119C73.5326 521.119 72.8639 520.938 72.2859 520.575C71.7193 520.212 71.2773 519.702 70.9599 519.045C70.6426 518.376 70.4839 517.6 70.4839 516.716C70.4839 515.832 70.6426 515.05 70.9599 514.37C71.2886 513.69 71.7419 513.163 72.3199 512.789C72.8979 512.415 73.5553 512.228 74.2919 512.228C74.9493 512.228 75.5216 512.37 76.0089 512.653C76.4963 512.925 76.8703 513.316 77.1309 513.826V512.432H78.8309ZM74.6999 519.759C75.4706 519.759 76.0656 519.493 76.4849 518.96C76.9156 518.416 77.1309 517.657 77.1309 516.682C77.1309 515.696 76.9156 514.937 76.4849 514.404C76.0656 513.871 75.4649 513.605 74.6829 513.605C73.9123 513.605 73.3059 513.883 72.8639 514.438C72.4333 514.982 72.2179 515.741 72.2179 516.716C72.2179 517.679 72.4333 518.427 72.8639 518.96C73.3059 519.493 73.9179 519.759 74.6999 519.759ZM86.2493 512.228C88.3006 512.228 89.3263 513.373 89.3263 515.662V521H87.6093V515.764C87.6093 515.016 87.462 514.472 87.1673 514.132C86.884 513.792 86.425 513.622 85.7903 513.622C85.065 513.622 84.4813 513.849 84.0393 514.302C83.6086 514.755 83.3933 515.362 83.3933 516.121V521H81.6933V514.846C81.6933 513.951 81.648 513.146 81.5573 512.432H83.1553L83.3083 513.911C83.5803 513.367 83.9713 512.953 84.4813 512.67C85.0026 512.375 85.592 512.228 86.2493 512.228ZM99.9475 508.488V521H98.2475V519.538C97.9981 520.048 97.6241 520.439 97.1255 520.711C96.6381 520.983 96.0658 521.119 95.4085 521.119C94.6718 521.119 94.0145 520.932 93.4365 520.558C92.8585 520.184 92.4051 519.663 92.0765 518.994C91.7591 518.314 91.6005 517.532 91.6005 516.648C91.6005 515.764 91.7591 514.988 92.0765 514.319C92.3938 513.65 92.8358 513.135 93.4025 512.772C93.9805 512.409 94.6491 512.228 95.4085 512.228C96.0545 512.228 96.6211 512.364 97.1085 512.636C97.6071 512.908 97.9811 513.293 98.2305 513.792V508.488H99.9475ZM95.7995 519.759C96.5815 519.759 97.1821 519.493 97.6015 518.96C98.0321 518.416 98.2475 517.657 98.2475 516.682C98.2475 515.707 98.0321 514.954 97.6015 514.421C97.1821 513.877 96.5871 513.605 95.8165 513.605C95.0345 513.605 94.4225 513.871 93.9805 514.404C93.5498 514.937 93.3345 515.685 93.3345 516.648C93.3345 517.623 93.5498 518.388 93.9805 518.943C94.4225 519.487 95.0288 519.759 95.7995 519.759ZM117.457 512.228C119.361 512.228 120.313 513.373 120.313 515.662V521H118.596V515.747C118.596 515.01 118.466 514.472 118.205 514.132C117.956 513.792 117.548 513.622 116.981 513.622C116.324 513.622 115.802 513.849 115.417 514.302C115.043 514.755 114.856 515.373 114.856 516.155V521H113.139V515.747C113.139 515.01 113.009 514.472 112.748 514.132C112.499 513.792 112.091 513.622 111.524 513.622C110.867 513.622 110.345 513.849 109.96 514.302C109.575 514.755 109.382 515.373 109.382 516.155V521H107.682V514.846C107.682 513.951 107.637 513.146 107.546 512.432H109.144L109.297 513.86C109.546 513.339 109.903 512.936 110.368 512.653C110.833 512.37 111.377 512.228 112 512.228C113.326 512.228 114.193 512.778 114.601 513.877C114.862 513.367 115.241 512.965 115.74 512.67C116.25 512.375 116.822 512.228 117.457 512.228ZM130.95 512.432V521H129.25V519.538C129.001 520.048 128.627 520.439 128.128 520.711C127.641 520.983 127.068 521.119 126.411 521.119C125.652 521.119 124.983 520.938 124.405 520.575C123.838 520.212 123.396 519.702 123.079 519.045C122.762 518.376 122.603 517.6 122.603 516.716C122.603 515.832 122.762 515.05 123.079 514.37C123.408 513.69 123.861 513.163 124.439 512.789C125.017 512.415 125.674 512.228 126.411 512.228C127.068 512.228 127.641 512.37 128.128 512.653C128.615 512.925 128.989 513.316 129.25 513.826V512.432H130.95ZM126.819 519.759C127.59 519.759 128.185 519.493 128.604 518.96C129.035 518.416 129.25 517.657 129.25 516.682C129.25 515.696 129.035 514.937 128.604 514.404C128.185 513.871 127.584 513.605 126.802 513.605C126.031 513.605 125.425 513.883 124.983 514.438C124.552 514.982 124.337 515.741 124.337 516.716C124.337 517.679 124.552 518.427 124.983 518.96C125.425 519.493 126.037 519.759 126.819 519.759ZM138.368 512.228C140.42 512.228 141.445 513.373 141.445 515.662V521H139.728V515.764C139.728 515.016 139.581 514.472 139.286 514.132C139.003 513.792 138.544 513.622 137.909 513.622C137.184 513.622 136.6 513.849 136.158 514.302C135.728 514.755 135.512 515.362 135.512 516.121V521H133.812V514.846C133.812 513.951 133.767 513.146 133.676 512.432H135.274L135.427 513.911C135.699 513.367 136.09 512.953 136.6 512.67C137.122 512.375 137.711 512.228 138.368 512.228ZM152.066 512.432V521H150.366V519.538C150.117 520.048 149.743 520.439 149.244 520.711C148.757 520.983 148.185 521.119 147.527 521.119C146.768 521.119 146.099 520.938 145.521 520.575C144.955 520.212 144.513 519.702 144.195 519.045C143.878 518.376 143.719 517.6 143.719 516.716C143.719 515.832 143.878 515.05 144.195 514.37C144.524 513.69 144.977 513.163 145.555 512.789C146.133 512.415 146.791 512.228 147.527 512.228C148.185 512.228 148.757 512.37 149.244 512.653C149.732 512.925 150.106 513.316 150.366 513.826V512.432H152.066ZM147.935 519.759C148.706 519.759 149.301 519.493 149.72 518.96C150.151 518.416 150.366 517.657 150.366 516.682C150.366 515.696 150.151 514.937 149.72 514.404C149.301 513.871 148.7 513.605 147.918 513.605C147.148 513.605 146.541 513.883 146.099 514.438C145.669 514.982 145.453 515.741 145.453 516.716C145.453 517.679 145.669 518.427 146.099 518.96C146.541 519.493 147.153 519.759 147.935 519.759ZM162.834 512.432V520.847C162.834 522.15 162.488 523.131 161.797 523.788C161.117 524.457 160.102 524.791 158.754 524.791C157.45 524.791 156.311 524.508 155.337 523.941L155.626 522.598C156.158 522.881 156.668 523.091 157.156 523.227C157.654 523.363 158.181 523.431 158.737 523.431C160.335 523.431 161.134 522.615 161.134 520.983V519.13C160.873 519.629 160.493 520.025 159.995 520.32C159.496 520.603 158.918 520.745 158.261 520.745C157.513 520.745 156.844 520.569 156.255 520.218C155.677 519.867 155.223 519.368 154.895 518.722C154.577 518.076 154.419 517.334 154.419 516.495C154.419 515.656 154.577 514.914 154.895 514.268C155.223 513.622 155.677 513.123 156.255 512.772C156.844 512.409 157.513 512.228 158.261 512.228C158.918 512.228 159.496 512.37 159.995 512.653C160.493 512.925 160.873 513.316 161.134 513.826V512.432H162.834ZM158.652 519.368C159.422 519.368 160.029 519.113 160.471 518.603C160.913 518.093 161.134 517.39 161.134 516.495C161.134 515.6 160.913 514.897 160.471 514.387C160.04 513.866 159.434 513.605 158.652 513.605C157.881 513.605 157.269 513.866 156.816 514.387C156.374 514.897 156.153 515.6 156.153 516.495C156.153 517.379 156.374 518.082 156.816 518.603C157.269 519.113 157.881 519.368 158.652 519.368ZM173.005 516.75H166.885C166.941 518.756 167.854 519.759 169.622 519.759C170.608 519.759 171.509 519.436 172.325 518.79L172.852 520.014C172.466 520.354 171.973 520.626 171.373 520.83C170.783 521.023 170.188 521.119 169.588 521.119C168.216 521.119 167.14 520.728 166.358 519.946C165.576 519.153 165.185 518.07 165.185 516.699C165.185 515.826 165.355 515.05 165.695 514.37C166.046 513.69 166.533 513.163 167.157 512.789C167.78 512.415 168.488 512.228 169.282 512.228C170.438 512.228 171.344 512.602 172.002 513.35C172.67 514.098 173.005 515.135 173.005 516.461V516.75ZM169.316 513.503C168.67 513.503 168.143 513.696 167.735 514.081C167.327 514.466 167.066 515.016 166.953 515.73H171.492C171.424 515.005 171.203 514.455 170.829 514.081C170.455 513.696 169.95 513.503 169.316 513.503ZM49.5127 533.432L45.5177 542.697C45.0757 543.706 44.5204 544.442 43.8517 544.907C43.1944 545.383 42.3784 545.7 41.4037 545.859L41.0297 544.533C41.8344 544.352 42.4407 544.114 42.8487 543.819C43.268 543.536 43.6024 543.105 43.8517 542.527L44.1577 541.813L40.5537 533.432H42.3727L45.0587 540.062L47.7957 533.432H49.5127ZM54.7538 542.119C53.9151 542.119 53.1784 541.938 52.5438 541.575C51.9091 541.212 51.4161 540.697 51.0648 540.028C50.7248 539.359 50.5548 538.577 50.5548 537.682C50.5548 536.787 50.7248 536.005 51.0648 535.336C51.4161 534.656 51.9091 534.135 52.5438 533.772C53.1784 533.409 53.9151 533.228 54.7538 533.228C55.5811 533.228 56.3121 533.409 56.9468 533.772C57.5814 534.135 58.0688 534.656 58.4088 535.336C58.7601 536.005 58.9358 536.787 58.9358 537.682C58.9358 538.577 58.7601 539.359 58.4088 540.028C58.0688 540.697 57.5814 541.212 56.9468 541.575C56.3121 541.938 55.5811 542.119 54.7538 542.119ZM54.7368 540.759C55.5301 540.759 56.1364 540.498 56.5558 539.977C56.9751 539.456 57.1848 538.691 57.1848 537.682C57.1848 536.696 56.9694 535.937 56.5388 535.404C56.1194 534.871 55.5244 534.605 54.7538 534.605C53.9718 534.605 53.3654 534.871 52.9348 535.404C52.5041 535.937 52.2888 536.696 52.2888 537.682C52.2888 538.691 52.4984 539.456 52.9178 539.977C53.3484 540.498 53.9548 540.759 54.7368 540.759ZM68.7287 533.432V542H67.0627V540.572C66.7907 541.071 66.4167 541.456 65.9407 541.728C65.4647 541.989 64.9263 542.119 64.3257 542.119C62.263 542.119 61.2317 540.974 61.2317 538.685V533.432H62.9317V538.668C62.9317 539.371 63.0733 539.892 63.3567 540.232C63.6513 540.561 64.0933 540.725 64.6827 540.725C65.3853 540.725 65.9463 540.498 66.3657 540.045C66.7963 539.592 67.0117 538.991 67.0117 538.243V533.432H68.7287ZM75.8506 533.228C76.1113 533.228 76.3833 533.268 76.6666 533.347L76.6326 534.911C76.3266 534.798 75.9923 534.741 75.6296 534.741C74.8476 534.741 74.2583 534.979 73.8616 535.455C73.4763 535.92 73.2836 536.509 73.2836 537.223V542H71.5836V535.846C71.5836 534.951 71.5383 534.146 71.4476 533.432H73.0456L73.1986 534.979C73.4253 534.412 73.7766 533.982 74.2526 533.687C74.7286 533.381 75.2613 533.228 75.8506 533.228ZM87.7264 533.228C88.4744 533.228 89.1374 533.409 89.7154 533.772C90.2934 534.135 90.7411 534.65 91.0584 535.319C91.3758 535.988 91.5344 536.764 91.5344 537.648C91.5344 538.532 91.3701 539.314 91.0414 539.994C90.7241 540.663 90.2764 541.184 89.6984 541.558C89.1204 541.932 88.4631 542.119 87.7264 542.119C87.0691 542.119 86.4911 541.983 85.9924 541.711C85.5051 541.428 85.1368 541.025 84.8874 540.504V542H83.1874V529.488H84.8874V534.843C85.1368 534.333 85.5051 533.936 85.9924 533.653C86.4911 533.37 87.0691 533.228 87.7264 533.228ZM87.3354 540.759C88.1061 540.759 88.7068 540.487 89.1374 539.943C89.5681 539.388 89.7834 538.623 89.7834 537.648C89.7834 536.685 89.5681 535.937 89.1374 535.404C88.7068 534.871 88.1061 534.605 87.3354 534.605C86.5534 534.605 85.9471 534.871 85.5164 535.404C85.0971 535.937 84.8874 536.696 84.8874 537.682C84.8874 538.668 85.0971 539.427 85.5164 539.96C85.9471 540.493 86.5534 540.759 87.3354 540.759ZM101.333 533.432V542H99.6668V540.572C99.3948 541.071 99.0208 541.456 98.5448 541.728C98.0688 541.989 97.5305 542.119 96.9298 542.119C94.8672 542.119 93.8358 540.974 93.8358 538.685V533.432H95.5358V538.668C95.5358 539.371 95.6775 539.892 95.9608 540.232C96.2555 540.561 96.6975 540.725 97.2868 540.725C97.9895 540.725 98.5505 540.498 98.9698 540.045C99.4005 539.592 99.6158 538.991 99.6158 538.243V533.432H101.333ZM107.18 542.119C105.684 542.119 104.505 541.756 103.644 541.031L104.154 539.79C105.049 540.47 106.075 540.81 107.231 540.81C107.82 540.81 108.268 540.714 108.574 540.521C108.88 540.317 109.033 540.034 109.033 539.671C109.033 539.365 108.925 539.127 108.71 538.957C108.506 538.776 108.154 538.623 107.656 538.498L106.228 538.158C105.48 537.999 104.907 537.722 104.511 537.325C104.125 536.917 103.933 536.413 103.933 535.812C103.933 535.041 104.239 534.418 104.851 533.942C105.474 533.466 106.296 533.228 107.316 533.228C107.928 533.228 108.506 533.324 109.05 533.517C109.605 533.71 110.075 533.982 110.461 534.333L109.934 535.54C109.106 534.883 108.234 534.554 107.316 534.554C106.76 534.554 106.33 534.662 106.024 534.877C105.718 535.081 105.565 535.37 105.565 535.744C105.565 536.039 105.661 536.277 105.854 536.458C106.046 536.639 106.352 536.781 106.772 536.883L108.234 537.24C109.05 537.421 109.65 537.71 110.036 538.107C110.432 538.492 110.631 538.997 110.631 539.62C110.631 540.391 110.319 541.003 109.696 541.456C109.084 541.898 108.245 542.119 107.18 542.119ZM112.995 533.432H114.695V542H112.995V533.432ZM114.831 529.692V531.494H112.842V529.692H114.831ZM122.107 533.228C124.159 533.228 125.184 534.373 125.184 536.662V542H123.467V536.764C123.467 536.016 123.32 535.472 123.025 535.132C122.742 534.792 122.283 534.622 121.648 534.622C120.923 534.622 120.339 534.849 119.897 535.302C119.467 535.755 119.251 536.362 119.251 537.121V542H117.551V535.846C117.551 534.951 117.506 534.146 117.415 533.432H119.013L119.166 534.911C119.438 534.367 119.829 533.953 120.339 533.67C120.861 533.375 121.45 533.228 122.107 533.228ZM135.279 537.75H129.159C129.215 539.756 130.128 540.759 131.896 540.759C132.882 540.759 133.783 540.436 134.599 539.79L135.126 541.014C134.74 541.354 134.247 541.626 133.647 541.83C133.057 542.023 132.462 542.119 131.862 542.119C130.49 542.119 129.414 541.728 128.632 540.946C127.85 540.153 127.459 539.07 127.459 537.699C127.459 536.826 127.629 536.05 127.969 535.37C128.32 534.69 128.807 534.163 129.431 533.789C130.054 533.415 130.762 533.228 131.556 533.228C132.712 533.228 133.618 533.602 134.276 534.35C134.944 535.098 135.279 536.135 135.279 537.461V537.75ZM131.59 534.503C130.944 534.503 130.417 534.696 130.009 535.081C129.601 535.466 129.34 536.016 129.227 536.73H133.766C133.698 536.005 133.477 535.455 133.103 535.081C132.729 534.696 132.224 534.503 131.59 534.503ZM140.581 542.119C139.085 542.119 137.906 541.756 137.045 541.031L137.555 539.79C138.45 540.47 139.476 540.81 140.632 540.81C141.221 540.81 141.669 540.714 141.975 540.521C142.281 540.317 142.434 540.034 142.434 539.671C142.434 539.365 142.326 539.127 142.111 538.957C141.907 538.776 141.555 538.623 141.057 538.498L139.629 538.158C138.881 537.999 138.308 537.722 137.912 537.325C137.526 536.917 137.334 536.413 137.334 535.812C137.334 535.041 137.64 534.418 138.252 533.942C138.875 533.466 139.697 533.228 140.717 533.228C141.329 533.228 141.907 533.324 142.451 533.517C143.006 533.71 143.476 533.982 143.862 534.333L143.335 535.54C142.507 534.883 141.635 534.554 140.717 534.554C140.161 534.554 139.731 534.662 139.425 534.877C139.119 535.081 138.966 535.37 138.966 535.744C138.966 536.039 139.062 536.277 139.255 536.458C139.447 536.639 139.753 536.781 140.173 536.883L141.635 537.24C142.451 537.421 143.051 537.71 143.437 538.107C143.833 538.492 144.032 538.997 144.032 539.62C144.032 540.391 143.72 541.003 143.097 541.456C142.485 541.898 141.646 542.119 140.581 542.119ZM149.388 542.119C147.892 542.119 146.713 541.756 145.852 541.031L146.362 539.79C147.257 540.47 148.283 540.81 149.439 540.81C150.028 540.81 150.476 540.714 150.782 540.521C151.088 540.317 151.241 540.034 151.241 539.671C151.241 539.365 151.133 539.127 150.918 538.957C150.714 538.776 150.362 538.623 149.864 538.498L148.436 538.158C147.688 537.999 147.115 537.722 146.719 537.325C146.333 536.917 146.141 536.413 146.141 535.812C146.141 535.041 146.447 534.418 147.059 533.942C147.682 533.466 148.504 533.228 149.524 533.228C150.136 533.228 150.714 533.324 151.258 533.517C151.813 533.71 152.283 533.982 152.669 534.333L152.142 535.54C151.314 534.883 150.442 534.554 149.524 534.554C148.968 534.554 148.538 534.662 148.232 534.877C147.926 535.081 147.773 535.37 147.773 535.744C147.773 536.039 147.869 536.277 148.062 536.458C148.254 536.639 148.56 536.781 148.98 536.883L150.442 537.24C151.258 537.421 151.858 537.71 152.244 538.107C152.64 538.492 152.839 538.997 152.839 539.62C152.839 540.391 152.527 541.003 151.904 541.456C151.292 541.898 150.453 542.119 149.388 542.119ZM52.3225 554.432H54.0225V563H52.3225V554.432ZM54.1585 550.692V552.494H52.1695V550.692H54.1585ZM61.4353 554.228C63.4866 554.228 64.5123 555.373 64.5123 557.662V563H62.7953V557.764C62.7953 557.016 62.648 556.472 62.3533 556.132C62.07 555.792 61.611 555.622 60.9763 555.622C60.251 555.622 59.6673 555.849 59.2253 556.302C58.7946 556.755 58.5793 557.362 58.5793 558.121V563H56.8793V556.846C56.8793 555.951 56.834 555.146 56.7433 554.432H58.3413L58.4943 555.911C58.7663 555.367 59.1573 554.953 59.6673 554.67C60.1886 554.375 60.778 554.228 61.4353 554.228ZM76.4357 554.228C76.6963 554.228 76.9683 554.268 77.2517 554.347L77.2177 555.911C76.9117 555.798 76.5773 555.741 76.2147 555.741C75.4327 555.741 74.8433 555.979 74.4467 556.455C74.0613 556.92 73.8687 557.509 73.8687 558.223V563H72.1687V556.846C72.1687 555.951 72.1233 555.146 72.0327 554.432H73.6307L73.7837 555.979C74.0103 555.412 74.3617 554.982 74.8377 554.687C75.3137 554.381 75.8463 554.228 76.4357 554.228ZM86.0442 558.75H79.9242C79.9809 560.756 80.8932 561.759 82.6612 561.759C83.6472 561.759 84.5482 561.436 85.3642 560.79L85.8912 562.014C85.5059 562.354 85.0129 562.626 84.4122 562.83C83.8229 563.023 83.2279 563.119 82.6272 563.119C81.2559 563.119 80.1792 562.728 79.3972 561.946C78.6152 561.153 78.2242 560.07 78.2242 558.699C78.2242 557.826 78.3942 557.05 78.7342 556.37C79.0856 555.69 79.5729 555.163 80.1962 554.789C80.8196 554.415 81.5279 554.228 82.3212 554.228C83.4772 554.228 84.3839 554.602 85.0412 555.35C85.7099 556.098 86.0442 557.135 86.0442 558.461V558.75ZM82.3552 555.503C81.7092 555.503 81.1822 555.696 80.7742 556.081C80.3662 556.466 80.1056 557.016 79.9922 557.73H84.5312C84.4632 557.005 84.2422 556.455 83.8682 556.081C83.4942 555.696 82.9899 555.503 82.3552 555.503ZM96.1915 554.432V563H94.4915V561.538C94.2422 562.048 93.8682 562.439 93.3695 562.711C92.8822 562.983 92.3099 563.119 91.6525 563.119C90.8932 563.119 90.2245 562.938 89.6465 562.575C89.0799 562.212 88.6379 561.702 88.3205 561.045C88.0032 560.376 87.8445 559.6 87.8445 558.716C87.8445 557.832 88.0032 557.05 88.3205 556.37C88.6492 555.69 89.1025 555.163 89.6805 554.789C90.2585 554.415 90.9159 554.228 91.6525 554.228C92.3099 554.228 92.8822 554.37 93.3695 554.653C93.8569 554.925 94.2309 555.316 94.4915 555.826V554.432H96.1915ZM92.0605 561.759C92.8312 561.759 93.4262 561.493 93.8455 560.96C94.2762 560.416 94.4915 559.657 94.4915 558.682C94.4915 557.696 94.2762 556.937 93.8455 556.404C93.4262 555.871 92.8255 555.605 92.0435 555.605C91.2729 555.605 90.6665 555.883 90.2245 556.438C89.7939 556.982 89.5785 557.741 89.5785 558.716C89.5785 559.679 89.7939 560.427 90.2245 560.96C90.6665 561.493 91.2785 561.759 92.0605 561.759ZM99.0539 550.488H100.754V563H99.0539V550.488ZM110.71 555.758V560.059C110.71 560.648 110.835 561.068 111.084 561.317C111.345 561.555 111.702 561.674 112.155 561.674C112.45 561.674 112.75 561.629 113.056 561.538V562.932C112.682 563.057 112.257 563.119 111.781 563.119C110.897 563.119 110.211 562.87 109.724 562.371C109.237 561.872 108.993 561.147 108.993 560.195V555.758H107.327V554.432H108.993V552.29L110.71 551.695V554.432H113.073V555.758H110.71ZM114.999 554.432H116.699V563H114.999V554.432ZM116.835 550.692V552.494H114.846V550.692H116.835ZM129.331 554.228C131.235 554.228 132.187 555.373 132.187 557.662V563H130.47V557.747C130.47 557.01 130.339 556.472 130.079 556.132C129.829 555.792 129.421 555.622 128.855 555.622C128.197 555.622 127.676 555.849 127.291 556.302C126.917 556.755 126.73 557.373 126.73 558.155V563H125.013V557.747C125.013 557.01 124.882 556.472 124.622 556.132C124.372 555.792 123.964 555.622 123.398 555.622C122.74 555.622 122.219 555.849 121.834 556.302C121.448 556.755 121.256 557.373 121.256 558.155V563H119.556V556.846C119.556 555.951 119.51 555.146 119.42 554.432H121.018L121.171 555.86C121.42 555.339 121.777 554.936 122.242 554.653C122.706 554.37 123.25 554.228 123.874 554.228C125.2 554.228 126.067 554.778 126.475 555.877C126.735 555.367 127.115 554.965 127.614 554.67C128.124 554.375 128.696 554.228 129.331 554.228ZM142.296 558.75H136.176C136.233 560.756 137.145 561.759 138.913 561.759C139.899 561.759 140.8 561.436 141.616 560.79L142.143 562.014C141.758 562.354 141.265 562.626 140.664 562.83C140.075 563.023 139.48 563.119 138.879 563.119C137.508 563.119 136.431 562.728 135.649 561.946C134.867 561.153 134.476 560.07 134.476 558.699C134.476 557.826 134.646 557.05 134.986 556.37C135.338 555.69 135.825 555.163 136.448 554.789C137.072 554.415 137.78 554.228 138.573 554.228C139.729 554.228 140.636 554.602 141.293 555.35C141.962 556.098 142.296 557.135 142.296 558.461V558.75ZM138.607 555.503C137.961 555.503 137.434 555.696 137.026 556.081C136.618 556.466 136.358 557.016 136.244 557.73H140.783C140.715 557.005 140.494 556.455 140.12 556.081C139.746 555.696 139.242 555.503 138.607 555.503Z" fill="#252525"/>
<path d="M103.979 461.5H100.178L97.3263 470L91.6237 453L88.7724 461.5H84.9707" stroke="#46AC34" stroke-width="3" stroke-linecap="round" stroke-linejoin="round"/>
<path d="M94.9707 481C104.912 481 112.971 472.941 112.971 463C112.971 453.059 104.912 445 94.9707 445C85.0296 445 76.9707 453.059 76.9707 463C76.9707 472.941 85.0296 481 94.9707 481Z" stroke="#46AC34" stroke-width="3" stroke-linecap="round" stroke-linejoin="round"/>
<path d="M116.971 485L107.971 476" stroke="#46AC34" stroke-width="3" stroke-linecap="round" stroke-linejoin="round"/>
<defs>
<filter id="filter0_d_1348_1431" x="0" y="410" width="193.783" height="193.558" filterUnits="userSpaceOnUse" color-interpolation-filters="sRGB">
<feFlood flood-opacity="0" result="BackgroundImageFix"/>
<feColorMatrix in="SourceAlpha" type="matrix" values="0 0 0 0 0 0 0 0 0 0 0 0 0 0 0 0 0 0 127 0" result="hardAlpha"/>
<feOffset dy="4"/>
<feGaussianBlur stdDeviation="2"/>
<feComposite in2="hardAlpha" operator="out"/>
<feColorMatrix type="matrix" values="0 0 0 0 0 0 0 0 0 0 0 0 0 0 0 0 0 0 0.25 0"/>
<feBlend mode="normal" in2="BackgroundImageFix" result="effect1_dropShadow_1348_1431"/>
<feBlend mode="normal" in="SourceGraphic" in2="effect1_dropShadow_1348_1431" result="shape"/>
</filter>
<filter id="filter1_d_1348_1431" x="474.217" y="410" width="193.783" height="193.558" filterUnits="userSpaceOnUse" color-interpolation-filters="sRGB">
<feFlood flood-opacity="0" result="BackgroundImageFix"/>
<feColorMatrix in="SourceAlpha" type="matrix" values="0 0 0 0 0 0 0 0 0 0 0 0 0 0 0 0 0 0 127 0" result="hardAlpha"/>
<feOffset dy="4"/>
<feGaussianBlur stdDeviation="2"/>
<feComposite in2="hardAlpha" operator="out"/>
<feColorMatrix type="matrix" values="0 0 0 0 0 0 0 0 0 0 0 0 0 0 0 0 0 0 0.25 0"/>
<feBlend mode="normal" in2="BackgroundImageFix" result="effect1_dropShadow_1348_1431"/>
<feBlend mode="normal" in="SourceGraphic" in2="effect1_dropShadow_1348_1431" result="shape"/>
</filter>
<filter id="filter2_d_1348_1431" x="237.109" y="0" width="193.783" height="193.558" filterUnits="userSpaceOnUse" color-interpolation-filters="sRGB">
<feFlood flood-opacity="0" result="BackgroundImageFix"/>
<feColorMatrix in="SourceAlpha" type="matrix" values="0 0 0 0 0 0 0 0 0 0 0 0 0 0 0 0 0 0 127 0" result="hardAlpha"/>
<feOffset dy="4"/>
<feGaussianBlur stdDeviation="2"/>
<feComposite in2="hardAlpha" operator="out"/>
<feColorMatrix type="matrix" values="0 0 0 0 0 0 0 0 0 0 0 0 0 0 0 0 0 0 0.25 0"/>
<feBlend mode="normal" in2="BackgroundImageFix" result="effect1_dropShadow_1348_1431"/>
<feBlend mode="normal" in="SourceGraphic" in2="effect1_dropShadow_1348_1431" result="shape"/>
</filter>
</defs>
</svg>
