<svg width="521" height="491" viewBox="0 0 521 491" fill="none" xmlns="http://www.w3.org/2000/svg">
<path d="M390.468 95.6382C389.153 95.6382 387.866 95.3629 386.645 94.827C376.125 90.2025 382.129 85.6951 373.185 79.1298C373.185 79.1298 370.792 76.6078 359.204 73.536C350.285 71.1721 347.871 58.1499 359.199 45.542C361.689 50.5743 365.054 55.6015 369.586 59.7465C370.531 60.6404 371.585 61.5109 372.643 62.352C373.396 62.9458 374.06 63.4406 374.635 63.8974L374.635 63.8931C375.857 64.8696 376.837 65.6537 377.623 66.2826C377.721 66.3609 377.816 66.437 377.91 66.5109C378.212 66.7533 378.483 66.97 378.725 67.1632C378.978 67.3653 379.167 67.5168 379.616 67.8756C379.619 67.877 379.634 67.8888 379.667 67.9144C379.724 67.959 379.777 68.0022 379.83 68.044C379.933 68.1289 380.082 68.2482 380.292 68.4158C380.312 68.4319 380.336 68.451 380.365 68.4744C380.415 68.5139 380.478 68.5637 380.559 68.6282L380.695 68.7372C381.19 69.1333 381.907 69.7072 382.924 70.5198C384.065 71.4313 386.017 72.9921 390.021 76.192C390.117 76.2696 390.213 76.3457 390.31 76.4219C390.997 76.987 391.685 77.5324 392.394 77.9687L392.4 77.9622C396.38 80.7126 400.487 82.5457 404.411 83.7492C400.574 91.8943 395.322 95.6389 390.468 95.6382Z" fill="white"/>
<path d="M380.369 56.7727L370.045 69.5801C367.554 72.6678 362.989 73.1904 359.844 70.744L357.979 69.2893C354.836 66.8428 354.306 62.3502 356.797 59.2611L367.122 46.4529L380.369 56.7727ZM402.59 70.5293L398.866 86.455C397.968 90.2964 394.073 92.6959 390.163 91.8114L387.845 91.2896C383.935 90.4066 381.493 86.5751 382.395 82.7352L386.116 66.8087L402.59 70.5293Z" fill="#231F20"/>
<path d="M352.496 22.2954C352.496 22.2954 354.507 48.1395 371.559 61.6413C379.481 67.9155 378.053 66.7876 379.553 67.9743C379.559 67.9765 379.601 68.0109 379.71 68.0949C379.842 68.2032 380.074 68.3876 380.466 68.6968L380.62 68.8188C382.122 70.0076 381.922 69.8505 389.845 76.1246C406.153 89.0388 425.794 85.0311 425.794 85.0311C425.794 85.0311 439.811 81.2695 439.936 67.3838C440.093 49.5199 423.385 33.4418 423.385 33.4418L405.387 19.074C405.387 19.074 383.748 4.46519 369.018 9.10928C355.525 13.3638 352.496 22.2954 352.496 22.2954Z" fill="#CCCCCC"/>
<path d="M378.846 30.9686L373.445 63.0967C376.602 65.5505 378.353 66.9118 379.306 67.6522C379.312 67.6543 379.355 67.6885 379.464 67.7717C379.599 67.8791 379.832 68.0618 380.229 68.3684L380.384 68.4893C381.164 69.096 382.493 70.1316 384.683 71.8243C385.425 72.4004 386.272 73.0391 387.223 73.7781L418.076 61.4544L378.846 30.9686Z" fill="#444545"/>
<path d="M393.298 58.5891L394.296 51.1843L394.392 51.0653L394.308 51.0952L394.318 51.0069L394.221 51.1266L387.133 53.7749L386.333 57.8076C386.207 58.4665 385.935 58.9766 385.358 59.4546L377.086 66.2889C378.316 67.247 379.16 67.9082 379.725 68.3468C379.729 68.3511 379.772 68.3862 379.883 68.4738C380.02 68.5796 380.259 68.7649 380.665 69.0838L380.825 69.2079C381.345 69.6129 382.101 70.2047 383.178 71.0454L388.016 61.6374C388.258 61.163 388.239 60.7668 389.417 60.3428L393.298 58.5891Z" fill="#B7B7B7"/>
<path d="M252.123 47.5458C252.629 46.9588 253.48 46.4204 255.084 46.549L260.075 46.4749C263.851 45.8218 263.963 45.2835 264.044 44.9908C264.165 44.5876 264.173 43.2995 263.371 42.4387C262.566 41.5793 250.717 39.3134 248.288 38.6712C244.424 37.6506 244.43 35.8954 246.008 34.9627C247.319 34.1853 252.572 35.0527 255.856 33.7596C265.02 30.144 269.275 32.8552 269.275 32.8552L282.36 39.3817L279.791 48.286L276.149 49.0437C273.578 50.7705 270.164 52.5467 268.632 52.6884C267.452 53.096 262.937 52.506 261.691 52.2975L253.98 50.2663C252.316 50.0404 251.322 48.464 252.123 47.5458Z" fill="#E8C5AC"/>
<path d="M279.501 32.7902L286.005 48.5924L282.975 49.6354C280.84 50.4277 278.448 50.8052 276.017 45.5048C272.695 38.2729 274.687 34.4288 275.521 34.0942L279.501 32.7902Z" fill="#F4F5F5"/>
<path d="M286.556 48.2744C286.556 48.2744 323.511 33.5178 329.777 33.0339C336.54 32.5099 356.326 36.9306 356.326 36.9306L375.268 9.10833C375.268 9.10833 353.404 9.64525 332.287 13.7161C323.054 15.4974 280.024 32.7336 280.024 32.7336C280.024 32.7336 276.145 33.5386 281.761 43.5512C283.851 47.2852 286.556 48.2744 286.556 48.2744Z" fill="#CCCCCC"/>
<path d="M423.16 181.737C423.788 181.32 424.416 180.557 424.51 178.952L425.25 174.032C426.385 170.394 426.914 170.361 427.203 170.32C427.606 170.26 428.836 170.434 429.552 171.348C430.265 172.267 430.835 184.298 431.122 186.788C431.579 190.752 433.255 190.996 434.361 189.569C435.278 188.384 435.156 183.069 436.834 180.008C441.522 171.469 439.506 166.88 439.506 166.88L435.025 153.021L426.176 154.292L424.958 157.783C422.963 160.078 420.807 163.2 420.465 164.692C419.917 165.801 419.873 170.347 419.907 171.606L420.809 179.515C420.801 181.193 422.172 182.398 423.16 181.737Z" fill="#E8C5AC"/>
<path d="M438.115 154.544L421.116 152.11L420.865 155.215C420.632 157.415 420.866 159.761 426.633 160.812C434.496 162.251 437.732 159.473 437.847 158.607L438.115 154.544Z" fill="#F4F5F5"/>
<path d="M421.45 152.023C421.45 152.023 426.634 112.228 425.572 105.979C424.423 99.2371 415.344 80.9853 415.344 80.9853L437.496 55.5612C437.496 55.5612 442.312 77.0747 443.546 98.733C444.084 108.203 437.998 154.556 437.998 154.556C437.998 154.556 438.168 158.55 427.164 155.543C423.061 154.426 421.45 152.023 421.45 152.023Z" fill="#CCCCCC"/>
<path d="M388.642 75.5558C389.846 76.5005 391.016 77.5797 392.244 78.3323L394.569 75.7275L398.429 76.4194L408.968 62.3567L386.429 73.803C387.073 74.3144 387.806 74.8924 388.642 75.5558ZM374.433 64.2885L380.513 40.077L369.158 53.4808L370.675 57.1084L368.891 59.6825C369.953 60.7383 371.191 61.7619 372.435 62.7461C373.19 63.3387 373.856 63.8326 374.433 64.2885Z" fill="#565656"/>
<path d="M379.222 32.696C387.839 21.8505 403.028 19.5323 413.148 27.5351C423.27 35.5307 424.485 50.8073 415.867 61.6571C407.248 72.504 393.131 73.8631 383.432 66.1945C371.331 56.6336 370.601 43.5444 379.222 32.696ZM421.914 54.8803C422.867 53.6817 424.691 53.5465 425.99 54.5728C427.291 55.6 427.572 57.4018 426.623 58.5996L421.012 63.341C420.061 64.5402 418.252 64.6046 416.951 63.5782C416.951 63.5782 416.525 61.6636 417.475 60.4672L421.914 54.8803Z" fill="#FDDFCB"/>
<path d="M384.726 25.4214C385.669 24.2867 385.391 22.577 384.095 21.6034C382.803 20.6265 380.988 20.7603 380.043 21.895L376.714 28.0895C375.767 29.2243 376.113 30.9045 377.408 31.8794C377.408 31.8794 379.365 31.8554 380.307 30.7206L384.726 25.4214Z" fill="#FDDFCB"/>
<path d="M376.054 48.0589L376.041 48.0494C376.041 48.0494 376.577 49.2738 376.203 49.9277C375.708 50.7912 375.399 51.4721 372.531 51.3522C372.531 51.3522 374.919 54.5061 379.002 56.6992C380.353 57.4232 383.612 58.9033 383.612 58.9033C384.667 59.2394 385.283 59.3168 384.141 59.6068C383.138 59.8603 382.28 59.7427 381.737 59.6251C381.372 59.5455 381.149 59.4666 381.123 59.5009C380.601 60.1745 386.788 63.6819 387.342 63.9617C391.89 66.2513 396.608 67.4509 396.608 67.4509C408.737 70.3768 417.5 65.4294 422.505 59.0158L425.282 55.4499C433.526 44.8751 430.165 30.8834 419.943 22.6544L416.305 19.7234C407.084 12.2994 392.556 10.5285 384.31 21.1004L381.941 24.1389C377.478 29.8621 373.314 38.4337 376.054 48.0589Z" fill="#272520"/>
<path d="M399.12 65.5803C389.879 65.5803 385.415 60.7572 385.055 60.3511C386.823 61.1974 388.862 61.8421 391.535 61.8421C391.723 61.8421 391.915 61.8392 392.111 61.8319C394.676 61.7464 397.687 60.2264 397.687 60.2264C397.687 60.2264 395.771 60.8022 393.861 60.8022H393.777C392.942 60.7942 390.588 60.5223 388.575 59.7181C389.384 59.5288 390.118 59.2946 390.492 59.0321C391.696 58.1756 390.523 58.0386 389.818 58.011C387.019 57.8935 382.393 56.2953 381.195 55.2525C381.574 55.2982 381.973 55.325 382.388 55.325C383.022 55.325 383.694 55.2619 384.389 55.1053C387.167 54.486 389.493 52.3069 389.493 52.3069L388.122 52.9718C387.051 53.4911 384.805 53.8667 383.058 53.8667C382.565 53.8667 382.111 53.837 381.735 53.7717C380.577 53.5694 379.635 53.1539 378.91 52.718C379.654 52.3286 380.634 51.4055 380.39 49.2343C379.932 45.1988 377.988 40.6288 381.23 33.0718C384.342 25.8056 392.612 18.8526 400.87 18.2464C401.135 18.2268 401.412 18.2167 401.698 18.2167C408.751 18.2167 422.084 24.1014 424.718 35.8905C426.683 44.6773 423.874 50.6926 420.143 55.1495C420.143 55.1495 413.42 64.6587 401.036 65.5129C400.376 65.5586 399.737 65.5803 399.12 65.5803Z" fill="#373737"/>
<path d="M410.278 28.9738C410.641 29.4894 411.771 31.8359 410.968 33.7359C410.227 35.4834 408.969 36.3427 408.969 36.3427C409.072 36.3427 410.954 36.1809 412.076 34.2407C412.814 32.9714 412.716 32.4731 412.57 31.8136C412.966 32.6147 413.242 33.3145 413.314 34.5823C413.469 37.3243 411.43 39.166 411.43 39.166C411.557 39.1128 414.744 37.7939 415.255 35.026C415.843 31.828 413.37 29.9834 412.832 29.5167C411.692 28.538 409.673 28.2359 409.673 28.2359L410.278 28.9738Z" fill="#272520"/>
<path d="M412.005 29.147C412.005 29.147 412.238 28.0323 413.543 27.8475C415.342 27.5935 416.255 28.9837 416.255 28.9837C416.255 28.9837 415.404 27.228 414.062 26.6622C411.795 25.7114 409.879 27.8038 409.879 27.8038L412.005 29.147Z" fill="#272520"/>
<path d="M92.258 164.064C91.8326 163.439 91.55 162.51 92.1233 161.069L93.4491 156.462C93.8716 152.813 93.3825 152.564 93.1226 152.409C92.7653 152.19 91.5229 151.831 90.465 152.334C89.41 152.84 83.9023 163.118 82.6014 165.176C80.5346 168.452 78.8361 167.968 78.3749 166.264C77.9927 164.848 80.3011 160.253 79.968 156.883C79.0353 147.478 82.8466 144.302 82.8466 144.302L91.4651 134.235L101.55 133.893L101.162 142.148C102.114 144.981 102.142 148.838 101.852 150.283C101.916 151.479 100.083 155.471 99.5308 156.557L95.4104 163.095C94.7245 164.563 92.9227 165.049 92.258 164.064Z" fill="#E8C5AC"/>
<path d="M102.758 134.043C102.758 134.043 99.7552 100.244 100.812 93.9903C101.955 87.2432 108.39 65.588 108.39 65.588L87.7805 48.2744C87.7805 48.2744 84.9878 65.6863 83.8282 87.3467C83.3235 96.8175 89.0792 135.326 89.0792 135.326C89.0792 135.326 88.4841 139.018 98.2926 136.859C102.536 135.924 102.758 134.043 102.758 134.043Z" fill="#A6A6A6"/>
<path d="M250.112 54.076C250.04 53.3037 249.671 52.3755 248.322 51.5618L244.398 48.6434C241.769 45.9423 241.986 45.4376 242.085 45.1508C242.22 44.7503 242.943 43.6905 244.071 43.4422C245.197 43.1983 255.893 48.1254 258.186 48.99C261.834 50.3639 262.825 48.9213 262.102 47.2519C261.499 45.864 256.833 43.5671 254.958 40.6243C249.729 32.4094 244.811 32.1958 244.811 32.1958L230.716 30.0578L227.711 38.8352L230.173 41.5437C231.238 44.4318 232.941 47.8475 234.079 48.8393C234.785 49.8503 238.706 51.9535 239.815 52.4937L247.093 55.2451C248.542 56.013 250.224 55.2887 250.112 54.076Z" fill="#E8C5AC"/>
<path d="M225.565 42.8093C225.565 42.8093 193.569 27.1911 187.459 26.0767C180.869 24.8739 157.111 25.8094 157.111 25.8094L148.465 -0.000118256C148.465 -0.000118256 166.23 1.66465 187.104 8.86842C195.885 11.8998 231.157 30.7779 231.157 30.7779C231.157 30.7779 234.943 30.9144 228.498 40.2615C227.354 41.9234 225.565 42.8093 225.565 42.8093Z" fill="#A6A6A6"/>
<path d="M137.743 86.5298C128.454 86.5283 115.827 73.4297 113.318 60.0661C110.298 43.9664 126.156 30.0578 141.33 30.0578C145.496 30.0578 149.611 31.1061 153.268 33.4454C172.884 45.9897 172.761 66.3555 166.832 70.6007C165.807 71.3352 164.709 71.6304 163.574 71.6304C161.227 71.6304 158.719 70.3674 156.359 69.1045C153.998 67.8409 151.785 66.578 150.027 66.578C148.315 66.578 147.034 67.7761 146.469 71.3366C146.469 71.3366 146.972 81.1037 143.31 84.4331C141.72 85.8789 139.815 86.5298 137.743 86.5298Z" fill="white"/>
<path d="M122.965 65.1644L129.333 78.7384C130.979 81.8903 134.209 83.9326 137.165 84.611C139.05 85.0415 140.923 83.9977 141.895 82.3084C143.31 79.8502 144.815 75.9235 143.007 72.2036L136.783 57.2525L122.965 65.1644ZM144.247 54.2204L154.038 65.5314C156.47 68.1131 160.131 69.1906 163.156 69.0298C165.087 68.9274 166.606 67.4085 167.086 65.5138C167.787 62.7581 168.173 58.5682 165.43 55.4843L155.41 42.8094L144.247 54.2204Z" fill="#262626"/>
<path d="M116.739 48.8118C118.46 44.4714 118.825 44.1453 124.867 38.5722C130.91 32.9954 139.892 27.5948 141.796 27.7028C143.701 27.8137 146.302 30.9169 146.489 32.2294C146.672 33.5477 152.817 29.2001 146.606 20.931C140.393 12.6604 134.695 -1.66949 115.526 14.9868C96.3619 31.6431 99.573 46.7681 102.142 50.6779C107.652 59.0826 113.762 57.731 119.61 56.3685C119.729 56.3438 117.673 55.6365 116.803 53.8624C115.788 51.7998 116.739 48.8118 116.739 48.8118Z" fill="#74726F"/>
<path d="M159.87 18.0383C159.87 18.0383 165.761 37.0976 165.774 42.9844C165.789 49.8246 160.737 55.1249 155.352 57.1844C151.624 58.6113 150.117 59.3968 149.934 59.5604C149.882 59.6036 146.889 61.2913 145.296 64.1854C143.893 66.7306 144.246 66.3768 141.444 70.2401C139.097 73.4794 133.081 78.6736 122.083 75.5439C111.365 72.4928 98.8089 63.6276 98.8089 63.6276C98.8089 63.6276 88.405 62.1172 87.6495 56.4631C85.4001 39.6414 102.13 25.7145 102.13 25.7145L119.833 9.93269C119.833 9.93269 131.086 -0.591408 148.031 0.0261688C155.044 0.277672 159.87 18.0383 159.87 18.0383Z" fill="#A6A6A6"/>
<path d="M144.167 61.1778L125.174 54.5945L140.851 41.9031L145.978 59.2939C145.384 59.8164 144.753 60.4454 144.167 61.1778ZM149.468 59.3449C149.537 59.2846 149.794 59.1329 150.287 58.8971L143.124 34.6118L116.586 56.0975L143.951 65.5803C144.178 65.1642 144.434 64.6783 144.833 63.9581C146.425 61.0714 149.416 59.3881 149.468 59.3449Z" fill="#2E2E2E"/>
<path d="M142.085 38.2553L121.141 55.382L145.061 63.7588C146.055 62.0721 147.494 60.8205 148.466 60.0985L142.085 38.2553Z" fill="#F7F7F7"/>
<path d="M131.371 21.8602C131.371 21.8602 140.804 33.5079 137.89 43.2276C135.875 49.9482 130.922 53.9603 127.089 54.9436C126.178 55.179 123.383 55.5613 123.383 55.5613C123.383 55.5613 128.849 53.9029 131.284 48.4563C133.089 44.4216 131.06 38.3892 127.704 35.0012C115.21 22.3929 131.371 21.8602 131.371 21.8602Z" fill="#242424"/>
<path d="M120.504 54.7807C122.152 51.1602 122.479 50.8962 127.88 46.3997C133.281 41.9002 141.189 37.6604 142.818 37.8323C144.443 38.0012 146.475 41.7798 146.432 42.9098C146.403 43.6851 150.444 36.7473 147.21 32.2638C142.04 25.1027 137.916 12.5594 120.829 25.9585C103.741 39.3589 105.885 52.3518 107.925 55.7823C112.309 63.1537 117.593 62.2508 122.658 61.3232C122.763 61.3072 121.03 60.6269 120.354 59.0792C119.569 57.2879 120.504 54.7807 120.504 54.7807Z" fill="#292929"/>
<path d="M135.59 21.2604C127.418 11.1394 115.826 8.67423 106.452 16.3194C97.0802 23.9588 97.1094 36.2467 105.285 46.3713C113.458 56.4938 122.273 61.9936 134.651 52.4041C147.406 42.5234 143.765 31.3851 135.59 21.2604Z" fill="#FDDFCB"/>
<path d="M102.373 15.2861C102.373 15.2861 107.007 9.97927 117.238 7.18335C124.18 5.28717 133.817 6.46899 141.583 13.5394C148.026 19.403 152.298 28.6906 149.327 38.1356C148.115 41.9917 146.623 42.8093 146.623 42.8093C146.623 42.8093 149.069 38.8221 145.55 35.5961C142.239 32.5672 139.564 35.0011 136.841 36.9684C133.954 39.0529 128.801 40.8568 123.713 37.6886C118.626 34.5212 99.1514 27.8692 102.373 15.2861Z" fill="#393939"/>
<path d="M92.0675 37.2894C92.0675 37.2894 90.2453 22.5198 105.008 13.2947C115.13 6.97329 125.212 14.8602 129.197 19.0962C133.828 24.0303 139.646 35.443 132.029 46.4574C126.281 54.7759 116.651 54.2169 116.863 58.6173C116.973 60.9648 121.725 60.5014 123.323 60.4174C123.856 60.3906 124.189 60.3472 124.189 60.3472C124.189 60.3472 115.827 64.8127 105.88 58.7758C99.2405 54.744 92.6054 48.1503 92.0675 37.2894Z" fill="#242424"/>
<path d="M256.445 474.547C250.609 474.547 245.052 472.015 240.722 466.123C223.189 442.272 231.519 419.815 240.441 417.439C243.926 416.511 246.316 416.217 248.211 416.217C249.854 416.217 251.124 416.438 252.41 416.659C253.696 416.881 254.998 417.103 256.707 417.103C257.555 417.103 258.505 417.048 259.601 416.911C259.601 416.911 259.632 416.931 259.77 416.931C260.338 416.931 262.71 416.606 272.139 413.297C273.447 412.838 274.811 412.61 276.185 412.61C284.938 412.61 294.034 421.893 290.799 439.939C287.441 458.676 271.061 474.547 256.445 474.547Z" fill="white"/>
<path d="M270.226 442.425L268.632 426.139C268.247 422.212 271.143 418.718 275.102 418.336L277.454 418.109C281.414 417.728 284.936 420.603 285.319 424.532L286.916 440.817L270.226 442.425ZM239.36 445.4L237.765 429.116C237.381 425.186 240.277 421.693 244.238 421.311L246.587 421.083C250.546 420.703 254.07 423.579 254.451 427.507L256.046 443.792L239.36 445.4Z" fill="#231F20"/>
<path d="M313.965 447.95C313.965 447.95 294.595 430.722 272.969 432.827C262.918 433.805 264.729 433.627 262.828 433.812C262.821 433.814 262.767 433.819 262.632 433.833C262.46 433.848 262.165 433.876 261.669 433.926C261.613 433.931 261.539 433.938 261.474 433.944C259.57 434.13 259.822 434.104 249.773 435.081C229.089 437.093 217.741 453.616 217.741 453.616C217.741 453.616 210.267 466.053 219.811 476.147C232.086 489.128 255.252 489.121 255.252 489.121L278.16 486.979C278.16 486.979 303.854 482.489 311.226 468.919C317.98 456.487 313.965 447.95 313.965 447.95Z" fill="#ABABAB"/>
<path d="M288.736 460.645L270.13 433.559C266.172 433.945 263.976 434.157 262.783 434.274C262.776 434.277 262.722 434.282 262.587 434.296C262.415 434.31 262.121 434.338 261.625 434.389C261.569 434.394 261.496 434.4 261.431 434.407C260.122 434.535 257.617 434.779 252.911 435.237L239.551 465.439L288.736 460.645Z" fill="#444545"/>
<path d="M259.214 450.172L263.613 456.179L263.628 456.33L263.666 456.251L263.717 456.321L263.706 456.168L266.874 449.422L264.66 445.976C264.296 445.416 264.137 444.862 264.212 444.126L265.333 433.559C263.808 433.71 262.755 433.812 262.056 433.881C262.05 433.881 261.996 433.885 261.858 433.898C261.688 433.916 261.393 433.945 260.886 433.994L260.689 434.014C260.042 434.076 259.104 434.17 257.766 434.299L260.836 444.371C260.993 444.876 261.28 445.15 260.741 446.26L259.214 450.172Z" fill="#B7B7B7"/>
<path d="M287.696 459.311C289.03 472.973 279.77 485.051 267.005 486.286C254.242 487.52 242.818 477.445 241.485 463.782C240.153 450.117 249.306 439.457 261.541 438.275C276.799 436.796 286.365 445.645 287.696 459.311ZM241.842 472.773C241.991 474.281 240.777 475.631 239.142 475.791C237.502 475.949 236.055 474.853 235.906 473.349L236.642 466.109C236.493 464.601 237.743 463.312 239.381 463.153C239.381 463.153 241.008 464.227 241.156 465.735L241.842 472.773Z" fill="#FDDFCB"/>
<path d="M288.492 468.374C288.634 469.926 290.024 471.053 291.598 470.888C293.171 470.727 294.331 469.334 294.188 467.784L292.156 460.616C292.014 459.064 290.601 458.004 289.026 458.169C289.026 458.169 287.692 459.578 287.835 461.129L288.492 468.374Z" fill="#FDDFCB"/>
<path d="M277.814 444.059L277.832 444.058L273.2 442.809C268.813 441.765 268.219 442.492 266.043 443.737L265.684 443.941C264.738 444.439 264.338 444.295 264.202 443.18C264.138 442.66 263.959 441.346 263.899 440.679C263.818 439.874 263.451 439.819 262.907 440.062L250.358 445.825C241.372 449.822 237.853 460.715 238.786 468.367L239.302 472.621C240.836 485.239 252.581 492.235 265.108 490.744L269.567 490.215C280.861 488.871 291.95 480.17 290.416 467.552L289.976 463.927C289.146 457.095 286.104 446.393 277.814 444.059Z" fill="#2B2B2B"/>
<path d="M274.135 446.202L274.15 446.2L270.169 445.13C266.397 444.236 265.887 444.858 264.015 445.926L263.707 446.102C262.896 446.527 262.552 446.405 262.434 445.447C262.379 445.002 262.224 443.876 262.172 443.304C262.105 442.614 261.789 442.569 261.321 442.777L250.534 447.715C242.809 451.141 239.785 460.479 240.586 467.037L241.029 470.684C242.346 481.499 252.444 487.496 263.213 486.218L267.044 485.764C276.754 484.611 286.286 477.154 284.97 466.339L284.59 463.23C283.876 457.376 281.263 448.202 274.135 446.202Z" fill="#3D3D3D"/>
<path d="M358.029 359.262C358.366 359.948 358.532 360.928 357.818 362.333L356.018 366.889C355.197 370.566 355.638 370.876 355.869 371.063C356.188 371.327 357.34 371.831 358.414 371.436C359.486 371.037 365.946 361.161 367.43 359.206C369.79 356.095 371.364 356.777 371.613 358.568C371.818 360.057 369.079 364.488 369.014 367.967C368.838 377.671 364.816 380.486 364.816 380.486L354.066 389.839L347.031 384.076L347.711 380.48C347.118 377.481 346.798 373.699 347.244 372.257C347.319 371.028 349.535 367.158 350.188 366.111L354.891 359.898C355.715 358.475 357.502 358.182 358.029 359.262Z" fill="#E8C5AC"/>
<path d="M356.92 390.75L341.566 384.023L342.979 381.008C343.933 378.84 345.35 376.786 350.676 378.857C357.944 381.679 359.174 385.97 358.817 386.837L356.92 390.75Z" fill="#F4F5F5"/>
<path d="M341.235 384.012C341.235 384.012 325.41 420.617 321.299 425.393C316.862 430.544 299.668 441.389 299.668 441.389L305.894 474.547C305.894 474.547 321.055 458.71 333.184 440.893C338.486 433.101 356.875 390.436 356.875 390.436C356.875 390.436 359.063 387.122 347.986 383.976C343.859 382.802 341.235 384.012 341.235 384.012Z" fill="#ABABAB"/>
<path d="M153.741 373.653C153.654 374.41 153.836 375.38 155.018 376.442L158.351 380.058C160.432 383.199 160.11 383.641 159.953 383.897C159.736 384.255 158.795 385.129 157.617 385.135C156.439 385.139 146.732 378.196 144.611 376.893C141.238 374.82 139.951 376.008 140.335 377.764C140.653 379.224 144.857 382.395 146.134 385.615C149.691 394.6 154.572 395.815 154.572 395.815L168.253 400.769L173.06 392.933L171.147 389.819C170.673 386.816 169.663 383.178 168.728 381.988C168.227 380.87 164.729 378.04 163.73 377.292L157.004 373.146C155.706 372.109 153.874 372.461 153.741 373.653Z" fill="#E8C5AC"/>
<path d="M163.778 404.413L178.525 395.826L176.695 393.135C175.44 391.192 173.73 389.422 168.581 392.149C161.553 395.866 160.86 400.149 161.337 400.929L163.778 404.413Z" fill="#F4F5F5"/>
<path d="M178.838 395.512C178.838 395.512 199.439 429.838 204.151 434.037C209.236 438.567 227.708 447.034 227.708 447.034L226.035 480.923C226.035 480.923 208.898 467.206 194.492 451.097C188.195 444.055 164.236 404.042 164.236 404.042C164.236 404.042 161.625 401.036 172.155 396.394C176.078 394.664 178.838 395.512 178.838 395.512Z" fill="#ABABAB"/>
<path d="M63.9791 320.615C65.0103 314.393 65.1084 307.519 63.158 300.772C60.3382 291.027 60.8483 292.783 60.3148 290.94C60.3119 290.932 60.2972 290.879 60.2584 290.748C60.2109 290.583 60.1289 290.297 59.9906 289.816L59.935 289.627C59.4007 287.779 59.4732 288.024 56.6556 278.279C54.1753 269.702 49.3474 263.287 44.6328 258.752C50.6054 254.311 56.0481 252.302 60.2848 252.302C63.5876 252.302 66.1586 253.523 67.6764 255.764C74.0874 265.235 65.9566 270.32 71.7579 284.581C71.7579 284.581 71.5427 285.503 79.3076 295.26C85.27 302.751 81.6993 316.304 63.9791 320.615Z" fill="white"/>
<path d="M53.4201 299.965L69.3683 295.467C73.2148 294.382 77.2201 296.596 78.3152 300.415L78.9652 302.682C80.0589 306.5 77.8239 310.478 73.9781 311.562L58.0292 316.061L53.4201 299.965ZM41.8984 264.571L55.6355 255.358C58.9504 253.134 63.4506 253.998 65.6927 257.29L67.0223 259.241C69.2608 262.53 68.3908 267.001 65.0744 269.219L51.3359 278.436L41.8984 264.571Z" fill="#8C8C8C"/>
<path d="M78.955 302.538L78.2853 300.278C77.226 296.702 73.5212 294.538 69.7911 295.185C66.785 302.079 71.7096 309.317 73.4052 311.507L73.8163 311.393C77.779 310.311 80.0819 306.346 78.955 302.538ZM54.916 255.354L54.6484 255.527C55.4327 259.585 57.7155 266.037 64.3565 268.127C64.7506 268.252 65.1474 268.368 65.5466 268.476C68.1936 266.113 68.734 262.192 66.649 259.226L65.279 257.28C62.9687 253.999 58.3317 253.137 54.916 255.354Z" fill="#E0E2E2"/>
<path d="M67.8234 303.686C68.0234 303.625 68.2343 303.738 68.2947 303.938C68.3559 304.138 68.2436 304.351 68.0443 304.411L53.7903 308.758C53.5902 308.818 53.3801 308.705 53.3189 308.505C53.257 308.306 53.3686 308.093 53.5693 308.032L67.8234 303.686ZM56.6916 263.286C56.8715 263.179 57.1039 263.238 57.2118 263.418C57.3176 263.598 57.2586 263.83 57.0794 263.938L44.2926 271.604C44.2062 271.655 44.1031 271.671 44.0057 271.646C43.9083 271.622 43.8245 271.56 43.7723 271.473C43.7468 271.431 43.73 271.383 43.7228 271.334C43.7155 271.285 43.7181 271.234 43.7302 271.186C43.7424 271.138 43.764 271.092 43.7936 271.052C43.8233 271.012 43.8606 270.978 43.9033 270.953L56.6916 263.286Z" fill="#ADA4A4"/>
<path d="M55.6054 344.227C55.6054 344.227 69.1137 321.917 63.1512 300.853C60.3783 291.064 60.8799 292.828 60.3553 290.977C60.3524 290.969 60.338 290.916 60.2998 290.784C60.2531 290.619 60.1725 290.331 60.0364 289.848L59.9817 289.658C59.4564 287.802 59.5276 288.048 56.7569 278.26C51.0535 258.112 32.7219 249.841 32.7219 249.841C32.7219 249.841 19.1138 244.673 10.8754 255.953C0.281286 270.465 4.45519 293.433 4.45519 293.433L10.6823 315.762C10.6823 315.762 19.7294 340.428 34.4383 345.293C47.9106 349.748 55.6054 344.227 55.6054 344.227Z" fill="#CCCCCC"/>
<path d="M66.5548 305.595C66.6458 305.577 66.7396 305.577 66.8308 305.594C66.922 305.611 67.0088 305.646 67.0862 305.696C67.1636 305.745 67.2302 305.81 67.282 305.884C67.3339 305.959 67.37 306.043 67.3884 306.131C67.4669 306.502 67.2187 306.863 66.8359 306.939C66.4546 307.013 66.0801 306.773 66.0023 306.404C65.9246 306.033 66.1728 305.671 66.5548 305.595ZM65.4498 301.849C65.8326 301.773 66.2057 302.013 66.2834 302.384C66.3612 302.755 66.113 303.117 65.7317 303.193C65.3489 303.267 64.9751 303.027 64.8973 302.658C64.8203 302.287 65.067 301.923 65.4498 301.849ZM56.5269 264.975C56.9089 264.9 57.2827 265.139 57.3597 265.508C57.4375 265.879 57.19 266.243 56.808 266.317C56.4245 266.393 56.0514 266.153 55.9736 265.782C55.8951 265.411 56.1426 265.049 56.5269 264.975ZM54.4193 261.424C54.8021 261.35 55.1759 261.589 55.2537 261.96C55.3307 262.331 55.0832 262.693 54.7019 262.769C54.3184 262.843 53.9453 262.603 53.8668 262.233C53.7906 261.862 54.0365 261.5 54.4193 261.424ZM53.6807 266.7C54.0635 266.624 54.4365 266.865 54.5143 267.236C54.5928 267.608 54.3446 267.969 53.9618 268.043C53.5797 268.119 53.2059 267.881 53.1274 267.507C53.0512 267.137 53.2979 266.775 53.6807 266.7ZM51.5746 263.15C51.9581 263.076 52.3304 263.314 52.4082 263.686C52.486 264.056 52.2392 264.419 51.8557 264.494C51.4737 264.569 51.0991 264.329 51.0221 263.959C50.9443 263.587 51.1918 263.226 51.5746 263.15Z" fill="#ADA4A4"/>
<path d="M39.8317 319.59C26.3841 323.356 12.5988 316.423 9.04258 304.093C5.48576 291.767 13.5059 278.726 26.9533 274.957C40.4038 271.194 52.7492 278.277 56.1572 290.096C60.4107 304.832 53.2811 315.827 39.8317 319.59ZM18.0107 276.926C16.5258 277.341 14.9531 276.392 14.4955 274.811C14.0382 273.227 14.874 271.609 16.356 271.193L23.7416 270.614C25.2253 270.198 26.745 271.194 27.2019 272.778C27.2019 272.778 26.421 274.571 24.937 274.985L18.0107 276.926Z" fill="#FDDFCB"/>
<path d="M31.0828 321.822C29.6372 322.256 28.825 323.947 29.2705 325.598C29.7148 327.247 31.2494 328.234 32.6929 327.8L39.1177 324.324C40.5633 323.89 41.3068 322.188 40.8603 320.535C40.8603 320.535 39.2786 319.368 37.833 319.801L31.0828 321.822Z" fill="#FDDFCB"/>
<path d="M51.6858 309.407L51.6887 309.423C51.6887 309.423 51.9624 308.123 52.6468 307.818C53.5499 307.414 54.1973 307.049 56.472 308.831C56.472 308.831 56.3467 304.891 54.2777 300.729C53.5919 299.353 51.7871 296.249 51.7871 296.249C51.1187 295.356 50.6603 294.933 51.7596 295.372C53.3797 296.018 54.0648 297.259 54.1676 297.23C54.986 296.997 51.9573 290.539 51.6655 289.988C49.2734 285.475 46.1108 281.735 46.1108 281.735C37.8889 272.256 27.8588 271.082 20.0543 273.298L15.7184 274.528C2.85529 278.182 -2.49846 291.405 1.09374 304.03L2.37073 308.524C5.61126 319.912 16.4625 329.875 29.3261 326.224L33.0215 325.176C39.9855 323.199 48.3522 318.756 51.6858 309.407Z" fill="#272520"/>
<path d="M25.3949 321.526C21.193 321.526 17.003 320.58 13.6307 318.5C7.73237 314.862 -0.690692 301.54 4.20159 289.938C7.70461 281.626 13.5401 278.41 19.229 277.014C19.229 277.014 22.3072 275.984 26.7893 275.984C30.8233 275.984 35.9952 276.819 41.0845 279.988C50.2341 285.683 51.2262 293.134 51.2914 293.715C50.2551 291.85 48.8261 289.988 46.3195 288.304C44.1469 286.842 40.7686 286.282 40.7686 286.282C40.7686 286.282 42.7469 286.977 44.3397 288.147C45.0252 288.652 46.813 290.277 48.0108 292.13C47.2289 291.801 46.4876 291.555 46.0224 291.546C46.0028 291.546 45.9832 291.545 45.9637 291.545C44.5506 291.545 45.4274 292.34 45.9854 292.777C48.2326 294.542 51.1255 298.6 51.5081 300.161C50.7834 299.497 49.8834 298.852 48.7812 298.377C47.1826 297.683 45.3905 297.544 44.2151 297.544C43.4346 297.544 42.9252 297.606 42.9252 297.606L44.4477 297.884C45.9709 298.162 48.958 299.785 50.1979 301.043C51.037 301.899 51.5747 302.798 51.9197 303.584C51.7878 303.564 51.6436 303.551 51.49 303.551C50.6609 303.551 49.5595 303.921 48.663 305.533C46.6847 309.085 45.6238 313.959 38.533 318.168C34.9154 320.316 30.1479 321.526 25.3949 321.526Z" fill="#373737"/>
<path d="M12.3829 305.09C12.3799 304.461 12.8341 301.906 14.7632 300.863C16.5335 299.904 18.2171 299.966 18.2171 299.966C18.124 299.903 16.3166 298.912 14.075 299.797C12.6066 300.373 12.3805 300.832 12.0968 301.447C12.2424 300.57 12.433 299.844 13.1694 298.786C14.7577 296.497 17.7684 296.236 17.7684 296.236C17.6188 296.201 13.8985 295.361 11.6903 297.274C9.13923 299.485 10.2158 302.436 10.4123 303.132C10.8265 304.595 12.4654 306.042 12.4654 306.042L12.3829 305.09Z" fill="#272520"/>
<path d="M11.6226 303.275C11.6226 303.275 10.6158 304.159 9.21496 303.456C7.28635 302.486 7.37397 300.577 7.37397 300.577C7.37397 300.577 6.97124 302.785 7.881 304.217C9.41664 306.627 12.7502 305.956 12.7502 305.956L11.6226 303.275Z" fill="#272520"/>
<path d="M151.231 378.879C150.51 379.145 149.514 379.21 148.188 378.345L143.837 376.063C140.256 374.852 139.899 375.263 139.687 375.475C139.388 375.768 138.759 376.869 139.037 377.987C139.318 379.103 148.471 386.62 150.262 388.311C153.11 391.004 152.256 392.511 150.441 392.571C148.933 392.623 144.808 389.41 141.343 388.979C131.675 387.784 129.303 383.455 129.303 383.455L121.141 371.696L127.66 365.246L131.176 366.306C134.233 366.028 138.045 366.105 139.436 366.702C140.655 366.906 144.275 369.534 145.249 370.299L150.938 375.668C152.269 376.643 152.367 378.465 151.231 378.879Z" fill="#E8C5AC"/>
<path d="M116.586 376.619L120.649 359.782L123.833 360.777C126.113 361.43 128.357 362.578 127.203 368.379C125.634 376.294 121.636 378.215 120.728 377.98L116.586 376.619Z" fill="#F4F5F5"/>
<path d="M120.859 359.775C120.859 359.775 82.065 349.921 76.6848 346.629C70.8802 343.076 57.4347 327.902 57.4347 327.902L25.5039 339.123C25.5039 339.123 43.5851 351.534 63.1607 360.67C71.7211 364.663 116.927 376.095 116.927 376.095C116.927 376.095 120.557 377.727 121.95 366.386C122.469 362.161 120.859 359.775 120.859 359.775Z" fill="#CCCCCC"/>
<path d="M95.9197 164.533C95.1775 164.646 94.2988 165.066 93.5864 166.46L89.2501 175.43C87.8139 178.325 85.9786 178.457 85.085 176.494C84.6075 175.447 89.4489 162.187 90.1564 159.845C91.2863 156.125 89.8338 155.215 88.256 156.029C86.9465 156.706 84.4957 163.728 81.752 165.765C74.089 171.441 74.1548 176.369 74.1548 176.369L72.8672 190.575L81.5305 193.098L84.0167 190.487C86.7561 189.265 89.9647 187.374 90.8632 186.183C91.8027 185.422 94.4382 181.34 95.053 178.608L97.2194 167.484C97.8816 165.993 97.0871 164.351 95.9197 164.533Z" fill="#E8C5AC"/>
<path d="M68.3125 184.742L80.1132 196.741L82.2618 194.364C83.8287 192.714 85.1188 190.668 81.2585 186.413C75.9956 180.608 71.7123 180.959 71.0751 181.596L68.3125 184.742Z" fill="#F4F5F5"/>
<path d="M80.1539 196.715C80.1539 196.715 51.6368 225.038 48.6872 230.636C45.5046 236.676 41.7544 256.697 41.7544 256.697L8.19922 263.233C8.19922 263.233 17.4103 243.249 29.6285 225.345C34.9725 217.518 68.2268 184.558 68.2268 184.558C68.2268 184.558 70.5273 181.291 77.6516 190.423C80.3069 193.825 80.1539 196.715 80.1539 196.715Z" fill="#CCCCCC"/>
<path d="M439.963 306.953C431.257 303.894 426.002 297.951 426.284 293.853C426.9 284.947 439.61 286.996 443.251 279.858C443.251 279.858 445.322 276.927 441.584 269.696C438.996 264.688 446.423 259.589 456.13 259.589C460.42 259.589 465.156 260.586 469.669 263.027C469.779 263.086 469.886 263.146 469.994 263.206C468.051 263.416 466.14 263.712 464.349 264.119C453.107 266.675 450.34 274.055 449.854 277.985C449.269 282.675 449.408 282.199 449.416 285.075C449.426 288.347 447.607 291.241 447.583 291.302C447.501 291.531 446.553 292.935 443.96 295.956C441.493 298.83 439.843 302.851 439.963 306.953Z" fill="white"/>
<path d="M471.817 268.753L457.912 263.703C454.565 262.646 450.871 263.484 448.317 265.084C446.684 266.106 446.088 268.154 446.573 270.022C447.279 272.742 448.94 276.555 452.796 277.897L467.553 284.013L471.817 268.753ZM455.325 293.516L441.421 288.464C438.073 287.408 434.379 288.246 431.825 289.845C430.192 290.869 429.596 292.917 430.082 294.784C430.788 297.506 432.448 301.317 436.306 302.655L451.061 308.774L455.325 293.516Z" fill="#383838"/>
<path d="M481.934 284.831C482.524 289.412 482.363 289.871 479.766 297.589C477.174 305.313 471.921 314.297 470.204 315.119C468.483 315.938 464.705 314.502 463.907 313.454C463.108 312.402 459.832 319.112 469.264 323.285C478.7 327.457 490.614 337.113 499.341 313.509C508.067 289.903 497.946 278.36 493.809 276.211C484.925 271.588 480.228 275.689 475.77 279.674C475.748 279.693 475.849 279.687 476.037 279.68C476.652 279.659 478.197 279.639 479.436 280.496C481.323 281.79 481.934 284.831 481.934 284.831Z" fill="#74726F"/>
<path d="M458.822 332.782C458.822 332.782 444.507 318.85 441.662 313.669C438.352 307.645 440.186 300.513 443.877 296.072C446.431 292.998 447.365 291.569 447.446 291.336C447.47 291.274 449.262 288.33 449.252 285C449.244 282.074 449.107 282.558 449.683 277.786C450.162 273.787 452.887 266.278 463.962 263.677C474.756 261.144 489.951 262.839 489.951 262.839C489.951 262.839 499.73 259.101 503.11 263.719C513.178 277.451 505.341 297.883 505.341 297.883L497.553 320.419C497.553 320.419 492.839 335.18 477.804 342.89C471.583 346.088 458.822 332.782 458.822 332.782Z" fill="#8C8C8C"/>
<path d="M474.727 322.263C489.096 327.359 502.189 322.604 506.867 309.047C511.545 295.493 503.974 283.13 489.605 278.035C475.234 272.939 463.059 272.901 456.572 290.293C449.89 308.214 460.355 317.165 474.727 322.263Z" fill="#FDDFCB"/>
<path d="M472.824 301.044C472.824 301.044 466.373 295.043 466.96 285.933C467.672 274.943 474.348 271.47 479.313 271.431C486.256 271.379 495.902 273.281 503.411 279.714C514.467 289.186 513.926 301.564 510.994 309.801C507.412 319.87 500.394 326 486.715 327.718C475.229 329.162 462.287 321.822 460.203 315.198C458.81 310.776 463.832 302.067 472.824 301.044Z" fill="#36312F"/>
<path d="M480.866 295.285C480.866 295.285 481.639 270.921 477.551 270.549C473.532 270.18 465.506 273.285 463.592 278.758C462.056 283.146 462.606 287.4 463.089 289.472C464.069 293.708 466.917 297.426 466.917 297.426C466.917 297.426 465.651 296.378 463.327 293.965C461.756 292.329 460.551 290.787 460.095 287.647C460.044 287.306 459.6 291.541 460.505 293.888C462.484 298.985 465.643 299.96 465.643 299.96C465.643 299.96 461.989 300.749 460.19 302.203C457.837 304.102 458.104 307.045 458.104 307.045C458.104 307.045 458.685 316.791 456.482 313.546C455.33 311.842 452.539 310.351 451.974 311.969C451.407 313.584 452.244 317.313 452.244 317.313C452.244 317.313 452.532 313.719 454.369 315.14C456.206 316.561 456.544 321.153 461.011 317.269C465.482 313.385 473.932 313.993 480.866 295.285Z" fill="#36312F"/>
<path d="M498.162 324.291C489.463 321.208 485.099 310.949 488.406 301.375C491.714 291.801 501.444 286.536 510.142 289.616C518.839 292.695 523.205 302.953 519.895 312.528C516.588 322.105 506.86 327.368 498.162 324.291Z" fill="#23201F"/>
<path d="M480.664 302.399C480.664 302.399 474.045 300.655 470.818 296.92C467.594 293.186 464.927 287.532 467.199 282.27C472.24 270.59 487.301 274.965 487.301 274.965C487.301 274.965 476.565 274.046 472.423 282.286C467.156 292.749 480.664 302.399 480.664 302.399Z" fill="#494949"/>
<path d="M498.981 321.526C498.981 321.526 494.75 318.044 492.98 312.921C491.434 308.464 490.921 302.998 495.129 296.79C498.225 292.228 501.959 290.558 505.023 290.558C505.533 290.558 506.023 290.604 506.489 290.691C516.423 292.534 513.219 303.204 513.219 303.204C513.219 303.204 514.056 293.812 504.659 293.812C504.501 293.812 504.34 293.815 504.176 293.82C501.958 293.895 500.075 295.14 498.216 297.658C489.329 309.707 498.981 321.526 498.981 321.526Z" fill="#505050"/>
<path d="M480.13 302.399C480.13 302.399 476.392 301.296 474.32 298.497C472.251 295.701 470.881 290.271 472.588 286.11C474.973 280.314 482.746 281.562 482.746 281.562C482.746 281.562 477.246 281.81 475.227 287.032C471.912 295.605 480.13 302.399 480.13 302.399Z" fill="#494949"/>
<path d="M480.957 302.399C480.957 302.399 478 301.555 476.36 299.417C474.722 297.282 472.667 295.101 474.145 291.977C476.673 286.631 483.656 289.511 483.656 289.511C483.656 289.511 478.516 289.101 477.183 292.247C474.426 298.741 480.957 302.399 480.957 302.399Z" fill="#494949"/>
<path d="M497.989 309.685C497.989 309.685 496.847 306.911 497.539 304.324C498.227 301.736 500.106 299.119 502.067 297.898C503.181 297.205 504.332 296.934 505.384 296.934C506.892 296.934 508.193 297.492 508.871 298.165C510.792 300.068 509.825 303.647 509.825 303.647C509.825 303.647 508.464 299.382 505.061 299.382C504.724 299.382 504.367 299.424 503.99 299.516C497.092 301.194 497.989 309.685 497.989 309.685Z" fill="#505050"/>
<path d="M463.285 315.15C462.045 315.15 460.883 314.77 460.883 314.77C460.883 314.77 460.965 314.776 461.101 314.776C461.693 314.776 463.297 314.67 463.507 313.54C463.824 311.829 460.29 309.609 463.204 305.4C464.817 303.074 467.228 302.399 469.487 302.399C472.619 302.399 475.456 303.699 475.456 303.699C474.83 303.558 474.216 303.491 473.62 303.491C469.031 303.491 465.533 307.44 466.162 311.708C466.58 314.53 464.869 315.15 463.285 315.15Z" fill="#818181"/>
<path d="M427.521 183.397C428.287 183.369 429.245 183.624 430.221 184.878L433.593 188.458C436.581 190.764 437.051 190.481 437.319 190.344C437.693 190.158 438.641 189.296 438.739 188.129C438.831 186.962 432.611 176.81 431.465 174.61C429.643 171.109 430.932 169.926 432.664 170.443C434.103 170.873 436.963 175.281 440.092 176.798C448.831 181.019 449.676 185.946 449.676 185.946L453.599 199.88L445.379 204.028L442.401 201.892C439.428 201.186 435.858 199.903 434.737 198.886C433.653 198.301 431.082 194.618 430.408 193.57L426.766 186.587C425.826 185.223 426.317 183.436 427.521 183.397Z" fill="#E8C5AC"/>
<path d="M445.519 205.3C445.519 205.3 466.8 231.54 469.425 237.294C472.254 243.503 479.085 264.972 479.085 264.972L505.514 267.787C505.514 267.787 498.083 251.851 486.956 233.316C482.09 225.212 455.941 196.618 455.941 196.618C455.941 196.618 454.367 193.236 447.584 200.488C444.65 203.624 445.519 205.3 445.519 205.3Z" fill="#8C8C8C"/>
<path d="M364.559 355.614C365.105 356.137 365.974 356.578 367.501 356.29L372.298 355.854C375.986 356.116 376.146 356.632 376.257 356.91C376.411 357.295 376.55 358.553 375.869 359.479C375.182 360.403 364.046 363.824 361.781 364.7C358.176 366.093 358.361 367.813 359.968 368.568C361.305 369.196 366.258 367.813 369.539 368.749C378.695 371.365 382.504 368.276 382.504 368.276L394.394 360.551L391.028 352.085L387.458 351.711C384.816 350.278 381.361 348.883 379.876 348.899C378.704 348.619 374.433 349.654 373.259 349.987L366.064 352.758C364.492 353.148 363.699 354.794 364.559 355.614Z" fill="#E8C5AC"/>
<path d="M390.845 350C390.845 350 426.261 344.829 431.968 342.276C438.127 339.521 457.353 325.17 457.353 325.17L479.102 341.883C479.102 341.883 463.393 350.629 441.971 356.506C432.961 358.978 392.983 363.284 392.983 363.284C392.983 363.284 389.758 365.33 389.841 353.812C389.858 351.763 390.845 350 390.845 350Z" fill="#8C8C8C"/>
</svg>
