<svg width="618" height="610" viewBox="0 0 618 610" fill="none" xmlns="http://www.w3.org/2000/svg">
<circle cx="298" cy="296" r="275" fill="#EAF5E3"/>
<circle cx="296" cy="296" r="238" fill="#E0EFD4"/>
<path d="M329.335 133.311C328.386 133.954 327.323 134.386 326.18 134.597C316.326 136.411 318.451 130.22 308.784 129.862C308.784 129.862 305.823 129.214 295.96 132.671C288.367 135.332 280.251 127.119 282.25 112.478C286.511 114.889 291.399 116.868 296.698 117.64C297.818 117.822 299.004 117.934 300.179 118.023C301.013 118.083 301.734 118.115 302.373 118.163L302.371 118.159C303.73 118.266 304.822 118.352 305.697 118.421C305.806 118.429 305.911 118.437 306.015 118.445C306.352 118.472 306.654 118.495 306.923 118.516C307.204 118.539 307.415 118.555 307.914 118.594C307.917 118.594 307.934 118.595 307.97 118.597C308.033 118.602 308.093 118.607 308.151 118.611C308.267 118.622 308.433 118.635 308.666 118.653C308.689 118.655 308.715 118.657 308.748 118.659C308.803 118.664 308.873 118.668 308.963 118.675L309.114 118.688C309.666 118.731 310.463 118.794 311.595 118.882C312.865 118.981 315.037 119.151 319.492 119.5C319.6 119.509 319.706 119.517 319.813 119.524C320.585 119.596 321.349 119.652 322.074 119.62L322.075 119.612C326.293 119.648 330.153 118.96 333.574 117.907C334.793 125.662 332.838 130.934 329.335 133.311Z" fill="white"/>
<path d="M303.023 110.216L301.846 124.51C301.56 127.958 298.523 130.569 295.056 130.344L292.998 130.208C289.533 129.981 286.951 127 287.236 123.552L288.414 109.256L303.023 110.216ZM325.79 109.262L330.9 122.574C332.133 125.785 330.497 129.423 327.244 130.7L325.316 131.458C322.063 132.735 318.425 131.167 317.196 127.954L312.083 114.643L325.79 109.262Z" fill="#231F20"/>
<path d="M266.033 98.9896C266.033 98.9896 280.137 116.65 299.049 118.042C307.836 118.69 306.254 118.576 307.917 118.698C307.922 118.696 307.969 118.701 308.089 118.708C308.238 118.721 308.495 118.741 308.929 118.772L309.1 118.785C310.765 118.907 310.544 118.891 319.332 119.539C337.42 120.872 349.628 108.365 349.628 108.365C349.628 108.365 357.899 98.7882 351.19 88.7097C342.558 75.745 322.632 72.3254 322.632 72.3254L302.614 70.771C302.614 70.771 279.851 70.8256 271.497 81.3877C263.846 91.0631 266.033 98.9896 266.033 98.9896Z" fill="#CCCCCC"/>
<path d="M289.29 92.3462L301.122 118.169C304.601 118.394 306.531 118.519 307.581 118.586C307.586 118.585 307.634 118.589 307.753 118.595C307.903 118.607 308.161 118.624 308.597 118.651L308.768 118.662C309.628 118.718 311.094 118.815 313.502 118.964C314.32 119.016 315.243 119.062 316.292 119.13L332.517 95.1337L289.29 92.3462Z" fill="#444545"/>
<path d="M313.242 105.197L310.337 99.3656L310.348 99.233L310.302 99.2959L310.266 99.2271L310.255 99.3609L306.437 104.742L307.835 108.043C308.067 108.58 308.12 109.081 307.938 109.708L305.316 118.689C306.673 118.777 307.605 118.841 308.227 118.881C308.232 118.882 308.28 118.887 308.403 118.895C308.554 118.905 308.817 118.921 309.266 118.953L309.442 118.964C310.016 119.001 310.851 119.058 312.04 119.137L310.924 109.982C310.866 109.521 310.658 109.244 311.301 108.362L313.242 105.197Z" fill="#B7B7B7"/>
<path d="M205.982 166.347C206.06 165.675 206.411 164.87 207.63 164.178L211.195 161.681C213.6 159.361 213.417 158.918 213.332 158.667C213.222 158.317 212.597 157.384 211.597 157.155C210.596 156.929 200.938 161.096 198.871 161.821C195.584 162.977 194.729 161.708 195.411 160.262C195.976 159.059 200.19 157.114 201.927 154.573C206.767 147.478 211.164 147.351 211.164 147.351L223.8 145.653L226.306 153.335L224.049 155.665C223.04 158.169 221.447 161.122 220.411 161.974C219.759 162.846 216.212 164.631 215.212 165.091L208.654 167.4C207.343 168.052 205.854 167.401 205.982 166.347Z" fill="#E8C5AC"/>
<path d="M218.506 142.298L230.935 150.514L229.26 152.75C228.108 154.367 226.567 155.81 222.218 153.176C216.281 149.585 215.835 145.837 216.274 145.187L218.506 142.298Z" fill="#F4F5F5"/>
<path d="M231.182 150.015C231.182 150.015 250.618 121.277 254.902 117.86C259.524 114.171 275.963 107.673 275.963 107.673L276.007 78.3278C276.007 78.3278 260.496 89.4192 247.255 102.695C241.466 108.5 218.86 142.001 218.86 142.001C218.86 142.001 216.456 144.481 225.409 148.956C228.745 150.626 231.182 150.015 231.182 150.015Z" fill="#CCCCCC"/>
<path d="M395.07 179.422C395.319 178.814 395.399 177.955 394.68 176.752L392.806 172.84C391.844 169.66 392.209 169.377 392.398 169.206C392.659 168.965 393.631 168.489 394.595 168.798C395.559 169.111 401.861 177.512 403.287 179.168C405.557 181.804 406.887 181.159 406.985 179.588C407.067 178.285 404.377 174.51 404.089 171.48C403.29 163.025 399.589 160.701 399.589 160.701L389.571 152.896L383.809 158.146L384.64 161.26C384.324 163.892 384.297 167.201 384.781 168.444C384.929 169.513 387.122 172.814 387.763 173.706L392.286 178.97C393.102 180.184 394.681 180.382 395.07 179.422Z" fill="#E8C5AC"/>
<path d="M392.55 152.482L379.095 159.048L380.433 161.411C381.343 163.112 382.659 164.69 387.335 162.626C393.712 159.814 394.687 156.225 394.346 155.544L392.55 152.482Z" fill="#F4F5F5"/>
<path d="M379.289 158.822C379.289 158.822 363.546 127.574 359.721 123.586C355.591 119.284 340.105 110.562 340.105 110.562L343.64 81.3745C343.64 81.3745 357.647 94.5374 369.141 109.558C374.165 116.127 392.468 152.548 392.468 152.548C392.468 152.548 394.546 155.346 385.135 158.564C381.628 159.767 379.289 158.822 379.289 158.822Z" fill="#CCCCCC"/>
<path d="M318.187 119.717C319.518 119.809 320.891 120.015 322.145 119.957L322.547 116.939L325.671 115.549L326.389 100.244L315.732 119.536C316.447 119.59 317.259 119.648 318.187 119.717ZM302.42 118.545L294.953 98.1012L293.323 113.33L296.194 115.205L296.166 117.935C297.45 118.177 298.844 118.309 300.224 118.41C301.058 118.468 301.781 118.498 302.42 118.545Z" fill="#565656"/>
<path d="M290.404 93.4084C291.311 81.3652 301.134 72.2566 312.353 73.0757C323.57 73.8884 331.925 84.3148 331.02 96.3615C330.112 108.407 320.594 116.298 309.842 115.514C296.43 114.541 289.496 105.455 290.404 93.4084ZM332.065 88.5117C332.165 87.1808 333.416 86.1898 334.855 86.2943C336.296 86.3987 337.381 87.5608 337.283 88.8898L335.556 95.0573C335.458 96.388 334.184 97.3204 332.743 97.2166C332.743 97.2166 331.498 96.0437 331.598 94.7158L332.065 88.5117Z" fill="#FDDFCB"/>
<path d="M290.815 85.4649C290.94 84.1846 289.902 83.0872 288.491 83.0192C287.081 82.947 285.837 83.9321 285.711 85.2131L286.341 91.3121C286.214 92.5942 287.286 93.6372 288.698 93.7065C288.698 93.7065 290.097 92.7313 290.222 91.4514L290.815 85.4649Z" fill="#FDDFCB"/>
<path d="M295.645 106.042L295.631 106.041C295.631 106.041 296.617 106.662 296.667 107.317C296.733 108.182 296.844 108.825 294.716 110.142C294.716 110.142 297.983 111.249 302.002 110.832C303.331 110.693 306.407 110.165 306.407 110.165C307.332 109.891 307.815 109.645 307.133 110.413C306.534 111.087 305.857 111.423 305.408 111.604C305.105 111.725 304.906 111.777 304.904 111.815C304.857 112.556 311.038 112.058 311.574 111.988C315.976 111.414 319.967 109.969 319.967 109.969C330.151 106.142 334.05 98.2825 334.521 91.2049L334.778 87.2729C335.549 75.6074 326.274 67.1588 314.871 66.2267L310.812 65.8929C300.524 65.0516 289.176 70.8865 288.403 82.5505L288.182 85.9024C287.763 92.2166 288.956 100.439 295.645 106.042Z" fill="#272520"/>
<path d="M320.862 107.391C314.195 111.915 308.613 110.621 308.154 110.504C309.844 110.249 311.631 109.716 313.559 108.407C313.695 108.315 313.832 108.219 313.97 108.118C315.779 106.8 317.206 104.23 317.206 104.23C317.206 104.23 316.106 105.584 314.728 106.518L314.667 106.56C314.061 106.963 312.23 107.919 310.384 108.324C310.875 107.791 311.29 107.263 311.431 106.891C311.88 105.684 310.967 106.159 310.445 106.484C308.368 107.769 304.248 108.881 302.874 108.715C303.169 108.563 303.47 108.387 303.769 108.184C304.227 107.873 304.681 107.499 305.106 107.046C306.807 105.239 307.418 102.528 307.418 102.528L306.754 103.679C306.235 104.578 304.799 105.949 303.539 106.804C303.183 107.045 302.841 107.246 302.538 107.383C301.604 107.804 300.721 107.965 299.984 108.006C300.33 107.361 300.585 106.215 299.346 104.768C297.04 102.081 293.4 99.7355 292.039 92.6966C290.727 85.9308 293.289 76.8659 298.95 72.3854C299.132 72.2414 299.327 72.0987 299.533 71.9584C304.621 68.5056 317.121 66.2235 324.793 73.4392C330.513 78.8163 331.431 84.5313 330.922 89.5732C330.922 89.5732 330.727 99.7252 322.211 106.404C321.757 106.76 321.307 107.089 320.862 107.391Z" fill="#373737"/>
<path d="M310.99 75.5191C311.504 75.7137 313.468 76.8532 313.819 78.6172C314.14 80.2406 313.653 81.4766 313.653 81.4766C313.728 81.4258 315.006 80.388 314.865 78.439C314.776 77.162 314.462 76.8505 314.034 76.4459C314.712 76.8301 315.253 77.1997 315.926 78.0793C317.38 79.9816 316.81 82.3087 316.81 82.3087C316.877 82.2076 318.53 79.6959 317.543 77.449C316.402 74.8542 313.715 74.7339 313.098 74.6608C311.797 74.5125 310.192 75.2834 310.192 75.2834L310.99 75.5191Z" fill="#272520"/>
<path d="M312.319 74.7981C312.319 74.7981 311.941 73.8802 312.792 73.1079C313.966 72.0437 315.305 72.5998 315.305 72.5998C315.305 72.5998 313.832 71.7497 312.587 71.9983C310.485 72.4227 310.128 74.8701 310.128 74.8701L312.319 74.7981Z" fill="#272520"/>
<path d="M147.693 328.673C147.08 328.431 146.422 327.899 146.13 326.579L144.831 322.606C143.349 319.766 142.875 319.827 142.611 319.842C142.246 319.859 141.174 320.208 140.657 321.089C140.144 321.97 141.202 332.082 141.271 334.204C141.384 337.579 139.922 338.062 138.754 337.058C137.786 336.223 137.201 331.778 135.311 329.51C130.033 323.181 131.229 319.024 131.229 319.024L132.518 307.542L139.626 302.358L143.387 308.503C145.461 310.081 147.37 312.85 147.868 314.034C148.499 314.866 149.132 318.644 149.265 319.697L149.493 326.431C149.717 327.826 148.655 329.059 147.693 328.673Z" fill="#E8C5AC"/>
<path d="M140.57 301.876C140.57 301.876 121.857 278.961 119.558 273.932C117.079 268.505 111.119 249.732 111.119 249.732L87.7745 247.331C87.7745 247.331 94.2843 261.26 104.052 277.454C108.325 284.534 131.33 309.498 131.33 309.498C131.33 309.498 132.709 312.453 138.728 306.093C141.332 303.341 140.57 301.876 140.57 301.876Z" fill="#A6A6A6"/>
<path d="M207.73 172.043C207.301 171.521 206.58 171.032 205.208 171.105L200.949 170.921C197.73 170.259 197.639 169.789 197.57 169.534C197.471 169.179 197.474 168.06 198.166 167.329C198.859 166.601 208.988 164.919 211.066 164.42C214.37 163.625 214.379 162.1 213.04 161.249C211.925 160.543 207.435 161.171 204.641 159.966C196.847 156.599 193.195 158.852 193.195 158.852L181.979 164.211L184.108 172.014L187.211 172.763C189.393 174.325 192.293 175.956 193.6 176.114C194.605 176.498 198.463 176.095 199.528 175.942L206.125 174.364C207.546 174.209 208.406 172.863 207.73 172.043Z" fill="#E8C5AC"/>
<path d="M184.506 175.931C184.506 175.931 153.776 180.328 148.823 182.515C143.479 184.874 126.798 197.18 126.798 197.18L107.924 182.793C107.924 182.793 121.556 175.297 140.142 170.274C147.961 168.162 182.65 164.513 182.65 164.513C182.65 164.513 185.448 162.758 185.375 172.657C185.363 174.416 184.506 175.931 184.506 175.931Z" fill="#A6A6A6"/>
<path d="M142.55 250.47C135.848 255.017 120.325 251.749 111.973 243.336C101.912 233.199 106.543 215.401 117.491 207.972C120.496 205.933 123.978 204.675 127.762 204.572C148.055 204.018 157.937 218.771 155.738 224.736C155.358 225.768 154.71 226.519 153.891 227.074C152.198 228.224 149.771 228.54 147.449 228.785C145.127 229.029 142.913 229.201 141.644 230.062C140.409 230.9 140.072 232.392 141.407 235.237C141.407 235.237 146.552 242.037 145.54 246.232C145.1 248.053 144.045 249.455 142.55 250.47Z" fill="white"/>
<path d="M121.428 242.291L132.668 248.966C135.399 250.434 138.729 250.326 141.193 249.369C142.764 248.756 143.604 247.087 143.478 245.392C143.296 242.926 142.459 239.356 139.334 237.557L127.523 229.818L121.428 242.291ZM131.424 223.977L144.025 227.343C147.044 228.015 150.212 227 152.316 225.403C153.659 224.384 154.011 222.544 153.43 220.942C152.587 218.611 150.814 215.4 147.325 214.518L133.891 210.279L131.424 223.977Z" fill="#262626"/>
<path d="M108.93 233.54C108.046 229.566 108.15 229.152 109.781 222.174C111.41 215.192 115.246 206.898 116.672 206.044C118.1 205.192 121.497 206.157 122.274 207.012C123.051 207.874 125.356 201.729 116.827 198.804C108.296 195.879 97.1688 188.33 91.4944 209.731C85.8231 231.13 95.5446 240.47 99.3118 242.033C107.402 245.399 111.148 241.432 114.7 237.587C114.774 237.51 112.945 238.007 111.449 237.152C109.706 236.162 108.93 233.54 108.93 233.54Z" fill="#74726F"/>
<path d="M124.978 190.224C124.978 190.224 138.559 201.09 141.45 205.331C144.81 210.258 143.76 216.555 140.884 220.677C138.893 223.532 138.19 224.836 138.138 225.044C138.121 225.101 136.789 227.784 137.056 230.651C137.29 233.174 137.371 232.747 137.242 236.905C137.134 240.391 135.337 247.084 125.87 250.211C116.644 253.257 103.245 253.008 103.245 253.008C103.245 253.008 95.0001 257.012 91.6869 253.303C81.8285 242.268 87.0798 224.03 87.0798 224.03L92.1252 203.977C92.1252 203.977 95.0909 190.876 107.618 183.025C112.801 179.773 124.978 190.224 124.978 190.224Z" fill="#A6A6A6"/>
<path d="M134.774 229.033L117.849 233.582L122.945 216.751L135.158 226.788C134.985 227.456 134.838 228.218 134.774 229.033ZM137.701 225.116C137.721 225.039 137.833 224.803 138.073 224.392L121.015 210.378L112.389 238.871L136.774 232.315C136.733 231.904 136.68 231.428 136.615 230.713C136.351 227.851 137.685 225.172 137.701 225.116Z" fill="#2E2E2E"/>
<path d="M122.05 213.516L115.325 236.126L136.683 230.458C136.574 228.755 137 227.147 137.347 226.151L122.05 213.516Z" fill="#F7F7F7"/>
<path d="M106.288 206.934C106.288 206.934 118.796 210.719 121.452 219.157C123.289 224.993 121.68 230.312 119.396 232.898C118.853 233.514 117.024 235.158 117.024 235.158C117.024 235.158 120.156 231.286 119.246 226.164C118.573 222.369 114.156 219.011 110.076 218.21C94.8897 215.23 106.288 206.934 106.288 206.934Z" fill="#242424"/>
<path d="M114.571 236.003C113.987 232.584 114.094 232.234 115.789 226.346C117.483 220.455 121.112 213.525 122.372 212.851C123.627 212.177 126.943 213.909 127.465 214.745C127.823 215.319 127.343 208.335 122.814 206.684C115.579 204.048 106.462 197.018 100.695 215.05C94.9272 233.084 102.835 241.408 105.987 242.884C112.758 246.056 116.128 242.817 119.328 239.669C119.396 239.606 117.813 239.963 116.567 239.178C115.124 238.27 114.571 236.003 114.571 236.003Z" fill="#292929"/>
<path d="M109.041 204.435C98.1901 201.134 88.6202 205.031 85.6006 215.136C82.5796 225.235 88.6166 234.086 99.4716 237.388C110.324 240.689 119.376 240.341 123.611 227.363C127.976 213.99 119.896 207.737 109.041 204.435Z" fill="#FDDFCB"/>
<path d="M82.1503 216.388C82.1503 216.388 82.8951 210.291 88.9074 203.265C92.9878 198.498 100.519 194.633 109.583 195.931C117.102 197.007 124.731 201.617 127.211 209.885C128.225 213.26 127.549 214.581 127.549 214.581C127.549 214.581 127.362 210.507 123.243 209.902C119.372 209.338 118.633 212.404 117.632 215.156C116.57 218.073 113.735 221.897 108.514 222.103C103.293 222.308 85.9864 227.044 82.1503 216.388Z" fill="#393939"/>
<path d="M85.4885 237.308C85.4885 237.308 76.943 227.544 83.077 213.662C87.2844 204.146 98.4196 204.899 103.368 206.005C109.125 207.297 118.91 212.682 118.807 224.358C118.732 233.173 111.511 237.484 113.819 240.555C115.047 242.195 118.249 239.534 119.36 238.691C119.732 238.411 119.951 238.217 119.951 238.217C119.951 238.217 116.104 245.532 105.973 246.047C99.2088 246.388 91.1938 244.88 85.4885 237.308Z" fill="#242424"/>
<path d="M418.154 472.287C413.944 475.144 408.695 476.038 402.687 473.907C378.361 465.284 373.376 445.004 378.649 438.922C380.709 436.546 382.29 435.164 383.657 434.236C384.842 433.432 385.867 432.97 386.903 432.5C387.939 432.03 388.987 431.552 390.22 430.716C390.832 430.3 391.49 429.796 392.214 429.161C392.214 429.161 392.246 429.16 392.346 429.092C392.756 428.814 394.308 427.419 399.49 420.415C400.209 419.444 401.082 418.611 402.073 417.939C408.387 413.654 419.494 415.897 425.996 430.5C432.747 445.662 428.699 465.131 418.154 472.287Z" fill="white"/>
<path d="M412.366 442.367L403.243 431.398C401.043 428.753 401.421 424.815 404.09 422.601L405.676 421.286C408.346 419.072 412.295 419.422 414.495 422.068L423.619 433.036L412.366 442.367ZM391.554 459.625L382.431 448.658C380.23 446.01 380.609 442.072 383.28 439.858L384.863 438.543C387.533 436.33 391.484 436.68 393.681 439.327L402.805 450.295L391.554 459.625Z" fill="#231F20"/>
<path d="M446.628 424.938C446.628 424.938 424.219 421.992 409.647 434.098C402.875 439.725 404.095 438.71 402.813 439.774C402.81 439.779 402.773 439.809 402.683 439.885C402.566 439.98 402.367 440.144 402.033 440.423C401.995 440.454 401.945 440.495 401.901 440.532C400.619 441.598 400.788 441.456 394.017 447.081C380.079 458.659 379.982 476.135 379.982 476.135C379.982 476.135 380.679 488.766 392.506 491.376C407.716 494.732 424.426 483.385 424.426 483.385L439.905 470.624C439.905 470.624 456.243 454.806 454.918 441.406C453.704 429.131 446.628 424.938 446.628 424.938Z" fill="#ABABAB"/>
<path d="M434.641 446.449L407.958 436.017C405.291 438.234 403.81 439.461 403.007 440.13C403.003 440.135 402.966 440.165 402.876 440.241C402.759 440.336 402.561 440.5 402.228 440.779C402.19 440.81 402.14 440.851 402.096 440.888C401.215 441.62 399.527 443.023 396.356 445.657L401.504 473.987L434.641 446.449Z" fill="#444545"/>
<path d="M408.217 453.345L414.332 455.526L414.417 455.628L414.406 455.551L414.477 455.577L414.394 455.472L413.377 449.055L410.092 447.652C409.555 447.426 409.17 447.104 408.863 446.537L404.498 438.365C403.472 439.22 402.762 439.809 402.292 440.201C402.288 440.204 402.251 440.234 402.157 440.311C402.044 440.406 401.845 440.572 401.503 440.855L401.371 440.967C400.934 441.328 400.304 441.855 399.401 442.603L406.548 448.366C406.908 448.653 407.249 448.711 407.404 449.775L408.217 453.345Z" fill="#B7B7B7"/>
<path d="M433.236 445.994C440.886 455.198 440.12 468.445 431.515 475.585C422.911 482.724 409.737 481.048 402.086 471.844C394.435 462.638 395.819 450.466 404.067 443.623C414.351 435.086 425.585 436.787 433.236 445.994ZM406.746 478.156C407.591 479.17 407.376 480.739 406.275 481.655C405.169 482.572 403.589 482.49 402.745 481.477L399.731 475.894C398.885 474.879 399.156 473.337 400.261 472.42C400.261 472.42 401.96 472.399 402.805 473.414L406.746 478.156Z" fill="#FDDFCB"/>
<path d="M438.251 452.144C439.113 453.194 440.667 453.326 441.723 452.437C442.778 451.551 442.934 449.978 442.072 448.929L437.096 444.753C436.234 443.703 434.696 443.63 433.64 444.52C433.64 444.52 433.368 446.19 434.23 447.239L438.251 452.144Z" fill="#FDDFCB"/>
<path d="M418.64 439.829L418.653 439.82L414.699 441.187C411.023 442.582 410.95 443.397 409.99 445.36L409.831 445.683C409.393 446.506 409.034 446.598 408.39 445.86C408.089 445.517 407.316 444.656 406.946 444.204C406.494 443.663 406.203 443.803 405.929 444.245L399.697 454.546C395.171 461.829 397.965 471.41 402.385 476.474L404.839 479.291C412.123 487.642 424.023 486.94 432.329 479.731L435.287 477.166C442.777 470.667 446.517 458.961 439.233 450.609L437.142 448.209C433.198 443.687 425.764 437.455 418.64 439.829Z" fill="#2B2B2B"/>
<path d="M417.038 443.177L417.047 443.168L413.651 444.345C410.493 445.547 410.429 446.245 409.601 447.932L409.465 448.21C409.089 448.914 408.78 448.994 408.226 448.361C407.969 448.067 407.306 447.33 406.988 446.943C406.602 446.478 406.352 446.6 406.116 446.98L400.752 455.823C396.856 462.077 399.246 470.294 403.034 474.633L405.139 477.047C411.385 484.205 421.606 483.588 428.749 477.393L431.29 475.19C437.731 469.605 440.957 459.558 434.713 452.4L432.916 450.343C429.536 446.469 423.159 441.13 417.038 443.177Z" fill="#3D3D3D"/>
<path d="M434.999 339.383C435.578 339.713 436.177 340.339 436.351 341.702L437.283 345.87C438.49 348.925 438.96 348.932 439.219 348.954C439.578 348.988 440.656 348.789 441.237 347.977C441.815 347.165 441.641 336.877 441.754 334.74C441.934 331.341 443.403 331.062 444.46 332.232C445.337 333.206 445.53 337.744 447.186 340.285C451.81 347.373 450.287 351.372 450.287 351.372L447.111 363.383L439.214 362.67L437.943 359.742C436.048 357.869 433.965 355.297 433.58 354.039C433.034 353.115 432.737 349.239 432.696 348.163L433.047 341.378C432.945 339.948 434.091 338.862 434.999 339.383Z" fill="#E8C5AC"/>
<path d="M449.612 362.643L435.242 365.306L434.785 362.44C434.412 360.408 434.428 358.233 439.285 357.119C445.91 355.597 448.898 358.091 449.065 358.891L449.612 362.643Z" fill="#F4F5F5"/>
<path d="M435 365.461C435 365.461 441.504 399.617 440.877 405.075C440.197 410.964 433.102 427.206 433.102 427.206L453.828 448.079C453.828 448.079 457.012 429.231 457.039 410.439C457.05 402.222 449.429 362.438 449.429 362.438C449.429 362.438 449.384 358.976 439.853 362.13C436.3 363.303 435 365.461 435 365.461Z" fill="#ABABAB"/>
<path d="M294.658 449.779C294.966 450.369 295.572 450.979 296.945 451.166L301.12 452.143C304.159 453.391 304.143 453.867 304.155 454.129C304.174 454.493 303.923 455.584 303.076 456.166C302.228 456.746 291.826 456.488 289.658 456.587C286.209 456.743 285.863 458.229 286.999 459.309C287.943 460.206 292.529 460.435 295.026 462.133C301.991 466.874 306.108 465.362 306.108 465.362L318.404 462.237L318.035 454.231L315.13 452.921C313.318 450.986 310.808 448.856 309.551 448.456C308.642 447.894 304.733 447.565 303.646 447.514L296.764 447.816C295.32 447.704 294.17 448.855 294.658 449.779Z" fill="#E8C5AC"/>
<path d="M316.96 467.057L323.395 453.643L320.757 452.597C318.901 451.809 316.8 451.37 314.421 455.858C311.171 461.98 312.767 465.409 313.493 465.739L316.96 467.057Z" fill="#F4F5F5"/>
<path d="M323.469 453.262C323.469 453.262 355.137 467.94 360.592 468.663C366.478 469.441 383.95 466.507 383.95 466.507L399.334 491.775C399.334 491.775 380.256 490.268 361.976 485.7C353.985 483.702 317.111 466.565 317.111 466.565C317.111 466.565 313.755 465.674 319.079 457.17C321.063 454.002 323.469 453.262 323.469 453.262Z" fill="#ABABAB"/>
<path d="M203.938 455.463C201.635 450.469 198.341 445.462 193.631 441.549C186.825 435.899 188.053 436.916 186.765 435.847C186.76 435.844 186.723 435.812 186.631 435.736C186.516 435.641 186.317 435.475 185.981 435.195L185.849 435.086C184.559 434.015 184.731 434.156 177.927 428.505C171.938 423.531 165.315 421.267 159.694 420.304C161.828 414.175 164.771 410.062 167.828 407.987C170.211 406.37 172.663 405.993 174.855 406.866C184.117 410.56 180.741 418.209 191.908 425.658C191.908 425.658 192.204 426.428 202.583 429.666C210.552 432.151 214.611 443.677 203.938 455.463Z" fill="white"/>
<path d="M186.209 445.733L195.513 434.681C197.757 432.014 201.73 431.651 204.39 433.87L205.969 435.187C208.627 437.406 208.962 441.37 206.719 444.035L197.415 455.089L186.209 445.733ZM160.569 425.839L165.969 412.467C167.272 409.24 170.941 407.66 174.17 408.937L176.085 409.694C179.31 410.971 180.871 414.622 179.565 417.846L174.165 431.221L160.569 425.839Z" fill="#8C8C8C"/>
<path d="M205.895 435.088L204.305 433.785C201.79 431.724 198.058 431.977 195.683 434.269C196.89 440.715 203.986 443.525 206.282 444.275L206.523 443.991C208.852 441.271 208.572 437.283 205.895 435.088ZM165.452 412.816L165.343 413.072C167.896 415.615 172.702 419.153 178.516 417.409C178.861 417.306 179.204 417.196 179.546 417.078C180.298 414.078 178.768 410.984 175.812 409.865L173.871 409.132C170.598 407.896 166.831 409.544 165.452 412.816Z" fill="#E0E2E2"/>
<path d="M198.422 441.365C198.537 441.223 198.744 441.201 198.886 441.316C199.028 441.43 199.051 441.639 198.937 441.78L190.782 451.895C190.667 452.036 190.46 452.057 190.318 451.943C190.175 451.829 190.152 451.622 190.267 451.479L198.422 441.365ZM170.612 417.669C170.69 417.503 170.886 417.432 171.052 417.509C171.217 417.587 171.288 417.783 171.211 417.949L165.74 429.74C165.702 429.819 165.635 429.881 165.553 429.911C165.471 429.941 165.38 429.937 165.3 429.9C165.261 429.882 165.226 429.856 165.196 429.824C165.167 429.792 165.144 429.754 165.129 429.714C165.114 429.673 165.108 429.629 165.109 429.586C165.111 429.543 165.122 429.5 165.14 429.461L170.612 417.669Z" fill="#ADA4A4"/>
<path d="M209.454 476.596C209.454 476.596 208.277 453.888 193.663 441.61C186.87 435.906 188.096 436.933 186.811 435.854C186.805 435.85 186.769 435.819 186.676 435.742C186.562 435.646 186.363 435.478 186.028 435.196L185.896 435.085C184.608 434.004 184.78 434.147 177.989 428.442C164.01 416.698 146.736 419.705 146.736 419.705C146.736 419.705 134.388 422.64 133.967 434.811C133.429 450.467 147.685 464.993 147.685 464.993L163.109 478.054C163.109 478.054 181.712 491.42 194.705 487.728C206.606 484.347 209.454 476.596 209.454 476.596Z" fill="#CCCCCC"/>
<path d="M198.442 443.365C198.499 443.308 198.567 443.262 198.641 443.229C198.715 443.197 198.795 443.179 198.875 443.177C198.955 443.175 199.034 443.189 199.108 443.218C199.182 443.246 199.25 443.289 199.306 443.344C199.544 443.572 199.542 443.955 199.303 444.197C199.064 444.437 198.677 444.447 198.439 444.219C198.202 443.989 198.204 443.607 198.442 443.365ZM195.811 441.203C196.05 440.961 196.437 440.952 196.674 441.181C196.912 441.411 196.91 441.794 196.672 442.035C196.433 442.276 196.045 442.286 195.808 442.057C195.571 441.828 195.571 441.444 195.811 441.203ZM171.321 418.969C171.56 418.728 171.946 418.717 172.183 418.946C172.421 419.176 172.42 419.56 172.181 419.8C171.941 420.042 171.555 420.052 171.317 419.822C171.079 419.593 171.08 419.211 171.321 418.969ZM168.062 417.44C168.302 417.198 168.688 417.188 168.926 417.418C169.164 417.648 169.162 418.03 168.924 418.271C168.684 418.512 168.297 418.522 168.059 418.293C167.822 418.063 167.823 417.681 168.062 417.44ZM170.112 421.607C170.351 421.365 170.738 421.356 170.976 421.586C171.214 421.815 171.212 422.198 170.972 422.439C170.734 422.681 170.348 422.692 170.108 422.461C169.872 422.231 169.872 421.849 170.112 421.607ZM166.854 420.077C167.095 419.836 167.48 419.826 167.718 420.056C167.955 420.285 167.955 420.667 167.715 420.909C167.476 421.15 167.089 421.161 166.852 420.932C166.614 420.701 166.615 420.319 166.854 420.077Z" fill="#ADA4A4"/>
<path d="M186.011 466.545C178.153 475.845 164.813 477.592 156.211 470.438C147.61 463.287 147.012 449.952 154.868 440.649C162.73 431.349 175.104 430.416 183.349 437.274C193.632 445.822 193.871 457.245 186.011 466.545ZM149.38 446.448C148.512 447.474 146.913 447.56 145.809 446.643C144.704 445.724 144.515 444.148 145.38 443.122L150.425 439.088C151.291 438.062 152.875 438.037 153.98 438.955C153.98 438.955 154.295 440.632 153.427 441.657L149.38 446.448Z" fill="#FDDFCB"/>
<path d="M180.794 472.438C179.963 473.459 180.205 475.077 181.335 476.05C182.463 477.022 184.053 476.982 184.882 475.963L187.816 470.31C188.646 469.289 188.349 467.697 187.218 466.723C187.218 466.723 185.505 466.655 184.674 467.676L180.794 472.438Z" fill="#FDDFCB"/>
<path d="M189.582 453.394L189.592 453.404C189.592 453.404 189.153 452.333 189.497 451.777C189.951 451.044 190.239 450.463 192.753 450.635C192.753 450.635 190.734 447.854 187.203 445.865C186.035 445.208 183.213 443.852 183.213 443.852C182.293 443.535 181.756 443.454 182.764 443.232C184.249 442.905 185.351 443.466 185.411 443.394C185.887 442.826 180.54 439.649 180.06 439.394C176.125 437.31 172.012 436.16 172.012 436.16C161.44 433.346 153.629 437.41 149.083 442.829L146.557 445.84C139.066 454.774 141.678 466.935 150.45 474.284L153.572 476.901C161.485 483.53 174.191 485.406 181.684 476.474L183.837 473.908C187.893 469.072 191.754 461.771 189.582 453.394Z" fill="#272520"/>
<path d="M176.544 475.01C173.512 477.067 170.026 478.436 166.575 478.586C160.538 478.849 147.939 473.362 145.789 462.596C144.247 454.885 146.882 449.708 150.303 445.915C150.303 445.915 152.02 443.665 155.253 441.471C158.163 439.496 162.303 437.566 167.526 437.361C176.916 436.99 181.279 441.88 181.611 442.267C179.95 441.429 178.007 440.785 175.375 440.797C173.092 440.807 170.38 442.056 170.38 442.056C170.38 442.056 172.147 441.589 173.869 441.654C174.611 441.682 176.697 441.98 178.468 442.73C177.743 442.875 177.088 443.061 176.747 443.282C176.733 443.291 176.719 443.3 176.705 443.31C175.685 444.002 176.707 444.146 177.323 444.188C179.809 444.361 183.883 445.873 184.923 446.812C184.075 446.687 183.11 446.663 182.082 446.859C180.589 447.141 179.228 447.918 178.38 448.494C177.817 448.876 177.48 449.17 177.48 449.17L178.714 448.625C179.95 448.08 182.899 447.789 184.409 448.089C185.434 448.296 186.262 448.681 186.895 449.079C186.791 449.13 186.68 449.191 186.569 449.266C185.971 449.672 185.358 450.478 185.5 452.08C185.812 455.611 187.433 459.647 184.378 466.154C182.82 469.475 179.973 472.683 176.544 475.01Z" fill="#373737"/>
<path d="M159.11 469.522C158.8 469.069 157.877 467.004 158.758 465.306C159.566 463.748 160.81 462.968 160.81 462.968C160.712 462.969 158.923 463.139 157.739 464.874C156.962 466.009 157.024 466.451 157.12 467.033C156.796 466.33 156.578 465.712 156.591 464.589C156.616 462.16 158.661 460.497 158.661 460.497C158.536 460.545 155.441 461.761 154.784 464.222C154.026 467.066 156.247 468.668 156.73 469.073C157.745 469.927 159.636 470.168 159.636 470.168L159.11 469.522Z" fill="#272520"/>
<path d="M157.677 468.584C157.677 468.584 157.383 469.715 156.029 469.893C154.162 470.138 153.291 468.717 153.291 468.717C153.291 468.717 154.081 470.507 155.439 471.095C157.726 472.082 159.803 469.966 159.803 469.966L157.677 468.584Z" fill="#272520"/>
<path d="M295.407 454.778C295.017 455.324 294.33 455.857 292.95 455.883L288.694 456.367C285.518 457.246 285.461 457.718 285.413 457.974C285.34 458.331 285.425 459.434 286.173 460.105C286.922 460.772 297.206 461.714 299.326 462.057C302.699 462.606 302.821 464.111 301.541 465.043C300.478 465.819 295.929 465.52 293.219 466.906C285.658 470.777 281.828 468.815 281.828 468.815L270.182 464.328L271.728 456.483L274.783 455.526C276.853 453.829 279.64 452.018 280.936 451.767C281.916 451.318 285.814 451.442 286.891 451.517L293.623 452.605C295.061 452.657 296.024 453.924 295.407 454.778Z" fill="#E8C5AC"/>
<path d="M269.309 470.11L263.997 455.973L266.781 455.133C268.746 454.487 270.927 454.217 272.935 458.967C275.678 465.445 273.734 468.788 272.964 469.063L269.309 470.11Z" fill="#F4F5F5"/>
<path d="M264.142 455.867C264.142 455.867 231.33 467.75 225.837 468.009C219.91 468.287 202.781 463.923 202.781 463.923L185.238 487.651C185.238 487.651 204.359 487.753 222.954 484.76C231.085 483.449 269.295 469.565 269.295 469.565C269.295 469.565 272.714 468.965 268.166 460.102C266.472 456.799 264.142 455.867 264.142 455.867Z" fill="#CCCCCC"/>
<path d="M150.564 327.22C150.084 327.665 149.656 328.398 149.824 329.752L151.087 338.347C151.469 341.139 150.209 342.132 148.604 341.154C147.746 340.632 144.747 328.695 144.111 326.659C143.105 323.422 141.612 323.477 140.872 324.837C140.259 325.966 141.928 332.232 140.946 335.045C138.197 342.892 140.657 346.414 140.657 346.414L146.683 357.294L154.168 354.872L154.684 351.772C156.062 349.549 157.45 346.614 157.516 345.315C157.821 344.305 157.724 340.071 156.83 337.799L152.947 328.713C152.694 327.312 151.317 326.517 150.564 327.22Z" fill="#E8C5AC"/>
<path d="M140.543 355.315L154.932 358.194L155.318 355.427C155.64 353.47 155.569 351.362 150.701 350.183C144.062 348.571 141.144 350.921 140.996 351.693L140.543 355.315Z" fill="#F4F5F5"/>
<path d="M154.943 358.157C154.943 358.157 148.236 392.551 148.849 398.034C149.51 403.95 156.606 420.229 156.606 420.229L135.598 441.373C135.598 441.373 132.46 422.446 132.509 403.548C132.532 395.285 140.387 355.225 140.387 355.225C140.387 355.225 140.447 351.742 150.058 354.842C153.639 355.997 154.943 358.157 154.943 358.157Z" fill="#CCCCCC"/>
<path d="M468.498 261.531C460.719 263.586 454.018 261.872 452.216 258.777C448.3 252.051 458.472 247.307 457.605 240.374C457.605 240.374 457.663 237.246 451.427 233.859C447.108 231.513 449.97 224.198 456.972 219.446C460.067 217.346 463.972 215.746 468.423 215.298C468.532 215.287 468.638 215.277 468.745 215.268C467.446 216.371 466.213 217.52 465.12 218.69C458.26 226.038 459.878 232.717 461.451 235.791C463.325 239.46 463.193 239.049 464.606 241.12C466.215 243.475 466.32 246.453 466.332 246.509C466.385 246.715 466.389 248.192 465.997 251.641C465.624 254.922 466.402 258.631 468.498 261.531Z" fill="white"/>
<path d="M472.775 218.378L460.27 221.541C457.338 222.418 455.083 224.831 454.025 227.235C453.347 228.772 453.919 230.542 455.184 231.652C457.025 233.269 460.089 235.206 463.529 234.287L477.169 231.474L472.775 218.378ZM473 244.317L460.495 247.479C457.564 248.356 455.309 250.769 454.249 253.173C453.572 254.711 454.145 256.48 455.41 257.59C457.252 259.208 460.315 261.145 463.753 260.221L477.394 257.412L473 244.317Z" fill="#383838"/>
<path d="M487.948 225.023C490.616 228.039 490.725 228.45 492.63 235.289C494.541 242.13 495.15 251.183 494.314 252.617C493.473 254.05 490.044 254.864 488.956 254.499C487.864 254.131 488.785 260.576 497.634 258.968C506.484 257.358 519.807 258.492 514.546 237.191C509.284 215.888 496.332 212.515 492.295 212.991C483.622 214.004 482.241 219.263 480.976 224.32C480.97 224.345 481.04 224.291 481.172 224.194C481.605 223.878 482.71 223.107 484.023 223.118C486.018 223.129 487.948 225.023 487.948 225.023Z" fill="#74726F"/>
<path d="M494.748 270.931C494.748 270.931 477.599 267.888 473.011 265.543C467.673 262.818 465.505 256.774 465.993 251.763C466.331 248.296 466.305 246.807 466.25 246.6C466.236 246.543 466.087 243.542 464.45 241.145C463.012 239.038 463.15 239.454 461.23 235.729C459.617 232.609 457.907 225.858 464.624 218.559C471.171 211.447 482.963 205.231 482.963 205.231C482.963 205.231 488.188 197.747 492.887 199.423C506.874 204.401 511.223 222.979 511.223 222.979L516.637 243.05C516.637 243.05 520.463 256.007 513.391 268.93C510.468 274.283 494.748 270.931 494.748 270.931Z" fill="#8C8C8C"/>
<path d="M501.075 255.556C513.936 252.198 521.054 242.357 517.791 230.286C514.53 218.217 503.016 213.005 490.155 216.364C477.292 219.724 468.49 225.657 472.325 241.38C476.278 257.58 488.21 258.914 501.075 255.556Z" fill="#FDDFCB"/>
<path d="M489.314 241.179C489.314 241.179 481.721 240.008 477.685 233.149C472.818 224.871 475.934 219.098 479.497 216.639C484.481 213.202 492.371 209.851 500.938 210.817C513.551 212.238 519.221 221.432 521.138 228.81C523.483 237.828 521.422 245.686 512.394 253.623C504.815 260.288 491.884 261.328 487.138 257.57C483.968 255.062 483.328 246.32 489.314 241.179Z" fill="#36312F"/>
<path d="M492.293 233.089C492.293 233.089 480.923 215.133 477.791 216.865C474.71 218.567 470.44 224.737 471.739 229.622C472.78 233.54 475.258 236.339 476.621 237.598C479.403 240.174 483.278 241.462 483.278 241.462C483.278 241.462 481.852 241.326 478.993 240.723C477.059 240.312 475.435 239.789 473.568 237.747C473.365 237.526 475.118 240.799 476.919 242.048C480.842 244.757 483.599 243.914 483.599 243.914C483.599 243.914 481.349 246.272 480.763 248.202C479.995 250.724 481.629 252.717 481.629 252.717C481.629 252.717 486.819 259.463 483.641 258.2C481.976 257.535 479.232 257.826 479.617 259.269C479.999 260.713 482.428 262.993 482.428 262.993C482.428 262.993 480.876 260.259 482.898 260.385C484.918 260.511 487.41 263.658 488.731 258.669C490.056 253.678 496.45 249.98 492.293 233.089Z" fill="#36312F"/>
<path d="M518.976 245.547C511.191 247.582 503.02 242.318 500.718 233.792C498.418 225.264 502.86 216.702 510.643 214.666C518.424 212.63 526.596 217.893 528.896 226.421C531.199 234.949 526.758 243.509 518.976 245.547Z" fill="#23201F"/>
<path d="M495.63 238.32C495.63 238.32 490.001 240.303 485.845 239.188C481.691 238.072 476.998 235.299 476.062 230.39C473.98 219.496 486.988 215.279 486.988 215.279C486.988 215.279 478.792 219.871 479.838 227.844C481.161 237.972 495.63 238.32 495.63 238.32Z" fill="#494949"/>
<path d="M518.21 243.15C518.21 243.15 513.453 242.709 509.668 239.88C506.37 237.421 503.324 233.728 503.32 227.19C503.321 222.383 505.196 219.35 507.407 217.85C507.775 217.6 508.151 217.393 508.53 217.228C516.599 213.695 519.512 222.961 519.512 222.961C519.512 222.961 515.517 215.775 508.738 220.376C508.624 220.453 508.509 220.534 508.394 220.618C506.83 221.758 506.081 223.578 505.973 226.305C505.46 239.348 518.21 243.15 518.21 243.15Z" fill="#505050"/>
<path d="M495.248 238.581C495.248 238.581 492.011 239.616 489.146 238.612C486.284 237.607 482.638 234.361 481.832 230.523C480.715 225.174 486.934 222.268 486.934 222.268C486.934 222.268 483.088 225.14 484.187 229.896C485.993 237.704 495.248 238.581 495.248 238.581Z" fill="#494949"/>
<path d="M495.844 238.175C495.844 238.175 493.297 239.014 491.068 238.275C488.84 237.536 486.29 236.969 485.827 233.992C485.034 228.897 491.481 227.556 491.481 227.556C491.481 227.556 487.572 229.777 488.151 232.699C489.341 238.734 495.844 238.175 495.844 238.175Z" fill="#494949"/>
<path d="M511.7 235.093C511.7 235.093 509.518 233.65 508.751 231.445C507.98 229.241 508.054 226.434 508.872 224.593C509.336 223.547 510.034 222.788 510.792 222.273C511.88 221.534 513.092 221.301 513.91 221.454C516.228 221.887 517.283 224.942 517.283 224.942C517.283 224.942 514.213 222.531 511.758 224.197C511.515 224.363 511.278 224.567 511.05 224.818C506.896 229.406 511.7 235.093 511.7 235.093Z" fill="#505050"/>
<path d="M489.339 256.026C488.444 256.633 487.419 256.928 487.419 256.928C487.419 256.928 487.482 256.891 487.58 256.825C488.006 256.535 489.112 255.674 488.71 254.756C488.101 253.365 484.465 253.494 484.506 249.031C484.531 246.564 485.94 244.896 487.57 243.79C489.829 242.257 492.513 241.805 492.513 241.805C491.992 242.01 491.517 242.263 491.086 242.555C487.776 244.801 487.185 249.363 489.728 252.134C491.412 253.965 490.481 255.25 489.339 256.026Z" fill="#818181"/>
<path d="M399.034 178.484C399.572 178.089 400.389 177.804 401.707 178.231L405.892 179.162C409.177 179.363 409.377 178.929 409.504 178.699C409.682 178.382 409.944 177.296 409.444 176.406C408.939 175.519 399.481 171.24 397.577 170.214C394.549 168.58 394.899 167.096 396.402 166.621C397.651 166.226 401.872 168.006 404.873 167.569C413.243 166.336 416.265 169.476 416.265 169.476L425.917 177.608L422.018 184.626L418.823 184.542C416.333 185.488 413.129 186.311 411.823 186.125C410.754 186.234 407.097 184.836 406.097 184.41L400.051 181.156C398.705 180.632 398.185 179.102 399.034 178.484Z" fill="#E8C5AC"/>
<path d="M422.741 185.473C422.741 185.473 450.94 193.986 455.651 196.851C460.732 199.946 476.171 212.09 476.171 212.09L496.616 201.182C496.616 201.182 483.453 193.323 466.351 185.399C458.873 181.934 426.009 174.108 426.009 174.108C426.009 174.108 423.218 172.438 421.875 180.991C421.293 184.69 422.741 185.473 422.741 185.473Z" fill="#8C8C8C"/>
<path d="M437.923 333.554C438.573 333.664 439.416 333.557 440.377 332.601L443.624 329.939C446.414 328.322 446.781 328.615 446.997 328.762C447.297 328.964 448.013 329.803 447.975 330.805C447.932 331.808 441.573 339.728 440.368 341.469C438.449 344.239 439.424 345.389 440.954 345.147C442.226 344.946 445.121 341.523 447.947 340.592C455.834 337.997 457.069 333.903 457.069 333.903L461.865 322.509L455.292 318.049L452.533 319.528C449.926 319.787 446.75 320.472 445.687 321.21C444.704 321.582 442.129 324.42 441.445 325.235L437.611 330.756C436.668 331.808 436.902 333.383 437.923 333.554Z" fill="#E8C5AC"/>
<path d="M454.137 316.634C454.137 316.634 477.156 295.565 480.024 290.929C483.118 285.926 489.962 266.16 489.962 266.16L513.836 267.57C513.836 267.57 506.784 281.57 494.207 296.298C488.917 302.492 462.183 325.171 462.183 325.171C462.183 325.171 460.858 328.226 455.279 319.876C454.288 318.389 454.137 316.634 454.137 316.634Z" fill="#8C8C8C"/>
<path d="M292.79 269.446C292.884 269.602 292.79 269.446 294.418 271.449C296.045 273.452 294.418 284.25 294.418 284.25C294.418 284.25 295.2 284.672 295.654 284.672C296.092 284.672 296.906 284.25 296.906 284.25C296.906 284.25 295.701 272.654 296.906 271.449C298.001 270.353 298.408 269.634 298.471 269.493C298.878 268.929 299.128 268.225 299.128 267.474C299.128 265.565 297.579 264 295.654 264C293.729 264 292.18 265.549 292.18 267.474C292.18 268.21 292.414 268.898 292.79 269.446Z" fill="url(#paint0_linear_1154_556)"/>
<path d="M319.192 301.573H304.012C303.167 301.573 302.369 301.245 301.758 300.666C301.273 300.196 300.741 299.664 300.178 299.101C298.988 297.896 298.894 295.971 299.959 294.641C303.057 290.212 306.172 294.922 306.172 294.922L306.187 294.891C307.126 296.049 308.55 296.8 310.162 296.8C313.167 296.8 315.562 294.234 315.311 291.182C315.076 288.459 312.619 286.456 309.896 286.472C308.519 286.488 307.204 286.582 305.952 286.785C303.605 286.644 300.96 286.362 298.425 285.83C301.43 284.547 303.871 282.685 304.92 279.993C305.483 280.385 306.172 280.619 306.907 280.619C308.816 280.619 310.381 279.07 310.381 277.145C310.381 275.22 308.832 273.671 306.907 273.671C304.982 273.671 303.433 275.22 303.433 277.145C303.433 277.646 303.542 278.1 303.73 278.538C302.932 281.887 299.724 283.921 295.811 285.173C291.774 283.952 288.409 281.902 287.611 278.522C287.783 278.1 287.893 277.646 287.893 277.161C287.893 275.252 286.343 273.687 284.418 273.687C282.493 273.687 280.944 275.236 280.944 277.161C280.944 279.086 282.493 280.635 284.418 280.635C285.154 280.635 285.842 280.4 286.406 279.993C287.47 282.732 289.943 284.625 293.073 285.909C290.631 286.441 288.096 286.722 285.811 286.879C284.387 286.613 282.9 286.488 281.351 286.488C278.612 286.472 276.171 288.475 275.936 291.198C275.67 294.249 278.08 296.816 281.085 296.816C282.697 296.816 284.105 296.065 285.06 294.907L285.076 294.938C285.076 294.938 288.049 290.196 291.289 294.656C292.353 295.986 292.275 297.896 291.069 299.116C290.506 299.68 289.974 300.212 289.489 300.681C288.879 301.26 288.08 301.589 287.235 301.589H285.592H285.42H271.93C269.222 301.589 267 303.811 267 306.518C267 309.241 269.207 311.448 271.93 311.448H285.514C287.423 311.448 288.988 312.997 288.988 314.922V314.937C288.972 320.618 278.659 317.895 277.783 317.911H277.72C275.013 317.989 272.587 319.835 272.055 322.496C271.304 326.205 274.136 329.475 277.72 329.475H277.83C279.191 329.506 289.348 329.945 291.664 333.919C290.897 334.139 290.318 334.811 290.318 335.641C290.318 336.642 291.132 337.456 292.134 337.456C292.196 337.456 292.259 337.425 292.321 337.425C292.728 338.911 294.074 340.007 295.671 340.007C297.282 340.007 298.628 338.911 299.02 337.425C299.098 337.44 299.16 337.472 299.223 337.472C300.225 337.472 301.038 336.658 301.038 335.657C301.038 334.765 300.381 334.06 299.536 333.904C301.602 330.226 310.334 329.6 312.823 329.506L313.339 329.491C316.532 329.491 319.114 326.909 319.114 323.716C319.114 320.524 316.532 317.942 313.339 317.942H313.198C311.915 317.895 302.322 320.524 302.337 314.937C302.337 313.028 303.934 311.479 305.843 311.479H306.25H319.114H319.396C322.275 311.479 324.591 309.006 324.31 306.064C324.075 303.451 321.774 301.573 319.192 301.573ZM293.84 301.573C294.403 301.025 294.998 300.399 295.608 299.727C296.218 300.384 296.813 301.025 297.376 301.573H293.84ZM298.409 290.462C297.783 291.088 297.189 291.98 296.782 292.544C296.422 293.045 296.03 293.545 295.624 294.046C295.217 293.545 294.841 292.857 294.481 292.356C293.98 291.652 293.965 291.589 292.838 290.462C291.805 289.43 290.694 288.678 289.489 288.084C291.555 287.818 293.699 287.411 295.702 286.816C297.689 287.38 299.818 287.771 301.93 288.021C300.663 288.616 299.489 289.398 298.409 290.462Z" fill="url(#paint1_linear_1154_556)"/>
<defs>
<linearGradient id="paint0_linear_1154_556" x1="295.652" y1="340.158" x2="295.652" y2="264.399" gradientUnits="userSpaceOnUse">
<stop stop-color="#95C11F"/>
<stop offset="0.1196" stop-color="#77B82A"/>
<stop offset="0.2535" stop-color="#5BB030"/>
<stop offset="0.3863" stop-color="#46AC34"/>
<stop offset="0.5157" stop-color="#3EAB35"/>
<stop offset="1" stop-color="#3AAA35"/>
</linearGradient>
<linearGradient id="paint1_linear_1154_556" x1="295.653" y1="340.158" x2="295.653" y2="264.399" gradientUnits="userSpaceOnUse">
<stop stop-color="#95C11F"/>
<stop offset="0.1196" stop-color="#77B82A"/>
<stop offset="0.2535" stop-color="#5BB030"/>
<stop offset="0.3863" stop-color="#46AC34"/>
<stop offset="0.5157" stop-color="#3EAB35"/>
<stop offset="1" stop-color="#3AAA35"/>
</linearGradient>
</defs>
</svg>
