<svg width="120" height="120" viewBox="0 0 120 120" fill="none" xmlns="http://www.w3.org/2000/svg">
<circle cx="60" cy="60" r="42.4264" transform="rotate(-45 60 60)" fill="url(#paint0_linear_2334_19360)"/>
<path d="M49.3957 38.7871H44.0924C41.1634 38.7871 38.7891 41.1615 38.7891 44.0904V46.7421C38.7891 49.671 41.1634 52.0454 44.0924 52.0454H49.3957C52.3246 52.0454 54.699 49.671 54.699 46.7421V44.0904C54.699 41.1615 52.3246 38.7871 49.3957 38.7871Z" stroke="#252525" stroke-width="2" stroke-linecap="round" stroke-linejoin="round"/>
<path d="M49.3957 62.6523H44.0924C41.1634 62.6523 38.7891 65.0267 38.7891 67.9556V75.9106C38.7891 78.8395 41.1634 81.2139 44.0924 81.2139H49.3957C52.3246 81.2139 54.699 78.8395 54.699 75.9106V67.9556C54.699 65.0267 52.3246 62.6523 49.3957 62.6523Z" stroke="#252525" stroke-width="2" stroke-linecap="round" stroke-linejoin="round"/>
<path d="M75.9035 38.7871H70.6002C67.6712 38.7871 65.2969 41.1615 65.2969 44.0904V52.0454C65.2969 54.9743 67.6712 57.3487 70.6002 57.3487H75.9035C78.8324 57.3487 81.2068 54.9743 81.2068 52.0454V44.0904C81.2068 41.1615 78.8324 38.7871 75.9035 38.7871Z" stroke="#252525" stroke-width="2" stroke-linecap="round" stroke-linejoin="round"/>
<path d="M75.9035 67.9551H70.6002C67.6712 67.9551 65.2969 70.3294 65.2969 73.2584V75.91C65.2969 78.839 67.6712 81.2133 70.6002 81.2133H75.9035C78.8324 81.2133 81.2068 78.839 81.2068 75.91V73.2584C81.2068 70.3294 78.8324 67.9551 75.9035 67.9551Z" stroke="#252525" stroke-width="2" stroke-linecap="round" stroke-linejoin="round"/>
<defs>
<linearGradient id="paint0_linear_2334_19360" x1="60" y1="17.5736" x2="85.0207" y2="102.426" gradientUnits="userSpaceOnUse">
<stop stop-color="#A7CD7E"/>
<stop offset="1" stop-color="#7BCD25" stop-opacity="0"/>
</linearGradient>
</defs>
</svg>
