<svg width="278" height="281" viewBox="0 0 278 281" fill="none" xmlns="http://www.w3.org/2000/svg">
<path d="M131.108 62.5053L132.628 59.8764L133.061 60.1266L133.135 59.9992L133.208 60.1266L133.641 59.8764L135.161 62.5054L134.728 62.7556L135.741 64.5082L136.174 64.258L137.694 66.8869L137.261 67.1372L138.274 68.8898L138.707 68.6396L140.226 71.2685L139.794 71.5187L140.807 73.2714L141.24 73.0211L142.759 75.6501L142.326 75.9003L143.339 77.6529L143.772 77.4027L145.292 80.0317L144.859 80.2819L145.872 82.0345L146.305 81.7843L147.825 84.4132L147.392 84.6635L148.405 86.4161L148.838 86.1659L150.358 88.7948L149.925 89.045L150.938 90.7977L151.371 90.5474L152.89 93.1764L152.457 93.4266L153.471 95.1792L153.903 94.929L155.423 97.558L154.99 97.8082L156.003 99.5608L156.436 99.3106L157.956 101.94L157.523 102.19L158.536 103.942L158.969 103.692L160.489 106.321L160.056 106.571L161.069 108.324L161.502 108.074L163.021 110.703L162.589 110.953L163.602 112.706L164.035 112.455L165.554 115.084L165.121 115.334L166.134 117.087L166.567 116.837L168.087 119.466L167.654 119.716L168.667 121.469L169.1 121.218L170.62 123.847L170.187 124.098L171.2 125.85L171.633 125.6L173.153 128.229L172.72 128.479L173.733 130.232L174.166 129.982L175.685 132.611L175.252 132.861L176.266 134.613L176.698 134.363L178.218 136.992L177.785 137.242L178.798 138.995L179.231 138.745L180.751 141.374L180.318 141.624L181.331 143.377L181.764 143.126L183.284 145.755L182.851 146.006L183.864 147.758L184.297 147.508L185.816 150.137L185.384 150.387L186.397 152.14L186.83 151.889L188.349 154.518L187.916 154.769L188.929 156.521L189.362 156.271L190.882 158.9L190.449 159.15L191.462 160.903L191.895 160.653L193.415 163.282L192.982 163.532L193.995 165.284L194.428 165.034L195.948 167.663L195.515 167.913L196.528 169.666L196.961 169.416L198.48 172.045L198.047 172.295L199.061 174.048L199.493 173.797L201.013 176.426L200.58 176.677L201.593 178.429L202.026 178.179L203.546 180.808L203.113 181.058L204.126 182.811L204.559 182.561L206.079 185.189L205.646 185.44L206.659 187.192L207.092 186.942L208.611 189.571L208.179 189.821L209.192 191.574L209.625 191.324L211.144 193.953L210.711 194.203L211.724 195.956L212.157 195.705L213.677 198.334L213.244 198.584L214.257 200.337L214.69 200.087L216.21 202.716L215.777 202.966L216.79 204.719L217.223 204.468L218.742 207.097L218.31 207.348L219.323 209.1L219.756 208.85L221.275 211.479L220.842 211.729L221.855 213.482L222.288 213.232L223.808 215.861L223.375 216.111L224.388 217.863L224.821 217.613L226.341 220.242L225.908 220.492L226.921 222.245L227.354 221.995L228.874 224.624L228.441 224.874L228.514 225H228.367V225.5H225.328V225H223.302V225.5H220.262V225H218.236V225.5H215.197V225H213.17V225.5H210.131V225H208.105V225.5H205.066V225H203.039V225.5H200V225H197.974V225.5H194.934V225H192.908V225.5H189.869V225H187.843V225.5H184.803V225H182.777V225.5H179.738V225H177.712V225.5H174.672V225H172.646V225.5H169.607V225H167.58V225.5H164.541V225H162.515V225.5H159.476V225H157.449V225.5H154.41V225H152.384V225.5H149.344V225H147.318V225.5H144.279V225H142.253V225.5H139.213V225H137.187V225.5H134.148V225H132.122V225.5H129.082V225H127.056V225.5H124.017V225H121.99V225.5H118.951V225H116.925V225.5H113.886V225H111.859V225.5H108.82V225H106.794V225.5H103.755V225H101.728V225.5H98.689V225H96.6627V225.5H93.6234V225H91.5972V225.5H88.5579V225H86.5316V225.5H83.4923V225H81.4661V225.5H78.4268V225H76.4005V225.5H73.3612V225H71.335V225.5H68.2956V225H66.2694V225.5H63.2301V225H61.2039V225.5H58.1645V225H56.1383V225.5H53.099V225H51.0728V225.5H48.0334V225H46.0072V225.5H42.9679V225H40.9417V225.5H37.9023V225H37.7558L37.8287 224.874L37.3958 224.624L38.9155 221.995L39.3484 222.245L40.3615 220.492L39.9286 220.242L41.4482 217.613L41.8811 217.863L42.8942 216.111L42.4614 215.86L43.981 213.232L44.4139 213.482L45.427 211.729L44.9941 211.479L46.5138 208.85L46.9467 209.1L47.9598 207.348L47.5269 207.097L49.0466 204.468L49.4794 204.719L50.4926 202.966L50.0597 202.716L51.5793 200.087L52.0122 200.337L53.0253 198.584L52.5924 198.334L54.1121 195.705L54.545 195.955L55.5581 194.203L55.1252 193.953L56.6449 191.324L57.0778 191.574L58.0909 189.821L57.658 189.571L59.1777 186.942L59.6105 187.192L60.6237 185.44L60.1908 185.189L61.7104 182.561L62.1433 182.811L63.1564 181.058L62.7235 180.808L64.2432 178.179L64.6761 178.429L65.6892 176.677L65.2563 176.426L66.776 173.797L67.2089 174.048L68.222 172.295L67.7891 172.045L69.3088 169.416L69.7416 169.666L70.7547 167.913L70.3219 167.663L71.8415 165.034L72.2744 165.284L73.2875 163.532L72.8546 163.282L74.3743 160.653L74.8072 160.903L75.8203 159.15L75.3874 158.9L76.9071 156.271L77.34 156.521L78.3531 154.769L77.9202 154.518L79.4399 151.889L79.8727 152.14L80.8858 150.387L80.453 150.137L81.9726 147.508L82.4055 147.758L83.4186 146.006L82.9857 145.755L84.5054 143.126L84.9383 143.377L85.9514 141.624L85.5185 141.374L87.0382 138.745L87.4711 138.995L88.4842 137.242L88.0513 136.992L89.571 134.363L90.0038 134.613L91.0169 132.861L90.5841 132.611L92.1037 129.982L92.5366 130.232L93.5497 128.479L93.1168 128.229L94.6365 125.6L95.0694 125.85L96.0825 124.098L95.6496 123.847L97.1693 121.218L97.6022 121.469L98.6153 119.716L98.1824 119.466L99.7021 116.837L100.135 117.087L101.148 115.334L100.715 115.084L102.235 112.455L102.668 112.706L103.681 110.953L103.248 110.703L104.768 108.074L105.2 108.324L106.214 106.571L105.781 106.321L107.3 103.692L107.733 103.942L108.746 102.19L108.313 101.94L109.833 99.3106L110.266 99.5608L111.279 97.8082L110.846 97.5579L112.366 94.929L112.799 95.1792L113.812 93.4266L113.379 93.1764L114.899 90.5474L115.332 90.7976L116.345 89.045L115.912 88.7948L117.431 86.1658L117.864 86.4161L118.877 84.6634L118.445 84.4132L119.964 81.7843L120.397 82.0345L121.41 80.2819L120.977 80.0316L122.497 77.4027L122.93 77.6529L123.943 75.9003L123.51 75.6501L125.03 73.0211L125.463 73.2713L126.476 71.5187L126.043 71.2685L127.563 68.6395L127.995 68.8898L129.009 67.1371L128.576 66.8869L130.095 64.258L130.528 64.5082L131.541 62.7556L131.108 62.5053Z" stroke="#F1F1F1" stroke-dasharray="2 3"/>
<g filter="url(#filter0_d_1438_5578)">
<circle cx="49" cy="211" r="26" fill="#DFEFD4"/>
<ellipse opacity="0.7" cx="48.8703" cy="210.87" rx="0.13002" ry="0.13" fill="black"/>
</g>
<g filter="url(#filter1_d_1438_5578)">
<circle cx="217" cy="211" r="26" fill="#DFEFD4"/>
<ellipse opacity="0.7" cx="216.735" cy="210.414" rx="0.127726" ry="0.127707" fill="black"/>
</g>
<g filter="url(#filter2_d_1438_5578)">
<circle cx="133" cy="64" r="26" fill="#DFEFD4"/>
<ellipse cx="132.87" cy="63.87" rx="0.13002" ry="0.13" fill="black"/>
</g>
<path d="M34.7766 246.456H40.3206V247.464H36.0006V250.152H40.0806V251.16H36.0006V253.992H40.3206V255H34.7766V246.456ZM47.5305 248.952V255H46.3305V253.968C46.1545 254.328 45.8905 254.604 45.5385 254.796C45.1945 254.988 44.7905 255.084 44.3265 255.084C43.7905 255.084 43.3185 254.956 42.9105 254.7C42.5105 254.444 42.1985 254.084 41.9745 253.62C41.7505 253.148 41.6385 252.6 41.6385 251.976C41.6385 251.352 41.7505 250.8 41.9745 250.32C42.2065 249.84 42.5265 249.468 42.9345 249.204C43.3425 248.94 43.8065 248.808 44.3265 248.808C44.7905 248.808 45.1945 248.908 45.5385 249.108C45.8825 249.3 46.1465 249.576 46.3305 249.936V248.952H47.5305ZM44.6145 254.124C45.1585 254.124 45.5785 253.936 45.8745 253.56C46.1785 253.176 46.3305 252.64 46.3305 251.952C46.3305 251.256 46.1785 250.72 45.8745 250.344C45.5785 249.968 45.1545 249.78 44.6025 249.78C44.0585 249.78 43.6305 249.976 43.3185 250.368C43.0145 250.752 42.8625 251.288 42.8625 251.976C42.8625 252.656 43.0145 253.184 43.3185 253.56C43.6305 253.936 44.0625 254.124 44.6145 254.124ZM51.663 255.084C50.607 255.084 49.775 254.828 49.167 254.316L49.527 253.44C50.159 253.92 50.883 254.16 51.699 254.16C52.115 254.16 52.431 254.092 52.647 253.956C52.863 253.812 52.971 253.612 52.971 253.356C52.971 253.14 52.895 252.972 52.743 252.852C52.599 252.724 52.351 252.616 51.999 252.528L50.991 252.288C50.463 252.176 50.059 251.98 49.779 251.7C49.507 251.412 49.371 251.056 49.371 250.632C49.371 250.088 49.587 249.648 50.019 249.312C50.459 248.976 51.039 248.808 51.759 248.808C52.191 248.808 52.599 248.876 52.983 249.012C53.375 249.148 53.707 249.34 53.979 249.588L53.607 250.44C53.023 249.976 52.407 249.744 51.759 249.744C51.367 249.744 51.063 249.82 50.847 249.972C50.631 250.116 50.523 250.32 50.523 250.584C50.523 250.792 50.591 250.96 50.727 251.088C50.863 251.216 51.079 251.316 51.375 251.388L52.407 251.64C52.983 251.768 53.407 251.972 53.679 252.252C53.959 252.524 54.099 252.88 54.099 253.32C54.099 253.864 53.879 254.296 53.439 254.616C53.007 254.928 52.415 255.084 51.663 255.084ZM61.1698 248.952L58.3498 255.492C58.0378 256.204 57.6458 256.724 57.1738 257.052C56.7098 257.388 56.1338 257.612 55.4458 257.724L55.1818 256.788C55.7498 256.66 56.1778 256.492 56.4658 256.284C56.7618 256.084 56.9978 255.78 57.1738 255.372L57.3898 254.868L54.8458 248.952H56.1298L58.0258 253.632L59.9578 248.952H61.1698ZM2.8735 261.456H4.1095V270H2.8735V261.456ZM13.1282 263.808C14.4722 263.808 15.1442 264.616 15.1442 266.232V270H13.9322V266.292C13.9322 265.772 13.8402 265.392 13.6562 265.152C13.4802 264.912 13.1922 264.792 12.7922 264.792C12.3282 264.792 11.9602 264.952 11.6882 265.272C11.4242 265.592 11.2922 266.028 11.2922 266.58V270H10.0802V266.292C10.0802 265.772 9.98815 265.392 9.80415 265.152C9.62815 264.912 9.34015 264.792 8.94015 264.792C8.47615 264.792 8.10815 264.952 7.83615 265.272C7.56415 265.592 7.42815 266.028 7.42815 266.58V270H6.22815V265.656C6.22815 265.024 6.19615 264.456 6.13215 263.952H7.26015L7.36815 264.96C7.54415 264.592 7.79615 264.308 8.12415 264.108C8.45215 263.908 8.83615 263.808 9.27615 263.808C10.2122 263.808 10.8242 264.196 11.1122 264.972C11.2962 264.612 11.5642 264.328 11.9162 264.12C12.2762 263.912 12.6802 263.808 13.1282 263.808ZM20.3245 263.808C20.8445 263.808 21.3085 263.94 21.7165 264.204C22.1245 264.468 22.4405 264.84 22.6645 265.32C22.8965 265.8 23.0125 266.352 23.0125 266.976C23.0125 267.6 22.9005 268.148 22.6765 268.62C22.4525 269.084 22.1365 269.444 21.7285 269.7C21.3205 269.956 20.8525 270.084 20.3245 270.084C19.8605 270.084 19.4525 269.988 19.1005 269.796C18.7565 269.596 18.4965 269.312 18.3205 268.944V272.592H17.1205V265.656C17.1205 265.024 17.0885 264.456 17.0245 263.952H18.1525L18.2725 265.068C18.4325 264.668 18.6925 264.36 19.0525 264.144C19.4125 263.92 19.8365 263.808 20.3245 263.808ZM20.0485 269.124C20.5925 269.124 21.0165 268.936 21.3205 268.56C21.6245 268.184 21.7765 267.656 21.7765 266.976C21.7765 266.288 21.6245 265.752 21.3205 265.368C21.0165 264.976 20.5925 264.78 20.0485 264.78C19.4885 264.78 19.0605 264.968 18.7645 265.344C18.4685 265.72 18.3205 266.256 18.3205 266.952C18.3205 267.648 18.4685 268.184 18.7645 268.56C19.0685 268.936 19.4965 269.124 20.0485 269.124ZM24.673 261.168H25.873V270H24.673V261.168ZM33.0496 267H28.7296C28.7696 268.416 29.4136 269.124 30.6616 269.124C31.3576 269.124 31.9936 268.896 32.5696 268.44L32.9416 269.304C32.6696 269.544 32.3216 269.736 31.8976 269.88C31.4816 270.016 31.0616 270.084 30.6376 270.084C29.6696 270.084 28.9096 269.808 28.3576 269.256C27.8056 268.696 27.5296 267.932 27.5296 266.964C27.5296 266.348 27.6496 265.8 27.8896 265.32C28.1376 264.84 28.4816 264.468 28.9216 264.204C29.3616 263.94 29.8616 263.808 30.4216 263.808C31.2376 263.808 31.8776 264.072 32.3416 264.6C32.8136 265.128 33.0496 265.86 33.0496 266.796V267ZM30.4456 264.708C29.9896 264.708 29.6176 264.844 29.3296 265.116C29.0416 265.388 28.8576 265.776 28.7776 266.28H31.9816C31.9336 265.768 31.7776 265.38 31.5136 265.116C31.2496 264.844 30.8936 264.708 30.4456 264.708ZM41.5803 263.808C42.9243 263.808 43.5963 264.616 43.5963 266.232V270H42.3843V266.292C42.3843 265.772 42.2923 265.392 42.1083 265.152C41.9323 264.912 41.6443 264.792 41.2443 264.792C40.7803 264.792 40.4123 264.952 40.1403 265.272C39.8763 265.592 39.7443 266.028 39.7443 266.58V270H38.5323V266.292C38.5323 265.772 38.4403 265.392 38.2563 265.152C38.0803 264.912 37.7923 264.792 37.3923 264.792C36.9283 264.792 36.5603 264.952 36.2883 265.272C36.0163 265.592 35.8803 266.028 35.8803 266.58V270H34.6803V265.656C34.6803 265.024 34.6483 264.456 34.5843 263.952H35.7123L35.8203 264.96C35.9963 264.592 36.2483 264.308 36.5763 264.108C36.9043 263.908 37.2883 263.808 37.7283 263.808C38.6643 263.808 39.2763 264.196 39.5643 264.972C39.7483 264.612 40.0163 264.328 40.3683 264.12C40.7283 263.912 41.1323 263.808 41.5803 263.808ZM50.7327 267H46.4127C46.4527 268.416 47.0967 269.124 48.3447 269.124C49.0407 269.124 49.6767 268.896 50.2527 268.44L50.6247 269.304C50.3527 269.544 50.0047 269.736 49.5807 269.88C49.1647 270.016 48.7447 270.084 48.3207 270.084C47.3527 270.084 46.5927 269.808 46.0407 269.256C45.4887 268.696 45.2127 267.932 45.2127 266.964C45.2127 266.348 45.3327 265.8 45.5727 265.32C45.8207 264.84 46.1647 264.468 46.6047 264.204C47.0447 263.94 47.5447 263.808 48.1047 263.808C48.9207 263.808 49.5607 264.072 50.0247 264.6C50.4967 265.128 50.7327 265.86 50.7327 266.796V267ZM48.1287 264.708C47.6727 264.708 47.3007 264.844 47.0127 265.116C46.7247 265.388 46.5407 265.776 46.4607 266.28H49.6647C49.6167 265.768 49.4607 265.38 49.1967 265.116C48.9327 264.844 48.5767 264.708 48.1287 264.708ZM55.5795 263.808C57.0275 263.808 57.7515 264.616 57.7515 266.232V270H56.5395V266.304C56.5395 265.776 56.4355 265.392 56.2275 265.152C56.0275 264.912 55.7035 264.792 55.2555 264.792C54.7435 264.792 54.3315 264.952 54.0195 265.272C53.7155 265.592 53.5635 266.02 53.5635 266.556V270H52.3635V265.656C52.3635 265.024 52.3315 264.456 52.2675 263.952H53.3955L53.5035 264.996C53.6955 264.612 53.9715 264.32 54.3315 264.12C54.6995 263.912 55.1155 263.808 55.5795 263.808ZM61.2887 264.888V267.924C61.2887 268.34 61.3767 268.636 61.5527 268.812C61.7367 268.98 61.9887 269.064 62.3087 269.064C62.5167 269.064 62.7287 269.032 62.9447 268.968V269.952C62.6807 270.04 62.3807 270.084 62.0447 270.084C61.4207 270.084 60.9367 269.908 60.5927 269.556C60.2487 269.204 60.0767 268.692 60.0767 268.02V264.888H58.9007V263.952H60.0767V262.44L61.2887 262.02V263.952H62.9567V264.888H61.2887ZM69.8481 263.952V270H68.6481V268.968C68.4721 269.328 68.2081 269.604 67.8561 269.796C67.5121 269.988 67.1081 270.084 66.6441 270.084C66.1081 270.084 65.6361 269.956 65.2281 269.7C64.8281 269.444 64.5161 269.084 64.2921 268.62C64.0681 268.148 63.9561 267.6 63.9561 266.976C63.9561 266.352 64.0681 265.8 64.2921 265.32C64.5241 264.84 64.8441 264.468 65.2521 264.204C65.6601 263.94 66.1241 263.808 66.6441 263.808C67.1081 263.808 67.5121 263.908 67.8561 264.108C68.2001 264.3 68.4641 264.576 68.6481 264.936V263.952H69.8481ZM66.9321 269.124C67.4761 269.124 67.8961 268.936 68.1921 268.56C68.4961 268.176 68.6481 267.64 68.6481 266.952C68.6481 266.256 68.4961 265.72 68.1921 265.344C67.8961 264.968 67.4721 264.78 66.9201 264.78C66.3761 264.78 65.9481 264.976 65.6361 265.368C65.3321 265.752 65.1801 266.288 65.1801 266.976C65.1801 267.656 65.3321 268.184 65.6361 268.56C65.9481 268.936 66.3801 269.124 66.9321 269.124ZM73.4406 264.888V267.924C73.4406 268.34 73.5286 268.636 73.7046 268.812C73.8886 268.98 74.1406 269.064 74.4606 269.064C74.6686 269.064 74.8806 269.032 75.0966 268.968V269.952C74.8326 270.04 74.5326 270.084 74.1966 270.084C73.5726 270.084 73.0886 269.908 72.7446 269.556C72.4006 269.204 72.2286 268.692 72.2286 268.02V264.888H71.0526V263.952H72.2286V262.44L73.4406 262.02V263.952H75.1086V264.888H73.4406ZM76.468 263.952H77.668V270H76.468V263.952ZM77.764 261.312V262.584H76.36V261.312H77.764ZM82.2886 270.084C81.6966 270.084 81.1766 269.956 80.7286 269.7C80.2806 269.444 79.9326 269.08 79.6846 268.608C79.4446 268.136 79.3246 267.584 79.3246 266.952C79.3246 266.32 79.4446 265.768 79.6846 265.296C79.9326 264.816 80.2806 264.448 80.7286 264.192C81.1766 263.936 81.6966 263.808 82.2886 263.808C82.8726 263.808 83.3886 263.936 83.8366 264.192C84.2846 264.448 84.6286 264.816 84.8686 265.296C85.1166 265.768 85.2406 266.32 85.2406 266.952C85.2406 267.584 85.1166 268.136 84.8686 268.608C84.6286 269.08 84.2846 269.444 83.8366 269.7C83.3886 269.956 82.8726 270.084 82.2886 270.084ZM82.2766 269.124C82.8366 269.124 83.2646 268.94 83.5606 268.572C83.8566 268.204 84.0046 267.664 84.0046 266.952C84.0046 266.256 83.8526 265.72 83.5486 265.344C83.2526 264.968 82.8326 264.78 82.2886 264.78C81.7366 264.78 81.3086 264.968 81.0046 265.344C80.7006 265.72 80.5486 266.256 80.5486 266.952C80.5486 267.664 80.6966 268.204 80.9926 268.572C81.2966 268.94 81.7246 269.124 82.2766 269.124ZM90.1132 263.808C91.5612 263.808 92.2852 264.616 92.2852 266.232V270H91.0732V266.304C91.0732 265.776 90.9692 265.392 90.7612 265.152C90.5612 264.912 90.2372 264.792 89.7892 264.792C89.2772 264.792 88.8652 264.952 88.5532 265.272C88.2492 265.592 88.0972 266.02 88.0972 266.556V270H86.8972V265.656C86.8972 265.024 86.8652 264.456 86.8012 263.952H87.9292L88.0372 264.996C88.2292 264.612 88.5052 264.32 88.8652 264.12C89.2332 263.912 89.6492 263.808 90.1132 263.808Z" fill="#ABABAB"/>
<path d="M119.81 3.456V12H118.694V6.132L116.162 12H115.31L112.742 6.168L112.754 12H111.638V3.456H112.634L115.742 10.512L118.814 3.456H119.81ZM124.545 12.084C123.953 12.084 123.433 11.956 122.985 11.7C122.537 11.444 122.189 11.08 121.941 10.608C121.701 10.136 121.581 9.584 121.581 8.952C121.581 8.32 121.701 7.768 121.941 7.296C122.189 6.816 122.537 6.448 122.985 6.192C123.433 5.936 123.953 5.808 124.545 5.808C125.129 5.808 125.645 5.936 126.093 6.192C126.541 6.448 126.885 6.816 127.125 7.296C127.373 7.768 127.497 8.32 127.497 8.952C127.497 9.584 127.373 10.136 127.125 10.608C126.885 11.08 126.541 11.444 126.093 11.7C125.645 11.956 125.129 12.084 124.545 12.084ZM124.533 11.124C125.093 11.124 125.521 10.94 125.817 10.572C126.113 10.204 126.261 9.664 126.261 8.952C126.261 8.256 126.109 7.72 125.805 7.344C125.509 6.968 125.089 6.78 124.545 6.78C123.993 6.78 123.565 6.968 123.261 7.344C122.957 7.72 122.805 8.256 122.805 8.952C122.805 9.664 122.953 10.204 123.249 10.572C123.553 10.94 123.981 11.124 124.533 11.124ZM134.686 3.168V12H133.486V10.968C133.31 11.328 133.046 11.604 132.694 11.796C132.35 11.988 131.946 12.084 131.482 12.084C130.962 12.084 130.498 11.952 130.09 11.688C129.682 11.424 129.362 11.056 129.13 10.584C128.906 10.104 128.794 9.552 128.794 8.928C128.794 8.304 128.906 7.756 129.13 7.284C129.354 6.812 129.666 6.448 130.066 6.192C130.474 5.936 130.946 5.808 131.482 5.808C131.938 5.808 132.338 5.904 132.682 6.096C133.034 6.288 133.298 6.56 133.474 6.912V3.168H134.686ZM131.758 11.124C132.31 11.124 132.734 10.936 133.03 10.56C133.334 10.176 133.486 9.64 133.486 8.952C133.486 8.264 133.334 7.732 133.03 7.356C132.734 6.972 132.314 6.78 131.77 6.78C131.218 6.78 130.786 6.968 130.474 7.344C130.17 7.72 130.018 8.248 130.018 8.928C130.018 9.616 130.17 10.156 130.474 10.548C130.786 10.932 131.214 11.124 131.758 11.124ZM141.962 5.952V12H140.786V10.992C140.594 11.344 140.33 11.616 139.994 11.808C139.658 11.992 139.278 12.084 138.854 12.084C137.398 12.084 136.67 11.276 136.67 9.66V5.952H137.87V9.648C137.87 10.144 137.97 10.512 138.17 10.752C138.378 10.984 138.69 11.1 139.106 11.1C139.602 11.1 139.998 10.94 140.294 10.62C140.598 10.3 140.75 9.876 140.75 9.348V5.952H141.962ZM143.978 3.168H145.178V12H143.978V3.168ZM152.726 5.952V12H151.526V10.968C151.35 11.328 151.086 11.604 150.734 11.796C150.39 11.988 149.986 12.084 149.522 12.084C148.986 12.084 148.514 11.956 148.106 11.7C147.706 11.444 147.394 11.084 147.17 10.62C146.946 10.148 146.834 9.6 146.834 8.976C146.834 8.352 146.946 7.8 147.17 7.32C147.402 6.84 147.722 6.468 148.13 6.204C148.538 5.94 149.002 5.808 149.522 5.808C149.986 5.808 150.39 5.908 150.734 6.108C151.078 6.3 151.342 6.576 151.526 6.936V5.952H152.726ZM149.81 11.124C150.354 11.124 150.774 10.936 151.07 10.56C151.374 10.176 151.526 9.64 151.526 8.952C151.526 8.256 151.374 7.72 151.07 7.344C150.774 6.968 150.35 6.78 149.798 6.78C149.254 6.78 148.826 6.976 148.514 7.368C148.21 7.752 148.058 8.288 148.058 8.976C148.058 9.656 148.21 10.184 148.514 10.56C148.826 10.936 149.258 11.124 149.81 11.124ZM157.759 5.808C157.943 5.808 158.135 5.836 158.335 5.892L158.311 6.996C158.095 6.916 157.859 6.876 157.603 6.876C157.051 6.876 156.635 7.044 156.355 7.38C156.083 7.708 155.947 8.124 155.947 8.628V12H154.747V7.656C154.747 7.024 154.715 6.456 154.651 5.952H155.779L155.887 7.044C156.047 6.644 156.295 6.34 156.631 6.132C156.967 5.916 157.343 5.808 157.759 5.808ZM115.352 27.096C114.528 27.096 113.808 26.92 113.192 26.568C112.584 26.208 112.116 25.7 111.788 25.044C111.46 24.388 111.296 23.612 111.296 22.716C111.296 21.828 111.46 21.056 111.788 20.4C112.116 19.744 112.584 19.24 113.192 18.888C113.808 18.536 114.528 18.36 115.352 18.36C115.936 18.36 116.476 18.452 116.972 18.636C117.476 18.812 117.9 19.072 118.244 19.416L117.812 20.328C117.412 20 117.016 19.764 116.624 19.62C116.24 19.468 115.82 19.392 115.364 19.392C114.476 19.392 113.788 19.68 113.3 20.256C112.82 20.832 112.58 21.652 112.58 22.716C112.58 23.788 112.82 24.616 113.3 25.2C113.788 25.776 114.476 26.064 115.364 26.064C115.82 26.064 116.24 25.992 116.624 25.848C117.016 25.696 117.412 25.456 117.812 25.128L118.244 26.04C117.9 26.384 117.476 26.648 116.972 26.832C116.476 27.008 115.936 27.096 115.352 27.096ZM122.418 27.084C121.826 27.084 121.306 26.956 120.858 26.7C120.41 26.444 120.062 26.08 119.814 25.608C119.574 25.136 119.454 24.584 119.454 23.952C119.454 23.32 119.574 22.768 119.814 22.296C120.062 21.816 120.41 21.448 120.858 21.192C121.306 20.936 121.826 20.808 122.418 20.808C123.002 20.808 123.518 20.936 123.966 21.192C124.414 21.448 124.758 21.816 124.998 22.296C125.246 22.768 125.37 23.32 125.37 23.952C125.37 24.584 125.246 25.136 124.998 25.608C124.758 26.08 124.414 26.444 123.966 26.7C123.518 26.956 123.002 27.084 122.418 27.084ZM122.406 26.124C122.966 26.124 123.394 25.94 123.69 25.572C123.986 25.204 124.134 24.664 124.134 23.952C124.134 23.256 123.982 22.72 123.678 22.344C123.382 21.968 122.962 21.78 122.418 21.78C121.866 21.78 121.438 21.968 121.134 22.344C120.83 22.72 120.678 23.256 120.678 23.952C120.678 24.664 120.826 25.204 121.122 25.572C121.426 25.94 121.854 26.124 122.406 26.124ZM130.243 20.808C131.691 20.808 132.415 21.616 132.415 23.232V27H131.203V23.304C131.203 22.776 131.099 22.392 130.891 22.152C130.691 21.912 130.367 21.792 129.919 21.792C129.407 21.792 128.995 21.952 128.683 22.272C128.379 22.592 128.227 23.02 128.227 23.556V27H127.027V22.656C127.027 22.024 126.995 21.456 126.931 20.952H128.059L128.167 21.996C128.359 21.612 128.635 21.32 128.995 21.12C129.363 20.912 129.779 20.808 130.243 20.808ZM137.008 27.084C136.4 27.084 135.868 26.956 135.412 26.7C134.964 26.444 134.62 26.084 134.38 25.62C134.14 25.148 134.02 24.6 134.02 23.976C134.02 23.352 134.144 22.8 134.392 22.32C134.648 21.84 135.004 21.468 135.46 21.204C135.916 20.94 136.448 20.808 137.056 20.808C137.48 20.808 137.888 20.88 138.28 21.024C138.672 21.16 138.988 21.348 139.228 21.588L138.856 22.464C138.288 22.016 137.716 21.792 137.14 21.792C136.556 21.792 136.1 21.984 135.772 22.368C135.444 22.744 135.28 23.276 135.28 23.964C135.28 24.652 135.444 25.184 135.772 25.56C136.1 25.928 136.556 26.112 137.14 26.112C137.732 26.112 138.304 25.888 138.856 25.44L139.228 26.316C138.972 26.556 138.644 26.744 138.244 26.88C137.852 27.016 137.44 27.084 137.008 27.084ZM145.768 24H141.448C141.488 25.416 142.132 26.124 143.38 26.124C144.076 26.124 144.712 25.896 145.288 25.44L145.66 26.304C145.388 26.544 145.04 26.736 144.616 26.88C144.2 27.016 143.78 27.084 143.356 27.084C142.388 27.084 141.628 26.808 141.076 26.256C140.524 25.696 140.248 24.932 140.248 23.964C140.248 23.348 140.368 22.8 140.608 22.32C140.856 21.84 141.2 21.468 141.64 21.204C142.08 20.94 142.58 20.808 143.14 20.808C143.956 20.808 144.596 21.072 145.06 21.6C145.532 22.128 145.768 22.86 145.768 23.796V24ZM143.164 21.708C142.708 21.708 142.336 21.844 142.048 22.116C141.76 22.388 141.576 22.776 141.496 23.28H144.7C144.652 22.768 144.496 22.38 144.232 22.116C143.968 21.844 143.612 21.708 143.164 21.708ZM150.603 20.808C151.123 20.808 151.587 20.94 151.995 21.204C152.403 21.468 152.719 21.84 152.943 22.32C153.175 22.8 153.291 23.352 153.291 23.976C153.291 24.6 153.179 25.148 152.955 25.62C152.731 26.084 152.415 26.444 152.007 26.7C151.599 26.956 151.131 27.084 150.603 27.084C150.139 27.084 149.731 26.988 149.379 26.796C149.035 26.596 148.775 26.312 148.599 25.944V29.592H147.399V22.656C147.399 22.024 147.367 21.456 147.303 20.952H148.431L148.551 22.068C148.711 21.668 148.971 21.36 149.331 21.144C149.691 20.92 150.115 20.808 150.603 20.808ZM150.327 26.124C150.871 26.124 151.295 25.936 151.599 25.56C151.903 25.184 152.055 24.656 152.055 23.976C152.055 23.288 151.903 22.752 151.599 22.368C151.295 21.976 150.871 21.78 150.327 21.78C149.767 21.78 149.339 21.968 149.043 22.344C148.747 22.72 148.599 23.256 148.599 23.952C148.599 24.648 148.747 25.184 149.043 25.56C149.347 25.936 149.775 26.124 150.327 26.124ZM156.5 21.888V24.924C156.5 25.34 156.588 25.636 156.764 25.812C156.948 25.98 157.2 26.064 157.52 26.064C157.728 26.064 157.94 26.032 158.156 25.968V26.952C157.892 27.04 157.592 27.084 157.256 27.084C156.632 27.084 156.148 26.908 155.804 26.556C155.46 26.204 155.288 25.692 155.288 25.02V21.888H154.112V20.952H155.288V19.44L156.5 19.02V20.952H158.168V21.888H156.5Z" fill="#ABABAB"/>
<path d="M201.437 247.456V256H200.321V250.132L197.789 256H196.937L194.369 250.168L194.381 256H193.265V247.456H194.261L197.369 254.512L200.441 247.456H201.437ZM208.824 249.952V256H207.648V254.992C207.456 255.344 207.192 255.616 206.856 255.808C206.52 255.992 206.14 256.084 205.716 256.084C204.26 256.084 203.532 255.276 203.532 253.66V249.952H204.732V253.648C204.732 254.144 204.832 254.512 205.032 254.752C205.24 254.984 205.552 255.1 205.968 255.1C206.464 255.1 206.86 254.94 207.156 254.62C207.46 254.3 207.612 253.876 207.612 253.348V249.952H208.824ZM210.84 247.168H212.04V256H210.84V247.168ZM215.628 250.888V253.924C215.628 254.34 215.716 254.636 215.892 254.812C216.076 254.98 216.328 255.064 216.648 255.064C216.856 255.064 217.068 255.032 217.284 254.968V255.952C217.02 256.04 216.72 256.084 216.384 256.084C215.76 256.084 215.276 255.908 214.932 255.556C214.588 255.204 214.416 254.692 214.416 254.02V250.888H213.24V249.952H214.416V248.44L215.628 248.02V249.952H217.296V250.888H215.628ZM218.656 249.952H219.856V256H218.656V249.952ZM219.952 247.312V248.584H218.548V247.312H219.952ZM225.076 249.808C225.596 249.808 226.06 249.94 226.468 250.204C226.876 250.468 227.192 250.84 227.416 251.32C227.648 251.8 227.764 252.352 227.764 252.976C227.764 253.6 227.652 254.148 227.428 254.62C227.204 255.084 226.888 255.444 226.48 255.7C226.072 255.956 225.604 256.084 225.076 256.084C224.612 256.084 224.204 255.988 223.852 255.796C223.508 255.596 223.248 255.312 223.072 254.944V258.592H221.872V251.656C221.872 251.024 221.84 250.456 221.776 249.952H222.904L223.024 251.068C223.184 250.668 223.444 250.36 223.804 250.144C224.164 249.92 224.588 249.808 225.076 249.808ZM224.8 255.124C225.344 255.124 225.768 254.936 226.072 254.56C226.376 254.184 226.528 253.656 226.528 252.976C226.528 252.288 226.376 251.752 226.072 251.368C225.768 250.976 225.344 250.78 224.8 250.78C224.24 250.78 223.812 250.968 223.516 251.344C223.22 251.72 223.072 252.256 223.072 252.952C223.072 253.648 223.22 254.184 223.516 254.56C223.82 254.936 224.248 255.124 224.8 255.124ZM229.425 247.168H230.625V256H229.425V247.168ZM237.801 253H233.481C233.521 254.416 234.165 255.124 235.413 255.124C236.109 255.124 236.745 254.896 237.321 254.44L237.693 255.304C237.421 255.544 237.073 255.736 236.649 255.88C236.233 256.016 235.813 256.084 235.389 256.084C234.421 256.084 233.661 255.808 233.109 255.256C232.557 254.696 232.281 253.932 232.281 252.964C232.281 252.348 232.401 251.8 232.641 251.32C232.889 250.84 233.233 250.468 233.673 250.204C234.113 249.94 234.613 249.808 235.173 249.808C235.989 249.808 236.629 250.072 237.093 250.6C237.565 251.128 237.801 251.86 237.801 252.796V253ZM235.197 250.708C234.741 250.708 234.369 250.844 234.081 251.116C233.793 251.388 233.609 251.776 233.529 252.28H236.733C236.685 251.768 236.529 251.38 236.265 251.116C236.001 250.844 235.645 250.708 235.197 250.708ZM167.628 262.456H168.864V269.968H173.016V271H167.628V262.456ZM174.381 264.952H175.581V271H174.381V264.952ZM175.677 262.312V263.584H174.273V262.312H175.677ZM180.802 264.808C181.33 264.808 181.798 264.936 182.206 265.192C182.614 265.448 182.93 265.812 183.154 266.284C183.378 266.756 183.49 267.304 183.49 267.928C183.49 268.552 183.374 269.104 183.142 269.584C182.918 270.056 182.602 270.424 182.194 270.688C181.786 270.952 181.322 271.084 180.802 271.084C180.338 271.084 179.93 270.988 179.578 270.796C179.234 270.596 178.974 270.312 178.798 269.944V271H177.598V262.168H178.798V265.948C178.974 265.588 179.234 265.308 179.578 265.108C179.93 264.908 180.338 264.808 180.802 264.808ZM180.526 270.124C181.07 270.124 181.494 269.932 181.798 269.548C182.102 269.156 182.254 268.616 182.254 267.928C182.254 267.248 182.102 266.72 181.798 266.344C181.494 265.968 181.07 265.78 180.526 265.78C179.974 265.78 179.546 265.968 179.242 266.344C178.946 266.72 178.798 267.256 178.798 267.952C178.798 268.648 178.946 269.184 179.242 269.56C179.546 269.936 179.974 270.124 180.526 270.124ZM188.162 264.808C188.346 264.808 188.538 264.836 188.738 264.892L188.714 265.996C188.498 265.916 188.262 265.876 188.006 265.876C187.454 265.876 187.038 266.044 186.758 266.38C186.486 266.708 186.35 267.124 186.35 267.628V271H185.15V266.656C185.15 266.024 185.118 265.456 185.054 264.952H186.182L186.29 266.044C186.45 265.644 186.698 265.34 187.034 265.132C187.37 264.916 187.746 264.808 188.162 264.808ZM195.317 264.952V271H194.117V269.968C193.941 270.328 193.677 270.604 193.325 270.796C192.981 270.988 192.577 271.084 192.113 271.084C191.577 271.084 191.105 270.956 190.697 270.7C190.297 270.444 189.985 270.084 189.761 269.62C189.537 269.148 189.425 268.6 189.425 267.976C189.425 267.352 189.537 266.8 189.761 266.32C189.993 265.84 190.313 265.468 190.721 265.204C191.129 264.94 191.593 264.808 192.113 264.808C192.577 264.808 192.981 264.908 193.325 265.108C193.669 265.3 193.933 265.576 194.117 265.936V264.952H195.317ZM192.401 270.124C192.945 270.124 193.365 269.936 193.661 269.56C193.965 269.176 194.117 268.64 194.117 267.952C194.117 267.256 193.965 266.72 193.661 266.344C193.365 265.968 192.941 265.78 192.389 265.78C191.845 265.78 191.417 265.976 191.105 266.368C190.801 266.752 190.649 267.288 190.649 267.976C190.649 268.656 190.801 269.184 191.105 269.56C191.417 269.936 191.849 270.124 192.401 270.124ZM200.349 264.808C200.533 264.808 200.725 264.836 200.925 264.892L200.901 265.996C200.685 265.916 200.449 265.876 200.193 265.876C199.641 265.876 199.225 266.044 198.945 266.38C198.673 266.708 198.537 267.124 198.537 267.628V271H197.337V266.656C197.337 266.024 197.305 265.456 197.241 264.952H198.369L198.477 266.044C198.637 265.644 198.885 265.34 199.221 265.132C199.557 264.916 199.933 264.808 200.349 264.808ZM202.089 264.952H203.289V271H202.089V264.952ZM203.385 262.312V263.584H201.981V262.312H203.385ZM210.465 268H206.145C206.185 269.416 206.829 270.124 208.077 270.124C208.773 270.124 209.409 269.896 209.985 269.44L210.357 270.304C210.085 270.544 209.737 270.736 209.313 270.88C208.897 271.016 208.477 271.084 208.053 271.084C207.085 271.084 206.325 270.808 205.773 270.256C205.221 269.696 204.945 268.932 204.945 267.964C204.945 267.348 205.065 266.8 205.305 266.32C205.553 265.84 205.897 265.468 206.337 265.204C206.777 264.94 207.277 264.808 207.837 264.808C208.653 264.808 209.293 265.072 209.757 265.6C210.229 266.128 210.465 266.86 210.465 267.796V268ZM207.861 265.708C207.405 265.708 207.033 265.844 206.745 266.116C206.457 266.388 206.273 266.776 206.193 267.28H209.397C209.349 266.768 209.193 266.38 208.929 266.116C208.665 265.844 208.309 265.708 207.861 265.708ZM214.208 271.084C213.152 271.084 212.32 270.828 211.712 270.316L212.072 269.44C212.704 269.92 213.428 270.16 214.244 270.16C214.66 270.16 214.976 270.092 215.192 269.956C215.408 269.812 215.516 269.612 215.516 269.356C215.516 269.14 215.44 268.972 215.288 268.852C215.144 268.724 214.896 268.616 214.544 268.528L213.536 268.288C213.008 268.176 212.604 267.98 212.324 267.7C212.052 267.412 211.916 267.056 211.916 266.632C211.916 266.088 212.132 265.648 212.564 265.312C213.004 264.976 213.584 264.808 214.304 264.808C214.736 264.808 215.144 264.876 215.528 265.012C215.92 265.148 216.252 265.34 216.524 265.588L216.152 266.44C215.568 265.976 214.952 265.744 214.304 265.744C213.912 265.744 213.608 265.82 213.392 265.972C213.176 266.116 213.068 266.32 213.068 266.584C213.068 266.792 213.136 266.96 213.272 267.088C213.408 267.216 213.624 267.316 213.92 267.388L214.952 267.64C215.528 267.768 215.952 267.972 216.224 268.252C216.504 268.524 216.644 268.88 216.644 269.32C216.644 269.864 216.424 270.296 215.984 270.616C215.552 270.928 214.96 271.084 214.208 271.084ZM224.308 263.14C223.644 263.14 223.312 263.52 223.312 264.28V264.952H224.728V265.888H223.312V271H222.1V265.888H220.936V264.952H222.1V264.184C222.1 263.512 222.268 263 222.604 262.648C222.948 262.296 223.428 262.12 224.044 262.12C224.364 262.12 224.656 262.16 224.92 262.24V263.236C224.704 263.172 224.5 263.14 224.308 263.14ZM228.744 271.084C228.152 271.084 227.632 270.956 227.184 270.7C226.736 270.444 226.388 270.08 226.14 269.608C225.9 269.136 225.78 268.584 225.78 267.952C225.78 267.32 225.9 266.768 226.14 266.296C226.388 265.816 226.736 265.448 227.184 265.192C227.632 264.936 228.152 264.808 228.744 264.808C229.328 264.808 229.844 264.936 230.292 265.192C230.74 265.448 231.084 265.816 231.324 266.296C231.572 266.768 231.696 267.32 231.696 267.952C231.696 268.584 231.572 269.136 231.324 269.608C231.084 270.08 230.74 270.444 230.292 270.7C229.844 270.956 229.328 271.084 228.744 271.084ZM228.732 270.124C229.292 270.124 229.72 269.94 230.016 269.572C230.312 269.204 230.46 268.664 230.46 267.952C230.46 267.256 230.308 266.72 230.004 266.344C229.708 265.968 229.288 265.78 228.744 265.78C228.192 265.78 227.764 265.968 227.46 266.344C227.156 266.72 227.004 267.256 227.004 267.952C227.004 268.664 227.152 269.204 227.448 269.572C227.752 269.94 228.18 270.124 228.732 270.124ZM236.365 264.808C236.549 264.808 236.741 264.836 236.941 264.892L236.917 265.996C236.701 265.916 236.465 265.876 236.209 265.876C235.657 265.876 235.241 266.044 234.961 266.38C234.689 266.708 234.553 267.124 234.553 267.628V271H233.353V266.656C233.353 266.024 233.321 265.456 233.257 264.952H234.385L234.493 266.044C234.653 265.644 234.901 265.34 235.237 265.132C235.573 264.916 235.949 264.808 236.365 264.808ZM247.268 268.888H242.948L242.036 271H240.776L244.58 262.456H245.624L249.44 271H248.18L247.268 268.888ZM246.848 267.904L245.108 263.836L243.368 267.904H246.848ZM250.786 262.456H254.338C255.234 262.456 255.93 262.676 256.426 263.116C256.93 263.548 257.182 264.14 257.182 264.892C257.182 265.644 256.926 266.24 256.414 266.68C255.91 267.112 255.218 267.328 254.338 267.328H252.022V271H250.786V262.456ZM254.194 266.344C254.786 266.344 255.23 266.22 255.526 265.972C255.83 265.724 255.982 265.364 255.982 264.892C255.982 264.428 255.83 264.072 255.526 263.824C255.23 263.576 254.786 263.452 254.194 263.452H252.022V266.344H254.194ZM258.925 262.456H260.161V271H258.925V262.456ZM264.392 271.084C263.336 271.084 262.504 270.828 261.896 270.316L262.256 269.44C262.888 269.92 263.612 270.16 264.428 270.16C264.844 270.16 265.16 270.092 265.376 269.956C265.592 269.812 265.7 269.612 265.7 269.356C265.7 269.14 265.624 268.972 265.472 268.852C265.328 268.724 265.08 268.616 264.728 268.528L263.72 268.288C263.192 268.176 262.788 267.98 262.508 267.7C262.236 267.412 262.1 267.056 262.1 266.632C262.1 266.088 262.316 265.648 262.748 265.312C263.188 264.976 263.768 264.808 264.488 264.808C264.92 264.808 265.328 264.876 265.712 265.012C266.104 265.148 266.436 265.34 266.708 265.588L266.336 266.44C265.752 265.976 265.136 265.744 264.488 265.744C264.096 265.744 263.792 265.82 263.576 265.972C263.36 266.116 263.252 266.32 263.252 266.584C263.252 266.792 263.32 266.96 263.456 267.088C263.592 267.216 263.808 267.316 264.104 267.388L265.136 267.64C265.712 267.768 266.136 267.972 266.408 268.252C266.688 268.524 266.828 268.88 266.828 269.32C266.828 269.864 266.608 270.296 266.168 270.616C265.736 270.928 265.144 271.084 264.392 271.084Z" fill="#ABABAB"/>
<path d="M126.502 70.0667L124.335 68.875V66.1667" stroke="#46AC34" stroke-width="1.05957" stroke-linecap="round" stroke-linejoin="round"/>
<path d="M124.335 61.8334V59.125L126.502 57.9334" stroke="#46AC34" stroke-width="1.05957" stroke-linecap="round" stroke-linejoin="round"/>
<path d="M130.839 55.4414L133.006 54.25L135.173 55.4414" stroke="#46AC34" stroke-width="1.05957" stroke-linecap="round" stroke-linejoin="round"/>
<path d="M139.5 57.9333L141.668 59.125V61.8333" stroke="#46AC34" stroke-width="1.05957" stroke-linecap="round" stroke-linejoin="round"/>
<path d="M141.668 66.1667V68.875L139.5 70.0883" stroke="#46AC34" stroke-width="1.05957" stroke-linecap="round" stroke-linejoin="round"/>
<path d="M135.173 72.5584L133.006 73.7497L130.839 72.5584" stroke="#46AC34" stroke-width="1.05957" stroke-linecap="round" stroke-linejoin="round"/>
<path d="M133.001 63.9996L135.168 62.8082" stroke="#46AC34" stroke-width="1.05957" stroke-linecap="round" stroke-linejoin="round"/>
<path d="M139.5 60.3164L141.668 59.1251" stroke="#46AC34" stroke-width="1.05957" stroke-linecap="round" stroke-linejoin="round"/>
<path d="M133.001 64.0001V66.7077" stroke="#46AC34" stroke-width="1.05957" stroke-linecap="round" stroke-linejoin="round"/>
<path d="M133.001 71.0417V73.7493" stroke="#46AC34" stroke-width="1.05957" stroke-linecap="round" stroke-linejoin="round"/>
<path d="M133.006 63.9996L130.839 62.7866" stroke="#46AC34" stroke-width="1.05957" stroke-linecap="round" stroke-linejoin="round"/>
<path d="M217.784 215.445L221.694 216.618M211.455 206.379L212.628 210.287L211.455 206.379Z" stroke="#46AC34" stroke-width="1.05957" stroke-linecap="round" stroke-linejoin="round"/>
<path d="M216.746 211.328L222.043 206.031" stroke="#46AC34" stroke-width="1.05957" stroke-linecap="round" stroke-linejoin="round"/>
<path d="M211.059 206.437C211.821 206.437 212.439 205.819 212.439 205.058C212.439 204.296 211.821 203.679 211.059 203.679C210.297 203.679 209.68 204.296 209.68 205.058C209.68 205.819 210.297 206.437 211.059 206.437Z" stroke="#46AC34" stroke-width="1.05957" stroke-linecap="round" stroke-linejoin="round"/>
<path d="M223.014 206.437C223.777 206.437 224.394 205.819 224.394 205.058C224.394 204.296 223.777 203.679 223.014 203.679C222.252 203.679 221.635 204.296 221.635 205.058C221.635 205.819 222.252 206.437 223.014 206.437Z" stroke="#46AC34" stroke-width="1.05957" stroke-linecap="round" stroke-linejoin="round"/>
<path d="M223.014 218.393C223.777 218.393 224.394 217.776 224.394 217.014C224.394 216.252 223.777 215.635 223.014 215.635C222.252 215.635 221.635 216.252 221.635 217.014C221.635 217.776 222.252 218.393 223.014 218.393Z" stroke="#46AC34" stroke-width="1.05957" stroke-linecap="round" stroke-linejoin="round"/>
<path d="M213.818 218.394C216.104 218.394 217.957 216.541 217.957 214.255C217.957 211.969 216.104 210.117 213.818 210.117C211.533 210.117 209.68 211.969 209.68 214.255C209.68 216.541 211.533 218.394 213.818 218.394Z" stroke="#46AC34" stroke-width="1.05957" stroke-linecap="round" stroke-linejoin="round"/>
<path d="M152.772 156.965H118.023V180.409H152.772V156.965Z" fill="#D0E6BB"/>
<path opacity="0.55" d="M153.158 156.588H117.264V162.546H153.158V156.588Z" fill="#D0E6BB"/>
<path d="M159.259 182.053H111.537V184.484H159.259V182.053Z" fill="white"/>
<path d="M157.585 179.622H113.211V182.053H157.585V179.622Z" fill="white"/>
<path d="M157.585 181.403H113.211V182.053H157.585V181.403Z" fill="#252525"/>
<path d="M159.259 183.833H111.537V184.484H159.259V183.833Z" fill="#252525"/>
<path d="M160.86 184.484H110V186.915H160.86V184.484Z" fill="white"/>
<path d="M110.177 186.738V186.441H160.683V186.738H110.177Z" fill="#F5FBF3" stroke="black" stroke-width="0.353191"/>
<path d="M116.678 178.44V158.88H120.342V178.44H116.678Z" fill="white" stroke="black" stroke-width="0.176596"/>
<path d="M126.364 178.44V158.88H130.027V178.44H126.364Z" fill="white" stroke="black" stroke-width="0.176596"/>
<path d="M150.452 178.44V158.88H154.115V178.44H150.452Z" fill="white" stroke="black" stroke-width="0.176596"/>
<path d="M115.432 156.965H121.585V159.204C121.585 159.279 121.555 159.351 121.503 159.404C121.451 159.457 121.38 159.487 121.306 159.487H115.71C115.636 159.487 115.566 159.457 115.513 159.404C115.461 159.351 115.432 159.279 115.432 159.204V156.965Z" fill="#AAC986"/>
<path d="M125.117 156.964H131.27V159.204C131.27 159.279 131.241 159.351 131.188 159.404C131.136 159.457 131.065 159.487 130.991 159.487H125.396C125.322 159.487 125.251 159.457 125.199 159.404C125.147 159.351 125.117 159.279 125.117 159.204V156.964Z" fill="#AAC986"/>
<path d="M149.207 156.964H155.36V159.204C155.36 159.279 155.331 159.351 155.279 159.404C155.226 159.457 155.155 159.487 155.081 159.487H149.486C149.412 159.487 149.341 159.457 149.289 159.404C149.236 159.351 149.207 159.279 149.207 159.204V156.964H149.207Z" fill="#AAC986"/>
<path d="M115.71 177.852H121.306C121.38 177.852 121.451 177.882 121.503 177.935C121.555 177.988 121.584 178.06 121.584 178.135V179.622H115.432V178.135C115.432 178.06 115.461 177.988 115.513 177.935C115.566 177.882 115.636 177.852 115.71 177.852Z" fill="#AAC986"/>
<path d="M125.396 177.852H130.991C131.065 177.852 131.136 177.882 131.188 177.935C131.241 177.988 131.27 178.06 131.27 178.135V179.622H125.117V178.135C125.117 178.06 125.147 177.988 125.199 177.935C125.251 177.882 125.322 177.852 125.396 177.852Z" fill="#AAC986"/>
<path d="M149.486 177.852H155.081C155.155 177.852 155.226 177.882 155.278 177.935C155.33 177.988 155.36 178.06 155.36 178.135V179.622H149.207V178.135C149.207 178.06 149.236 177.988 149.289 177.935C149.341 177.882 149.412 177.852 149.486 177.852Z" fill="#AAC986"/>
<path d="M118.022 160.569C118.022 160.461 117.935 160.373 117.828 160.373C117.721 160.373 117.635 160.461 117.635 160.569V176.75C117.635 176.858 117.721 176.946 117.828 176.946C117.935 176.946 118.022 176.858 118.022 176.75V160.569Z" fill="#AAC986"/>
<path d="M119.383 160.569C119.383 160.461 119.296 160.373 119.189 160.373C119.083 160.373 118.996 160.461 118.996 160.569V176.75C118.996 176.858 119.083 176.946 119.189 176.946C119.296 176.946 119.383 176.858 119.383 176.75V160.569Z" fill="#AAC986"/>
<path d="M127.707 160.569C127.707 160.461 127.62 160.373 127.514 160.373C127.407 160.373 127.32 160.461 127.32 160.569V176.75C127.32 176.858 127.407 176.946 127.514 176.946C127.62 176.946 127.707 176.858 127.707 176.75V160.569Z" fill="#AAC986"/>
<path d="M129.072 160.569C129.072 160.461 128.986 160.373 128.879 160.373C128.772 160.373 128.686 160.461 128.686 160.569V176.75C128.686 176.858 128.772 176.946 128.879 176.946C128.986 176.946 129.072 176.858 129.072 176.75V160.569Z" fill="#AAC986"/>
<path d="M141.063 178.44V158.88H144.726V178.44H141.063Z" fill="white" stroke="black" stroke-width="0.176596"/>
<path d="M138.87 168.635H132.725V179.329H138.87V168.635Z" fill="#73A92C"/>
<path d="M139.822 156.964H145.975V159.204C145.975 159.279 145.946 159.351 145.894 159.404C145.841 159.457 145.77 159.487 145.696 159.487H140.101C140.027 159.487 139.956 159.457 139.904 159.404C139.852 159.351 139.822 159.279 139.822 159.204V156.964Z" fill="#AAC986"/>
<path d="M140.101 177.852H145.697C145.771 177.852 145.842 177.882 145.894 177.935C145.946 177.988 145.976 178.06 145.976 178.135V179.622H139.822V178.135C139.822 178.06 139.852 177.988 139.904 177.935C139.956 177.882 140.027 177.852 140.101 177.852Z" fill="#AAC986"/>
<path d="M142.412 160.569C142.412 160.461 142.326 160.373 142.219 160.373C142.112 160.373 142.025 160.461 142.025 160.569V176.75C142.025 176.858 142.112 176.946 142.219 176.946C142.326 176.946 142.412 176.858 142.412 176.75V160.569Z" fill="#AAC986"/>
<path d="M143.77 160.569C143.77 160.461 143.683 160.373 143.576 160.373C143.469 160.373 143.383 160.461 143.383 160.569V176.75C143.383 176.858 143.469 176.946 143.576 176.946C143.683 176.946 143.77 176.858 143.77 176.75V160.569Z" fill="#AAC986"/>
<path d="M151.799 160.569C151.799 160.461 151.712 160.373 151.605 160.373C151.499 160.373 151.412 160.461 151.412 160.569V176.75C151.412 176.858 151.499 176.946 151.605 176.946C151.712 176.946 151.799 176.858 151.799 176.75V160.569Z" fill="#AAC986"/>
<path d="M153.158 160.569C153.158 160.461 153.072 160.373 152.965 160.373C152.858 160.373 152.771 160.461 152.771 160.569V176.75C152.771 176.858 152.858 176.946 152.965 176.946C153.072 176.946 153.158 176.858 153.158 176.75V160.569Z" fill="#AAC986"/>
<path d="M113.946 155.949L113.946 155.949L135.268 141.217C135.307 141.191 135.352 141.177 135.398 141.177C135.444 141.177 135.49 141.191 135.528 141.217L156.762 155.888L156.762 155.888C156.794 155.909 156.82 155.939 156.838 155.973C156.856 156.008 156.865 156.047 156.865 156.086V157.522C156.865 157.553 156.853 157.582 156.832 157.603C156.811 157.625 156.784 157.636 156.755 157.636H113.953C113.924 157.636 113.897 157.625 113.876 157.603C113.855 157.582 113.843 157.553 113.843 157.522V156.148C113.843 156.108 113.852 156.069 113.87 156.035C113.888 156 113.914 155.971 113.946 155.949Z" fill="#F5FBF3" stroke="black" stroke-width="0.353191"/>
<path d="M119.389 155.356C119.381 155.347 119.374 155.338 119.369 155.327L119.448 155.288C119.448 155.287 119.447 155.286 119.447 155.285C119.446 155.283 119.446 155.282 119.446 155.281L119.358 155.293C119.357 155.281 119.357 155.269 119.359 155.258L119.446 155.273C119.446 155.272 119.447 155.27 119.447 155.269C119.448 155.268 119.448 155.267 119.449 155.266L119.371 155.224C119.376 155.214 119.383 155.204 119.392 155.196L119.453 155.26L119.456 155.258L119.456 155.258L119.74 155.061L119.69 154.988L120.259 154.595L120.309 154.668L120.878 154.275L120.828 154.202L121.397 153.809L121.447 153.882L122.016 153.489L121.965 153.416L122.534 153.023L122.585 153.096L123.153 152.703L123.103 152.63L123.672 152.237L123.722 152.31L124.291 151.917L124.241 151.844L124.81 151.451L124.86 151.524L125.429 151.131L125.379 151.058L125.948 150.665L125.998 150.738L126.567 150.345L126.516 150.272L127.085 149.879L127.135 149.952L127.704 149.558L127.654 149.486L128.223 149.093L128.273 149.165L128.842 148.772L128.792 148.7L129.361 148.307L129.411 148.379L129.98 147.986L129.93 147.914L130.498 147.521L130.549 147.593L131.117 147.2L131.067 147.128L131.636 146.735L131.686 146.807L132.255 146.414L132.205 146.341L132.774 145.948L132.824 146.021L133.393 145.628L133.343 145.555L133.912 145.162L133.962 145.235L134.531 144.842L134.48 144.769L135.049 144.376L135.1 144.449L135.384 144.252L135.384 144.252L135.387 144.251L135.348 144.171C135.358 144.167 135.368 144.163 135.379 144.162L135.393 144.249L135.396 144.249L135.399 144.249L135.412 144.162C135.423 144.163 135.434 144.167 135.444 144.171L135.405 144.251L135.408 144.252L135.408 144.252L135.692 144.449L135.742 144.376L136.311 144.769L136.261 144.842L136.83 145.235L136.88 145.162L137.449 145.555L137.399 145.628L137.968 146.021L138.018 145.948L138.587 146.341L138.536 146.414L139.105 146.807L139.156 146.735L139.724 147.128L139.674 147.2L140.243 147.593L140.293 147.521L140.862 147.914L140.812 147.986L141.381 148.379L141.431 148.307L142 148.7L141.95 148.772L142.519 149.165L142.569 149.093L143.138 149.486L143.088 149.558L143.656 149.952L143.707 149.879L144.276 150.272L144.225 150.345L144.794 150.738L144.844 150.665L145.413 151.058L145.363 151.131L145.932 151.524L145.982 151.451L146.551 151.844L146.501 151.917L147.07 152.31L147.12 152.237L147.689 152.63L147.639 152.703L148.208 153.096L148.258 153.023L148.827 153.416L148.776 153.489L149.345 153.882L149.395 153.809L149.964 154.202L149.914 154.275L150.483 154.668L150.533 154.595L151.102 154.988L151.052 155.061L151.336 155.258L151.336 155.258L151.339 155.26L151.4 155.196C151.409 155.204 151.416 155.214 151.422 155.224L151.344 155.266C151.344 155.267 151.345 155.268 151.345 155.269L151.345 155.269L119.389 155.356ZM119.389 155.356L119.452 155.294L119.455 155.297L119.455 155.297L119.458 155.299L119.417 155.377C119.427 155.382 119.439 155.386 119.45 155.388L119.464 155.301L119.468 155.301H119.468H119.814V155.389H120.506V155.301H121.199V155.389H121.892V155.301H122.584V155.389H123.277V155.301H123.969V155.389H124.662V155.301H125.354V155.389H126.047V155.301H126.739V155.389H127.432V155.301H128.124V155.389H128.817V155.301H129.509V155.389H130.202V155.301H130.895V155.389H131.587V155.301H132.28V155.389H132.972V155.301H133.665V155.389H134.357V155.301H135.05V155.389H135.742V155.301H136.435V155.389H137.127V155.301H137.82V155.389H138.513V155.301H139.205V155.389H139.898V155.301H140.59V155.389H141.283V155.301H141.975V155.389H142.668V155.301H143.36V155.389H144.053V155.301H144.745V155.389H145.438V155.301H146.13V155.389H146.823V155.301H147.516V155.389H148.208V155.301H148.901V155.389H149.593V155.301H150.286V155.389H150.978V155.301H151.324H151.325L151.328 155.301L151.342 155.388C151.354 155.386 151.365 155.382 151.375 155.377L151.334 155.299L151.337 155.297L151.34 155.294L151.403 155.356C151.411 155.347 151.418 155.338 151.423 155.327M119.389 155.356L151.423 155.327M151.433 155.258L151.346 155.273L151.433 155.258ZM151.433 155.258C151.435 155.269 151.435 155.281 151.434 155.293L151.346 155.281C151.346 155.282 151.346 155.283 151.345 155.285L151.433 155.258ZM151.423 155.327L151.344 155.288L151.423 155.327Z" fill="#D0E6BB" stroke="black" stroke-width="0.176596" stroke-dasharray="0.71 0.71"/>
<path d="M47.2462 204.738C47.5657 203.421 49.4392 203.421 49.7587 204.738C49.8066 204.936 49.9006 205.119 50.033 205.274C50.1653 205.429 50.3324 205.55 50.5204 205.628C50.7085 205.706 50.9123 205.738 51.1153 205.722C51.3182 205.707 51.5146 205.643 51.6884 205.537C52.8457 204.832 54.1709 206.157 53.4659 207.315C53.3601 207.488 53.2968 207.685 53.2811 207.888C53.2654 208.09 53.2978 208.294 53.3756 208.482C53.4534 208.67 53.5745 208.837 53.729 208.969C53.8835 209.102 54.067 209.196 54.2647 209.244C55.5817 209.563 55.5817 211.437 54.2647 211.756C54.0668 211.804 53.8831 211.898 53.7284 212.031C53.5738 212.163 53.4526 212.33 53.3746 212.518C53.2967 212.706 53.2643 212.91 53.28 213.113C53.2958 213.316 53.3592 213.512 53.4652 213.686C54.1702 214.843 52.8457 216.168 51.6877 215.463C51.514 215.358 51.3177 215.294 51.1149 215.279C50.912 215.263 50.7084 215.295 50.5204 215.373C50.3324 215.451 50.1655 215.572 50.0332 215.727C49.9008 215.881 49.8068 216.065 49.7587 216.262C49.4392 217.579 47.5657 217.579 47.2462 216.262C47.1983 216.064 47.1043 215.881 46.9719 215.726C46.8395 215.571 46.6725 215.45 46.4845 215.372C46.2964 215.294 46.0926 215.262 45.8896 215.278C45.6866 215.293 45.4903 215.357 45.3164 215.463C44.1592 216.168 42.8339 214.843 43.5389 213.685C43.6448 213.511 43.7081 213.315 43.7238 213.112C43.7395 212.91 43.7071 212.706 43.6293 212.518C43.5515 212.33 43.4304 212.163 43.2759 212.031C43.1214 211.898 42.9379 211.804 42.7402 211.756C41.4232 211.437 41.4232 209.563 42.7402 209.244C42.938 209.196 43.1218 209.102 43.2764 208.969C43.4311 208.837 43.5523 208.67 43.6303 208.482C43.7082 208.294 43.7406 208.09 43.7248 207.887C43.7091 207.684 43.6457 207.488 43.5397 207.314C42.8347 206.157 44.1592 204.831 45.3172 205.536C46.0672 205.992 47.0392 205.589 47.2462 204.738Z" stroke="#46AC34" stroke-width="1.05957" stroke-linecap="round" stroke-linejoin="round"/>
<path d="M48.5022 212C49.3307 212 50.0024 211.329 50.0024 210.5C50.0024 209.672 49.3307 209 48.5022 209C47.6736 209 47.002 209.672 47.002 210.5C47.002 211.329 47.6736 212 48.5022 212Z" stroke="#46AC34" stroke-width="1.05957" stroke-linecap="round" stroke-linejoin="round"/>
<path d="M38 209.135C38.3333 206.603 39.582 204.279 41.5123 202.597C43.4426 200.916 45.9221 199.992 48.4868 200C51.0515 200.008 53.5254 200.946 55.4456 202.639C57.3657 204.332 58.6004 206.664 58.9185 209.198C59.2367 211.732 58.6164 214.294 57.1738 216.406C55.7313 218.517 53.5653 220.033 51.0814 220.669C48.5976 221.305 45.966 221.018 43.6795 219.861" stroke="#46AC34" stroke-width="1.05957" stroke-linecap="round" stroke-linejoin="round"/>
<defs>
<filter id="filter0_d_1438_5578" x="21.3762" y="185" width="55.2476" height="55.2476" filterUnits="userSpaceOnUse" color-interpolation-filters="sRGB">
<feFlood flood-opacity="0" result="BackgroundImageFix"/>
<feColorMatrix in="SourceAlpha" type="matrix" values="0 0 0 0 0 0 0 0 0 0 0 0 0 0 0 0 0 0 127 0" result="hardAlpha"/>
<feOffset dy="1.62382"/>
<feGaussianBlur stdDeviation="0.811912"/>
<feComposite in2="hardAlpha" operator="out"/>
<feColorMatrix type="matrix" values="0 0 0 0 0 0 0 0 0 0 0 0 0 0 0 0 0 0 0.25 0"/>
<feBlend mode="normal" in2="BackgroundImageFix" result="effect1_dropShadow_1438_5578"/>
<feBlend mode="normal" in="SourceGraphic" in2="effect1_dropShadow_1438_5578" result="shape"/>
</filter>
<filter id="filter1_d_1438_5578" x="189.376" y="185" width="55.2476" height="55.2476" filterUnits="userSpaceOnUse" color-interpolation-filters="sRGB">
<feFlood flood-opacity="0" result="BackgroundImageFix"/>
<feColorMatrix in="SourceAlpha" type="matrix" values="0 0 0 0 0 0 0 0 0 0 0 0 0 0 0 0 0 0 127 0" result="hardAlpha"/>
<feOffset dy="1.62382"/>
<feGaussianBlur stdDeviation="0.811912"/>
<feComposite in2="hardAlpha" operator="out"/>
<feColorMatrix type="matrix" values="0 0 0 0 0 0 0 0 0 0 0 0 0 0 0 0 0 0 0.25 0"/>
<feBlend mode="normal" in2="BackgroundImageFix" result="effect1_dropShadow_1438_5578"/>
<feBlend mode="normal" in="SourceGraphic" in2="effect1_dropShadow_1438_5578" result="shape"/>
</filter>
<filter id="filter2_d_1438_5578" x="105.376" y="38" width="55.2476" height="55.2476" filterUnits="userSpaceOnUse" color-interpolation-filters="sRGB">
<feFlood flood-opacity="0" result="BackgroundImageFix"/>
<feColorMatrix in="SourceAlpha" type="matrix" values="0 0 0 0 0 0 0 0 0 0 0 0 0 0 0 0 0 0 127 0" result="hardAlpha"/>
<feOffset dy="1.62382"/>
<feGaussianBlur stdDeviation="0.811912"/>
<feComposite in2="hardAlpha" operator="out"/>
<feColorMatrix type="matrix" values="0 0 0 0 0 0 0 0 0 0 0 0 0 0 0 0 0 0 0.25 0"/>
<feBlend mode="normal" in2="BackgroundImageFix" result="effect1_dropShadow_1438_5578"/>
<feBlend mode="normal" in="SourceGraphic" in2="effect1_dropShadow_1438_5578" result="shape"/>
</filter>
</defs>
</svg>
