<svg width="277" height="303" viewBox="0 0 277 303" fill="none" xmlns="http://www.w3.org/2000/svg">
<path d="M134.628 78.7044L136.633 75.2357L137.066 75.4859L137.135 75.3676L137.203 75.4859L137.636 75.2357L139.641 78.7044L139.208 78.9546L140.211 80.689L140.644 80.4388L142.649 83.9075L142.216 84.1578L143.218 85.8921L143.651 85.6419L145.656 89.1107L145.224 89.3609L146.226 91.0953L146.659 90.845L148.664 94.3138L148.231 94.564L149.234 96.2984L149.667 96.0482L151.672 99.5169L151.239 99.7671L152.241 101.502L152.674 101.251L154.679 104.72L154.247 104.97L155.249 106.705L155.682 106.454L157.687 109.923L157.254 110.173L158.257 111.908L158.69 111.658L160.695 115.126L160.262 115.376L161.264 117.111L161.697 116.861L163.702 120.329L163.27 120.58L164.272 122.314L164.705 122.064L166.71 125.533L166.277 125.783L167.28 127.517L167.713 127.267L169.718 130.736L169.285 130.986L170.287 132.72L170.72 132.47L172.725 135.939L172.293 136.189L173.295 137.923L173.728 137.673L175.733 141.142L175.3 141.392L176.303 143.126L176.736 142.876L178.741 146.345L178.308 146.595L179.31 148.33L179.743 148.079L181.748 151.548L181.316 151.798L182.318 153.533L182.751 153.283L184.756 156.751L184.323 157.001L185.326 158.736L185.759 158.486L187.764 161.954L187.331 162.205L188.333 163.939L188.766 163.689L190.771 167.158L190.339 167.408L191.341 169.142L191.774 168.892L193.779 172.361L193.346 172.611L194.349 174.345L194.782 174.095L196.787 177.564L196.354 177.814L197.357 179.548L197.789 179.298L199.794 182.767L199.362 183.017L200.364 184.751L200.797 184.501L202.802 187.97L202.369 188.22L203.372 189.955L203.805 189.704L205.81 193.173L205.377 193.423L206.38 195.158L206.812 194.907L208.818 198.376L208.385 198.626L209.387 200.361L209.82 200.111L211.825 203.579L211.392 203.83L212.395 205.564L212.828 205.314L214.833 208.782L214.4 209.033L215.403 210.767L215.835 210.517L217.841 213.986L217.408 214.236L218.41 215.97L218.843 215.72L220.848 219.189L220.415 219.439L221.418 221.173L221.851 220.923L223.856 224.392L223.423 224.642L224.426 226.376L224.858 226.126L226.864 229.595L226.431 229.845L227.433 231.58L227.866 231.329L229.871 234.798L229.438 235.048L230.441 236.783L230.874 236.532L232.879 240.001L232.446 240.251L232.514 240.368H232.378V240.868H228.367V240.368H226.362V240.868H222.352V240.368H220.347V240.868H216.337V240.368H214.332V240.868H210.321V240.368H208.316V240.868H204.306V240.368H202.301V240.868H198.291V240.368H196.286V240.868H192.275V240.368H190.27V240.868H186.26V240.368H184.255V240.868H180.245V240.368H178.24V240.868H174.229V240.368H172.224V240.868H168.214V240.368H166.209V240.868H162.199V240.368H160.194V240.868H156.183V240.368H154.178V240.868H150.168V240.368H148.163V240.868H144.153V240.368H142.147V240.868H138.137V240.368H136.132V240.868H132.122V240.368H130.117V240.868H126.107V240.368H124.101V240.868H120.091V240.368H118.086V240.868H114.076V240.368H112.071V240.868H108.061V240.368H106.055V240.868H102.045V240.368H100.04V240.868H96.0299V240.368H94.0247V240.868H90.0145V240.368H88.0094V240.868H83.9992V240.368H81.9941V240.868H77.9838V240.368H75.9787V240.868H71.9685V240.368H69.9634V240.868H65.9531V240.368H63.948V240.868H59.9378V240.368H57.9327V240.868H53.9225V240.368H51.9174V240.868H47.9071V240.368H45.902V240.868H41.8918V240.368H41.7558L41.8234 240.251L41.3905 240.001L43.3956 236.532L43.8285 236.783L44.8311 235.048L44.3982 234.798L46.4033 231.329L46.8362 231.58L47.8387 229.845L47.4059 229.595L49.411 226.126L49.8439 226.376L50.8464 224.642L50.4135 224.392L52.4186 220.923L52.8515 221.173L53.8541 219.439L53.4212 219.189L55.4263 215.72L55.8592 215.97L56.8618 214.236L56.4289 213.986L58.434 210.517L58.8669 210.767L59.8694 209.033L59.4365 208.782L61.4416 205.314L61.8745 205.564L62.8771 203.83L62.4442 203.579L64.4493 200.111L64.8822 200.361L65.8848 198.626L65.4519 198.376L67.457 194.907L67.8899 195.158L68.8924 193.423L68.4596 193.173L70.4647 189.704L70.8975 189.955L71.9001 188.22L71.4672 187.97L73.4723 184.501L73.9052 184.751L74.9078 183.017L74.4749 182.767L76.48 179.298L76.9129 179.548L77.9154 177.814L77.4826 177.564L79.4877 174.095L79.9206 174.345L80.9231 172.611L80.4902 172.361L82.4953 168.892L82.9282 169.142L83.9308 167.408L83.4979 167.157L85.503 163.689L85.9359 163.939L86.9385 162.205L86.5056 161.954L88.5107 158.486L88.9436 158.736L89.9461 157.001L89.5132 156.751L91.5183 153.283L91.9512 153.533L92.9538 151.798L92.5209 151.548L94.526 148.079L94.9589 148.33L95.9615 146.595L95.5286 146.345L97.5337 142.876L97.9666 143.126L98.9691 141.392L98.5362 141.142L100.541 137.673L100.974 137.923L101.977 136.189L101.544 135.939L103.549 132.47L103.982 132.72L104.984 130.986L104.552 130.736L106.557 127.267L106.99 127.517L107.992 125.783L107.559 125.533L109.564 122.064L109.997 122.314L111 120.58L110.567 120.329L112.572 116.861L113.005 117.111L114.007 115.376L113.575 115.126L115.58 111.658L116.013 111.908L117.015 110.173L116.582 109.923L118.587 106.454L119.02 106.705L120.023 104.97L119.59 104.72L121.595 101.251L122.028 101.501L123.03 99.7671L122.598 99.5169L124.603 96.0481L125.036 96.2984L126.038 94.564L125.605 94.3138L127.61 90.845L128.043 91.0953L129.046 89.3609L128.613 89.1107L130.618 85.6419L131.051 85.8921L132.054 84.1578L131.621 83.9075L133.626 80.4388L134.059 80.689L135.061 78.9546L134.628 78.7044Z" stroke="#F1F1F1" stroke-dasharray="2 4"/>
<g filter="url(#filter0_d_1438_5517)">
<circle cx="53" cy="226.368" r="26" fill="#DFEFD4"/>
<ellipse opacity="0.7" cx="52.8703" cy="226.238" rx="0.13002" ry="0.13" fill="black"/>
</g>
<g filter="url(#filter1_d_1438_5517)">
<circle cx="221" cy="226.368" r="26" fill="#DFEFD4"/>
<ellipse opacity="0.7" cx="220.735" cy="225.782" rx="0.127726" ry="0.127707" fill="black"/>
</g>
<g filter="url(#filter2_d_1438_5517)">
<circle cx="137" cy="79.3684" r="26" fill="#DFEFD4"/>
<ellipse cx="136.87" cy="79.2384" rx="0.13002" ry="0.13" fill="black"/>
</g>
<path d="M14.6272 260.824H17.6152C18.9992 260.824 20.0712 261.196 20.8312 261.94C21.5912 262.684 21.9712 263.732 21.9712 265.084C21.9712 266.444 21.5912 267.5 20.8312 268.252C20.0712 268.996 18.9992 269.368 17.6152 269.368H14.6272V260.824ZM17.5432 268.336C19.6472 268.336 20.6992 267.252 20.6992 265.084C20.6992 262.932 19.6472 261.856 17.5432 261.856H15.8632V268.336H17.5432ZM28.9543 266.368H24.6343C24.6743 267.784 25.3183 268.492 26.5663 268.492C27.2623 268.492 27.8983 268.264 28.4743 267.808L28.8463 268.672C28.5743 268.912 28.2263 269.104 27.8023 269.248C27.3863 269.384 26.9663 269.452 26.5423 269.452C25.5743 269.452 24.8143 269.176 24.2623 268.624C23.7103 268.064 23.4343 267.3 23.4343 266.332C23.4343 265.716 23.5543 265.168 23.7943 264.688C24.0423 264.208 24.3863 263.836 24.8263 263.572C25.2663 263.308 25.7663 263.176 26.3263 263.176C27.1423 263.176 27.7823 263.44 28.2463 263.968C28.7183 264.496 28.9543 265.228 28.9543 266.164V266.368ZM26.3503 264.076C25.8943 264.076 25.5223 264.212 25.2343 264.484C24.9463 264.756 24.7623 265.144 24.6823 265.648H27.8863C27.8383 265.136 27.6823 264.748 27.4183 264.484C27.1543 264.212 26.7983 264.076 26.3503 264.076ZM33.2131 269.452C32.6051 269.452 32.0731 269.324 31.6171 269.068C31.1691 268.812 30.8251 268.452 30.5851 267.988C30.3451 267.516 30.2251 266.968 30.2251 266.344C30.2251 265.72 30.3491 265.168 30.5971 264.688C30.8531 264.208 31.2091 263.836 31.6651 263.572C32.1211 263.308 32.6531 263.176 33.2611 263.176C33.6851 263.176 34.0931 263.248 34.4851 263.392C34.8771 263.528 35.1931 263.716 35.4331 263.956L35.0611 264.832C34.4931 264.384 33.9211 264.16 33.3451 264.16C32.7611 264.16 32.3051 264.352 31.9771 264.736C31.6491 265.112 31.4851 265.644 31.4851 266.332C31.4851 267.02 31.6491 267.552 31.9771 267.928C32.3051 268.296 32.7611 268.48 33.3451 268.48C33.9371 268.48 34.5091 268.256 35.0611 267.808L35.4331 268.684C35.1771 268.924 34.8491 269.112 34.4491 269.248C34.0571 269.384 33.6451 269.452 33.2131 269.452ZM36.8134 260.536H38.0134V269.368H36.8134V260.536ZM45.286 263.32V269.368H44.11V268.36C43.918 268.712 43.654 268.984 43.318 269.176C42.982 269.36 42.602 269.452 42.178 269.452C40.722 269.452 39.994 268.644 39.994 267.028V263.32H41.194V267.016C41.194 267.512 41.294 267.88 41.494 268.12C41.702 268.352 42.014 268.468 42.43 268.468C42.926 268.468 43.322 268.308 43.618 267.988C43.922 267.668 44.074 267.244 44.074 266.716V263.32H45.286ZM48.8732 264.256V267.292C48.8732 267.708 48.9612 268.004 49.1372 268.18C49.3212 268.348 49.5732 268.432 49.8932 268.432C50.1012 268.432 50.3132 268.4 50.5292 268.336V269.32C50.2652 269.408 49.9652 269.452 49.6292 269.452C49.0052 269.452 48.5212 269.276 48.1772 268.924C47.8332 268.572 47.6612 268.06 47.6612 267.388V264.256H46.4852V263.32H47.6612V261.808L48.8732 261.388V263.32H50.5412V264.256H48.8732ZM53.4609 264.256V267.292C53.4609 267.708 53.5489 268.004 53.7249 268.18C53.9089 268.348 54.1609 268.432 54.4809 268.432C54.6889 268.432 54.9009 268.4 55.1169 268.336V269.32C54.8529 269.408 54.5529 269.452 54.2169 269.452C53.5929 269.452 53.1089 269.276 52.7649 268.924C52.4209 268.572 52.2489 268.06 52.2489 267.388V264.256H51.0729V263.32H52.2489V261.808L53.4609 261.388V263.32H55.1289V264.256H53.4609ZM61.6482 266.368H57.3282C57.3682 267.784 58.0122 268.492 59.2602 268.492C59.9562 268.492 60.5922 268.264 61.1682 267.808L61.5402 268.672C61.2682 268.912 60.9202 269.104 60.4962 269.248C60.0802 269.384 59.6602 269.452 59.2362 269.452C58.2682 269.452 57.5082 269.176 56.9562 268.624C56.4042 268.064 56.1282 267.3 56.1282 266.332C56.1282 265.716 56.2482 265.168 56.4882 264.688C56.7362 264.208 57.0802 263.836 57.5202 263.572C57.9602 263.308 58.4602 263.176 59.0202 263.176C59.8362 263.176 60.4762 263.44 60.9402 263.968C61.4122 264.496 61.6482 265.228 61.6482 266.164V266.368ZM59.0442 264.076C58.5882 264.076 58.2162 264.212 57.9282 264.484C57.6402 264.756 57.4562 265.144 57.3762 265.648H60.5802C60.5322 265.136 60.3762 264.748 60.1122 264.484C59.8482 264.212 59.4922 264.076 59.0442 264.076ZM66.291 263.176C66.475 263.176 66.667 263.204 66.867 263.26L66.843 264.364C66.627 264.284 66.391 264.244 66.135 264.244C65.583 264.244 65.167 264.412 64.887 264.748C64.615 265.076 64.479 265.492 64.479 265.996V269.368H63.279V265.024C63.279 264.392 63.247 263.824 63.183 263.32H64.311L64.419 264.412C64.579 264.012 64.827 263.708 65.163 263.5C65.499 263.284 65.875 263.176 66.291 263.176ZM73.0735 266.368H68.7535C68.7935 267.784 69.4375 268.492 70.6855 268.492C71.3815 268.492 72.0175 268.264 72.5935 267.808L72.9655 268.672C72.6935 268.912 72.3455 269.104 71.9215 269.248C71.5055 269.384 71.0855 269.452 70.6615 269.452C69.6935 269.452 68.9335 269.176 68.3815 268.624C67.8295 268.064 67.5535 267.3 67.5535 266.332C67.5535 265.716 67.6735 265.168 67.9135 264.688C68.1615 264.208 68.5055 263.836 68.9455 263.572C69.3855 263.308 69.8855 263.176 70.4455 263.176C71.2615 263.176 71.9015 263.44 72.3655 263.968C72.8375 264.496 73.0735 265.228 73.0735 266.164V266.368ZM70.4695 264.076C70.0135 264.076 69.6415 264.212 69.3535 264.484C69.0655 264.756 68.8815 265.144 68.8015 265.648H72.0055C71.9575 265.136 71.8015 264.748 71.5375 264.484C71.2735 264.212 70.9175 264.076 70.4695 264.076ZM80.2363 260.536V269.368H79.0363V268.336C78.8603 268.696 78.5963 268.972 78.2443 269.164C77.9003 269.356 77.4963 269.452 77.0323 269.452C76.5123 269.452 76.0483 269.32 75.6403 269.056C75.2323 268.792 74.9123 268.424 74.6803 267.952C74.4563 267.472 74.3443 266.92 74.3443 266.296C74.3443 265.672 74.4563 265.124 74.6803 264.652C74.9043 264.18 75.2163 263.816 75.6163 263.56C76.0243 263.304 76.4963 263.176 77.0323 263.176C77.4883 263.176 77.8883 263.272 78.2323 263.464C78.5843 263.656 78.8483 263.928 79.0243 264.28V260.536H80.2363ZM77.3083 268.492C77.8603 268.492 78.2843 268.304 78.5803 267.928C78.8843 267.544 79.0363 267.008 79.0363 266.32C79.0363 265.632 78.8843 265.1 78.5803 264.724C78.2843 264.34 77.8643 264.148 77.3203 264.148C76.7683 264.148 76.3363 264.336 76.0243 264.712C75.7203 265.088 75.5683 265.616 75.5683 266.296C75.5683 266.984 75.7203 267.524 76.0243 267.916C76.3363 268.3 76.7643 268.492 77.3083 268.492ZM26.0048 278.176C26.5248 278.176 26.9888 278.308 27.3968 278.572C27.8048 278.836 28.1208 279.208 28.3448 279.688C28.5768 280.168 28.6928 280.72 28.6928 281.344C28.6928 281.968 28.5808 282.516 28.3568 282.988C28.1328 283.452 27.8168 283.812 27.4088 284.068C27.0008 284.324 26.5328 284.452 26.0048 284.452C25.5408 284.452 25.1328 284.356 24.7808 284.164C24.4368 283.964 24.1768 283.68 24.0008 283.312V286.96H22.8008V280.024C22.8008 279.392 22.7688 278.824 22.7048 278.32H23.8328L23.9528 279.436C24.1128 279.036 24.3728 278.728 24.7328 278.512C25.0928 278.288 25.5168 278.176 26.0048 278.176ZM25.7288 283.492C26.2728 283.492 26.6968 283.304 27.0008 282.928C27.3048 282.552 27.4568 282.024 27.4568 281.344C27.4568 280.656 27.3048 280.12 27.0008 279.736C26.6968 279.344 26.2728 279.148 25.7288 279.148C25.1688 279.148 24.7408 279.336 24.4448 279.712C24.1488 280.088 24.0008 280.624 24.0008 281.32C24.0008 282.016 24.1488 282.552 24.4448 282.928C24.7488 283.304 25.1768 283.492 25.7288 283.492ZM35.8853 278.32V284.368H34.6853V283.336C34.5093 283.696 34.2453 283.972 33.8933 284.164C33.5493 284.356 33.1453 284.452 32.6813 284.452C32.1453 284.452 31.6733 284.324 31.2653 284.068C30.8653 283.812 30.5533 283.452 30.3293 282.988C30.1053 282.516 29.9933 281.968 29.9933 281.344C29.9933 280.72 30.1053 280.168 30.3293 279.688C30.5613 279.208 30.8813 278.836 31.2893 278.572C31.6973 278.308 32.1613 278.176 32.6813 278.176C33.1453 278.176 33.5493 278.276 33.8933 278.476C34.2373 278.668 34.5013 278.944 34.6853 279.304V278.32H35.8853ZM32.9693 283.492C33.5133 283.492 33.9333 283.304 34.2293 282.928C34.5333 282.544 34.6853 282.008 34.6853 281.32C34.6853 280.624 34.5333 280.088 34.2293 279.712C33.9333 279.336 33.5093 279.148 32.9573 279.148C32.4133 279.148 31.9853 279.344 31.6733 279.736C31.3693 280.12 31.2173 280.656 31.2173 281.344C31.2173 282.024 31.3693 282.552 31.6733 282.928C31.9853 283.304 32.4173 283.492 32.9693 283.492ZM43.4018 278.32L40.5818 284.86C40.2698 285.572 39.8778 286.092 39.4058 286.42C38.9418 286.756 38.3658 286.98 37.6778 287.092L37.4138 286.156C37.9818 286.028 38.4098 285.86 38.6978 285.652C38.9938 285.452 39.2298 285.148 39.4058 284.74L39.6218 284.236L37.0778 278.32H38.3618L40.2578 283L42.1898 278.32H43.4018ZM51.4794 278.176C52.8234 278.176 53.4954 278.984 53.4954 280.6V284.368H52.2834V280.66C52.2834 280.14 52.1914 279.76 52.0074 279.52C51.8314 279.28 51.5434 279.16 51.1434 279.16C50.6794 279.16 50.3114 279.32 50.0394 279.64C49.7754 279.96 49.6434 280.396 49.6434 280.948V284.368H48.4314V280.66C48.4314 280.14 48.3394 279.76 48.1554 279.52C47.9794 279.28 47.6914 279.16 47.2914 279.16C46.8274 279.16 46.4594 279.32 46.1874 279.64C45.9154 279.96 45.7794 280.396 45.7794 280.948V284.368H44.5794V280.024C44.5794 279.392 44.5474 278.824 44.4834 278.32H45.6114L45.7194 279.328C45.8954 278.96 46.1474 278.676 46.4754 278.476C46.8034 278.276 47.1874 278.176 47.6274 278.176C48.5634 278.176 49.1754 278.564 49.4634 279.34C49.6474 278.98 49.9154 278.696 50.2674 278.488C50.6274 278.28 51.0314 278.176 51.4794 278.176ZM60.6317 281.368H56.3117C56.3517 282.784 56.9957 283.492 58.2437 283.492C58.9397 283.492 59.5757 283.264 60.1517 282.808L60.5237 283.672C60.2517 283.912 59.9037 284.104 59.4797 284.248C59.0637 284.384 58.6437 284.452 58.2197 284.452C57.2517 284.452 56.4917 284.176 55.9397 283.624C55.3877 283.064 55.1117 282.3 55.1117 281.332C55.1117 280.716 55.2317 280.168 55.4717 279.688C55.7197 279.208 56.0637 278.836 56.5037 278.572C56.9437 278.308 57.4437 278.176 58.0037 278.176C58.8197 278.176 59.4597 278.44 59.9237 278.968C60.3957 279.496 60.6317 280.228 60.6317 281.164V281.368ZM58.0277 279.076C57.5717 279.076 57.1997 279.212 56.9117 279.484C56.6237 279.756 56.4397 280.144 56.3597 280.648H59.5637C59.5157 280.136 59.3597 279.748 59.0957 279.484C58.8317 279.212 58.4757 279.076 58.0277 279.076ZM65.4785 278.176C66.9265 278.176 67.6505 278.984 67.6505 280.6V284.368H66.4385V280.672C66.4385 280.144 66.3345 279.76 66.1265 279.52C65.9265 279.28 65.6025 279.16 65.1545 279.16C64.6425 279.16 64.2305 279.32 63.9185 279.64C63.6145 279.96 63.4625 280.388 63.4625 280.924V284.368H62.2625V280.024C62.2625 279.392 62.2305 278.824 62.1665 278.32H63.2945L63.4025 279.364C63.5945 278.98 63.8705 278.688 64.2305 278.488C64.5985 278.28 65.0145 278.176 65.4785 278.176ZM71.1878 279.256V282.292C71.1878 282.708 71.2758 283.004 71.4518 283.18C71.6358 283.348 71.8878 283.432 72.2078 283.432C72.4158 283.432 72.6278 283.4 72.8438 283.336V284.32C72.5798 284.408 72.2798 284.452 71.9438 284.452C71.3198 284.452 70.8358 284.276 70.4918 283.924C70.1478 283.572 69.9758 283.06 69.9758 282.388V279.256H68.7998V278.32H69.9758V276.808L71.1878 276.388V278.32H72.8558V279.256H71.1878ZM24.3623 299.452C23.3063 299.452 22.4743 299.196 21.8663 298.684L22.2263 297.808C22.8583 298.288 23.5823 298.528 24.3983 298.528C24.8143 298.528 25.1303 298.46 25.3463 298.324C25.5623 298.18 25.6703 297.98 25.6703 297.724C25.6703 297.508 25.5943 297.34 25.4423 297.22C25.2983 297.092 25.0503 296.984 24.6983 296.896L23.6903 296.656C23.1623 296.544 22.7583 296.348 22.4783 296.068C22.2063 295.78 22.0703 295.424 22.0703 295C22.0703 294.456 22.2863 294.016 22.7183 293.68C23.1583 293.344 23.7383 293.176 24.4583 293.176C24.8903 293.176 25.2983 293.244 25.6823 293.38C26.0743 293.516 26.4063 293.708 26.6783 293.956L26.3063 294.808C25.7223 294.344 25.1063 294.112 24.4583 294.112C24.0663 294.112 23.7623 294.188 23.5463 294.34C23.3303 294.484 23.2223 294.688 23.2223 294.952C23.2223 295.16 23.2903 295.328 23.4263 295.456C23.5623 295.584 23.7783 295.684 24.0743 295.756L25.1063 296.008C25.6823 296.136 26.1063 296.34 26.3783 296.62C26.6583 296.892 26.7983 297.248 26.7983 297.688C26.7983 298.232 26.5783 298.664 26.1383 298.984C25.7063 299.296 25.1143 299.452 24.3623 299.452ZM31.0708 299.452C30.4788 299.452 29.9588 299.324 29.5108 299.068C29.0628 298.812 28.7148 298.448 28.4668 297.976C28.2268 297.504 28.1068 296.952 28.1068 296.32C28.1068 295.688 28.2268 295.136 28.4668 294.664C28.7148 294.184 29.0628 293.816 29.5108 293.56C29.9588 293.304 30.4788 293.176 31.0708 293.176C31.6548 293.176 32.1708 293.304 32.6188 293.56C33.0668 293.816 33.4108 294.184 33.6508 294.664C33.8988 295.136 34.0228 295.688 34.0228 296.32C34.0228 296.952 33.8988 297.504 33.6508 297.976C33.4108 298.448 33.0668 298.812 32.6188 299.068C32.1708 299.324 31.6548 299.452 31.0708 299.452ZM31.0588 298.492C31.6188 298.492 32.0468 298.308 32.3428 297.94C32.6388 297.572 32.7868 297.032 32.7868 296.32C32.7868 295.624 32.6348 295.088 32.3308 294.712C32.0348 294.336 31.6148 294.148 31.0708 294.148C30.5188 294.148 30.0908 294.336 29.7868 294.712C29.4828 295.088 29.3308 295.624 29.3308 296.32C29.3308 297.032 29.4788 297.572 29.7748 297.94C30.0788 298.308 30.5068 298.492 31.0588 298.492ZM35.6795 290.536H36.8795V299.368H35.6795V290.536ZM44.152 293.32V299.368H42.976V298.36C42.784 298.712 42.52 298.984 42.184 299.176C41.848 299.36 41.468 299.452 41.044 299.452C39.588 299.452 38.86 298.644 38.86 297.028V293.32H40.06V297.016C40.06 297.512 40.16 297.88 40.36 298.12C40.568 298.352 40.88 298.468 41.296 298.468C41.792 298.468 42.188 298.308 42.484 297.988C42.788 297.668 42.94 297.244 42.94 296.716V293.32H44.152ZM47.7393 294.256V297.292C47.7393 297.708 47.8273 298.004 48.0033 298.18C48.1873 298.348 48.4393 298.432 48.7593 298.432C48.9673 298.432 49.1793 298.4 49.3953 298.336V299.32C49.1313 299.408 48.8313 299.452 48.4953 299.452C47.8713 299.452 47.3873 299.276 47.0433 298.924C46.6993 298.572 46.5273 298.06 46.5273 297.388V294.256H45.3513V293.32H46.5273V291.808L47.7393 291.388V293.32H49.4073V294.256H47.7393ZM50.7667 293.32H51.9667V299.368H50.7667V293.32ZM52.0627 290.68V291.952H50.6587V290.68H52.0627ZM56.5872 299.452C55.9952 299.452 55.4752 299.324 55.0272 299.068C54.5792 298.812 54.2312 298.448 53.9832 297.976C53.7432 297.504 53.6232 296.952 53.6232 296.32C53.6232 295.688 53.7432 295.136 53.9832 294.664C54.2312 294.184 54.5792 293.816 55.0272 293.56C55.4752 293.304 55.9952 293.176 56.5872 293.176C57.1712 293.176 57.6872 293.304 58.1352 293.56C58.5832 293.816 58.9272 294.184 59.1672 294.664C59.4152 295.136 59.5392 295.688 59.5392 296.32C59.5392 296.952 59.4152 297.504 59.1672 297.976C58.9272 298.448 58.5832 298.812 58.1352 299.068C57.6872 299.324 57.1712 299.452 56.5872 299.452ZM56.5752 298.492C57.1352 298.492 57.5632 298.308 57.8592 297.94C58.1552 297.572 58.3032 297.032 58.3032 296.32C58.3032 295.624 58.1512 295.088 57.8472 294.712C57.5512 294.336 57.1312 294.148 56.5872 294.148C56.0352 294.148 55.6072 294.336 55.3032 294.712C54.9992 295.088 54.8472 295.624 54.8472 296.32C54.8472 297.032 54.9952 297.572 55.2912 297.94C55.5952 298.308 56.0232 298.492 56.5752 298.492ZM64.4119 293.176C65.8599 293.176 66.5839 293.984 66.5839 295.6V299.368H65.3719V295.672C65.3719 295.144 65.2679 294.76 65.0599 294.52C64.8599 294.28 64.5359 294.16 64.0879 294.16C63.5759 294.16 63.1639 294.32 62.8519 294.64C62.5479 294.96 62.3959 295.388 62.3959 295.924V299.368H61.1959V295.024C61.1959 294.392 61.1639 293.824 61.0999 293.32H62.2279L62.3359 294.364C62.5279 293.98 62.8039 293.688 63.1639 293.488C63.5319 293.28 63.9479 293.176 64.4119 293.176ZM70.6612 299.452C69.6052 299.452 68.7732 299.196 68.1652 298.684L68.5252 297.808C69.1572 298.288 69.8812 298.528 70.6972 298.528C71.1132 298.528 71.4292 298.46 71.6452 298.324C71.8612 298.18 71.9692 297.98 71.9692 297.724C71.9692 297.508 71.8932 297.34 71.7412 297.22C71.5972 297.092 71.3492 296.984 70.9972 296.896L69.9892 296.656C69.4612 296.544 69.0572 296.348 68.7772 296.068C68.5052 295.78 68.3692 295.424 68.3692 295C68.3692 294.456 68.5852 294.016 69.0172 293.68C69.4572 293.344 70.0372 293.176 70.7572 293.176C71.1892 293.176 71.5972 293.244 71.9812 293.38C72.3732 293.516 72.7052 293.708 72.9772 293.956L72.6052 294.808C72.0212 294.344 71.4052 294.112 70.7572 294.112C70.3652 294.112 70.0612 294.188 69.8452 294.34C69.6292 294.484 69.5212 294.688 69.5212 294.952C69.5212 295.16 69.5892 295.328 69.7252 295.456C69.8612 295.584 70.0772 295.684 70.3732 295.756L71.4052 296.008C71.9812 296.136 72.4052 296.34 72.6772 296.62C72.9572 296.892 73.0972 297.248 73.0972 297.688C73.0972 298.232 72.8772 298.664 72.4372 298.984C72.0052 299.296 71.4132 299.452 70.6612 299.452Z" fill="#ABABAB"/>
<path d="M59.4652 219.545H52.3105H54.2618C54.9518 219.545 55.6136 219.822 56.1015 220.315C56.5894 220.808 56.8635 221.476 56.8635 222.173C56.8635 222.871 56.5894 223.539 56.1015 224.032C55.6136 224.525 54.9518 224.802 54.2618 224.802H52.3105L56.2131 228.744" stroke="#46AC34" stroke-width="1.21787" stroke-linecap="round" stroke-linejoin="round"/>
<path d="M52.3105 222.1H59.4652" stroke="#46AC34" stroke-width="1.21787" stroke-linecap="round" stroke-linejoin="round"/>
<path d="M60.997 216.479H50.776C49.3647 216.479 48.2207 217.623 48.2207 219.034V229.255C48.2207 230.666 49.3647 231.81 50.776 231.81H60.997C62.4082 231.81 63.5522 230.666 63.5522 229.255V219.034C63.5522 217.623 62.4082 216.479 60.997 216.479Z" stroke="#46AC34" stroke-width="1.21787" stroke-linecap="round" stroke-linejoin="round"/>
<path d="M58.4409 231.81V234.366C58.4409 235.043 58.1717 235.693 57.6925 236.173C57.2133 236.652 56.5633 236.921 55.8856 236.921H45.6646C44.9869 236.921 44.337 236.652 43.8578 236.173C43.3786 235.693 43.1094 235.043 43.1094 234.366V224.145C43.1094 223.467 43.3786 222.817 43.8578 222.338C44.337 221.859 44.9869 221.589 45.6646 221.589H48.2199" stroke="#46AC34" stroke-width="1.21787" stroke-linecap="round" stroke-linejoin="round"/>
<path d="M205.371 269.464C204.547 269.464 203.827 269.288 203.211 268.936C202.603 268.576 202.135 268.068 201.807 267.412C201.479 266.756 201.315 265.98 201.315 265.084C201.315 264.196 201.479 263.424 201.807 262.768C202.135 262.112 202.603 261.608 203.211 261.256C203.827 260.904 204.547 260.728 205.371 260.728C205.955 260.728 206.495 260.82 206.991 261.004C207.495 261.18 207.919 261.44 208.263 261.784L207.831 262.696C207.431 262.368 207.035 262.132 206.643 261.988C206.259 261.836 205.839 261.76 205.383 261.76C204.495 261.76 203.807 262.048 203.319 262.624C202.839 263.2 202.599 264.02 202.599 265.084C202.599 266.156 202.839 266.984 203.319 267.568C203.807 268.144 204.495 268.432 205.383 268.432C205.839 268.432 206.259 268.36 206.643 268.216C207.035 268.064 207.431 267.824 207.831 267.496L208.263 268.408C207.919 268.752 207.495 269.016 206.991 269.2C206.495 269.376 205.955 269.464 205.371 269.464ZM215.089 263.32V269.368H213.913V268.36C213.721 268.712 213.457 268.984 213.121 269.176C212.785 269.36 212.405 269.452 211.981 269.452C210.525 269.452 209.797 268.644 209.797 267.028V263.32H210.997V267.016C210.997 267.512 211.097 267.88 211.297 268.12C211.505 268.352 211.817 268.468 212.233 268.468C212.729 268.468 213.125 268.308 213.421 267.988C213.725 267.668 213.877 267.244 213.877 266.716V263.32H215.089ZM219.216 269.452C218.16 269.452 217.328 269.196 216.72 268.684L217.08 267.808C217.712 268.288 218.436 268.528 219.252 268.528C219.668 268.528 219.984 268.46 220.2 268.324C220.416 268.18 220.524 267.98 220.524 267.724C220.524 267.508 220.448 267.34 220.296 267.22C220.152 267.092 219.904 266.984 219.552 266.896L218.544 266.656C218.016 266.544 217.612 266.348 217.332 266.068C217.06 265.78 216.924 265.424 216.924 265C216.924 264.456 217.14 264.016 217.572 263.68C218.012 263.344 218.592 263.176 219.312 263.176C219.744 263.176 220.152 263.244 220.536 263.38C220.928 263.516 221.26 263.708 221.532 263.956L221.16 264.808C220.576 264.344 219.96 264.112 219.312 264.112C218.92 264.112 218.616 264.188 218.4 264.34C218.184 264.484 218.076 264.688 218.076 264.952C218.076 265.16 218.144 265.328 218.28 265.456C218.416 265.584 218.632 265.684 218.928 265.756L219.96 266.008C220.536 266.136 220.96 266.34 221.232 266.62C221.512 266.892 221.652 267.248 221.652 267.688C221.652 268.232 221.432 268.664 220.992 268.984C220.56 269.296 219.968 269.452 219.216 269.452ZM224.834 264.256V267.292C224.834 267.708 224.922 268.004 225.098 268.18C225.282 268.348 225.534 268.432 225.854 268.432C226.062 268.432 226.274 268.4 226.49 268.336V269.32C226.226 269.408 225.926 269.452 225.59 269.452C224.966 269.452 224.482 269.276 224.138 268.924C223.794 268.572 223.622 268.06 223.622 267.388V264.256H222.446V263.32H223.622V261.808L224.834 261.388V263.32H226.502V264.256H224.834ZM230.466 269.452C229.874 269.452 229.354 269.324 228.906 269.068C228.458 268.812 228.11 268.448 227.862 267.976C227.622 267.504 227.502 266.952 227.502 266.32C227.502 265.688 227.622 265.136 227.862 264.664C228.11 264.184 228.458 263.816 228.906 263.56C229.354 263.304 229.874 263.176 230.466 263.176C231.05 263.176 231.566 263.304 232.014 263.56C232.462 263.816 232.806 264.184 233.046 264.664C233.294 265.136 233.418 265.688 233.418 266.32C233.418 266.952 233.294 267.504 233.046 267.976C232.806 268.448 232.462 268.812 232.014 269.068C231.566 269.324 231.05 269.452 230.466 269.452ZM230.454 268.492C231.014 268.492 231.442 268.308 231.738 267.94C232.034 267.572 232.182 267.032 232.182 266.32C232.182 265.624 232.03 265.088 231.726 264.712C231.43 264.336 231.01 264.148 230.466 264.148C229.914 264.148 229.486 264.336 229.182 264.712C228.878 265.088 228.726 265.624 228.726 266.32C228.726 267.032 228.874 267.572 229.17 267.94C229.474 268.308 229.902 268.492 230.454 268.492ZM241.974 263.176C243.318 263.176 243.99 263.984 243.99 265.6V269.368H242.778V265.66C242.778 265.14 242.686 264.76 242.502 264.52C242.326 264.28 242.038 264.16 241.638 264.16C241.174 264.16 240.806 264.32 240.534 264.64C240.27 264.96 240.138 265.396 240.138 265.948V269.368H238.926V265.66C238.926 265.14 238.834 264.76 238.65 264.52C238.474 264.28 238.186 264.16 237.786 264.16C237.322 264.16 236.954 264.32 236.682 264.64C236.41 264.96 236.274 265.396 236.274 265.948V269.368H235.074V265.024C235.074 264.392 235.042 263.824 234.978 263.32H236.106L236.214 264.328C236.39 263.96 236.642 263.676 236.97 263.476C237.298 263.276 237.682 263.176 238.122 263.176C239.058 263.176 239.67 263.564 239.958 264.34C240.142 263.98 240.41 263.696 240.762 263.488C241.122 263.28 241.526 263.176 241.974 263.176ZM251.127 266.368H246.807C246.847 267.784 247.491 268.492 248.739 268.492C249.435 268.492 250.071 268.264 250.647 267.808L251.019 268.672C250.747 268.912 250.399 269.104 249.975 269.248C249.559 269.384 249.139 269.452 248.715 269.452C247.747 269.452 246.987 269.176 246.435 268.624C245.883 268.064 245.607 267.3 245.607 266.332C245.607 265.716 245.727 265.168 245.967 264.688C246.215 264.208 246.559 263.836 246.999 263.572C247.439 263.308 247.939 263.176 248.499 263.176C249.315 263.176 249.955 263.44 250.419 263.968C250.891 264.496 251.127 265.228 251.127 266.164V266.368ZM248.523 264.076C248.067 264.076 247.695 264.212 247.407 264.484C247.119 264.756 246.935 265.144 246.855 265.648H250.059C250.011 265.136 249.855 264.748 249.591 264.484C249.327 264.212 248.971 264.076 248.523 264.076ZM255.769 263.176C255.953 263.176 256.145 263.204 256.345 263.26L256.321 264.364C256.105 264.284 255.869 264.244 255.613 264.244C255.061 264.244 254.645 264.412 254.365 264.748C254.093 265.076 253.957 265.492 253.957 265.996V269.368H252.757V265.024C252.757 264.392 252.725 263.824 252.661 263.32H253.789L253.897 264.412C254.057 264.012 254.305 263.708 254.641 263.5C254.977 263.284 255.353 263.176 255.769 263.176ZM193.905 278.176C194.089 278.176 194.281 278.204 194.481 278.26L194.457 279.364C194.241 279.284 194.005 279.244 193.749 279.244C193.197 279.244 192.781 279.412 192.501 279.748C192.229 280.076 192.093 280.492 192.093 280.996V284.368H190.893V280.024C190.893 279.392 190.861 278.824 190.797 278.32H191.925L192.033 279.412C192.193 279.012 192.441 278.708 192.777 278.5C193.113 278.284 193.489 278.176 193.905 278.176ZM200.688 281.368H196.368C196.408 282.784 197.052 283.492 198.3 283.492C198.996 283.492 199.632 283.264 200.208 282.808L200.58 283.672C200.308 283.912 199.96 284.104 199.536 284.248C199.12 284.384 198.7 284.452 198.276 284.452C197.308 284.452 196.548 284.176 195.996 283.624C195.444 283.064 195.168 282.3 195.168 281.332C195.168 280.716 195.288 280.168 195.528 279.688C195.776 279.208 196.12 278.836 196.56 278.572C197 278.308 197.5 278.176 198.06 278.176C198.876 278.176 199.516 278.44 199.98 278.968C200.452 279.496 200.688 280.228 200.688 281.164V281.368ZM198.084 279.076C197.628 279.076 197.256 279.212 196.968 279.484C196.68 279.756 196.496 280.144 196.416 280.648H199.62C199.572 280.136 199.416 279.748 199.152 279.484C198.888 279.212 198.532 279.076 198.084 279.076ZM204.947 284.452C204.339 284.452 203.807 284.324 203.351 284.068C202.903 283.812 202.559 283.452 202.319 282.988C202.079 282.516 201.959 281.968 201.959 281.344C201.959 280.72 202.083 280.168 202.331 279.688C202.587 279.208 202.943 278.836 203.399 278.572C203.855 278.308 204.387 278.176 204.995 278.176C205.419 278.176 205.827 278.248 206.219 278.392C206.611 278.528 206.927 278.716 207.167 278.956L206.795 279.832C206.227 279.384 205.655 279.16 205.079 279.16C204.495 279.16 204.039 279.352 203.711 279.736C203.383 280.112 203.219 280.644 203.219 281.332C203.219 282.02 203.383 282.552 203.711 282.928C204.039 283.296 204.495 283.48 205.079 283.48C205.671 283.48 206.243 283.256 206.795 282.808L207.167 283.684C206.911 283.924 206.583 284.112 206.183 284.248C205.791 284.384 205.379 284.452 204.947 284.452ZM211.151 284.452C210.559 284.452 210.039 284.324 209.591 284.068C209.143 283.812 208.795 283.448 208.547 282.976C208.307 282.504 208.187 281.952 208.187 281.32C208.187 280.688 208.307 280.136 208.547 279.664C208.795 279.184 209.143 278.816 209.591 278.56C210.039 278.304 210.559 278.176 211.151 278.176C211.735 278.176 212.251 278.304 212.699 278.56C213.147 278.816 213.491 279.184 213.731 279.664C213.979 280.136 214.103 280.688 214.103 281.32C214.103 281.952 213.979 282.504 213.731 282.976C213.491 283.448 213.147 283.812 212.699 284.068C212.251 284.324 211.735 284.452 211.151 284.452ZM211.139 283.492C211.699 283.492 212.127 283.308 212.423 282.94C212.719 282.572 212.867 282.032 212.867 281.32C212.867 280.624 212.715 280.088 212.411 279.712C212.115 279.336 211.695 279.148 211.151 279.148C210.599 279.148 210.171 279.336 209.867 279.712C209.563 280.088 209.411 280.624 209.411 281.32C209.411 282.032 209.559 282.572 209.855 282.94C210.159 283.308 210.587 283.492 211.139 283.492ZM221.34 278.32V284.26C221.34 285.18 221.096 285.872 220.608 286.336C220.128 286.808 219.412 287.044 218.46 287.044C217.54 287.044 216.736 286.844 216.048 286.444L216.252 285.496C216.628 285.696 216.988 285.844 217.332 285.94C217.684 286.036 218.056 286.084 218.448 286.084C219.576 286.084 220.14 285.508 220.14 284.356V283.048C219.956 283.4 219.688 283.68 219.336 283.888C218.984 284.088 218.576 284.188 218.112 284.188C217.584 284.188 217.112 284.064 216.696 283.816C216.288 283.568 215.968 283.216 215.736 282.76C215.512 282.304 215.4 281.78 215.4 281.188C215.4 280.596 215.512 280.072 215.736 279.616C215.968 279.16 216.288 278.808 216.696 278.56C217.112 278.304 217.584 278.176 218.112 278.176C218.576 278.176 218.984 278.276 219.336 278.476C219.688 278.668 219.956 278.944 220.14 279.304V278.32H221.34ZM218.388 283.216C218.932 283.216 219.36 283.036 219.672 282.676C219.984 282.316 220.14 281.82 220.14 281.188C220.14 280.556 219.984 280.06 219.672 279.7C219.368 279.332 218.94 279.148 218.388 279.148C217.844 279.148 217.412 279.332 217.092 279.7C216.78 280.06 216.624 280.556 216.624 281.188C216.624 281.812 216.78 282.308 217.092 282.676C217.412 283.036 217.844 283.216 218.388 283.216ZM226.575 278.176C228.023 278.176 228.747 278.984 228.747 280.6V284.368H227.535V280.672C227.535 280.144 227.431 279.76 227.223 279.52C227.023 279.28 226.699 279.16 226.251 279.16C225.739 279.16 225.327 279.32 225.015 279.64C224.711 279.96 224.559 280.388 224.559 280.924V284.368H223.359V280.024C223.359 279.392 223.327 278.824 223.263 278.32H224.391L224.499 279.364C224.691 278.98 224.967 278.688 225.327 278.488C225.695 278.28 226.111 278.176 226.575 278.176ZM230.712 278.32H231.912V284.368H230.712V278.32ZM232.008 275.68V276.952H230.604V275.68H232.008ZM235.501 279.256V282.292C235.501 282.708 235.589 283.004 235.765 283.18C235.949 283.348 236.201 283.432 236.521 283.432C236.729 283.432 236.941 283.4 237.157 283.336V284.32C236.893 284.408 236.593 284.452 236.257 284.452C235.633 284.452 235.149 284.276 234.805 283.924C234.461 283.572 234.289 283.06 234.289 282.388V279.256H233.113V278.32H234.289V276.808L235.501 276.388V278.32H237.169V279.256H235.501ZM238.528 278.32H239.728V284.368H238.528V278.32ZM239.824 275.68V276.952H238.42V275.68H239.824ZM244.349 284.452C243.757 284.452 243.237 284.324 242.789 284.068C242.341 283.812 241.993 283.448 241.745 282.976C241.505 282.504 241.385 281.952 241.385 281.32C241.385 280.688 241.505 280.136 241.745 279.664C241.993 279.184 242.341 278.816 242.789 278.56C243.237 278.304 243.757 278.176 244.349 278.176C244.933 278.176 245.449 278.304 245.897 278.56C246.345 278.816 246.689 279.184 246.929 279.664C247.177 280.136 247.301 280.688 247.301 281.32C247.301 281.952 247.177 282.504 246.929 282.976C246.689 283.448 246.345 283.812 245.897 284.068C245.449 284.324 244.933 284.452 244.349 284.452ZM244.337 283.492C244.897 283.492 245.325 283.308 245.621 282.94C245.917 282.572 246.065 282.032 246.065 281.32C246.065 280.624 245.913 280.088 245.609 279.712C245.313 279.336 244.893 279.148 244.349 279.148C243.797 279.148 243.369 279.336 243.065 279.712C242.761 280.088 242.609 280.624 242.609 281.32C242.609 282.032 242.757 282.572 243.053 282.94C243.357 283.308 243.785 283.492 244.337 283.492ZM252.173 278.176C253.621 278.176 254.345 278.984 254.345 280.6V284.368H253.133V280.672C253.133 280.144 253.029 279.76 252.821 279.52C252.621 279.28 252.297 279.16 251.849 279.16C251.337 279.16 250.925 279.32 250.613 279.64C250.309 279.96 250.157 280.388 250.157 280.924V284.368H248.957V280.024C248.957 279.392 248.925 278.824 248.861 278.32H249.989L250.097 279.364C250.289 278.98 250.565 278.688 250.925 278.488C251.293 278.28 251.709 278.176 252.173 278.176ZM266.542 284.476C265.886 284.212 265.314 283.848 264.826 283.384C264.482 283.728 264.09 283.992 263.65 284.176C263.218 284.36 262.754 284.452 262.258 284.452C261.698 284.452 261.202 284.36 260.77 284.176C260.346 283.984 260.014 283.716 259.774 283.372C259.542 283.028 259.426 282.632 259.426 282.184C259.426 281.664 259.574 281.2 259.87 280.792C260.174 280.384 260.662 279.988 261.334 279.604C260.982 279.212 260.73 278.872 260.578 278.584C260.434 278.288 260.362 277.984 260.362 277.672C260.362 277.096 260.566 276.632 260.974 276.28C261.382 275.92 261.914 275.74 262.57 275.74C263.186 275.74 263.674 275.9 264.034 276.22C264.402 276.54 264.586 276.972 264.586 277.516C264.586 277.948 264.458 278.332 264.202 278.668C263.946 279.004 263.51 279.364 262.894 279.748L264.766 281.788C265.118 281.092 265.31 280.264 265.342 279.304H266.386C266.338 280.584 266.034 281.672 265.474 282.568C265.938 283.024 266.506 283.384 267.178 283.648L266.542 284.476ZM262.582 276.616C262.262 276.616 262.002 276.712 261.802 276.904C261.602 277.096 261.502 277.348 261.502 277.66C261.502 277.868 261.554 278.072 261.658 278.272C261.77 278.464 261.974 278.732 262.27 279.076C262.758 278.78 263.094 278.524 263.278 278.308C263.462 278.084 263.554 277.84 263.554 277.576C263.554 277.288 263.466 277.056 263.29 276.88C263.114 276.704 262.878 276.616 262.582 276.616ZM262.294 283.504C263.006 283.504 263.626 283.228 264.154 282.676L261.958 280.288C261.478 280.592 261.134 280.884 260.926 281.164C260.718 281.444 260.614 281.764 260.614 282.124C260.614 282.54 260.766 282.876 261.07 283.132C261.374 283.38 261.782 283.504 262.294 283.504ZM191.532 299.452C190.476 299.452 189.644 299.196 189.036 298.684L189.396 297.808C190.028 298.288 190.752 298.528 191.568 298.528C191.984 298.528 192.3 298.46 192.516 298.324C192.732 298.18 192.84 297.98 192.84 297.724C192.84 297.508 192.764 297.34 192.612 297.22C192.468 297.092 192.22 296.984 191.868 296.896L190.86 296.656C190.332 296.544 189.928 296.348 189.648 296.068C189.376 295.78 189.24 295.424 189.24 295C189.24 294.456 189.456 294.016 189.888 293.68C190.328 293.344 190.908 293.176 191.628 293.176C192.06 293.176 192.468 293.244 192.852 293.38C193.244 293.516 193.576 293.708 193.848 293.956L193.476 294.808C192.892 294.344 192.276 294.112 191.628 294.112C191.236 294.112 190.932 294.188 190.716 294.34C190.5 294.484 190.392 294.688 190.392 294.952C190.392 295.16 190.46 295.328 190.596 295.456C190.732 295.584 190.948 295.684 191.244 295.756L192.276 296.008C192.852 296.136 193.276 296.34 193.548 296.62C193.828 296.892 193.968 297.248 193.968 297.688C193.968 298.232 193.748 298.664 193.308 298.984C192.876 299.296 192.284 299.452 191.532 299.452ZM200.796 296.368H196.476C196.516 297.784 197.16 298.492 198.408 298.492C199.104 298.492 199.74 298.264 200.316 297.808L200.688 298.672C200.416 298.912 200.068 299.104 199.644 299.248C199.228 299.384 198.808 299.452 198.384 299.452C197.416 299.452 196.656 299.176 196.104 298.624C195.552 298.064 195.276 297.3 195.276 296.332C195.276 295.716 195.396 295.168 195.636 294.688C195.884 294.208 196.228 293.836 196.668 293.572C197.108 293.308 197.608 293.176 198.168 293.176C198.984 293.176 199.624 293.44 200.088 293.968C200.56 294.496 200.796 295.228 200.796 296.164V296.368ZM198.192 294.076C197.736 294.076 197.364 294.212 197.076 294.484C196.788 294.756 196.604 295.144 196.524 295.648H199.728C199.68 295.136 199.524 294.748 199.26 294.484C198.996 294.212 198.64 294.076 198.192 294.076ZM208.007 293.32V299.26C208.007 300.18 207.763 300.872 207.275 301.336C206.795 301.808 206.079 302.044 205.127 302.044C204.207 302.044 203.403 301.844 202.715 301.444L202.919 300.496C203.295 300.696 203.655 300.844 203.999 300.94C204.351 301.036 204.723 301.084 205.115 301.084C206.243 301.084 206.807 300.508 206.807 299.356V298.048C206.623 298.4 206.355 298.68 206.003 298.888C205.651 299.088 205.243 299.188 204.779 299.188C204.251 299.188 203.779 299.064 203.363 298.816C202.955 298.568 202.635 298.216 202.403 297.76C202.179 297.304 202.067 296.78 202.067 296.188C202.067 295.596 202.179 295.072 202.403 294.616C202.635 294.16 202.955 293.808 203.363 293.56C203.779 293.304 204.251 293.176 204.779 293.176C205.243 293.176 205.651 293.276 206.003 293.476C206.355 293.668 206.623 293.944 206.807 294.304V293.32H208.007ZM205.055 298.216C205.599 298.216 206.027 298.036 206.339 297.676C206.651 297.316 206.807 296.82 206.807 296.188C206.807 295.556 206.651 295.06 206.339 294.7C206.035 294.332 205.607 294.148 205.055 294.148C204.511 294.148 204.079 294.332 203.759 294.7C203.447 295.06 203.291 295.556 203.291 296.188C203.291 296.812 203.447 297.308 203.759 297.676C204.079 298.036 204.511 298.216 205.055 298.216ZM216.926 293.176C218.27 293.176 218.942 293.984 218.942 295.6V299.368H217.73V295.66C217.73 295.14 217.638 294.76 217.454 294.52C217.278 294.28 216.99 294.16 216.59 294.16C216.126 294.16 215.758 294.32 215.486 294.64C215.222 294.96 215.09 295.396 215.09 295.948V299.368H213.878V295.66C213.878 295.14 213.786 294.76 213.602 294.52C213.426 294.28 213.138 294.16 212.738 294.16C212.274 294.16 211.906 294.32 211.634 294.64C211.362 294.96 211.226 295.396 211.226 295.948V299.368H210.026V295.024C210.026 294.392 209.994 293.824 209.93 293.32H211.058L211.166 294.328C211.342 293.96 211.594 293.676 211.922 293.476C212.25 293.276 212.634 293.176 213.074 293.176C214.01 293.176 214.622 293.564 214.91 294.34C215.094 293.98 215.362 293.696 215.714 293.488C216.074 293.28 216.478 293.176 216.926 293.176ZM226.079 296.368H221.759C221.799 297.784 222.443 298.492 223.691 298.492C224.387 298.492 225.023 298.264 225.599 297.808L225.971 298.672C225.699 298.912 225.351 299.104 224.927 299.248C224.511 299.384 224.091 299.452 223.667 299.452C222.699 299.452 221.939 299.176 221.387 298.624C220.835 298.064 220.559 297.3 220.559 296.332C220.559 295.716 220.679 295.168 220.919 294.688C221.167 294.208 221.511 293.836 221.951 293.572C222.391 293.308 222.891 293.176 223.451 293.176C224.267 293.176 224.907 293.44 225.371 293.968C225.843 294.496 226.079 295.228 226.079 296.164V296.368ZM223.475 294.076C223.019 294.076 222.647 294.212 222.359 294.484C222.071 294.756 221.887 295.144 221.807 295.648H225.011C224.963 295.136 224.807 294.748 224.543 294.484C224.279 294.212 223.923 294.076 223.475 294.076ZM230.925 293.176C232.373 293.176 233.097 293.984 233.097 295.6V299.368H231.885V295.672C231.885 295.144 231.781 294.76 231.573 294.52C231.373 294.28 231.049 294.16 230.601 294.16C230.089 294.16 229.677 294.32 229.365 294.64C229.061 294.96 228.909 295.388 228.909 295.924V299.368H227.709V295.024C227.709 294.392 227.677 293.824 227.613 293.32H228.741L228.849 294.364C229.041 293.98 229.317 293.688 229.677 293.488C230.045 293.28 230.461 293.176 230.925 293.176ZM236.635 294.256V297.292C236.635 297.708 236.723 298.004 236.899 298.18C237.083 298.348 237.335 298.432 237.655 298.432C237.863 298.432 238.075 298.4 238.291 298.336V299.32C238.027 299.408 237.727 299.452 237.391 299.452C236.767 299.452 236.283 299.276 235.939 298.924C235.595 298.572 235.423 298.06 235.423 297.388V294.256H234.247V293.32H235.423V291.808L236.635 291.388V293.32H238.303V294.256H236.635ZM245.194 293.32V299.368H243.994V298.336C243.818 298.696 243.554 298.972 243.202 299.164C242.858 299.356 242.454 299.452 241.99 299.452C241.454 299.452 240.982 299.324 240.574 299.068C240.174 298.812 239.862 298.452 239.638 297.988C239.414 297.516 239.302 296.968 239.302 296.344C239.302 295.72 239.414 295.168 239.638 294.688C239.87 294.208 240.19 293.836 240.598 293.572C241.006 293.308 241.47 293.176 241.99 293.176C242.454 293.176 242.858 293.276 243.202 293.476C243.546 293.668 243.81 293.944 243.994 294.304V293.32H245.194ZM242.278 298.492C242.822 298.492 243.242 298.304 243.538 297.928C243.842 297.544 243.994 297.008 243.994 296.32C243.994 295.624 243.842 295.088 243.538 294.712C243.242 294.336 242.818 294.148 242.266 294.148C241.722 294.148 241.294 294.344 240.982 294.736C240.678 295.12 240.526 295.656 240.526 296.344C240.526 297.024 240.678 297.552 240.982 297.928C241.294 298.304 241.726 298.492 242.278 298.492ZM248.787 294.256V297.292C248.787 297.708 248.875 298.004 249.051 298.18C249.235 298.348 249.487 298.432 249.807 298.432C250.015 298.432 250.227 298.4 250.443 298.336V299.32C250.179 299.408 249.879 299.452 249.543 299.452C248.919 299.452 248.435 299.276 248.091 298.924C247.747 298.572 247.575 298.06 247.575 297.388V294.256H246.399V293.32H247.575V291.808L248.787 291.388V293.32H250.455V294.256H248.787ZM251.814 293.32H253.014V299.368H251.814V293.32ZM253.11 290.68V291.952H251.706V290.68H253.11ZM257.635 299.452C257.043 299.452 256.523 299.324 256.075 299.068C255.627 298.812 255.279 298.448 255.031 297.976C254.791 297.504 254.671 296.952 254.671 296.32C254.671 295.688 254.791 295.136 255.031 294.664C255.279 294.184 255.627 293.816 256.075 293.56C256.523 293.304 257.043 293.176 257.635 293.176C258.219 293.176 258.735 293.304 259.183 293.56C259.631 293.816 259.975 294.184 260.215 294.664C260.463 295.136 260.587 295.688 260.587 296.32C260.587 296.952 260.463 297.504 260.215 297.976C259.975 298.448 259.631 298.812 259.183 299.068C258.735 299.324 258.219 299.452 257.635 299.452ZM257.623 298.492C258.183 298.492 258.611 298.308 258.907 297.94C259.203 297.572 259.351 297.032 259.351 296.32C259.351 295.624 259.199 295.088 258.895 294.712C258.599 294.336 258.179 294.148 257.635 294.148C257.083 294.148 256.655 294.336 256.351 294.712C256.047 295.088 255.895 295.624 255.895 296.32C255.895 297.032 256.043 297.572 256.339 297.94C256.643 298.308 257.071 298.492 257.623 298.492ZM265.459 293.176C266.907 293.176 267.631 293.984 267.631 295.6V299.368H266.419V295.672C266.419 295.144 266.315 294.76 266.107 294.52C265.907 294.28 265.583 294.16 265.135 294.16C264.623 294.16 264.211 294.32 263.899 294.64C263.595 294.96 263.443 295.388 263.443 295.924V299.368H262.243V295.024C262.243 294.392 262.211 293.824 262.147 293.32H263.275L263.383 294.364C263.575 293.98 263.851 293.688 264.211 293.488C264.579 293.28 264.995 293.176 265.459 293.176Z" fill="#ABABAB"/>
<path d="M226.364 236.666L220.938 232.898L215.512 236.666V224.607C215.512 224.207 215.675 223.823 215.966 223.541C216.257 223.258 216.651 223.099 217.062 223.099H224.814C225.225 223.099 225.619 223.258 225.91 223.541C226.201 223.823 226.364 224.207 226.364 224.607V236.666Z" stroke="#46AC34" stroke-width="1.21787" stroke-linecap="round" stroke-linejoin="round"/>
<path d="M223.721 217.84C223.721 219.434 222.462 220.702 220.938 220.702C219.415 220.702 218.156 219.434 218.156 217.84C218.156 216.245 219.415 214.977 220.938 214.977C222.462 214.977 223.721 216.245 223.721 217.84Z" stroke="#46AC34" stroke-width="1.21787"/>
<path d="M112.625 198.759V163.683H161.282V198.759H112.625Z" fill="white" stroke="#252525" stroke-width="0.405956"/>
<path opacity="0.56" d="M112.572 198.791V163.676H161.259V198.791H112.572Z" fill="#DFEBD0" stroke="#252525" stroke-width="0.405956"/>
<path d="M117.021 163.353C117.021 163.895 116.63 164.298 116.191 164.298C115.752 164.298 115.361 163.895 115.361 163.353C115.361 162.811 115.752 162.408 116.191 162.408C116.63 162.408 117.021 162.811 117.021 163.353Z" fill="#24285B" stroke="#252525" stroke-width="0.405956"/>
<path d="M120.093 163.353C120.093 163.895 119.702 164.298 119.263 164.298C118.825 164.298 118.433 163.895 118.433 163.353C118.433 162.811 118.825 162.408 119.263 162.408C119.702 162.408 120.093 162.811 120.093 163.353Z" fill="#D8EAC4" stroke="#252525" stroke-width="0.405956"/>
<path d="M122.982 163.353C122.982 163.895 122.591 164.298 122.152 164.298C121.713 164.298 121.322 163.895 121.322 163.353C121.322 162.811 121.713 162.408 122.152 162.408C122.591 162.408 122.982 162.811 122.982 163.353Z" fill="#93895B" stroke="#252525" stroke-width="0.405956"/>
<path d="M112.869 170.109V173.499H160.756V167.326L140.563 163.71L118.213 166.696L114.785 167.474L112.901 169.78L112.869 170.109Z" fill="#C2D8AD"/>
<path d="M161.417 159.287H136.923H136.717H112.222L108 167.524H136.717H136.923H165.639L161.417 159.287Z" fill="#DDEDC9"/>
<path d="M114.387 167.655H120.771V167.683C120.771 168.612 120.439 169.503 119.848 170.16C119.256 170.817 118.455 171.186 117.619 171.186H117.539C116.703 171.186 115.901 170.817 115.31 170.16C114.719 169.503 114.387 168.612 114.387 167.683V167.655Z" fill="#D8EAC4"/>
<path d="M127.248 167.655H133.632V167.683C133.632 168.612 133.3 169.503 132.709 170.16C132.118 170.817 131.316 171.186 130.48 171.186H130.4C129.564 171.186 128.762 170.817 128.171 170.16C127.58 169.503 127.248 168.612 127.248 167.683V167.655Z" fill="#D8EAC4"/>
<path d="M140.014 167.655H146.398V167.683C146.398 168.612 146.066 169.503 145.475 170.16C144.883 170.817 144.082 171.186 143.246 171.186H143.166C142.33 171.186 141.528 170.817 140.937 170.16C140.346 169.503 140.014 168.612 140.014 167.683V167.655Z" fill="#D8EAC4"/>
<path d="M152.873 167.655H159.257V167.683C159.257 168.612 158.925 169.503 158.334 170.16C157.743 170.817 156.941 171.186 156.105 171.186H156.025C155.189 171.186 154.387 170.817 153.796 170.16C153.205 169.503 152.873 168.612 152.873 167.683V167.655Z" fill="#D8EAC4"/>
<path opacity="0.75" d="M133.734 167.525V167.496V159.359H139.915V167.525C139.915 168.43 139.592 169.297 139.018 169.934C138.445 170.571 137.67 170.926 136.865 170.926H136.785C135.98 170.926 135.205 170.571 134.632 169.934C134.058 169.297 133.734 168.43 133.734 167.525Z" fill="#D0E6BB" stroke="#252525" stroke-width="0.202978"/>
<path opacity="0.75" d="M127.15 167.487L127.15 167.487V167.496V167.525C127.15 168.43 126.826 169.297 126.253 169.934C125.679 170.571 124.904 170.926 124.099 170.926H124.019C123.214 170.926 122.439 170.571 121.866 169.934C121.292 169.297 120.969 168.43 120.969 167.525V167.506L122.474 159.359H127.899L127.15 167.487Z" fill="#D0E6BB" stroke="#252525" stroke-width="0.202978"/>
<path d="M114.294 167.463L114.288 167.479V167.496V167.525C114.288 168.43 113.965 169.297 113.391 169.934C112.818 170.571 112.043 170.926 111.238 170.926H111.158C110.759 170.926 110.364 170.839 109.994 170.669C109.625 170.499 109.288 170.249 109.005 169.934C108.721 169.619 108.495 169.244 108.341 168.83C108.187 168.417 108.107 167.973 108.107 167.525V167.521L112.29 159.359H117.084L114.294 167.463Z" fill="#D0E6BB" stroke="#252525" stroke-width="0.202978"/>
<path opacity="0.75" d="M152.771 167.598C152.755 168.477 152.433 169.314 151.875 169.934C151.302 170.571 150.527 170.926 149.721 170.926H149.642C148.836 170.926 148.061 170.571 147.488 169.934C146.915 169.297 146.591 168.43 146.591 167.525V167.496V167.395H146.496L145.758 159.359H151.183L152.682 167.515L152.698 167.598H152.771Z" fill="#D0E6BB" stroke="#252525" stroke-width="0.202978"/>
<path d="M159.363 167.367V167.35L159.358 167.334L156.568 159.229H161.361L165.544 167.392V167.396C165.544 167.844 165.465 168.287 165.311 168.701C165.157 169.114 164.931 169.489 164.647 169.805C164.363 170.12 164.027 170.37 163.658 170.54C163.288 170.71 162.893 170.797 162.494 170.797H162.414C162.015 170.797 161.62 170.71 161.25 170.54C160.881 170.37 160.544 170.12 160.261 169.805C159.977 169.489 159.751 169.114 159.597 168.701C159.443 168.287 159.363 167.844 159.363 167.396V167.367Z" fill="#D0E6BB" stroke="#252525" stroke-width="0.202978"/>
<path d="M112.428 159.213V156.571H161.284V159.213H112.428Z" fill="#DDEDC9" stroke="#252525" stroke-width="0.405956"/>
<path d="M148.477 178.476H147.689V178.679H146.902V178.476H146.115V178.679H145.327V178.476H144.54V178.679H143.753V178.476H142.966V178.679H142.178V178.476H141.391V178.679H140.604V178.476H139.817V178.679H139.029V178.476H138.242V178.679H137.455V178.476H136.667V178.679H135.88V178.476H135.093V178.679H134.306V178.476H133.518V178.679H132.731V178.476H131.944V178.679H131.157V178.476H130.369V178.679H129.582V178.476H128.795V178.679H128.007V178.476H127.22V178.679H126.433V178.476H125.646V178.679H125.455V178.883H125.252V179.698H125.455V180.512H125.252V181.327H125.455V182.141H125.252V182.956H125.455V183.77H125.252V184.585H125.455V185.399H125.252V186.214H125.455V187.029H125.252V187.843H125.455V188.658H125.252V189.472H125.455V189.677H125.646V189.88H126.433V189.677H127.22V189.88H128.007V189.677H128.795V189.88H129.582V189.677H130.369V189.88H131.157V189.677H131.944V189.88H132.731V189.677H133.518V189.88H134.306V189.677H135.093V189.88H135.88V189.677H136.667V189.88H137.455V189.677H138.242V189.88H139.029V189.677H139.817V189.88H140.604V189.677H141.391V189.88H142.178V189.677H142.966V189.88H143.753V189.677H144.54V189.88H145.327V189.677H146.115V189.88H146.902V189.677H147.689V189.88H148.477V189.677H148.667V189.472H148.87V188.658H148.667V187.843H148.87V187.029H148.667V186.214H148.87V185.399H148.667V184.585H148.87V183.77H148.667V182.956H148.87V182.141H148.667V181.327H148.87V180.512H148.667V179.698H148.87V178.883H148.667V178.679H148.477V178.476Z" fill="white" stroke="#252525" stroke-width="0.405956" stroke-dasharray="0.81 0.81"/>
<path d="M127.451 187.408V180.719H133.429V187.408H127.451Z" fill="#EEF7E5" stroke="#252525" stroke-width="0.405956"/>
<path d="M131.37 181.989C131.145 181.971 130.918 181.982 130.696 182.023C130.501 182.057 130.302 182.057 130.108 182.023C129.886 181.982 129.66 181.971 129.436 181.989C129.299 182 129.167 182.043 129.046 182.114C128.925 182.184 128.818 182.282 128.733 182.4L128.012 183.389L128.714 184.048L129.159 183.439V185.521H131.646V183.439L132.091 184.048L132.794 183.389L132.073 182.4C131.987 182.282 131.88 182.185 131.76 182.114C131.639 182.043 131.506 182.001 131.37 181.989Z" fill="#8FC055"/>
<path opacity="0.09" d="M130.636 182.029L130.636 182.03L130.636 182.03L130.636 182.029ZM130.641 182.226C130.638 182.272 130.632 182.321 130.621 182.369C130.603 182.452 130.573 182.517 130.534 182.559C130.5 182.594 130.45 182.626 130.354 182.627C130.261 182.628 130.215 182.598 130.186 182.566C130.15 182.527 130.122 182.463 130.106 182.377C130.096 182.325 130.091 182.271 130.09 182.221C130.273 182.237 130.457 182.239 130.641 182.226Z" fill="#252525" stroke="#252525" stroke-width="0.405956"/>
<path d="M150.048 178.868C150.048 179.602 149.49 180.176 148.827 180.176C148.163 180.176 147.605 179.602 147.605 178.868C147.605 178.134 148.163 177.56 148.827 177.56C149.49 177.56 150.048 178.134 150.048 178.868Z" fill="#C0DE9A" stroke="#252525" stroke-width="0.405956"/>
<path d="M144.203 181.749H135.617V183.389H144.203V181.749Z" fill="#BCBCBC"/>
<path d="M144.203 184.693H135.617V186.333H144.203V184.693Z" fill="#C9E8A5"/>
<path d="M123.183 177.336H114.727V192.794H123.183V177.336Z" fill="#C2D8AD"/>
<path d="M160.048 177.81H156.449V192.794H160.048V177.81Z" fill="#C2D8AD"/>
<path d="M109.659 4.85641H106.767V3.82441H113.799V4.85641H110.907V12.3684H109.659V4.85641ZM117.15 6.17641C117.334 6.17641 117.526 6.20441 117.726 6.26041L117.702 7.36441C117.486 7.28441 117.25 7.24441 116.994 7.24441C116.442 7.24441 116.026 7.41241 115.746 7.74841C115.474 8.07641 115.338 8.49241 115.338 8.99641V12.3684H114.138V8.02441C114.138 7.39241 114.106 6.82441 114.042 6.32041H115.17L115.278 7.41241C115.438 7.01241 115.686 6.70841 116.022 6.50041C116.358 6.28441 116.734 6.17641 117.15 6.17641ZM124.304 6.32041V12.3684H123.104V11.3364C122.928 11.6964 122.664 11.9724 122.312 12.1644C121.968 12.3564 121.564 12.4524 121.1 12.4524C120.564 12.4524 120.092 12.3244 119.684 12.0684C119.284 11.8124 118.972 11.4524 118.748 10.9884C118.524 10.5164 118.412 9.96841 118.412 9.34441C118.412 8.72041 118.524 8.16841 118.748 7.68841C118.98 7.20841 119.3 6.83641 119.708 6.57241C120.116 6.30841 120.58 6.17641 121.1 6.17641C121.564 6.17641 121.968 6.27641 122.312 6.47641C122.656 6.66841 122.92 6.94441 123.104 7.30441V6.32041H124.304ZM121.388 11.4924C121.932 11.4924 122.352 11.3044 122.648 10.9284C122.952 10.5444 123.104 10.0084 123.104 9.32041C123.104 8.62441 122.952 8.08841 122.648 7.71241C122.352 7.33641 121.928 7.14841 121.376 7.14841C120.832 7.14841 120.404 7.34441 120.092 7.73641C119.788 8.12041 119.636 8.65641 119.636 9.34441C119.636 10.0244 119.788 10.5524 120.092 10.9284C120.404 11.3044 120.836 11.4924 121.388 11.4924ZM128.953 12.4524C128.345 12.4524 127.813 12.3244 127.357 12.0684C126.909 11.8124 126.565 11.4524 126.325 10.9884C126.085 10.5164 125.965 9.96841 125.965 9.34441C125.965 8.72041 126.089 8.16841 126.337 7.68841C126.593 7.20841 126.949 6.83641 127.405 6.57241C127.861 6.30841 128.393 6.17641 129.001 6.17641C129.425 6.17641 129.833 6.24841 130.225 6.39241C130.617 6.52841 130.933 6.71641 131.173 6.95641L130.801 7.83241C130.233 7.38441 129.661 7.16041 129.085 7.16041C128.501 7.16041 128.045 7.35241 127.717 7.73641C127.389 8.11241 127.225 8.64441 127.225 9.33241C127.225 10.0204 127.389 10.5524 127.717 10.9284C128.045 11.2964 128.501 11.4804 129.085 11.4804C129.677 11.4804 130.249 11.2564 130.801 10.8084L131.173 11.6844C130.917 11.9244 130.589 12.1124 130.189 12.2484C129.797 12.3844 129.385 12.4524 128.953 12.4524ZM136.645 12.3684L133.753 9.51241V12.3684H132.553V3.53641H133.753V9.05641L136.441 6.33241H137.941L135.049 9.23641L138.193 12.3684H136.645ZM148.139 6.32041V12.3684H146.939V11.3364C146.763 11.6964 146.499 11.9724 146.147 12.1644C145.803 12.3564 145.399 12.4524 144.935 12.4524C144.399 12.4524 143.927 12.3244 143.519 12.0684C143.119 11.8124 142.807 11.4524 142.583 10.9884C142.359 10.5164 142.247 9.96841 142.247 9.34441C142.247 8.72041 142.359 8.16841 142.583 7.68841C142.815 7.20841 143.135 6.83641 143.543 6.57241C143.951 6.30841 144.415 6.17641 144.935 6.17641C145.399 6.17641 145.803 6.27641 146.147 6.47641C146.491 6.66841 146.755 6.94441 146.939 7.30441V6.32041H148.139ZM145.223 11.4924C145.767 11.4924 146.187 11.3044 146.483 10.9284C146.787 10.5444 146.939 10.0084 146.939 9.32041C146.939 8.62441 146.787 8.08841 146.483 7.71241C146.187 7.33641 145.763 7.14841 145.211 7.14841C144.667 7.14841 144.239 7.34441 143.927 7.73641C143.623 8.12041 143.471 8.65641 143.471 9.34441C143.471 10.0244 143.623 10.5524 143.927 10.9284C144.239 11.3044 144.671 11.4924 145.223 11.4924ZM153.376 6.17641C154.824 6.17641 155.548 6.98441 155.548 8.60041V12.3684H154.336V8.67241C154.336 8.14441 154.232 7.76041 154.024 7.52041C153.824 7.28041 153.5 7.16041 153.052 7.16041C152.54 7.16041 152.128 7.32041 151.816 7.64041C151.512 7.96041 151.36 8.38841 151.36 8.92441V12.3684H150.16V8.02441C150.16 7.39241 150.128 6.82441 150.064 6.32041H151.192L151.3 7.36441C151.492 6.98041 151.768 6.68841 152.128 6.48841C152.496 6.28041 152.912 6.17641 153.376 6.17641ZM163.045 3.53641V12.3684H161.845V11.3364C161.669 11.6964 161.405 11.9724 161.053 12.1644C160.709 12.3564 160.305 12.4524 159.841 12.4524C159.321 12.4524 158.857 12.3204 158.449 12.0564C158.041 11.7924 157.721 11.4244 157.489 10.9524C157.265 10.4724 157.153 9.92041 157.153 9.29641C157.153 8.67241 157.265 8.12441 157.489 7.65241C157.713 7.18041 158.025 6.81641 158.425 6.56041C158.833 6.30441 159.305 6.17641 159.841 6.17641C160.297 6.17641 160.697 6.27241 161.041 6.46441C161.393 6.65641 161.657 6.92841 161.833 7.28041V3.53641H163.045ZM160.117 11.4924C160.669 11.4924 161.093 11.3044 161.389 10.9284C161.693 10.5444 161.845 10.0084 161.845 9.32041C161.845 8.63241 161.693 8.10041 161.389 7.72441C161.093 7.34041 160.673 7.14841 160.129 7.14841C159.577 7.14841 159.145 7.33641 158.833 7.71241C158.529 8.08841 158.377 8.61641 158.377 9.29641C158.377 9.98441 158.529 10.5244 158.833 10.9164C159.145 11.3004 159.573 11.4924 160.117 11.4924ZM106.284 21.1764C107.628 21.1764 108.3 21.9844 108.3 23.6004V27.3684H107.088V23.6604C107.088 23.1404 106.996 22.7604 106.812 22.5204C106.636 22.2804 106.348 22.1604 105.948 22.1604C105.484 22.1604 105.116 22.3204 104.844 22.6404C104.58 22.9604 104.448 23.3964 104.448 23.9484V27.3684H103.236V23.6604C103.236 23.1404 103.144 22.7604 102.96 22.5204C102.784 22.2804 102.496 22.1604 102.096 22.1604C101.632 22.1604 101.264 22.3204 100.992 22.6404C100.72 22.9604 100.584 23.3964 100.584 23.9484V27.3684H99.3844V23.0244C99.3844 22.3924 99.3524 21.8244 99.2884 21.3204H100.416L100.524 22.3284C100.7 21.9604 100.952 21.6764 101.28 21.4764C101.608 21.2764 101.992 21.1764 102.432 21.1764C103.368 21.1764 103.98 21.5644 104.268 22.3404C104.452 21.9804 104.72 21.6964 105.072 21.4884C105.432 21.2804 105.836 21.1764 106.284 21.1764ZM115.809 21.3204V27.3684H114.609V26.3364C114.433 26.6964 114.169 26.9724 113.817 27.1644C113.473 27.3564 113.069 27.4524 112.605 27.4524C112.069 27.4524 111.597 27.3244 111.189 27.0684C110.789 26.8124 110.477 26.4524 110.253 25.9884C110.029 25.5164 109.917 24.9684 109.917 24.3444C109.917 23.7204 110.029 23.1684 110.253 22.6884C110.485 22.2084 110.805 21.8364 111.213 21.5724C111.621 21.3084 112.085 21.1764 112.605 21.1764C113.069 21.1764 113.473 21.2764 113.817 21.4764C114.161 21.6684 114.425 21.9444 114.609 22.3044V21.3204H115.809ZM112.893 26.4924C113.437 26.4924 113.857 26.3044 114.153 25.9284C114.457 25.5444 114.609 25.0084 114.609 24.3204C114.609 23.6244 114.457 23.0884 114.153 22.7124C113.857 22.3364 113.433 22.1484 112.881 22.1484C112.337 22.1484 111.909 22.3444 111.597 22.7364C111.293 23.1204 111.141 23.6564 111.141 24.3444C111.141 25.0244 111.293 25.5524 111.597 25.9284C111.909 26.3044 112.341 26.4924 112.893 26.4924ZM121.045 21.1764C122.493 21.1764 123.217 21.9844 123.217 23.6004V27.3684H122.005V23.6724C122.005 23.1444 121.901 22.7604 121.693 22.5204C121.493 22.2804 121.169 22.1604 120.721 22.1604C120.209 22.1604 119.797 22.3204 119.485 22.6404C119.181 22.9604 119.029 23.3884 119.029 23.9244V27.3684H117.829V23.0244C117.829 22.3924 117.797 21.8244 117.733 21.3204H118.861L118.969 22.3644C119.161 21.9804 119.437 21.6884 119.797 21.4884C120.165 21.2804 120.581 21.1764 121.045 21.1764ZM130.715 21.3204V27.3684H129.515V26.3364C129.339 26.6964 129.075 26.9724 128.723 27.1644C128.379 27.3564 127.975 27.4524 127.511 27.4524C126.975 27.4524 126.503 27.3244 126.095 27.0684C125.695 26.8124 125.383 26.4524 125.159 25.9884C124.935 25.5164 124.823 24.9684 124.823 24.3444C124.823 23.7204 124.935 23.1684 125.159 22.6884C125.391 22.2084 125.711 21.8364 126.119 21.5724C126.527 21.3084 126.991 21.1764 127.511 21.1764C127.975 21.1764 128.379 21.2764 128.723 21.4764C129.067 21.6684 129.331 21.9444 129.515 22.3044V21.3204H130.715ZM127.799 26.4924C128.343 26.4924 128.763 26.3044 129.059 25.9284C129.363 25.5444 129.515 25.0084 129.515 24.3204C129.515 23.6244 129.363 23.0884 129.059 22.7124C128.763 22.3364 128.339 22.1484 127.787 22.1484C127.243 22.1484 126.815 22.3444 126.503 22.7364C126.199 23.1204 126.047 23.6564 126.047 24.3444C126.047 25.0244 126.199 25.5524 126.503 25.9284C126.815 26.3044 127.247 26.4924 127.799 26.4924ZM138.315 21.3204V27.2604C138.315 28.1804 138.071 28.8724 137.583 29.3364C137.103 29.8084 136.387 30.0444 135.435 30.0444C134.515 30.0444 133.711 29.8444 133.023 29.4444L133.227 28.4964C133.603 28.6964 133.963 28.8444 134.307 28.9404C134.659 29.0364 135.031 29.0844 135.423 29.0844C136.551 29.0844 137.115 28.5084 137.115 27.3564V26.0484C136.931 26.4004 136.663 26.6804 136.311 26.8884C135.959 27.0884 135.551 27.1884 135.087 27.1884C134.559 27.1884 134.087 27.0644 133.671 26.8164C133.263 26.5684 132.943 26.2164 132.711 25.7604C132.487 25.3044 132.375 24.7804 132.375 24.1884C132.375 23.5964 132.487 23.0724 132.711 22.6164C132.943 22.1604 133.263 21.8084 133.671 21.5604C134.087 21.3044 134.559 21.1764 135.087 21.1764C135.551 21.1764 135.959 21.2764 136.311 21.4764C136.663 21.6684 136.931 21.9444 137.115 22.3044V21.3204H138.315ZM135.363 26.2164C135.907 26.2164 136.335 26.0364 136.647 25.6764C136.959 25.3164 137.115 24.8204 137.115 24.1884C137.115 23.5564 136.959 23.0604 136.647 22.7004C136.343 22.3324 135.915 22.1484 135.363 22.1484C134.819 22.1484 134.387 22.3324 134.067 22.7004C133.755 23.0604 133.599 23.5564 133.599 24.1884C133.599 24.8124 133.755 25.3084 134.067 25.6764C134.387 26.0364 134.819 26.2164 135.363 26.2164ZM145.494 24.3684H141.174C141.214 25.7844 141.858 26.4924 143.106 26.4924C143.802 26.4924 144.438 26.2644 145.014 25.8084L145.386 26.6724C145.114 26.9124 144.766 27.1044 144.342 27.2484C143.926 27.3844 143.506 27.4524 143.082 27.4524C142.114 27.4524 141.354 27.1764 140.802 26.6244C140.25 26.0644 139.974 25.3004 139.974 24.3324C139.974 23.7164 140.094 23.1684 140.334 22.6884C140.582 22.2084 140.926 21.8364 141.366 21.5724C141.806 21.3084 142.306 21.1764 142.866 21.1764C143.682 21.1764 144.322 21.4404 144.786 21.9684C145.258 22.4964 145.494 23.2284 145.494 24.1644V24.3684ZM142.89 22.0764C142.434 22.0764 142.062 22.2124 141.774 22.4844C141.486 22.7564 141.302 23.1444 141.222 23.6484H144.426C144.378 23.1364 144.222 22.7484 143.958 22.4844C143.694 22.2124 143.338 22.0764 142.89 22.0764ZM156.06 21.3204L153.24 27.8604C152.928 28.5724 152.536 29.0924 152.064 29.4204C151.6 29.7564 151.024 29.9804 150.336 30.0924L150.072 29.1564C150.64 29.0284 151.068 28.8604 151.356 28.6524C151.652 28.4524 151.888 28.1484 152.064 27.7404L152.28 27.2364L149.736 21.3204H151.02L152.916 26.0004L154.848 21.3204H156.06ZM159.76 27.4524C159.168 27.4524 158.648 27.3244 158.2 27.0684C157.752 26.8124 157.404 26.4484 157.156 25.9764C156.916 25.5044 156.796 24.9524 156.796 24.3204C156.796 23.6884 156.916 23.1364 157.156 22.6644C157.404 22.1844 157.752 21.8164 158.2 21.5604C158.648 21.3044 159.168 21.1764 159.76 21.1764C160.344 21.1764 160.86 21.3044 161.308 21.5604C161.756 21.8164 162.1 22.1844 162.34 22.6644C162.588 23.1364 162.712 23.6884 162.712 24.3204C162.712 24.9524 162.588 25.5044 162.34 25.9764C162.1 26.4484 161.756 26.8124 161.308 27.0684C160.86 27.3244 160.344 27.4524 159.76 27.4524ZM159.748 26.4924C160.308 26.4924 160.736 26.3084 161.032 25.9404C161.328 25.5724 161.476 25.0324 161.476 24.3204C161.476 23.6244 161.324 23.0884 161.02 22.7124C160.724 22.3364 160.304 22.1484 159.76 22.1484C159.208 22.1484 158.78 22.3364 158.476 22.7124C158.172 23.0884 158.02 23.6244 158.02 24.3204C158.02 25.0324 158.168 25.5724 158.464 25.9404C158.768 26.3084 159.196 26.4924 159.748 26.4924ZM169.625 21.3204V27.3684H168.449V26.3604C168.257 26.7124 167.993 26.9844 167.657 27.1764C167.321 27.3604 166.941 27.4524 166.517 27.4524C165.061 27.4524 164.333 26.6444 164.333 25.0284V21.3204H165.533V25.0164C165.533 25.5124 165.633 25.8804 165.833 26.1204C166.041 26.3524 166.353 26.4684 166.769 26.4684C167.265 26.4684 167.661 26.3084 167.957 25.9884C168.261 25.6684 168.413 25.2444 168.413 24.7164V21.3204H169.625ZM174.652 21.1764C174.836 21.1764 175.028 21.2044 175.228 21.2604L175.204 22.3644C174.988 22.2844 174.752 22.2444 174.496 22.2444C173.944 22.2444 173.528 22.4124 173.248 22.7484C172.976 23.0764 172.84 23.4924 172.84 23.9964V27.3684H171.64V23.0244C171.64 22.3924 171.608 21.8244 171.544 21.3204H172.672L172.78 22.4124C172.94 22.0124 173.188 21.7084 173.524 21.5004C173.86 21.2844 174.236 21.1764 174.652 21.1764ZM81.5045 36.1764C82.0325 36.1764 82.5005 36.3044 82.9085 36.5604C83.3165 36.8164 83.6325 37.1804 83.8565 37.6524C84.0805 38.1244 84.1925 38.6724 84.1925 39.2964C84.1925 39.9204 84.0765 40.4724 83.8445 40.9524C83.6205 41.4244 83.3045 41.7924 82.8965 42.0564C82.4885 42.3204 82.0245 42.4524 81.5045 42.4524C81.0405 42.4524 80.6325 42.3564 80.2805 42.1644C79.9365 41.9644 79.6765 41.6804 79.5005 41.3124V42.3684H78.3005V33.5364H79.5005V37.3164C79.6765 36.9564 79.9365 36.6764 80.2805 36.4764C80.6325 36.2764 81.0405 36.1764 81.5045 36.1764ZM81.2285 41.4924C81.7725 41.4924 82.1965 41.3004 82.5005 40.9164C82.8045 40.5244 82.9565 39.9844 82.9565 39.2964C82.9565 38.6164 82.8045 38.0884 82.5005 37.7124C82.1965 37.3364 81.7725 37.1484 81.2285 37.1484C80.6765 37.1484 80.2485 37.3364 79.9445 37.7124C79.6485 38.0884 79.5005 38.6244 79.5005 39.3204C79.5005 40.0164 79.6485 40.5524 79.9445 40.9284C80.2485 41.3044 80.6765 41.4924 81.2285 41.4924ZM91.109 36.3204V42.3684H89.933V41.3604C89.741 41.7124 89.477 41.9844 89.141 42.1764C88.805 42.3604 88.425 42.4524 88.001 42.4524C86.545 42.4524 85.817 41.6444 85.817 40.0284V36.3204H87.017V40.0164C87.017 40.5124 87.117 40.8804 87.317 41.1204C87.525 41.3524 87.837 41.4684 88.253 41.4684C88.749 41.4684 89.145 41.3084 89.441 40.9884C89.745 40.6684 89.897 40.2444 89.897 39.7164V36.3204H91.109ZM95.2362 42.4524C94.1802 42.4524 93.3482 42.1964 92.7402 41.6844L93.1002 40.8084C93.7322 41.2884 94.4562 41.5284 95.2722 41.5284C95.6882 41.5284 96.0042 41.4604 96.2202 41.3244C96.4362 41.1804 96.5442 40.9804 96.5442 40.7244C96.5442 40.5084 96.4682 40.3404 96.3162 40.2204C96.1722 40.0924 95.9242 39.9844 95.5722 39.8964L94.5642 39.6564C94.0362 39.5444 93.6322 39.3484 93.3522 39.0684C93.0802 38.7804 92.9442 38.4244 92.9442 38.0004C92.9442 37.4564 93.1602 37.0164 93.5922 36.6804C94.0322 36.3444 94.6122 36.1764 95.3322 36.1764C95.7642 36.1764 96.1722 36.2444 96.5562 36.3804C96.9482 36.5164 97.2802 36.7084 97.5522 36.9564L97.1802 37.8084C96.5962 37.3444 95.9802 37.1124 95.3322 37.1124C94.9402 37.1124 94.6362 37.1884 94.4202 37.3404C94.2042 37.4844 94.0962 37.6884 94.0962 37.9524C94.0962 38.1604 94.1642 38.3284 94.3002 38.4564C94.4362 38.5844 94.6522 38.6844 94.9482 38.7564L95.9802 39.0084C96.5562 39.1364 96.9802 39.3404 97.2522 39.6204C97.5322 39.8924 97.6722 40.2484 97.6722 40.6884C97.6722 41.2324 97.4522 41.6644 97.0122 41.9844C96.5802 42.2964 95.9882 42.4524 95.2362 42.4524ZM99.3408 36.3204H100.541V42.3684H99.3408V36.3204ZM100.637 33.6804V34.9524H99.2328V33.6804H100.637ZM105.773 36.1764C107.221 36.1764 107.945 36.9844 107.945 38.6004V42.3684H106.733V38.6724C106.733 38.1444 106.629 37.7604 106.421 37.5204C106.221 37.2804 105.897 37.1604 105.449 37.1604C104.937 37.1604 104.525 37.3204 104.213 37.6404C103.909 37.9604 103.757 38.3884 103.757 38.9244V42.3684H102.557V38.0244C102.557 37.3924 102.525 36.8244 102.461 36.3204H103.589L103.697 37.3644C103.889 36.9804 104.165 36.6884 104.525 36.4884C104.893 36.2804 105.309 36.1764 105.773 36.1764ZM115.071 39.3684H110.751C110.791 40.7844 111.435 41.4924 112.683 41.4924C113.379 41.4924 114.015 41.2644 114.591 40.8084L114.963 41.6724C114.691 41.9124 114.343 42.1044 113.919 42.2484C113.503 42.3844 113.083 42.4524 112.659 42.4524C111.691 42.4524 110.931 42.1764 110.379 41.6244C109.827 41.0644 109.551 40.3004 109.551 39.3324C109.551 38.7164 109.671 38.1684 109.911 37.6884C110.159 37.2084 110.503 36.8364 110.943 36.5724C111.383 36.3084 111.883 36.1764 112.443 36.1764C113.259 36.1764 113.899 36.4404 114.363 36.9684C114.835 37.4964 115.071 38.2284 115.071 39.1644V39.3684ZM112.467 37.0764C112.011 37.0764 111.639 37.2124 111.351 37.4844C111.063 37.7564 110.879 38.1444 110.799 38.6484H114.003C113.955 38.1364 113.799 37.7484 113.535 37.4844C113.271 37.2124 112.915 37.0764 112.467 37.0764ZM118.813 42.4524C117.757 42.4524 116.925 42.1964 116.317 41.6844L116.677 40.8084C117.309 41.2884 118.033 41.5284 118.849 41.5284C119.265 41.5284 119.581 41.4604 119.797 41.3244C120.013 41.1804 120.121 40.9804 120.121 40.7244C120.121 40.5084 120.045 40.3404 119.893 40.2204C119.749 40.0924 119.501 39.9844 119.149 39.8964L118.141 39.6564C117.613 39.5444 117.209 39.3484 116.929 39.0684C116.657 38.7804 116.521 38.4244 116.521 38.0004C116.521 37.4564 116.737 37.0164 117.169 36.6804C117.609 36.3444 118.189 36.1764 118.909 36.1764C119.341 36.1764 119.749 36.2444 120.133 36.3804C120.525 36.5164 120.857 36.7084 121.129 36.9564L120.757 37.8084C120.173 37.3444 119.557 37.1124 118.909 37.1124C118.517 37.1124 118.213 37.1884 117.997 37.3404C117.781 37.4844 117.673 37.6884 117.673 37.9524C117.673 38.1604 117.741 38.3284 117.877 38.4564C118.013 38.5844 118.229 38.6844 118.525 38.7564L119.557 39.0084C120.133 39.1364 120.557 39.3404 120.829 39.6204C121.109 39.8924 121.249 40.2484 121.249 40.6884C121.249 41.2324 121.029 41.6644 120.589 41.9844C120.157 42.2964 119.565 42.4524 118.813 42.4524ZM125.03 42.4524C123.974 42.4524 123.142 42.1964 122.534 41.6844L122.894 40.8084C123.526 41.2884 124.25 41.5284 125.066 41.5284C125.482 41.5284 125.798 41.4604 126.014 41.3244C126.23 41.1804 126.338 40.9804 126.338 40.7244C126.338 40.5084 126.262 40.3404 126.11 40.2204C125.966 40.0924 125.718 39.9844 125.366 39.8964L124.358 39.6564C123.83 39.5444 123.426 39.3484 123.146 39.0684C122.874 38.7804 122.738 38.4244 122.738 38.0004C122.738 37.4564 122.954 37.0164 123.386 36.6804C123.826 36.3444 124.406 36.1764 125.126 36.1764C125.558 36.1764 125.966 36.2444 126.35 36.3804C126.742 36.5164 127.074 36.7084 127.346 36.9564L126.974 37.8084C126.39 37.3444 125.774 37.1124 125.126 37.1124C124.734 37.1124 124.43 37.1884 124.214 37.3404C123.998 37.4844 123.89 37.6884 123.89 37.9524C123.89 38.1604 123.958 38.3284 124.094 38.4564C124.23 38.5844 124.446 38.6844 124.742 38.7564L125.774 39.0084C126.35 39.1364 126.774 39.3404 127.046 39.6204C127.326 39.8924 127.466 40.2484 127.466 40.6884C127.466 41.2324 127.246 41.6644 126.806 41.9844C126.374 42.2964 125.782 42.4524 125.03 42.4524ZM132.574 36.3204H133.774V42.3684H132.574V36.3204ZM133.87 33.6804V34.9524H132.466V33.6804H133.87ZM139.006 36.1764C140.454 36.1764 141.178 36.9844 141.178 38.6004V42.3684H139.966V38.6724C139.966 38.1444 139.862 37.7604 139.654 37.5204C139.454 37.2804 139.13 37.1604 138.682 37.1604C138.17 37.1604 137.758 37.3204 137.446 37.6404C137.142 37.9604 136.99 38.3884 136.99 38.9244V42.3684H135.79V38.0244C135.79 37.3924 135.758 36.8244 135.694 36.3204H136.822L136.93 37.3644C137.122 36.9804 137.398 36.6884 137.758 36.4884C138.126 36.2804 138.542 36.1764 139.006 36.1764ZM149.595 36.1764C149.779 36.1764 149.971 36.2044 150.171 36.2604L150.147 37.3644C149.931 37.2844 149.695 37.2444 149.439 37.2444C148.887 37.2444 148.471 37.4124 148.191 37.7484C147.919 38.0764 147.783 38.4924 147.783 38.9964V42.3684H146.583V38.0244C146.583 37.3924 146.551 36.8244 146.487 36.3204H147.615L147.723 37.4124C147.883 37.0124 148.131 36.7084 148.467 36.5004C148.803 36.2844 149.179 36.1764 149.595 36.1764ZM156.377 39.3684H152.057C152.097 40.7844 152.741 41.4924 153.989 41.4924C154.685 41.4924 155.321 41.2644 155.897 40.8084L156.269 41.6724C155.997 41.9124 155.649 42.1044 155.225 42.2484C154.809 42.3844 154.389 42.4524 153.965 42.4524C152.997 42.4524 152.237 42.1764 151.685 41.6244C151.133 41.0644 150.857 40.3004 150.857 39.3324C150.857 38.7164 150.977 38.1684 151.217 37.6884C151.465 37.2084 151.809 36.8364 152.249 36.5724C152.689 36.3084 153.189 36.1764 153.749 36.1764C154.565 36.1764 155.205 36.4404 155.669 36.9684C156.141 37.4964 156.377 38.2284 156.377 39.1644V39.3684ZM153.773 37.0764C153.317 37.0764 152.945 37.2124 152.657 37.4844C152.369 37.7564 152.185 38.1444 152.105 38.6484H155.309C155.261 38.1364 155.105 37.7484 154.841 37.4844C154.577 37.2124 154.221 37.0764 153.773 37.0764ZM163.54 36.3204V42.3684H162.34V41.3364C162.164 41.6964 161.9 41.9724 161.548 42.1644C161.204 42.3564 160.8 42.4524 160.336 42.4524C159.8 42.4524 159.328 42.3244 158.92 42.0684C158.52 41.8124 158.208 41.4524 157.984 40.9884C157.76 40.5164 157.648 39.9684 157.648 39.3444C157.648 38.7204 157.76 38.1684 157.984 37.6884C158.216 37.2084 158.536 36.8364 158.944 36.5724C159.352 36.3084 159.816 36.1764 160.336 36.1764C160.8 36.1764 161.204 36.2764 161.548 36.4764C161.892 36.6684 162.156 36.9444 162.34 37.3044V36.3204H163.54ZM160.624 41.4924C161.168 41.4924 161.588 41.3044 161.884 40.9284C162.188 40.5444 162.34 40.0084 162.34 39.3204C162.34 38.6244 162.188 38.0884 161.884 37.7124C161.588 37.3364 161.164 37.1484 160.612 37.1484C160.068 37.1484 159.64 37.3444 159.328 37.7364C159.024 38.1204 158.872 38.6564 158.872 39.3444C158.872 40.0244 159.024 40.5524 159.328 40.9284C159.64 41.3044 160.072 41.4924 160.624 41.4924ZM165.561 33.5364H166.761V42.3684H165.561V33.5364ZM173.788 37.2564V40.2924C173.788 40.7084 173.876 41.0044 174.052 41.1804C174.236 41.3484 174.488 41.4324 174.808 41.4324C175.016 41.4324 175.228 41.4004 175.444 41.3364V42.3204C175.18 42.4084 174.88 42.4524 174.544 42.4524C173.92 42.4524 173.436 42.2764 173.092 41.9244C172.748 41.5724 172.576 41.0604 172.576 40.3884V37.2564H171.4V36.3204H172.576V34.8084L173.788 34.3884V36.3204H175.456V37.2564H173.788ZM176.816 36.3204H178.016V42.3684H176.816V36.3204ZM178.112 33.6804V34.9524H176.708V33.6804H178.112ZM186.932 36.1764C188.276 36.1764 188.948 36.9844 188.948 38.6004V42.3684H187.736V38.6604C187.736 38.1404 187.644 37.7604 187.46 37.5204C187.284 37.2804 186.996 37.1604 186.596 37.1604C186.132 37.1604 185.764 37.3204 185.492 37.6404C185.228 37.9604 185.096 38.3964 185.096 38.9484V42.3684H183.884V38.6604C183.884 38.1404 183.792 37.7604 183.608 37.5204C183.432 37.2804 183.144 37.1604 182.744 37.1604C182.28 37.1604 181.912 37.3204 181.64 37.6404C181.368 37.9604 181.232 38.3964 181.232 38.9484V42.3684H180.032V38.0244C180.032 37.3924 180 36.8244 179.936 36.3204H181.064L181.172 37.3284C181.348 36.9604 181.6 36.6764 181.928 36.4764C182.256 36.2764 182.64 36.1764 183.08 36.1764C184.016 36.1764 184.628 36.5644 184.916 37.3404C185.1 36.9804 185.368 36.6964 185.72 36.4884C186.08 36.2804 186.484 36.1764 186.932 36.1764ZM196.085 39.3684H191.765C191.805 40.7844 192.449 41.4924 193.697 41.4924C194.393 41.4924 195.029 41.2644 195.605 40.8084L195.977 41.6724C195.705 41.9124 195.357 42.1044 194.933 42.2484C194.517 42.3844 194.097 42.4524 193.673 42.4524C192.705 42.4524 191.945 42.1764 191.393 41.6244C190.841 41.0644 190.565 40.3004 190.565 39.3324C190.565 38.7164 190.685 38.1684 190.925 37.6884C191.173 37.2084 191.517 36.8364 191.957 36.5724C192.397 36.3084 192.897 36.1764 193.457 36.1764C194.273 36.1764 194.913 36.4404 195.377 36.9684C195.849 37.4964 196.085 38.2284 196.085 39.1644V39.3684ZM193.481 37.0764C193.025 37.0764 192.653 37.2124 192.365 37.4844C192.077 37.7564 191.893 38.1444 191.813 38.6484H195.017C194.969 38.1364 194.813 37.7484 194.549 37.4844C194.285 37.2124 193.929 37.0764 193.481 37.0764Z" fill="#ABABAB"/>
<path d="M141.499 77.8531H139.317L137.681 82.7305L134.409 72.9757L132.773 77.8531H130.591" stroke="#46AC34" stroke-width="1.21787" stroke-linecap="round" stroke-linejoin="round"/>
<path d="M136.328 89.0423C142.032 89.0423 146.657 84.418 146.657 78.7137C146.657 73.0093 142.032 68.3851 136.328 68.3851C130.624 68.3851 126 73.0093 126 78.7137C126 84.418 130.624 89.0423 136.328 89.0423Z" stroke="#46AC34" stroke-width="1.21787" stroke-linecap="round" stroke-linejoin="round"/>
<path d="M148.951 91.3376L143.787 86.1733" stroke="#46AC34" stroke-width="1.21787" stroke-linecap="round" stroke-linejoin="round"/>
<defs>
<filter id="filter0_d_1438_5517" x="25.3762" y="200.368" width="55.2476" height="55.2476" filterUnits="userSpaceOnUse" color-interpolation-filters="sRGB">
<feFlood flood-opacity="0" result="BackgroundImageFix"/>
<feColorMatrix in="SourceAlpha" type="matrix" values="0 0 0 0 0 0 0 0 0 0 0 0 0 0 0 0 0 0 127 0" result="hardAlpha"/>
<feOffset dy="1.62382"/>
<feGaussianBlur stdDeviation="0.811912"/>
<feComposite in2="hardAlpha" operator="out"/>
<feColorMatrix type="matrix" values="0 0 0 0 0 0 0 0 0 0 0 0 0 0 0 0 0 0 0.25 0"/>
<feBlend mode="normal" in2="BackgroundImageFix" result="effect1_dropShadow_1438_5517"/>
<feBlend mode="normal" in="SourceGraphic" in2="effect1_dropShadow_1438_5517" result="shape"/>
</filter>
<filter id="filter1_d_1438_5517" x="193.376" y="200.368" width="55.2476" height="55.2476" filterUnits="userSpaceOnUse" color-interpolation-filters="sRGB">
<feFlood flood-opacity="0" result="BackgroundImageFix"/>
<feColorMatrix in="SourceAlpha" type="matrix" values="0 0 0 0 0 0 0 0 0 0 0 0 0 0 0 0 0 0 127 0" result="hardAlpha"/>
<feOffset dy="1.62382"/>
<feGaussianBlur stdDeviation="0.811912"/>
<feComposite in2="hardAlpha" operator="out"/>
<feColorMatrix type="matrix" values="0 0 0 0 0 0 0 0 0 0 0 0 0 0 0 0 0 0 0.25 0"/>
<feBlend mode="normal" in2="BackgroundImageFix" result="effect1_dropShadow_1438_5517"/>
<feBlend mode="normal" in="SourceGraphic" in2="effect1_dropShadow_1438_5517" result="shape"/>
</filter>
<filter id="filter2_d_1438_5517" x="109.376" y="53.3684" width="55.2476" height="55.2476" filterUnits="userSpaceOnUse" color-interpolation-filters="sRGB">
<feFlood flood-opacity="0" result="BackgroundImageFix"/>
<feColorMatrix in="SourceAlpha" type="matrix" values="0 0 0 0 0 0 0 0 0 0 0 0 0 0 0 0 0 0 127 0" result="hardAlpha"/>
<feOffset dy="1.62382"/>
<feGaussianBlur stdDeviation="0.811912"/>
<feComposite in2="hardAlpha" operator="out"/>
<feColorMatrix type="matrix" values="0 0 0 0 0 0 0 0 0 0 0 0 0 0 0 0 0 0 0.25 0"/>
<feBlend mode="normal" in2="BackgroundImageFix" result="effect1_dropShadow_1438_5517"/>
<feBlend mode="normal" in="SourceGraphic" in2="effect1_dropShadow_1438_5517" result="shape"/>
</filter>
</defs>
</svg>
