<svg width="120" height="120" viewBox="0 0 120 120" fill="none" xmlns="http://www.w3.org/2000/svg">
<circle cx="60" cy="60" r="42.4264" transform="rotate(-45 60 60)" fill="url(#paint0_linear_2334_19361)"/>
<path d="M40.1126 56.023C41.5771 56.023 42.7642 54.8358 42.7642 53.3714C42.7642 51.9069 41.5771 50.7197 40.1126 50.7197C38.6481 50.7197 37.4609 51.9069 37.4609 53.3714C37.4609 54.8358 38.6481 56.023 40.1126 56.023Z" stroke="#252525" stroke-width="2" stroke-linecap="round" stroke-linejoin="round"/>
<path d="M53.3704 42.7652C54.8349 42.7652 56.0221 41.578 56.0221 40.1136C56.0221 38.6491 54.8349 37.4619 53.3704 37.4619C51.9059 37.4619 50.7188 38.6491 50.7188 40.1136C50.7188 41.578 51.9059 42.7652 53.3704 42.7652Z" stroke="#252525" stroke-width="2" stroke-linecap="round" stroke-linejoin="round"/>
<path d="M53.3704 69.2808C54.8349 69.2808 56.0221 68.0937 56.0221 66.6292C56.0221 65.1647 54.8349 63.9775 53.3704 63.9775C51.9059 63.9775 50.7188 65.1647 50.7188 66.6292C50.7188 68.0937 51.9059 69.2808 53.3704 69.2808Z" stroke="#252525" stroke-width="2" stroke-linecap="round" stroke-linejoin="round"/>
<path d="M40.1126 82.5396C41.5771 82.5396 42.7642 81.3524 42.7642 79.888C42.7642 78.4235 41.5771 77.2363 40.1126 77.2363C38.6481 77.2363 37.4609 78.4235 37.4609 79.888C37.4609 81.3524 38.6481 82.5396 40.1126 82.5396Z" stroke="#252525" stroke-width="2" stroke-linecap="round" stroke-linejoin="round"/>
<path d="M66.6282 56.023C68.0927 56.023 69.2799 54.8358 69.2799 53.3714C69.2799 51.9069 68.0927 50.7197 66.6282 50.7197C65.1637 50.7197 63.9766 51.9069 63.9766 53.3714C63.9766 54.8358 65.1637 56.023 66.6282 56.023Z" stroke="#252525" stroke-width="2" stroke-linecap="round" stroke-linejoin="round"/>
<path d="M79.886 42.7652C81.3505 42.7652 82.5377 41.578 82.5377 40.1136C82.5377 38.6491 81.3505 37.4619 79.886 37.4619C78.4216 37.4619 77.2344 38.6491 77.2344 40.1136C77.2344 41.578 78.4216 42.7652 79.886 42.7652Z" stroke="#252525" stroke-width="2" stroke-linecap="round" stroke-linejoin="round"/>
<path d="M66.6282 82.5396C68.0927 82.5396 69.2799 81.3524 69.2799 79.888C69.2799 78.4235 68.0927 77.2363 66.6282 77.2363C65.1637 77.2363 63.9766 78.4235 63.9766 79.888C63.9766 81.3524 65.1637 82.5396 66.6282 82.5396Z" stroke="#252525" stroke-width="2" stroke-linecap="round" stroke-linejoin="round"/>
<path d="M79.886 69.2808C81.3505 69.2808 82.5377 68.0937 82.5377 66.6292C82.5377 65.1647 81.3505 63.9775 79.886 63.9775C78.4216 63.9775 77.2344 65.1647 77.2344 66.6292C77.2344 68.0937 78.4216 69.2808 79.886 69.2808Z" stroke="#252525" stroke-width="2" stroke-linecap="round" stroke-linejoin="round"/>
<defs>
<linearGradient id="paint0_linear_2334_19361" x1="60" y1="17.5736" x2="85.0207" y2="102.426" gradientUnits="userSpaceOnUse">
<stop stop-color="#A7CD7E"/>
<stop offset="1" stop-color="#7BCD25" stop-opacity="0"/>
</linearGradient>
</defs>
</svg>
