<svg width="360" height="584" viewBox="0 0 360 584" fill="none" xmlns="http://www.w3.org/2000/svg">
<path d="M360 0H0V584H360V0Z" fill="url(#paint0_linear_6622_20923)"/>
<g opacity="0.65">
<mask id="mask0_6622_20923" style="mask-type:alpha" maskUnits="userSpaceOnUse" x="-140" y="0" width="338" height="122">
<rect x="-140" width="337.231" height="121.275" fill="#C4C4C4"/>
</mask>
<g mask="url(#mask0_6622_20923)">
<g opacity="0.1">
<path d="M154.576 -26.8077L73.3121 -26.8077C68.7882 -26.8077 64.5155 -28.5665 61.2482 -31.6654C58.6511 -34.1779 55.8028 -37.0255 52.7868 -40.0406C46.4198 -46.4896 45.9171 -56.7911 51.6139 -63.9101C68.2017 -87.6121 84.8734 -62.4026 84.8734 -62.4026L84.9571 -62.5701C89.9837 -56.3724 97.6074 -52.3523 106.236 -52.3523C122.322 -52.3523 135.139 -66.0877 133.799 -82.4195C132.542 -96.9924 119.389 -107.713 104.812 -107.629C97.4398 -107.545 90.4026 -107.043 83.7005 -105.954C71.1339 -106.708 56.9756 -108.215 43.4037 -111.063C59.4889 -117.931 72.5581 -127.897 78.1712 -142.303C81.1872 -140.209 84.8734 -138.953 88.8109 -138.953C99.0317 -138.953 107.409 -147.244 107.409 -157.546C107.409 -167.847 99.1154 -176.139 88.8109 -176.139C78.5063 -176.139 70.2124 -167.847 70.2124 -157.546C70.2124 -154.866 70.7987 -152.437 71.8041 -150.092C67.5314 -132.169 50.3572 -121.281 29.413 -114.58C7.79857 -121.113 -10.2135 -132.085 -14.4861 -150.175C-13.5646 -152.437 -12.9781 -154.866 -12.9781 -157.462C-12.9781 -167.68 -21.2721 -176.055 -31.5766 -176.055C-41.8812 -176.055 -50.175 -167.763 -50.175 -157.462C-50.175 -147.16 -41.8812 -138.869 -31.5766 -138.869C-27.6391 -138.869 -23.9529 -140.125 -20.9369 -142.303C-15.2401 -127.646 -2.00332 -117.512 14.7521 -110.644C1.68287 -107.797 -11.889 -106.289 -24.1204 -105.451C-31.7441 -106.875 -39.703 -107.545 -47.9969 -107.545C-62.6578 -107.629 -75.727 -96.9087 -76.9837 -82.3357C-78.4079 -66.0039 -65.5062 -52.2685 -49.4211 -52.2685C-40.7921 -52.2685 -33.2521 -56.2886 -28.1417 -62.4863L-28.0579 -62.3188C-28.0579 -62.3188 -12.1403 -87.6959 5.2015 -63.8264C10.8983 -56.7074 10.4794 -46.4896 4.02858 -39.9569C1.01261 -36.9418 -1.83576 -34.0942 -4.43285 -31.5816C-7.70015 -28.4828 -11.9728 -26.7239 -16.4967 -26.7239L-25.2933 -26.7239L-26.2148 -26.7239L-98.4306 -26.7239C-112.924 -26.7239 -124.82 -14.8311 -124.82 -0.341873C-124.82 14.2311 -113.008 26.0402 -98.4306 26.0402L-25.7122 26.0402C-15.4914 26.0402 -7.11371 34.3317 -7.1137 44.6333L-7.1137 44.7171C-7.19748 75.1193 -62.4065 60.5463 -67.098 60.63L-67.4331 60.63C-81.9265 61.0488 -94.9119 70.9316 -97.7603 85.1696C-101.782 105.019 -86.618 122.523 -67.4331 122.523L-66.8467 122.523C-59.5581 122.691 -5.18683 125.036 7.21216 146.309C3.10708 147.482 0.00732994 151.083 0.00733033 155.522C0.0073308 160.882 4.36371 165.237 9.72542 165.237C10.0605 165.237 10.3957 165.07 10.7308 165.07C12.909 173.026 20.1138 178.889 28.659 178.889C37.288 178.889 44.4929 173.026 46.5873 165.07C47.0062 165.153 47.3413 165.321 47.6764 165.321C53.0381 165.321 57.3946 160.966 57.3946 155.606C57.3946 150.832 53.8759 147.063 49.3519 146.225C60.4105 126.543 107.158 123.193 120.479 122.691L123.243 122.607C140.334 122.607 154.157 108.788 154.157 91.7023C154.157 74.6168 140.334 60.7976 123.243 60.7976L122.489 60.7976C115.619 60.5463 64.2642 74.6168 64.3479 44.7171C64.3479 34.4992 72.8932 26.2077 83.114 26.2077L85.2921 26.2077L154.157 26.2077L155.665 26.2077C171.08 26.2077 183.479 12.9748 181.971 -2.77069C180.714 -16.7574 168.399 -26.8077 154.576 -26.8077ZM18.8571 -26.8077C21.8731 -29.7391 25.0566 -33.0891 28.3239 -36.6905C31.5912 -33.1729 34.7747 -29.7391 37.7907 -26.8077L18.8571 -26.8077ZM43.32 -86.2721C39.9689 -82.922 36.7854 -78.1481 34.6072 -75.133C32.6803 -72.4529 30.5859 -69.7728 28.4077 -67.0927C26.2295 -69.7728 24.2188 -73.4579 22.2919 -76.138C19.6111 -79.9069 19.5273 -80.2419 13.4954 -86.2721C7.96612 -91.7998 2.01797 -95.8199 -4.43285 -99.0025C6.62569 -100.426 18.1031 -102.604 28.8266 -105.786C39.4663 -102.771 50.8599 -100.678 62.1698 -99.3375C55.3838 -96.1549 49.1006 -91.9673 43.32 -86.2721Z" fill="#8FC055"/>
</g>
</g>
</g>
<g opacity="0.65">
<mask id="mask1_6622_20923" style="mask-type:alpha" maskUnits="userSpaceOnUse" x="227" y="215" width="267" height="119">
<rect x="493.164" y="333.065" width="266.162" height="118.065" transform="rotate(180 493.164 333.065)" fill="#C4C4C4"/>
</mask>
<g mask="url(#mask1_6622_20923)">
<g opacity="0.1">
<path d="M260.615 332.093H324.767C328.339 332.093 331.712 333.483 334.291 335.934C336.341 337.92 338.59 340.172 340.971 342.556C345.997 347.655 346.394 355.801 341.897 361.43C328.802 380.172 315.64 360.238 315.64 360.238L315.574 360.371C311.606 355.47 305.588 352.291 298.776 352.291C286.078 352.291 275.959 363.152 277.017 376.066C278.009 387.589 288.392 396.066 299.9 396C305.72 395.934 311.275 395.536 316.566 394.675C326.487 395.271 337.664 396.463 348.378 398.715C335.68 404.145 325.362 412.026 320.931 423.417C318.55 421.761 315.64 420.768 312.532 420.768C304.463 420.768 297.85 427.324 297.85 435.47C297.85 443.616 304.397 450.172 312.532 450.172C320.667 450.172 327.214 443.616 327.214 435.47C327.214 433.351 326.751 431.43 325.958 429.576C329.331 415.404 342.889 406.794 359.423 401.496C376.486 406.662 390.705 415.337 394.078 429.642C393.351 431.43 392.888 433.351 392.888 435.404C392.888 443.483 399.435 450.106 407.57 450.106C415.705 450.106 422.252 443.549 422.252 435.404C422.252 427.258 415.705 420.702 407.57 420.702C404.462 420.702 401.552 421.695 399.171 423.417C394.673 411.828 384.224 403.814 370.997 398.384C381.314 396.132 392.028 394.94 401.684 394.278C407.702 395.404 413.985 395.934 420.533 395.934C432.107 396 442.424 387.523 443.416 376C444.54 363.086 434.355 352.225 421.657 352.225C414.845 352.225 408.893 355.404 404.858 360.304L404.792 360.172C404.792 360.172 392.226 380.238 378.536 361.364C374.039 355.735 374.37 347.655 379.462 342.49C381.843 340.106 384.092 337.854 386.142 335.867C388.721 333.417 392.094 332.026 395.665 332.026H402.61H403.337H460.347C471.788 332.026 481.18 322.622 481.18 311.165C481.18 299.642 471.854 290.304 460.347 290.304H402.94C394.872 290.304 388.258 283.748 388.258 275.602V275.536C388.324 251.497 431.908 263.02 435.612 262.954H435.876C447.318 262.622 457.569 254.808 459.818 243.55C462.992 227.854 451.022 214.013 435.876 214.013H435.413C429.659 213.881 386.737 212.026 376.949 195.205C380.189 194.278 382.637 191.43 382.637 187.92C382.637 183.682 379.197 180.238 374.965 180.238C374.7 180.238 374.436 180.371 374.171 180.371C372.452 174.079 366.764 169.444 360.018 169.444C353.206 169.444 347.518 174.079 345.865 180.371C345.534 180.305 345.269 180.172 345.005 180.172C340.772 180.172 337.333 183.616 337.333 187.854C337.333 191.629 340.111 194.609 343.682 195.271C334.952 210.834 298.048 213.483 287.532 213.881L285.35 213.947C271.858 213.947 260.946 224.874 260.946 238.384C260.946 251.894 271.858 262.821 285.35 262.821H285.945C291.368 263.02 331.91 251.894 331.844 275.536C331.844 283.616 325.098 290.172 317.029 290.172H315.31H260.946H259.755C247.586 290.172 237.798 300.636 238.988 313.086C239.98 324.145 249.703 332.093 260.615 332.093ZM367.756 332.093C365.375 334.41 362.862 337.059 360.282 339.907C357.703 337.126 355.19 334.41 352.809 332.093H367.756ZM348.444 379.112C351.09 376.463 353.603 372.688 355.322 370.304C356.843 368.185 358.497 366.066 360.216 363.947C361.936 366.066 363.523 368.98 365.044 371.099C367.161 374.079 367.227 374.344 371.989 379.112C376.354 383.483 381.049 386.662 386.142 389.179C377.412 390.304 368.351 392.026 359.886 394.543C351.486 392.159 342.492 390.503 333.563 389.443C338.92 386.927 343.881 383.616 348.444 379.112Z" fill="#8FC055"/>
</g>
</g>
</g>
<defs>
<linearGradient id="paint0_linear_6622_20923" x1="176.531" y1="90.9657" x2="244.502" y2="441.182" gradientUnits="userSpaceOnUse">
<stop stop-color="#E6F0DF"/>
<stop offset="0.546875" stop-color="#F7FFEC" stop-opacity="0.1"/>
</linearGradient>
</defs>
</svg>
