<svg width="148" height="129" viewBox="0 0 148 129" fill="none" xmlns="http://www.w3.org/2000/svg">
<path d="M95.2836 33.7267L95.2836 33.7278C95.2965 38.5162 93.7044 43.1702 90.7624 46.9444L90.7599 46.9477C86.607 52.4089 84.355 59.0786 84.3423 65.9367H63.2951C63.2124 58.9861 60.9015 52.2425 56.6982 46.7034C54.6416 43.9834 53.2607 40.8123 52.6695 37.452C52.0784 34.0918 52.2941 30.6388 53.2987 27.3786C54.3033 24.1183 56.068 21.1443 58.447 18.7023C60.8259 16.2602 63.7509 14.4202 66.9801 13.3343C70.2093 12.2483 73.6501 11.9476 77.0183 12.4568C80.3865 12.966 83.5854 14.2707 86.3507 16.263C89.116 18.2554 91.3684 20.8782 92.9217 23.9148C94.475 26.9514 95.2846 30.3147 95.2836 33.7267Z" fill="white" stroke="black" stroke-width="0.711111"/>
<path d="M84.6955 66.9805H62.9381C62.7578 66.9805 62.5848 66.9087 62.4573 66.781C62.3298 66.6533 62.2582 66.4801 62.2582 66.2995C62.2396 59.4503 59.9962 52.7932 55.867 47.3336C53.7122 44.483 52.2654 41.1599 51.6461 37.6388C51.0267 34.1176 51.2524 30.4994 52.3047 27.0829C53.357 23.6664 55.2057 20.5496 57.698 17.9899C60.1903 15.4302 63.2548 13.501 66.6384 12.3617C70.022 11.2223 73.6277 10.9055 77.1577 11.4373C80.6877 11.9691 84.0408 13.3344 86.94 15.4203C89.8392 17.5063 92.2015 20.253 93.8316 23.4338C95.4618 26.6146 96.3132 30.1382 96.3154 33.7136C96.3266 38.7309 94.65 43.6057 91.5559 47.5515C87.4757 52.9408 85.3014 59.5364 85.3755 66.2995C85.3755 66.4801 85.3038 66.6533 85.1763 66.781C85.0488 66.9087 84.8759 66.9805 84.6955 66.9805ZM63.618 65.6185H84.0156C84.0997 58.7867 86.3763 52.1633 90.5089 46.7275C93.4085 43.0178 94.9772 38.4386 94.9623 33.7272C94.9583 30.8233 94.3601 27.9509 93.2047 25.2875C92.0494 22.624 90.3613 20.226 88.2447 18.2413C84.3721 14.6362 79.2915 12.6149 74.0045 12.576C68.7176 12.537 63.6079 14.4832 59.6827 18.0309C55.7575 21.5786 53.3016 26.4703 52.7992 31.7419C52.2968 37.0134 53.7843 42.2822 56.9684 46.5096C61.1307 52.0233 63.4569 58.7081 63.618 65.6185Z" fill="#252525"/>
<path d="M84.2039 72.3662H62.834C61.4371 72.3662 60.3047 73.5004 60.3047 74.8995V75.8801C60.3047 77.2792 61.4371 78.4133 62.834 78.4133H84.2039C85.6008 78.4133 86.7332 77.2792 86.7332 75.8801V74.8995C86.7332 73.5004 85.6008 72.3662 84.2039 72.3662Z" fill="#CDCDCD"/>
<path d="M84.2041 79.094H62.8342C61.9836 79.0922 61.1684 78.753 60.5669 78.1505C59.9655 77.5481 59.6268 76.7316 59.625 75.8796V74.899C59.6268 74.047 59.9655 73.2305 60.5669 72.628C61.1684 72.0256 61.9836 71.6864 62.8342 71.6846H84.2041C85.0547 71.6864 85.8699 72.0256 86.4714 72.628C87.0728 73.2305 87.4115 74.047 87.4133 74.899V75.8796C87.4115 76.7316 87.0728 77.5481 86.4714 78.1505C85.8699 78.753 85.0547 79.0922 84.2041 79.094ZM62.8342 73.0398C62.3437 73.0398 61.8733 73.235 61.5265 73.5823C61.1797 73.9297 60.9848 74.4009 60.9848 74.8921V75.8728C60.9848 76.3641 61.1797 76.8352 61.5265 77.1826C61.8733 77.53 62.3437 77.7252 62.8342 77.7252H84.2041C84.6946 77.7252 85.165 77.53 85.5118 77.1826C85.8586 76.8352 86.0535 76.3641 86.0535 75.8728V74.8921C86.0535 74.4009 85.8586 73.9297 85.5118 73.5823C85.165 73.235 84.6946 73.0398 84.2041 73.0398H62.8342Z" fill="white"/>
<path d="M84.2039 66.3193H62.834C61.4371 66.3193 60.3047 67.4536 60.3047 68.8527V69.8333C60.3047 71.2325 61.4371 72.3667 62.834 72.3667H84.2039C85.6008 72.3667 86.7332 71.2325 86.7332 69.8333V68.8527C86.7332 67.4536 85.6008 66.3193 84.2039 66.3193Z" fill="#CDCDCD"/>
<path d="M84.2041 73.0403H62.8342C61.9836 73.0385 61.1684 72.6992 60.5669 72.0968C59.9655 71.4944 59.6268 70.6779 59.625 69.8259V68.8452C59.6268 67.9933 59.9655 67.1767 60.5669 66.5743C61.1684 65.9719 61.9836 65.6327 62.8342 65.6309H84.2041C85.0547 65.6327 85.8699 65.9719 86.4714 66.5743C87.0728 67.1767 87.4115 67.9933 87.4133 68.8452V69.8259C87.4115 70.6779 87.0728 71.4944 86.4714 72.0968C85.8699 72.6992 85.0547 73.0385 84.2041 73.0403ZM62.8342 66.9929C62.3437 66.9929 61.8733 67.188 61.5265 67.5354C61.1797 67.8828 60.9848 68.354 60.9848 68.8452V69.8259C60.9848 70.3172 61.1797 70.7883 61.5265 71.1357C61.8733 71.4831 62.3437 71.6783 62.8342 71.6783H84.2041C84.6946 71.6783 85.165 71.4831 85.5118 71.1357C85.8586 70.7883 86.0535 70.3172 86.0535 69.8259V68.8452C86.0535 68.354 85.8586 67.8828 85.5118 67.5354C85.165 67.188 84.6946 66.9929 84.2041 66.9929H62.8342Z" fill="white"/>
<path d="M84.2039 60.2715H62.834C61.4371 60.2715 60.3047 61.4057 60.3047 62.8047V63.7854C60.3047 65.1844 61.4371 66.3186 62.834 66.3186H84.2039C85.6008 66.3186 86.7332 65.1844 86.7332 63.7854V62.8047C86.7332 61.4057 85.6008 60.2715 84.2039 60.2715Z" fill="#CDCDCD"/>
<path d="M84.2041 66.999H62.8342C61.9836 66.9972 61.1684 66.658 60.5669 66.0556C59.9655 65.4532 59.6268 64.6367 59.625 63.7848V62.8246C59.6268 61.9727 59.9655 61.1562 60.5669 60.5538C61.1684 59.9514 61.9836 59.6122 62.8342 59.6104H84.2041C85.0547 59.6122 85.8699 59.9514 86.4714 60.5538C87.0728 61.1562 87.4115 61.9727 87.4133 62.8246V63.8052C87.4062 64.6536 87.0651 65.4649 86.4642 66.0628C85.8633 66.6608 85.0512 66.9973 84.2041 66.999ZM62.8342 60.9519C62.3437 60.9519 61.8733 61.147 61.5265 61.4944C61.1797 61.8418 60.9848 62.3129 60.9848 62.8042V63.7848C60.9848 64.276 61.1797 64.7472 61.5265 65.0945C61.8733 65.4419 62.3437 65.6371 62.8342 65.6371H84.2041C84.6946 65.6371 85.165 65.4419 85.5118 65.0945C85.8586 64.7472 86.0535 64.276 86.0535 63.7848V62.8246C86.0535 62.3333 85.8586 61.8622 85.5118 61.5148C85.165 61.1675 84.6946 60.9723 84.2041 60.9723L62.8342 60.9519Z" fill="white"/>
<path d="M108.191 127.322V97.8635C108.191 92.8004 106.183 87.9448 102.61 84.3642C99.0362 80.7837 94.1893 78.7714 89.1348 78.7696C89.1348 78.7696 89.1347 78.7696 89.1347 78.7696M108.191 127.322L89.1348 78.4141L89.1347 78.7696M108.191 127.322H39.4415V97.8635C39.4415 92.8004 41.4491 87.9448 45.0227 84.3642C48.5963 80.7837 53.4432 78.7714 58.4976 78.7696C58.4977 78.7696 58.4977 78.7696 58.4978 78.7696M108.191 127.322L58.4978 78.7696M89.1347 78.7696H58.4978M89.1347 78.7696H58.4978" fill="#D2E6BB" stroke="black" stroke-width="0.711111"/>
<path d="M108.547 128.358H39.0862C38.9058 128.358 38.7329 128.286 38.6054 128.158C38.4779 128.031 38.4062 127.858 38.4062 127.677V97.8628C38.4116 92.5267 40.53 87.4106 44.2965 83.6368C48.0631 79.863 53.1703 77.7396 58.4979 77.7324H89.1351C94.4627 77.7396 99.5699 79.863 103.336 83.6368C107.103 87.4106 109.221 92.5267 109.227 97.8628V127.677C109.227 127.858 109.155 128.031 109.028 128.158C108.9 128.286 108.727 128.358 108.547 128.358ZM39.7661 126.996H107.867V97.8628C107.863 92.8874 105.889 88.1167 102.377 84.5979C98.865 81.0792 94.1026 79.0998 89.1351 79.0944H58.4979C53.5304 79.0998 48.768 81.0792 45.2561 84.5979C41.7441 88.1167 39.7697 92.8874 39.7661 97.8628V126.996Z" fill="#252525"/>
<path d="M86.4697 78.4141L79.079 100.628L73.3948 117.708L67.8739 99.6953L61.3398 78.4141H86.4697Z" fill="white"/>
<path d="M73.3915 118.388C73.2407 118.395 73.092 118.35 72.9689 118.263C72.8458 118.175 72.7553 118.049 72.7116 117.905L60.6634 78.6109C60.6318 78.5089 60.6246 78.401 60.6423 78.2957C60.66 78.1904 60.7022 78.0908 60.7654 78.0048C60.8287 77.9202 60.9109 77.8516 61.0053 77.8043C61.0997 77.757 61.2038 77.7324 61.3094 77.7324H86.4664C86.5737 77.7325 86.6795 77.758 86.7751 77.8069C86.8706 77.8558 86.9533 77.9266 87.0163 78.0136C87.0793 78.1006 87.1209 78.2014 87.1375 78.3075C87.1542 78.4137 87.1456 78.5223 87.1123 78.6245L74.0375 117.925C73.9918 118.06 73.9049 118.178 73.789 118.261C73.6731 118.344 73.5341 118.388 73.3915 118.388ZM62.2544 79.0944L73.4119 115.473L85.5213 79.0944H62.2544Z" fill="white"/>
<path d="M72.3051 78.5918H75.3171C76.3753 78.5918 77.2335 79.4511 77.2335 80.5116V81.9894C77.2335 83.0499 76.3753 83.9091 75.3171 83.9091H72.3051C71.247 83.9091 70.3887 83.0499 70.3887 81.9894V80.5116C70.3887 79.4511 71.247 78.5918 72.3051 78.5918Z" fill="#EEF6E5" stroke="black" stroke-width="0.355556"/>
<path d="M79.0393 103.442L73.3679 122.726L68.0263 103.01L71.8098 84.3389H75.7697L79.0393 103.442Z" fill="#EEF6E5" stroke="black" stroke-width="0.355556"/>
<path d="M54.9143 128.357C54.734 128.357 54.561 128.285 54.4335 128.157C54.306 128.03 54.2344 127.857 54.2344 127.676V95.1449C54.2344 94.9643 54.306 94.791 54.4335 94.6633C54.561 94.5356 54.734 94.4639 54.9143 94.4639C55.0946 94.4639 55.2676 94.5356 55.3951 94.6633C55.5226 94.791 55.5942 94.9643 55.5942 95.1449V127.676C55.5942 127.857 55.5226 128.03 55.3951 128.157C55.2676 128.285 55.0946 128.357 54.9143 128.357Z" fill="#252525"/>
<path d="M92.719 128.357C92.5387 128.357 92.3657 128.285 92.2382 128.157C92.1107 128.03 92.0391 127.857 92.0391 127.676V95.1449C92.0391 94.9643 92.1107 94.791 92.2382 94.6633C92.3657 94.5356 92.5387 94.4639 92.719 94.4639C92.8993 94.4639 93.0722 94.5356 93.1998 94.6633C93.3273 94.791 93.3989 94.9643 93.3989 95.1449V127.676C93.3989 127.857 93.3273 128.03 93.1998 128.157C93.0722 128.285 92.8993 128.357 92.719 128.357Z" fill="#252525"/>
<path d="M39.0847 127.677L30.5993 94.6279L19.1562 98.0602L23.5077 127.677H39.0847Z" fill="#D2E6BB"/>
<path d="M39.3414 127.894L39.4766 128.002L39.3414 127.894C39.3099 127.933 39.2696 127.965 39.2239 127.986C39.2104 127.992 39.1965 127.997 39.1823 128.002H39.087L23.5032 128.002L23.4992 128.002C23.4211 128.002 23.3453 127.975 23.2857 127.924C23.2262 127.874 23.1868 127.803 23.1749 127.726C23.1749 127.725 23.1749 127.725 23.1749 127.725L18.8237 98.1042C18.8237 98.104 18.8237 98.1039 18.8237 98.1038C18.8127 98.0267 18.8296 97.9483 18.8713 97.8826C18.9129 97.8172 18.9764 97.7689 19.0502 97.7463C19.0504 97.7462 19.0507 97.7461 19.0509 97.7461L30.4922 94.3416C30.4922 94.3416 30.4922 94.3416 30.4922 94.3416C30.5341 94.3292 30.5781 94.3253 30.6214 94.3303C30.6646 94.3353 30.7063 94.349 30.7441 94.3705C30.7814 94.3921 30.814 94.4209 30.8401 94.4554C30.8663 94.49 30.8854 94.5297 30.8961 94.5718L30.8964 94.573L39.4022 127.608L39.4023 127.608C39.4149 127.657 39.416 127.709 39.4054 127.758C39.3948 127.808 39.3729 127.854 39.3414 127.894ZM23.777 127.047L23.822 127.351H24.1288H38.2439H38.7029L38.5882 126.906L30.4631 95.4238L30.3707 95.0657L30.0165 95.1721L19.8177 98.2366L19.5233 98.3251L19.5683 98.6292L23.777 127.047Z" fill="white" stroke="black" stroke-width="0.711111"/>
<path d="M30.5992 94.6277C30.5992 94.6277 30.1097 88.6554 28.6479 85.6045C27.186 82.5536 24.9967 78.6582 24.0244 80.1564C23.0521 81.6547 24.9967 85.8837 24.9967 85.8837C24.9967 85.8837 7.83551 82.3493 6.01333 84.5217C4.19114 86.6941 4.42912 89.2887 6.01333 90.6166C7.59754 91.9446 17.6672 95.3837 17.6672 95.3837C18.3219 96.1953 18.8262 97.1179 19.1562 98.1077L30.5992 94.6277Z" fill="white"/>
<path d="M19.1604 98.7412C19.0051 98.7457 18.8529 98.6968 18.7292 98.6026C18.6055 98.5085 18.5177 98.3747 18.4805 98.2236C18.2008 97.3946 17.7799 96.6204 17.2362 95.9355C15.5636 95.3634 7.11903 92.442 5.55521 91.1208C3.56985 89.4388 3.51546 86.4083 5.47363 84.0725C7.24142 81.9478 18.7593 83.9295 23.8722 84.9306C23.3011 83.412 22.6212 80.9808 23.4439 79.7414C23.5607 79.5402 23.7317 79.376 23.9373 79.2676C24.1429 79.1592 24.3749 79.111 24.6066 79.1285C25.1233 79.1625 26.3404 79.2443 29.2436 85.3119C30.7462 88.4377 31.2358 94.3215 31.2834 94.5735C31.2898 94.7246 31.2459 94.8735 31.1585 94.9968C31.0711 95.1201 30.9452 95.2107 30.8006 95.2545L19.3644 98.6594C19.2996 98.6942 19.2312 98.7216 19.1604 98.7412ZM9.26757 84.4403C7.80575 84.4403 6.81986 84.5833 6.5479 84.9238C4.87529 86.9668 5.24245 89.0097 6.45951 90.0653C7.54738 90.9846 13.8978 93.3341 17.8958 94.6892C18.0161 94.7317 18.1222 94.8072 18.2017 94.9072C18.7643 95.6068 19.2351 96.3758 19.6024 97.1953L29.8691 94.1513C29.7128 92.6326 29.1892 88.2947 28.0402 85.918C26.1636 82.0091 25.0145 80.7084 24.5998 80.5245C24.1034 81.403 24.9125 84.0317 25.6196 85.5843C25.6665 85.6955 25.683 85.8172 25.6674 85.9368C25.6519 86.0565 25.6049 86.1698 25.5312 86.2653C25.4524 86.3661 25.3468 86.4425 25.2265 86.4859C25.1062 86.5292 24.9762 86.5378 24.8513 86.5105C19.1536 85.3392 12.8168 84.4607 9.26757 84.4607V84.4403Z" fill="#CDCDCD"/>
<path d="M21.3486 90.3108C21.1773 90.3113 21.0121 90.2471 20.886 90.131C20.76 90.0148 20.6823 89.8553 20.6686 89.6843C20.4443 86.79 23.3203 85.4689 24.8773 85.1829C25.053 85.1509 25.2342 85.1893 25.3818 85.29C25.5293 85.3907 25.6314 85.5454 25.666 85.7209C25.7 85.8978 25.6625 86.081 25.5618 86.2304C25.4612 86.3797 25.3055 86.483 25.1289 86.5176C24.9929 86.5176 21.8381 87.1986 22.0285 89.5753C22.0416 89.7549 21.9832 89.9324 21.8659 90.069C21.7487 90.2056 21.5822 90.2901 21.403 90.304L21.3486 90.3108Z" fill="white"/>
<path d="M108.996 127.677L117.481 94.6279L128.925 98.0602L124.573 127.677H108.996Z" fill="#D2E6BB"/>
<path d="M108.995 128.002V128.002L108.983 128.002C108.933 128.004 108.883 127.994 108.837 127.973C108.792 127.951 108.751 127.92 108.72 127.88C108.688 127.841 108.666 127.795 108.656 127.745C108.645 127.696 108.646 127.644 108.659 127.595L108.659 127.595L117.144 94.5457L117.145 94.5449C117.155 94.5022 117.175 94.4622 117.202 94.4273C117.228 94.3923 117.262 94.3632 117.3 94.3417C117.338 94.3201 117.38 94.3066 117.424 94.3018C117.467 94.297 117.511 94.3012 117.553 94.3139L117.555 94.3146L128.992 97.7196L128.993 97.7201C129.068 97.7419 129.133 97.7901 129.175 97.8558C129.217 97.9214 129.235 98 129.224 98.0774C129.224 98.0777 129.224 98.0779 129.224 98.0782L124.872 127.7L124.872 127.7L124.871 127.713C124.862 127.791 124.826 127.863 124.769 127.916C124.713 127.968 124.64 127.998 124.564 128.002H108.995ZM109.527 126.907L109.413 127.351H109.872H123.987H124.294L124.339 127.047L128.513 98.5949L128.558 98.2911L128.264 98.2028L118.065 95.1383L117.71 95.0317L117.618 95.3904L109.527 126.907Z" fill="white" stroke="black" stroke-width="0.711111"/>
<path d="M117.48 94.6277C117.48 94.6277 117.97 88.6554 119.432 85.6045C120.894 82.5536 123.083 78.6582 124.055 80.1564C125.028 81.6547 123.083 85.8837 123.083 85.8837C123.083 85.8837 140.237 82.3493 142.066 84.5217C143.895 86.6941 143.651 89.2887 142.066 90.6166C140.482 91.9446 130.413 95.3837 130.413 95.3837C129.758 96.1953 129.253 97.1179 128.924 98.1077L117.48 94.6277Z" fill="white"/>
<path d="M128.924 98.7407C128.859 98.7478 128.793 98.7478 128.727 98.7407L117.284 95.3357C117.14 95.292 117.014 95.2014 116.926 95.0781C116.839 94.9548 116.795 94.8058 116.801 94.6547C116.801 94.4028 117.318 88.5258 118.841 85.3932C121.751 79.3255 122.961 79.2642 123.485 79.2097C123.716 79.1946 123.947 79.2439 124.153 79.352C124.358 79.4602 124.529 79.623 124.648 79.8226C125.47 81.062 124.784 83.4932 124.219 85.0118C129.326 84.0107 140.843 82.0222 142.618 84.1537C144.556 86.4896 144.522 89.52 142.536 91.2021C140.973 92.5232 132.528 95.4447 130.855 96.0167C130.303 96.6772 129.868 97.4283 129.57 98.2368C129.533 98.3879 129.445 98.5217 129.322 98.6158C129.198 98.71 129.046 98.7589 128.89 98.7543L128.924 98.7407ZM118.216 94.1508L128.489 97.2357C128.857 96.4162 129.327 95.6472 129.89 94.9476C129.969 94.8476 130.075 94.7721 130.196 94.7297C134.194 93.3677 140.537 91.025 141.625 90.1057C142.849 89.0706 143.216 86.9731 141.544 84.9641C140.578 83.8064 131.277 84.8756 123.22 86.5372C123.095 86.5645 122.965 86.556 122.845 86.5126C122.724 86.4693 122.619 86.3928 122.54 86.2921C122.467 86.196 122.422 86.0823 122.407 85.9626C122.393 85.843 122.411 85.7217 122.458 85.6111C123.179 84.0312 124.002 81.3344 123.485 80.5513C123.077 80.7215 121.921 82.0154 120.038 85.9448C118.909 88.2738 118.372 92.6117 118.216 94.1508Z" fill="#CDCDCD"/>
<path d="M126.737 90.3103H126.682C126.503 90.2964 126.337 90.2119 126.219 90.0753C126.102 89.9388 126.044 89.7612 126.057 89.5816C126.247 87.1845 123.092 86.5512 122.956 86.5239C122.776 86.4905 122.616 86.3867 122.512 86.2354C122.408 86.0841 122.369 85.8976 122.402 85.717C122.436 85.5364 122.539 85.3764 122.69 85.2723C122.841 85.1682 123.028 85.1285 123.208 85.1619C124.765 85.448 127.641 86.7691 127.41 89.6634C127.401 89.8368 127.327 90.0004 127.201 90.1207C127.076 90.241 126.91 90.3088 126.737 90.3103Z" fill="white"/>
<path d="M39.1401 54.605C39.1224 54.1146 38.9435 53.6438 38.6312 53.2658C38.3189 52.8877 37.8907 52.6235 37.4131 52.5143C36.5768 52.3304 35.7269 52.1942 34.8838 52.0649C34.767 52.0573 34.6556 52.0131 34.5653 51.9385C34.475 51.8639 34.4104 51.7628 34.3807 51.6494C34.1291 50.9684 33.8503 50.2874 33.558 49.6541C33.5106 49.5766 33.489 49.486 33.4964 49.3955C33.5037 49.3049 33.5396 49.219 33.5988 49.1502C34.1087 48.4692 34.6322 47.7473 35.1014 47.0186C35.3763 46.6075 35.5062 46.1162 35.4705 45.6227C35.4348 45.1291 35.2355 44.6617 34.9042 44.2946C34.1291 43.4502 33.2996 42.6466 32.4905 41.8362C32.0915 41.3836 31.5352 41.1006 30.935 41.0449C30.3348 40.9892 29.736 41.1651 29.2609 41.5365C28.6285 41.9792 27.9962 42.4287 27.3707 42.8985C27.3035 42.96 27.2185 42.9984 27.128 43.0082C27.0375 43.018 26.9463 42.9987 26.8675 42.953C26.1876 42.633 25.4329 42.3333 24.6986 42.0541C24.611 42.0307 24.5327 41.9809 24.4744 41.9115C24.416 41.8421 24.3803 41.7563 24.3722 41.6659C24.2567 40.8896 24.1275 40.1132 23.9915 39.3437C23.9209 38.7929 23.6572 38.285 23.2475 37.9108C22.8378 37.5366 22.3087 37.3204 21.7546 37.3007C20.567 37.2735 19.3771 37.2735 18.185 37.3007C17.6788 37.3112 17.1908 37.4914 16.7989 37.8123C16.4069 38.1333 16.1337 38.5766 16.0228 39.0713C15.8325 39.943 15.6965 40.8215 15.5537 41.6932C15.5469 41.7848 15.5119 41.872 15.4534 41.9428C15.3949 42.0136 15.3159 42.0644 15.2273 42.0882C14.5474 42.3674 13.8675 42.6602 13.1876 42.9666C13.1143 43.0118 13.0286 43.0323 12.9429 43.0249C12.8572 43.0176 12.7761 42.9828 12.7116 42.9258C12.0317 42.4218 11.3518 41.9043 10.6243 41.4344C10.2152 41.1586 9.72637 41.0264 9.23428 41.0584C8.74219 41.0904 8.27458 41.2849 7.90459 41.6115C6.99803 42.4423 6.1232 43.3094 5.28009 44.2129C4.88522 44.6124 4.65102 45.1436 4.62217 45.7051C4.59333 46.2665 4.77186 46.8189 5.12372 47.257C5.59286 47.938 6.0756 48.619 6.53115 49.2591C6.56289 49.3118 6.58297 49.3706 6.59001 49.4317C6.59704 49.4928 6.59088 49.5547 6.57194 49.6132C6.28638 50.3623 5.98041 51.1114 5.66765 51.8469C5.64089 51.9036 5.60206 51.9537 5.5539 51.9937C5.50574 52.0337 5.44941 52.0626 5.38888 52.0785C4.62057 52.2215 3.84546 52.3509 3.07036 52.4735C2.52977 52.5409 2.02982 52.7958 1.65724 53.1938C1.28465 53.5919 1.06295 54.108 1.0306 54.6527C0.989801 55.8921 0.989801 57.1383 1.0306 58.3846C1.05264 58.8701 1.23169 59.3352 1.54075 59.7099C1.84982 60.0845 2.27213 60.3484 2.744 60.4616C3.62789 60.6591 4.52539 60.7953 5.42288 60.9451C5.50847 60.9535 5.58967 60.9871 5.65623 61.0416C5.72278 61.0961 5.77171 61.1692 5.79683 61.2516C6.0756 61.9326 6.37477 62.6613 6.68073 63.3559C6.72257 63.4254 6.74118 63.5065 6.73384 63.5873C6.7265 63.6681 6.6936 63.7445 6.63993 63.8053C6.17079 64.4455 5.70164 65.0856 5.28009 65.7462C4.92899 66.2102 4.76242 66.7883 4.81267 67.3684C4.86292 67.9484 5.12641 68.4891 5.55206 68.8856C6.29544 69.6483 7.04789 70.402 7.8094 71.1466C8.21338 71.5901 8.77116 71.8625 9.36886 71.908C9.96655 71.9536 10.5591 71.7689 11.0254 71.3917C11.7053 70.9354 12.3173 70.4792 12.9564 70.0297C13.0188 69.9848 13.0937 69.9607 13.1706 69.9607C13.2474 69.9607 13.3223 69.9848 13.3847 70.0297C14.0647 70.3157 14.7038 70.6018 15.3769 70.8469C15.4801 70.8759 15.5713 70.9371 15.6374 71.0216C15.7034 71.1061 15.7408 71.2095 15.7441 71.3168C15.8596 72.0795 15.9888 72.8423 16.1248 73.605C16.1932 74.1351 16.4437 74.6248 16.8333 74.9901C17.2228 75.3554 17.7272 75.5736 18.2598 75.6071C19.5108 75.6548 20.7619 75.648 22.0129 75.6071C22.5031 75.5834 22.972 75.3994 23.3478 75.0833C23.7235 74.7672 23.9855 74.3364 24.0935 73.8569C24.2771 73.0125 24.4062 72.1544 24.549 71.2964C24.5549 71.195 24.5921 71.098 24.6555 71.0187C24.7188 70.9394 24.8051 70.8818 24.9026 70.8537C25.5825 70.5881 26.2964 70.2953 26.9831 69.9889C27.0541 69.9508 27.1348 69.935 27.2148 69.9435C27.2949 69.952 27.3705 69.9844 27.4319 70.0365C28.071 70.5064 28.7237 70.9627 29.3697 71.3985C29.8198 71.7288 30.3693 71.8946 30.9267 71.8684C31.4357 71.8622 31.9227 71.6598 32.2865 71.3032C33.1092 70.5268 33.8979 69.7233 34.7002 68.9265C35.1621 68.5212 35.4502 67.9532 35.5047 67.3406C35.5591 66.728 35.3757 66.1179 34.9926 65.6372C34.5506 65.0039 34.1019 64.3774 33.6327 63.7509C33.5793 63.6888 33.5461 63.6118 33.5375 63.5302C33.529 63.4486 33.5457 63.3664 33.5852 63.2946C33.8889 62.6 34.1812 61.8985 34.4622 61.1903C34.4857 61.1007 34.5374 61.0212 34.6097 60.9635C34.682 60.9058 34.771 60.8731 34.8634 60.8702L37.1751 60.4889C37.7228 60.4214 38.2287 60.1611 38.6024 59.7543C38.9761 59.3476 39.1932 58.8211 39.2149 58.2688C39.1401 57.0566 39.1401 55.8308 39.1401 54.605ZM20.0276 64.7179C18.3952 64.7206 16.7988 64.2381 15.4404 63.3314C14.0821 62.4248 13.0229 61.1348 12.3969 59.6248C11.771 58.1148 11.6066 56.4528 11.9243 54.8491C12.2421 53.2455 13.0279 51.7723 14.1822 50.6162C15.3364 49.4602 16.8072 48.6731 18.4083 48.3548C20.0094 48.0365 21.6688 48.2013 23.1764 48.8282C24.684 49.4551 25.9719 50.516 26.8771 51.8765C27.7823 53.237 28.2641 54.836 28.2614 56.4709C28.2578 58.6606 27.3863 60.7592 25.8386 62.3056C24.2908 63.8521 22.1933 64.7197 20.0072 64.7179H20.0276Z" fill="#EEF6E5" stroke="#252525" stroke-width="1.44356" stroke-linecap="round" stroke-linejoin="round"/>
<path d="M146.702 54.605C146.684 54.1146 146.505 53.6438 146.193 53.2658C145.88 52.8877 145.452 52.6235 144.975 52.5143C144.138 52.3304 143.288 52.1942 142.445 52.0649C142.329 52.0563 142.218 52.0117 142.128 51.9373C142.038 51.8629 141.973 51.7623 141.942 51.6494C141.691 50.9684 141.412 50.2874 141.119 49.6541C141.073 49.5759 141.053 49.4849 141.061 49.3944C141.07 49.3038 141.107 49.2182 141.167 49.1502C141.677 48.4692 142.194 47.7473 142.663 47.0186C142.938 46.6075 143.068 46.1162 143.032 45.6227C142.996 45.1291 142.797 44.6617 142.466 44.2946C141.697 43.4502 140.868 42.6466 140.059 41.8362C139.658 41.3846 139.1 41.1024 138.5 41.0468C137.899 40.9911 137.299 41.1662 136.822 41.5365C136.19 41.9792 135.558 42.4287 134.939 42.8985C134.87 42.9596 134.784 42.9977 134.693 43.0075C134.601 43.0172 134.509 42.9982 134.429 42.953C133.717 42.6352 132.997 42.3356 132.267 42.0541C132.178 42.0336 132.098 41.9846 132.039 41.9146C131.98 41.8446 131.946 41.7573 131.941 41.6659C131.818 40.8896 131.689 40.1132 131.553 39.3437C131.482 38.7929 131.219 38.285 130.809 37.9108C130.399 37.5366 129.87 37.3204 129.316 37.3007C128.128 37.2735 126.939 37.2735 125.746 37.3007C125.241 37.3124 124.753 37.493 124.362 37.8138C123.97 38.1345 123.696 38.5771 123.584 39.0713C123.394 39.943 123.258 40.8215 123.115 41.6932C123.108 41.7848 123.073 41.872 123.015 41.9428C122.956 42.0136 122.877 42.0644 122.789 42.0882C122.109 42.3674 121.429 42.6602 120.749 42.9666C120.675 43.0124 120.588 43.0331 120.501 43.0258C120.414 43.0184 120.332 42.9834 120.266 42.9258C119.586 42.4218 118.906 41.9043 118.179 41.4344C117.77 41.1586 117.281 41.0264 116.789 41.0584C116.297 41.0904 115.829 41.2849 115.459 41.6115C114.555 42.4423 113.671 43.3072 112.835 44.2129C112.44 44.6124 112.206 45.1436 112.177 45.7051C112.148 46.2665 112.327 46.8189 112.678 47.257C113.148 47.938 113.63 48.619 114.086 49.2591C114.118 49.3118 114.138 49.3706 114.145 49.4317C114.152 49.4928 114.146 49.5547 114.127 49.6132C113.841 50.3623 113.542 51.1114 113.222 51.8469C113.196 51.9041 113.158 51.9547 113.11 51.9948C113.061 52.0349 113.004 52.0635 112.944 52.0785C112.175 52.2215 111.4 52.3509 110.625 52.4735C110.084 52.5409 109.585 52.7958 109.212 53.1938C108.839 53.5919 108.618 54.108 108.585 54.6527C108.544 55.8921 108.544 57.1383 108.585 58.3846C108.607 58.8701 108.786 59.3352 109.095 59.7099C109.405 60.0845 109.827 60.3484 110.299 60.4616C111.183 60.6591 112.087 60.7953 112.978 60.9451C113.064 60.9517 113.146 60.9846 113.213 61.0394C113.28 61.0942 113.328 61.1683 113.352 61.2516C113.63 61.9326 113.929 62.6613 114.242 63.3559C114.281 63.4263 114.298 63.5068 114.291 63.5869C114.284 63.667 114.252 63.7431 114.201 63.8053C113.725 64.4455 113.256 65.0856 112.842 65.7462C112.488 66.2088 112.32 66.7868 112.369 67.3672C112.418 67.9477 112.681 68.489 113.107 68.8856C113.855 69.6483 114.603 70.4043 115.364 71.1466C115.768 71.5901 116.326 71.8625 116.924 71.908C117.521 71.9536 118.114 71.7689 118.58 71.3917C119.226 70.9354 119.879 70.4792 120.518 70.0297C120.579 69.9854 120.653 69.9615 120.729 69.9615C120.804 69.9615 120.878 69.9854 120.939 70.0297C121.619 70.3157 122.258 70.6018 122.932 70.8469C123.035 70.8765 123.127 70.9377 123.194 71.0219C123.261 71.1062 123.3 71.2093 123.306 71.3168C123.421 72.0795 123.544 72.8423 123.679 73.605C123.748 74.1351 123.998 74.6248 124.388 74.9901C124.778 75.3554 125.282 75.5736 125.814 75.6071C127.066 75.6548 128.323 75.648 129.574 75.6071C130.064 75.5823 130.533 75.3979 130.908 75.082C131.284 74.7661 131.546 74.3359 131.655 73.8569C131.839 73.0125 131.961 72.1544 132.104 71.2964C132.112 71.1956 132.149 71.0995 132.212 71.0205C132.276 70.9416 132.361 70.8835 132.457 70.8537C133.137 70.5881 133.851 70.2953 134.538 69.9889C134.609 69.9508 134.689 69.935 134.77 69.9435C134.85 69.952 134.925 69.9844 134.987 70.0365C135.632 70.5064 136.278 70.9627 136.924 71.3985C137.374 71.7288 137.924 71.8946 138.481 71.8684C138.99 71.8622 139.477 71.6598 139.841 71.3032C140.664 70.5268 141.453 69.7233 142.255 68.9265C142.718 68.5221 143.007 67.9539 143.062 67.3408C143.116 66.7277 142.932 66.1172 142.547 65.6372C142.105 65.0039 141.657 64.3774 141.187 63.7509C141.136 63.6879 141.104 63.611 141.095 63.5299C141.087 63.4488 141.102 63.3669 141.14 63.2946C141.448 62.6 141.74 61.8985 142.017 61.1903C142.041 61.1013 142.093 61.0223 142.165 60.9648C142.238 60.9073 142.326 60.8741 142.418 60.8702L144.737 60.4889C145.284 60.4214 145.79 60.1611 146.164 59.7543C146.538 59.3476 146.755 58.8211 146.776 58.2688C146.736 57.0566 146.736 55.8308 146.702 54.605ZM127.596 64.7179C125.965 64.7152 124.371 64.2281 123.016 63.3182C121.661 62.4082 120.606 61.1164 119.985 59.6059C119.363 58.0955 119.202 56.4343 119.523 54.8324C119.844 53.2306 120.632 51.76 121.787 50.6066C122.943 49.4533 124.413 48.6689 126.014 48.3528C127.614 48.0368 129.272 48.2031 130.778 48.8308C132.284 49.4585 133.57 50.5194 134.474 51.8793C135.378 53.2393 135.86 54.8372 135.857 56.4709C135.855 57.5557 135.64 58.6296 135.224 59.6311C134.808 60.6326 134.199 61.5423 133.432 62.3081C132.665 63.0739 131.754 63.6808 130.753 64.0943C129.752 64.5078 128.679 64.7197 127.596 64.7179Z" fill="#D2E6BB" stroke="#252525" stroke-width="1.44356" stroke-linecap="round" stroke-linejoin="round"/>
<path d="M45.1689 29.7422C45.0924 29.7413 45.0165 29.7275 44.9446 29.7013L40.8039 28.2644C40.6348 28.2042 40.4963 28.0796 40.4186 27.9175C40.3409 27.7555 40.3303 27.5693 40.3891 27.3995C40.4478 27.2289 40.5717 27.0886 40.7336 27.0095C40.8955 26.9303 41.0822 26.9187 41.2526 26.9773L45.3865 28.4142C45.5669 28.4431 45.7283 28.5426 45.8354 28.6907C45.9426 28.8389 45.9865 29.0236 45.9577 29.2042C45.9288 29.3848 45.8295 29.5466 45.6816 29.6538C45.5337 29.7611 45.3493 29.8051 45.1689 29.7762V29.7422Z" fill="#DFEAEF"/>
<path d="M73.9807 6.49976C73.8004 6.49976 73.6274 6.42801 73.4999 6.30029C73.3724 6.17258 73.3008 5.99937 73.3008 5.81875V0.697605C73.3008 0.516992 73.3724 0.343775 73.4999 0.216062C73.6274 0.0883494 73.8004 0.0166016 73.9807 0.0166016C74.161 0.0166016 74.334 0.0883494 74.4615 0.216062C74.589 0.343775 74.6606 0.516992 74.6606 0.697605V5.81875C74.6606 5.99937 74.589 6.17258 74.4615 6.30029C74.334 6.42801 74.161 6.49976 73.9807 6.49976Z" fill="#DFEAEF"/>
<path d="M54.9122 13.1936C54.7347 13.1947 54.5639 13.1262 54.4362 13.0029L51.5125 10.1767C51.3827 10.0512 51.308 9.87913 51.3048 9.69842C51.3016 9.5177 51.3702 9.34312 51.4956 9.21308C51.6209 9.08303 51.7926 9.00818 51.9731 9.00499C52.1535 9.0018 52.3278 9.07052 52.4576 9.19605L55.3813 12.0223C55.5079 12.1498 55.579 12.3225 55.579 12.5024C55.579 12.6823 55.5079 12.8549 55.3813 12.9825C55.2585 13.1117 55.0901 13.1875 54.9122 13.1936Z" fill="#DFEAEF"/>
<path d="M103.114 29.7415C102.933 29.7713 102.749 29.7282 102.6 29.6215C102.452 29.5149 102.351 29.3535 102.322 29.1729C102.292 28.9923 102.335 28.8073 102.442 28.6585C102.548 28.5097 102.709 28.4094 102.889 28.3796L106.826 27.0176C106.911 26.9881 107 26.9755 107.089 26.9806C107.178 26.9857 107.266 27.0083 107.346 27.0472C107.427 27.0861 107.499 27.1405 107.558 27.2072C107.618 27.274 107.664 27.3519 107.693 27.4364C107.723 27.5209 107.735 27.6104 107.73 27.6998C107.725 27.7891 107.702 27.8766 107.664 27.9573C107.625 28.0379 107.57 28.1101 107.504 28.1697C107.437 28.2293 107.359 28.2751 107.275 28.3047L103.338 29.6666C103.268 29.7045 103.192 29.7299 103.114 29.7415Z" fill="#DFEAEF"/>
<path d="M93.3708 13.1948C93.2793 13.1945 93.1887 13.1756 93.1046 13.1393C93.0204 13.103 92.9445 13.0501 92.8813 12.9837C92.7547 12.8561 92.6836 12.6835 92.6836 12.5036C92.6836 12.3237 92.7547 12.1511 92.8813 12.0235L96.5393 8.49598C96.6709 8.38601 96.8391 8.32987 97.0103 8.33882C97.1814 8.34776 97.3429 8.42113 97.4624 8.54423C97.5819 8.66733 97.6505 8.83108 97.6546 9.0027C97.6587 9.17432 97.5979 9.34115 97.4844 9.4698L93.8264 13.0041C93.7038 13.1226 93.5412 13.1907 93.3708 13.1948Z" fill="#DFEAEF"/>
</svg>
