<svg width="1125" height="647" viewBox="0 0 1125 647" fill="none" xmlns="http://www.w3.org/2000/svg">
<g opacity="0.65">
<mask id="mask0_2_117" style="mask-type:alpha" maskUnits="userSpaceOnUse" x="0" y="0" width="663" height="238">
<rect width="661.66" height="238" transform="matrix(-1 -8.74228e-08 -8.74228e-08 1 662.656 0)" fill="#C4C4C4"/>
</mask>
<g mask="url(#mask0_2_117)">
<g opacity="0.1">
<path d="M84.6816 -52.6077L244.124 -52.6076C253 -52.6076 261.383 -56.0593 267.794 -62.1407C272.889 -67.0716 278.478 -72.66 284.395 -78.5771C296.888 -91.2331 297.874 -111.45 286.697 -125.421C254.151 -171.936 221.44 -122.462 221.44 -122.462L221.276 -122.791C211.414 -110.628 196.456 -102.739 179.525 -102.739C147.966 -102.739 122.816 -129.694 125.446 -161.745C127.912 -190.344 153.719 -211.383 182.32 -211.219C196.784 -211.054 210.592 -210.068 223.741 -207.931C248.398 -209.411 276.177 -212.369 302.805 -217.957C271.246 -231.435 245.603 -250.995 234.59 -279.265C228.673 -275.156 221.44 -272.691 213.715 -272.691C193.661 -272.691 177.224 -288.963 177.224 -309.179C177.224 -329.396 193.497 -345.668 213.715 -345.668C233.933 -345.668 250.206 -329.396 250.206 -309.179C250.206 -303.92 249.055 -299.153 247.083 -294.551C255.466 -259.377 289.162 -238.01 330.256 -224.861C372.664 -237.681 408.004 -259.213 416.387 -294.715C414.579 -299.153 413.429 -303.92 413.429 -309.015C413.429 -329.067 429.702 -345.504 449.92 -345.504C470.137 -345.504 486.41 -329.232 486.41 -309.015C486.41 -288.798 470.137 -272.526 449.92 -272.526C442.194 -272.526 434.961 -274.992 429.044 -279.265C417.867 -250.501 391.896 -230.613 359.021 -217.136C384.663 -211.547 411.292 -208.589 435.29 -206.945C450.248 -209.739 465.864 -211.054 482.137 -211.054C510.902 -211.219 536.544 -190.18 539.01 -161.581C541.804 -129.53 516.491 -102.574 484.931 -102.574C468.001 -102.574 453.207 -110.464 443.18 -122.627L443.016 -122.298C443.016 -122.298 411.785 -172.1 377.759 -125.256C366.582 -111.285 367.404 -91.2331 380.061 -78.4127C385.978 -72.4956 391.567 -66.9073 396.662 -61.9764C403.073 -55.8949 411.456 -52.4433 420.332 -52.4433L437.592 -52.4433L439.4 -52.4433L581.089 -52.4432C609.526 -52.4432 632.867 -29.1036 632.867 -0.668732C632.867 27.9305 609.69 51.1058 581.089 51.1058L438.413 51.1058C418.36 51.1058 401.922 67.3778 401.922 87.5946L401.922 87.7589C402.087 147.423 510.409 118.824 519.614 118.988L520.271 118.988C548.708 119.81 574.186 139.205 579.774 167.147C587.664 206.101 557.913 240.453 520.271 240.453L519.121 240.453C504.82 240.781 398.142 245.384 373.814 287.132C381.869 289.433 387.951 296.501 387.951 305.212C387.951 315.731 379.403 324.278 368.883 324.278C368.226 324.278 367.568 323.949 366.911 323.949C362.637 339.564 348.501 351.069 331.735 351.069C314.804 351.069 300.668 339.564 296.559 323.949C295.737 324.114 295.08 324.443 294.422 324.443C283.902 324.443 275.355 315.896 275.355 305.376C275.355 296.008 282.258 288.611 291.135 286.968C269.437 248.342 177.717 241.768 151.581 240.781L146.157 240.617C112.625 240.617 85.5036 213.497 85.5036 179.967C85.5036 146.437 112.625 119.317 146.157 119.317L147.637 119.317C161.115 118.824 261.876 146.437 261.712 87.7589C261.712 67.7065 244.946 51.4345 224.892 51.4345L220.619 51.4345L85.5036 51.4345L82.5447 51.4345C52.3 51.4345 27.9727 25.4651 30.9314 -5.43526C33.397 -32.884 57.56 -52.6077 84.6816 -52.6077ZM350.967 -52.6076C345.049 -58.3604 338.803 -64.9349 332.392 -72.0025C325.982 -65.0992 319.736 -58.3604 313.818 -52.6076L350.967 -52.6076ZM302.97 -169.306C309.545 -162.731 315.791 -153.363 320.064 -147.445C323.845 -142.186 327.954 -136.926 332.228 -131.667C336.502 -136.926 340.447 -144.158 344.227 -149.418C349.487 -156.814 349.652 -157.472 361.487 -169.306C372.335 -180.154 384.006 -188.043 396.662 -194.289C374.965 -197.083 352.446 -201.357 331.406 -207.603C310.531 -201.685 288.176 -197.576 265.986 -194.947C279.3 -188.701 291.628 -180.483 302.97 -169.306Z" fill="#8FC055"/>
</g>
</g>
</g>
<g opacity="0.65">
<mask id="mask1_2_117" style="mask-type:alpha" maskUnits="userSpaceOnUse" x="839" y="380" width="524" height="267">
<rect width="523.719" height="266.328" transform="matrix(1 0 0 -1 839 646.328)" fill="#C4C4C4"/>
</mask>
<g mask="url(#mask1_2_117)">
<g opacity="0.1">
<path d="M1296.58 644.131H1170.35C1163.32 644.131 1156.68 647.268 1151.61 652.795C1147.57 657.277 1143.15 662.356 1138.46 667.734C1128.57 679.237 1127.79 697.612 1136.64 710.31C1162.41 752.587 1188.3 707.621 1188.3 707.621L1188.43 707.92C1196.24 696.865 1208.08 689.694 1221.49 689.694C1246.47 689.694 1266.38 714.194 1264.3 743.325C1262.35 769.318 1241.92 788.44 1219.28 788.291C1207.82 788.141 1196.89 787.245 1186.48 785.303C1166.96 786.647 1144.97 789.336 1123.89 794.415C1148.87 806.665 1169.17 824.442 1177.89 850.137C1182.58 846.403 1188.3 844.162 1194.42 844.162C1210.3 844.162 1223.31 858.951 1223.31 877.326C1223.31 895.701 1210.43 910.49 1194.42 910.49C1178.41 910.49 1165.53 895.701 1165.53 877.326C1165.53 872.546 1166.44 868.213 1168 864.03C1161.37 832.061 1134.69 812.641 1102.16 800.69C1068.58 812.342 1040.6 831.912 1033.96 864.18C1035.4 868.213 1036.31 872.546 1036.31 877.177C1036.31 895.402 1023.42 910.341 1007.42 910.341C991.411 910.341 978.528 895.551 978.528 877.177C978.528 858.802 991.411 844.012 1007.42 844.012C1013.53 844.012 1019.26 846.253 1023.94 850.137C1032.79 823.994 1053.35 805.918 1079.38 793.669C1059.08 788.589 1038 785.9 1019 784.406C1007.16 786.946 994.795 788.141 981.911 788.141C959.138 788.291 938.837 769.169 936.885 743.175C934.672 714.044 954.713 689.545 979.699 689.545C993.103 689.545 1004.81 696.715 1012.75 707.77L1012.88 707.471C1012.88 707.471 1037.61 752.736 1064.55 710.16C1073.4 697.462 1072.74 679.237 1062.72 667.585C1058.04 662.207 1053.62 657.128 1049.58 652.646C1044.51 647.118 1037.87 643.981 1030.84 643.981H1017.18H1015.75H903.57C881.057 643.981 862.578 622.768 862.578 596.924C862.578 570.93 880.927 549.867 903.57 549.867H1016.53C1032.4 549.867 1045.42 535.077 1045.42 516.702V516.553C1045.29 462.325 959.528 488.319 952.241 488.169H951.72C929.207 487.422 909.036 469.794 904.612 444.398C898.365 408.993 921.919 377.771 951.72 377.771H952.631C963.953 377.472 1048.41 373.289 1067.67 335.345C1061.29 333.253 1056.48 326.83 1056.48 318.912C1056.48 309.351 1063.25 301.583 1071.57 301.583C1072.09 301.583 1072.61 301.882 1073.14 301.882C1076.52 287.69 1087.71 277.233 1100.98 277.233C1114.39 277.233 1125.58 287.69 1128.83 301.882C1129.48 301.732 1130 301.434 1130.52 301.434C1138.85 301.434 1145.62 309.202 1145.62 318.763C1145.62 327.278 1140.15 334 1133.13 335.494C1150.3 370.601 1222.92 376.576 1243.61 377.472L1247.91 377.622C1274.45 377.622 1295.93 402.271 1295.93 432.746C1295.93 463.221 1274.45 487.87 1247.91 487.87H1246.73C1236.06 488.319 1156.29 463.221 1156.42 516.553C1156.42 534.778 1169.69 549.568 1185.57 549.568H1188.95H1295.93H1298.27C1322.21 549.568 1341.47 573.171 1339.13 601.256C1337.18 626.204 1318.05 644.131 1296.58 644.131ZM1085.76 644.131C1090.44 649.359 1095.39 655.335 1100.46 661.758C1105.54 655.484 1110.48 649.359 1115.17 644.131H1085.76ZM1123.76 750.196C1118.55 744.221 1113.61 735.706 1110.22 730.328C1107.23 725.547 1103.98 720.767 1100.59 715.987C1097.21 720.767 1094.09 727.34 1091.09 732.12C1086.93 738.843 1086.8 739.441 1077.43 750.196C1068.84 760.056 1059.6 767.227 1049.58 772.904C1066.76 775.443 1084.59 779.327 1101.24 785.004C1117.77 779.626 1135.47 775.891 1153.04 773.501C1142.5 767.824 1132.74 760.355 1123.76 750.196Z" fill="#8FC055"/>
</g>
</g>
</g>
</svg>
