<svg width="1920" height="801" viewBox="0 0 1920 801" fill="none" xmlns="http://www.w3.org/2000/svg">
<path opacity="0.12" d="M1920 0.00488281H0V800.005H1920V0.00488281Z" fill="url(#paint0_linear_6619_20922)"/>
<g opacity="0.65">
<mask id="mask0_6619_20922" style="mask-type:alpha" maskUnits="userSpaceOnUse" x="795" y="2" width="663" height="238">
<rect width="661.66" height="238" transform="matrix(-1 -8.74228e-08 -8.74228e-08 1 1457.66 2)" fill="#C4C4C4"/>
</mask>
<g mask="url(#mask0_6619_20922)">
<g opacity="0.1">
<path d="M879.682 -50.6077L1039.12 -50.6076C1048 -50.6076 1056.38 -54.0593 1062.79 -60.1407C1067.89 -65.0716 1073.48 -70.66 1079.4 -76.5771C1091.89 -89.2331 1092.87 -109.45 1081.7 -123.421C1049.15 -169.936 1016.44 -120.462 1016.44 -120.462L1016.28 -120.791C1006.41 -108.628 991.456 -100.739 974.525 -100.739C942.966 -100.739 917.816 -127.694 920.446 -159.745C922.912 -188.344 948.719 -209.383 977.32 -209.219C991.784 -209.054 1005.59 -208.068 1018.74 -205.931C1043.4 -207.411 1071.18 -210.369 1097.81 -215.957C1066.25 -229.435 1040.6 -248.995 1029.59 -277.265C1023.67 -273.156 1016.44 -270.691 1008.71 -270.691C988.661 -270.691 972.224 -286.963 972.224 -307.179C972.224 -327.396 988.497 -343.668 1008.71 -343.668C1028.93 -343.668 1045.21 -327.396 1045.21 -307.179C1045.21 -301.92 1044.06 -297.153 1042.08 -292.551C1050.47 -257.377 1084.16 -236.01 1125.26 -222.861C1167.66 -235.681 1203 -257.213 1211.39 -292.715C1209.58 -297.153 1208.43 -301.92 1208.43 -307.015C1208.43 -327.067 1224.7 -343.504 1244.92 -343.504C1265.14 -343.504 1281.41 -327.232 1281.41 -307.015C1281.41 -286.798 1265.14 -270.526 1244.92 -270.526C1237.19 -270.526 1229.96 -272.992 1224.04 -277.265C1212.87 -248.501 1186.9 -228.613 1154.02 -215.136C1179.66 -209.547 1206.29 -206.589 1230.29 -204.945C1245.25 -207.739 1260.86 -209.054 1277.14 -209.054C1305.9 -209.219 1331.54 -188.18 1334.01 -159.581C1336.8 -127.53 1311.49 -100.574 1279.93 -100.574C1263 -100.574 1248.21 -108.464 1238.18 -120.627L1238.02 -120.298C1238.02 -120.298 1206.78 -170.1 1172.76 -123.256C1161.58 -109.285 1162.4 -89.2331 1175.06 -76.4127C1180.98 -70.4956 1186.57 -64.9073 1191.66 -59.9764C1198.07 -53.8949 1206.46 -50.4433 1215.33 -50.4433L1232.59 -50.4433L1234.4 -50.4433L1376.09 -50.4432C1404.53 -50.4432 1427.87 -27.1036 1427.87 1.33127C1427.87 29.9305 1404.69 53.1058 1376.09 53.1058L1233.41 53.1058C1213.36 53.1058 1196.92 69.3778 1196.92 89.5946L1196.92 89.7589C1197.09 149.423 1305.41 120.824 1314.61 120.988L1315.27 120.988C1343.71 121.81 1369.19 141.205 1374.77 169.147C1382.66 208.101 1352.91 242.453 1315.27 242.453L1314.12 242.453C1299.82 242.781 1193.14 247.384 1168.81 289.132C1176.87 291.433 1182.95 298.501 1182.95 307.212C1182.95 317.731 1174.4 326.278 1163.88 326.278C1163.23 326.278 1162.57 325.949 1161.91 325.949C1157.64 341.564 1143.5 353.069 1126.73 353.069C1109.8 353.069 1095.67 341.564 1091.56 325.949C1090.74 326.114 1090.08 326.443 1089.42 326.443C1078.9 326.443 1070.35 317.896 1070.35 307.376C1070.35 298.008 1077.26 290.611 1086.13 288.968C1064.44 250.342 972.717 243.768 946.581 242.781L941.157 242.617C907.625 242.617 880.504 215.497 880.504 181.967C880.504 148.437 907.625 121.317 941.157 121.317L942.637 121.317C956.115 120.824 1056.88 148.437 1056.71 89.7589C1056.71 69.7065 1039.95 53.4345 1019.89 53.4345L1015.62 53.4345L880.504 53.4345L877.545 53.4345C847.3 53.4345 822.973 27.4651 825.931 -3.43526C828.397 -30.884 852.56 -50.6077 879.682 -50.6077ZM1145.97 -50.6076C1140.05 -56.3604 1133.8 -62.9349 1127.39 -70.0025C1120.98 -63.0992 1114.74 -56.3604 1108.82 -50.6076L1145.97 -50.6076ZM1097.97 -167.306C1104.54 -160.731 1110.79 -151.363 1115.06 -145.445C1118.85 -140.186 1122.95 -134.926 1127.23 -129.667C1131.5 -134.926 1135.45 -142.158 1139.23 -147.418C1144.49 -154.814 1144.65 -155.472 1156.49 -167.306C1167.34 -178.154 1179.01 -186.043 1191.66 -192.289C1169.97 -195.083 1147.45 -199.357 1126.41 -205.603C1105.53 -199.685 1083.18 -195.576 1060.99 -192.947C1074.3 -186.701 1086.63 -178.483 1097.97 -167.306Z" fill="#8FC055"/>
</g>
</g>
</g>
<g opacity="0.65">
<mask id="mask1_6619_20922" style="mask-type:alpha" maskUnits="userSpaceOnUse" x="1634" y="382" width="524" height="267">
<rect width="523.719" height="266.328" transform="matrix(1 0 0 -1 1634 648.328)" fill="#C4C4C4"/>
</mask>
<g mask="url(#mask1_6619_20922)">
<g opacity="0.1">
<path d="M2091.58 646.131H1965.35C1958.32 646.131 1951.68 649.268 1946.61 654.795C1942.57 659.277 1938.15 664.356 1933.46 669.734C1923.57 681.237 1922.79 699.612 1931.64 712.31C1957.41 754.587 1983.3 709.621 1983.3 709.621L1983.43 709.92C1991.24 698.865 2003.08 691.694 2016.49 691.694C2041.47 691.694 2061.38 716.194 2059.3 745.325C2057.35 771.318 2036.92 790.44 2014.28 790.291C2002.82 790.141 1991.89 789.245 1981.48 787.303C1961.96 788.647 1939.97 791.336 1918.89 796.415C1943.87 808.665 1964.17 826.442 1972.89 852.137C1977.58 848.403 1983.3 846.162 1989.42 846.162C2005.3 846.162 2018.31 860.951 2018.31 879.326C2018.31 897.701 2005.43 912.49 1989.42 912.49C1973.41 912.49 1960.53 897.701 1960.53 879.326C1960.53 874.546 1961.44 870.213 1963 866.03C1956.37 834.061 1929.69 814.641 1897.16 802.69C1863.58 814.342 1835.6 833.912 1828.96 866.18C1830.4 870.213 1831.31 874.546 1831.31 879.177C1831.31 897.402 1818.42 912.341 1802.42 912.341C1786.41 912.341 1773.53 897.551 1773.53 879.177C1773.53 860.802 1786.41 846.012 1802.42 846.012C1808.53 846.012 1814.26 848.253 1818.94 852.137C1827.79 825.994 1848.35 807.918 1874.38 795.669C1854.08 790.589 1833 787.9 1814 786.406C1802.16 788.946 1789.79 790.141 1776.91 790.141C1754.14 790.291 1733.84 771.169 1731.88 745.175C1729.67 716.044 1749.71 691.545 1774.7 691.545C1788.1 691.545 1799.81 698.715 1807.75 709.77L1807.88 709.471C1807.88 709.471 1832.61 754.736 1859.55 712.16C1868.4 699.462 1867.74 681.237 1857.72 669.585C1853.04 664.207 1848.62 659.128 1844.58 654.646C1839.51 649.118 1832.87 645.981 1825.84 645.981H1812.18H1810.75H1698.57C1676.06 645.981 1657.58 624.768 1657.58 598.924C1657.58 572.93 1675.93 551.867 1698.57 551.867H1811.53C1827.4 551.867 1840.42 537.077 1840.42 518.702V518.553C1840.29 464.325 1754.53 490.319 1747.24 490.169H1746.72C1724.21 489.422 1704.04 471.794 1699.61 446.398C1693.37 410.993 1716.92 379.771 1746.72 379.771H1747.63C1758.95 379.472 1843.41 375.289 1862.67 337.345C1856.29 335.253 1851.48 328.83 1851.48 320.912C1851.48 311.351 1858.25 303.583 1866.57 303.583C1867.09 303.583 1867.61 303.882 1868.14 303.882C1871.52 289.69 1882.71 279.233 1895.98 279.233C1909.39 279.233 1920.58 289.69 1923.83 303.882C1924.48 303.732 1925 303.434 1925.52 303.434C1933.85 303.434 1940.62 311.202 1940.62 320.763C1940.62 329.278 1935.15 336 1928.13 337.494C1945.3 372.601 2017.92 378.576 2038.61 379.472L2042.91 379.622C2069.45 379.622 2090.93 404.271 2090.93 434.746C2090.93 465.221 2069.45 489.87 2042.91 489.87H2041.73C2031.06 490.319 1951.29 465.221 1951.42 518.553C1951.42 536.778 1964.69 551.568 1980.57 551.568H1983.95H2090.93H2093.27C2117.21 551.568 2136.47 575.171 2134.13 603.256C2132.18 628.204 2113.05 646.131 2091.58 646.131ZM1880.76 646.131C1885.44 651.359 1890.39 657.335 1895.46 663.758C1900.54 657.484 1905.48 651.359 1910.17 646.131H1880.76ZM1918.76 752.196C1913.55 746.221 1908.61 737.706 1905.22 732.328C1902.23 727.547 1898.98 722.767 1895.59 717.987C1892.21 722.767 1889.09 729.34 1886.09 734.12C1881.93 740.843 1881.8 741.441 1872.43 752.196C1863.84 762.056 1854.6 769.227 1844.58 774.904C1861.76 777.443 1879.59 781.327 1896.24 787.004C1912.77 781.626 1930.47 777.891 1948.04 775.501C1937.5 769.824 1927.74 762.355 1918.76 752.196Z" fill="#8FC055"/>
</g>
</g>
</g>
<defs>
<linearGradient id="paint0_linear_6619_20922" x1="938.5" y1="106.92" x2="971.06" y2="760.084" gradientUnits="userSpaceOnUse">
<stop stop-color="#3AAA35"/>
<stop offset="0.836171" stop-color="#8CC63E" stop-opacity="0.15"/>
</linearGradient>
</defs>
</svg>
