<svg width="481" height="401" viewBox="0 0 481 401" fill="none" xmlns="http://www.w3.org/2000/svg">
<path d="M78.1328 223.942V260.754C78.1328 263.953 79.3947 267.02 81.641 269.282C83.8872 271.545 86.9337 272.815 90.1104 272.815H221.173C224.348 272.813 227.393 271.542 229.637 269.28C231.882 267.018 233.143 263.951 233.143 260.754V229.652L249.463 212.39L90.1564 211.888C88.5803 211.882 87.0184 212.189 85.5604 212.792C84.1024 213.395 82.7769 214.282 81.6599 215.402C80.5429 216.522 79.6564 217.852 79.0511 219.318C78.4459 220.784 78.1338 222.355 78.1328 223.942Z" fill="#DAEEC6"/>
<path d="M213.83 234.19L94.9062 233.634L94.9139 229.955L213.845 230.504L213.83 234.19Z" fill="#CBE3B4"/>
<path d="M213.83 246.296L94.9062 245.747L94.9139 242.061L213.845 242.617L213.83 246.296Z" fill="#CBE3B4"/>
<path d="M166.768 254.185L166.75 257.864L213.809 258.095L213.827 254.417L166.768 254.185Z" fill="#CBE3B4"/>
<path d="M199.578 351.129V387.94C199.578 391.139 200.84 394.207 203.086 396.469C205.332 398.731 208.379 400.002 211.556 400.002H342.603C345.778 400 348.823 398.728 351.067 396.466C353.312 394.204 354.573 391.138 354.573 387.94V356.839L370.893 339.577L211.579 339.075C210.004 339.071 208.445 339.381 206.99 339.985C205.534 340.59 204.212 341.477 203.097 342.596C201.983 343.716 201.098 345.046 200.494 346.51C199.89 347.974 199.579 349.543 199.578 351.129Z" fill="#DAEEC6"/>
<path d="M335.853 360.417L216.922 359.868L216.93 356.182L335.861 356.738L335.853 360.417Z" fill="#CBE3B4"/>
<path d="M335.853 372.526L216.922 371.977L216.93 368.291L335.861 368.848L335.853 372.526Z" fill="#CBE3B4"/>
<path d="M288.776 380.406L288.758 384.084L335.817 384.316L335.835 380.638L288.776 380.406Z" fill="#CBE3B4"/>
<path d="M148.18 85.2894H225.478C227.309 85.2894 229.066 86.022 230.361 87.3262C231.656 88.6304 232.383 90.3993 232.383 92.2436V130.314C232.383 132.159 231.656 133.928 230.361 135.232C229.066 136.536 227.309 137.269 225.478 137.269H159.889C158.057 137.269 156.301 136.536 155.006 135.232C153.711 133.928 152.983 132.159 152.983 130.314V90.1033L148.18 85.2894Z" fill="#DAEEC6"/>
<path d="M192.981 122.301V146.719C192.981 148.84 192.145 150.874 190.655 152.374C189.166 153.874 187.146 154.716 185.04 154.716H98.1355C97.0903 154.719 96.0548 154.515 95.0882 154.114C94.1216 153.714 93.2429 153.125 92.5024 152.382C91.7619 151.64 91.1741 150.757 90.7727 149.785C90.3714 148.813 90.1642 147.771 90.1632 146.719V126.088L79.375 114.636L185.04 114.304C187.146 114.304 189.166 115.147 190.655 116.646C192.145 118.146 192.981 120.18 192.981 122.301Z" fill="#CBE3B4"/>
<path d="M102.992 129.094L181.87 128.731L181.863 126.289L102.984 126.66L102.992 129.094Z" fill="#DAEEC6"/>
<path d="M102.992 137.129L181.87 136.758L181.863 134.324L102.984 134.687L102.992 137.129Z" fill="#DAEEC6"/>
<path d="M133.762 142.84H102.547V145.282H133.762V142.84Z" fill="#DAEEC6"/>
<path d="M357.684 235.509V259.927C357.684 262.048 356.847 264.082 355.358 265.582C353.869 267.082 351.849 267.924 349.742 267.924H262.815C260.708 267.924 258.687 267.082 257.197 265.582C255.706 264.083 254.868 262.048 254.866 259.927V239.296L244.047 227.844L349.712 227.512C350.757 227.509 351.793 227.714 352.759 228.114C353.726 228.514 354.604 229.103 355.345 229.846C356.085 230.589 356.673 231.471 357.075 232.443C357.476 233.415 357.683 234.457 357.684 235.509Z" fill="#CBE3B4"/>
<path d="M267.664 242.309L346.55 241.938L346.535 239.496L267.656 239.867L267.664 242.309Z" fill="#DAEEC6"/>
<path d="M267.664 250.338L346.55 249.974L346.535 247.533L267.656 247.896L267.664 250.338Z" fill="#DAEEC6"/>
<path d="M297.871 256.867H266.656V259.309H297.871V256.867Z" fill="#DAEEC6"/>
<path d="M183.461 176.869L183.461 176.869C183.461 176.662 183.471 176.455 183.49 176.25L182.993 176.202C183.036 175.758 183.122 175.319 183.25 174.892L183.729 175.035C183.788 174.838 183.857 174.643 183.936 174.452C184.014 174.26 184.102 174.074 184.198 173.892L183.756 173.658C183.965 173.264 184.211 172.892 184.492 172.547L184.88 172.862C185.01 172.703 185.148 172.549 185.293 172.403C185.438 172.256 185.59 172.118 185.748 171.987L185.429 171.602C185.772 171.319 186.141 171.07 186.532 170.859L186.769 171.299C186.949 171.202 187.135 171.114 187.325 171.034C187.514 170.955 187.707 170.886 187.903 170.826L187.757 170.348C188.181 170.218 188.617 170.131 189.058 170.087L189.107 170.584C189.311 170.564 189.515 170.554 189.721 170.554H191.687V170.054H195.618V170.554H199.55V170.054H203.481V170.554H207.413V170.054H211.344V170.554H215.276V170.054H219.207V170.554H223.139V170.054H227.07V170.554H231.002V170.054H234.934V170.554H238.865V170.054H242.797V170.554H246.728V170.054H250.66V170.554H254.591V170.054H258.523V170.554H262.454V170.054H266.386V170.554H270.317V170.054H274.249V170.554H278.181V170.054H282.112V170.554H286.044V170.054H289.975V170.554H293.907V170.054H297.838V170.554H301.77V170.054H305.701V170.554H309.633V170.054H313.564V170.554H317.496V170.054H321.427V170.554H325.359V170.054H329.291V170.554H333.222V170.054H337.154V170.554H341.085V170.054H345.017V170.554H348.948V170.054H352.88V170.554H356.811V170.054H360.743V170.554H362.709C362.914 170.554 363.119 170.564 363.323 170.584L363.372 170.087C363.813 170.131 364.249 170.218 364.673 170.348L364.526 170.826C364.722 170.886 364.915 170.955 365.105 171.034C365.295 171.114 365.48 171.202 365.661 171.299L365.898 170.859C366.289 171.07 366.658 171.319 367 171.602L366.681 171.987C366.839 172.118 366.991 172.256 367.136 172.403C367.282 172.549 367.42 172.703 367.549 172.862L367.937 172.547C368.218 172.892 368.465 173.264 368.673 173.658L368.231 173.892C368.328 174.074 368.415 174.26 368.494 174.452C368.572 174.643 368.641 174.838 368.701 175.035L369.179 174.892C369.308 175.319 369.394 175.758 369.437 176.202L368.939 176.25C368.959 176.455 368.969 176.662 368.969 176.869V176.869V178.799H369.469V182.659H368.969V186.518H369.469V190.378H368.969V194.238H369.469V198.097H368.969V201.957H369.469V205.816H368.969V209.676H369.469V213.536H368.969V217.395H369.469V221.255H368.969V225.115H369.469V228.974H368.969V230.904V230.905C368.969 231.112 368.959 231.318 368.939 231.523L369.437 231.572C369.394 232.016 369.308 232.454 369.179 232.882L368.701 232.738C368.641 232.935 368.572 233.13 368.494 233.322C368.415 233.513 368.328 233.7 368.231 233.881L368.673 234.116C368.465 234.509 368.218 234.881 367.937 235.226L367.549 234.911C367.42 235.071 367.282 235.224 367.136 235.37C366.991 235.517 366.839 235.655 366.681 235.786L367 236.171C366.658 236.455 366.289 236.703 365.898 236.914L365.661 236.474C365.48 236.571 365.295 236.66 365.105 236.739C364.915 236.818 364.722 236.888 364.526 236.947L364.673 237.426C364.249 237.555 363.813 237.643 363.372 237.686L363.323 237.189C363.119 237.209 362.914 237.219 362.709 237.219H360.678V237.719H356.618V237.219H352.557V237.719H348.496V237.219H344.435V237.719H340.375V237.219H336.314V237.719H332.253V237.219H328.193V237.719H324.132V237.219H320.071V237.719H316.01V237.219H311.95V237.719H307.889V237.219H303.828V237.719H299.767V237.219H295.707V237.719H291.646V237.219H287.585V237.719H283.525V237.219H279.464V237.719H275.403V237.219H271.342V237.719H267.282V237.219H263.221V237.719H259.16V237.219H255.1V237.719H251.039V237.219H246.978V237.719H242.917V237.219H238.857V237.719H234.796V237.219H230.735V237.719H226.674V237.219H222.614V237.719H218.553V237.219H216.523H216.302L216.154 237.382L214.696 238.976L215.065 239.314L212.149 242.503L211.78 242.166L208.864 245.355L209.233 245.692L206.318 248.882L205.949 248.544L205.18 249.385C205.15 249.209 205.116 249.013 205.079 248.798L204.586 248.883C204.443 248.052 204.252 246.946 204.033 245.69L204.525 245.604C204.353 244.614 204.162 243.53 203.965 242.413L203.472 242.501C203.286 241.449 203.093 240.37 202.902 239.312L203.394 239.223C203.296 238.684 203.199 238.15 203.103 237.629L203.028 237.219H202.611H201V237.719H197.778V237.219H194.555V237.719H191.332V237.219H189.721C189.515 237.219 189.311 237.209 189.107 237.189L189.058 237.686C188.617 237.643 188.181 237.555 187.757 237.426L187.903 236.947C187.707 236.888 187.514 236.818 187.325 236.739C187.135 236.66 186.949 236.571 186.769 236.474L186.532 236.914C186.141 236.703 185.772 236.455 185.429 236.171L185.748 235.786C185.59 235.655 185.438 235.517 185.293 235.37C185.148 235.224 185.01 235.071 184.88 234.911L184.492 235.226C184.211 234.881 183.965 234.509 183.756 234.115L184.198 233.881C184.102 233.7 184.014 233.513 183.936 233.322C183.857 233.13 183.788 232.935 183.729 232.738L183.25 232.882C183.122 232.454 183.036 232.016 182.993 231.572L183.49 231.523C183.471 231.318 183.461 231.112 183.461 230.905V230.904V228.974H182.961V225.115H183.461V221.255H182.961V217.395H183.461V213.536H182.961V209.676H183.461V205.816H182.961V201.957H183.461V198.097H182.961V194.238H183.461V190.378H182.961V186.518H183.461V182.659H182.961V178.799H183.461L183.461 176.869Z" fill="#ADDD77" stroke="#252525" stroke-dasharray="4 4"/>
<path d="M354.565 199.159C354.565 199.324 319.762 199.465 276.84 199.465C233.917 199.465 199.102 199.324 199.102 199.159C199.102 198.994 233.904 198.841 276.84 198.841C319.775 198.841 354.565 199.018 354.565 199.159Z" fill="#CFCFCF"/>
<path d="M354.565 191.044C354.565 191.212 319.762 191.356 276.84 191.356C233.917 191.356 199.102 191.212 199.102 191.044C199.102 190.876 233.904 190.732 276.84 190.732C319.775 190.732 354.565 190.864 354.565 191.044Z" fill="#CFCFCF"/>
<path d="M301.299 215.995C301.299 216.163 278.425 216.307 250.2 216.307C221.975 216.307 199.102 216.163 199.102 215.995C199.102 215.827 221.975 215.683 250.2 215.683C278.425 215.683 301.299 215.815 301.299 215.995Z" fill="#CFCFCF"/>
<path d="M105.914 271.981L105.914 271.979C105.914 271.839 105.92 271.699 105.933 271.56L105.435 271.513C105.465 271.201 105.525 270.894 105.614 270.594L106.093 270.737C106.133 270.604 106.18 270.472 106.233 270.342C106.286 270.212 106.345 270.086 106.41 269.963L105.968 269.729C106.114 269.453 106.287 269.192 106.483 268.95L106.871 269.265C106.959 269.157 107.052 269.053 107.151 268.954C107.249 268.855 107.352 268.761 107.459 268.673L107.14 268.288C107.38 268.089 107.639 267.915 107.913 267.767L108.15 268.208C108.272 268.142 108.397 268.082 108.526 268.028C108.654 267.975 108.785 267.928 108.917 267.888L108.772 267.409C109.069 267.319 109.374 267.258 109.683 267.228L109.732 267.725C109.87 267.712 110.009 267.705 110.148 267.705H110.148H112.13V267.205H116.094V267.705H120.057V267.205H124.021V267.705H127.985V267.205H131.948V267.705H135.912V267.205H139.876V267.705H143.839V267.205H147.803V267.705H151.766V267.205H155.73V267.705H159.694V267.205H163.657V267.705H167.621V267.205H171.585V267.705H175.548V267.205H179.512V267.705H183.475V267.205H187.439V267.705H191.403V267.205H195.366V267.705H199.33V267.205H203.294V267.705H207.257V267.205H211.221V267.705H215.185V267.205H219.148V267.705H223.112V267.205H227.075V267.705H231.039V267.205H235.003V267.705H238.966V267.205H242.93V267.705H246.894V267.205H250.857V267.705H254.821V267.205H258.784V267.705H262.748V267.205H266.712V267.705H270.675V267.205H274.639V267.705H278.603V267.205H282.566V267.705H284.547C284.685 267.706 284.823 267.713 284.96 267.727L285.011 267.23C285.319 267.261 285.624 267.323 285.92 267.415L285.772 267.893C285.904 267.933 286.034 267.981 286.162 268.034C286.29 268.088 286.415 268.148 286.536 268.214L286.775 267.775C287.047 267.923 287.305 268.097 287.543 268.296L287.224 268.68C287.33 268.769 287.432 268.863 287.53 268.962L287.886 268.61L287.53 268.962C287.628 269.061 287.72 269.165 287.808 269.272L288.196 268.958C288.392 269.2 288.564 269.46 288.709 269.735L288.266 269.968C288.331 270.091 288.39 270.218 288.442 270.347C288.495 270.476 288.541 270.608 288.581 270.741L289.06 270.598C289.149 270.897 289.209 271.204 289.238 271.514L288.74 271.561C288.753 271.7 288.76 271.839 288.759 271.979V271.981V274.023H289.259V278.107H288.759V282.191H289.259V286.276H288.759V290.36H289.259V294.444H288.759V298.528H289.259V302.613H288.759V306.697H289.259V310.781H288.759V314.865H289.259V318.95H288.759V323.034H289.259V327.118H288.759V329.16C288.759 329.442 288.732 329.72 288.678 329.993L289.168 330.089C289.047 330.703 288.807 331.287 288.462 331.808L288.045 331.532C287.892 331.763 287.716 331.98 287.518 332.179C287.32 332.378 287.106 332.555 286.877 332.709L287.156 333.124C286.64 333.472 286.059 333.714 285.45 333.836L285.351 333.346C285.081 333.4 284.805 333.428 284.525 333.428H282.401V333.928H278.154V333.428H273.907V333.928H269.66V333.428H265.413V333.928H261.166V333.428H256.919V333.928H252.672V333.428H250.549H250.133L250.057 333.837C249.962 334.351 249.866 334.879 249.769 335.414L250.26 335.503C250.071 336.546 249.88 337.615 249.695 338.657L249.203 338.569C249.007 339.672 248.819 340.745 248.648 341.726L249.14 341.811C248.924 343.052 248.735 344.147 248.593 344.97L248.101 344.885C248.065 345.092 248.033 345.282 248.003 345.453L247.254 344.632L246.885 344.969L244.008 341.814L244.377 341.477L241.5 338.323L241.13 338.66L238.253 335.505L238.622 335.168L237.184 333.591L237.035 333.428H236.814H234.835V333.928H230.877V333.428H226.919V333.928H222.96V333.428H219.002V333.928H215.044V333.428H211.085V333.928H207.127V333.428H203.169V333.928H199.21V333.428H195.252V333.928H191.294V333.428H187.335V333.928H183.377V333.428H179.419V333.928H175.46V333.428H171.502V333.928H167.544V333.428H163.586V333.928H159.627V333.428H155.669V333.928H151.711V333.428H147.752V333.928H143.794V333.428H139.836V333.928H135.877V333.428H131.919V333.928H127.961V333.428H124.002V333.928H120.044V333.428H116.086V333.928H112.127V333.428H110.148C109.869 333.428 109.592 333.4 109.322 333.346L109.224 333.836C108.614 333.714 108.034 333.472 107.517 333.124L107.796 332.709C107.568 332.555 107.353 332.378 107.156 332.179C106.958 331.98 106.781 331.763 106.628 331.532L106.211 331.808C105.866 331.287 105.626 330.703 105.505 330.089L105.995 329.993C105.942 329.72 105.914 329.442 105.914 329.16V327.118H105.414V323.034H105.914V318.95H105.414V314.865H105.914V310.781H105.414V306.697H105.914V302.613H105.414V298.528H105.914V294.444H105.414V290.36H105.914V286.276H105.414V282.191H105.914V278.107H105.414V274.023H105.914L105.914 271.981Z" fill="#80B04B" stroke="black" stroke-dasharray="4 4"/>
<path d="M277.76 288.347C277.76 288.515 242.961 288.659 200.029 288.659C157.096 288.659 122.297 288.515 122.297 288.347C122.297 288.179 157.096 288.035 200.029 288.035C242.961 288.035 277.76 288.167 277.76 288.347Z" fill="#CFCFCF"/>
<path d="M223.874 313.297C223.874 313.476 201.142 313.608 173.092 313.608C145.042 313.608 122.297 313.476 122.297 313.297C122.297 313.117 145.042 312.985 173.092 312.985C201.142 312.985 223.874 313.129 223.874 313.297Z" fill="#CFCFCF"/>
<path d="M430.794 18.468L439.732 30.3819L434.555 46.8598L447.263 41.4748L451.629 48.0452L481 27.0638L430.794 18.468Z" fill="#80B04B"/>
<path d="M443.023 35.1264C442.881 35.6354 434.557 46.8606 434.557 46.8606L447.265 41.4751L443.023 35.1264Z" fill="#80B04B"/>
<g opacity="0.3">
<path opacity="0.3" d="M443.023 35.1274C442.881 35.6364 434.557 46.8616 434.557 46.8616L447.265 41.4761L443.023 35.1274Z" fill="black"/>
</g>
<path d="M481 27.0638L443.019 35.1263L434.554 46.8596L439.731 30.3816L481 27.0638Z" fill="#80B04B"/>
<path opacity="0.1" d="M481 27.0638L443.019 35.1263L434.554 46.8596L439.731 30.3816L481 27.0638Z" fill="black"/>
<path d="M410.604 37.763C411.618 38.0653 412.677 38.1909 413.734 38.1342C414.78 38.2945 415.847 38.2615 416.882 38.0367C415.896 37.6124 414.826 37.4216 413.755 37.479C412.697 37.3168 411.616 37.4142 410.604 37.763Z" fill="#263238"/>
<path d="M398.159 39.4272C400.263 39.3339 402.342 38.9281 404.328 38.223C403.275 38.0319 402.193 38.0942 401.168 38.4047C399.451 38.7438 398.109 39.2509 398.159 39.4272Z" fill="#263238"/>
<path d="M386.472 44.0666C386.563 44.2295 387.827 43.6502 389.415 42.9256C391.004 42.2011 392.273 41.5607 392.165 41.3682C391.089 41.4405 390.044 41.7653 389.114 42.3167C387.553 43.0741 386.378 43.9153 386.472 44.0666Z" fill="#263238"/>
<path d="M376.439 51.6513C376.577 51.7777 377.647 50.8694 378.952 49.7404C379.817 49.1263 380.572 48.3691 381.185 47.5009C381.088 47.3612 379.846 48.0839 378.52 49.2444C377.647 49.8697 376.934 50.6946 376.439 51.6513Z" fill="#263238"/>
<path d="M369.083 61.893C369.825 61.135 370.437 60.2579 370.894 59.2977C371.544 58.4525 372.039 57.4986 372.359 56.4798C371.507 57.1375 370.818 57.9849 370.345 58.9557C369.69 59.8148 369.256 60.8239 369.083 61.893Z" fill="#263238"/>
<path d="M365.087 73.8636C365.572 72.9168 365.901 71.8976 366.063 70.8451C366.434 69.8469 366.627 68.7906 366.633 67.7248C366.011 68.6026 365.598 69.6135 365.428 70.6784C365.066 71.6981 364.949 72.7896 365.087 73.8636Z" fill="#263238"/>
<path d="M364.959 86.4772C365.118 85.4268 365.106 84.3573 364.923 83.3108C364.965 82.2529 364.841 81.195 364.556 80.1759C364.21 81.2023 364.131 82.3007 364.325 83.3668C364.279 84.4404 364.497 85.5088 364.959 86.4772Z" fill="#263238"/>
<path d="M369.233 98.3347C369.387 98.2283 368.774 96.9576 368.03 95.4005C367.286 93.8434 366.709 92.533 366.525 92.6181C366.575 93.7008 366.891 94.7541 367.443 95.6841C368.197 97.294 369.083 98.4295 369.233 98.3347Z" fill="#263238"/>
<path d="M377.535 107.76C376.943 106.88 376.214 106.102 375.377 105.455C374.686 104.649 373.868 103.963 372.956 103.425C373.401 104.414 374.079 105.277 374.932 105.941C375.638 106.754 376.532 107.379 377.535 107.76Z" fill="#263238"/>
<path d="M388.619 113.642C387.757 113.015 386.797 112.537 385.779 112.229C384.849 111.719 383.843 111.364 382.801 111.177C383.559 111.947 384.495 112.515 385.524 112.831C386.471 113.362 387.536 113.641 388.619 113.642Z" fill="#263238"/>
<path d="M401.07 114.722C398.992 114.58 396.904 114.63 394.835 114.872C395.828 115.292 396.914 115.443 397.983 115.311C399.046 115.391 400.11 115.188 401.07 114.722Z" fill="#263238"/>
<path d="M411.789 108.711C411.632 108.605 410.766 109.67 409.445 110.77C408.123 111.869 406.952 112.562 407.03 112.771C407.108 112.98 408.475 112.43 409.859 111.286C410.777 110.677 411.459 109.768 411.789 108.711Z" fill="#263238"/>
<path d="M409.331 97.8005C409.28 97.9856 410.419 98.7436 411.468 100.05C412.517 101.356 412.893 102.722 413.08 102.675C413.266 102.628 413.147 101.097 411.977 99.6446C411.361 98.713 410.414 98.0535 409.331 97.8005Z" fill="#263238"/>
<path d="M397.737 99.2096C397.872 99.3475 398.922 98.4212 400.426 97.6476C401.929 96.874 403.301 96.6621 403.235 96.4562C402.144 96.2399 401.012 96.4519 400.072 97.0488C399.065 97.4697 398.238 98.2349 397.737 99.2096Z" fill="#263238"/>
<path d="M394.07 110.91C394.265 109.878 394.353 108.828 394.334 107.778C394.529 106.742 394.619 105.689 394.601 104.635C394.012 105.558 393.711 106.638 393.739 107.735C393.527 108.803 393.642 109.91 394.07 110.91Z" fill="#263238"/>
<path d="M408.574 130.86C408.006 129.953 407.263 129.171 406.389 128.559C405.651 127.786 404.763 127.174 403.779 126.763C405.077 128.45 406.71 129.845 408.574 130.86Z" fill="#263238"/>
<path d="M417.854 139.436C417.987 139.312 417.124 138.183 415.922 136.895C415.242 136.064 414.387 135.396 413.417 134.942C413.277 135.089 414.253 136.125 415.457 137.363C416.105 138.213 416.921 138.919 417.854 139.436Z" fill="#263238"/>
<path d="M424.836 149.987C424.994 149.907 424.517 148.549 423.642 147.018C423.197 146.037 422.535 145.171 421.707 144.488C421.553 144.595 422.201 145.875 423.062 147.366C423.924 148.856 424.62 150.051 424.836 149.987Z" fill="#263238"/>
<path d="M428.944 161.901C429.036 160.825 428.878 159.744 428.485 158.74C428.003 157.044 427.385 155.747 427.218 155.813C427.243 156.879 427.458 157.933 427.852 158.923C428.329 160.592 428.761 161.936 428.944 161.901Z" fill="#263238"/>
<path d="M430.198 174.481C430.545 173.462 430.644 172.373 430.486 171.307C430.553 170.228 430.365 169.149 429.938 168.158C429.715 170.263 429.804 172.391 430.201 174.47L430.198 174.481Z" fill="#263238"/>
<path d="M428.426 187.004C429.407 185.093 429.849 182.948 429.704 180.802C429.248 181.763 428.961 182.796 428.855 183.856C428.529 184.872 428.384 185.937 428.426 187.004Z" fill="#263238"/>
<path d="M423.498 198.62C424.262 197.871 424.863 196.97 425.262 195.974C425.873 195.085 426.253 194.055 426.367 192.98C425.665 193.781 425.094 194.69 424.677 195.672C424.086 196.562 423.685 197.566 423.498 198.62Z" fill="#263238"/>
<path d="M415.684 208.522C415.808 208.656 416.932 207.776 418.104 206.459C418.902 205.737 419.515 204.832 419.891 203.82C419.011 204.415 418.242 205.161 417.618 206.023C416.833 206.735 416.178 207.581 415.684 208.522Z" fill="#263238"/>
<path d="M405.729 216.226C405.812 216.374 407.09 215.786 408.599 214.815C409.541 214.297 410.353 213.571 410.974 212.69C410.857 212.532 409.666 213.294 408.233 214.262C406.799 215.23 405.638 216.063 405.729 216.226Z" fill="#263238"/>
<path d="M394.233 221.346C395.306 221.358 396.367 221.114 397.329 220.635C398.961 220.022 400.18 219.293 400.127 219.128C399.071 219.245 398.044 219.547 397.092 220.019C395.486 220.627 394.183 221.17 394.233 221.346Z" fill="#263238"/>
<path d="M381.874 223.52C382.91 223.805 383.998 223.834 385.047 223.604C386.121 223.605 387.179 223.337 388.125 222.826C387.077 222.691 386.015 222.733 384.981 222.949C383.922 222.972 382.873 223.165 381.874 223.52Z" fill="#263238"/>
<path d="M375.356 223.367C375.311 223.529 375.377 223.697 375.438 223.702C375.499 223.707 375.564 223.563 375.531 223.366C375.498 223.17 375.511 223.036 375.45 223.031C375.389 223.027 375.37 223.184 375.356 223.367Z" fill="#263238"/>
<path d="M366.069 209.773C366.914 210.873 367.852 211.897 368.872 212.834L369.551 213.512L369.678 213.635L369.797 213.519C370.582 212.804 371.299 212.016 371.938 211.166C371.075 211.787 370.276 212.494 369.555 213.276L369.792 213.268L369.117 212.579C368.184 211.556 367.164 210.617 366.069 209.773Z" fill="white"/>
<path d="M13.0747 308.315L23.6092 297.807L40.5167 300.778L33.5232 288.813L39.4079 283.579L14.8438 257.062L13.0747 308.315Z" fill="#80B04B"/>
<path d="M27.8367 293.893C28.3565 293.967 40.5128 300.779 40.5128 300.779L33.5194 288.813L27.8367 293.893Z" fill="#80B04B"/>
<g opacity="0.3">
<path opacity="0.3" d="M27.8367 293.893C28.3565 293.967 40.5128 300.779 40.5128 300.779L33.5194 288.813L27.8367 293.893Z" fill="black"/>
</g>
<path d="M14.8438 257.062L27.8405 293.893L40.5167 300.778L23.6092 297.807L14.8438 257.062Z" fill="#80B04B"/>
<path opacity="0.1" d="M14.8438 257.062L27.8405 293.893L40.5167 300.778L23.6092 297.807L14.8438 257.062Z" fill="black"/>
<path d="M34.7514 325.885C34.9137 324.832 34.8962 323.759 34.6997 322.712C34.7179 321.646 34.5433 320.585 34.1842 319.582C33.898 320.623 33.8528 321.716 34.052 322.778C34.0333 323.855 34.2732 324.921 34.7514 325.885Z" fill="#263238"/>
<path d="M38.0462 338.093C37.674 336.005 36.9977 333.985 36.0391 332.096C35.9913 333.172 36.1969 334.245 36.6389 335.226C37.2014 336.894 37.8794 338.167 38.0462 338.093Z" fill="#263238"/>
<path d="M44.1698 349.135C44.318 349.022 43.5795 347.838 42.6548 346.349C41.73 344.86 40.9308 343.679 40.7557 343.812C40.9703 344.877 41.4291 345.877 42.0956 346.731C43.049 348.188 44.0334 349.249 44.1698 349.135Z" fill="#263238"/>
<path d="M52.9825 358.142C53.0884 357.987 52.0519 357.04 50.7669 355.888C50.0474 355.107 49.2016 354.454 48.2654 353.957C48.1409 354.073 49.0176 355.216 50.3363 356.385C51.068 357.173 51.9749 357.775 52.9825 358.142Z" fill="#263238"/>
<path d="M64.0218 364.107C63.1768 363.467 62.2321 362.973 61.2262 362.645C60.3079 362.109 59.3031 361.741 58.2578 361.558C59.0186 362.321 59.9445 362.896 60.9628 363.238C61.8956 363.778 62.9465 364.076 64.0218 364.107Z" fill="#263238"/>
<path d="M76.346 366.502C75.3497 366.145 74.3028 365.952 73.2455 365.931C72.2138 365.694 71.1486 365.642 70.0989 365.777C71.0458 366.282 72.0955 366.559 73.1662 366.587C74.2179 366.812 75.3075 366.783 76.346 366.502Z" fill="#263238"/>
<path d="M88.7811 364.947C87.7262 364.929 86.6753 365.084 85.6698 365.405C84.6231 365.505 83.5985 365.769 82.6335 366.189C83.6897 366.398 84.7813 366.331 85.8045 365.995C86.8672 365.898 87.8897 365.538 88.7811 364.947Z" fill="#263238"/>
<path d="M99.8864 359.104C99.7612 358.965 98.5924 359.747 97.1591 360.696C95.7258 361.646 94.5131 362.397 94.6214 362.57C95.6802 362.375 96.6748 361.92 97.5164 361.244C99.0003 360.277 99.9998 359.242 99.8864 359.104Z" fill="#263238"/>
<path d="M108.054 349.56C107.267 350.268 106.598 351.099 106.073 352.022C105.372 352.819 104.806 353.726 104.398 354.708C105.311 354.133 106.071 353.34 106.61 352.401C107.317 351.588 107.813 350.612 108.054 349.56Z" fill="#263238"/>
<path d="M222.102 336.336C222.267 336.359 222.424 336.272 222.421 336.211C222.417 336.15 222.267 336.104 222.078 336.162C221.889 336.221 221.756 336.226 221.759 336.287C221.763 336.348 221.92 336.346 222.102 336.336Z" fill="#263238"/>
<path d="M209.973 347.405C210.943 346.415 211.826 345.343 212.612 344.2L213.189 343.432L213.293 343.289L213.163 343.186C212.355 342.497 211.484 341.887 210.562 341.363C211.288 342.141 212.09 342.844 212.956 343.46L212.917 343.224L212.329 343.99C211.446 345.057 210.658 346.2 209.973 347.405Z" fill="white"/>
</svg>
