<svg width="360" height="170" viewBox="0 0 360 170" fill="none" xmlns="http://www.w3.org/2000/svg">
<path d="M477.527 18.5664C477.527 20.2272 476.575 21.5685 475.401 21.5685H467.29C466.116 21.5685 465.164 20.2272 465.164 18.5664V10.1329C465.164 8.47786 466.116 7.13483 467.29 7.13483H475.401C476.575 7.13483 477.527 8.47786 477.527 10.1329V18.5664ZM477.527 159.171C477.527 160.826 476.575 162.169 475.401 162.169H467.29C466.116 162.169 465.164 160.826 465.164 159.171V150.737C465.164 149.081 466.116 147.738 467.29 147.738H475.401C476.575 147.738 477.527 149.081 477.527 150.737V159.171ZM458.651 18.5664C458.651 20.2272 457.702 21.5685 456.525 21.5685H448.415C447.243 21.5685 446.291 20.2272 446.291 18.5664V10.1329C446.291 8.47786 447.243 7.13483 448.415 7.13483H456.525C457.702 7.13483 458.651 8.47786 458.651 10.1329V18.5664ZM458.651 159.171C458.651 160.826 457.702 162.169 456.525 162.169H448.415C447.243 162.169 446.291 160.826 446.291 159.171V150.737C446.291 149.081 447.243 147.738 448.415 147.738H456.525C457.702 147.738 458.651 149.081 458.651 150.737V159.171ZM439.778 18.5664C439.778 20.2272 438.826 21.5685 437.652 21.5685H429.541C428.367 21.5685 427.412 20.2272 427.412 18.5664V10.1329C427.412 8.47786 428.367 7.13483 429.541 7.13483H437.652C438.826 7.13483 439.778 8.47786 439.778 10.1329V18.5664ZM439.778 159.171C439.778 160.826 438.826 162.169 437.652 162.169H429.541C428.367 162.169 427.412 160.826 427.412 159.171V150.737C427.412 149.081 428.367 147.738 429.541 147.738H437.652C438.826 147.738 439.778 149.081 439.778 150.737V159.171ZM420.9 18.5664C420.9 20.2272 419.95 21.5685 418.776 21.5685H410.663C409.491 21.5685 408.536 20.2272 408.536 18.5664V10.1329C408.536 8.47786 409.491 7.13483 410.663 7.13483H418.776C419.95 7.13483 420.9 8.47786 420.9 10.1329V18.5664ZM420.9 159.171C420.9 160.826 419.95 162.169 418.776 162.169H410.663C409.491 162.169 408.536 160.826 408.536 159.171V150.737C408.536 149.081 409.491 147.738 410.663 147.738H418.776C419.95 147.738 420.9 149.081 420.9 150.737V159.171ZM402.029 18.5664C402.029 20.2272 401.077 21.5685 399.9 21.5685H391.79C390.615 21.5685 389.663 20.2272 389.663 18.5664V10.1329C389.663 8.47786 390.615 7.13483 391.79 7.13483H399.9C401.077 7.13483 402.029 8.47786 402.029 10.1329V18.5664ZM402.029 159.171C402.029 160.826 401.077 162.169 399.9 162.169H391.79C390.615 162.169 389.663 160.826 389.663 159.171V150.737C389.663 149.081 390.615 147.738 391.79 147.738H399.9C401.077 147.738 402.029 149.081 402.029 150.737V159.171ZM383.151 18.5664C383.151 20.2272 382.201 21.5685 381.024 21.5685H372.914C371.74 21.5685 370.787 20.2272 370.787 18.5664V10.1329C370.787 8.47786 371.74 7.13483 372.914 7.13483H381.024C382.201 7.13483 383.151 8.47786 383.151 10.1329V18.5664ZM383.151 159.171C383.151 160.826 382.201 162.169 381.024 162.169H372.914C371.74 162.169 370.787 160.826 370.787 159.171V150.737C370.787 149.081 371.74 147.738 372.914 147.738H381.024C382.201 147.738 383.151 149.081 383.151 150.737V159.171ZM364.278 18.5664C364.278 20.2272 363.325 21.5685 362.151 21.5685H354.041C352.866 21.5685 351.914 20.2272 351.914 18.5664V10.1329C351.914 8.47786 352.866 7.13483 354.041 7.13483H362.151C363.325 7.13483 364.278 8.47786 364.278 10.1329V18.5664ZM364.278 159.171C364.278 160.826 363.325 162.169 362.151 162.169H354.041C352.866 162.169 351.914 160.826 351.914 159.171V150.737C351.914 149.081 352.866 147.738 354.041 147.738H362.151C363.325 147.738 364.278 149.081 364.278 150.737V159.171ZM345.402 18.5664C345.402 20.2272 344.449 21.5685 343.275 21.5685H335.165C333.99 21.5685 333.036 20.2272 333.036 18.5664V10.1329C333.036 8.47786 333.99 7.13483 335.165 7.13483H343.275C344.449 7.13483 345.402 8.47786 345.402 10.1329V18.5664ZM345.402 159.171C345.402 160.826 344.449 162.169 343.275 162.169H335.165C333.99 162.169 333.036 160.826 333.036 159.171V150.737C333.036 149.081 333.99 147.738 335.165 147.738H343.275C344.449 147.738 345.402 149.081 345.402 150.737V159.171ZM326.523 18.5664C326.523 20.2272 325.574 21.5685 324.399 21.5685H316.289C315.117 21.5685 314.162 20.2272 314.162 18.5664V10.1329C314.162 8.47786 315.117 7.13483 316.289 7.13483H324.399C325.574 7.13483 326.523 8.47786 326.523 10.1329V18.5664ZM326.523 159.171C326.523 160.826 325.574 162.169 324.399 162.169H316.289C315.117 162.169 314.162 160.826 314.162 159.171V150.737C314.162 149.081 315.117 147.738 316.289 147.738H324.399C325.574 147.738 326.523 149.081 326.523 150.737V159.171ZM307.653 18.5664C307.653 20.2272 306.7 21.5685 305.524 21.5685H297.413C296.239 21.5685 295.287 20.2272 295.287 18.5664V10.1329C295.287 8.47786 296.239 7.13483 297.413 7.13483H305.524C306.7 7.13483 307.653 8.47786 307.653 10.1329V18.5664ZM307.653 159.171C307.653 160.826 306.7 162.169 305.524 162.169H297.413C296.239 162.169 295.287 160.826 295.287 159.171V150.737C295.287 149.081 296.239 147.738 297.413 147.738H305.524C306.7 147.738 307.653 149.081 307.653 150.737V159.171ZM288.774 18.5664C288.774 20.2272 287.824 21.5685 286.648 21.5685H278.54C277.368 21.5685 276.413 20.2272 276.413 18.5664V10.1329C276.413 8.47786 277.368 7.13483 278.54 7.13483H286.648C287.824 7.13483 288.774 8.47786 288.774 10.1329V18.5664ZM288.774 159.171C288.774 160.826 287.824 162.169 286.648 162.169H278.54C277.368 162.169 276.413 160.826 276.413 159.171V150.737C276.413 149.081 277.368 147.738 278.54 147.738H286.648C287.824 147.738 288.774 149.081 288.774 150.737V159.171ZM269.901 18.5664C269.901 20.2272 268.951 21.5685 267.774 21.5685H259.664C258.49 21.5685 257.537 20.2272 257.537 18.5664V10.1329C257.537 8.47786 258.49 7.13483 259.664 7.13483H267.774C268.951 7.13483 269.901 8.47786 269.901 10.1329V18.5664ZM269.901 159.171C269.901 160.826 268.951 162.169 267.774 162.169H259.664C258.49 162.169 257.537 160.826 257.537 159.171V150.737C257.537 149.081 258.49 147.738 259.664 147.738H267.774C268.951 147.738 269.901 149.081 269.901 150.737V159.171ZM251.025 18.5664C251.025 20.2272 250.073 21.5685 248.899 21.5685H240.788C239.614 21.5685 238.662 20.2272 238.662 18.5664V10.1329C238.662 8.47786 239.614 7.13483 240.788 7.13483H248.899C250.073 7.13483 251.025 8.47786 251.025 10.1329V18.5664ZM251.025 159.171C251.025 160.826 250.073 162.169 248.899 162.169H240.788C239.614 162.169 238.662 160.826 238.662 159.171V150.737C238.662 149.081 239.614 147.738 240.788 147.738H248.899C250.073 147.738 251.025 149.081 251.025 150.737V159.171ZM232.152 18.5664C232.152 20.2272 231.2 21.5685 230.025 21.5685H221.912C220.741 21.5685 219.788 20.2272 219.788 18.5664V10.1329C219.788 8.47786 220.741 7.13483 221.912 7.13483H230.025C231.2 7.13483 232.152 8.47786 232.152 10.1329V18.5664ZM232.152 159.171C232.152 160.826 231.2 162.169 230.025 162.169H221.912C220.741 162.169 219.788 160.826 219.788 159.171V150.737C219.788 149.081 220.741 147.738 221.912 147.738H230.025C231.2 147.738 232.152 149.081 232.152 150.737V159.171ZM213.276 18.5664C213.276 20.2272 212.324 21.5685 211.147 21.5685H203.039C201.862 21.5685 200.91 20.2272 200.91 18.5664V10.1329C200.91 8.47786 201.862 7.13483 203.039 7.13483H211.147C212.324 7.13483 213.276 8.47786 213.276 10.1329V18.5664ZM213.276 159.171C213.276 160.826 212.324 162.169 211.147 162.169H203.039C201.862 162.169 200.91 160.826 200.91 159.171V150.737C200.91 149.081 201.862 147.738 203.039 147.738H211.147C212.324 147.738 213.276 149.081 213.276 150.737V159.171ZM194.4 18.5664C194.4 20.2272 193.448 21.5685 192.276 21.5685H184.163C182.989 21.5685 182.037 20.2272 182.037 18.5664V10.1329C182.037 8.47786 182.989 7.13483 184.163 7.13483H192.276C193.448 7.13483 194.4 8.47786 194.4 10.1329V18.5664ZM194.4 159.171C194.4 160.826 193.448 162.169 192.276 162.169H184.163C182.989 162.169 182.037 160.826 182.037 159.171V150.737C182.037 149.081 182.989 147.738 184.163 147.738H192.276C193.448 147.738 194.4 149.081 194.4 150.737V159.171ZM175.527 18.5664C175.527 20.2272 174.575 21.5685 173.398 21.5685H165.287C164.113 21.5685 163.161 20.2272 163.161 18.5664V10.1329C163.161 8.47786 164.113 7.13483 165.287 7.13483H173.398C174.575 7.13483 175.527 8.47786 175.527 10.1329V18.5664ZM175.527 159.171C175.527 160.826 174.575 162.169 173.398 162.169H165.287C164.113 162.169 163.161 160.826 163.161 159.171V150.737C163.161 149.081 164.113 147.738 165.287 147.738H173.398C174.575 147.738 175.527 149.081 175.527 150.737V159.171ZM156.651 18.5664C156.651 20.2272 155.696 21.5685 154.524 21.5685H146.414C145.24 21.5685 144.285 20.2272 144.285 18.5664V10.1329C144.285 8.47786 145.24 7.13483 146.414 7.13483H154.524C155.696 7.13483 156.651 8.47786 156.651 10.1329V18.5664ZM156.651 159.171C156.651 160.826 155.696 162.169 154.524 162.169H146.414C145.24 162.169 144.285 160.826 144.285 159.171V150.737C144.285 149.081 145.24 147.738 146.414 147.738H154.524C155.696 147.738 156.651 149.081 156.651 150.737V159.171ZM137.775 18.5664C137.775 20.2272 136.823 21.5685 135.649 21.5685H127.536C126.364 21.5685 125.412 20.2272 125.412 18.5664V10.1329C125.412 8.47786 126.364 7.13483 127.536 7.13483H135.649C136.823 7.13483 137.775 8.47786 137.775 10.1329V18.5664ZM137.775 159.171C137.775 160.826 136.823 162.169 135.649 162.169H127.536C126.364 162.169 125.412 160.826 125.412 159.171V150.737C125.412 149.081 126.364 147.738 127.536 147.738H135.649C136.823 147.738 137.775 149.081 137.775 150.737V159.171ZM118.899 18.5664C118.899 20.2272 117.947 21.5685 116.77 21.5685H108.662C107.488 21.5685 106.536 20.2272 106.536 18.5664V10.1329C106.536 8.47786 107.488 7.13483 108.662 7.13483H116.77C117.947 7.13483 118.899 8.47786 118.899 10.1329V18.5664ZM118.899 159.171C118.899 160.826 117.947 162.169 116.77 162.169H108.662C107.488 162.169 106.536 160.826 106.536 159.171V150.737C106.536 149.081 107.488 147.738 108.662 147.738H116.77C117.947 147.738 118.899 149.081 118.899 150.737V159.171ZM100.023 18.5664C100.023 20.2272 99.0739 21.5685 97.8996 21.5685H89.7866C88.6148 21.5685 87.66 20.2272 87.66 18.5664V10.1329C87.66 8.47786 88.6148 7.13483 89.7866 7.13483H97.8996C99.0739 7.13483 100.023 8.47786 100.023 10.1329V18.5664ZM100.023 159.171C100.023 160.826 99.0739 162.169 97.8996 162.169H89.7866C88.6148 162.169 87.66 160.826 87.66 159.171V150.737C87.66 149.081 88.6148 147.738 89.7866 147.738H97.8996C99.0739 147.738 100.023 149.081 100.023 150.737V159.171ZM81.1477 18.5664C81.1477 20.2272 80.198 21.5685 79.0212 21.5685H70.9133C69.739 21.5685 68.7867 20.2272 68.7867 18.5664V10.1329C68.7867 8.47786 69.739 7.13483 70.9133 7.13483H79.0212C80.198 7.13483 81.1477 8.47786 81.1477 10.1329V18.5664ZM81.1477 159.171C81.1477 160.826 80.198 162.169 79.0212 162.169H70.9133C69.739 162.169 68.7867 160.826 68.7867 159.171V150.737C68.7867 149.081 69.739 147.738 70.9133 147.738H79.0212C80.198 147.738 81.1477 149.081 81.1477 150.737V159.171ZM62.2744 18.5664C62.2744 20.2272 61.3222 21.5685 60.1479 21.5685H52.0374C50.8631 21.5685 49.9084 20.2272 49.9084 18.5664V10.1329C49.9084 8.47786 50.8631 7.13483 52.0374 7.13483H60.1479C61.3222 7.13483 62.2744 8.47786 62.2744 10.1329V18.5664ZM62.2744 159.171C62.2744 160.826 61.3222 162.169 60.1479 162.169H52.0374C50.8631 162.169 49.9084 160.826 49.9084 159.171V150.737C49.9084 149.081 50.8631 147.738 52.0374 147.738H60.1479C61.3222 147.738 62.2744 149.081 62.2744 150.737V159.171ZM43.3986 18.5664C43.3986 20.2272 42.4489 21.5685 41.2721 21.5685H33.1591C31.9873 21.5685 31.0351 20.2272 31.0351 18.5664V10.1329C31.0351 8.47786 31.9873 7.13483 33.1591 7.13483H41.2721C42.4489 7.13483 43.3986 8.47786 43.3986 10.1329V18.5664ZM43.3986 159.171C43.3986 160.826 42.4489 162.169 41.2721 162.169H33.1591C31.9873 162.169 31.0351 160.826 31.0351 159.171V150.737C31.0351 149.081 31.9873 147.738 33.1591 147.738H41.2721C42.4489 147.738 43.3986 149.081 43.3986 150.737V159.171ZM24.5253 18.5664C24.5253 20.2272 23.5731 21.5685 22.3962 21.5685H14.2858C13.1115 21.5685 12.1593 20.2272 12.1593 18.5664V10.1329C12.1593 8.47786 13.1115 7.13483 14.2858 7.13483H22.3962C23.5731 7.13483 24.5253 8.47786 24.5253 10.1329V18.5664ZM24.5253 159.171C24.5253 160.826 23.5731 162.169 22.3962 162.169H14.2858C13.1115 162.169 12.1593 160.826 12.1593 159.171V150.737C12.1593 149.081 13.1115 147.738 14.2858 147.738H22.3962C23.5731 147.738 24.5253 149.081 24.5253 150.737V159.171ZM5.64691 18.5664C5.64691 20.2272 4.69727 21.5685 3.52295 21.5685H-4.59006C-5.76181 21.5685 -6.71655 20.2272 -6.71655 18.5664V10.1329C-6.71655 8.47786 -5.76181 7.13483 -4.59006 7.13483H3.52295C4.69727 7.13483 5.64691 8.47786 5.64691 10.1329V18.5664ZM5.64691 159.171C5.64691 160.826 4.69727 162.169 3.52295 162.169H-4.59006C-5.76181 162.169 -6.71655 160.826 -6.71655 159.171V150.737C-6.71655 149.081 -5.76181 147.738 -4.59006 147.738H3.52295C4.69727 147.738 5.64691 149.081 5.64691 150.737V159.171ZM-13.2263 18.5664C-13.2263 20.2272 -14.1786 21.5685 -15.3529 21.5685H-23.4633C-24.6376 21.5685 -25.5898 20.2272 -25.5898 18.5664V10.1329C-25.5898 8.47786 -24.6376 7.13483 -23.4633 7.13483H-15.3529C-14.1786 7.13483 -13.2263 8.47786 -13.2263 10.1329V18.5664ZM-13.2263 159.171C-13.2263 160.826 -14.1786 162.169 -15.3529 162.169H-23.4633C-24.6376 162.169 -25.5898 160.826 -25.5898 159.171V150.737C-25.5898 149.081 -24.6376 147.738 -23.4633 147.738H-15.3529C-14.1786 147.738 -13.2263 149.081 -13.2263 150.737V159.171ZM-32.1022 18.5664C-32.1022 20.2272 -33.0544 21.5685 -34.2287 21.5685H-42.3391C-43.5134 21.5685 -44.4682 20.2272 -44.4682 18.5664V10.1329C-44.4682 8.47786 -43.5134 7.13483 -42.3391 7.13483H-34.2287C-33.0544 7.13483 -32.1022 8.47786 -32.1022 10.1329V18.5664ZM-32.1022 159.171C-32.1022 160.826 -33.0544 162.169 -34.2287 162.169H-42.3391C-43.5134 162.169 -44.4682 160.826 -44.4682 159.171V150.737C-44.4682 149.081 -43.5134 147.738 -42.3391 147.738H-34.2287C-33.0544 147.738 -32.1022 149.081 -32.1022 150.737V159.171ZM-50.978 18.5664C-50.978 20.2272 -51.9302 21.5685 -53.1045 21.5685H-61.215C-62.3867 21.5685 -63.3392 20.2272 -63.3392 18.5664V10.1329C-63.3392 8.47786 -62.3867 7.13483 -61.215 7.13483H-53.1045C-51.9302 7.13483 -50.978 8.47786 -50.978 10.1329V18.5664ZM-50.978 159.171C-50.978 160.826 -51.9302 162.169 -53.1045 162.169H-61.215C-62.3867 162.169 -63.3392 160.826 -63.3392 159.171V150.737C-63.3392 149.081 -62.3867 147.738 -61.215 147.738H-53.1045C-51.9302 147.738 -50.978 149.081 -50.978 150.737V159.171ZM-69.851 18.5664C-69.851 20.2272 -70.8035 21.5685 -71.9811 21.5685H-80.0903C-81.2621 21.5685 -82.2173 20.2272 -82.2173 18.5664V10.1329C-82.2173 8.47786 -81.2621 7.13483 -80.0903 7.13483H-71.9811C-70.8035 7.13483 -69.851 8.47786 -69.851 10.1329V18.5664ZM-69.851 159.171C-69.851 160.826 -70.8035 162.169 -71.9811 162.169H-80.0903C-81.2621 162.169 -82.2173 160.826 -82.2173 159.171V150.737C-82.2173 149.081 -81.2621 147.738 -80.0903 147.738H-71.9811C-70.8035 147.738 -69.851 149.081 -69.851 150.737V159.171ZM-88.7281 18.5664C-88.7281 20.2272 -89.6786 21.5685 -90.8534 21.5685H-98.9645C-100.139 21.5685 -101.092 20.2272 -101.092 18.5664V10.1329C-101.092 8.47786 -100.139 7.13483 -98.9645 7.13483H-90.8534C-89.6786 7.13483 -88.7281 8.47786 -88.7281 10.1329V18.5664ZM-88.7281 159.171C-88.7281 160.826 -89.6786 162.169 -90.8534 162.169H-98.9645C-100.139 162.169 -101.092 160.826 -101.092 159.171V150.737C-101.092 149.081 -100.139 147.738 -98.9645 147.738H-90.8534C-89.6786 147.738 -88.7281 149.081 -88.7281 150.737V159.171ZM-107.603 18.5664C-107.603 20.2272 -108.554 21.5685 -109.73 21.5685H-117.84C-119.013 21.5685 -119.967 20.2272 -119.967 18.5664V10.1329C-119.967 8.47786 -119.013 7.13483 -117.84 7.13483H-109.73C-108.554 7.13483 -107.603 8.47786 -107.603 10.1329V18.5664ZM-107.603 159.171C-107.603 160.826 -108.554 162.169 -109.73 162.169H-117.84C-119.013 162.169 -119.967 160.826 -119.967 159.171V150.737C-119.967 149.081 -119.013 147.738 -117.84 147.738H-109.73C-108.554 147.738 -107.603 149.081 -107.603 150.737V159.171ZM-126.478 18.5664C-126.478 20.2272 -127.428 21.5685 -128.605 21.5685H-136.714C-137.889 21.5685 -138.841 20.2272 -138.841 18.5664V10.1329C-138.841 8.47786 -137.889 7.13483 -136.714 7.13483H-128.605C-127.428 7.13483 -126.478 8.47786 -126.478 10.1329V18.5664ZM-126.478 159.171C-126.478 160.826 -127.428 162.169 -128.605 162.169H-136.714C-137.889 162.169 -138.841 160.826 -138.841 159.171V150.737C-138.841 149.081 -137.889 147.738 -136.714 147.738H-128.605C-127.428 147.738 -126.478 149.081 -126.478 150.737V159.171ZM-145.353 18.5664C-145.353 20.2272 -146.305 21.5685 -147.479 21.5685H-155.591C-156.763 21.5685 -157.718 20.2272 -157.718 18.5664V10.1329C-157.718 8.47786 -156.763 7.13483 -155.591 7.13483H-147.479C-146.305 7.13483 -145.353 8.47786 -145.353 10.1329V18.5664ZM-145.353 159.171C-145.353 160.826 -146.305 162.169 -147.479 162.169H-155.591C-156.763 162.169 -157.718 160.826 -157.718 159.171V150.737C-157.718 149.081 -156.763 147.738 -155.591 147.738H-147.479C-146.305 147.738 -145.353 149.081 -145.353 150.737V159.171ZM-164.228 18.5664C-164.228 20.2272 -165.179 21.5685 -166.354 21.5685H-174.463C-175.638 21.5685 -176.592 20.2272 -176.592 18.5664V10.1329C-176.592 8.47786 -175.638 7.13483 -174.463 7.13483H-166.354C-165.179 7.13483 -164.228 8.47786 -164.228 10.1329V18.5664ZM-164.228 159.171C-164.228 160.826 -165.179 162.169 -166.354 162.169H-174.463C-175.638 162.169 -176.592 160.826 -176.592 159.171V150.737C-176.592 149.081 -175.638 147.738 -174.463 147.738H-166.354C-165.179 147.738 -164.228 149.081 -164.228 150.737V159.171ZM-183.105 18.5664C-183.105 20.2272 -184.055 21.5685 -185.231 21.5685H-193.341C-194.512 21.5685 -195.468 20.2272 -195.468 18.5664V10.1329C-195.468 8.47786 -194.512 7.13483 -193.341 7.13483H-185.231C-184.055 7.13483 -183.105 8.47786 -183.105 10.1329V18.5664ZM-183.105 159.171C-183.105 160.826 -184.055 162.169 -185.231 162.169H-193.341C-194.512 162.169 -195.468 160.826 -195.468 159.171V150.737C-195.468 149.081 -194.512 147.738 -193.341 147.738H-185.231C-184.055 147.738 -183.105 149.081 -183.105 150.737V159.171ZM-201.979 18.5664C-201.979 20.2272 -202.929 21.5685 -204.105 21.5685H-212.216C-213.391 21.5685 -214.342 20.2272 -214.342 18.5664V10.1329C-214.342 8.47786 -213.391 7.13483 -212.216 7.13483H-204.105C-202.929 7.13483 -201.979 8.47786 -201.979 10.1329V18.5664ZM-201.979 159.171C-201.979 160.826 -202.929 162.169 -204.105 162.169H-212.216C-213.391 162.169 -214.342 160.826 -214.342 159.171V150.737C-214.342 149.081 -213.391 147.738 -212.216 147.738H-204.105C-202.929 147.738 -201.979 149.081 -201.979 150.737V159.171ZM-220.855 18.5664C-220.855 20.2272 -221.806 21.5685 -222.981 21.5685H-231.091C-232.265 21.5685 -233.217 20.2272 -233.217 18.5664V10.1329C-233.217 8.47786 -232.265 7.13483 -231.091 7.13483H-222.981C-221.806 7.13483 -220.855 8.47786 -220.855 10.1329V18.5664ZM-220.855 159.171C-220.855 160.826 -221.806 162.169 -222.981 162.169H-231.091C-232.265 162.169 -233.217 160.826 -233.217 159.171V150.737C-233.217 149.081 -232.265 147.738 -231.091 147.738H-222.981C-221.806 147.738 -220.855 149.081 -220.855 150.737V159.171ZM-239.729 18.5664C-239.729 20.2272 -240.678 21.5685 -241.856 21.5685H-249.968C-251.14 21.5685 -252.091 20.2272 -252.091 18.5664V10.1329C-252.091 8.47786 -251.14 7.13483 -249.968 7.13483H-241.856C-240.678 7.13483 -239.729 8.47786 -239.729 10.1329V18.5664ZM-239.729 159.171C-239.729 160.826 -240.678 162.169 -241.856 162.169H-249.968C-251.14 162.169 -252.091 160.826 -252.091 159.171V150.737C-252.091 149.081 -251.14 147.738 -249.968 147.738H-241.856C-240.678 147.738 -239.729 149.081 -239.729 150.737V159.171ZM-258.603 18.5664C-258.603 20.2272 -259.555 21.5685 -260.73 21.5685H-268.84C-270.016 21.5685 -270.969 20.2272 -270.969 18.5664V10.1329C-270.969 8.47786 -270.016 7.13483 -268.84 7.13483H-260.73C-259.555 7.13483 -258.603 8.47786 -258.603 10.1329V18.5664ZM-258.603 159.171C-258.603 160.826 -259.555 162.169 -260.73 162.169H-268.84C-270.016 162.169 -270.969 160.826 -270.969 159.171V150.737C-270.969 149.081 -270.016 147.738 -268.84 147.738H-260.73C-259.555 147.738 -258.603 149.081 -258.603 150.737V159.171ZM-277.48 18.5664C-277.48 20.2272 -278.43 21.5685 -279.607 21.5685H-287.718C-288.889 21.5685 -289.844 20.2272 -289.844 18.5664V10.1329C-289.844 8.47786 -288.889 7.13483 -287.718 7.13483H-279.607C-278.43 7.13483 -277.48 8.47786 -277.48 10.1329V18.5664ZM-277.48 159.171C-277.48 160.826 -278.43 162.169 -279.607 162.169H-287.718C-288.889 162.169 -289.844 160.826 -289.844 159.171V150.737C-289.844 149.081 -288.889 147.738 -287.718 147.738H-279.607C-278.43 147.738 -277.48 149.081 -277.48 150.737V159.171ZM-296.352 18.5664C-296.352 20.2272 -297.306 21.5685 -298.482 21.5685H-306.592C-307.765 21.5685 -308.718 20.2272 -308.718 18.5664V10.1329C-308.718 8.47786 -307.765 7.13483 -306.592 7.13483H-298.482C-297.306 7.13483 -296.352 8.47786 -296.352 10.1329V18.5664ZM-296.352 159.171C-296.352 160.826 -297.306 162.169 -298.482 162.169H-306.592C-307.765 162.169 -308.718 160.826 -308.718 159.171V150.737C-308.718 149.081 -307.765 147.738 -306.592 147.738H-298.482C-297.306 147.738 -296.352 149.081 -296.352 150.737V159.171ZM-315.23 18.5664C-315.23 20.2272 -316.182 21.5685 -317.357 21.5685H-325.467C-326.641 21.5685 -327.595 20.2272 -327.595 18.5664V10.1329C-327.595 8.47786 -326.641 7.13483 -325.467 7.13483H-317.357C-316.182 7.13483 -315.23 8.47786 -315.23 10.1329V18.5664ZM-315.23 159.171C-315.23 160.826 -316.182 162.169 -317.357 162.169H-325.467C-326.641 162.169 -327.595 160.826 -327.595 159.171V150.737C-327.595 149.081 -326.641 147.738 -325.467 147.738H-317.357C-316.182 147.738 -315.23 149.081 -315.23 150.737V159.171ZM-334.105 18.5664C-334.105 20.2272 -335.057 21.5685 -336.231 21.5685H-344.343C-345.515 21.5685 -346.468 20.2272 -346.468 18.5664V10.1329C-346.468 8.47786 -345.515 7.13483 -344.343 7.13483H-336.231C-335.057 7.13483 -334.105 8.47786 -334.105 10.1329V18.5664ZM-334.105 159.171C-334.105 160.826 -335.057 162.169 -336.231 162.169H-344.343C-345.515 162.169 -346.468 160.826 -346.468 159.171V150.737C-346.468 149.081 -345.515 147.738 -344.343 147.738H-336.231C-335.057 147.738 -334.105 149.081 -334.105 150.737V159.171ZM-352.98 18.5664C-352.98 20.2272 -353.932 21.5685 -355.108 21.5685H-363.215C-364.39 21.5685 -365.344 20.2272 -365.344 18.5664V10.1329C-365.344 8.47786 -364.39 7.13483 -363.215 7.13483H-355.108C-353.932 7.13483 -352.98 8.47786 -352.98 10.1329V18.5664ZM-352.98 159.171C-352.98 160.826 -353.932 162.169 -355.108 162.169H-363.215C-364.39 162.169 -365.344 160.826 -365.344 159.171V150.737C-365.344 149.081 -364.39 147.738 -363.215 147.738H-355.108C-353.932 147.738 -352.98 149.081 -352.98 150.737V159.171ZM-371.857 18.5664C-371.857 20.2272 -372.807 21.5685 -373.98 21.5685H-382.093C-383.264 21.5685 -384.22 20.2272 -384.22 18.5664V10.1329C-384.22 8.47786 -383.264 7.13483 -382.093 7.13483H-373.98C-372.807 7.13483 -371.857 8.47786 -371.857 10.1329V18.5664ZM-371.857 159.171C-371.857 160.826 -372.807 162.169 -373.98 162.169H-382.093C-383.264 162.169 -384.22 160.826 -384.22 159.171V150.737C-384.22 149.081 -383.264 147.738 -382.093 147.738H-373.98C-372.807 147.738 -371.857 149.081 -371.857 150.737V159.171ZM-390.729 18.5664C-390.729 20.2272 -391.681 21.5685 -392.857 21.5685H-400.968C-402.142 21.5685 -403.094 20.2272 -403.094 18.5664V10.1329C-403.094 8.47786 -402.142 7.13483 -400.968 7.13483H-392.857C-391.681 7.13483 -390.729 8.47786 -390.729 10.1329V18.5664ZM-390.729 159.171C-390.729 160.826 -391.681 162.169 -392.857 162.169H-400.968C-402.142 162.169 -403.094 160.826 -403.094 159.171V150.737C-403.094 149.081 -402.142 147.738 -400.968 147.738H-392.857C-391.681 147.738 -390.729 149.081 -390.729 150.737V159.171ZM-406.535 0.231201V169.667H477.984V0.231201H-406.535Z" fill="#252525"/>
</svg>
