<svg width="1920" height="860" viewBox="0 0 1920 860" fill="none" xmlns="http://www.w3.org/2000/svg">
<g opacity="0.65">
<mask id="mask0_5756_20656" style="mask-type:alpha" maskUnits="userSpaceOnUse" x="967" y="648" width="552" height="212">
<rect x="1518.33" y="860" width="550.329" height="212" transform="rotate(-180 1518.33 860)" fill="#C4C4C4"/>
</mask>
<g mask="url(#mask0_5756_20656)">
<g opacity="0.1">
<path d="M1037.5 896.133L1170.14 896.133C1177.53 896.133 1184.5 899.08 1189.83 904.273C1194.07 908.483 1198.72 913.255 1203.64 918.307C1214.04 929.113 1214.86 946.375 1205.56 958.303C1178.48 998.02 1151.27 955.777 1151.27 955.777L1151.13 956.058C1142.93 945.673 1130.49 938.937 1116.4 938.937C1090.15 938.937 1069.22 961.952 1071.41 989.319C1073.46 1013.74 1094.93 1031.7 1118.73 1031.56C1130.76 1031.42 1142.25 1030.58 1153.19 1028.75C1173.7 1030.02 1196.81 1032.54 1218.96 1037.31C1192.71 1048.82 1171.37 1065.52 1162.21 1089.66C1157.29 1086.15 1151.27 1084.05 1144.84 1084.05C1128.16 1084.05 1114.49 1097.94 1114.49 1115.2C1114.49 1132.46 1128.02 1146.36 1144.84 1146.36C1161.66 1146.36 1175.2 1132.46 1175.2 1115.2C1175.2 1110.71 1174.24 1106.64 1172.6 1102.71C1179.58 1072.68 1207.61 1054.44 1241.8 1043.21C1277.08 1054.16 1306.48 1072.54 1313.45 1102.85C1311.95 1106.64 1310.99 1110.71 1310.99 1115.06C1310.99 1132.18 1324.53 1146.22 1341.35 1146.22C1358.17 1146.22 1371.71 1132.32 1371.71 1115.06C1371.71 1097.8 1358.17 1083.91 1341.35 1083.91C1334.92 1083.91 1328.9 1086.01 1323.98 1089.66C1314.68 1065.1 1293.08 1048.12 1265.73 1036.61C1287.06 1031.84 1309.21 1029.32 1329.18 1027.91C1341.62 1030.3 1354.61 1031.42 1368.15 1031.42C1392.08 1031.56 1413.41 1013.6 1415.46 989.178C1417.79 961.812 1396.73 938.796 1370.48 938.796C1356.39 938.796 1344.08 945.533 1335.74 955.918L1335.6 955.637C1335.6 955.637 1309.62 998.16 1281.32 958.163C1272.02 946.234 1272.7 929.113 1283.23 918.166C1288.15 913.114 1292.8 908.343 1297.04 904.132C1302.38 898.94 1309.35 895.993 1316.73 895.993L1331.09 895.993L1332.6 895.993L1450.47 895.993C1474.13 895.993 1493.55 876.065 1493.55 851.786C1493.55 827.367 1474.27 807.579 1450.47 807.579L1331.78 807.579C1315.09 807.579 1301.42 793.685 1301.42 776.424L1301.42 776.283C1301.56 725.34 1391.67 749.759 1399.33 749.619L1399.88 749.619C1423.53 748.917 1444.73 732.357 1449.38 708.499C1455.94 675.239 1431.19 645.908 1399.88 645.908L1398.92 645.908C1387.02 645.627 1298.27 641.698 1278.03 606.051C1284.74 604.087 1289.79 598.052 1289.79 590.614C1289.79 581.632 1282.68 574.335 1273.93 574.335C1273.39 574.335 1272.84 574.615 1272.29 574.615C1268.74 561.283 1256.98 551.459 1243.03 551.459C1228.94 551.459 1217.18 561.283 1213.76 574.615C1213.08 574.475 1212.53 574.194 1211.99 574.194C1203.23 574.194 1196.12 581.492 1196.12 590.474C1196.12 598.473 1201.87 604.788 1209.25 606.192C1191.2 639.172 1114.9 644.785 1093.15 645.627L1088.64 645.768C1060.74 645.768 1038.18 668.923 1038.18 697.553C1038.18 726.182 1060.74 749.338 1088.64 749.338L1089.87 749.338C1101.09 749.759 1184.91 726.182 1184.77 776.283C1184.77 793.405 1170.83 807.298 1154.14 807.298L1150.59 807.298L1038.18 807.298L1035.72 807.298C1010.56 807.298 990.321 829.472 992.782 855.856C994.833 879.292 1014.93 896.133 1037.5 896.133ZM1259.03 896.133C1254.1 901.045 1248.91 906.659 1243.57 912.693C1238.24 906.799 1233.05 901.045 1228.12 896.133L1259.03 896.133ZM1219.1 995.774C1224.57 990.161 1229.76 982.161 1233.32 977.109C1236.46 972.618 1239.88 968.127 1243.44 963.636C1246.99 968.127 1250.28 974.302 1253.42 978.793C1257.8 985.108 1257.93 985.67 1267.78 995.774C1276.8 1005.04 1286.51 1011.77 1297.04 1017.11C1278.99 1019.49 1260.26 1023.14 1242.75 1028.47C1225.39 1023.42 1206.79 1019.91 1188.33 1017.67C1199.41 1012.33 1209.66 1005.32 1219.1 995.774Z" fill="#8FC055"/>
</g>
</g>
</g>
<g opacity="0.65">
<mask id="mask1_5756_20656" style="mask-type:alpha" maskUnits="userSpaceOnUse" x="638" y="20" width="622" height="269">
<rect width="621.011" height="268" transform="matrix(-1 -8.74228e-08 -8.74228e-08 1 1259.01 20.0001)" fill="#C4C4C4"/>
</mask>
<g mask="url(#mask1_5756_20656)">
<g opacity="0.1">
<path d="M716.425 15.1828L866.105 15.1828C874.438 15.1828 882.308 11.9425 888.326 6.2334C893.109 1.6044 898.356 -3.64181 903.911 -9.19662C915.638 -21.0777 916.564 -40.0566 906.071 -53.1721C875.518 -96.8391 844.81 -50.3948 844.81 -50.3948L844.656 -50.7034C835.397 -39.2851 821.355 -31.8788 805.462 -31.8788C775.834 -31.8788 752.225 -57.184 754.694 -87.2725C757.008 -114.121 781.235 -133.871 808.085 -133.717C821.664 -133.563 834.626 -132.637 846.971 -130.631C870.117 -132.02 896.195 -134.797 921.194 -140.043C891.566 -152.696 867.494 -171.058 857.155 -197.597C851.6 -193.74 844.81 -191.425 837.558 -191.425C818.732 -191.425 803.301 -206.701 803.301 -225.68C803.301 -244.659 818.578 -259.934 837.558 -259.934C856.538 -259.934 871.814 -244.659 871.814 -225.68C871.814 -220.742 870.734 -216.267 868.883 -211.947C876.752 -178.927 908.386 -158.868 946.963 -146.524C986.775 -158.559 1019.95 -178.773 1027.82 -212.101C1026.12 -216.268 1025.04 -220.742 1025.04 -225.525C1025.04 -244.35 1040.32 -259.78 1059.3 -259.78C1078.28 -259.78 1093.56 -244.504 1093.56 -225.525C1093.56 -206.547 1078.28 -191.271 1059.3 -191.271C1052.05 -191.271 1045.26 -193.585 1039.7 -197.597C1029.21 -170.595 1004.83 -151.924 973.967 -139.272C998.04 -134.025 1023.04 -131.248 1045.57 -129.705C1059.61 -132.328 1074.27 -133.563 1089.55 -133.563C1116.55 -133.717 1140.62 -113.966 1142.94 -87.1182C1145.56 -57.0296 1121.8 -31.7244 1092.17 -31.7244C1076.27 -31.7244 1062.39 -39.1308 1052.97 -50.5491L1052.82 -50.2404C1052.82 -50.2404 1023.5 -96.9934 991.559 -53.0179C981.066 -39.9024 981.837 -21.0777 993.719 -9.04232C999.274 -3.48751 1004.52 1.75871 1009.3 6.38771C1015.32 12.0968 1023.19 15.3371 1031.52 15.3371L1047.73 15.3371L1049.42 15.3371L1182.44 15.3372C1209.13 15.3372 1231.05 37.2477 1231.05 63.9417C1231.05 90.7899 1209.29 112.546 1182.44 112.546L1048.5 112.546C1029.67 112.546 1014.24 127.822 1014.24 146.801L1014.24 146.955C1014.4 202.966 1116.09 176.118 1124.73 176.272L1125.34 176.272C1152.04 177.044 1175.96 195.251 1181.2 221.482C1188.61 258.051 1160.68 290.3 1125.34 290.3L1124.26 290.3C1110.84 290.609 1010.69 294.929 987.855 334.121C995.416 336.282 1001.13 342.916 1001.13 351.094C1001.13 360.97 993.102 368.993 983.226 368.993C982.609 368.993 981.991 368.685 981.374 368.685C977.362 383.343 964.091 394.144 948.352 394.144C932.458 394.144 919.187 383.343 915.33 368.685C914.558 368.839 913.941 369.147 913.324 369.147C903.448 369.147 895.424 361.124 895.424 351.249C895.424 342.454 901.905 335.51 910.237 333.967C889.869 297.706 803.764 291.534 779.229 290.609L774.136 290.454C742.657 290.454 717.196 264.995 717.196 233.518C717.196 202.04 742.657 176.581 774.136 176.581L775.525 176.581C788.179 176.118 882.77 202.04 882.616 146.955C882.616 128.131 866.877 112.855 848.051 112.855L844.039 112.855L717.197 112.855L714.419 112.855C686.026 112.855 663.188 88.4754 665.966 59.467C668.28 33.6988 690.964 15.1828 716.425 15.1828ZM966.406 15.1828C960.851 9.78229 954.987 3.61033 948.969 -3.02456C942.951 3.45603 937.087 9.78229 931.532 15.1828L966.406 15.1828ZM921.348 -94.3703C927.52 -88.1983 933.384 -79.4032 937.396 -73.8484C940.945 -68.9108 944.803 -63.9732 948.815 -59.0356C952.827 -63.9732 956.53 -70.7624 960.08 -75.7C965.017 -82.6435 965.172 -83.2607 976.282 -94.3703C986.466 -104.554 997.422 -111.961 1009.3 -117.824C988.935 -120.447 967.795 -124.459 948.043 -130.322C928.446 -124.767 907.46 -120.91 886.628 -118.441C899.127 -112.578 910.7 -104.863 921.348 -94.3703Z" fill="#8FC055"/>
</g>
</g>
</g>
</svg>
