<svg width="1490" height="440" viewBox="0 0 1490 440" fill="none" xmlns="http://www.w3.org/2000/svg">
<path d="M715.589 47.9206C715.589 52.2301 717.492 55.7104 719.839 55.7104H736.047C738.393 55.7104 740.296 52.2301 740.296 47.9206V26.0374C740.296 21.7427 738.393 18.2578 736.047 18.2578H719.839C717.492 18.2578 715.589 21.7427 715.589 26.0374V47.9206ZM715.589 412.764C715.589 417.057 717.492 420.542 719.839 420.542H736.047C738.393 420.542 740.296 417.057 740.296 412.764V390.879C740.296 386.581 738.393 383.097 736.047 383.097H719.839C717.492 383.097 715.589 386.581 715.589 390.879V412.764ZM753.311 47.9206C753.311 52.2301 755.208 55.7104 757.56 55.7104H773.768C776.109 55.7104 778.012 52.2301 778.012 47.9206V26.0374C778.012 21.7427 776.109 18.2578 773.768 18.2578H757.56C755.208 18.2578 753.311 21.7427 753.311 26.0374V47.9206ZM753.311 412.764C753.311 417.057 755.208 420.542 757.56 420.542H773.768C776.109 420.542 778.012 417.057 778.012 412.764V390.879C778.012 386.581 776.109 383.097 773.768 383.097H757.56C755.208 383.097 753.311 386.581 753.311 390.879V412.764ZM791.027 47.9206C791.027 52.2301 792.929 55.7104 795.276 55.7104H811.484C813.831 55.7104 815.739 52.2301 815.739 47.9206V26.0374C815.739 21.7427 813.831 18.2578 811.484 18.2578H795.276C792.929 18.2578 791.027 21.7427 791.027 26.0374V47.9206ZM791.027 412.764C791.027 417.057 792.929 420.542 795.276 420.542H811.484C813.831 420.542 815.739 417.057 815.739 412.764V390.879C815.739 386.581 813.831 383.097 811.484 383.097H795.276C792.929 383.097 791.027 386.581 791.027 390.879V412.764ZM828.753 47.9206C828.753 52.2301 830.651 55.7104 832.997 55.7104H849.21C851.552 55.7104 853.46 52.2301 853.46 47.9206V26.0374C853.46 21.7427 851.552 18.2578 849.21 18.2578H832.997C830.651 18.2578 828.753 21.7427 828.753 26.0374V47.9206ZM828.753 412.764C828.753 417.057 830.651 420.542 832.997 420.542H849.21C851.552 420.542 853.46 417.057 853.46 412.764V390.879C853.46 386.581 851.552 383.097 849.21 383.097H832.997C830.651 383.097 828.753 386.581 828.753 390.879V412.764ZM866.464 47.9206C866.464 52.2301 868.367 55.7104 870.719 55.7104H886.926C889.273 55.7104 891.176 52.2301 891.176 47.9206V26.0374C891.176 21.7427 889.273 18.2578 886.926 18.2578H870.719C868.367 18.2578 866.464 21.7427 866.464 26.0374V47.9206ZM866.464 412.764C866.464 417.057 868.367 420.542 870.719 420.542H886.926C889.273 420.542 891.176 417.057 891.176 412.764V390.879C891.176 386.581 889.273 383.097 886.926 383.097H870.719C868.367 383.097 866.464 386.581 866.464 390.879V412.764ZM904.19 47.9206C904.19 52.2301 906.088 55.7104 908.44 55.7104H924.648C926.994 55.7104 928.897 52.2301 928.897 47.9206V26.0374C928.897 21.7427 926.994 18.2578 924.648 18.2578H908.44C906.088 18.2578 904.19 21.7427 904.19 26.0374V47.9206ZM904.19 412.764C904.19 417.057 906.088 420.542 908.44 420.542H924.648C926.994 420.542 928.897 417.057 928.897 412.764V390.879C928.897 386.581 926.994 383.097 924.648 383.097H908.44C906.088 383.097 904.19 386.581 904.19 390.879V412.764ZM941.906 47.9206C941.906 52.2301 943.809 55.7104 946.156 55.7104H962.364C964.711 55.7104 966.614 52.2301 966.614 47.9206V26.0374C966.614 21.7427 964.711 18.2578 962.364 18.2578H946.156C943.809 18.2578 941.906 21.7427 941.906 26.0374V47.9206ZM941.906 412.764C941.906 417.057 943.809 420.542 946.156 420.542H962.364C964.711 420.542 966.614 417.057 966.614 412.764V390.879C966.614 386.581 964.711 383.097 962.364 383.097H946.156C943.809 383.097 941.906 386.581 941.906 390.879V412.764ZM979.628 47.9206C979.628 52.2301 981.531 55.7104 983.877 55.7104H1000.09C1002.43 55.7104 1004.34 52.2301 1004.34 47.9206V26.0374C1004.34 21.7427 1002.43 18.2578 1000.09 18.2578H983.877C981.531 18.2578 979.628 21.7427 979.628 26.0374V47.9206ZM979.628 412.764C979.628 417.057 981.531 420.542 983.877 420.542H1000.09C1002.43 420.542 1004.34 417.057 1004.34 412.764V390.879C1004.34 386.581 1002.43 383.097 1000.09 383.097H983.877C981.531 383.097 979.628 386.581 979.628 390.879V412.764ZM1017.35 47.9206C1017.35 52.2301 1019.25 55.7104 1021.6 55.7104H1037.81C1040.15 55.7104 1042.06 52.2301 1042.06 47.9206V26.0374C1042.06 21.7427 1040.15 18.2578 1037.81 18.2578H1021.6C1019.25 18.2578 1017.35 21.7427 1017.35 26.0374V47.9206ZM1017.35 412.764C1017.35 417.057 1019.25 420.542 1021.6 420.542H1037.81C1040.15 420.542 1042.06 417.057 1042.06 412.764V390.879C1042.06 386.581 1040.15 383.097 1037.81 383.097H1021.6C1019.25 383.097 1017.35 386.581 1017.35 390.879V412.764ZM1055.06 47.9206C1055.06 52.2301 1056.97 55.7104 1059.32 55.7104H1075.53C1077.87 55.7104 1079.78 52.2301 1079.78 47.9206V26.0374C1079.78 21.7427 1077.87 18.2578 1075.53 18.2578H1059.32C1056.97 18.2578 1055.06 21.7427 1055.06 26.0374V47.9206ZM1055.06 412.764C1055.06 417.057 1056.97 420.542 1059.32 420.542H1075.53C1077.87 420.542 1079.78 417.057 1079.78 412.764V390.879C1079.78 386.581 1077.87 383.097 1075.53 383.097H1059.32C1056.97 383.097 1055.06 386.581 1055.06 390.879V412.764ZM1092.79 47.9206C1092.79 52.2301 1094.69 55.7104 1097.04 55.7104H1113.24C1115.59 55.7104 1117.49 52.2301 1117.49 47.9206V26.0374C1117.49 21.7427 1115.59 18.2578 1113.24 18.2578H1097.04C1094.69 18.2578 1092.79 21.7427 1092.79 26.0374V47.9206ZM1092.79 412.764C1092.79 417.057 1094.69 420.542 1097.04 420.542H1113.24C1115.59 420.542 1117.49 417.057 1117.49 412.764V390.879C1117.49 386.581 1115.59 383.097 1113.24 383.097H1097.04C1094.69 383.097 1092.79 386.581 1092.79 390.879V412.764ZM1130.51 47.9206C1130.51 52.2301 1132.41 55.7104 1134.76 55.7104H1150.96C1153.31 55.7104 1155.21 52.2301 1155.21 47.9206V26.0374C1155.21 21.7427 1153.31 18.2578 1150.96 18.2578H1134.76C1132.41 18.2578 1130.51 21.7427 1130.51 26.0374V47.9206ZM1130.51 412.764C1130.51 417.057 1132.41 420.542 1134.76 420.542H1150.96C1153.31 420.542 1155.21 417.057 1155.21 412.764V390.879C1155.21 386.581 1153.31 383.097 1150.96 383.097H1134.76C1132.41 383.097 1130.51 386.581 1130.51 390.879V412.764ZM1168.23 47.9206C1168.23 52.2301 1170.13 55.7104 1172.48 55.7104H1188.69C1191.03 55.7104 1192.94 52.2301 1192.94 47.9206V26.0374C1192.94 21.7427 1191.03 18.2578 1188.69 18.2578H1172.48C1170.13 18.2578 1168.23 21.7427 1168.23 26.0374V47.9206ZM1168.23 412.764C1168.23 417.057 1170.13 420.542 1172.48 420.542H1188.69C1191.03 420.542 1192.94 417.057 1192.94 412.764V390.879C1192.94 386.581 1191.03 383.097 1188.69 383.097H1172.48C1170.13 383.097 1168.23 386.581 1168.23 390.879V412.764ZM1205.94 47.9206C1205.94 52.2301 1207.85 55.7104 1210.19 55.7104H1226.41C1228.75 55.7104 1230.65 52.2301 1230.65 47.9206V26.0374C1230.65 21.7427 1228.75 18.2578 1226.41 18.2578H1210.19C1207.85 18.2578 1205.94 21.7427 1205.94 26.0374V47.9206ZM1205.94 412.764C1205.94 417.057 1207.85 420.542 1210.19 420.542H1226.41C1228.75 420.542 1230.65 417.057 1230.65 412.764V390.879C1230.65 386.581 1228.75 383.097 1226.41 383.097H1210.19C1207.85 383.097 1205.94 386.581 1205.94 390.879V412.764ZM1243.67 47.9206C1243.67 52.2301 1245.57 55.7104 1247.92 55.7104H1264.12C1266.48 55.7104 1268.38 52.2301 1268.38 47.9206V26.0374C1268.38 21.7427 1266.48 18.2578 1264.12 18.2578H1247.92C1245.57 18.2578 1243.67 21.7427 1243.67 26.0374V47.9206ZM1243.67 412.764C1243.67 417.057 1245.57 420.542 1247.92 420.542H1264.12C1266.48 420.542 1268.38 417.057 1268.38 412.764V390.879C1268.38 386.581 1266.48 383.097 1264.12 383.097H1247.92C1245.57 383.097 1243.67 386.581 1243.67 390.879V412.764ZM1281.39 47.9206C1281.39 52.2301 1283.29 55.7104 1285.63 55.7104H1301.84C1304.19 55.7104 1306.09 52.2301 1306.09 47.9206V26.0374C1306.09 21.7427 1304.19 18.2578 1301.84 18.2578H1285.63C1283.29 18.2578 1281.39 21.7427 1281.39 26.0374V47.9206ZM1281.39 412.764C1281.39 417.057 1283.29 420.542 1285.63 420.542H1301.84C1304.19 420.542 1306.09 417.057 1306.09 412.764V390.879C1306.09 386.581 1304.19 383.097 1301.84 383.097H1285.63C1283.29 383.097 1281.39 386.581 1281.39 390.879V412.764ZM1319.1 47.9206C1319.1 52.2301 1321.01 55.7104 1323.36 55.7104H1339.57C1341.91 55.7104 1343.82 52.2301 1343.82 47.9206V26.0374C1343.82 21.7427 1341.91 18.2578 1339.57 18.2578H1323.36C1321.01 18.2578 1319.1 21.7427 1319.1 26.0374V47.9206ZM1319.1 412.764C1319.1 417.057 1321.01 420.542 1323.36 420.542H1339.57C1341.91 420.542 1343.82 417.057 1343.82 412.764V390.879C1343.82 386.581 1341.91 383.097 1339.57 383.097H1323.36C1321.01 383.097 1319.1 386.581 1319.1 390.879V412.764ZM1356.82 47.9206C1356.82 52.2301 1358.73 55.7104 1361.07 55.7104H1377.28C1379.63 55.7104 1381.54 52.2301 1381.54 47.9206V26.0374C1381.54 21.7427 1379.63 18.2578 1377.28 18.2578H1361.07C1358.73 18.2578 1356.82 21.7427 1356.82 26.0374V47.9206ZM1356.82 412.764C1356.82 417.057 1358.73 420.542 1361.07 420.542H1377.28C1379.63 420.542 1381.54 417.057 1381.54 412.764V390.879C1381.54 386.581 1379.63 383.097 1377.28 383.097H1361.07C1358.73 383.097 1356.82 386.581 1356.82 390.879V412.764ZM1394.55 47.9206C1394.55 52.2301 1396.45 55.7104 1398.8 55.7104H1415.01C1417.35 55.7104 1419.25 52.2301 1419.25 47.9206V26.0374C1419.25 21.7427 1417.35 18.2578 1415.01 18.2578H1398.8C1396.45 18.2578 1394.55 21.7427 1394.55 26.0374V47.9206ZM1394.55 412.764C1394.55 417.057 1396.45 420.542 1398.8 420.542H1415.01C1417.35 420.542 1419.25 417.057 1419.25 412.764V390.879C1419.25 386.581 1417.35 383.097 1415.01 383.097H1398.8C1396.45 383.097 1394.55 386.581 1394.55 390.879V412.764ZM1432.27 47.9206C1432.27 52.2301 1434.17 55.7104 1436.52 55.7104H1452.72C1455.07 55.7104 1456.97 52.2301 1456.97 47.9206V26.0374C1456.97 21.7427 1455.07 18.2578 1452.72 18.2578H1436.52C1434.17 18.2578 1432.27 21.7427 1432.27 26.0374V47.9206ZM1432.27 412.764C1432.27 417.057 1434.17 420.542 1436.52 420.542H1452.72C1455.07 420.542 1456.97 417.057 1456.97 412.764V390.879C1456.97 386.581 1455.07 383.097 1452.72 383.097H1436.52C1434.17 383.097 1432.27 386.581 1432.27 390.879V412.764ZM1469.99 47.9206C1469.99 52.2301 1471.89 55.7104 1474.23 55.7104H1490.45C1492.79 55.7104 1494.7 52.2301 1494.7 47.9206V26.0374C1494.7 21.7427 1492.79 18.2578 1490.45 18.2578H1474.23C1471.89 18.2578 1469.99 21.7427 1469.99 26.0374V47.9206ZM1469.99 412.764C1469.99 417.057 1471.89 420.542 1474.23 420.542H1490.45C1492.79 420.542 1494.7 417.057 1494.7 412.764V390.879C1494.7 386.581 1492.79 383.097 1490.45 383.097H1474.23C1471.89 383.097 1469.99 386.581 1469.99 390.879V412.764ZM1507.71 47.9206C1507.71 52.2301 1509.61 55.7104 1511.96 55.7104H1528.16C1530.51 55.7104 1532.41 52.2301 1532.41 47.9206V26.0374C1532.41 21.7427 1530.51 18.2578 1528.16 18.2578H1511.96C1509.61 18.2578 1507.71 21.7427 1507.71 26.0374V47.9206ZM1507.71 412.764C1507.71 417.057 1509.61 420.542 1511.96 420.542H1528.16C1530.51 420.542 1532.41 417.057 1532.41 412.764V390.879C1532.41 386.581 1530.51 383.097 1528.16 383.097H1511.96C1509.61 383.097 1507.71 386.581 1507.71 390.879V412.764ZM1545.43 47.9206C1545.43 52.2301 1547.33 55.7104 1549.68 55.7104H1565.88C1568.23 55.7104 1570.14 52.2301 1570.14 47.9206V26.0374C1570.14 21.7427 1568.23 18.2578 1565.88 18.2578H1549.68C1547.33 18.2578 1545.43 21.7427 1545.43 26.0374V47.9206ZM1545.43 412.764C1545.43 417.057 1547.33 420.542 1549.68 420.542H1565.88C1568.23 420.542 1570.14 417.057 1570.14 412.764V390.879C1570.14 386.581 1568.23 383.097 1565.88 383.097H1549.68C1547.33 383.097 1545.43 386.581 1545.43 390.879V412.764ZM1583.15 47.9206C1583.15 52.2301 1585.04 55.7104 1587.4 55.7104H1603.61C1605.95 55.7104 1607.85 52.2301 1607.85 47.9206V26.0374C1607.85 21.7427 1605.95 18.2578 1603.61 18.2578H1587.4C1585.04 18.2578 1583.15 21.7427 1583.15 26.0374V47.9206ZM1583.15 412.764C1583.15 417.057 1585.04 420.542 1587.4 420.542H1603.61C1605.95 420.542 1607.85 417.057 1607.85 412.764V390.879C1607.85 386.581 1605.95 383.097 1603.61 383.097H1587.4C1585.04 383.097 1583.15 386.581 1583.15 390.879V412.764ZM1620.86 47.9206C1620.86 52.2301 1622.77 55.7104 1625.12 55.7104H1641.33C1643.67 55.7104 1645.58 52.2301 1645.58 47.9206V26.0374C1645.58 21.7427 1643.67 18.2578 1641.33 18.2578H1625.12C1622.77 18.2578 1620.86 21.7427 1620.86 26.0374V47.9206ZM1620.86 412.764C1620.86 417.057 1622.77 420.542 1625.12 420.542H1641.33C1643.67 420.542 1645.58 417.057 1645.58 412.764V390.879C1645.58 386.581 1643.67 383.097 1641.33 383.097H1625.12C1622.77 383.097 1620.86 386.581 1620.86 390.879V412.764ZM1658.59 47.9206C1658.59 52.2301 1660.49 55.7104 1662.83 55.7104H1679.05C1681.39 55.7104 1683.3 52.2301 1683.3 47.9206V26.0374C1683.3 21.7427 1681.39 18.2578 1679.05 18.2578H1662.83C1660.49 18.2578 1658.59 21.7427 1658.59 26.0374V47.9206ZM1658.59 412.764C1658.59 417.057 1660.49 420.542 1662.83 420.542H1679.05C1681.39 420.542 1683.3 417.057 1683.3 412.764V390.879C1683.3 386.581 1681.39 383.097 1679.05 383.097H1662.83C1660.49 383.097 1658.59 386.581 1658.59 390.879V412.764ZM1696.31 47.9206C1696.31 52.2301 1698.21 55.7104 1700.56 55.7104H1716.76C1719.11 55.7104 1721.01 52.2301 1721.01 47.9206V26.0374C1721.01 21.7427 1719.11 18.2578 1716.76 18.2578H1700.56C1698.21 18.2578 1696.31 21.7427 1696.31 26.0374V47.9206ZM1696.31 412.764C1696.31 417.057 1698.21 420.542 1700.56 420.542H1716.76C1719.11 420.542 1721.01 417.057 1721.01 412.764V390.879C1721.01 386.581 1719.11 383.097 1716.76 383.097H1700.56C1698.21 383.097 1696.31 386.581 1696.31 390.879V412.764ZM1734.03 47.9206C1734.03 52.2301 1735.93 55.7104 1738.28 55.7104H1754.48C1756.83 55.7104 1758.74 52.2301 1758.74 47.9206V26.0374C1758.74 21.7427 1756.83 18.2578 1754.48 18.2578H1738.28C1735.93 18.2578 1734.03 21.7427 1734.03 26.0374V47.9206ZM1734.03 412.764C1734.03 417.057 1735.93 420.542 1738.28 420.542H1754.48C1756.83 420.542 1758.74 417.057 1758.74 412.764V390.879C1758.74 386.581 1756.83 383.097 1754.48 383.097H1738.28C1735.93 383.097 1734.03 386.581 1734.03 390.879V412.764ZM1771.75 47.9206C1771.75 52.2301 1773.65 55.7104 1776 55.7104H1792.21C1794.55 55.7104 1796.45 52.2301 1796.45 47.9206V26.0374C1796.45 21.7427 1794.55 18.2578 1792.21 18.2578H1776C1773.65 18.2578 1771.75 21.7427 1771.75 26.0374V47.9206ZM1771.75 412.764C1771.75 417.057 1773.65 420.542 1776 420.542H1792.21C1794.55 420.542 1796.45 417.057 1796.45 412.764V390.879C1796.45 386.581 1794.55 383.097 1792.21 383.097H1776C1773.65 383.097 1771.75 386.581 1771.75 390.879V412.764ZM1809.46 47.9206C1809.46 52.2301 1811.37 55.7104 1813.72 55.7104H1829.93C1832.27 55.7104 1834.18 52.2301 1834.18 47.9206V26.0374C1834.18 21.7427 1832.27 18.2578 1829.93 18.2578H1813.72C1811.37 18.2578 1809.46 21.7427 1809.46 26.0374V47.9206ZM1809.46 412.764C1809.46 417.057 1811.37 420.542 1813.72 420.542H1829.93C1832.27 420.542 1834.18 417.057 1834.18 412.764V390.879C1834.18 386.581 1832.27 383.097 1829.93 383.097H1813.72C1811.37 383.097 1809.46 386.581 1809.46 390.879V412.764ZM1847.19 47.9206C1847.19 52.2301 1849.09 55.7104 1851.43 55.7104H1867.64C1869.99 55.7104 1871.89 52.2301 1871.89 47.9206V26.0374C1871.89 21.7427 1869.99 18.2578 1867.64 18.2578H1851.43C1849.09 18.2578 1847.19 21.7427 1847.19 26.0374V47.9206ZM1847.19 412.764C1847.19 417.057 1849.09 420.542 1851.43 420.542H1867.64C1869.99 420.542 1871.89 417.057 1871.89 412.764V390.879C1871.89 386.581 1869.99 383.097 1867.64 383.097H1851.43C1849.09 383.097 1847.19 386.581 1847.19 390.879V412.764ZM1884.91 47.9206C1884.91 52.2301 1886.81 55.7104 1889.16 55.7104H1905.36C1907.71 55.7104 1909.61 52.2301 1909.61 47.9206V26.0374C1909.61 21.7427 1907.71 18.2578 1905.36 18.2578H1889.16C1886.81 18.2578 1884.91 21.7427 1884.91 26.0374V47.9206ZM1884.91 412.764C1884.91 417.057 1886.81 420.542 1889.16 420.542H1905.36C1907.71 420.542 1909.61 417.057 1909.61 412.764V390.879C1909.61 386.581 1907.71 383.097 1905.36 383.097H1889.16C1886.81 383.097 1884.91 386.581 1884.91 390.879V412.764ZM1922.63 47.9206C1922.63 52.2301 1924.52 55.7104 1926.88 55.7104H1943.08C1945.43 55.7104 1947.33 52.2301 1947.33 47.9206V26.0374C1947.33 21.7427 1945.43 18.2578 1943.08 18.2578H1926.88C1924.52 18.2578 1922.63 21.7427 1922.63 26.0374V47.9206ZM1922.63 412.764C1922.63 417.057 1924.52 420.542 1926.88 420.542H1943.08C1945.43 420.542 1947.33 417.057 1947.33 412.764V390.879C1947.33 386.581 1945.43 383.097 1943.08 383.097H1926.88C1924.52 383.097 1922.63 386.581 1922.63 390.879V412.764ZM1960.35 47.9206C1960.35 52.2301 1962.25 55.7104 1964.59 55.7104H1980.81C1983.15 55.7104 1985.06 52.2301 1985.06 47.9206V26.0374C1985.06 21.7427 1983.15 18.2578 1980.81 18.2578H1964.59C1962.25 18.2578 1960.35 21.7427 1960.35 26.0374V47.9206ZM1960.35 412.764C1960.35 417.057 1962.25 420.542 1964.59 420.542H1980.81C1983.15 420.542 1985.06 417.057 1985.06 412.764V390.879C1985.06 386.581 1983.15 383.097 1980.81 383.097H1964.59C1962.25 383.097 1960.35 386.581 1960.35 390.879V412.764ZM1998.07 47.9206C1998.07 52.2301 1999.97 55.7104 2002.31 55.7104H2018.52C2020.87 55.7104 2022.77 52.2301 2022.77 47.9206V26.0374C2022.77 21.7427 2020.87 18.2578 2018.52 18.2578H2002.31C1999.97 18.2578 1998.07 21.7427 1998.07 26.0374V47.9206ZM1998.07 412.764C1998.07 417.057 1999.97 420.542 2002.31 420.542H2018.52C2020.87 420.542 2022.77 417.057 2022.77 412.764V390.879C2022.77 386.581 2020.87 383.097 2018.52 383.097H2002.31C1999.97 383.097 1998.07 386.581 1998.07 390.879V412.764ZM2035.79 47.9206C2035.79 52.2301 2037.69 55.7104 2040.04 55.7104H2056.24C2058.58 55.7104 2060.49 52.2301 2060.49 47.9206V26.0374C2060.49 21.7427 2058.58 18.2578 2056.24 18.2578H2040.04C2037.69 18.2578 2035.79 21.7427 2035.79 26.0374V47.9206ZM2035.79 412.764C2035.79 417.057 2037.69 420.542 2040.04 420.542H2056.24C2058.58 420.542 2060.49 417.057 2060.49 412.764V390.879C2060.49 386.581 2058.58 383.097 2056.24 383.097H2040.04C2037.69 383.097 2035.79 386.581 2035.79 390.879V412.764ZM2073.51 47.9206C2073.51 52.2301 2075.4 55.7104 2077.76 55.7104H2093.96C2096.31 55.7104 2098.21 52.2301 2098.21 47.9206V26.0374C2098.21 21.7427 2096.31 18.2578 2093.96 18.2578H2077.76C2075.4 18.2578 2073.51 21.7427 2073.51 26.0374V47.9206ZM2073.51 412.764C2073.51 417.057 2075.4 420.542 2077.76 420.542H2093.96C2096.31 420.542 2098.21 417.057 2098.21 412.764V390.879C2098.21 386.581 2096.31 383.097 2093.96 383.097H2077.76C2075.4 383.097 2073.51 386.581 2073.51 390.879V412.764ZM2111.23 47.9206C2111.23 52.2301 2113.13 55.7104 2115.48 55.7104H2131.68C2134.03 55.7104 2135.93 52.2301 2135.93 47.9206V26.0374C2135.93 21.7427 2134.03 18.2578 2131.68 18.2578H2115.48C2113.13 18.2578 2111.23 21.7427 2111.23 26.0374V47.9206ZM2111.23 412.764C2111.23 417.057 2113.13 420.542 2115.48 420.542H2131.68C2134.03 420.542 2135.93 417.057 2135.93 412.764V390.879C2135.93 386.581 2134.03 383.097 2131.68 383.097H2115.48C2113.13 383.097 2111.23 386.581 2111.23 390.879V412.764ZM2148.94 47.9206C2148.94 52.2301 2150.84 55.7104 2153.2 55.7104H2169.41C2171.75 55.7104 2173.65 52.2301 2173.65 47.9206V26.0374C2173.65 21.7427 2171.75 18.2578 2169.41 18.2578H2153.2C2150.84 18.2578 2148.94 21.7427 2148.94 26.0374V47.9206ZM2148.94 412.764C2148.94 417.057 2150.84 420.542 2153.2 420.542H2169.41C2171.75 420.542 2173.65 417.057 2173.65 412.764V390.879C2173.65 386.581 2171.75 383.097 2169.41 383.097H2153.2C2150.84 383.097 2148.94 386.581 2148.94 390.879V412.764ZM2186.66 47.9206C2186.66 52.2301 2188.57 55.7104 2190.91 55.7104H2207.12C2209.47 55.7104 2211.38 52.2301 2211.38 47.9206V26.0374C2211.38 21.7427 2209.47 18.2578 2207.12 18.2578H2190.91C2188.57 18.2578 2186.66 21.7427 2186.66 26.0374V47.9206ZM2186.66 412.764C2186.66 417.057 2188.57 420.542 2190.91 420.542H2207.12C2209.47 420.542 2211.38 417.057 2211.38 412.764V390.879C2211.38 386.581 2209.47 383.097 2207.12 383.097H2190.91C2188.57 383.097 2186.66 386.581 2186.66 390.879V412.764ZM2224.39 47.9206C2224.39 52.2301 2226.29 55.7104 2228.64 55.7104H2244.85C2247.19 55.7104 2249.09 52.2301 2249.09 47.9206V26.0374C2249.09 21.7427 2247.19 18.2578 2244.85 18.2578H2228.64C2226.29 18.2578 2224.39 21.7427 2224.39 26.0374V47.9206ZM2224.39 412.764C2224.39 417.057 2226.29 420.542 2228.64 420.542H2244.85C2247.19 420.542 2249.09 417.057 2249.09 412.764V390.879C2249.09 386.581 2247.19 383.097 2244.85 383.097H2228.64C2226.29 383.097 2224.39 386.581 2224.39 390.879V412.764ZM2262.1 47.9206C2262.1 52.2301 2264.01 55.7104 2266.36 55.7104H2282.56C2284.91 55.7104 2286.81 52.2301 2286.81 47.9206V26.0374C2286.81 21.7427 2284.91 18.2578 2282.56 18.2578H2266.36C2264.01 18.2578 2262.1 21.7427 2262.1 26.0374V47.9206ZM2262.1 412.764C2262.1 417.057 2264.01 420.542 2266.36 420.542H2282.56C2284.91 420.542 2286.81 417.057 2286.81 412.764V390.879C2286.81 386.581 2284.91 383.097 2282.56 383.097H2266.36C2264.01 383.097 2262.1 386.581 2262.1 390.879V412.764ZM2299.82 47.9206C2299.82 52.2301 2301.73 55.7104 2304.08 55.7104H2320.28C2322.63 55.7104 2324.54 52.2301 2324.54 47.9206V26.0374C2324.54 21.7427 2322.63 18.2578 2320.28 18.2578H2304.08C2301.73 18.2578 2299.82 21.7427 2299.82 26.0374V47.9206ZM2299.82 412.764C2299.82 417.057 2301.73 420.542 2304.08 420.542H2320.28C2322.63 420.542 2324.54 417.057 2324.54 412.764V390.879C2324.54 386.581 2322.63 383.097 2320.28 383.097H2304.08C2301.73 383.097 2299.82 386.581 2299.82 390.879V412.764ZM2337.54 47.9206C2337.54 52.2301 2339.45 55.7104 2341.79 55.7104H2358C2360.35 55.7104 2362.25 52.2301 2362.25 47.9206V26.0374C2362.25 21.7427 2360.35 18.2578 2358 18.2578H2341.79C2339.45 18.2578 2337.54 21.7427 2337.54 26.0374V47.9206ZM2337.54 412.764C2337.54 417.057 2339.45 420.542 2341.79 420.542H2358C2360.35 420.542 2362.25 417.057 2362.25 412.764V390.879C2362.25 386.581 2360.35 383.097 2358 383.097H2341.79C2339.45 383.097 2337.54 386.581 2337.54 390.879V412.764ZM2375.26 47.9206C2375.26 52.2301 2377.17 55.7104 2379.52 55.7104H2395.72C2398.07 55.7104 2399.97 52.2301 2399.97 47.9206V26.0374C2399.97 21.7427 2398.07 18.2578 2395.72 18.2578H2379.52C2377.17 18.2578 2375.26 21.7427 2375.26 26.0374V47.9206ZM2375.26 412.764C2375.26 417.057 2377.17 420.542 2379.52 420.542H2395.72C2398.07 420.542 2399.97 417.057 2399.97 412.764V390.879C2399.97 386.581 2398.07 383.097 2395.72 383.097H2379.52C2377.17 383.097 2375.26 386.581 2375.26 390.879V412.764ZM2412.99 47.9206C2412.99 52.2301 2414.89 55.7104 2417.23 55.7104H2433.44C2435.78 55.7104 2437.69 52.2301 2437.69 47.9206V26.0374C2437.69 21.7427 2435.78 18.2578 2433.44 18.2578H2417.23C2414.89 18.2578 2412.99 21.7427 2412.99 26.0374V47.9206ZM2412.99 412.764C2412.99 417.057 2414.89 420.542 2417.23 420.542H2433.44C2435.78 420.542 2437.69 417.057 2437.69 412.764V390.879C2437.69 386.581 2435.78 383.097 2433.44 383.097H2417.23C2414.89 383.097 2412.99 386.581 2412.99 390.879V412.764ZM2450.7 47.9206C2450.7 52.2301 2452.6 55.7104 2454.96 55.7104H2471.16C2473.51 55.7104 2475.41 52.2301 2475.41 47.9206V26.0374C2475.41 21.7427 2473.51 18.2578 2471.16 18.2578H2454.96C2452.6 18.2578 2450.7 21.7427 2450.7 26.0374V47.9206ZM2450.7 412.764C2450.7 417.057 2452.6 420.542 2454.96 420.542H2471.16C2473.51 420.542 2475.41 417.057 2475.41 412.764V390.879C2475.41 386.581 2473.51 383.097 2471.16 383.097H2454.96C2452.6 383.097 2450.7 386.581 2450.7 390.879V412.764ZM2482.29 0.344208V440H714.676V0.344208H2482.29Z" fill="#252525"/>
<path d="M855.308 47.9101C855.308 52.2186 853.419 55.6978 851.089 55.6978H834.996C832.666 55.6978 830.776 52.2186 830.776 47.9101V26.0328C830.776 21.7393 832.666 18.2553 834.996 18.2553H851.089C853.419 18.2553 855.308 21.7393 855.308 26.0328V47.9101ZM855.308 412.655C855.308 416.948 853.419 420.432 851.089 420.432H834.996C832.666 420.432 830.776 416.948 830.776 412.655V390.777C830.776 386.48 832.666 382.997 834.996 382.997H851.089C853.419 382.997 855.308 386.48 855.308 390.777V412.655ZM817.854 47.9101C817.854 52.2186 815.97 55.6978 813.635 55.6978H797.543C795.218 55.6978 793.328 52.2186 793.328 47.9101V26.0328C793.328 21.7393 795.218 18.2553 797.543 18.2553H813.635C815.97 18.2553 817.854 21.7393 817.854 26.0328V47.9101ZM817.854 412.655C817.854 416.948 815.97 420.432 813.635 420.432H797.543C795.218 420.432 793.328 416.948 793.328 412.655V390.777C793.328 386.48 795.218 382.997 797.543 382.997H813.635C815.97 382.997 817.854 386.48 817.854 390.777V412.655ZM780.406 47.9101C780.406 52.2186 778.517 55.6978 776.187 55.6978H760.094C757.764 55.6978 755.87 52.2186 755.87 47.9101V26.0328C755.87 21.7393 757.764 18.2553 760.094 18.2553H776.187C778.517 18.2553 780.406 21.7393 780.406 26.0328V47.9101ZM780.406 412.655C780.406 416.948 778.517 420.432 776.187 420.432H760.094C757.764 420.432 755.87 416.948 755.87 412.655V390.777C755.87 386.48 757.764 382.997 760.094 382.997H776.187C778.517 382.997 780.406 386.48 780.406 390.777V412.655ZM742.948 47.9101C742.948 52.2186 741.064 55.6978 738.734 55.6978H722.636C720.311 55.6978 718.416 52.2186 718.416 47.9101V26.0328C718.416 21.7393 720.311 18.2553 722.636 18.2553H738.734C741.064 18.2553 742.948 21.7393 742.948 26.0328V47.9101ZM742.948 412.655C742.948 416.948 741.064 420.432 738.734 420.432H722.636C720.311 420.432 718.416 416.948 718.416 412.655V390.777C718.416 386.48 720.311 382.997 722.636 382.997H738.734C741.064 382.997 742.948 386.48 742.948 390.777V412.655ZM705.505 47.9101C705.505 52.2186 703.615 55.6978 701.28 55.6978H685.188C682.858 55.6978 680.968 52.2186 680.968 47.9101V26.0328C680.968 21.7393 682.858 18.2553 685.188 18.2553H701.28C703.615 18.2553 705.505 21.7393 705.505 26.0328V47.9101ZM705.505 412.655C705.505 416.948 703.615 420.432 701.28 420.432H685.188C682.858 420.432 680.968 416.948 680.968 412.655V390.777C680.968 386.48 682.858 382.997 685.188 382.997H701.28C703.615 382.997 705.505 386.48 705.505 390.777V412.655ZM668.046 47.9101C668.046 52.2186 666.162 55.6978 663.827 55.6978H647.734C645.404 55.6978 643.515 52.2186 643.515 47.9101V26.0328C643.515 21.7393 645.404 18.2553 647.734 18.2553H663.827C666.162 18.2553 668.046 21.7393 668.046 26.0328V47.9101ZM668.046 412.655C668.046 416.948 666.162 420.432 663.827 420.432H647.734C645.404 420.432 643.515 416.948 643.515 412.655V390.777C643.515 386.48 645.404 382.997 647.734 382.997H663.827C666.162 382.997 668.046 386.48 668.046 390.777V412.655ZM630.598 47.9101C630.598 52.2186 628.709 55.6978 626.379 55.6978H610.286C607.956 55.6978 606.067 52.2186 606.067 47.9101V26.0328C606.067 21.7393 607.956 18.2553 610.286 18.2553H626.379C628.709 18.2553 630.598 21.7393 630.598 26.0328V47.9101ZM630.598 412.655C630.598 416.948 628.709 420.432 626.379 420.432H610.286C607.956 420.432 606.067 416.948 606.067 412.655V390.777C606.067 386.48 607.956 382.997 610.286 382.997H626.379C628.709 382.997 630.598 386.48 630.598 390.777V412.655ZM593.145 47.9101C593.145 52.2186 591.256 55.6978 588.926 55.6978H572.833C570.503 55.6978 568.608 52.2186 568.608 47.9101V26.0328C568.608 21.7393 570.503 18.2553 572.833 18.2553H588.926C591.256 18.2553 593.145 21.7393 593.145 26.0328V47.9101ZM593.145 412.655C593.145 416.948 591.256 420.432 588.926 420.432H572.833C570.503 420.432 568.608 416.948 568.608 412.655V390.777C568.608 386.48 570.503 382.997 572.833 382.997H588.926C591.256 382.997 593.145 386.48 593.145 390.777V412.655ZM555.687 47.9101C555.687 52.2186 553.802 55.6978 551.472 55.6978H535.38C533.055 55.6978 531.16 52.2186 531.16 47.9101V26.0328C531.16 21.7393 533.055 18.2553 535.38 18.2553H551.472C553.802 18.2553 555.687 21.7393 555.687 26.0328V47.9101ZM555.687 412.655C555.687 416.948 553.802 420.432 551.472 420.432H535.38C533.055 420.432 531.16 416.948 531.16 412.655V390.777C531.16 386.48 533.055 382.997 535.38 382.997H551.472C553.802 382.997 555.687 386.48 555.687 390.777V412.655ZM518.243 47.9101C518.243 52.2186 516.354 55.6978 514.019 55.6978H497.926C495.596 55.6978 493.707 52.2186 493.707 47.9101V26.0328C493.707 21.7393 495.596 18.2553 497.926 18.2553H514.019C516.354 18.2553 518.243 21.7393 518.243 26.0328V47.9101ZM518.243 412.655C518.243 416.948 516.354 420.432 514.019 420.432H497.926C495.596 420.432 493.707 416.948 493.707 412.655V390.777C493.707 386.48 495.596 382.997 497.926 382.997H514.019C516.354 382.997 518.243 386.48 518.243 390.777V412.655ZM480.785 47.9101C480.785 52.2186 478.901 55.6978 476.565 55.6978H460.478C458.153 55.6978 456.258 52.2186 456.258 47.9101V26.0328C456.258 21.7393 458.153 18.2553 460.478 18.2553H476.565C478.901 18.2553 480.785 21.7393 480.785 26.0328V47.9101ZM480.785 412.655C480.785 416.948 478.901 420.432 476.565 420.432H460.478C458.153 420.432 456.258 416.948 456.258 412.655V390.777C456.258 386.48 458.153 382.997 460.478 382.997H476.565C478.901 382.997 480.785 386.48 480.785 390.777V412.655ZM443.337 47.9101C443.337 52.2186 441.452 55.6978 439.117 55.6978H423.025C420.695 55.6978 418.805 52.2186 418.805 47.9101V26.0328C418.805 21.7393 420.695 18.2553 423.025 18.2553H439.117C441.452 18.2553 443.337 21.7393 443.337 26.0328V47.9101ZM443.337 412.655C443.337 416.948 441.452 420.432 439.117 420.432H423.025C420.695 420.432 418.805 416.948 418.805 412.655V390.777C418.805 386.48 420.695 382.997 423.025 382.997H439.117C441.452 382.997 443.337 386.48 443.337 390.777V412.655ZM405.883 47.9101C405.883 52.2186 403.994 55.6978 401.664 55.6978H385.571C383.241 55.6978 381.352 52.2186 381.352 47.9101V26.0328C381.352 21.7393 383.241 18.2553 385.571 18.2553H401.664C403.994 18.2553 405.883 21.7393 405.883 26.0328V47.9101ZM405.883 412.655C405.883 416.948 403.994 420.432 401.664 420.432H385.571C383.241 420.432 381.352 416.948 381.352 412.655V390.777C381.352 386.48 383.241 382.997 385.571 382.997H401.664C403.994 382.997 405.883 386.48 405.883 390.777V412.655ZM368.435 47.9101C368.435 52.2186 366.546 55.6978 364.216 55.6978H348.118C345.793 55.6978 343.904 52.2186 343.904 47.9101V26.0328C343.904 21.7393 345.793 18.2553 348.118 18.2553H364.216C366.546 18.2553 368.435 21.7393 368.435 26.0328V47.9101ZM368.435 412.655C368.435 416.948 366.546 420.432 364.216 420.432H348.118C345.793 420.432 343.904 416.948 343.904 412.655V390.777C343.904 386.48 345.793 382.997 348.118 382.997H364.216C366.546 382.997 368.435 386.48 368.435 390.777V412.655ZM330.982 47.9101C330.982 52.2186 329.092 55.6978 326.757 55.6978H310.67C308.335 55.6978 306.445 52.2186 306.445 47.9101V26.0328C306.445 21.7393 308.335 18.2553 310.67 18.2553H326.757C329.092 18.2553 330.982 21.7393 330.982 26.0328V47.9101ZM330.982 412.655C330.982 416.948 329.092 420.432 326.757 420.432H310.67C308.335 420.432 306.445 416.948 306.445 412.655V390.777C306.445 386.48 308.335 382.997 310.67 382.997H326.757C329.092 382.997 330.982 386.48 330.982 390.777V412.655ZM293.528 47.9101C293.528 52.2186 291.639 55.6978 289.314 55.6978H273.216C270.886 55.6978 268.997 52.2186 268.997 47.9101V26.0328C268.997 21.7393 270.886 18.2553 273.216 18.2553H289.314C291.639 18.2553 293.528 21.7393 293.528 26.0328V47.9101ZM293.528 412.655C293.528 416.948 291.639 420.432 289.314 420.432H273.216C270.886 420.432 268.997 416.948 268.997 412.655V390.777C268.997 386.48 270.886 382.997 273.216 382.997H289.314C291.639 382.997 293.528 386.48 293.528 390.777V412.655ZM256.08 47.9101C256.08 52.2186 254.191 55.6978 251.856 55.6978H235.763C233.433 55.6978 231.544 52.2186 231.544 47.9101V26.0328C231.544 21.7393 233.433 18.2553 235.763 18.2553H251.856C254.191 18.2553 256.08 21.7393 256.08 26.0328V47.9101ZM256.08 412.655C256.08 416.948 254.191 420.432 251.856 420.432H235.763C233.433 420.432 231.544 416.948 231.544 412.655V390.777C231.544 386.48 233.433 382.997 235.763 382.997H251.856C254.191 382.997 256.08 386.48 256.08 390.777V412.655ZM218.627 47.9101C218.627 52.2186 216.732 55.6978 214.407 55.6978H198.315C195.985 55.6978 194.09 52.2186 194.09 47.9101V26.0328C194.09 21.7393 195.985 18.2553 198.315 18.2553H214.407C216.732 18.2553 218.627 21.7393 218.627 26.0328V47.9101ZM218.627 412.655C218.627 416.948 216.732 420.432 214.407 420.432H198.315C195.985 420.432 194.09 416.948 194.09 412.655V390.777C194.09 386.48 195.985 382.997 198.315 382.997H214.407C216.732 382.997 218.627 386.48 218.627 390.777V412.655ZM181.174 47.9101C181.174 52.2186 179.284 55.6978 176.954 55.6978H160.857C158.531 55.6978 156.642 52.2186 156.642 47.9101V26.0328C156.642 21.7393 158.531 18.2553 160.857 18.2553H176.954C179.284 18.2553 181.174 21.7393 181.174 26.0328V47.9101ZM181.174 412.655C181.174 416.948 179.284 420.432 176.954 420.432H160.857C158.531 420.432 156.642 416.948 156.642 412.655V390.777C156.642 386.48 158.531 382.997 160.857 382.997H176.954C179.284 382.997 181.174 386.48 181.174 390.777V412.655ZM143.72 47.9101C143.72 52.2186 141.831 55.6978 139.496 55.6978H123.408C121.078 55.6978 119.189 52.2186 119.189 47.9101V26.0328C119.189 21.7393 121.078 18.2553 123.408 18.2553H139.496C141.831 18.2553 143.72 21.7393 143.72 26.0328V47.9101ZM143.72 412.655C143.72 416.948 141.831 420.432 139.496 420.432H123.408C121.078 420.432 119.189 416.948 119.189 412.655V390.777C119.189 386.48 121.078 382.997 123.408 382.997H139.496C141.831 382.997 143.72 386.48 143.72 390.777V412.655ZM106.267 47.9101C106.267 52.2186 104.383 55.6978 102.053 55.6978H85.955C83.6299 55.6978 81.7354 52.2186 81.7354 47.9101V26.0328C81.7354 21.7393 83.6299 18.2553 85.955 18.2553H102.053C104.383 18.2553 106.267 21.7393 106.267 26.0328V47.9101ZM106.267 412.655C106.267 416.948 104.383 420.432 102.053 420.432H85.955C83.6299 420.432 81.7354 416.948 81.7354 412.655V390.777C81.7354 386.48 83.6299 382.997 85.955 382.997H102.053C104.383 382.997 106.267 386.48 106.267 390.777V412.655ZM68.8137 47.9101C68.8137 52.2186 66.9294 55.6978 64.5943 55.6978H48.5067C46.1766 55.6978 44.2872 52.2186 44.2872 47.9101V26.0328C44.2872 21.7393 46.1766 18.2553 48.5067 18.2553H64.5943C66.9294 18.2553 68.8137 21.7393 68.8137 26.0328V47.9101ZM68.8137 412.655C68.8137 416.948 66.9294 420.432 64.5943 420.432H48.5067C46.1766 420.432 44.2872 416.948 44.2872 412.655V390.777C44.2872 386.48 46.1766 382.997 48.5067 382.997H64.5943C66.9294 382.997 68.8137 386.48 68.8137 390.777V412.655ZM31.3655 47.9101C31.3655 52.2186 29.4761 55.6978 27.146 55.6978H11.0533C8.72327 55.6978 6.82886 52.2186 6.82886 47.9101V26.0328C6.82886 21.7393 8.72327 18.2553 11.0533 18.2553H27.146C29.4761 18.2553 31.3655 21.7393 31.3655 26.0328V47.9101ZM31.3655 412.655C31.3655 416.948 29.4761 420.432 27.146 420.432H11.0533C8.72327 420.432 6.82886 416.948 6.82886 412.655V390.777C6.82886 386.48 8.72327 382.997 11.0533 382.997H27.146C29.4761 382.997 31.3655 386.48 31.3655 390.777V412.655ZM-6.08789 47.9101C-6.08789 52.2186 -7.97217 55.6978 -10.3073 55.6978H-26.405C-28.73 55.6978 -30.6194 52.2186 -30.6194 47.9101V26.0328C-30.6194 21.7393 -28.73 18.2553 -26.405 18.2553H-10.3073C-7.97217 18.2553 -6.08789 21.7393 -6.08789 26.0328V47.9101ZM-6.08789 412.655C-6.08789 416.948 -7.97217 420.432 -10.3073 420.432H-26.405C-28.73 420.432 -30.6194 416.948 -30.6194 412.655V390.777C-30.6194 386.48 -28.73 382.997 -26.405 382.997H-10.3073C-7.97217 382.997 -6.08789 386.48 -6.08789 390.777V412.655ZM-43.5361 47.9101C-43.5361 52.2186 -45.4254 55.6978 -47.7606 55.6978H-63.8533C-66.1833 55.6978 -68.0727 52.2186 -68.0727 47.9101V26.0328C-68.0727 21.7393 -66.1833 18.2553 -63.8533 18.2553H-47.7606C-45.4254 18.2553 -43.5361 21.7393 -43.5361 26.0328V47.9101ZM-43.5361 412.655C-43.5361 416.948 -45.4254 420.432 -47.7606 420.432H-63.8533C-66.1833 420.432 -68.0727 416.948 -68.0727 412.655V390.777C-68.0727 386.48 -66.1833 382.997 -63.8533 382.997H-47.7606C-45.4254 382.997 -43.5361 386.48 -43.5361 390.777V412.655ZM-80.9945 47.9101C-80.9945 52.2186 -82.8788 55.6978 -85.2089 55.6978H-101.307C-103.632 55.6978 -105.526 52.2186 -105.526 47.9101V26.0328C-105.526 21.7393 -103.632 18.2553 -101.307 18.2553H-85.2089C-82.8788 18.2553 -80.9945 21.7393 -80.9945 26.0328V47.9101ZM-80.9945 412.655C-80.9945 416.948 -82.8788 420.432 -85.2089 420.432H-101.307C-103.632 420.432 -105.526 416.948 -105.526 412.655V390.777C-105.526 386.48 -103.632 382.997 -101.307 382.997H-85.2089C-82.8788 382.997 -80.9945 386.48 -80.9945 390.777V412.655ZM-118.443 47.9101C-118.443 52.2186 -120.332 55.6978 -122.662 55.6978H-138.755C-141.085 55.6978 -142.974 52.2186 -142.974 47.9101V26.0328C-142.974 21.7393 -141.085 18.2553 -138.755 18.2553H-122.662C-120.332 18.2553 -118.443 21.7393 -118.443 26.0328V47.9101ZM-118.443 412.655C-118.443 416.948 -120.332 420.432 -122.662 420.432H-138.755C-141.085 420.432 -142.974 416.948 -142.974 412.655V390.777C-142.974 386.48 -141.085 382.997 -138.755 382.997H-122.662C-120.332 382.997 -118.443 386.48 -118.443 390.777V412.655ZM-155.896 47.9101C-155.896 52.2186 -157.785 55.6978 -160.115 55.6978H-176.208C-178.538 55.6978 -180.433 52.2186 -180.433 47.9101V26.0328C-180.433 21.7393 -178.538 18.2553 -176.208 18.2553H-160.115C-157.785 18.2553 -155.896 21.7393 -155.896 26.0328V47.9101ZM-155.896 412.655C-155.896 416.948 -157.785 420.432 -160.115 420.432H-176.208C-178.538 420.432 -180.433 416.948 -180.433 412.655V390.777C-180.433 386.48 -178.538 382.997 -176.208 382.997H-160.115C-157.785 382.997 -155.896 386.48 -155.896 390.777V412.655ZM-193.349 47.9101C-193.349 52.2186 -195.239 55.6978 -197.569 55.6978H-213.661C-215.987 55.6978 -217.876 52.2186 -217.876 47.9101V26.0328C-217.876 21.7393 -215.987 18.2553 -213.661 18.2553H-197.569C-195.239 18.2553 -193.349 21.7393 -193.349 26.0328V47.9101ZM-193.349 412.655C-193.349 416.948 -195.239 420.432 -197.569 420.432H-213.661C-215.987 420.432 -217.876 416.948 -217.876 412.655V390.777C-217.876 386.48 -215.987 382.997 -213.661 382.997H-197.569C-195.239 382.997 -193.349 386.48 -193.349 390.777V412.655ZM-230.797 47.9101C-230.797 52.2186 -232.687 55.6978 -235.024 55.6978H-251.114C-253.439 55.6978 -255.334 52.2186 -255.334 47.9101V26.0328C-255.334 21.7393 -253.439 18.2553 -251.114 18.2553H-235.024C-232.687 18.2553 -230.797 21.7393 -230.797 26.0328V47.9101ZM-230.797 412.655C-230.797 416.948 -232.687 420.432 -235.024 420.432H-251.114C-253.439 420.432 -255.334 416.948 -255.334 412.655V390.777C-255.334 386.48 -253.439 382.997 -251.114 382.997H-235.024C-232.687 382.997 -230.797 386.48 -230.797 390.777V412.655ZM-268.253 47.9101C-268.253 52.2186 -270.139 55.6978 -272.47 55.6978H-288.564C-290.895 55.6978 -292.784 52.2186 -292.784 47.9101V26.0328C-292.784 21.7393 -290.895 18.2553 -288.564 18.2553H-272.47C-270.139 18.2553 -268.253 21.7393 -268.253 26.0328V47.9101ZM-268.253 412.655C-268.253 416.948 -270.139 420.432 -272.47 420.432H-288.564C-290.895 420.432 -292.784 416.948 -292.784 412.655V390.777C-292.784 386.48 -290.895 382.997 -288.564 382.997H-272.47C-270.139 382.997 -268.253 386.48 -268.253 390.777V412.655ZM-305.705 47.9101C-305.705 52.2186 -307.591 55.6978 -309.926 55.6978H-326.016C-328.345 55.6978 -330.237 52.2186 -330.237 47.9101V26.0328C-330.237 21.7393 -328.345 18.2553 -326.016 18.2553H-309.926C-307.591 18.2553 -305.705 21.7393 -305.705 26.0328V47.9101ZM-305.705 412.655C-305.705 416.948 -307.591 420.432 -309.926 420.432H-326.016C-328.345 420.432 -330.237 416.948 -330.237 412.655V390.777C-330.237 386.48 -328.345 382.997 -326.016 382.997H-309.926C-307.591 382.997 -305.705 386.48 -305.705 390.777V412.655ZM-343.155 47.9101C-343.155 52.2186 -345.041 55.6978 -347.375 55.6978H-363.466C-365.797 55.6978 -367.687 52.2186 -367.687 47.9101V26.0328C-367.687 21.7393 -365.797 18.2553 -363.466 18.2553H-347.375C-345.041 18.2553 -343.155 21.7393 -343.155 26.0328V47.9101ZM-343.155 412.655C-343.155 416.948 -345.041 420.432 -347.375 420.432H-363.466C-365.797 420.432 -367.687 416.948 -367.687 412.655V390.777C-367.687 386.48 -365.797 382.997 -363.466 382.997H-347.375C-345.041 382.997 -343.155 386.48 -343.155 390.777V412.655ZM-380.607 47.9101C-380.607 52.2186 -382.497 55.6978 -384.826 55.6978H-400.922C-403.247 55.6978 -405.142 52.2186 -405.142 47.9101V26.0328C-405.142 21.7393 -403.247 18.2553 -400.922 18.2553H-384.826C-382.497 18.2553 -380.607 21.7393 -380.607 26.0328V47.9101ZM-380.607 412.655C-380.607 416.948 -382.497 420.432 -384.826 420.432H-400.922C-403.247 420.432 -405.142 416.948 -405.142 412.655V390.777C-405.142 386.48 -403.247 382.997 -400.922 382.997H-384.826C-382.497 382.997 -380.607 386.48 -380.607 390.777V412.655ZM-418.059 47.9101C-418.059 52.2186 -419.947 55.6978 -422.278 55.6978H-438.368C-440.699 55.6978 -442.593 52.2186 -442.593 47.9101V26.0328C-442.593 21.7393 -440.699 18.2553 -438.368 18.2553H-422.278C-419.947 18.2553 -418.059 21.7393 -418.059 26.0328V47.9101ZM-418.059 412.655C-418.059 416.948 -419.947 420.432 -422.278 420.432H-438.368C-440.699 420.432 -442.593 416.948 -442.593 412.655V390.777C-442.593 386.48 -440.699 382.997 -438.368 382.997H-422.278C-419.947 382.997 -418.059 386.48 -418.059 390.777V412.655ZM-455.515 47.9101C-455.515 52.2186 -457.399 55.6978 -459.734 55.6978H-475.824C-478.149 55.6978 -480.045 52.2186 -480.045 47.9101V26.0328C-480.045 21.7393 -478.149 18.2553 -475.824 18.2553H-459.734C-457.399 18.2553 -455.515 21.7393 -455.515 26.0328V47.9101ZM-455.515 412.655C-455.515 416.948 -457.399 420.432 -459.734 420.432H-475.824C-478.149 420.432 -480.045 416.948 -480.045 412.655V390.777C-480.045 386.48 -478.149 382.997 -475.824 382.997H-459.734C-457.399 382.997 -455.515 386.48 -455.515 390.777V412.655ZM-492.965 47.9101C-492.965 52.2186 -494.849 55.6978 -497.184 55.6978H-513.276C-515.607 55.6978 -517.495 52.2186 -517.495 47.9101V26.0328C-517.495 21.7393 -515.607 18.2553 -513.276 18.2553H-497.184C-494.849 18.2553 -492.965 21.7393 -492.965 26.0328V47.9101ZM-492.965 412.655C-492.965 416.948 -494.849 420.432 -497.184 420.432H-513.276C-515.607 420.432 -517.495 416.948 -517.495 412.655V390.777C-517.495 386.48 -515.607 382.997 -513.276 382.997H-497.184C-494.849 382.997 -492.965 386.48 -492.965 390.777V412.655ZM-530.417 47.9101C-530.417 52.2186 -532.305 55.6978 -534.636 55.6978H-550.729C-553.057 55.6978 -554.947 52.2186 -554.947 47.9101V26.0328C-554.947 21.7393 -553.057 18.2553 -550.729 18.2553H-534.636C-532.305 18.2553 -530.417 21.7393 -530.417 26.0328V47.9101ZM-530.417 412.655C-530.417 416.948 -532.305 420.432 -534.636 420.432H-550.729C-553.057 420.432 -554.947 416.948 -554.947 412.655V390.777C-554.947 386.48 -553.057 382.997 -550.729 382.997H-534.636C-532.305 382.997 -530.417 386.48 -530.417 390.777V412.655ZM-567.867 47.9101C-567.867 52.2186 -569.751 55.6978 -572.088 55.6978H-588.184C-590.509 55.6978 -592.397 52.2186 -592.397 47.9101V26.0328C-592.397 21.7393 -590.509 18.2553 -588.184 18.2553H-572.088C-569.751 18.2553 -567.867 21.7393 -567.867 26.0328V47.9101ZM-567.867 412.655C-567.867 416.948 -569.751 420.432 -572.088 420.432H-588.184C-590.509 420.432 -592.397 416.948 -592.397 412.655V390.777C-592.397 386.48 -590.509 382.997 -588.184 382.997H-572.088C-569.751 382.997 -567.867 386.48 -567.867 390.777V412.655ZM-605.317 47.9101C-605.317 52.2186 -607.207 55.6978 -609.538 55.6978H-625.631C-627.963 55.6978 -629.855 52.2186 -629.855 47.9101V26.0328C-629.855 21.7393 -627.963 18.2553 -625.631 18.2553H-609.538C-607.207 18.2553 -605.317 21.7393 -605.317 26.0328V47.9101ZM-605.317 412.655C-605.317 416.948 -607.207 420.432 -609.538 420.432H-625.631C-627.963 420.432 -629.855 416.948 -629.855 412.655V390.777C-629.855 386.48 -627.963 382.997 -625.631 382.997H-609.538C-607.207 382.997 -605.317 386.48 -605.317 390.777V412.655ZM-642.773 47.9101C-642.773 52.2186 -644.659 55.6978 -646.994 55.6978H-663.086C-665.411 55.6978 -667.305 52.2186 -667.305 47.9101V26.0328C-667.305 21.7393 -665.411 18.2553 -663.086 18.2553H-646.994C-644.659 18.2553 -642.773 21.7393 -642.773 26.0328V47.9101ZM-642.773 412.655C-642.773 416.948 -644.659 420.432 -646.994 420.432H-663.086C-665.411 420.432 -667.305 416.948 -667.305 412.655V390.777C-667.305 386.48 -665.411 382.997 -663.086 382.997H-646.994C-644.659 382.997 -642.773 386.48 -642.773 390.777V412.655ZM-680.22 47.9101C-680.22 52.2186 -682.111 55.6978 -684.446 55.6978H-700.536C-702.865 55.6978 -704.755 52.2186 -704.755 47.9101V26.0328C-704.755 21.7393 -702.865 18.2553 -700.536 18.2553H-684.446C-682.111 18.2553 -680.22 21.7393 -680.22 26.0328V47.9101ZM-680.22 412.655C-680.22 416.948 -682.111 420.432 -684.446 420.432H-700.536C-702.865 420.432 -704.755 416.948 -704.755 412.655V390.777C-704.755 386.48 -702.865 382.997 -700.536 382.997H-684.446C-682.111 382.997 -680.22 386.48 -680.22 390.777V412.655ZM-717.676 47.9101C-717.676 52.2186 -719.565 55.6978 -721.896 55.6978H-737.989C-740.317 55.6978 -742.211 52.2186 -742.211 47.9101V26.0328C-742.211 21.7393 -740.317 18.2553 -737.989 18.2553H-721.896C-719.565 18.2553 -717.676 21.7393 -717.676 26.0328V47.9101ZM-717.676 412.655C-717.676 416.948 -719.565 420.432 -721.896 420.432H-737.989C-740.317 420.432 -742.211 416.948 -742.211 412.655V390.777C-742.211 386.48 -740.317 382.997 -737.989 382.997H-721.896C-719.565 382.997 -717.676 386.48 -717.676 390.777V412.655ZM-755.128 47.9101C-755.128 52.2186 -757.017 55.6978 -759.346 55.6978H-775.442C-777.767 55.6978 -779.659 52.2186 -779.659 47.9101V26.0328C-779.659 21.7393 -777.767 18.2553 -775.442 18.2553H-759.346C-757.017 18.2553 -755.128 21.7393 -755.128 26.0328V47.9101ZM-755.128 412.655C-755.128 416.948 -757.017 420.432 -759.346 420.432H-775.442C-777.767 420.432 -779.659 416.948 -779.659 412.655V390.777C-779.659 386.48 -777.767 382.997 -775.442 382.997H-759.346C-757.017 382.997 -755.128 386.48 -755.128 390.777V412.655ZM-792.579 47.9101C-792.579 52.2186 -794.469 55.6978 -796.802 55.6978H-812.889C-815.22 55.6978 -817.113 52.2186 -817.113 47.9101V26.0328C-817.113 21.7393 -815.22 18.2553 -812.889 18.2553H-796.802C-794.469 18.2553 -792.579 21.7393 -792.579 26.0328V47.9101ZM-792.579 412.655C-792.579 416.948 -794.469 420.432 -796.802 420.432H-812.889C-815.22 420.432 -817.113 416.948 -817.113 412.655V390.777C-817.113 386.48 -815.22 382.997 -812.889 382.997H-796.802C-794.469 382.997 -792.579 386.48 -792.579 390.777V412.655ZM-830.036 47.9101C-830.036 52.2186 -831.92 55.6978 -834.248 55.6978H-850.345C-852.669 55.6978 -854.565 52.2186 -854.565 47.9101V26.0328C-854.565 21.7393 -852.669 18.2553 -850.345 18.2553H-834.248C-831.92 18.2553 -830.036 21.7393 -830.036 26.0328V47.9101ZM-830.036 412.655C-830.036 416.948 -831.92 420.432 -834.248 420.432H-850.345C-852.669 420.432 -854.565 416.948 -854.565 412.655V390.777C-854.565 386.48 -852.669 382.997 -850.345 382.997H-834.248C-831.92 382.997 -830.036 386.48 -830.036 390.777V412.655ZM-867.482 47.9101C-867.482 52.2186 -869.369 55.6978 -871.705 55.6978H-887.797C-890.128 55.6978 -892.015 52.2186 -892.015 47.9101V26.0328C-892.015 21.7393 -890.128 18.2553 -887.797 18.2553H-871.705C-869.369 18.2553 -867.482 21.7393 -867.482 26.0328V47.9101ZM-867.482 412.655C-867.482 416.948 -869.369 420.432 -871.705 420.432H-887.797C-890.128 420.432 -892.015 416.948 -892.015 412.655V390.777C-892.015 386.48 -890.128 382.997 -887.797 382.997H-871.705C-869.369 382.997 -867.482 386.48 -867.482 390.777V412.655ZM-898.844 0.346558V439.884H856.214V0.346558H-898.844Z" fill="#252525"/>
</svg>
