<svg width="786" height="372" viewBox="0 0 786 372" fill="none" xmlns="http://www.w3.org/2000/svg">
<g opacity="0.1">
<path d="M715.144 -6.68732H507.379C495.813 -6.68732 484.889 -11.185 476.536 -19.1096C469.896 -25.5349 462.614 -32.817 454.903 -40.5274C438.624 -57.0191 437.339 -83.3629 451.904 -101.568C494.314 -162.18 536.938 -97.7129 536.938 -97.7129L537.152 -98.1412C550.003 -82.2921 569.494 -72.0116 591.556 -72.0116C632.681 -72.0116 665.452 -107.137 662.025 -148.901C658.812 -186.168 625.184 -213.583 587.915 -213.369C569.066 -213.155 551.074 -211.87 533.939 -209.085C501.81 -211.013 465.612 -214.868 430.913 -222.15C472.038 -239.713 505.452 -265.2 519.802 -302.039C527.513 -296.684 536.938 -293.471 547.005 -293.471C573.136 -293.471 594.555 -314.675 594.555 -341.019C594.555 -367.363 573.35 -388.566 547.005 -388.566C520.659 -388.566 499.454 -367.363 499.454 -341.019C499.454 -334.165 500.953 -327.954 503.524 -321.957C492.6 -276.123 448.691 -248.28 395.143 -231.146C339.882 -247.852 293.831 -275.909 282.907 -322.171C285.264 -327.954 286.763 -334.165 286.763 -340.805C286.763 -366.934 265.558 -388.352 239.213 -388.352C212.867 -388.352 191.662 -367.149 191.662 -340.805C191.662 -314.461 212.867 -293.257 239.213 -293.257C249.279 -293.257 258.704 -296.47 266.415 -302.039C280.98 -264.557 314.822 -238.642 357.66 -221.079C324.246 -213.797 289.547 -209.942 258.276 -207.8C238.784 -211.441 218.436 -213.155 197.231 -213.155C159.748 -213.369 126.334 -185.954 123.121 -148.687C119.48 -106.923 152.465 -71.7973 193.59 -71.7973C215.652 -71.7973 234.929 -82.0779 247.994 -97.9271L248.209 -97.4987C248.209 -97.4987 288.905 -162.395 333.242 -101.354C347.807 -83.1488 346.736 -57.0191 330.244 -40.3132C322.533 -32.6028 315.25 -25.3208 308.61 -18.8954C300.257 -10.9709 289.333 -6.47311 277.767 -6.47311H255.277H252.921H68.2885C31.2335 -6.47311 0.818359 23.9401 0.818359 60.9929C0.818359 98.2598 31.0193 128.459 68.2885 128.459H254.206C280.337 128.459 301.756 149.663 301.756 176.006V176.221C301.542 253.967 160.39 216.7 148.396 216.914H147.539C110.484 217.985 77.2845 243.258 70.002 279.668C59.7209 330.429 98.4893 375.192 147.539 375.192H149.038C167.673 375.62 306.683 381.617 338.383 436.018C327.888 439.017 319.962 448.226 319.962 459.578C319.962 473.285 331.1 484.423 344.809 484.423C345.665 484.423 346.522 483.994 347.379 483.994C352.948 504.341 371.368 519.333 393.216 519.333C415.277 519.333 433.698 504.341 439.052 483.994C440.123 484.208 440.98 484.637 441.837 484.637C455.545 484.637 466.683 473.5 466.683 459.792C466.683 447.584 457.687 437.946 446.121 435.804C474.394 385.472 593.912 376.905 627.969 375.62L635.037 375.406C678.732 375.406 714.073 340.067 714.073 296.374C714.073 252.682 678.732 217.343 635.037 217.343H633.109C615.545 216.7 484.247 252.682 484.461 176.221C484.461 150.091 506.308 128.887 532.44 128.887H538.008H714.073H717.929C757.34 128.887 789.04 95.0472 785.185 54.7818C781.972 19.0141 750.486 -6.68732 715.144 -6.68732ZM368.155 -6.68732C375.866 -14.1835 384.005 -22.7506 392.359 -31.9602C400.712 -22.9648 408.852 -14.1835 416.563 -6.68732H368.155ZM430.699 -158.754C422.131 -150.186 413.992 -137.978 408.423 -130.268C403.497 -123.414 398.142 -116.561 392.573 -109.707C387.004 -116.561 381.864 -125.984 376.937 -132.838C370.083 -142.476 369.869 -143.333 354.447 -158.754C340.311 -172.889 325.103 -183.17 308.61 -191.309C336.884 -194.95 366.228 -200.518 393.644 -208.657C420.846 -200.947 449.976 -195.592 478.892 -192.165C461.542 -184.027 445.478 -173.318 430.699 -158.754Z" fill="#8FC055"/>
</g>
</svg>
