<svg width="710" height="300" viewBox="0 0 710 300" fill="none" xmlns="http://www.w3.org/2000/svg">
<path d="M663.101 351.115H470.521C459.8 351.115 449.675 355.284 441.932 362.629C435.777 368.585 429.027 375.335 421.88 382.482C406.791 397.768 405.6 422.187 419.1 439.061C458.41 495.244 497.919 435.488 497.919 435.488L498.117 435.885C510.03 421.194 528.096 411.665 548.546 411.665C586.665 411.665 617.041 444.223 613.864 482.935C610.886 517.478 579.716 542.889 545.17 542.691C527.699 542.492 511.022 541.301 495.14 538.72C465.359 540.507 431.806 544.081 399.643 550.83C437.762 567.109 468.734 590.734 482.036 624.88C489.183 619.917 497.919 616.939 507.25 616.939C531.472 616.939 551.325 636.593 551.325 661.012C551.325 685.43 531.67 705.084 507.25 705.084C482.83 705.084 463.175 685.43 463.175 661.012C463.175 654.659 464.565 648.902 466.947 643.343C456.822 600.859 416.122 575.05 366.488 559.169C315.266 574.653 272.58 600.66 262.455 643.541C264.639 648.902 266.028 654.659 266.028 660.813C266.028 685.033 246.373 704.885 221.953 704.885C197.533 704.885 177.878 685.232 177.878 660.813C177.878 636.395 197.533 616.741 221.953 616.741C231.285 616.741 240.02 619.718 247.168 624.88C260.668 590.138 292.037 566.117 331.744 549.838C300.772 543.088 268.609 539.515 239.623 537.529C221.556 540.904 202.695 542.492 183.04 542.492C148.296 542.691 117.325 517.28 114.347 482.737C110.972 444.024 141.546 411.466 179.665 411.466C200.114 411.466 217.983 420.995 230.093 435.686L230.292 435.289C230.292 435.289 268.014 495.442 309.111 438.863C322.611 421.988 321.619 397.768 306.331 382.283C299.184 375.136 292.434 368.387 286.279 362.431C278.536 355.085 268.411 350.916 257.69 350.916H236.844H234.66H63.5214C29.1746 350.916 0.982422 322.726 0.982422 288.381C0.982422 253.838 28.9761 225.846 63.5214 225.846H235.851C260.072 225.846 279.926 206.192 279.926 181.773V181.575C279.728 109.511 148.892 144.054 137.774 143.855H136.98C102.633 142.863 71.86 119.437 65.1097 85.6877C55.58 38.6374 91.515 -2.85425 136.98 -2.85425H138.37C155.642 -3.25128 284.492 -8.81 313.876 -59.2352C304.147 -62.0145 296.802 -70.5511 296.802 -81.0729C296.802 -93.7785 307.125 -104.102 319.832 -104.102C320.626 -104.102 321.42 -103.705 322.214 -103.705C327.376 -122.565 344.45 -136.461 364.701 -136.461C385.15 -136.461 402.224 -122.565 407.188 -103.705C408.18 -103.903 408.975 -104.3 409.769 -104.3C422.475 -104.3 432.799 -93.9771 432.799 -81.2715C432.799 -69.9556 424.46 -61.0219 413.74 -59.0367C439.946 -12.3834 550.73 -4.4425 582.297 -3.25134L588.849 -3.05273C629.35 -3.05273 662.108 29.7037 662.108 70.2026C662.108 110.702 629.35 143.458 588.849 143.458H587.062C570.782 144.054 449.079 110.702 449.277 181.575C449.277 205.795 469.528 225.449 493.75 225.449H498.911H662.108H665.682C702.213 225.449 731.596 256.816 728.023 294.138C725.045 327.292 695.86 351.115 663.101 351.115ZM341.472 351.115C348.62 358.063 356.164 366.004 363.907 374.541C371.65 366.203 379.194 358.063 386.342 351.115H341.472ZM399.445 492.067C391.503 484.126 383.959 472.81 378.797 465.663C374.231 459.311 369.267 452.958 364.105 446.605C358.943 452.958 354.179 461.693 349.612 468.046C343.259 476.979 343.061 477.773 328.766 492.067C315.663 505.17 301.567 514.699 286.279 522.243C312.486 525.618 339.686 530.779 365.098 538.323C390.312 531.177 417.313 526.213 444.116 523.037C428.034 515.493 413.144 505.567 399.445 492.067Z" fill="url(#paint0_linear_1352_1688)"/>
<defs>
<linearGradient id="paint0_linear_1352_1688" x1="364.65" y1="705.084" x2="364.65" y2="-136.461" gradientUnits="userSpaceOnUse">
<stop offset="0.572917" stop-color="#8FC055" stop-opacity="0"/>
<stop offset="0.661458" stop-color="#8DC34C" stop-opacity="0.409091"/>
<stop offset="1" stop-color="#89C83F"/>
</linearGradient>
</defs>
</svg>
