<svg width="23" height="21" viewBox="0 0 23 21" fill="none" xmlns="http://www.w3.org/2000/svg">
<path d="M11.1328 7V12.5M11.1328 15.5358V15.547" stroke="#EC5F22" stroke-width="2" stroke-linecap="round" stroke-linejoin="round"/>
<path d="M3.2579 19.0357H19.0079C19.375 19.0331 19.7359 18.9408 20.0591 18.7667C20.3823 18.5926 20.658 18.3421 20.8621 18.037C21.0663 17.7319 21.1927 17.3815 21.2303 17.0163C21.2679 16.6511 21.2156 16.2823 21.0779 15.942L13.0904 2.16072C12.8958 1.80905 12.6106 1.51591 12.2644 1.31178C11.9182 1.10766 11.5236 1 11.1217 1C10.7197 1 10.3252 1.10766 9.97893 1.31178C9.63271 1.51591 9.34748 1.80905 9.1529 2.16072L1.1654 15.942C1.03034 16.2745 0.976779 16.6345 1.0092 16.9919C1.04162 17.3494 1.15907 17.6939 1.35176 17.9967C1.54445 18.2995 1.80678 18.5518 2.11685 18.7325C2.42691 18.9133 2.77572 19.0172 3.13415 19.0357" stroke="#EC5F22" stroke-width="2" stroke-linecap="round" stroke-linejoin="round"/>
</svg>
