<svg width="272" height="55" viewBox="0 0 272 55" fill="none" xmlns="http://www.w3.org/2000/svg">
<path d="M19.1146 4.65186C19.181 4.76261 19.1146 4.65186 20.2664 6.06942C21.4182 7.48699 20.2664 15.1286 20.2664 15.1286C20.2664 15.1286 20.8202 15.4276 21.1414 15.4276C21.4515 15.4276 22.0274 15.1286 22.0274 15.1286C22.0274 15.1286 21.1746 6.92218 22.0274 6.06942C22.8027 5.29419 23.0906 4.78476 23.1349 4.68508C23.4229 4.28639 23.6001 3.78803 23.6001 3.25644C23.6001 1.90533 22.5036 0.797852 21.1414 0.797852C19.7791 0.797852 18.6826 1.89425 18.6826 3.25644C18.6826 3.77696 18.8487 4.26424 19.1146 4.65186Z" fill="url(#paint0_linear_1305_5597)"/>
<path d="M37.7988 27.3883H27.0556C26.4576 27.3883 25.8927 27.1558 25.4608 26.746C25.1174 26.4138 24.7409 26.0372 24.3422 25.6385C23.5004 24.7858 23.434 23.4236 24.1871 22.4822C26.38 19.3481 28.584 22.6816 28.584 22.6816L28.5951 22.6594C29.2596 23.479 30.2675 24.0105 31.4083 24.0105C33.5347 24.0105 35.2293 22.1943 35.0521 20.0347C34.8859 18.1077 33.1471 16.6902 31.22 16.7012C30.2453 16.7123 29.315 16.7787 28.429 16.9227C26.7677 16.823 24.8959 16.6237 23.1017 16.2472C25.2282 15.339 26.956 14.0211 27.698 12.1163C28.0967 12.3932 28.584 12.5593 29.1046 12.5593C30.4558 12.5593 31.5633 11.4629 31.5633 10.1007C31.5633 8.73849 30.4669 7.64209 29.1046 7.64209C27.7423 7.64209 26.6458 8.73849 26.6458 10.1007C26.6458 10.4551 26.7234 10.7762 26.8563 11.0863C26.2914 13.4563 24.021 14.896 21.2521 15.782C18.3947 14.9182 16.0134 13.4674 15.4486 11.0753C15.5704 10.7762 15.648 10.4551 15.648 10.1118C15.648 8.76064 14.5515 7.65316 13.1892 7.65316C11.8269 7.65316 10.7305 8.74956 10.7305 10.1118C10.7305 11.4739 11.8269 12.5703 13.1892 12.5703C13.7098 12.5703 14.1971 12.4042 14.5958 12.1163C15.3489 14.0544 17.0988 15.3944 19.3139 16.3025C17.5862 16.6791 15.7919 16.8784 14.1749 16.9892C13.1671 16.8009 12.1149 16.7123 11.0184 16.7123C9.08025 16.7012 7.35249 18.1188 7.18636 20.0458C6.99808 22.2054 8.70369 24.0216 10.8302 24.0216C11.9709 24.0216 12.9677 23.49 13.6433 22.6705L13.6544 22.6927C13.6544 22.6927 15.7587 19.337 18.0513 22.4933C18.8045 23.4347 18.7491 24.7858 17.8963 25.6496C17.4976 26.0483 17.121 26.4248 16.7777 26.7571C16.3457 27.1668 15.7809 27.3994 15.1828 27.3994H14.0199H13.8981H4.35106C2.43501 27.3994 0.862305 28.972 0.862305 30.888C0.862305 32.815 2.42394 34.3765 4.35106 34.3765H13.9645C15.3157 34.3765 16.4232 35.4729 16.4232 36.8351V36.8462C16.4122 40.8663 9.11348 38.9393 8.49325 38.9504H8.44895C6.53291 39.0057 4.81623 40.3126 4.43966 42.1953C3.90804 44.82 5.91269 47.1346 8.44895 47.1346H8.52648C9.49004 47.1567 16.678 47.4668 18.3171 50.2798C17.7744 50.4349 17.3647 50.9111 17.3647 51.498C17.3647 52.2068 17.9406 52.7827 18.6494 52.7827C18.6937 52.7827 18.738 52.7606 18.7823 52.7606C19.0703 53.8127 20.0227 54.5879 21.1524 54.5879C22.2932 54.5879 23.2457 53.8127 23.5226 52.7606C23.5779 52.7716 23.6223 52.7938 23.6666 52.7938C24.3754 52.7938 24.9513 52.2179 24.9513 51.5091C24.9513 50.8779 24.4861 50.3795 23.8881 50.2688C25.35 47.6662 31.5301 47.2232 33.2911 47.1568L33.6566 47.1457C35.916 47.1457 37.7434 45.3184 37.7434 43.0591C37.7434 40.7999 35.916 38.9725 33.6566 38.9725H33.5569C32.6487 38.9393 25.8595 40.7999 25.8706 36.8462C25.8706 35.4951 27.0002 34.3987 28.3514 34.3987H28.6394H37.7434H37.9427C39.9806 34.3987 41.6198 32.6488 41.4204 30.5668C41.2543 28.7173 39.6262 27.3883 37.7988 27.3883ZM19.8566 27.3883C20.2553 27.0007 20.6762 26.5577 21.1081 26.0815C21.5401 26.5467 21.9609 27.0007 22.3597 27.3883H19.8566ZM23.0906 19.5253C22.6476 19.9683 22.2267 20.5995 21.9388 20.9982C21.6841 21.3526 21.4072 21.707 21.1192 22.0614C20.8313 21.707 20.5654 21.2197 20.3107 20.8653C19.9563 20.367 19.9452 20.3227 19.1478 19.5253C18.4168 18.7943 17.6305 18.2628 16.7777 17.8419C18.2396 17.6537 19.7569 17.3657 21.1746 16.9449C22.5812 17.3436 24.0874 17.6204 25.5826 17.7976C24.6855 18.2185 23.8548 18.7722 23.0906 19.5253Z" fill="url(#paint1_linear_1305_5597)"/>
<path d="M97.3892 34.2405V50.9091H93.4588V34.4379C93.4588 28.9278 90.1604 25.4914 85.44 25.4914C80.048 25.4321 76.1374 29.3425 76.5521 36.3339L76.4929 36.0969V50.9289H72.6415V34.4577C72.6415 28.8883 69.3431 25.5111 64.8004 25.5111C60.1984 25.5111 55.794 28.2168 55.6755 35.0699V50.9289H51.7451V22.2919H55.6755V27.4466C57.1371 23.6546 61.2452 21.6797 65.4719 21.6797C70.1331 21.6797 73.9253 24.1286 75.5251 28.5328C77.5989 22.8252 82.5761 21.6797 86.072 21.6797C92.9848 21.6797 97.3892 26.3406 97.3892 34.2405Z" fill="#87BD25" stroke="#87BD28" stroke-width="0.5" stroke-miterlimit="10"/>
<path d="M103.335 11.7651C103.335 10.1061 104.737 8.94092 106.337 8.94092C108.055 8.94092 109.398 10.1061 109.398 11.7651C109.398 13.3648 108.055 14.5301 106.337 14.5301C104.737 14.5103 103.335 13.3451 103.335 11.7651ZM104.382 22.2917H108.312V50.9089H104.382V22.2917Z" fill="#87BD25" stroke="#87BD28" stroke-width="0.5" stroke-miterlimit="10"/>
<path d="M141.138 34.2404V50.9091H137.208V34.4379C137.208 28.9278 133.712 25.5506 129.129 25.5506C124.528 25.5506 119.689 28.1181 119.57 35.0502V50.9091H115.64V22.2919H119.57V27.4466C121.288 23.3387 125.95 21.6797 129.505 21.6797C136.417 21.6797 141.138 26.3406 141.138 34.2404Z" fill="#87BD25" stroke="#87BD28" stroke-width="0.5" stroke-miterlimit="10"/>
<path d="M160.434 25.6687H153.877V50.9087H150.026V25.6687H144.812V22.2915H150.026V10.896H153.877V22.2915H160.434V25.6687Z" fill="#87BD25" stroke="#87BD28" stroke-width="0.5" stroke-miterlimit="10"/>
<path d="M164.78 29.8955C164.78 17.8878 174.083 8.21045 186.091 8.21045C198.1 8.21045 207.403 17.8878 207.403 29.8955C207.403 41.8441 198.1 51.5214 186.091 51.5214C174.083 51.5214 164.78 41.8441 164.78 29.8955ZM203.393 29.8955C203.393 20.0997 195.848 12.0024 186.111 12.0024C176.374 12.0024 168.829 20.08 168.829 29.8955C168.829 39.6913 176.374 47.7294 186.111 47.7294C195.848 47.7294 203.393 39.6913 203.393 29.8955Z" fill="#87BD25" stroke="#87BD28" stroke-width="0.5" stroke-miterlimit="10"/>
<path d="M240.999 22.2919V50.9091H237.068V45.3397C234.915 49.2699 230.452 51.5214 225.672 51.5214C217.713 51.5214 211.155 45.2805 211.155 36.5709C211.155 27.8613 217.653 21.6797 225.672 21.6797C230.511 21.6797 234.915 23.9509 237.068 27.8021V22.2919H240.999ZM237.088 36.6894C237.088 29.777 231.696 25.4124 225.988 25.4124C219.984 25.4124 215.086 30.1918 215.086 36.4919C215.086 42.871 219.984 47.7689 225.988 47.7689C231.933 47.7887 237.088 43.3055 237.088 36.6894Z" fill="#87BD25" stroke="#87BD28" stroke-width="0.5" stroke-miterlimit="10"/>
<path d="M265.508 50.9087L251.051 36.1952V50.9087H247.12V6.17578H251.051V33.2525L261.775 22.2915H267.226L254.981 34.7338L270.861 50.9087H265.508Z" fill="#87BD25" stroke="#87BD28" stroke-width="0.5" stroke-miterlimit="10"/>
<defs>
<linearGradient id="paint0_linear_1305_5597" x1="21.1399" y1="54.6949" x2="21.1399" y2="1.08048" gradientUnits="userSpaceOnUse">
<stop stop-color="#95C11F"/>
<stop offset="0.1196" stop-color="#77B82A"/>
<stop offset="0.2535" stop-color="#5BB030"/>
<stop offset="0.3863" stop-color="#46AC34"/>
<stop offset="0.5157" stop-color="#3EAB35"/>
<stop offset="1" stop-color="#3AAA35"/>
</linearGradient>
<linearGradient id="paint1_linear_1305_5597" x1="21.1399" y1="54.695" x2="21.1399" y2="1.08053" gradientUnits="userSpaceOnUse">
<stop stop-color="#95C11F"/>
<stop offset="0.1196" stop-color="#77B82A"/>
<stop offset="0.2535" stop-color="#5BB030"/>
<stop offset="0.3863" stop-color="#46AC34"/>
<stop offset="0.5157" stop-color="#3EAB35"/>
<stop offset="1" stop-color="#3AAA35"/>
</linearGradient>
</defs>
</svg>
