<svg width="72" height="73" viewBox="0 0 72 73" fill="none" xmlns="http://www.w3.org/2000/svg">
<path d="M12 24.6074V18.6074C12 17.0161 12.6321 15.49 13.7574 14.3648C14.8826 13.2396 16.4087 12.6074 18 12.6074H24" stroke="#252525" stroke-width="2" stroke-linecap="round" stroke-linejoin="round"/>
<path d="M12 48.6074V54.6074C12 56.1987 12.6321 57.7248 13.7574 58.8501C14.8826 59.9753 16.4087 60.6074 18 60.6074H24" stroke="#252525" stroke-width="2" stroke-linecap="round" stroke-linejoin="round"/>
<path d="M48 12.6074H54C55.5913 12.6074 57.1174 13.2396 58.2426 14.3648C59.3679 15.49 60 17.0161 60 18.6074V24.6074" stroke="#252525" stroke-width="2" stroke-linecap="round" stroke-linejoin="round"/>
<path d="M48 60.6074H54C55.5913 60.6074 57.1174 59.9753 58.2426 58.8501C59.3679 57.7248 60 56.1987 60 54.6074V48.6074" stroke="#252525" stroke-width="2" stroke-linecap="round" stroke-linejoin="round"/>
<path d="M30.6667 36.6074H25.3333C24.597 36.6074 24 37.2044 24 37.9408V45.9408C24 46.6771 24.597 47.2741 25.3333 47.2741H30.6667C31.403 47.2741 32 46.6771 32 45.9408V37.9408C32 37.2044 31.403 36.6074 30.6667 36.6074Z" stroke="#252525" stroke-width="2" stroke-linecap="round" stroke-linejoin="round"/>
<path d="M38.6667 31.2742H33.3333C32.597 31.2742 32 31.8711 32 32.6075V45.9408C32 46.6772 32.597 47.2742 33.3333 47.2742H38.6667C39.403 47.2742 40 46.6772 40 45.9408V32.6075C40 31.8711 39.403 31.2742 38.6667 31.2742Z" stroke="#46AC34" stroke-width="2" stroke-linecap="round" stroke-linejoin="round"/>
<path d="M46.6667 25.9407H41.3333C40.597 25.9407 40 26.5376 40 27.274V45.9407C40 46.6771 40.597 47.274 41.3333 47.274H46.6667C47.403 47.274 48 46.6771 48 45.9407V27.274C48 26.5376 47.403 25.9407 46.6667 25.9407Z" stroke="#46AC34" stroke-width="2" stroke-linecap="round" stroke-linejoin="round"/>
</svg>
