<svg width="53" height="53" viewBox="0 0 53 53" fill="none" xmlns="http://www.w3.org/2000/svg">
<path d="M8.83325 17.6667V13.25C8.83325 12.0787 9.29858 10.9553 10.1269 10.127C10.9551 9.2987 12.0785 8.83337 13.2499 8.83337H17.6666" stroke="#252525" stroke-width="2" stroke-linecap="round" stroke-linejoin="round"/>
<path d="M8.83325 35.3334V39.75C8.83325 40.9214 9.29858 42.0448 10.1269 42.8731C10.9551 43.7014 12.0785 44.1667 13.2499 44.1667H17.6666" stroke="#252525" stroke-width="2" stroke-linecap="round" stroke-linejoin="round"/>
<path d="M35.3333 8.83337H39.7499C40.9213 8.83337 42.0447 9.2987 42.873 10.127C43.7013 10.9553 44.1666 12.0787 44.1666 13.25V17.6667" stroke="#252525" stroke-width="2" stroke-linecap="round" stroke-linejoin="round"/>
<path d="M35.3333 44.1667H39.7499C40.9213 44.1667 42.0447 43.7014 42.873 42.8731C43.7013 42.0448 44.1666 40.9214 44.1666 39.75V35.3334" stroke="#252525" stroke-width="2" stroke-linecap="round" stroke-linejoin="round"/>
<path d="M22.5742 26.5H18.6482C18.1062 26.5 17.6667 26.9394 17.6667 27.4815V33.3704C17.6667 33.9124 18.1062 34.3519 18.6482 34.3519H22.5742C23.1162 34.3519 23.5556 33.9124 23.5556 33.3704V27.4815C23.5556 26.9394 23.1162 26.5 22.5742 26.5Z" stroke="#252525" stroke-width="2" stroke-linecap="round" stroke-linejoin="round"/>
<path d="M28.4628 22.5742H24.5369C23.9948 22.5742 23.5554 23.0136 23.5554 23.5557V33.3705C23.5554 33.9126 23.9948 34.352 24.5369 34.352H28.4628C29.0049 34.352 29.4443 33.9126 29.4443 33.3705V23.5557C29.4443 23.0136 29.0049 22.5742 28.4628 22.5742Z" stroke="#46AC34" stroke-width="2" stroke-linecap="round" stroke-linejoin="round"/>
<path d="M34.352 18.6479H30.4261C29.884 18.6479 29.4446 19.0874 29.4446 19.6294V33.3702C29.4446 33.9122 29.884 34.3517 30.4261 34.3517H34.352C34.894 34.3517 35.3335 33.9122 35.3335 33.3702V19.6294C35.3335 19.0874 34.894 18.6479 34.352 18.6479Z" stroke="#46AC34" stroke-width="2" stroke-linecap="round" stroke-linejoin="round"/>
</svg>
