<svg width="41" height="41" viewBox="0 0 41 41" fill="none" xmlns="http://www.w3.org/2000/svg">
<path d="M19.6713 34.8538C27.9273 34.8538 34.62 28.182 34.62 19.9519C34.62 11.7218 27.9273 5.04993 19.6713 5.04993C11.4154 5.04993 4.72266 11.7218 4.72266 19.9519C4.72266 28.182 11.4154 34.8538 19.6713 34.8538Z" stroke="#BFE09A" stroke-width="2" stroke-linecap="round" stroke-linejoin="round"/>
<g clip-path="url(#clip0_1986_13482)">
<path d="M19.6701 21.9126C20.7564 21.9126 21.637 21.0347 21.637 19.9518C21.637 18.8689 20.7564 17.991 19.6701 17.991C18.5838 17.991 17.7031 18.8689 17.7031 19.9518C17.7031 21.0347 18.5838 21.9126 19.6701 21.9126Z" stroke="#BFE09A" stroke-width="2" stroke-linecap="round" stroke-linejoin="round"/>
<path d="M29.5052 19.9519C26.8823 24.5273 23.6045 26.8146 19.6706 26.8146C15.7367 26.8146 12.4588 24.5273 9.83594 19.9519C12.4588 15.3764 15.7367 13.0891 19.6706 13.0891C23.6045 13.0891 26.8823 15.3764 29.5052 19.9519Z" stroke="#BFE09A" stroke-width="2" stroke-linecap="round" stroke-linejoin="round"/>
</g>
<defs>
<clipPath id="clip0_1986_13482">
<rect width="23.6032" height="23.5294" fill="white" transform="translate(7.86719 8.18713)"/>
</clipPath>
</defs>
</svg>
