<svg width="26" height="25" viewBox="0 0 26 25" fill="none" xmlns="http://www.w3.org/2000/svg">
<path d="M16.8704 4.16667C16.8704 3.8904 16.7599 3.62545 16.563 3.4301C16.3662 3.23475 16.0993 3.125 15.8209 3.125H9.52374C9.24539 3.125 8.97844 3.23475 8.78161 3.4301C8.58479 3.62545 8.47421 3.8904 8.47421 4.16667V7.29167H16.8704V4.16667ZM22.1181 20.8333V8.33333C22.1181 8.05707 22.0075 7.79211 21.8107 7.59676C21.6139 7.40141 21.3469 7.29167 21.0686 7.29167H4.27609C3.99774 7.29167 3.73079 7.40141 3.53396 7.59676C3.33714 7.79211 3.22656 8.05707 3.22656 8.33333V20.8333C3.22656 21.1096 3.33714 21.3746 3.53396 21.5699C3.73079 21.7653 3.99774 21.875 4.27609 21.875H21.0686C21.3469 21.875 21.6139 21.7653 21.8107 21.5699C22.0075 21.3746 22.1181 21.1096 22.1181 20.8333Z" stroke="#525252" stroke-width="1.5" stroke-linecap="round" stroke-linejoin="round"/>
<path d="M11.6233 14.5833H9.14645C8.33191 14.5763 7.53703 14.3342 6.8587 13.8866C6.18037 13.439 5.64788 12.8052 5.32616 12.0625L3.41602 7.73956" stroke="#525252" stroke-width="1.5" stroke-linecap="round" stroke-linejoin="round"/>
<path d="M21.929 7.73956L20.0189 12.0625C19.6971 12.8052 19.1647 13.439 18.4863 13.8866C17.808 14.3342 17.0131 14.5763 16.1986 14.5833H13.7217" stroke="#525252" stroke-width="1.5" stroke-linecap="round" stroke-linejoin="round"/>
<mask id="path-4-inside-1_3502_1871" fill="white">
<rect x="10.6416" y="12.0968" width="4.87524" height="4.83871" rx="1"/>
</mask>
<rect x="10.6416" y="12.0968" width="4.87524" height="4.83871" rx="1" fill="#D1E6BA" stroke="#8FC055" stroke-width="3" mask="url(#path-4-inside-1_3502_1871)"/>
</svg>
