<svg width="20" height="20" viewBox="0 0 20 20" fill="none" xmlns="http://www.w3.org/2000/svg">
<path d="M9.87185 17.5004C7.98935 17.5004 6.26935 16.9445 4.93935 15.8337H1.66602L3.08935 13.112C2.63518 12.1337 2.45685 11.0737 2.45768 10.0004C2.45768 5.8587 5.65768 2.50037 9.87268 2.50037C14.0827 2.50037 17.4993 5.8587 17.4993 10.0004C17.4993 14.1437 14.0843 17.5004 9.87185 17.5004Z" stroke="#252525" stroke-linecap="round" stroke-linejoin="round"/>
<path d="M8.10167 13.3892H10.3234C11.8224 13.3892 12.711 12.6519 12.711 11.4116C12.711 10.4741 12.0958 9.80029 11.1388 9.67822V9.63916C11.8175 9.51709 12.3546 8.8335 12.3546 8.10107C12.3546 7.04639 11.5392 6.34326 10.3331 6.34326H8.10167C7.83312 6.34326 7.66222 6.51904 7.66222 6.79736V12.9351C7.66222 13.2134 7.83312 13.3892 8.10167 13.3892ZM8.54112 9.38037V7.11963H10.1329C10.9874 7.11963 11.4659 7.50537 11.4659 8.20361C11.4659 8.96533 10.8995 9.38037 9.85948 9.38037H8.54112ZM8.54112 12.6128V10.1372H10.1085C11.2316 10.1372 11.8077 10.5522 11.8077 11.3677C11.8077 12.1831 11.2511 12.6128 10.1915 12.6128H8.54112Z" fill="#46AC34"/>
</svg>
