<svg width="72" height="72" viewBox="0 0 72 72" fill="none" xmlns="http://www.w3.org/2000/svg">
<path d="M55.2 16.8L53.1 18.9M9 36H12H9ZM36 9V12V9ZM60 36H63H60ZM16.8 16.8L18.9 18.9L16.8 16.8Z" stroke="#8FC055" stroke-width="2.5" stroke-linecap="round" stroke-linejoin="round"/>
<path d="M27 48C24.4814 46.1111 22.621 43.4775 21.6823 40.4725C20.7436 37.4675 20.7742 34.2433 21.7698 31.2566C22.7653 28.2699 24.6754 25.6722 27.2293 23.8314C29.7833 21.9906 32.8518 21 36 21C39.1482 21 42.2167 21.9906 44.7707 23.8314C47.3246 25.6722 49.2347 28.2699 50.2302 31.2566C51.2258 34.2433 51.2564 37.4675 50.3177 40.4725C49.379 43.4775 47.5186 46.1111 45 48C43.8287 49.1594 42.9468 50.5783 42.4256 52.1419C41.9044 53.7054 41.7586 55.3697 42 57C42 58.5913 41.3679 60.1174 40.2426 61.2426C39.1174 62.3679 37.5913 63 36 63C34.4087 63 32.8826 62.3679 31.7574 61.2426C30.6321 60.1174 30 58.5913 30 57C30.2414 55.3697 30.0956 53.7054 29.5744 52.1419C29.0532 50.5783 28.1713 49.1594 27 48" stroke="#252525" stroke-width="2.5" stroke-linecap="round" stroke-linejoin="round"/>
<path d="M29.0996 51H42.8996" stroke="#252525" stroke-width="2.5" stroke-linecap="round" stroke-linejoin="round"/>
</svg>
