<svg width="30" height="30" viewBox="0 0 30 30" fill="none" xmlns="http://www.w3.org/2000/svg">
<path d="M26.2499 18.75V23.6625C26.2537 24.0237 26.1792 24.3814 26.0315 24.711C25.8839 25.0406 25.6666 25.3344 25.3945 25.5719C25.1225 25.8095 24.8022 25.9854 24.4557 26.0873C24.1092 26.1893 23.7447 26.2149 23.3874 26.1625C18.4336 25.5262 13.8323 23.2597 10.3086 19.7201C6.78486 16.1805 4.53899 11.5691 3.92486 6.61254C3.87264 6.25623 3.89801 5.89284 3.99924 5.54724C4.10048 5.20164 4.27518 4.88199 4.51139 4.61017C4.74761 4.33834 5.03976 4.12076 5.36786 3.9723C5.69595 3.82385 6.05225 3.74803 6.41236 3.75004H11.2499C11.5589 3.74816 11.8576 3.86082 12.0885 4.06627C12.3193 4.27172 12.4659 4.55539 12.4999 4.86254C12.6239 6.50076 13.0476 8.10229 13.7499 9.58754C13.8703 9.86882 13.8834 10.1845 13.7866 10.4748C13.6898 10.7651 13.49 11.0098 13.2249 11.1625L12.1499 11.775C11.9949 11.8603 11.8598 11.9774 11.7535 12.1187C11.6471 12.26 11.572 12.4222 11.533 12.5947C11.494 12.7672 11.4921 12.946 11.5273 13.1193C11.5625 13.2926 11.6341 13.4565 11.7374 13.6C12.974 15.4115 14.5384 16.9759 16.3499 18.2125C16.4934 18.3158 16.6573 18.3874 16.8306 18.4226C17.0039 18.4578 17.1827 18.4559 17.3552 18.4169C17.5277 18.3779 17.6899 18.3028 17.8312 18.1964C17.9725 18.0901 18.0896 17.955 18.1749 17.8L18.7874 16.725C18.9493 16.4565 19.2062 16.2585 19.5072 16.1706C19.8082 16.0826 20.1313 16.1109 20.4124 16.25C21.8976 16.9523 23.4991 17.376 25.1374 17.5C25.4445 17.534 25.7282 17.6806 25.9336 17.9114C26.1391 18.1423 26.2517 18.441 26.2499 18.75Z" stroke="#F1F1F1" stroke-width="2" stroke-linecap="round" stroke-linejoin="round"/>
</svg>
