<svg width="47" height="47" viewBox="0 0 47 47" fill="none" xmlns="http://www.w3.org/2000/svg">
<path d="M19.1035 21.7033L21.2294 19.4794L20.6736 17.4578H18.1586C18.1586 17.4578 17.5889 21.1256 21.6601 25.3423C25.7313 29.5589 29.2745 29.0102 29.2745 29.0102V26.3964L27.3292 25.8188L25.1894 28.0282M36.0551 25.3423C35.7349 27.364 34.9593 29.2784 33.7915 30.9292C32.6238 32.58 31.0971 33.9205 29.3359 34.8413C27.5747 35.7621 25.629 36.2372 23.6575 36.2276C21.6861 36.218 19.7447 35.7242 17.9919 34.7864L11.2112 36.2304L12.6007 29.1834C11.6939 27.3551 11.2176 25.3291 11.211 23.2721C11.2044 21.2151 11.6677 19.1859 12.5629 17.3513C13.458 15.5167 14.7593 13.9291 16.3599 12.719C17.9604 11.509 19.8145 10.711 21.7696 10.3908C23.7248 10.0707 25.7251 10.2373 27.6062 10.8772C29.4872 11.517 31.1953 12.6118 32.5899 14.0714C33.9845 15.531 35.0258 17.3138 35.6283 19.2732C36.2307 21.2326 36.377 23.3127 36.0551 25.3423V25.3423Z" stroke="#525252" stroke-width="2" stroke-linecap="round" stroke-linejoin="round"/>
<rect x="1" y="1" width="44.5714" height="44.5714" rx="1" stroke="url(#paint0_linear_2456_19307)" stroke-width="2"/>
<defs>
<linearGradient id="paint0_linear_2456_19307" x1="8.67461e-08" y1="46.5714" x2="47.5787" y2="45.5185" gradientUnits="userSpaceOnUse">
<stop stop-color="#95C11F"/>
<stop offset="0.208333" stop-color="#77B82A"/>
<stop offset="0.59375" stop-color="#46AC34"/>
<stop offset="0.791667" stop-color="#3EAB35"/>
<stop offset="1" stop-color="#3AAA35"/>
</linearGradient>
</defs>
</svg>
