<svg width="102" height="98" viewBox="0 0 102 98" fill="none" xmlns="http://www.w3.org/2000/svg">
<path d="M24.3216 85.1207C28.7988 85.1207 32.4283 81.4912 32.4283 77.014C32.4283 72.5367 28.7988 68.9072 24.3216 68.9072C19.8444 68.9072 16.2148 72.5367 16.2148 77.014C16.2148 81.4912 19.8444 85.1207 24.3216 85.1207Z" stroke="#252525" stroke-width="3" stroke-linecap="round" stroke-linejoin="round"/>
<path d="M68.9075 85.1207C73.3847 85.1207 77.0143 81.4912 77.0143 77.014C77.0143 72.5367 73.3847 68.9072 68.9075 68.9072C64.4303 68.9072 60.8008 72.5367 60.8008 77.014C60.8008 81.4912 64.4303 85.1207 68.9075 85.1207Z" stroke="#252525" stroke-width="3" stroke-linecap="round" stroke-linejoin="round"/>
<path d="M68.9086 68.9063H24.3216V12.1592H16.2148" stroke="#252525" stroke-width="3" stroke-linecap="round" stroke-linejoin="round"/>
<path d="M78.753 40.5385L77.0141 52.6945H24.3203M24.3203 20.2676L56.7432 22.5821L24.3203 20.2676Z" stroke="#252525" stroke-width="3" stroke-linecap="round" stroke-linejoin="round"/>
<path d="M64.6914 29.6678H68.8747C70.2777 29.6677 71.66 29.3293 72.9043 28.6813C74.1487 28.0333 75.2185 27.0948 76.023 25.9453L76.3319 25.5038M82.7193 16.3816L83.0282 15.9383C83.8327 14.7889 84.9025 13.8504 86.1469 13.2024C87.3913 12.5543 88.7736 12.2159 90.1766 12.2158H96.105" stroke="#46AC34" stroke-width="3" stroke-linecap="round" stroke-linejoin="round"/>
<path d="M90.8672 6.98047L96.1028 12.2161L90.8672 17.4517" stroke="#46AC34" stroke-width="3" stroke-linecap="round" stroke-linejoin="round"/>
<path d="M64.6914 12.2158H68.8747C70.2777 12.2159 71.66 12.5543 72.9043 13.2024C74.1487 13.8504 75.2185 14.7889 76.023 15.9383L83.0282 25.9453C83.8327 27.0948 84.9025 28.0333 86.1469 28.6813C87.3913 29.3293 88.7736 29.6677 90.1766 29.6678H96.105" stroke="#46AC34" stroke-width="3" stroke-linecap="round" stroke-linejoin="round"/>
<path d="M90.8672 34.9048L96.1028 29.6692L90.8672 24.4336" stroke="#46AC34" stroke-width="3" stroke-linecap="round" stroke-linejoin="round"/>
</svg>
