<svg width="136" height="136" viewBox="0 0 136 136" fill="none" xmlns="http://www.w3.org/2000/svg">
<circle cx="67.8822" cy="67.8823" r="48" transform="rotate(-45 67.8822 67.8823)" fill="url(#paint0_linear_1287_1421)"/>
<path d="M88.4709 69.7573C88.851 70.8323 88.9675 71.9828 88.8107 73.1121C88.6539 74.2415 88.2284 75.3167 87.5699 76.2475C86.9113 77.1783 86.039 77.9374 85.0263 78.4612C84.0135 78.9849 82.8898 79.2579 81.7497 79.2573H53.2497C52.0855 79.2726 50.9354 79.0024 49.8999 78.4703C48.8643 77.9382 47.975 77.1604 47.3096 76.2051C46.6442 75.2497 46.2231 74.1459 46.083 72.9901C45.9429 71.8343 46.0882 70.6619 46.5062 69.5752C46.9241 68.4886 47.6019 67.5209 48.4804 66.7569C49.3588 65.9929 50.4111 65.4557 51.5452 65.1925C52.6793 64.9292 53.8606 64.9479 54.9858 65.2468C56.111 65.5458 57.1458 66.1159 57.9997 66.9073C58.1224 63.8409 59.4275 60.9411 61.6413 58.8159C63.8552 56.6906 66.8058 55.5049 69.8747 55.5073C71.5102 55.5051 73.1282 55.8449 74.6247 56.5048" stroke="#252525" stroke-width="2" stroke-linecap="round" stroke-linejoin="round"/>
<path d="M69.875 65.0073L74.625 69.7573L86.5 57.8823" stroke="#252525" stroke-width="2" stroke-linecap="round" stroke-linejoin="round"/>
<defs>
<linearGradient id="paint0_linear_1287_1421" x1="67.8822" y1="19.8823" x2="96.1899" y2="115.882" gradientUnits="userSpaceOnUse">
<stop stop-color="#A7CD7E"/>
<stop offset="1" stop-color="#7BCD25" stop-opacity="0"/>
</linearGradient>
</defs>
</svg>
