<svg width="72" height="72" viewBox="0 0 72 72" fill="none" xmlns="http://www.w3.org/2000/svg">
<ellipse cx="36" cy="36" rx="25.4558" ry="25.4558" transform="rotate(-45 36 36)" fill="url(#paint0_linear_2345_19582)"/>
<path d="M47.1355 28.8408H24.8617C23.1043 28.8408 21.6797 30.2654 21.6797 32.0228V46.3417C21.6797 48.0991 23.1043 49.5237 24.8617 49.5237H47.1355C48.8929 49.5237 50.3175 48.0991 50.3175 46.3417V32.0228C50.3175 30.2654 48.8929 28.8408 47.1355 28.8408Z" stroke="#252525" stroke-width="1.30188" stroke-linecap="round" stroke-linejoin="round"/>
<path d="M29.625 28.8425V25.6605C29.625 24.8166 29.9602 24.0072 30.557 23.4105C31.1537 22.8138 31.9631 22.4785 32.807 22.4785H39.1709C40.0149 22.4785 40.8242 22.8138 41.4209 23.4105C42.0177 24.0072 42.3529 24.8166 42.3529 25.6605V28.8425" stroke="#252525" stroke-width="1.30188" stroke-linecap="round" stroke-linejoin="round"/>
<path d="M42.1836 36.6807H33.3457C32.3695 36.6807 31.5781 37.4269 31.5781 38.3474V43.3476C31.5781 44.2681 32.3695 45.0143 33.3457 45.0143H42.1836C43.1598 45.0143 43.9512 44.2681 43.9512 43.3476V38.3474C43.9512 37.4269 43.1598 36.6807 42.1836 36.6807Z" stroke="#252525" stroke-width="1.30188" stroke-linecap="round" stroke-linejoin="round"/>
<path d="M37.752 42.5151C38.7282 42.5151 39.5195 41.7689 39.5195 40.8484C39.5195 39.9279 38.7282 39.1816 37.752 39.1816C36.7757 39.1816 35.9844 39.9279 35.9844 40.8484C35.9844 41.7689 36.7757 42.5151 37.752 42.5151Z" stroke="#252525" stroke-width="1.30188" stroke-linecap="round" stroke-linejoin="round"/>
<path d="M40.4121 36.6811V35.0144C40.4121 34.5723 40.2259 34.1484 39.8944 33.8358C39.5629 33.5233 39.1133 33.3477 38.6445 33.3477H29.8066C29.3378 33.3477 28.8883 33.5233 28.5568 33.8358C28.2253 34.1484 28.0391 34.5723 28.0391 35.0144V40.0146C28.0391 40.4566 28.2253 40.8806 28.5568 41.1931C28.8883 41.5057 29.3378 41.6813 29.8066 41.6813H31.5742" stroke="#252525" stroke-width="1.30188" stroke-linecap="round" stroke-linejoin="round"/>
<defs>
<linearGradient id="paint0_linear_2345_19582" x1="36" y1="10.5442" x2="51.0124" y2="61.4558" gradientUnits="userSpaceOnUse">
<stop stop-color="#A7CD7E"/>
<stop offset="1" stop-color="#7BCD25" stop-opacity="0"/>
</linearGradient>
</defs>
</svg>
