<svg width="90" height="90" viewBox="0 0 90 90" fill="none" xmlns="http://www.w3.org/2000/svg">
<path d="M33.7422 41.248C42.0265 41.248 48.7422 34.5323 48.7422 26.248C48.7422 17.9638 42.0265 11.248 33.7422 11.248C25.4579 11.248 18.7422 17.9638 18.7422 26.248C18.7422 34.5323 25.4579 41.248 33.7422 41.248Z" stroke="#F1F1F1" stroke-width="3" stroke-linecap="round" stroke-linejoin="round"/>
<path d="M11.25 78.748V71.248C11.25 67.2698 12.8304 63.4545 15.6434 60.6414C18.4564 57.8284 22.2718 56.248 26.25 56.248H41.25C45.2282 56.248 49.0436 57.8284 51.8566 60.6414C54.6696 63.4545 56.25 67.2698 56.25 71.248V78.748" stroke="#F1F1F1" stroke-width="3" stroke-linecap="round" stroke-linejoin="round"/>
<path d="M60 41.25L67.5 48.75L82.5 33.75" stroke="#46AC34" stroke-width="3" stroke-linecap="round" stroke-linejoin="round"/>
</svg>
