<svg width="66" height="125" viewBox="0 0 66 125" fill="none" xmlns="http://www.w3.org/2000/svg">
<path d="M19.1699 49.2979C15.7527 49.2979 12.4754 47.9994 10.059 45.6881C7.64266 43.3768 6.28516 40.242 6.28516 36.9733C6.28516 33.7046 7.64266 30.5698 10.059 28.2585C12.4754 25.9472 15.7527 24.6488 19.1699 24.6488C19.977 21.0532 22.3381 17.8935 25.7337 15.8647C27.415 14.8601 29.2998 14.1634 31.2803 13.8144C33.2608 13.4654 35.2983 13.4709 37.2764 13.8305C39.2545 14.1902 41.1346 14.897 42.8093 15.9106C44.4839 16.9242 45.9203 18.2247 47.0365 19.7379C48.1527 21.2511 48.9268 22.9474 49.3146 24.7298C49.7024 26.5123 49.6963 28.346 49.2967 30.1263H52.0355C54.5778 30.1263 57.0159 31.1363 58.8136 32.934C60.6113 34.7316 61.6212 37.1698 61.6212 39.7121C61.6212 42.2544 60.6113 44.6926 58.8136 46.4903C57.0159 48.288 54.5778 49.2979 52.0355 49.2979H49.2967" stroke="#252525" stroke-width="3" stroke-linecap="round" stroke-linejoin="round"/>
<path d="M24.6484 49.2983L32.8648 57.5146L41.0812 49.2983" stroke="#46AC34" stroke-width="3" stroke-linecap="round" stroke-linejoin="round"/>
<path d="M32.8633 32.8652V57.5144" stroke="#46AC34" stroke-width="3" stroke-linecap="round" stroke-linejoin="round"/>
<path d="M54.777 80.3389H38.3443C36.8317 80.3389 35.6055 81.5651 35.6055 83.0777V110.466C35.6055 111.978 36.8317 113.204 38.3443 113.204H54.777C56.2896 113.204 57.5158 111.978 57.5158 110.466V83.0777C57.5158 81.5651 56.2896 80.3389 54.777 80.3389Z" stroke="#252525" stroke-width="3" stroke-linecap="round" stroke-linejoin="round"/>
<path d="M49.2967 80.339V72.1226C49.2967 71.3962 49.0082 70.6996 48.4946 70.186C47.9809 69.6723 47.2843 69.3838 46.5579 69.3838H10.9536C10.2273 69.3838 9.53064 69.6723 9.01702 70.186C8.50339 70.6996 8.21484 71.3962 8.21484 72.1226V104.988C8.21484 105.714 8.50339 106.411 9.01702 106.925C9.53064 107.438 10.2273 107.727 10.9536 107.727H35.6028" stroke="#252525" stroke-width="3" stroke-linecap="round" stroke-linejoin="round"/>
<path d="M43.8203 83.0771H49.2979" stroke="#252525" stroke-width="3" stroke-linecap="round" stroke-linejoin="round"/>
</svg>
