<svg width="92" height="114" viewBox="0 0 92 114" fill="none" xmlns="http://www.w3.org/2000/svg">
<path d="M11.5 97.9053H80.5" stroke="#252525" stroke-width="3" stroke-linecap="round" stroke-linejoin="round"/>
<path d="M11.5 44.707V48.507C11.5 51.5305 12.7116 54.4301 14.8683 56.568C17.0249 58.706 19.95 59.907 23 59.907C26.05 59.907 28.9751 58.706 31.1317 56.568C33.2884 54.4301 34.5 47.7305 34.5 44.707M11.5 44.707H34.5M11.5 44.707H80.5V48.507C80.5 51.5305 79.2884 54.4301 77.1317 56.568C74.9751 58.706 72.05 59.907 69 59.907C65.95 59.907 63.0249 58.706 60.8683 56.568C58.7116 54.4301 57.5 47.7305 57.5 44.707M34.5 44.707C34.5 47.7305 35.7116 54.4301 37.8683 56.568C40.0249 58.706 42.95 59.907 46 59.907C49.05 59.907 51.9751 58.706 54.1317 56.568C56.2884 54.4301 57.5 47.7305 57.5 44.707M34.5 44.707H57.5" stroke="#252525" stroke-width="3" stroke-linecap="round" stroke-linejoin="round"/>
<path d="M19.1641 97.9069V59.3369" stroke="#252525" stroke-width="3" stroke-linecap="round" stroke-linejoin="round"/>
<path d="M72.8398 97.9069V59.3369" stroke="#252525" stroke-width="3" stroke-linecap="round" stroke-linejoin="round"/>
<path d="M34.5 97.9064V82.7064C34.5 80.6908 35.3077 78.7577 36.7455 77.3324C38.1833 75.9072 40.1333 75.1064 42.1667 75.1064H49.8333C51.8667 75.1064 53.8167 75.9072 55.2545 77.3324C56.6923 78.7577 57.5 80.6908 57.5 82.7064V97.9064" stroke="#252525" stroke-width="3" stroke-linecap="round" stroke-linejoin="round"/>
<path d="M47.2782 12.666L53.5251 22.166L61.3338 15.8327L58.2103 31.666H36.3461L33.2227 15.8327L41.0313 22.166L47.2782 12.666Z" stroke="#46AC34" stroke-width="3" stroke-linecap="round" stroke-linejoin="round"/>
</svg>
