<svg width="19" height="13" viewBox="0 0 19 13" fill="none" xmlns="http://www.w3.org/2000/svg">
<path d="M18 6.5C18 6.5 15.1667 12 9.5 12C3.83333 12 1 6.5 1 6.5C1 6.5 3.83333 1 9.5 1C15.1667 1 18 6.5 18 6.5ZM9.5 8.33333C9.87359 8.33333 10.2388 8.22581 10.5494 8.02436C10.86 7.82291 11.1021 7.53658 11.2451 7.20159C11.3881 6.86659 11.4255 6.49797 11.3526 6.14233C11.2797 5.7867 11.0998 5.46003 10.8356 5.20364C10.5715 4.94724 10.2349 4.77263 9.8685 4.70189C9.5021 4.63115 9.1223 4.66746 8.77715 4.80622C8.432 4.94498 8.137 5.17996 7.92945 5.48145C7.72189 5.78294 7.61111 6.1374 7.61111 6.5C7.61111 6.98623 7.81012 7.45255 8.16435 7.79636C8.51859 8.14018 8.99904 8.33333 9.5 8.33333Z" stroke="#C4C4C4" stroke-width="2" stroke-linecap="round" stroke-linejoin="round"/>
</svg>
