<svg width="65" height="65" viewBox="0 0 65 65" fill="none" xmlns="http://www.w3.org/2000/svg">
<path d="M37.918 8.125V18.9583C37.918 19.6766 38.2033 20.3655 38.7112 20.8734C39.2191 21.3813 39.908 21.6667 40.6263 21.6667H51.4596" stroke="#252525" stroke-width="2" stroke-linecap="round" stroke-linejoin="round"/>
<path d="M46.043 56.875H18.9596C17.523 56.875 16.1453 56.3043 15.1295 55.2885C14.1137 54.2727 13.543 52.8949 13.543 51.4583V13.5417C13.543 12.1051 14.1137 10.7273 15.1295 9.7115C16.1453 8.69568 17.523 8.125 18.9596 8.125H37.918L51.4596 21.6667V51.4583C51.4596 52.8949 50.889 54.2727 49.8731 55.2885C48.8573 56.3043 47.4796 56.875 46.043 56.875Z" stroke="#252525" stroke-width="2" stroke-linecap="round" stroke-linejoin="round"/>
<path d="M28.8928 36.1111L24.3789 41.5278L28.8928 46.9444" stroke="#8FC055" stroke-width="2" stroke-linecap="round" stroke-linejoin="round"/>
<path d="M36.1133 36.1111L40.6272 41.5278L36.1133 46.9444" stroke="#8FC055" stroke-width="2" stroke-linecap="round" stroke-linejoin="round"/>
</svg>
