<svg width="40" height="40" viewBox="0 0 40 40" fill="none" xmlns="http://www.w3.org/2000/svg">
<rect x="0.5" y="0.5" width="39" height="39" rx="1.5" stroke="url(#paint0_linear_1970_13311)"/>
<path d="M6.66797 10H20.0013" stroke="#525252" stroke-linecap="round" stroke-linejoin="round"/>
<path d="M26.668 10H33.3346" stroke="#525252" stroke-linecap="round" stroke-linejoin="round"/>
<path d="M6.66797 20H10.0013" stroke="#525252" stroke-linecap="round" stroke-linejoin="round"/>
<path d="M16.668 20H33.3346" stroke="#525252" stroke-linecap="round" stroke-linejoin="round"/>
<path d="M6.66797 30H25.0013" stroke="#525252" stroke-linecap="round" stroke-linejoin="round"/>
<path d="M31.668 30H33.3346" stroke="#525252" stroke-linecap="round" stroke-linejoin="round"/>
<path d="M23.3333 13.3334C25.1743 13.3334 26.6667 11.841 26.6667 10.0001C26.6667 8.15913 25.1743 6.66675 23.3333 6.66675C21.4924 6.66675 20 8.15913 20 10.0001C20 11.841 21.4924 13.3334 23.3333 13.3334Z" stroke="#8FC055" stroke-linecap="round" stroke-linejoin="round"/>
<path d="M13.3333 23.3334C15.1743 23.3334 16.6667 21.841 16.6667 20.0001C16.6667 18.1591 15.1743 16.6667 13.3333 16.6667C11.4924 16.6667 10 18.1591 10 20.0001C10 21.841 11.4924 23.3334 13.3333 23.3334Z" stroke="#8FC055" stroke-linecap="round" stroke-linejoin="round"/>
<path d="M28.3333 33.3334C30.1743 33.3334 31.6667 31.841 31.6667 30.0001C31.6667 28.1591 30.1743 26.6667 28.3333 26.6667C26.4924 26.6667 25 28.1591 25 30.0001C25 31.841 26.4924 33.3334 28.3333 33.3334Z" stroke="#8FC055" stroke-linecap="round" stroke-linejoin="round"/>
<defs>
<linearGradient id="paint0_linear_1970_13311" x1="7.45058e-08" y1="40" x2="40.8652" y2="39.0957" gradientUnits="userSpaceOnUse">
<stop stop-color="#95C11F"/>
<stop offset="0.208333" stop-color="#77B82A"/>
<stop offset="0.59375" stop-color="#46AC34"/>
<stop offset="0.791667" stop-color="#3EAB35"/>
<stop offset="1" stop-color="#3AAA35"/>
</linearGradient>
</defs>
</svg>
