<svg width="54" height="54" viewBox="0 0 54 54" fill="none" xmlns="http://www.w3.org/2000/svg">
<rect x="1" y="1" width="52" height="52" rx="1" stroke="url(#paint0_linear_1970_13154)" stroke-width="2"/>
<path d="M9 13.5H27" stroke="#525252" stroke-width="2" stroke-linecap="round" stroke-linejoin="round"/>
<path d="M36 13.5H45" stroke="#525252" stroke-width="2" stroke-linecap="round" stroke-linejoin="round"/>
<path d="M9 27H13.5" stroke="#525252" stroke-width="2" stroke-linecap="round" stroke-linejoin="round"/>
<path d="M22.5 27H45" stroke="#525252" stroke-width="2" stroke-linecap="round" stroke-linejoin="round"/>
<path d="M9 40.5H33.75" stroke="#525252" stroke-width="2" stroke-linecap="round" stroke-linejoin="round"/>
<path d="M42.75 40.5H45" stroke="#525252" stroke-width="2" stroke-linecap="round" stroke-linejoin="round"/>
<path d="M31.5 18C33.9853 18 36 15.9853 36 13.5C36 11.0147 33.9853 9 31.5 9C29.0147 9 27 11.0147 27 13.5C27 15.9853 29.0147 18 31.5 18Z" stroke="#8FC055" stroke-width="2" stroke-linecap="round" stroke-linejoin="round"/>
<path d="M18 31.5C20.4853 31.5 22.5 29.4853 22.5 27C22.5 24.5147 20.4853 22.5 18 22.5C15.5147 22.5 13.5 24.5147 13.5 27C13.5 29.4853 15.5147 31.5 18 31.5Z" stroke="#8FC055" stroke-width="2" stroke-linecap="round" stroke-linejoin="round"/>
<path d="M38.25 45C40.7353 45 42.75 42.9853 42.75 40.5C42.75 38.0147 40.7353 36 38.25 36C35.7647 36 33.75 38.0147 33.75 40.5C33.75 42.9853 35.7647 45 38.25 45Z" stroke="#8FC055" stroke-width="2" stroke-linecap="round" stroke-linejoin="round"/>
<defs>
<linearGradient id="paint0_linear_1970_13154" x1="1.00583e-07" y1="54" x2="55.168" y2="52.7792" gradientUnits="userSpaceOnUse">
<stop stop-color="#95C11F"/>
<stop offset="0.208333" stop-color="#77B82A"/>
<stop offset="0.59375" stop-color="#46AC34"/>
<stop offset="0.791667" stop-color="#3EAB35"/>
<stop offset="1" stop-color="#3AAA35"/>
</linearGradient>
</defs>
</svg>
