<svg width="58" height="105" viewBox="0 0 58 105" fill="none" xmlns="http://www.w3.org/2000/svg">
<path d="M32.5998 46.7334H27.7816C27.0148 46.7334 26.2795 47.038 25.7374 47.5801C25.1952 48.1223 24.8906 48.8576 24.8906 49.6243C24.8906 50.3911 25.1952 51.1264 25.7374 51.6686C26.2795 52.2107 27.0148 52.5153 27.7816 52.5153H29.7089C30.4756 52.5153 31.2109 52.8199 31.7531 53.362C32.2952 53.9042 32.5998 54.6395 32.5998 55.4062C32.5998 56.173 32.2952 56.9083 31.7531 57.4505C31.2109 57.9926 30.4756 58.2972 29.7089 58.2972H24.8906" stroke="#46AC34" stroke-width="3" stroke-linecap="round" stroke-linejoin="round"/>
<path d="M28.7461 44.8057V46.733M28.7461 58.2968V60.2241V58.2968Z" stroke="#46AC34" stroke-width="3" stroke-linecap="round" stroke-linejoin="round"/>
<path d="M25.5159 37.7082C26.3369 34.3238 31.1513 34.3238 31.9724 37.7082C32.0955 38.2166 32.337 38.6887 32.6772 39.0862C33.0173 39.4836 33.4465 39.7952 33.9298 39.9954C34.4131 40.1956 34.9369 40.2789 35.4584 40.2385C35.98 40.198 36.4846 40.035 36.9313 39.7627C39.9051 37.951 43.3107 41.3546 41.499 44.3304C41.227 44.7768 41.0643 45.2812 41.0239 45.8024C40.9836 46.3236 41.0668 46.847 41.2668 47.33C41.4668 47.813 41.7779 48.242 42.1749 48.5821C42.5719 48.9222 43.0436 49.1639 43.5516 49.2874C46.9359 50.1084 46.9359 54.9228 43.5516 55.7438C43.0431 55.867 42.571 56.1085 42.1735 56.4487C41.7761 56.7888 41.4646 57.218 41.2644 57.7013C41.0641 58.1846 40.9808 58.7083 41.0213 59.2299C41.0617 59.7515 41.2247 60.2561 41.4971 60.7028C43.3087 63.6766 39.9051 67.0821 36.9294 65.2705C36.4829 64.9985 35.9786 64.8358 35.4573 64.7954C34.9361 64.7551 34.4128 64.8383 33.9298 65.0383C33.4468 65.2383 33.0178 65.5494 32.6776 65.9464C32.3375 66.3434 32.0959 66.8151 31.9724 67.3231C31.1513 70.7074 26.3369 70.7074 25.5159 67.3231C25.3927 66.8146 25.1512 66.3425 24.8111 65.945C24.4709 65.5476 24.0417 65.2361 23.5584 65.0358C23.0751 64.8356 22.5514 64.7523 22.0298 64.7928C21.5083 64.8332 21.0036 64.9962 20.557 65.2685C17.5831 67.0802 14.1776 63.6766 15.9893 60.7008C16.2612 60.2544 16.424 59.75 16.4643 59.2288C16.5047 58.7076 16.4214 58.1842 16.2214 57.7012C16.0215 57.2182 15.7103 56.7892 15.3133 56.4491C14.9163 56.109 14.4447 55.8674 13.9367 55.7438C10.5524 54.9228 10.5524 50.1084 13.9367 49.2874C14.4451 49.1642 14.9173 48.9227 15.3147 48.5826C15.7122 48.2424 16.0237 47.8132 16.2239 47.3299C16.4241 46.8466 16.5074 46.3229 16.467 45.8013C16.4265 45.2797 16.2635 44.7751 15.9912 44.3284C14.1795 41.3546 17.5831 37.9491 20.5589 39.7607C22.4862 40.9325 24.984 39.8957 25.5159 37.7082Z" stroke="#252525" stroke-width="3" stroke-linecap="round" stroke-linejoin="round"/>
<path d="M50.9559 2H7.43955C4.43537 2 2 4.82707 2 8.31444V96.7166C2 100.204 4.43537 103.031 7.43955 103.031H50.9559C53.9601 103.031 56.3955 100.204 56.3955 96.7166V8.31444C56.3955 4.82707 53.9601 2 50.9559 2Z" stroke="#252525" stroke-width="3" stroke-linecap="round" stroke-linejoin="round"/>
<path d="M23.7617 8.31348H34.6408" stroke="#252525" stroke-width="3" stroke-linecap="round" stroke-linejoin="round"/>
<path d="M29.1992 84.0869V84.1513" stroke="#252525" stroke-width="3" stroke-linecap="round" stroke-linejoin="round"/>
</svg>
