<svg width="72" height="73" viewBox="0 0 72 73" fill="none" xmlns="http://www.w3.org/2000/svg">
<ellipse cx="36" cy="36.998" rx="25.4558" ry="25.4558" transform="rotate(-45 36 36.998)" fill="url(#paint0_linear_2345_19592)"/>
<path d="M29.6374 24.2715H26.4554C24.6981 24.2715 23.2734 25.6961 23.2734 27.4535V29.0445C23.2734 30.8018 24.6981 32.2264 26.4554 32.2264H29.6374C31.3948 32.2264 32.8194 30.8018 32.8194 29.0445V27.4535C32.8194 25.6961 31.3948 24.2715 29.6374 24.2715Z" stroke="#252525" stroke-width="1.30188" stroke-linecap="round" stroke-linejoin="round"/>
<path d="M29.6374 38.5898H26.4554C24.6981 38.5898 23.2734 40.0145 23.2734 41.7718V46.5448C23.2734 48.3022 24.6981 49.7268 26.4554 49.7268H29.6374C31.3948 49.7268 32.8194 48.3022 32.8194 46.5448V41.7718C32.8194 40.0145 31.3948 38.5898 29.6374 38.5898Z" stroke="#252525" stroke-width="1.30188" stroke-linecap="round" stroke-linejoin="round"/>
<path d="M45.5436 24.2715H42.3617C40.6043 24.2715 39.1797 25.6961 39.1797 27.4535V32.2264C39.1797 33.9838 40.6043 35.4084 42.3617 35.4084H45.5436C47.301 35.4084 48.7256 33.9838 48.7256 32.2264V27.4535C48.7256 25.6961 47.301 24.2715 45.5436 24.2715Z" stroke="#252525" stroke-width="1.30188" stroke-linecap="round" stroke-linejoin="round"/>
<path d="M45.5436 41.7725H42.3617C40.6043 41.7725 39.1797 43.1971 39.1797 44.9544V46.5454C39.1797 48.3028 40.6043 49.7274 42.3617 49.7274H45.5436C47.301 49.7274 48.7256 48.3028 48.7256 46.5454V44.9544C48.7256 43.1971 47.301 41.7725 45.5436 41.7725Z" stroke="#252525" stroke-width="1.30188" stroke-linecap="round" stroke-linejoin="round"/>
<defs>
<linearGradient id="paint0_linear_2345_19592" x1="36" y1="11.5422" x2="51.0124" y2="62.4539" gradientUnits="userSpaceOnUse">
<stop stop-color="#A7CD7E"/>
<stop offset="1" stop-color="#7BCD25" stop-opacity="0"/>
</linearGradient>
</defs>
</svg>
