<svg width="20" height="20" viewBox="0 0 20 20" fill="none" xmlns="http://www.w3.org/2000/svg">
<path d="M7.49935 9.1663C9.3403 9.1663 10.8327 7.67392 10.8327 5.83297C10.8327 3.99202 9.3403 2.49963 7.49935 2.49963C5.6584 2.49963 4.16602 3.99202 4.16602 5.83297C4.16602 7.67392 5.6584 9.1663 7.49935 9.1663Z" stroke="#252525" stroke-linecap="round" stroke-linejoin="round"/>
<path d="M2.5 17.4996V15.833C2.5 14.9489 2.85119 14.1011 3.47631 13.4759C4.10143 12.8508 4.94928 12.4996 5.83333 12.4996H9.16667C10.0507 12.4996 10.8986 12.8508 11.5237 13.4759C12.1488 14.1011 12.5 14.9489 12.5 15.833V17.4996" stroke="#252525" stroke-linecap="round" stroke-linejoin="round"/>
<path d="M13.334 9.16667L15.0007 10.8333L18.334 7.5" stroke="#46AC34" stroke-linecap="round" stroke-linejoin="round"/>
</svg>
