<svg width="136" height="136" viewBox="0 0 136 136" fill="none" xmlns="http://www.w3.org/2000/svg">
<circle cx="67.8822" cy="67.8823" r="48" transform="rotate(-45 67.8822 67.8823)" fill="url(#paint0_linear_1287_1422)"/>
<path d="M71.9167 70.2311C70.4838 69.8023 68.9957 69.5865 67.5 69.5906H63.0833C58.9835 69.5906 55.0516 71.2193 52.1526 74.1183C49.2536 77.0173 47.625 80.9492 47.625 85.049C47.625 85.6347 47.8577 86.1964 48.2718 86.6105C48.6859 87.0246 49.2476 87.2573 49.8333 87.2573H74.125" stroke="#252525" stroke-width="2" stroke-linecap="round" stroke-linejoin="round"/>
<path d="M82.9583 74.0073V82.8407M76.3333 58.549C76.3333 60.7328 75.6858 62.8676 74.4725 64.6834C73.2592 66.4992 71.5347 67.9144 69.5171 68.7502C67.4995 69.5859 65.2794 69.8045 63.1376 69.3785C60.9957 68.9525 59.0282 67.9008 57.484 66.3566C55.9398 64.8124 54.8882 62.845 54.4622 60.7031C54.0361 58.5612 54.2548 56.3411 55.0905 54.3235C55.9262 52.3059 57.3415 50.5815 59.1573 49.3682C60.973 48.1549 63.1078 47.5073 65.2917 47.5073C68.2201 47.5073 71.0286 48.6706 73.0993 50.7414C75.17 52.8121 76.3333 55.6206 76.3333 58.549ZM78.5417 78.424H87.375H78.5417Z" stroke="#252525" stroke-width="2" stroke-linecap="round" stroke-linejoin="round"/>
<defs>
<linearGradient id="paint0_linear_1287_1422" x1="67.8822" y1="19.8823" x2="96.1899" y2="115.882" gradientUnits="userSpaceOnUse">
<stop stop-color="#A7CD7E"/>
<stop offset="1" stop-color="#7BCD25" stop-opacity="0"/>
</linearGradient>
</defs>
</svg>
