<svg width="35" height="35" viewBox="0 0 35 35" fill="none" xmlns="http://www.w3.org/2000/svg">
<path d="M23.332 5.8335H11.6654C8.4437 5.8335 5.83203 8.44517 5.83203 11.6668V23.3335C5.83203 26.5552 8.4437 29.1668 11.6654 29.1668H23.332C26.5537 29.1668 29.1654 26.5552 29.1654 23.3335V11.6668C29.1654 8.44517 26.5537 5.8335 23.332 5.8335Z" stroke="#F1F1F1" stroke-width="2.75" stroke-linecap="round" stroke-linejoin="round"/>
<path d="M17.5 21.875C19.9162 21.875 21.875 19.9162 21.875 17.5C21.875 15.0838 19.9162 13.125 17.5 13.125C15.0838 13.125 13.125 15.0838 13.125 17.5C13.125 19.9162 15.0838 21.875 17.5 21.875Z" stroke="#F1F1F1" stroke-width="2.75" stroke-linecap="round" stroke-linejoin="round"/>
<path d="M24.0625 10.9375V10.9385" stroke="#525252" stroke-width="2.75" stroke-linecap="round" stroke-linejoin="round"/>
</svg>
