<svg width="72" height="99" viewBox="0 0 72 99" fill="none" xmlns="http://www.w3.org/2000/svg">
<path d="M43.1695 26.9873H29.2965C28.0196 26.9873 26.9844 28.0225 26.9844 29.2995V43.1724C26.9844 44.4494 28.0196 45.4846 29.2965 45.4846H43.1695C44.4465 45.4846 45.4817 44.4494 45.4817 43.1724V29.2995C45.4817 28.0225 44.4465 26.9873 43.1695 26.9873Z" stroke="#46AC34" stroke-width="3" stroke-linecap="round" stroke-linejoin="round"/>
<path d="M15.4258 26.9873H17.7379" stroke="#252525" stroke-width="3" stroke-linecap="round" stroke-linejoin="round"/>
<path d="M15.4258 45.4834H17.7379" stroke="#252525" stroke-width="3" stroke-linecap="round" stroke-linejoin="round"/>
<path d="M26.9844 15.4258V17.7379" stroke="#252525" stroke-width="3" stroke-linecap="round" stroke-linejoin="round"/>
<path d="M45.4844 15.4258V17.7379" stroke="#252525" stroke-width="3" stroke-linecap="round" stroke-linejoin="round"/>
<path d="M54.7305 26.9873H57.0426" stroke="#252525" stroke-width="3" stroke-linecap="round" stroke-linejoin="round"/>
<path d="M54.7305 45.4834H57.0426" stroke="#252525" stroke-width="3" stroke-linecap="round" stroke-linejoin="round"/>
<path d="M26.9844 54.7324V57.0446" stroke="#252525" stroke-width="3" stroke-linecap="round" stroke-linejoin="round"/>
<path d="M45.4844 54.7324V57.0446" stroke="#252525" stroke-width="3" stroke-linecap="round" stroke-linejoin="round"/>
<path d="M15.694 63.2776C9.94572 58.9906 5.69965 53.0137 3.55722 46.1937C1.4148 39.3736 1.48463 32.0561 3.75682 25.2777C6.02902 18.4993 10.3884 12.6037 16.2174 8.4259C22.0464 4.24812 29.0496 2 36.2349 2C43.4202 2 50.4234 4.24812 56.2524 8.4259C62.0814 12.6037 66.4408 18.4993 68.713 25.2777C70.9852 32.0561 71.055 39.3736 68.9126 46.1937C66.7702 53.0137 62.5241 58.9906 56.7759 63.2776C54.1026 65.909 52.0898 69.1293 50.9003 72.6778C49.7108 76.2263 49.378 80.0034 49.9289 83.7035C49.9289 87.315 48.4861 90.7786 45.918 93.3323C43.3499 95.8861 39.8668 97.3207 36.2349 97.3207C32.603 97.3207 29.1199 95.8861 26.5518 93.3323C23.9837 90.7786 22.5409 87.315 22.5409 83.7035C23.0918 80.0034 22.7591 76.2263 21.5696 72.6778C20.3801 69.1293 18.3672 65.909 15.694 63.2776" stroke="#252525" stroke-width="3" stroke-linecap="round" stroke-linejoin="round"/>
<path d="M20.7969 70.4697H51.6754" stroke="#252525" stroke-width="3" stroke-linecap="round" stroke-linejoin="round"/>
</svg>
