<svg width="26" height="25" viewBox="0 0 26 25" fill="none" xmlns="http://www.w3.org/2000/svg">
<path d="M16.7783 19.4167C16.828 19.5355 16.853 19.6631 16.8519 19.7917C16.8519 20.9375 14.9713 21.875 12.6496 21.875C10.3278 21.875 8.4473 20.9375 8.4473 19.7917C8.44618 19.6631 8.47119 19.5355 8.52084 19.4167" stroke="#525252" stroke-width="1.5" stroke-linecap="round" stroke-linejoin="round"/>
<path d="M17.9022 8.33333C17.9022 6.952 17.3488 5.62724 16.3637 4.65049C15.3786 3.67373 14.0425 3.125 12.6493 3.125C11.2562 3.125 9.92011 3.67373 8.93501 4.65049C7.94991 5.62724 7.39648 6.952 7.39648 8.33333C7.39648 12.5 12.6493 17.7083 12.6493 17.7083C12.6493 17.7083 17.9022 12.5 17.9022 8.33333Z" stroke="#525252" stroke-width="1.5" stroke-linecap="round" stroke-linejoin="round"/>
<path d="M14.5263 8.85417C14.5263 9.87219 13.6922 10.7083 12.6499 10.7083C11.6075 10.7083 10.7734 9.87219 10.7734 8.85417C10.7734 7.83614 11.6075 7 12.6499 7C13.6922 7 14.5263 7.83614 14.5263 8.85417Z" stroke="#8FC055" stroke-width="1.5"/>
</svg>
