<svg width="21" height="27" viewBox="0 0 21 27" fill="none" xmlns="http://www.w3.org/2000/svg">
<path d="M18.8378 25.8299H2.39334C2.20121 25.8305 2.01104 25.7915 1.83486 25.7153C1.65868 25.639 1.50031 25.5273 1.36978 25.3871C1.23924 25.2468 1.13938 25.0812 1.07649 24.9007C1.01361 24.7201 0.989081 24.5285 1.00445 24.338L2.18501 9.14294C2.213 8.79606 2.37159 8.47246 2.62909 8.23685C2.88658 8.00123 3.22401 7.87096 3.57389 7.87208H17.6572C18.0071 7.87096 18.3445 8.00123 18.602 8.23685C18.8595 8.47246 19.0181 8.79606 19.0461 9.14294L20.2267 24.338C20.242 24.5285 20.2175 24.7201 20.1546 24.9007C20.0917 25.0812 19.9919 25.2468 19.8613 25.3871C19.7308 25.5273 19.5724 25.639 19.3963 25.7153C19.2201 25.7915 19.0299 25.8305 18.8378 25.8299V25.8299Z" stroke="#525252" stroke-width="1.5" stroke-linecap="round" stroke-linejoin="round"/>
<path d="M6.44922 12.0148V5.10798C6.44922 4.00889 6.8882 2.95482 7.66961 2.17765C8.45101 1.40048 9.51081 0.963867 10.6159 0.963867V0.963867C11.721 0.963867 12.7808 1.40048 13.5622 2.17765C14.3436 2.95482 14.7825 4.00889 14.7825 5.10798V12.0148" stroke="#525252" stroke-width="1.5" stroke-linecap="round" stroke-linejoin="round"/>
</svg>
