<svg width="1294" height="296" viewBox="0 0 1294 296" fill="none" xmlns="http://www.w3.org/2000/svg">
<path d="M675.5 1L1193 1V31.5V62M675.5 1L675 61M675.5 1L158 1V61" stroke="#C4C4C4"/>
<circle r="7" transform="matrix(0 1 1 0 675 61)" fill="#C4C4C4"/>
<circle r="7" transform="matrix(0 1 1 0 158 61)" fill="#C4C4C4"/>
<circle r="7" transform="matrix(0 1 1 0 1193 61)" fill="#C4C4C4"/>
<path d="M164.422 277.157V276.03H272.511V161.19H273.648V277.157H164.422Z" fill="#F1F1F1"/>
<path d="M267.628 239.617L241.809 284.546C241.378 285.297 241.15 286.149 241.15 287.016C241.15 287.883 241.378 288.735 241.809 289.486C242.241 290.237 242.862 290.861 243.609 291.294C244.357 291.728 245.205 291.956 246.068 291.956H297.706C298.569 291.956 299.417 291.728 300.165 291.294C300.912 290.861 301.533 290.237 301.965 289.486C302.396 288.735 302.623 287.883 302.624 287.016C302.624 286.149 302.396 285.297 301.965 284.546L276.145 239.617C275.714 238.866 275.093 238.243 274.345 237.809C273.598 237.376 272.75 237.147 271.887 237.147C271.024 237.147 270.176 237.376 269.428 237.809C268.681 238.243 268.06 238.866 267.628 239.617Z" fill="white"/>
<path d="M297.71 292.392H246.072C245.133 292.392 244.21 292.143 243.396 291.672C242.583 291.2 241.907 290.521 241.438 289.704C240.968 288.887 240.721 287.96 240.721 287.016C240.721 286.072 240.968 285.145 241.438 284.328L267.257 239.4C267.727 238.583 268.402 237.904 269.215 237.432C270.029 236.96 270.952 236.712 271.891 236.712C272.83 236.712 273.753 236.96 274.567 237.432C275.38 237.904 276.056 238.583 276.525 239.4L302.344 284.329C302.813 285.146 303.06 286.073 303.06 287.016C303.06 287.96 302.813 288.887 302.343 289.704C301.874 290.521 301.198 291.2 300.385 291.672C299.571 292.144 298.649 292.392 297.709 292.392L297.71 292.392ZM271.891 237.583C271.102 237.578 270.327 237.784 269.645 238.18C268.962 238.576 268.397 239.147 268.007 239.836L242.188 284.764C241.795 285.449 241.587 286.226 241.587 287.016C241.587 287.807 241.794 288.584 242.188 289.269C242.582 289.954 243.148 290.523 243.83 290.918C244.511 291.314 245.285 291.522 246.072 291.522H297.71C298.497 291.522 299.27 291.314 299.952 290.918C300.634 290.523 301.2 289.954 301.593 289.269C301.987 288.584 302.194 287.807 302.194 287.016C302.194 286.226 301.987 285.449 301.593 284.764L275.774 239.836C275.384 239.147 274.819 238.576 274.136 238.18C273.454 237.784 272.679 237.578 271.891 237.583Z" fill="black"/>
<path d="M268.464 278.7C268.491 278.024 268.715 277.372 269.108 276.823C269.502 276.275 270.047 275.855 270.676 275.615C271.305 275.375 271.991 275.327 272.647 275.475C273.304 275.624 273.902 275.963 274.369 276.451C274.835 276.938 275.148 277.553 275.269 278.218C275.39 278.883 275.314 279.569 275.051 280.191C274.787 280.813 274.347 281.343 273.786 281.716C273.224 282.089 272.566 282.287 271.893 282.287C271.431 282.287 270.973 282.193 270.548 282.011C270.123 281.828 269.739 281.562 269.419 281.227C269.098 280.892 268.849 280.495 268.685 280.061C268.52 279.627 268.445 279.164 268.464 278.7ZM269.237 260.963L269.045 255.804H274.741L274.55 260.963L273.758 272.839H270.028L269.237 260.963Z" fill="black"/>
<path d="M13.0314 270.566L13.0559 270.533L13.0749 270.497C13.4722 269.739 14.0709 269.103 14.8062 268.66C15.5415 268.216 16.3851 267.981 17.2453 267.981H183.096C183.956 267.981 184.8 268.216 185.535 268.66C186.27 269.103 186.869 269.739 187.266 270.497L187.285 270.533L187.31 270.566L199.151 286.293C199.967 287.879 200.094 290.202 199.352 292.126C198.618 294.031 197.057 295.5 194.483 295.5H5.85823C3.28407 295.5 1.7235 294.03 0.989582 292.124C0.248215 290.199 0.375759 287.877 1.18989 286.293L13.0314 270.566Z" fill="#737373" stroke="black"/>
<path d="M15.9141 256.519L15.9141 153.189C15.9141 149.468 18.9458 146.447 22.6907 146.447H177.656C181.401 146.447 184.432 149.468 184.432 153.189V256.519C184.432 260.24 181.401 263.261 177.656 263.261H22.6907C18.9458 263.261 15.9141 260.24 15.9141 256.519Z" fill="#737373" stroke="black"/>
<path d="M179.848 154.909V254.8C179.848 255.904 179.408 256.963 178.623 257.744C177.838 258.525 176.773 258.965 175.662 258.965H24.4124C23.8549 258.965 23.3029 258.856 22.788 258.643C22.2732 258.431 21.8055 258.12 21.4117 257.728C21.0178 257.336 20.7056 256.871 20.4926 256.359C20.2795 255.847 20.1699 255.299 20.1699 254.745V154.964C20.1699 154.41 20.2795 153.862 20.4926 153.35C20.7056 152.838 21.0178 152.373 21.4117 151.981C21.8055 151.589 22.2732 151.278 22.788 151.066C23.3029 150.853 23.8549 150.744 24.4124 150.744H175.662C176.773 150.744 177.838 151.183 178.623 151.965C179.408 152.746 179.848 153.805 179.848 154.909Z" fill="#EEF6E5" stroke="black"/>
<path d="M194.479 292.283H5.85461C4.96028 292.283 4.081 292.053 3.30173 291.617C2.52247 291.18 1.86954 290.551 1.40591 289.789C0.942288 289.028 0.683669 288.161 0.655015 287.271C0.626361 286.382 0.82865 285.5 1.24234 284.711L12.6284 266.546C13.0683 265.707 13.7309 265.004 14.5443 264.513C15.3577 264.022 16.2906 263.763 17.2417 263.763H183.092C184.043 263.763 184.976 264.022 185.79 264.513C186.603 265.004 187.266 265.707 187.706 266.546L199.092 284.711C199.505 285.5 199.708 286.382 199.679 287.271C199.65 288.161 199.392 289.028 198.928 289.789C198.464 290.551 197.811 291.18 197.032 291.617C196.253 292.053 195.374 292.283 194.479 292.283Z" fill="#ABABAB"/>
<path d="M5.8468 291.618H5.84676C5.03794 291.618 4.24285 291.41 3.53837 291.015C2.83391 290.621 2.24393 290.052 1.82512 289.364C1.40633 288.677 1.17282 287.894 1.14694 287.09C1.12127 286.293 1.30088 285.503 1.66868 284.794L13.0442 266.647L13.0545 266.63L13.0634 266.613C13.4608 265.855 14.0595 265.22 14.7948 264.776C15.5301 264.332 16.3737 264.098 17.2339 264.098H183.084C183.945 264.098 184.788 264.332 185.524 264.776C186.259 265.22 186.858 265.855 187.255 266.613L187.264 266.63L187.274 266.647L198.65 284.794C199.017 285.503 199.197 286.293 199.171 287.09C199.146 287.894 198.912 288.677 198.493 289.364C198.074 290.052 197.484 290.621 196.78 291.015C196.075 291.41 195.28 291.618 194.472 291.618H5.8468Z" fill="#C4C4C4" stroke="black"/>
<path d="M62.5652 227.023C62.3614 227.512 62.2231 228.027 62.1536 228.552L62.4015 228.585C62.3683 228.836 62.3515 229.089 62.3516 229.344C62.3516 229.598 62.3684 229.852 62.4017 230.103L62.1538 230.136C62.2234 230.661 62.3619 231.175 62.5657 231.665L62.7965 231.569C62.8938 231.802 63.0065 232.03 63.1344 232.25C63.2624 232.471 63.4044 232.682 63.5594 232.883L63.3614 233.036C63.6856 233.456 64.0638 233.833 64.4863 234.155L64.638 233.957C64.8395 234.11 65.0516 234.252 65.273 234.379C65.4947 234.506 65.7238 234.619 65.9589 234.715L65.8636 234.947C66.3555 235.149 66.872 235.287 67.3999 235.356L67.4324 235.108C67.6844 235.141 67.939 235.158 68.1949 235.158H69.1946V235.408H71.1941V235.158H73.1936V235.408H75.1931V235.158H77.1927V235.408H79.1922V235.158H81.1917V235.408H83.1912V235.158H85.1907V235.408H87.1902V235.158H89.1898V235.408H91.1893V235.158H93.1888V235.408H95.1883V235.158H97.1878V235.408H99.1873V235.158H101.187V235.408H103.186V235.158H105.186V235.408H107.185V235.158H109.185V235.408H111.184V235.158H113.184V235.408H115.183V235.158H117.183V235.408H119.182V235.158H121.182V235.408H123.182V235.158H125.181V235.408H127.181V235.158H129.18V235.408H131.18V235.158H132.179C132.435 235.158 132.69 235.141 132.942 235.108L132.974 235.356C133.502 235.287 134.019 235.149 134.511 234.947L134.415 234.715C134.65 234.619 134.879 234.506 135.101 234.379C135.323 234.252 135.535 234.11 135.736 233.957L135.888 234.155C136.31 233.833 136.689 233.456 137.013 233.036L136.815 232.883C136.97 232.682 137.112 232.471 137.24 232.25C137.368 232.03 137.48 231.802 137.578 231.569L137.808 231.665C138.012 231.175 138.151 230.661 138.22 230.136L137.973 230.103C138.006 229.852 138.023 229.598 138.023 229.344C138.023 229.089 138.006 228.836 137.973 228.585L138.221 228.552C138.151 228.027 138.013 227.512 137.809 227.023L137.578 227.119C137.481 226.885 137.368 226.657 137.241 226.437L136.741 225.575L136.957 225.45L135.957 223.726L135.741 223.852L134.741 222.128L134.957 222.003L133.958 220.28L133.741 220.405L132.741 218.682L132.958 218.556L131.958 216.833L131.742 216.958L130.742 215.235L130.958 215.109L129.958 213.386L129.742 213.511L128.742 211.788L128.959 211.662L127.959 209.939L127.743 210.064L126.743 208.341L126.959 208.215L125.959 206.492L125.743 206.617L124.743 204.894L124.959 204.769L123.96 203.045L123.743 203.171L122.744 201.447L122.96 201.322L121.96 199.598L121.744 199.724L120.744 198L120.96 197.875L119.96 196.151L119.744 196.277L118.744 194.553L118.961 194.428L117.961 192.704L117.745 192.83L116.745 191.106L116.961 190.981L115.961 189.258L115.745 189.383L114.745 187.66L114.962 187.534L113.962 185.811L113.745 185.936L112.746 184.213L112.962 184.087L111.962 182.364L111.746 182.489L110.746 180.766L110.962 180.64L109.963 178.917L109.746 179.042L108.747 177.319L108.963 177.193L107.963 175.47L107.747 175.596L106.747 173.872L106.963 173.747L105.963 172.023L105.747 172.149L105.247 171.287C105.119 171.066 104.977 170.855 104.822 170.654L105.02 170.501C104.696 170.081 104.318 169.705 103.895 169.382L103.744 169.581C103.542 169.427 103.33 169.286 103.109 169.159C102.887 169.032 102.658 168.919 102.423 168.822L102.518 168.591C102.026 168.389 101.51 168.251 100.982 168.182L100.95 168.43C100.698 168.397 100.443 168.38 100.187 168.38C99.9313 168.38 99.6766 168.397 99.4246 168.43L99.3922 168.182C98.8643 168.251 98.3478 168.389 97.856 168.591L97.9512 168.822C97.7162 168.919 97.4871 169.032 97.2654 169.159C97.044 169.286 96.8319 169.427 96.6304 169.581L96.4787 169.382C96.0563 169.705 95.6781 170.081 95.3539 170.501L95.5519 170.654C95.397 170.855 95.2549 171.066 95.1269 171.287L94.627 172.149L94.4108 172.023L93.411 173.747L93.6272 173.872L92.6274 175.596L92.4112 175.47L91.4114 177.194L91.6276 177.319L90.6279 179.042L90.4116 178.917L89.4118 180.64L89.6281 180.766L88.6283 182.489L88.412 182.364L87.4122 184.087L87.6285 184.213L86.6287 185.936L86.4124 185.811L85.4127 187.534L85.6289 187.66L84.6291 189.383L84.4129 189.258L83.4131 190.981L83.6293 191.106L82.6295 192.83L82.4133 192.704L81.4135 194.428L81.6297 194.553L80.6299 196.277L80.4137 196.151L79.4139 197.875L79.6302 198L78.6304 199.724L78.4141 199.598L77.4143 201.322L77.6306 201.447L76.6308 203.171L76.4145 203.045L75.4147 204.769L75.631 204.894L74.6312 206.617L74.415 206.492L73.4152 208.215L73.6314 208.341L72.6316 210.064L72.4154 209.939L71.4156 211.662L71.6318 211.788L70.632 213.511L70.4158 213.386L69.416 215.109L69.6323 215.235L68.6325 216.958L68.4162 216.833L67.4164 218.556L67.6327 218.682L66.6329 220.405L66.4166 220.28L65.4168 222.003L65.6331 222.128L64.6333 223.852L64.4171 223.726L63.4173 225.45L63.6335 225.575L63.1336 226.437C63.0059 226.657 62.8932 226.885 62.796 227.119L62.5652 227.023Z" fill="#B0D472" stroke="black" stroke-width="0.5" stroke-dasharray="2 2"/>
<path d="M95.9467 219.137C95.9803 218.307 96.2581 217.506 96.7456 216.832C97.2332 216.159 97.9089 215.643 98.6888 215.348C99.4687 215.054 100.318 214.994 101.132 215.177C101.946 215.359 102.687 215.776 103.265 216.374C103.843 216.973 104.231 217.727 104.382 218.544C104.532 219.361 104.438 220.203 104.111 220.967C103.784 221.73 103.239 222.382 102.543 222.839C101.847 223.297 101.031 223.541 100.197 223.541C99.6244 223.541 99.0575 223.425 98.5304 223.201C98.0034 222.978 97.5273 222.65 97.1304 222.239C96.7335 221.828 96.424 221.341 96.2206 220.808C96.0173 220.275 95.9241 219.707 95.9467 219.137ZM96.9056 197.364L96.6653 191.026H103.723L103.49 197.364L102.509 211.944H97.889L96.9056 197.364Z" fill="white"/>
<path d="M313.431 116.563H228.803V184.543H313.431V116.563Z" fill="white"/>
<path d="M313.424 185.103H228.796C228.644 185.103 228.497 185.044 228.389 184.939C228.281 184.833 228.221 184.691 228.221 184.542V116.562C228.221 116.413 228.281 116.27 228.389 116.165C228.497 116.059 228.644 116 228.796 116H313.424C313.577 116 313.723 116.059 313.831 116.165C313.939 116.27 314 116.413 314 116.562V184.542C314 184.691 313.939 184.833 313.831 184.939C313.723 185.044 313.577 185.103 313.424 185.103ZM229.372 183.98H312.848V117.123H229.372V183.98Z" fill="#252525"/>
<path d="M310.34 119.48H247.781V137.834H310.34V119.48Z" fill="#BDDFAC"/>
<g opacity="0.69">
<path opacity="0.69" d="M310.344 119.481H247.785V137.835H310.344V119.481Z" fill="white"/>
</g>
<path d="M310.341 138.14H247.783C247.741 138.14 247.701 138.132 247.662 138.117C247.624 138.102 247.59 138.079 247.561 138.051C247.532 138.023 247.508 137.989 247.493 137.952C247.477 137.915 247.469 137.875 247.469 137.835V119.479C247.469 119.439 247.477 119.399 247.492 119.362C247.508 119.325 247.531 119.291 247.56 119.262C247.59 119.234 247.624 119.211 247.662 119.196C247.7 119.181 247.741 119.173 247.783 119.173H310.341C310.424 119.173 310.504 119.205 310.563 119.263C310.622 119.32 310.655 119.398 310.655 119.479V137.835C310.655 137.875 310.647 137.915 310.631 137.952C310.615 137.989 310.592 138.023 310.563 138.051C310.534 138.079 310.499 138.102 310.461 138.117C310.423 138.132 310.382 138.14 310.341 138.14ZM248.099 137.529H310.027V119.787H248.099V137.529Z" fill="#252525"/>
<path d="M257.281 132.427C259.413 132.427 261.141 130.741 261.141 128.662C261.141 126.582 259.413 124.896 257.281 124.896C255.15 124.896 253.422 126.582 253.422 128.662C253.422 130.741 255.15 132.427 257.281 132.427Z" fill="white"/>
<path d="M257.279 132.729C256.453 132.729 255.646 132.49 254.96 132.043C254.274 131.595 253.739 130.959 253.423 130.215C253.107 129.471 253.025 128.653 253.186 127.863C253.347 127.073 253.744 126.348 254.328 125.778C254.911 125.209 255.655 124.821 256.465 124.664C257.274 124.507 258.113 124.588 258.876 124.896C259.638 125.204 260.29 125.726 260.749 126.395C261.207 127.065 261.452 127.852 261.452 128.657C261.451 129.737 261.011 130.772 260.228 131.535C259.446 132.298 258.385 132.727 257.279 132.729ZM257.279 125.199C256.577 125.199 255.892 125.402 255.309 125.782C254.726 126.162 254.271 126.702 254.003 127.334C253.734 127.966 253.664 128.662 253.801 129.333C253.938 130.004 254.276 130.62 254.772 131.104C255.268 131.588 255.899 131.917 256.587 132.051C257.275 132.184 257.988 132.115 258.636 131.854C259.284 131.592 259.838 131.148 260.227 130.579C260.617 130.01 260.825 129.341 260.824 128.657C260.823 127.74 260.449 126.861 259.785 126.213C259.12 125.564 258.219 125.2 257.279 125.199Z" fill="#252525"/>
<path d="M292.831 128.583H266.124C266.041 128.583 265.961 128.551 265.902 128.493C265.844 128.436 265.811 128.358 265.811 128.277C265.811 128.196 265.844 128.119 265.902 128.061C265.961 128.004 266.041 127.972 266.124 127.972H292.831C292.872 127.972 292.913 127.98 292.951 127.995C292.989 128.01 293.024 128.033 293.053 128.061C293.082 128.09 293.105 128.123 293.121 128.16C293.137 128.197 293.145 128.237 293.145 128.277C293.145 128.317 293.137 128.357 293.121 128.394C293.105 128.431 293.082 128.465 293.053 128.493C293.024 128.522 292.989 128.544 292.951 128.56C292.913 128.575 292.872 128.583 292.831 128.583Z" fill="#252525"/>
<path d="M299.882 128.583H298.886C298.803 128.583 298.723 128.551 298.664 128.493C298.605 128.436 298.572 128.358 298.572 128.277C298.572 128.196 298.605 128.119 298.664 128.061C298.723 128.004 298.803 127.972 298.886 127.972H299.882C299.965 127.972 300.045 128.004 300.104 128.061C300.163 128.119 300.196 128.196 300.196 128.277C300.196 128.358 300.163 128.436 300.104 128.493C300.045 128.551 299.965 128.583 299.882 128.583Z" fill="#252525"/>
<path d="M296.389 128.583H295.394C295.311 128.583 295.231 128.551 295.172 128.493C295.113 128.436 295.08 128.358 295.08 128.277C295.08 128.196 295.113 128.119 295.172 128.061C295.231 128.004 295.311 127.972 295.394 127.972H296.389C296.43 127.972 296.471 127.98 296.509 127.995C296.547 128.01 296.582 128.033 296.611 128.061C296.64 128.09 296.663 128.123 296.679 128.16C296.695 128.197 296.703 128.237 296.703 128.277C296.703 128.317 296.695 128.357 296.679 128.394C296.663 128.431 296.64 128.465 296.611 128.493C296.582 128.522 296.547 128.544 296.509 128.56C296.471 128.575 296.43 128.583 296.389 128.583Z" fill="#252525"/>
<path d="M303.618 128.583H302.622C302.539 128.583 302.459 128.551 302.401 128.493C302.342 128.436 302.309 128.358 302.309 128.277C302.309 128.196 302.342 128.119 302.401 128.061C302.459 128.004 302.539 127.972 302.622 127.972H303.618C303.66 127.972 303.7 127.98 303.738 127.995C303.776 128.01 303.811 128.033 303.84 128.061C303.869 128.09 303.892 128.123 303.908 128.16C303.924 128.197 303.932 128.237 303.932 128.277C303.932 128.317 303.924 128.357 303.908 128.394C303.892 128.431 303.869 128.465 303.84 128.493C303.811 128.522 303.776 128.544 303.738 128.56C303.7 128.575 303.66 128.583 303.618 128.583Z" fill="#252525"/>
<path d="M310.34 141.051H247.781V159.404H310.34V141.051Z" fill="#BDDFAC"/>
<g opacity="0.69">
<path opacity="0.69" d="M310.344 141.05H247.785V159.403H310.344V141.05Z" fill="white"/>
</g>
<path d="M310.341 159.709H247.783C247.741 159.709 247.701 159.702 247.662 159.686C247.624 159.671 247.59 159.648 247.561 159.62C247.532 159.592 247.508 159.558 247.493 159.521C247.477 159.484 247.469 159.444 247.469 159.404V141.049C247.469 141.009 247.477 140.969 247.492 140.932C247.508 140.895 247.531 140.861 247.56 140.833C247.59 140.804 247.624 140.782 247.662 140.766C247.7 140.751 247.741 140.743 247.783 140.743H310.341C310.382 140.743 310.423 140.751 310.461 140.766C310.499 140.782 310.534 140.804 310.563 140.833C310.592 140.861 310.615 140.895 310.631 140.932C310.647 140.969 310.655 141.009 310.655 141.049V159.404C310.655 159.444 310.647 159.484 310.631 159.521C310.615 159.558 310.592 159.592 310.563 159.62C310.534 159.648 310.499 159.671 310.461 159.686C310.423 159.702 310.382 159.709 310.341 159.709ZM248.099 159.098H310.027V141.356H248.099V159.098Z" fill="#252525"/>
<path d="M257.281 153.997C259.413 153.997 261.141 152.312 261.141 150.232C261.141 148.153 259.413 146.467 257.281 146.467C255.15 146.467 253.422 148.153 253.422 150.232C253.422 152.312 255.15 153.997 257.281 153.997Z" fill="white"/>
<path d="M257.279 154.299C256.453 154.299 255.646 154.06 254.96 153.613C254.274 153.165 253.739 152.53 253.423 151.786C253.107 151.042 253.025 150.223 253.186 149.433C253.347 148.643 253.744 147.918 254.328 147.349C254.912 146.779 255.655 146.391 256.465 146.234C257.274 146.077 258.114 146.158 258.876 146.466C259.639 146.775 260.29 147.296 260.749 147.966C261.207 148.636 261.452 149.423 261.452 150.228C261.451 151.308 261.01 152.342 260.228 153.105C259.446 153.869 258.385 154.298 257.279 154.299ZM257.279 146.769C256.577 146.769 255.892 146.972 255.309 147.352C254.726 147.732 254.271 148.272 254.003 148.904C253.735 149.536 253.664 150.232 253.801 150.903C253.938 151.574 254.276 152.19 254.771 152.674C255.267 153.158 255.899 153.487 256.587 153.621C257.275 153.754 257.988 153.686 258.636 153.424C259.283 153.162 259.837 152.719 260.227 152.15C260.616 151.581 260.824 150.912 260.824 150.228C260.823 149.311 260.45 148.432 259.785 147.783C259.12 147.135 258.219 146.77 257.279 146.769Z" fill="#252525"/>
<path d="M292.831 150.153H266.124C266.041 150.153 265.961 150.121 265.902 150.064C265.844 150.006 265.811 149.929 265.811 149.848C265.811 149.767 265.844 149.689 265.902 149.632C265.961 149.574 266.041 149.542 266.124 149.542H292.831C292.914 149.542 292.994 149.574 293.053 149.632C293.112 149.689 293.145 149.767 293.145 149.848C293.145 149.929 293.112 150.006 293.053 150.064C292.994 150.121 292.914 150.153 292.831 150.153Z" fill="#252525"/>
<path d="M299.882 150.153H298.886C298.803 150.153 298.723 150.121 298.664 150.064C298.605 150.006 298.572 149.929 298.572 149.848C298.572 149.767 298.605 149.689 298.664 149.632C298.723 149.574 298.803 149.542 298.886 149.542H299.882C299.965 149.542 300.045 149.574 300.104 149.632C300.163 149.689 300.196 149.767 300.196 149.848C300.196 149.929 300.163 150.006 300.104 150.064C300.045 150.121 299.965 150.153 299.882 150.153Z" fill="#252525"/>
<path d="M296.389 150.153H295.394C295.311 150.153 295.231 150.121 295.172 150.064C295.113 150.006 295.08 149.929 295.08 149.848C295.08 149.767 295.113 149.689 295.172 149.632C295.231 149.574 295.311 149.542 295.394 149.542H296.389C296.472 149.542 296.552 149.574 296.611 149.632C296.67 149.689 296.703 149.767 296.703 149.848C296.703 149.929 296.67 150.006 296.611 150.064C296.552 150.121 296.472 150.153 296.389 150.153Z" fill="#252525"/>
<path d="M303.618 150.153H302.622C302.539 150.153 302.459 150.121 302.401 150.064C302.342 150.006 302.309 149.929 302.309 149.848C302.309 149.767 302.342 149.689 302.401 149.632C302.459 149.574 302.539 149.542 302.622 149.542H303.618C303.702 149.542 303.781 149.574 303.84 149.632C303.899 149.689 303.932 149.767 303.932 149.848C303.932 149.929 303.899 150.006 303.84 150.064C303.781 150.121 303.702 150.153 303.618 150.153Z" fill="#252525"/>
<path d="M310.34 162.617H247.781V180.971H310.34V162.617Z" fill="#BDDFAC"/>
<g opacity="0.69">
<path opacity="0.69" d="M310.344 162.614H247.785V180.968H310.344V162.614Z" fill="white"/>
</g>
<path d="M310.341 181.277H247.783C247.741 181.277 247.7 181.269 247.662 181.254C247.624 181.239 247.59 181.216 247.56 181.188C247.531 181.159 247.508 181.125 247.492 181.088C247.477 181.051 247.469 181.011 247.469 180.971V162.618C247.469 162.577 247.477 162.538 247.492 162.5C247.508 162.463 247.531 162.429 247.56 162.401C247.59 162.373 247.624 162.35 247.662 162.335C247.7 162.319 247.741 162.311 247.783 162.312H310.341C310.424 162.312 310.504 162.344 310.563 162.401C310.622 162.459 310.655 162.536 310.655 162.618V180.971C310.655 181.052 310.622 181.13 310.563 181.188C310.504 181.245 310.424 181.277 310.341 181.277ZM248.099 180.665H310.027V162.924H248.099V180.665Z" fill="#252525"/>
<path d="M257.281 175.564C259.413 175.564 261.141 173.878 261.141 171.798C261.141 169.719 259.413 168.033 257.281 168.033C255.15 168.033 253.422 169.719 253.422 171.798C253.422 173.878 255.15 175.564 257.281 175.564Z" fill="white"/>
<path d="M257.279 175.866C256.453 175.866 255.646 175.628 254.96 175.18C254.274 174.733 253.739 174.097 253.423 173.353C253.107 172.609 253.025 171.79 253.186 171.001C253.347 170.211 253.744 169.485 254.328 168.916C254.912 168.347 255.655 167.959 256.465 167.802C257.274 167.645 258.114 167.725 258.876 168.034C259.639 168.342 260.29 168.864 260.749 169.533C261.207 170.203 261.452 170.99 261.452 171.796C261.451 172.875 261.01 173.91 260.228 174.673C259.446 175.436 258.385 175.865 257.279 175.866ZM257.279 168.336C256.577 168.336 255.892 168.539 255.309 168.919C254.726 169.299 254.271 169.84 254.003 170.472C253.735 171.104 253.664 171.799 253.801 172.47C253.938 173.141 254.276 173.758 254.771 174.242C255.267 174.725 255.899 175.055 256.587 175.188C257.275 175.322 257.988 175.253 258.636 174.991C259.283 174.73 259.837 174.286 260.227 173.717C260.616 173.149 260.824 172.48 260.824 171.796C260.823 170.878 260.45 169.999 259.785 169.351C259.12 168.702 258.219 168.337 257.279 168.336Z" fill="#252525"/>
<path d="M292.831 171.719H266.124C266.041 171.719 265.961 171.687 265.902 171.629C265.844 171.572 265.811 171.494 265.811 171.413C265.811 171.332 265.844 171.254 265.902 171.197C265.961 171.14 266.041 171.107 266.124 171.107H292.831C292.914 171.107 292.994 171.14 293.053 171.197C293.112 171.254 293.145 171.332 293.145 171.413C293.145 171.494 293.112 171.572 293.053 171.629C292.994 171.687 292.914 171.719 292.831 171.719Z" fill="#252525"/>
<path d="M299.882 171.719H298.886C298.803 171.719 298.723 171.687 298.664 171.629C298.605 171.572 298.572 171.494 298.572 171.413C298.572 171.332 298.605 171.254 298.664 171.197C298.723 171.14 298.803 171.107 298.886 171.107H299.882C299.965 171.107 300.045 171.14 300.104 171.197C300.163 171.254 300.196 171.332 300.196 171.413C300.196 171.494 300.163 171.572 300.104 171.629C300.045 171.687 299.965 171.719 299.882 171.719Z" fill="#252525"/>
<path d="M296.389 171.719H295.394C295.311 171.719 295.231 171.687 295.172 171.629C295.113 171.572 295.08 171.494 295.08 171.413C295.08 171.332 295.113 171.254 295.172 171.197C295.231 171.14 295.311 171.107 295.394 171.107H296.389C296.472 171.107 296.552 171.14 296.611 171.197C296.67 171.254 296.703 171.332 296.703 171.413C296.703 171.494 296.67 171.572 296.611 171.629C296.552 171.687 296.472 171.719 296.389 171.719Z" fill="#252525"/>
<path d="M303.618 171.719H302.622C302.539 171.719 302.459 171.687 302.401 171.629C302.342 171.572 302.309 171.494 302.309 171.413C302.309 171.332 302.342 171.254 302.401 171.197C302.459 171.14 302.539 171.107 302.622 171.107H303.618C303.702 171.107 303.781 171.14 303.84 171.197C303.899 171.254 303.932 171.332 303.932 171.413C303.932 171.494 303.899 171.572 303.84 171.629C303.781 171.687 303.702 171.719 303.618 171.719Z" fill="#252525"/>
<path d="M244.475 185.103C244.322 185.103 244.175 185.044 244.067 184.939C243.959 184.833 243.898 184.691 243.898 184.542V116.562C243.898 116.413 243.959 116.27 244.067 116.165C244.175 116.059 244.322 116 244.475 116C244.627 116 244.774 116.059 244.882 116.165C244.99 116.27 245.051 116.413 245.051 116.562V184.542C245.051 184.691 244.99 184.833 244.882 184.939C244.774 185.044 244.627 185.103 244.475 185.103Z" fill="#252525"/>
<path d="M272.972 230.921C274.316 230.921 275.406 229.843 275.406 228.512C275.406 227.181 274.316 226.103 272.972 226.103C271.627 226.103 270.537 227.181 270.537 228.512C270.537 229.843 271.627 230.921 272.972 230.921Z" fill="white"/>
<path d="M272.97 231.459C272.38 231.459 271.804 231.286 271.314 230.962C270.825 230.639 270.443 230.178 270.217 229.639C269.992 229.101 269.933 228.508 270.047 227.936C270.162 227.364 270.446 226.838 270.863 226.426C271.279 226.014 271.81 225.733 272.388 225.619C272.966 225.505 273.565 225.564 274.109 225.787C274.654 226.01 275.119 226.388 275.446 226.873C275.773 227.358 275.948 227.928 275.948 228.511C275.947 229.293 275.633 230.042 275.075 230.595C274.516 231.147 273.759 231.458 272.97 231.459ZM272.97 226.64C272.596 226.64 272.23 226.749 271.919 226.955C271.608 227.16 271.365 227.453 271.222 227.795C271.079 228.137 271.041 228.513 271.114 228.876C271.187 229.239 271.367 229.573 271.632 229.835C271.896 230.096 272.233 230.275 272.6 230.347C272.967 230.419 273.347 230.382 273.693 230.241C274.038 230.099 274.334 229.859 274.541 229.551C274.749 229.243 274.86 228.882 274.86 228.511C274.86 228.015 274.66 227.54 274.306 227.189C273.951 226.838 273.471 226.64 272.97 226.64Z" fill="#737373"/>
<path d="M272.968 211.264C274.312 211.264 275.402 210.185 275.402 208.855C275.402 207.524 274.312 206.445 272.968 206.445C271.623 206.445 270.533 207.524 270.533 208.855C270.533 210.185 271.623 211.264 272.968 211.264Z" fill="white"/>
<path d="M272.969 211.803C272.38 211.803 271.804 211.63 271.314 211.306C270.824 210.982 270.442 210.521 270.217 209.983C269.991 209.444 269.933 208.851 270.048 208.279C270.163 207.707 270.446 207.182 270.863 206.77C271.28 206.357 271.81 206.077 272.388 205.963C272.966 205.849 273.565 205.908 274.109 206.131C274.654 206.354 275.119 206.732 275.446 207.217C275.773 207.702 275.948 208.272 275.948 208.855C275.947 209.637 275.633 210.386 275.075 210.939C274.516 211.491 273.759 211.802 272.969 211.803ZM272.969 206.983C272.595 206.983 272.229 207.093 271.918 207.299C271.607 207.505 271.365 207.797 271.222 208.139C271.079 208.481 271.041 208.857 271.114 209.22C271.187 209.583 271.367 209.917 271.632 210.179C271.896 210.44 272.233 210.619 272.6 210.691C272.967 210.763 273.347 210.726 273.693 210.584C274.038 210.443 274.334 210.203 274.542 209.895C274.749 209.587 274.86 209.225 274.86 208.855C274.86 208.359 274.66 207.883 274.306 207.532C273.951 207.181 273.471 206.984 272.969 206.983Z" fill="#737373"/>
<path d="M217.354 286.173C222.316 286.173 226.338 282.191 226.338 277.28C226.338 272.369 222.316 268.388 217.354 268.388C212.392 268.388 208.369 272.369 208.369 277.28C208.369 282.191 212.392 286.173 217.354 286.173Z" fill="white"/>
<path d="M217.357 286.738C215.467 286.739 213.619 286.184 212.047 285.146C210.476 284.107 209.25 282.63 208.527 280.902C207.803 279.173 207.614 277.272 207.982 275.437C208.351 273.602 209.261 271.917 210.597 270.594C211.933 269.271 213.636 268.37 215.489 268.005C217.343 267.64 219.265 267.827 221.011 268.543C222.757 269.259 224.249 270.471 225.3 272.026C226.35 273.582 226.91 275.41 226.91 277.281C226.907 279.788 225.9 282.191 224.109 283.964C222.318 285.737 219.89 286.735 217.357 286.738ZM217.357 268.953C215.693 268.953 214.066 269.441 212.682 270.356C211.298 271.271 210.219 272.571 209.582 274.092C208.945 275.614 208.778 277.288 209.102 278.904C209.427 280.519 210.228 282.003 211.404 283.168C212.581 284.333 214.08 285.126 215.712 285.448C217.344 285.769 219.036 285.605 220.574 284.974C222.111 284.344 223.425 283.277 224.35 281.907C225.275 280.538 225.768 278.928 225.768 277.281C225.766 275.073 224.879 272.957 223.302 271.396C221.725 269.835 219.587 268.957 217.357 268.953Z" fill="black"/>
<path d="M221.06 281.504C220.908 281.504 220.763 281.444 220.656 281.338L213.26 274.017C213.156 273.911 213.098 273.768 213.1 273.62C213.101 273.472 213.161 273.33 213.267 273.225C213.373 273.12 213.516 273.061 213.666 273.06C213.815 273.058 213.96 273.115 214.067 273.218L221.463 280.539C221.543 280.618 221.598 280.719 221.62 280.828C221.642 280.938 221.63 281.052 221.587 281.155C221.544 281.258 221.471 281.346 221.377 281.408C221.283 281.471 221.173 281.504 221.06 281.504Z" fill="black"/>
<path d="M213.663 281.504C213.55 281.504 213.439 281.471 213.346 281.408C213.252 281.346 213.178 281.258 213.135 281.155C213.092 281.052 213.081 280.938 213.103 280.828C213.125 280.719 213.179 280.618 213.259 280.539L220.655 273.218C220.763 273.115 220.907 273.058 221.057 273.06C221.207 273.061 221.35 273.12 221.456 273.225C221.561 273.33 221.622 273.472 221.623 273.62C221.624 273.768 221.567 273.911 221.463 274.017L214.067 281.338C214.014 281.391 213.951 281.432 213.882 281.461C213.812 281.489 213.738 281.504 213.663 281.504Z" fill="black"/>
<path d="M760.028 276.904H568.787C564.364 276.904 560.784 273.34 560.784 268.95V129.736C560.784 125.346 564.364 121.782 568.787 121.782L760.028 121.782C764.451 121.782 768.031 125.346 768.031 129.736V268.95C768.031 273.34 764.451 276.904 760.028 276.904Z" fill="white" stroke="black"/>
<path d="M560 268.95V129.736C560.003 127.42 560.929 125.2 562.577 123.562C564.224 121.924 566.457 121.003 568.787 121H760.028C762.357 121.003 764.591 121.924 766.238 123.562C767.885 125.2 768.812 127.42 768.815 129.736V268.95C768.812 271.266 767.885 273.487 766.238 275.124C764.591 276.762 762.357 277.684 760.028 277.686H568.787C566.457 277.684 564.224 276.762 562.577 275.124C560.929 273.487 560.003 271.266 560 268.95ZM568.787 121.564C566.608 121.566 564.518 122.428 562.977 123.96C561.436 125.492 560.569 127.57 560.567 129.736V268.95C560.569 271.117 561.436 273.194 562.977 274.726C564.518 276.258 566.608 277.12 568.787 277.123H760.028C762.207 277.12 764.296 276.258 765.837 274.726C767.378 273.194 768.245 271.117 768.248 268.95V129.736C768.245 127.57 767.378 125.492 765.837 123.96C764.296 122.428 762.207 121.566 760.028 121.564H568.787Z" fill="#292A2E"/>
<path d="M676.145 146.826H757.288C759.007 146.826 760.395 148.21 760.395 149.912V206.983C760.395 208.685 759.007 210.069 757.288 210.069H676.145C674.427 210.069 673.039 208.685 673.039 206.983V149.912C673.039 148.21 674.427 146.826 676.145 146.826Z" fill="white" stroke="black"/>
<path opacity="0.15" d="M676.145 146.826H757.288C759.007 146.826 760.395 148.21 760.395 149.912V206.983C760.395 208.685 759.007 210.069 757.288 210.069H676.145C674.427 210.069 673.039 208.685 673.039 206.983V149.912C673.039 148.21 674.427 146.826 676.145 146.826Z" fill="#8FC055" stroke="black"/>
<path d="M681.391 154.595H688.403C688.592 154.595 688.742 154.747 688.742 154.931V201.968C688.742 202.153 688.592 202.304 688.403 202.304H681.391C681.202 202.304 681.051 202.153 681.051 201.968V154.931C681.051 154.747 681.202 154.595 681.391 154.595Z" fill="#FAFAFA" stroke="black" stroke-width="0.5"/>
<path opacity="0.6" d="M681.051 178.226H688.742V201.967C688.742 202.056 688.706 202.141 688.642 202.205C688.579 202.268 688.492 202.304 688.402 202.304H681.391C681.3 202.304 681.213 202.268 681.15 202.205C681.086 202.142 681.051 202.056 681.051 201.967V178.226Z" fill="#8FC055" stroke="black" stroke-width="0.5"/>
<path d="M697.291 154.597H704.303C704.492 154.597 704.643 154.749 704.643 154.933V201.97C704.643 202.154 704.492 202.306 704.303 202.306H697.291C697.102 202.306 696.951 202.154 696.951 201.97V154.933C696.951 154.749 697.102 154.597 697.291 154.597Z" fill="#FAFAFA" stroke="black" stroke-width="0.5"/>
<path opacity="0.6" d="M696.951 171.546H704.642V201.969C704.642 202.058 704.606 202.143 704.543 202.206C704.479 202.27 704.393 202.306 704.302 202.306H697.291C697.2 202.306 697.114 202.27 697.05 202.206C696.987 202.143 696.951 202.058 696.951 201.969V171.546Z" fill="#8FC055" stroke="black" stroke-width="0.5"/>
<path d="M745.035 154.594H752.047C752.236 154.594 752.387 154.746 752.387 154.93V201.967C752.387 202.152 752.236 202.304 752.047 202.304H745.035C744.846 202.304 744.695 202.152 744.695 201.967V154.93C744.695 154.746 744.846 154.594 745.035 154.594Z" fill="#FAFAFA" stroke="black" stroke-width="0.5"/>
<path opacity="0.6" d="M744.696 164.805H752.386V201.97C752.386 202.058 752.351 202.144 752.287 202.207C752.223 202.27 752.137 202.306 752.046 202.306H745.035C744.945 202.306 744.858 202.27 744.795 202.207C744.731 202.144 744.696 202.058 744.696 201.97V164.805Z" fill="#8FC055" stroke="black" stroke-width="0.5"/>
<path d="M713.213 154.595H720.225C720.414 154.595 720.565 154.747 720.565 154.931V201.968C720.565 202.153 720.414 202.304 720.225 202.304H713.213C713.024 202.304 712.873 202.153 712.873 201.968V154.931C712.873 154.747 713.024 154.595 713.213 154.595Z" fill="#FAFAFA" stroke="black" stroke-width="0.5"/>
<path opacity="0.6" d="M712.873 189.033H720.564V201.968C720.564 202.057 720.528 202.142 720.465 202.205C720.401 202.269 720.315 202.304 720.224 202.304H713.213C713.122 202.304 713.036 202.269 712.972 202.205C712.909 202.142 712.873 202.057 712.873 201.968V189.033Z" fill="#8FC055" stroke="black" stroke-width="0.5"/>
<path d="M729.115 154.595H736.127C736.316 154.595 736.467 154.747 736.467 154.931V201.968C736.467 202.153 736.316 202.304 736.127 202.304H729.115C728.926 202.304 728.775 202.153 728.775 201.968V154.931C728.775 154.747 728.926 154.595 729.115 154.595Z" fill="#FAFAFA" stroke="black" stroke-width="0.5"/>
<path opacity="0.6" d="M728.776 180.61H736.466V201.968C736.466 202.057 736.431 202.142 736.367 202.205C736.303 202.269 736.217 202.304 736.126 202.304H729.116C729.071 202.304 729.027 202.296 728.986 202.279C728.944 202.262 728.907 202.237 728.875 202.205C728.844 202.174 728.819 202.137 728.802 202.096C728.785 202.056 728.776 202.012 728.776 201.968V180.61Z" fill="#8FC055" stroke="black" stroke-width="0.5"/>
<path d="M660.218 145.827H573.02C569.929 145.827 567.418 148.319 567.418 151.4V264.587C567.418 267.667 569.929 270.159 573.02 270.159H660.218C663.309 270.159 665.82 267.667 665.82 264.587V151.4C665.82 148.319 663.309 145.827 660.218 145.827Z" fill="#EEF6E5" stroke="black"/>
<path d="M642.72 194.712C642.719 194.802 642.717 194.892 642.716 194.981L642.966 194.986C642.959 195.336 642.946 195.685 642.927 196.033L642.677 196.019C642.658 196.366 642.632 196.711 642.6 197.056L642.849 197.079C642.817 197.427 642.778 197.774 642.733 198.12L642.485 198.088C642.44 198.432 642.389 198.774 642.332 199.115L642.578 199.157C642.52 199.502 642.456 199.845 642.385 200.187L642.141 200.137C642.07 200.476 641.994 200.814 641.912 201.15L642.154 201.21C642.071 201.549 641.981 201.887 641.886 202.223L641.645 202.154C641.55 202.487 641.449 202.818 641.342 203.148L641.58 203.225C641.472 203.557 641.357 203.888 641.237 204.216L641.002 204.13C640.883 204.455 640.758 204.777 640.626 205.098L640.858 205.193C640.725 205.516 640.587 205.837 640.443 206.155L640.215 206.052C640.072 206.367 639.923 206.68 639.768 206.99L639.992 207.102C639.836 207.414 639.675 207.724 639.507 208.031L639.288 207.911C639.122 208.215 638.951 208.516 638.773 208.814L638.988 208.942C638.81 209.242 638.626 209.539 638.436 209.833L638.226 209.697C638.132 209.842 638.037 209.987 637.94 210.131C637.843 210.275 637.745 210.418 637.646 210.56L637.851 210.704C637.65 210.991 637.444 211.275 637.233 211.554L637.033 211.403C636.823 211.68 636.609 211.954 636.39 212.223L636.583 212.381C636.362 212.652 636.136 212.92 635.904 213.183L635.717 213.018C635.487 213.279 635.253 213.536 635.015 213.788L635.196 213.959C634.955 214.214 634.71 214.464 634.46 214.71L634.285 214.531C634.037 214.774 633.784 215.013 633.528 215.247L633.696 215.432C633.437 215.668 633.174 215.899 632.907 216.126L632.745 215.935C632.48 216.159 632.211 216.379 631.938 216.593L632.092 216.79C631.817 217.006 631.537 217.218 631.254 217.424L631.107 217.222C630.826 217.426 630.542 217.625 630.253 217.819L630.393 218.027C630.102 218.222 629.808 218.412 629.51 218.597L629.378 218.385C629.083 218.568 628.785 218.746 628.483 218.918L628.607 219.135C628.303 219.309 627.996 219.477 627.685 219.64L627.569 219.418C627.262 219.579 626.951 219.735 626.637 219.885L626.745 220.11C626.429 220.261 626.11 220.406 625.789 220.546L625.689 220.316C625.53 220.385 625.37 220.453 625.209 220.519C625.048 220.585 624.887 220.65 624.725 220.714L624.816 220.946C624.488 221.074 624.159 221.196 623.828 221.312L623.745 221.075C623.416 221.19 623.086 221.299 622.753 221.401L622.827 221.64C622.491 221.744 622.154 221.841 621.815 221.932L621.75 221.691C621.414 221.781 621.076 221.865 620.737 221.943L620.793 222.186C620.45 222.265 620.107 222.337 619.762 222.403L619.715 222.158C619.373 222.223 619.03 222.282 618.686 222.335L618.724 222.582C618.377 222.636 618.029 222.683 617.68 222.723L617.651 222.475C617.305 222.515 616.959 222.549 616.612 222.577L616.632 222.826C616.282 222.854 615.931 222.875 615.58 222.89L615.57 222.64C615.222 222.655 614.874 222.664 614.526 222.666L614.527 222.916C614.177 222.918 613.825 222.914 613.474 222.903L613.482 222.653C613.134 222.642 612.786 222.625 612.439 222.602L612.422 222.852C612.072 222.828 611.722 222.798 611.373 222.762L611.399 222.513C611.053 222.477 610.707 222.435 610.362 222.386L610.327 222.633C609.98 222.584 609.633 222.529 609.287 222.467L609.331 222.221C609.16 222.19 608.989 222.158 608.818 222.124C608.647 222.091 608.477 222.055 608.307 222.019L608.254 222.263C607.911 222.188 607.57 222.108 607.23 222.021L607.292 221.779C606.955 221.693 606.62 221.601 606.287 221.502L606.216 221.742C605.879 221.643 605.545 221.537 605.213 221.426L605.292 221.189C604.962 221.079 604.634 220.962 604.309 220.84L604.221 221.074C603.893 220.95 603.567 220.82 603.244 220.685L603.34 220.454C603.019 220.32 602.701 220.18 602.386 220.034L602.281 220.261C601.962 220.114 601.647 219.961 601.334 219.802L601.447 219.579C601.137 219.421 600.83 219.258 600.526 219.09L600.405 219.308C600.098 219.138 599.795 218.962 599.494 218.781L599.624 218.567C599.326 218.387 599.032 218.202 598.741 218.011L598.604 218.221C598.311 218.028 598.021 217.831 597.735 217.628L597.879 217.424C597.596 217.223 597.316 217.017 597.04 216.805L596.888 217.004C596.61 216.79 596.335 216.572 596.065 216.349L596.224 216.156C595.956 215.935 595.692 215.708 595.432 215.477L595.266 215.664C595.004 215.431 594.747 215.193 594.493 214.95L594.666 214.769C594.541 214.649 594.416 214.528 594.293 214.405C594.17 214.283 594.048 214.159 593.928 214.035L593.748 214.209C593.504 213.958 593.266 213.702 593.032 213.443L593.218 213.275C592.985 213.018 592.758 212.756 592.536 212.49L592.344 212.651C592.12 212.382 591.901 212.11 591.687 211.833L591.884 211.68C591.672 211.406 591.464 211.128 591.262 210.847L591.059 210.993C590.855 210.709 590.657 210.421 590.463 210.13L590.672 209.991C590.48 209.702 590.294 209.41 590.113 209.115L589.9 209.245C589.717 208.947 589.54 208.645 589.369 208.34L589.587 208.218C589.417 207.915 589.253 207.61 589.095 207.302L588.872 207.416C588.712 207.105 588.558 206.791 588.41 206.475L588.636 206.369C588.489 206.055 588.348 205.738 588.213 205.419L587.982 205.517C587.846 205.195 587.715 204.871 587.591 204.544L587.825 204.455C587.701 204.131 587.584 203.805 587.472 203.476L587.236 203.557C587.123 203.226 587.017 202.893 586.917 202.557L587.157 202.486C587.058 202.154 586.965 201.82 586.878 201.484L586.636 201.547C586.548 201.209 586.467 200.869 586.392 200.527L586.636 200.473C586.599 200.304 586.563 200.134 586.529 199.964C586.495 199.794 586.463 199.624 586.432 199.454L586.186 199.499C586.124 199.155 586.068 198.81 586.019 198.464L586.266 198.429C586.217 198.086 586.175 197.742 586.139 197.399L585.89 197.425C585.853 197.077 585.823 196.729 585.8 196.381L586.049 196.364C586.025 196.018 586.008 195.672 585.998 195.327L585.748 195.334C585.737 194.985 585.733 194.636 585.735 194.287L585.985 194.288C585.987 193.942 585.996 193.596 586.011 193.25L585.761 193.239C585.776 192.89 585.797 192.542 585.825 192.194L586.075 192.214C586.102 191.869 586.137 191.524 586.177 191.18L585.929 191.151C585.97 190.804 586.017 190.458 586.071 190.113L586.318 190.151C586.371 189.809 586.43 189.468 586.496 189.128L586.251 189.081C586.317 188.738 586.39 188.396 586.469 188.056L586.713 188.113C586.791 187.776 586.875 187.44 586.966 187.106L586.725 187.04C586.817 186.703 586.914 186.368 587.018 186.034L587.257 186.109C587.36 185.779 587.469 185.45 587.585 185.123L587.349 185.04C587.465 184.711 587.587 184.384 587.716 184.059L587.948 184.151C588.012 183.99 588.077 183.829 588.144 183.669C588.21 183.509 588.278 183.35 588.348 183.191L588.119 183.09C588.26 182.77 588.406 182.452 588.559 182.137L588.784 182.246C588.935 181.933 589.091 181.623 589.254 181.317L589.033 181.2C589.197 180.891 589.366 180.584 589.541 180.282L589.758 180.407C589.932 180.106 590.111 179.809 590.295 179.516L590.084 179.382C590.27 179.086 590.462 178.793 590.659 178.504L590.865 178.645C591.061 178.358 591.261 178.075 591.467 177.796L591.266 177.647C591.473 177.366 591.686 177.088 591.904 176.814L592.1 176.969C592.316 176.698 592.537 176.43 592.763 176.167L592.573 176.004C592.8 175.738 593.033 175.477 593.271 175.22L593.454 175.389C593.69 175.134 593.93 174.884 594.174 174.638L593.997 174.461C594.244 174.213 594.495 173.97 594.751 173.73L594.921 173.913C595.175 173.676 595.432 173.444 595.695 173.217L595.531 173.028C595.795 172.798 596.063 172.574 596.336 172.354L596.493 172.549C596.763 172.331 597.037 172.119 597.315 171.911L597.166 171.711C597.446 171.501 597.73 171.297 598.018 171.098L598.161 171.304C598.303 171.205 598.447 171.108 598.591 171.012C598.736 170.915 598.882 170.82 599.029 170.727L598.894 170.516C599.19 170.327 599.49 170.144 599.792 169.966L599.919 170.182C600.219 170.005 600.522 169.834 600.828 169.669L600.709 169.449C601.019 169.283 601.331 169.122 601.645 168.967L601.756 169.191C602.068 169.037 602.383 168.889 602.7 168.747L602.598 168.519C602.919 168.375 603.241 168.238 603.567 168.106L603.66 168.338C603.983 168.207 604.308 168.083 604.635 167.964L604.55 167.729C604.88 167.61 605.212 167.496 605.546 167.389L605.623 167.627C605.954 167.52 606.287 167.42 606.622 167.325L606.554 167.085C606.892 166.99 607.232 166.901 607.573 166.818L607.632 167.061C607.97 166.979 608.309 166.903 608.65 166.834L608.6 166.589C608.944 166.518 609.289 166.455 609.636 166.397L609.677 166.644C610.02 166.587 610.364 166.536 610.709 166.491L610.677 166.244C611.025 166.199 611.374 166.16 611.724 166.128L611.747 166.377C612.093 166.345 612.44 166.32 612.788 166.301L612.774 166.051C613.124 166.032 613.475 166.019 613.826 166.013L613.831 166.263C613.921 166.261 614.012 166.26 614.103 166.259V166.516H614.353V167.532H614.103V168.548H614.353V169.565H614.103V170.581H614.353V171.597H614.103V172.613H614.353V173.629H614.103V174.646H614.353V175.662H614.103V176.678H614.353V177.694H614.103V178.711H614.353V179.727H614.103V180.743H614.353V181.759H614.103V182.775H614.353V183.792H614.103V184.808H614.353V185.824H614.103V186.84H614.353V187.856H614.103V188.873H614.353V189.889H614.103V190.905H614.353V191.921H614.103V192.938H614.353V193.954H614.103V194.462V194.712H614.353H614.864V194.462H615.886V194.712H616.908V194.462H617.93V194.712H618.952V194.462H619.974V194.712H620.996V194.462H622.018V194.712H623.04V194.462H624.062V194.712H625.084V194.462H626.106V194.712H627.128V194.462H628.151V194.712H629.173V194.462H630.195V194.712H631.217V194.462H632.239V194.712H633.261V194.462H634.283V194.712H635.305V194.462H636.327V194.712H637.349V194.462H638.371V194.712H639.393V194.462H640.415V194.712H641.438V194.462H642.46V194.712H642.72Z" fill="#FAFAFA" stroke="black" stroke-width="0.5" stroke-dasharray="1 1"/>
<path opacity="0.6" d="M637.925 170.823C643.185 176.054 646.166 183.126 646.231 190.516H618.115V162.563C625.549 162.628 632.664 165.592 637.925 170.823Z" fill="#87BD25" stroke="black" stroke-width="0.5"/>
<path opacity="0.6" d="M584.677 239.059C585.736 239.059 586.595 238.205 586.595 237.151C586.595 236.097 585.736 235.243 584.677 235.243C583.617 235.243 582.758 236.097 582.758 237.151C582.758 238.205 583.617 239.059 584.677 239.059Z" fill="#87BD25"/>
<path d="M584.677 248.784C585.736 248.784 586.595 247.929 586.595 246.876C586.595 245.822 585.736 244.968 584.677 244.968C583.617 244.968 582.758 245.822 582.758 246.876C582.758 247.929 583.617 248.784 584.677 248.784Z" fill="#FAFAFA"/>
<path opacity="0.6" d="M650.422 237.15C650.422 237.436 650.308 237.711 650.104 237.913C649.9 238.116 649.624 238.229 649.336 238.229H591.776C591.519 238.234 591.269 238.151 591.067 237.994C590.864 237.837 590.722 237.615 590.664 237.367C590.632 237.21 590.636 237.048 590.674 236.892C590.713 236.736 590.786 236.591 590.888 236.467C590.99 236.343 591.118 236.243 591.264 236.175C591.41 236.106 591.569 236.07 591.73 236.07H649.336C649.479 236.07 649.62 236.098 649.752 236.153C649.884 236.207 650.003 236.286 650.104 236.387C650.205 236.487 650.285 236.606 650.339 236.737C650.394 236.868 650.422 237.008 650.422 237.15Z" fill="#87BD25"/>
<path fill-rule="evenodd" clip-rule="evenodd" d="M697.561 234.673C697.749 234.599 697.957 234.451 698.142 234.264C698.233 234.171 698.316 234.071 698.385 233.97C698.454 233.868 698.508 233.768 698.545 233.673C698.581 233.579 698.599 233.493 698.597 233.42C698.595 233.347 698.574 233.289 698.534 233.248L691.406 225.998L698.94 218.335C699.021 218.253 699.025 218.101 698.951 217.91C698.877 217.72 698.733 217.507 698.548 217.32C698.457 217.227 698.359 217.143 698.259 217.073C698.159 217.002 698.06 216.947 697.968 216.91C697.875 216.873 697.79 216.855 697.719 216.857C697.647 216.859 697.59 216.88 697.55 216.921L690.015 224.584L682.452 216.892C682.407 216.846 682.34 216.824 682.255 216.828C682.17 216.831 682.07 216.86 681.961 216.913C681.853 216.965 681.739 217.039 681.628 217.13C681.517 217.221 681.412 217.326 681.32 217.438C681.176 217.618 681.073 217.803 681.028 217.963C680.983 218.124 681 218.249 681.074 218.319L688.625 225.998L681.468 233.277C681.423 233.323 681.401 233.391 681.405 233.478C681.408 233.564 681.437 233.666 681.488 233.776C681.54 233.887 681.613 234.002 681.702 234.115C681.792 234.228 681.895 234.335 682.005 234.429C682.182 234.576 682.364 234.68 682.521 234.726C682.679 234.771 682.803 234.754 682.871 234.678L690.015 227.413L697.144 234.662C697.224 234.744 697.374 234.748 697.561 234.673Z" fill="#BCBFBA"/>
<path fill-rule="evenodd" clip-rule="evenodd" d="M725.556 234.673C725.743 234.599 725.952 234.451 726.136 234.264C726.227 234.171 726.31 234.071 726.379 233.97C726.448 233.868 726.502 233.768 726.539 233.673C726.575 233.579 726.593 233.493 726.591 233.42C726.589 233.347 726.568 233.289 726.528 233.248L719.4 225.998L726.934 218.335C727.015 218.253 727.019 218.101 726.945 217.91C726.872 217.72 726.727 217.507 726.542 217.32C726.451 217.227 726.353 217.143 726.253 217.073C726.154 217.002 726.055 216.947 725.962 216.91C725.869 216.873 725.785 216.855 725.713 216.857C725.641 216.859 725.584 216.88 725.544 216.921L718.009 224.584L710.446 216.892C710.401 216.846 710.334 216.824 710.249 216.828C710.164 216.831 710.064 216.86 709.956 216.913C709.847 216.965 709.733 217.039 709.622 217.13C709.511 217.221 709.406 217.326 709.314 217.438C709.17 217.618 709.067 217.803 709.022 217.963C708.978 218.124 708.994 218.249 709.069 218.319L716.619 225.998L709.462 233.277C709.417 233.323 709.395 233.391 709.399 233.478C709.402 233.564 709.431 233.666 709.482 233.776C709.534 233.887 709.607 234.002 709.696 234.115C709.786 234.228 709.889 234.335 709.999 234.429C710.176 234.576 710.358 234.68 710.516 234.726C710.673 234.771 710.797 234.754 710.865 234.678L718.009 227.413L725.138 234.662C725.218 234.744 725.368 234.748 725.556 234.673Z" fill="#BCBFBA"/>
<path fill-rule="evenodd" clip-rule="evenodd" d="M753.558 234.673C753.745 234.599 753.954 234.451 754.138 234.264C754.229 234.171 754.312 234.071 754.381 233.97C754.45 233.868 754.504 233.768 754.541 233.673C754.577 233.579 754.595 233.493 754.593 233.42C754.591 233.347 754.57 233.289 754.53 233.248L747.402 225.998L754.936 218.335C755.017 218.253 755.021 218.101 754.947 217.91C754.874 217.72 754.729 217.507 754.544 217.32C754.453 217.227 754.355 217.143 754.255 217.073C754.156 217.002 754.057 216.947 753.964 216.91C753.871 216.873 753.786 216.855 753.715 216.857C753.643 216.859 753.586 216.88 753.546 216.921L746.011 224.584L738.448 216.892C738.403 216.846 738.336 216.824 738.251 216.828C738.166 216.831 738.066 216.86 737.958 216.913C737.849 216.965 737.735 217.039 737.624 217.13C737.513 217.221 737.408 217.326 737.316 217.438C737.172 217.618 737.069 217.803 737.024 217.963C736.979 218.124 736.996 218.249 737.071 218.319L744.621 225.998L737.464 233.277C737.419 233.323 737.397 233.391 737.401 233.478C737.404 233.564 737.433 233.666 737.484 233.776C737.536 233.887 737.609 234.002 737.698 234.115C737.788 234.228 737.891 234.335 738.001 234.429C738.178 234.576 738.36 234.68 738.518 234.726C738.675 234.771 738.799 234.754 738.867 234.678L746.011 227.413L753.14 234.662C753.22 234.744 753.37 234.748 753.558 234.673Z" fill="#BCBFBA"/>
<path d="M650.42 246.874C650.42 247.161 650.306 247.435 650.102 247.638C649.899 247.84 649.623 247.954 649.335 247.954H591.786C591.635 247.956 591.485 247.928 591.346 247.872C591.206 247.816 591.08 247.732 590.973 247.626C590.866 247.521 590.782 247.395 590.726 247.256C590.669 247.117 590.641 246.969 590.643 246.819C590.657 246.543 590.778 246.282 590.98 246.092C591.182 245.901 591.45 245.795 591.728 245.795H649.335C649.477 245.795 649.618 245.823 649.75 245.877C649.882 245.931 650.002 246.011 650.102 246.111C650.203 246.211 650.283 246.33 650.338 246.461C650.392 246.592 650.42 246.733 650.42 246.874Z" fill="white"/>
<path d="M782.055 241.123H680.952C676.752 241.123 673.348 244.508 673.348 248.683V283.102C673.348 287.277 676.752 290.662 680.952 290.662H782.055C786.254 290.662 789.659 287.277 789.659 283.102V248.683C789.659 244.508 786.254 241.123 782.055 241.123Z" fill="white"/>
<path opacity="0.4" d="M782.055 241.123H680.952C676.752 241.123 673.348 244.508 673.348 248.683V283.102C673.348 287.277 676.752 290.662 680.952 290.662H782.055C786.254 290.662 789.659 287.277 789.659 283.102V248.683C789.659 244.508 786.254 241.123 782.055 241.123Z" fill="#5BB030"/>
<path d="M782.053 291H680.95C678.843 290.998 676.824 290.165 675.334 288.683C673.844 287.202 673.006 285.194 673.004 283.1V248.684C673.006 246.59 673.844 244.582 675.334 243.101C676.824 241.62 678.843 240.787 680.95 240.784H782.053C784.159 240.787 786.179 241.62 787.669 243.101C789.158 244.582 789.996 246.59 789.999 248.684V283.101C789.996 285.195 789.158 287.203 787.668 288.684C786.179 290.165 784.159 290.998 782.053 291ZM680.95 241.463C679.024 241.465 677.178 242.226 675.817 243.58C674.455 244.934 673.689 246.77 673.688 248.684V283.101C673.69 285.015 674.456 286.85 675.818 288.204C677.179 289.557 679.025 290.318 680.95 290.32H782.053C783.978 290.318 785.824 289.557 787.185 288.203C788.547 286.849 789.313 285.014 789.315 283.1V248.684C789.313 246.77 788.547 244.935 787.185 243.581C785.824 242.228 783.978 241.466 782.053 241.464L680.95 241.463Z" fill="#292A2E"/>
<path d="M683.771 280.106C683.679 280.106 683.588 280.081 683.509 280.034C683.43 279.987 683.365 279.92 683.321 279.84C683.276 279.76 683.255 279.669 683.258 279.578C683.261 279.486 683.289 279.397 683.339 279.32C683.45 279.15 694.624 262.163 712.381 262.163C721.659 262.163 727.281 265.723 732.718 269.165C737.75 272.351 742.504 275.361 749.86 275.361C764.899 275.361 777.014 253.646 777.134 253.427C777.199 253.308 777.309 253.22 777.44 253.182C777.57 253.144 777.711 253.159 777.83 253.224C777.949 253.289 778.038 253.398 778.076 253.528C778.115 253.657 778.099 253.797 778.034 253.916C777.53 254.833 765.501 276.382 749.86 276.382C742.205 276.382 737.329 273.295 732.167 270.026C726.854 266.661 721.361 263.183 712.381 263.183C695.191 263.183 684.31 279.705 684.202 279.872C684.156 279.944 684.092 280.003 684.017 280.043C683.941 280.084 683.857 280.106 683.771 280.106Z" fill="white"/>
<path d="M777.725 255.668C778.833 255.668 779.732 254.775 779.732 253.673C779.732 252.571 778.833 251.678 777.725 251.678C776.617 251.678 775.719 252.571 775.719 253.673C775.719 254.775 776.617 255.668 777.725 255.668Z" fill="white"/>
<path d="M1200.61 163.87H1200.44L1200.31 163.969L1188.14 173.07V123.458C1188.14 121.613 1188.87 119.843 1190.18 118.538C1191.49 117.233 1193.26 116.5 1195.11 116.5H1286.53C1288.38 116.5 1290.15 117.233 1291.46 118.538C1292.77 119.843 1293.5 121.613 1293.5 123.458V156.913C1293.5 158.758 1292.77 160.527 1291.46 161.832C1290.15 163.137 1288.38 163.87 1286.53 163.87H1200.61Z" fill="#D2E6BB" stroke="black"/>
<path opacity="0.11" d="M1200.61 163.87H1200.44L1200.31 163.969L1188.14 173.07V123.458C1188.14 121.613 1188.87 119.843 1190.18 118.538C1191.49 117.233 1193.26 116.5 1195.11 116.5H1286.53C1288.38 116.5 1290.15 117.233 1291.46 118.538C1292.77 119.843 1293.5 121.613 1293.5 123.458V156.913C1293.5 158.758 1292.77 160.527 1291.46 161.832C1290.15 163.137 1288.38 163.87 1286.53 163.87H1200.61Z" fill="white" stroke="black"/>
<mask id="path-85-inside-1_3311_20099" fill="white">
<path d="M1196.8 136.13H1284.85C1284.93 136.13 1285.02 136.096 1285.08 136.035C1285.14 135.975 1285.17 135.892 1285.17 135.806C1285.17 135.72 1285.14 135.637 1285.08 135.576C1285.02 135.516 1284.93 135.481 1284.85 135.481H1196.8C1196.71 135.481 1196.63 135.516 1196.57 135.576C1196.51 135.637 1196.47 135.72 1196.47 135.806C1196.47 135.892 1196.51 135.975 1196.57 136.035C1196.63 136.096 1196.71 136.13 1196.8 136.13Z"/>
</mask>
<path d="M1196.8 136.13H1284.85C1284.93 136.13 1285.02 136.096 1285.08 136.035C1285.14 135.975 1285.17 135.892 1285.17 135.806C1285.17 135.72 1285.14 135.637 1285.08 135.576C1285.02 135.516 1284.93 135.481 1284.85 135.481H1196.8C1196.71 135.481 1196.63 135.516 1196.57 135.576C1196.51 135.637 1196.47 135.72 1196.47 135.806C1196.47 135.892 1196.51 135.975 1196.57 136.035C1196.63 136.096 1196.71 136.13 1196.8 136.13Z" fill="white"/>
<path d="M1196.8 135.481V136.481V135.481ZM1196.8 137.13H1284.85V135.13H1196.8V137.13ZM1284.85 137.13C1285.2 137.13 1285.53 136.991 1285.78 136.743L1284.37 135.328C1284.5 135.201 1284.67 135.13 1284.85 135.13V137.13ZM1285.78 136.743C1286.03 136.495 1286.17 136.158 1286.17 135.806H1284.17C1284.17 135.626 1284.24 135.454 1284.37 135.328L1285.78 136.743ZM1286.17 135.806C1286.17 135.454 1286.03 135.117 1285.78 134.869L1284.37 136.284C1284.24 136.158 1284.17 135.986 1284.17 135.806H1286.17ZM1285.78 134.869C1285.53 134.62 1285.2 134.481 1284.85 134.481V136.481C1284.67 136.481 1284.5 136.411 1284.37 136.284L1285.78 134.869ZM1284.85 134.481H1196.8V136.481H1284.85V134.481ZM1196.8 134.481C1196.45 134.481 1196.11 134.621 1195.86 134.869L1197.27 136.284C1197.15 136.411 1196.98 136.481 1196.8 136.481V134.481ZM1195.86 134.869C1195.61 135.117 1195.47 135.454 1195.47 135.806H1197.47C1197.47 135.986 1197.4 136.158 1197.27 136.284L1195.86 134.869ZM1195.47 135.806C1195.47 136.158 1195.61 136.495 1195.86 136.743L1197.27 135.328C1197.4 135.454 1197.47 135.626 1197.47 135.806H1195.47ZM1195.86 136.743C1196.11 136.991 1196.45 137.13 1196.8 137.13V135.13C1196.98 135.13 1197.15 135.201 1197.27 135.328L1195.86 136.743Z" fill="black" mask="url(#path-85-inside-1_3311_20099)"/>
<mask id="path-87-inside-2_3311_20099" fill="white">
<path d="M1196.8 126.898H1284.85C1284.93 126.898 1285.02 126.864 1285.08 126.803C1285.14 126.742 1285.17 126.66 1285.17 126.573C1285.17 126.487 1285.14 126.405 1285.08 126.344C1285.02 126.283 1284.93 126.249 1284.85 126.249H1196.8C1196.71 126.249 1196.63 126.283 1196.57 126.344C1196.51 126.405 1196.47 126.487 1196.47 126.573C1196.47 126.66 1196.51 126.742 1196.57 126.803C1196.63 126.864 1196.71 126.898 1196.8 126.898Z"/>
</mask>
<path d="M1196.8 126.898H1284.85C1284.93 126.898 1285.02 126.864 1285.08 126.803C1285.14 126.742 1285.17 126.66 1285.17 126.573C1285.17 126.487 1285.14 126.405 1285.08 126.344C1285.02 126.283 1284.93 126.249 1284.85 126.249H1196.8C1196.71 126.249 1196.63 126.283 1196.57 126.344C1196.51 126.405 1196.47 126.487 1196.47 126.573C1196.47 126.66 1196.51 126.742 1196.57 126.803C1196.63 126.864 1196.71 126.898 1196.8 126.898Z" fill="white"/>
<path d="M1284.85 126.898V127.898V126.898ZM1196.8 126.249V127.249V126.249ZM1196.8 127.898H1284.85V125.898H1196.8V127.898ZM1284.85 127.898C1285.2 127.898 1285.53 127.759 1285.78 127.511L1284.37 126.095C1284.5 125.969 1284.67 125.898 1284.85 125.898V127.898ZM1285.78 127.511C1286.03 127.262 1286.17 126.925 1286.17 126.573H1284.17C1284.17 126.394 1284.24 126.222 1284.37 126.095L1285.78 127.511ZM1286.17 126.573C1286.17 126.222 1286.03 125.885 1285.78 125.636L1284.37 127.052C1284.24 126.925 1284.17 126.753 1284.17 126.573H1286.17ZM1285.78 125.636C1285.53 125.388 1285.2 125.249 1284.85 125.249V127.249C1284.67 127.249 1284.5 127.178 1284.37 127.052L1285.78 125.636ZM1284.85 125.249H1196.8V127.249H1284.85V125.249ZM1196.8 125.249C1196.45 125.249 1196.11 125.388 1195.86 125.636L1197.27 127.052C1197.15 127.178 1196.98 127.249 1196.8 127.249V125.249ZM1195.86 125.636C1195.61 125.884 1195.47 126.222 1195.47 126.573H1197.47C1197.47 126.753 1197.4 126.925 1197.27 127.052L1195.86 125.636ZM1195.47 126.573C1195.47 126.925 1195.61 127.263 1195.86 127.511L1197.27 126.095C1197.4 126.222 1197.47 126.394 1197.47 126.573H1195.47ZM1195.86 127.511C1196.11 127.759 1196.45 127.898 1196.8 127.898V125.898C1196.98 125.898 1197.15 125.969 1197.27 126.095L1195.86 127.511Z" fill="black" mask="url(#path-87-inside-2_3311_20099)"/>
<mask id="path-89-inside-3_3311_20099" fill="white">
<path d="M1196.8 145.864H1284.85C1284.93 145.864 1285.02 145.83 1285.08 145.769C1285.14 145.708 1285.17 145.625 1285.17 145.539C1285.17 145.453 1285.14 145.371 1285.08 145.31C1285.02 145.249 1284.93 145.215 1284.85 145.215H1196.8C1196.71 145.215 1196.63 145.249 1196.57 145.31C1196.51 145.371 1196.47 145.453 1196.47 145.539C1196.47 145.625 1196.51 145.708 1196.57 145.769C1196.63 145.83 1196.71 145.864 1196.8 145.864Z"/>
</mask>
<path d="M1196.8 145.864H1284.85C1284.93 145.864 1285.02 145.83 1285.08 145.769C1285.14 145.708 1285.17 145.625 1285.17 145.539C1285.17 145.453 1285.14 145.371 1285.08 145.31C1285.02 145.249 1284.93 145.215 1284.85 145.215H1196.8C1196.71 145.215 1196.63 145.249 1196.57 145.31C1196.51 145.371 1196.47 145.453 1196.47 145.539C1196.47 145.625 1196.51 145.708 1196.57 145.769C1196.63 145.83 1196.71 145.864 1196.8 145.864Z" fill="white"/>
<path d="M1196.8 145.215V146.215V145.215ZM1196.8 146.864H1284.85V144.864H1196.8V146.864ZM1284.85 146.864C1285.2 146.864 1285.53 146.725 1285.78 146.477L1284.37 145.061C1284.5 144.934 1284.67 144.864 1284.85 144.864V146.864ZM1285.78 146.477C1286.03 146.228 1286.17 145.891 1286.17 145.539H1284.17C1284.17 145.36 1284.24 145.188 1284.37 145.061L1285.78 146.477ZM1286.17 145.539C1286.17 145.187 1286.03 144.85 1285.78 144.602L1284.37 146.018C1284.24 145.891 1284.17 145.719 1284.17 145.539H1286.17ZM1285.78 144.602C1285.53 144.354 1285.2 144.215 1284.85 144.215V146.215C1284.67 146.215 1284.5 146.144 1284.37 146.018L1285.78 144.602ZM1284.85 144.215H1196.8V146.215H1284.85V144.215ZM1196.8 144.215C1196.45 144.215 1196.11 144.354 1195.86 144.602L1197.27 146.018C1197.15 146.144 1196.98 146.215 1196.8 146.215V144.215ZM1195.86 144.602C1195.61 144.85 1195.47 145.187 1195.47 145.539H1197.47C1197.47 145.719 1197.4 145.891 1197.27 146.018L1195.86 144.602ZM1195.47 145.539C1195.47 145.891 1195.61 146.228 1195.86 146.477L1197.27 145.061C1197.4 145.187 1197.47 145.36 1197.47 145.539H1195.47ZM1195.86 146.477C1196.11 146.725 1196.45 146.864 1196.8 146.864V144.864C1196.98 144.864 1197.15 144.934 1197.27 145.061L1195.86 146.477Z" fill="black" mask="url(#path-89-inside-3_3311_20099)"/>
<mask id="path-91-inside-4_3311_20099" fill="white">
<path d="M1196.8 155.595H1249.09C1249.18 155.595 1249.26 155.561 1249.32 155.5C1249.38 155.439 1249.41 155.357 1249.41 155.271C1249.41 155.185 1249.38 155.102 1249.32 155.041C1249.26 154.98 1249.18 154.946 1249.09 154.946H1196.8C1196.71 154.946 1196.63 154.98 1196.57 155.041C1196.51 155.102 1196.47 155.185 1196.47 155.271C1196.47 155.357 1196.51 155.439 1196.57 155.5C1196.63 155.561 1196.71 155.595 1196.8 155.595Z"/>
</mask>
<path d="M1196.8 155.595H1249.09C1249.18 155.595 1249.26 155.561 1249.32 155.5C1249.38 155.439 1249.41 155.357 1249.41 155.271C1249.41 155.185 1249.38 155.102 1249.32 155.041C1249.26 154.98 1249.18 154.946 1249.09 154.946H1196.8C1196.71 154.946 1196.63 154.98 1196.57 155.041C1196.51 155.102 1196.47 155.185 1196.47 155.271C1196.47 155.357 1196.51 155.439 1196.57 155.5C1196.63 155.561 1196.71 155.595 1196.8 155.595Z" fill="white"/>
<path d="M1249.09 155.595V156.595V155.595ZM1196.8 154.946V155.946V154.946ZM1196.8 156.595H1249.09V154.595H1196.8V156.595ZM1249.09 156.595C1249.44 156.595 1249.78 156.456 1250.03 156.208L1248.61 154.792C1248.74 154.666 1248.91 154.595 1249.09 154.595V156.595ZM1250.03 156.208C1250.27 155.96 1250.41 155.623 1250.41 155.271H1248.41C1248.41 155.091 1248.49 154.919 1248.61 154.792L1250.03 156.208ZM1250.41 155.271C1250.41 154.919 1250.27 154.582 1250.03 154.334L1248.61 155.749C1248.49 155.623 1248.41 155.451 1248.41 155.271H1250.41ZM1250.03 154.334C1249.78 154.085 1249.44 153.946 1249.09 153.946V155.946C1248.91 155.946 1248.74 155.876 1248.61 155.749L1250.03 154.334ZM1249.09 153.946H1196.8V155.946H1249.09V153.946ZM1196.8 153.946C1196.45 153.946 1196.11 154.085 1195.86 154.334L1197.27 155.749C1197.15 155.876 1196.98 155.946 1196.8 155.946V153.946ZM1195.86 154.334C1195.61 154.582 1195.47 154.919 1195.47 155.271H1197.47C1197.47 155.451 1197.4 155.623 1197.27 155.749L1195.86 154.334ZM1195.47 155.271C1195.47 155.623 1195.61 155.96 1195.86 156.208L1197.27 154.792C1197.4 154.919 1197.47 155.091 1197.47 155.271H1195.47ZM1195.86 156.208C1196.11 156.456 1196.45 156.595 1196.8 156.595V154.595C1196.98 154.595 1197.15 154.666 1197.27 154.792L1195.86 156.208Z" fill="black" mask="url(#path-91-inside-4_3311_20099)"/>
<path d="M1083.64 278.467C1081.36 273.385 1080.17 267.876 1080.17 262.301C1080.17 256.56 1081.42 250.888 1083.84 245.678C1086.25 240.468 1089.78 235.846 1094.17 232.134C1098.43 228.528 1103.4 225.864 1108.76 224.315L1111.91 235.656C1108.2 236.749 1104.75 238.603 1101.8 241.103C1098.71 243.71 1096.24 246.956 1094.54 250.615C1092.84 254.274 1091.96 258.259 1091.96 262.292C1091.96 266.157 1092.77 269.979 1094.34 273.511L1083.64 278.467Z" fill="#D3EBB3" stroke="black"/>
<path d="M1085.69 295.074C1085.19 295.352 1084.63 295.499 1084.06 295.5H1084.06C1083.45 295.5 1082.84 295.33 1082.32 295.009C1081.79 294.688 1081.37 294.227 1081.09 293.68L1081.09 293.68C1080.22 291.978 1079.69 290.123 1079.54 288.22C1079.4 286.317 1079.62 284.403 1080.21 282.587C1081.41 278.921 1084.01 275.878 1087.46 274.128C1089.16 273.261 1091.02 272.739 1092.93 272.589C1094.84 272.44 1096.75 272.667 1098.57 273.258C1102.25 274.45 1105.3 277.05 1107.05 280.485C1107.44 281.27 1107.5 282.177 1107.23 283.009C1106.95 283.842 1106.36 284.533 1105.57 284.932C1104.79 285.33 1103.88 285.404 1103.04 285.136C1102.2 284.869 1101.51 284.283 1101.1 283.506C1100.15 281.645 1098.5 280.237 1096.51 279.591C1094.52 278.945 1092.35 279.114 1090.49 280.062C1088.62 281.01 1087.21 282.659 1086.56 284.646C1085.91 286.633 1086.08 288.796 1087.03 290.658C1087.29 291.166 1087.42 291.731 1087.39 292.3C1087.37 292.868 1087.2 293.422 1086.91 293.908C1086.61 294.393 1086.19 294.795 1085.69 295.074Z" fill="#737373" stroke="black"/>
<path d="M1182.72 241.738H1182.72C1175.89 241.743 1169.18 239.97 1163.24 236.597L1169.2 226.437C1174.65 229.479 1180.97 230.604 1187.15 229.623C1193.32 228.642 1198.99 225.613 1203.22 221.032L1212.03 228.855C1205.32 236.214 1196.07 240.77 1186.12 241.594L1186.12 241.594C1184.99 241.69 1183.85 241.738 1182.72 241.738Z" fill="#D3EBB3" stroke="black"/>
<path d="M1209.71 210.86L1209.71 210.862C1208.39 212.473 1207.76 214.543 1207.96 216.618C1208.16 218.694 1209.18 220.604 1210.79 221.932C1212.4 223.26 1214.47 223.896 1216.55 223.702C1218.63 223.509 1220.54 222.5 1221.88 220.898L1221.88 220.897C1222.16 220.56 1222.5 220.28 1222.89 220.076C1223.28 219.871 1223.7 219.744 1224.14 219.702C1224.58 219.661 1225.02 219.706 1225.43 219.834C1225.85 219.963 1226.24 220.172 1226.58 220.451C1226.92 220.729 1227.2 221.072 1227.4 221.458C1227.61 221.844 1227.74 222.267 1227.78 222.702C1227.82 223.138 1227.77 223.577 1227.65 223.995C1227.52 224.413 1227.31 224.801 1227.03 225.139L1227.03 225.14C1225.81 226.615 1224.32 227.835 1222.63 228.73C1220.94 229.624 1219.08 230.175 1217.18 230.351L1217.18 230.351C1216.71 230.395 1216.24 230.417 1215.77 230.417C1213.01 230.412 1210.31 229.623 1207.98 228.144C1205.65 226.664 1203.79 224.554 1202.61 222.06C1201.44 219.566 1201 216.79 1201.35 214.056C1201.69 211.322 1202.81 208.743 1204.57 206.618C1204.85 206.281 1205.19 206.002 1205.58 205.797C1205.96 205.592 1206.39 205.466 1206.82 205.424C1207.26 205.383 1207.7 205.428 1208.12 205.556C1208.54 205.684 1208.93 205.894 1209.27 206.173C1209.61 206.451 1209.88 206.793 1210.09 207.18C1210.3 207.566 1210.42 207.989 1210.46 208.424C1210.51 208.859 1210.46 209.299 1210.33 209.717C1210.2 210.135 1209.99 210.523 1209.71 210.86Z" fill="#737373" stroke="black"/>
<path d="M1109.01 272.233L1109.5 272.146L1101.12 224.867H1171.36L1161.1 273.03L1161.59 273.134L1161.1 273.03C1159.85 278.91 1156.62 284.183 1151.93 287.966C1147.25 291.75 1141.41 293.814 1135.39 293.814C1129.21 293.814 1123.23 291.642 1118.49 287.68C1113.76 283.717 1110.58 278.217 1109.5 272.146L1109.01 272.233Z" fill="#D3EBB3" stroke="black"/>
<path d="M1171.47 224.367C1171.47 225.576 1170.64 226.832 1168.88 228.06C1167.13 229.278 1164.57 230.395 1161.36 231.341C1154.96 233.232 1146.08 234.408 1136.25 234.408C1126.42 234.408 1117.53 233.232 1111.13 231.341C1107.92 230.395 1105.36 229.278 1103.62 228.06C1101.86 226.832 1101.02 225.576 1101.02 224.367C1101.02 223.158 1101.86 221.902 1103.62 220.674C1105.36 219.456 1107.92 218.339 1111.13 217.393C1117.53 215.503 1126.42 214.326 1136.25 214.326C1146.08 214.326 1154.96 215.503 1161.36 217.393C1164.57 218.339 1167.13 219.456 1168.88 220.674C1170.64 221.902 1171.47 223.158 1171.47 224.367Z" fill="#737373" stroke="black"/>
<path d="M1170.65 196.074C1170.65 203.621 1166.86 209.209 1160.67 212.935C1154.46 216.673 1145.83 218.529 1136.24 218.529C1126.66 218.529 1118.03 216.673 1111.82 212.935C1105.63 209.209 1101.84 203.621 1101.84 196.074C1101.84 188.485 1105.67 180.313 1111.92 174.03C1118.16 167.753 1126.76 163.405 1136.24 163.405C1145.73 163.405 1154.33 167.753 1160.57 174.03C1166.82 180.313 1170.65 188.485 1170.65 196.074Z" fill="#D3EBB3" stroke="black"/>
<path d="M1134.36 177.321C1133.61 177.393 1132.89 177.538 1132.19 177.748L1132.27 177.988C1131.57 178.198 1130.9 178.475 1130.27 178.812L1130.15 178.591C1129.5 178.94 1128.89 179.351 1128.32 179.817L1128.48 180.01C1127.92 180.467 1127.41 180.978 1126.95 181.534L1126.76 181.375C1126.29 181.942 1125.88 182.556 1125.53 183.208L1125.75 183.326C1125.41 183.956 1125.13 184.622 1124.92 185.318L1124.68 185.245C1124.47 185.941 1124.32 186.665 1124.25 187.41L1124.5 187.435C1124.46 187.79 1124.45 188.15 1124.45 188.514C1124.45 188.878 1124.46 189.239 1124.5 189.594L1124.25 189.618C1124.32 190.363 1124.47 191.087 1124.68 191.783L1124.92 191.71C1125.13 192.406 1125.41 193.072 1125.75 193.702L1125.53 193.821C1125.88 194.472 1126.29 195.086 1126.76 195.653L1126.95 195.494C1127.41 196.05 1127.92 196.561 1128.48 197.018L1128.32 197.211C1128.89 197.677 1129.5 198.088 1130.15 198.437L1130.27 198.216C1130.9 198.553 1131.57 198.83 1132.27 199.04L1132.19 199.28C1132.89 199.49 1133.61 199.635 1134.36 199.707L1134.38 199.458C1134.74 199.493 1135.1 199.51 1135.46 199.51H1136.46V199.76H1138.44V199.51H1140.43V199.76H1142.41V199.51H1144.4V199.76H1146.38V199.51H1148.37V199.76H1150.35V199.51H1152.34V199.76H1154.33V199.51H1155.32C1155.68 199.51 1156.04 199.493 1156.4 199.458L1156.42 199.707C1157.17 199.635 1157.89 199.49 1158.59 199.28L1158.52 199.04C1159.21 198.83 1159.88 198.553 1160.51 198.216L1160.63 198.436C1161.28 198.088 1161.89 197.677 1162.46 197.211L1162.3 197.018C1162.86 196.561 1163.37 196.05 1163.83 195.494L1164.03 195.653C1164.49 195.086 1164.91 194.472 1165.26 193.82L1165.04 193.702C1165.37 193.072 1165.65 192.405 1165.86 191.71L1166.1 191.782C1166.31 191.087 1166.46 190.363 1166.53 189.618L1166.28 189.593C1166.32 189.238 1166.34 188.878 1166.34 188.514C1166.34 188.149 1166.32 187.789 1166.28 187.434L1166.53 187.41C1166.46 186.665 1166.31 185.941 1166.1 185.245L1165.86 185.318C1165.65 184.622 1165.37 183.956 1165.04 183.326L1165.26 183.207C1164.91 182.555 1164.49 181.942 1164.03 181.375L1163.83 181.534C1163.37 180.978 1162.86 180.467 1162.3 180.01L1162.46 179.817C1161.89 179.351 1161.28 178.94 1160.63 178.591L1160.51 178.812C1159.88 178.475 1159.21 178.198 1158.52 177.987L1158.59 177.748C1157.89 177.538 1157.17 177.393 1156.42 177.321L1156.4 177.57C1156.04 177.535 1155.68 177.518 1155.32 177.518H1154.33V177.268H1152.34V177.518H1150.35V177.268H1148.37V177.518H1146.38V177.268H1144.4V177.518H1142.41V177.268H1140.43V177.518H1138.44V177.268H1136.46V177.518H1135.46C1135.1 177.518 1134.74 177.535 1134.38 177.57L1134.36 177.321Z" fill="white" stroke="black" stroke-width="0.5" stroke-dasharray="2 2"/>
<path d="M1135.92 166.054L1135.21 151.462L1135.76 151.435L1136.47 166.027L1135.92 166.054Z" fill="#D2E6BB" stroke="black"/>
<path d="M1137.85 152.103C1137.85 153.389 1136.8 154.434 1135.51 154.434C1134.22 154.434 1133.18 153.389 1133.18 152.103C1133.18 150.816 1134.22 149.771 1135.51 149.771C1136.8 149.771 1137.85 150.816 1137.85 152.103Z" fill="#737373" stroke="black"/>
<path d="M1159.6 185.942C1159.83 186.169 1160.01 186.425 1160.1 186.653C1160.2 186.881 1160.2 187.063 1160.1 187.159L1153.98 193.273C1153.9 193.362 1153.75 193.379 1153.56 193.322C1153.36 193.264 1153.14 193.136 1152.92 192.958C1152.79 192.844 1152.66 192.714 1152.55 192.578C1152.44 192.442 1152.35 192.302 1152.28 192.17C1152.22 192.038 1152.18 191.916 1152.18 191.813C1152.17 191.711 1152.19 191.63 1152.25 191.576L1158.39 185.446C1158.43 185.399 1158.5 185.374 1158.59 185.373C1158.68 185.373 1158.78 185.396 1158.89 185.442C1159.01 185.488 1159.13 185.556 1159.25 185.642C1159.37 185.728 1159.49 185.83 1159.6 185.942Z" fill="#5BB030"/>
<path d="M1159.6 192.792C1159.38 193.02 1159.12 193.199 1158.89 193.293C1158.66 193.386 1158.48 193.384 1158.39 193.289L1152.26 187.174C1152.17 187.093 1152.16 186.944 1152.21 186.752C1152.27 186.561 1152.4 186.338 1152.58 186.122C1152.69 185.986 1152.82 185.859 1152.96 185.748C1153.1 185.638 1153.24 185.547 1153.37 185.482C1153.5 185.417 1153.62 185.381 1153.73 185.375C1153.83 185.368 1153.91 185.393 1153.96 185.446L1160.1 191.576C1160.15 191.624 1160.17 191.693 1160.17 191.779C1160.17 191.866 1160.15 191.969 1160.1 192.082C1160.06 192.195 1159.99 192.315 1159.9 192.437C1159.82 192.559 1159.72 192.68 1159.6 192.792Z" fill="#5BB030"/>
<path d="M1142.45 185.942C1142.68 186.169 1142.86 186.425 1142.95 186.653C1143.05 186.881 1143.04 187.063 1142.95 187.159L1136.83 193.273C1136.74 193.362 1136.59 193.379 1136.4 193.322C1136.21 193.264 1135.99 193.136 1135.77 192.958C1135.64 192.844 1135.51 192.714 1135.4 192.578C1135.29 192.442 1135.2 192.302 1135.13 192.17C1135.07 192.038 1135.03 191.916 1135.02 191.813C1135.02 191.711 1135.04 191.63 1135.1 191.576L1141.23 185.446C1141.28 185.399 1141.35 185.374 1141.44 185.373C1141.52 185.373 1141.63 185.396 1141.74 185.442C1141.85 185.488 1141.97 185.556 1142.1 185.642C1142.22 185.728 1142.34 185.83 1142.45 185.942Z" fill="#5BB030"/>
<path d="M1142.45 192.792C1142.22 193.02 1141.97 193.199 1141.74 193.293C1141.51 193.386 1141.33 193.384 1141.23 193.289L1135.11 187.174C1135.02 187.093 1135 186.944 1135.06 186.752C1135.12 186.561 1135.25 186.338 1135.43 186.122C1135.54 185.986 1135.67 185.859 1135.81 185.748C1135.94 185.638 1136.08 185.547 1136.22 185.482C1136.35 185.417 1136.47 185.381 1136.57 185.375C1136.68 185.368 1136.76 185.393 1136.81 185.446L1142.95 191.576C1143 191.624 1143.02 191.693 1143.02 191.779C1143.02 191.866 1143 191.969 1142.95 192.082C1142.91 192.195 1142.84 192.315 1142.75 192.437C1142.67 192.559 1142.56 192.68 1142.45 192.792Z" fill="#5BB030"/>
<path d="M1217.2 195.005H1284.94C1287.11 195.005 1288.86 196.759 1288.86 198.919V235.496C1288.86 237.657 1287.11 239.41 1284.94 239.41H1217.2C1215.03 239.41 1213.27 237.657 1213.27 235.496V198.919C1213.27 196.759 1215.03 195.005 1217.2 195.005Z" fill="#DFDFDF" stroke="black"/>
<path d="M1258.59 205.846C1259.5 205.846 1260.24 205.111 1260.24 204.205C1260.24 203.299 1259.5 202.564 1258.59 202.564C1257.68 202.564 1256.95 203.299 1256.95 204.205C1256.95 205.111 1257.68 205.846 1258.59 205.846Z" fill="#3AAA35"/>
<path d="M1258.59 214.21C1259.5 214.21 1260.24 213.476 1260.24 212.569C1260.24 211.663 1259.5 210.929 1258.59 210.929C1257.68 210.929 1256.95 211.663 1256.95 212.569C1256.95 213.476 1257.68 214.21 1258.59 214.21Z" fill="#6B6B6B"/>
<path d="M1258.59 222.573C1259.5 222.573 1260.24 221.839 1260.24 220.933C1260.24 220.027 1259.5 219.292 1258.59 219.292C1257.68 219.292 1256.95 220.027 1256.95 220.933C1256.95 221.839 1257.68 222.573 1258.59 222.573Z" fill="white"/>
<path opacity="0.5" d="M1258.59 230.938C1259.5 230.938 1260.24 230.203 1260.24 229.297C1260.24 228.391 1259.5 227.656 1258.59 227.656C1257.68 227.656 1256.95 228.391 1256.95 229.297C1256.95 230.203 1257.68 230.938 1258.59 230.938Z" fill="#87BD28"/>
<path d="M1281.42 204.205C1281.42 204.451 1281.32 204.687 1281.15 204.861C1280.97 205.035 1280.74 205.133 1280.49 205.133H1264.67C1264.45 205.137 1264.24 205.065 1264.07 204.93C1263.89 204.795 1263.77 204.605 1263.72 204.391C1263.69 204.256 1263.7 204.117 1263.73 203.983C1263.76 203.849 1263.83 203.724 1263.91 203.618C1264 203.511 1264.11 203.425 1264.24 203.366C1264.36 203.307 1264.5 203.276 1264.64 203.276H1280.49C1280.61 203.276 1280.73 203.3 1280.85 203.347C1280.96 203.394 1281.06 203.462 1281.15 203.548C1281.23 203.634 1281.3 203.737 1281.35 203.849C1281.4 203.962 1281.42 204.083 1281.42 204.205Z" fill="#ABABAB"/>
<path d="M1281.42 212.57C1281.42 212.816 1281.32 213.052 1281.15 213.226C1280.97 213.4 1280.74 213.498 1280.49 213.498H1264.68C1264.55 213.5 1264.43 213.476 1264.31 213.427C1264.19 213.379 1264.08 213.307 1263.99 213.216C1263.89 213.125 1263.82 213.017 1263.77 212.898C1263.73 212.779 1263.7 212.651 1263.7 212.522C1263.72 212.284 1263.82 212.06 1263.99 211.897C1264.17 211.733 1264.4 211.642 1264.63 211.642H1280.49C1280.61 211.642 1280.73 211.666 1280.84 211.712C1280.96 211.759 1281.06 211.827 1281.15 211.913C1281.23 211.999 1281.3 212.102 1281.35 212.214C1281.39 212.327 1281.42 212.448 1281.42 212.57Z" fill="#ABABAB"/>
<path d="M1281.42 220.933C1281.42 221.179 1281.32 221.415 1281.15 221.589C1280.97 221.763 1280.74 221.861 1280.49 221.861H1264.54C1264.32 221.861 1264.1 221.773 1263.95 221.617C1263.79 221.46 1263.7 221.248 1263.7 221.027V220.839C1263.7 220.617 1263.79 220.405 1263.95 220.249C1264.1 220.093 1264.32 220.005 1264.54 220.005H1280.49C1280.61 220.005 1280.73 220.029 1280.85 220.075C1280.96 220.122 1281.06 220.19 1281.15 220.277C1281.23 220.363 1281.3 220.465 1281.35 220.578C1281.4 220.69 1281.42 220.811 1281.42 220.933Z" fill="#ABABAB"/>
<path d="M1281.42 229.298C1281.42 229.544 1281.32 229.78 1281.15 229.954C1280.97 230.128 1280.74 230.226 1280.49 230.226H1264.68C1264.46 230.23 1264.24 230.159 1264.07 230.024C1263.89 229.889 1263.77 229.699 1263.72 229.485C1263.69 229.35 1263.7 229.211 1263.73 229.077C1263.76 228.943 1263.83 228.818 1263.91 228.712C1264 228.605 1264.11 228.519 1264.24 228.46C1264.36 228.401 1264.5 228.37 1264.63 228.37H1280.49C1280.61 228.37 1280.73 228.394 1280.85 228.44C1280.96 228.487 1281.06 228.555 1281.15 228.641C1281.23 228.728 1281.3 228.83 1281.35 228.942C1281.4 229.055 1281.42 229.176 1281.42 229.298Z" fill="#ABABAB"/>
<path d="M1227.71 216.751C1227.71 218.751 1228.33 220.702 1229.49 222.335C1230.65 223.967 1232.29 225.201 1234.18 225.867L1231.52 232.336C1227.86 230.961 1224.8 228.35 1222.88 224.958C1220.95 221.566 1220.28 217.607 1220.98 213.772C1221.68 209.937 1223.71 206.468 1226.71 203.97C1229.71 201.473 1233.5 200.104 1237.41 200.104V207.087C1234.83 207.086 1232.37 208.105 1230.55 209.917C1228.73 211.73 1227.71 214.188 1227.71 216.751Z" fill="#3AAA35"/>
<path d="M1254.1 216.751H1247.1C1247.1 214.187 1246.08 211.729 1244.26 209.916C1242.44 208.103 1239.98 207.085 1237.41 207.085V200.102C1241.83 200.102 1246.08 201.856 1249.21 204.978C1252.34 208.1 1254.1 212.335 1254.1 216.751Z" fill="#6B6B6B"/>
<path d="M1254.1 216.751C1254.1 220.524 1252.82 224.184 1250.46 227.134C1248.1 230.083 1244.81 232.147 1241.12 232.987L1239.93 226.084C1241.99 225.53 1243.81 224.315 1245.1 222.628C1246.4 220.941 1247.1 218.876 1247.1 216.751H1254.1Z" fill="white"/>
<path opacity="0.5" d="M1241.12 232.987C1237.92 233.709 1234.59 233.482 1231.52 232.335L1234.18 225.867C1236.03 226.515 1238.04 226.591 1239.93 226.085L1241.12 232.987Z" fill="#87BD28"/>
</svg>
