<svg width="92" height="114" viewBox="0 0 92 114" fill="none" xmlns="http://www.w3.org/2000/svg">
<path d="M39.6146 69.6676C48.0829 69.6676 54.9479 62.8623 54.9479 54.4676C54.9479 46.0728 48.0829 39.2676 39.6146 39.2676C31.1462 39.2676 24.2812 46.0728 24.2812 54.4676C24.2812 62.8623 31.1462 69.6676 39.6146 69.6676Z" stroke="#252525" stroke-width="3" stroke-linecap="round" stroke-linejoin="round"/>
<path d="M16.6133 107.668V100.068C16.6133 96.0369 18.2288 92.1707 21.1043 89.3201C23.9799 86.4696 27.88 84.8682 31.9466 84.8682H47.2799C51.3466 84.8682 55.2467 86.4696 58.1223 89.3201" stroke="#252525" stroke-width="3" stroke-linecap="round" stroke-linejoin="round"/>
<path d="M52.3906 100.068L60.0573 107.668L75.3906 92.4678" stroke="#252525" stroke-width="3" stroke-linecap="round" stroke-linejoin="round"/>
<path d="M17.4115 23.9004C17.4115 26.6295 18.5052 29.2468 20.4518 31.1765C22.3985 33.1063 25.0388 34.1904 27.7918 34.1904C25.0388 34.1904 22.3985 35.2745 20.4518 37.2043C18.5052 39.134 17.4115 41.7513 17.4115 44.4804C17.4115 41.7513 16.3179 39.134 14.3712 37.2043C12.4245 35.2745 9.78427 34.1904 7.03125 34.1904C9.78427 34.1904 12.4245 33.1063 14.3712 31.1765C16.3179 29.2468 17.4115 26.6295 17.4115 23.9004Z" stroke="#46AC34" stroke-width="3" stroke-linecap="round" stroke-linejoin="round"/>
<path d="M39.3425 49.792V60.082M34.1523 54.937H44.5326H34.1523Z" stroke="#252525" stroke-width="3" stroke-linecap="round" stroke-linejoin="round"/>
</svg>
