<svg width="21" height="27" viewBox="0 0 21 27" fill="none" xmlns="http://www.w3.org/2000/svg">
<path d="M18.8378 26.0009H2.39334C2.20121 26.0015 2.01104 25.9622 1.83486 25.8856C1.65868 25.8089 1.50031 25.6966 1.36978 25.5556C1.23924 25.4146 1.13938 25.2481 1.07649 25.0665C1.01361 24.885 0.989081 24.6924 1.00445 24.5009L2.18501 9.2231C2.213 8.87433 2.37159 8.54897 2.62909 8.31207C2.88658 8.07518 3.22401 7.9442 3.57389 7.94532H17.6572C18.0071 7.9442 18.3445 8.07518 18.602 8.31207C18.8595 8.54897 19.0181 8.87433 19.0461 9.2231L20.2267 24.5009C20.242 24.6924 20.2175 24.885 20.1546 25.0665C20.0917 25.2481 19.9919 25.4146 19.8613 25.5556C19.7308 25.6966 19.5724 25.8089 19.3963 25.8856C19.2201 25.9622 19.0299 26.0015 18.8378 26.0009V26.0009Z" stroke="#525252" stroke-width="1.5" stroke-linecap="round" stroke-linejoin="round"/>
<path d="M6.44922 12.1111V5.16666C6.44922 4.0616 6.8882 3.00179 7.66961 2.22039C8.45101 1.43899 9.51081 1 10.6159 1V1C11.721 1 12.7808 1.43899 13.5622 2.22039C14.3436 3.00179 14.7825 4.0616 14.7825 5.16666V12.1111" stroke="#525252" stroke-width="1.5" stroke-linecap="round" stroke-linejoin="round"/>
</svg>
