<svg width="652" height="637" viewBox="0 0 652 637" fill="none" xmlns="http://www.w3.org/2000/svg">
<path opacity="0.56" d="M52 576L652 576" stroke="#252525"/>
<path d="M40.0525 295.17C133.02 336.223 144.529 456.881 237.476 497.934L342.423 395.346C249.477 354.294 237.967 233.635 145 192.583L40.0525 295.17Z" fill="#E7F4DA" stroke="#CFE8B3" stroke-linecap="round" stroke-linejoin="round"/>
<path d="M131.565 228.743C143.555 235.861 159.548 235.479 169.231 226.014C169.703 225.552 170.165 225.1 170.566 224.565C222.124 267.54 244.719 338.828 295.878 382.172C295.416 382.624 294.872 383.012 294.389 383.484C284.79 392.867 285.094 407.842 296.99 415.032C297.796 415.517 298.629 415.955 299.485 416.345L254.139 460.671C253.408 460.155 252.657 459.639 251.854 459.153C239.969 451.953 224.018 452.274 214.335 461.738C213.194 462.857 212.168 464.087 211.271 465.41C159.769 422.031 137.2 350.371 85.3413 307.361C86.7006 306.468 87.971 305.446 89.1348 304.309C98.7437 294.916 98.3871 280.013 86.3972 272.895C85.9646 272.641 85.5106 272.429 85.0365 272.175L130.309 227.92C130.792 228.268 131.183 228.542 131.565 228.743Z" fill="#FCFFF9" stroke="#CFE8B3" stroke-linecap="round" stroke-linejoin="round"/>
<path d="M170.859 315.536C156.973 329.109 154.834 353.395 165.664 370.257C176.494 387.119 196.944 389.324 210.903 375.679C224.862 362.033 226.907 337.819 216.098 320.957C205.289 304.096 184.818 301.89 170.859 315.536Z" fill="#E7F4DA" stroke="#CFE8B3" stroke-linecap="round" stroke-linejoin="round"/>
<path d="M171.984 364.896L175.632 361.33C177.712 364.255 179.972 365.77 182.506 365.762C185.039 365.754 187.856 364.359 191.124 361.453L187.572 353.877C186.566 354.879 185.446 355.76 184.234 356.501C183.54 356.976 182.7 357.193 181.861 357.114C181.529 357.042 181.216 356.903 180.941 356.704C180.666 356.506 180.435 356.253 180.262 355.961C180.017 355.638 179.858 355.259 179.8 354.858C179.742 354.457 179.787 354.049 179.931 353.672C180.215 352.993 180.63 352.377 181.152 351.86C182.144 350.778 183.477 350.07 184.93 349.854C186.415 349.722 187.912 349.837 189.361 350.193L193.579 351.09C194.767 351.321 195.97 351.459 197.179 351.502C198.379 351.528 199.572 351.325 200.694 350.904C202.084 350.328 203.34 349.471 204.384 348.388C206.588 346.367 207.98 343.61 208.299 340.631C208.557 337.613 207.875 334.586 206.346 331.965L209.836 328.553L208.373 326.301L204.914 329.682C204.038 328.291 202.769 327.19 201.268 326.518C200.111 326.058 198.839 325.975 197.636 326.283C196.431 326.609 195.292 327.138 194.267 327.848C193.266 328.528 192.315 329.279 191.421 330.095L195.171 337.622C195.948 336.889 196.762 336.196 197.61 335.546C198.161 335.088 198.829 334.791 199.539 334.689C199.851 334.692 200.156 334.787 200.415 334.963C200.673 335.138 200.875 335.385 200.994 335.674C201.229 336.022 201.378 336.42 201.429 336.836C201.479 337.252 201.429 337.674 201.283 338.066C201.05 338.833 200.637 339.532 200.08 340.107C199.635 340.615 199.091 341.028 198.482 341.319C197.872 341.611 197.209 341.776 196.533 341.804C195.332 341.794 194.133 341.671 192.954 341.435L188.84 340.56C187.447 340.299 186.034 340.165 184.617 340.161C183.189 340.18 181.776 340.453 180.446 340.968C178.889 341.614 177.481 342.57 176.307 343.779C175.02 345.037 174.017 346.557 173.367 348.237C172.716 349.939 172.437 351.762 172.548 353.584C172.683 355.518 173.22 357.403 174.126 359.119L170.447 362.716L171.984 364.896Z" fill="#BADA91"/>
<path d="M38.0483 370.803C137.4 392.191 173.09 508.024 272.422 529.417L354.436 407.714C255.104 386.321 219.415 270.488 120.063 249.099L38.0483 370.803Z" fill="#E7F4DA" stroke="#CFE8B3" stroke-linecap="round" stroke-linejoin="round"/>
<path d="M114.22 287.23C127.402 291.775 142.988 288.163 150.554 276.935C150.924 276.387 151.285 275.851 151.569 275.246C210.757 306.897 247.312 372.137 306.184 404.231C305.823 404.767 305.369 405.258 304.991 405.818C297.49 416.949 300.818 431.552 313.923 436.186C314.81 436.498 315.715 436.758 316.632 436.967L281.195 489.553C280.375 489.196 279.535 488.842 278.65 488.529C265.554 483.883 249.997 487.425 242.431 498.653C241.54 499.98 240.783 501.393 240.173 502.869C180.958 470.811 144.353 405.2 84.8637 373.576C86.0141 372.426 87.0513 371.168 87.961 369.819C95.4702 358.676 92.105 344.154 78.9226 339.609C78.4476 339.448 77.9601 339.332 77.4443 339.179L112.824 286.679C113.368 286.921 113.806 287.11 114.22 287.23Z" fill="#FCFFF9" stroke="#CFE8B3" stroke-linecap="round" stroke-linejoin="round"/>
<path d="M170.267 364.275C159.416 380.378 162.236 404.594 176.254 418.916C190.273 433.237 210.745 431.258 221.654 415.07C232.563 398.881 229.666 374.754 215.668 360.429C201.67 346.104 181.176 348.087 170.267 364.275Z" fill="#E7F4DA" stroke="#CFE8B3" stroke-linecap="round" stroke-linejoin="round"/>
<path d="M181.36 412.386L184.21 408.156C186.839 410.6 189.359 411.626 191.839 411.105C194.319 410.585 196.795 408.648 199.406 405.141L194.395 398.441C193.612 399.626 192.694 400.715 191.657 401.686C191.073 402.292 190.295 402.674 189.457 402.766C189.118 402.763 188.783 402.69 188.474 402.551C188.164 402.413 187.886 402.211 187.658 401.961C187.353 401.694 187.12 401.355 186.982 400.974C186.844 400.594 186.806 400.185 186.87 399.786C187.011 399.064 187.293 398.377 187.7 397.765C188.452 396.505 189.615 395.542 190.994 395.036C192.421 394.606 193.911 394.415 195.402 394.471L199.714 394.496C200.924 394.482 202.13 394.373 203.322 394.17C204.503 393.953 205.63 393.513 206.644 392.874C207.888 392.028 208.945 390.935 209.748 389.663C211.498 387.237 212.303 384.256 212.013 381.274C211.654 378.267 210.374 375.44 208.346 373.183L211.074 369.135L209.185 367.226L206.482 371.237C205.342 370.052 203.876 369.23 202.271 368.876C201.045 368.659 199.783 368.836 198.666 369.381C197.552 369.944 196.544 370.693 195.684 371.596C194.841 372.464 194.062 373.392 193.352 374.372L198.547 380.984C199.16 380.109 199.817 379.265 200.516 378.458C200.963 377.897 201.556 377.471 202.232 377.228C202.538 377.168 202.855 377.199 203.144 377.319C203.433 377.438 203.68 377.639 203.856 377.898C204.156 378.191 204.383 378.551 204.516 378.948C204.65 379.346 204.686 379.769 204.623 380.182C204.549 380.98 204.287 381.748 203.857 382.424C203.525 383.012 203.076 383.526 202.538 383.935C202 384.344 201.384 384.64 200.728 384.804C199.549 385.038 198.35 385.159 197.148 385.167L192.942 385.142C191.525 385.169 190.114 385.324 188.726 385.607C187.331 385.914 186.003 386.468 184.804 387.241C183.41 388.189 182.224 389.41 181.319 390.831C180.313 392.324 179.64 394.015 179.343 395.792C179.049 397.59 179.145 399.433 179.623 401.194C180.146 403.06 181.054 404.798 182.288 406.296L179.413 410.562L181.36 412.386Z" fill="#BADA91"/>
<path d="M36.2565 430.809C136.662 446.526 178.868 560.147 279.253 575.868L354.229 449.706C253.843 433.985 211.638 320.364 111.232 304.648L36.2565 430.809Z" fill="#E7F4DA" stroke="#CFE8B3" stroke-linecap="round" stroke-linejoin="round"/>
<path d="M107.566 343.049C120.985 346.839 136.34 342.349 143.257 330.709C143.595 330.141 143.925 329.585 144.175 328.965C205.064 357.207 245.261 420.267 305.86 448.968C305.53 449.524 305.104 450.04 304.759 450.62C297.902 462.159 302.053 476.55 315.4 480.433C316.304 480.693 317.221 480.902 318.149 481.059L285.753 535.571C284.914 535.261 284.056 534.955 283.154 534.693C269.815 530.797 254.485 535.217 247.568 546.856C246.753 548.232 246.078 549.685 245.553 551.194C184.614 522.547 144.345 459.12 83.1568 430.922C84.2401 429.709 85.2042 428.394 86.0359 426.996C92.9007 415.444 88.7168 401.136 75.2977 397.347C74.8143 397.213 74.3211 397.125 73.7975 397.002L106.141 342.578C106.697 342.789 107.146 342.953 107.566 343.049Z" fill="#FCFFF9" stroke="#CFE8B3" stroke-linecap="round" stroke-linejoin="round"/>
<path d="M167.895 416.789C157.975 433.481 162.164 457.499 176.973 471.002C191.781 484.504 212.109 481.367 222.081 464.585C232.054 447.804 227.792 423.881 213.004 410.373C198.215 396.865 177.867 400.008 167.895 416.789Z" fill="#E7F4DA" stroke="#CFE8B3" stroke-linecap="round" stroke-linejoin="round"/>
<path d="M175.582 459.441L179.189 455.834C176.288 453.721 174.799 451.444 174.836 448.911C174.872 446.377 176.3 443.576 179.243 440.342L186.778 443.98C185.764 444.974 184.871 446.084 184.116 447.288C183.633 447.976 183.407 448.814 183.476 449.654C183.544 449.986 183.68 450.3 183.876 450.578C184.071 450.855 184.321 451.089 184.611 451.265C184.931 451.514 185.309 451.678 185.709 451.74C186.108 451.803 186.517 451.762 186.896 451.623C187.578 451.346 188.198 450.938 188.722 450.422C189.815 449.443 190.538 448.117 190.77 446.667C190.92 445.184 190.822 443.685 190.482 442.232L189.633 438.005C189.415 436.814 189.292 435.609 189.262 434.401C189.25 433.2 189.466 432.01 189.9 430.892C190.492 429.509 191.363 428.263 192.457 427.232C194.504 425.05 197.276 423.689 200.259 423.404C203.279 423.181 206.298 423.898 208.902 425.456L212.353 422.005L214.588 423.494L211.168 426.914C212.55 427.806 213.636 429.087 214.29 430.596C214.738 431.758 214.806 433.03 214.484 434.23C214.145 435.431 213.603 436.564 212.881 437.581C212.19 438.575 211.428 439.517 210.602 440.401L203.118 436.566C203.86 435.797 204.562 434.991 205.222 434.15C205.687 433.605 205.991 432.94 206.101 432.231C206.101 431.919 206.009 431.614 205.837 431.353C205.665 431.092 205.42 430.888 205.132 430.765C204.787 430.526 204.391 430.373 203.975 430.318C203.56 430.263 203.137 430.308 202.743 430.449C201.974 430.674 201.271 431.078 200.69 431.629C200.176 432.068 199.757 432.607 199.459 433.213C199.16 433.82 198.988 434.48 198.952 435.156C198.948 436.358 199.058 437.558 199.281 438.739L200.109 442.863C200.354 444.259 200.471 445.674 200.459 447.09C200.424 448.518 200.135 449.927 199.605 451.252C198.942 452.802 197.969 454.199 196.747 455.359C195.475 456.632 193.943 457.617 192.256 458.247C190.547 458.88 188.721 459.138 186.9 459.006C184.968 458.849 183.089 458.29 181.383 457.365L177.745 461.003L175.582 459.441Z" fill="#BADA91"/>
<path d="M223.449 575.339V353.257H532.493V575.339H223.449Z" fill="white" stroke="#252525"/>
<path opacity="0.56" d="M223.113 575.541V353.208H532.344V575.541H223.113Z" fill="#DFEBD0" stroke="#252525"/>
<path d="M252.78 351.955C252.78 355.712 250.036 358.671 246.753 358.671C243.471 358.671 240.727 355.712 240.727 351.955C240.727 348.198 243.471 345.239 246.753 345.239C250.036 345.239 252.78 348.198 252.78 351.955Z" fill="#24285B" stroke="#252525"/>
<path d="M272.197 351.955C272.197 355.713 269.453 358.671 266.171 358.671C262.889 358.671 260.145 355.713 260.145 351.955C260.145 348.198 262.889 345.239 266.171 345.239C269.453 345.239 272.197 348.198 272.197 351.955Z" fill="#D8EAC4" stroke="#252525"/>
<path d="M290.463 351.955C290.463 355.713 287.719 358.671 284.437 358.671C281.154 358.671 278.41 355.713 278.41 351.955C278.41 348.198 281.154 345.239 284.437 345.239C287.719 345.239 290.463 348.198 290.463 351.955Z" fill="#93895B" stroke="#252525"/>
<path d="M222.949 394.513V415.899H532.993V376.956L402.257 354.147L257.55 372.98L235.351 377.889L223.156 392.435L222.949 394.513Z" fill="#C2D8AD"/>
<path d="M532.556 326.392H377.771H376.468H221.683L195 378.178H376.468H377.771H559.239L532.556 326.392Z" fill="#DDEDC9"/>
<path d="M241.561 394.419C237.981 390.461 235.933 385.109 235.858 379.502H275.196C275.121 385.109 273.073 390.461 269.493 394.419C265.846 398.451 260.912 400.705 255.778 400.705H255.275C250.142 400.705 245.207 398.451 241.561 394.419Z" fill="#D8EAC4" stroke="#8FC055"/>
<path d="M322.83 394.419C319.25 390.461 317.202 385.109 317.127 379.502H356.466C356.39 385.109 354.343 390.461 350.763 394.419C347.116 398.451 342.181 400.705 337.048 400.705H336.545C331.411 400.705 326.477 398.451 322.83 394.419Z" fill="#D8EAC4" stroke="#8FC055"/>
<path d="M403.51 394.419C399.93 390.461 397.882 385.109 397.807 379.502H437.146C437.071 385.109 435.023 390.461 431.443 394.419C427.796 398.451 422.861 400.705 417.728 400.705H417.225C412.091 400.705 407.157 398.451 403.51 394.419Z" fill="#D8EAC4" stroke="#8FC055"/>
<path d="M484.768 394.419C481.188 390.461 479.14 385.109 479.065 379.502H518.403C518.328 385.109 516.28 390.461 512.7 394.419C509.053 398.451 504.119 400.705 498.985 400.705H498.482C493.349 400.705 488.414 398.451 484.768 394.419Z" fill="#D8EAC4" stroke="#8FC055"/>
<path opacity="0.75" d="M357.48 378.186V378.006V326.703H396.823V378.186C396.823 383.91 394.766 389.39 391.118 393.424C387.471 397.455 382.537 399.71 377.403 399.71H376.9C371.767 399.71 366.832 397.455 363.186 393.424C359.537 389.39 357.48 383.91 357.48 378.186Z" fill="#D0E6BB" stroke="#252525"/>
<path opacity="0.75" d="M316.146 377.96L316.143 377.983V378.006V378.186C316.143 383.91 314.086 389.39 310.438 393.424C306.792 397.455 301.857 399.71 296.724 399.71H296.221C291.087 399.71 286.153 397.455 282.506 393.424C278.858 389.39 276.801 383.91 276.801 378.186V378.052L286.336 326.703H320.89L316.146 377.96Z" fill="#D0E6BB" stroke="#252525"/>
<path d="M234.901 377.842L234.874 377.922V378.006V378.186C234.874 383.91 232.817 389.39 229.169 393.424C225.522 397.455 220.588 399.71 215.454 399.71H214.951C212.408 399.71 209.889 399.156 207.536 398.078C205.184 397.001 203.042 395.42 201.236 393.424C199.43 391.427 197.996 389.054 197.016 386.439C196.036 383.823 195.531 381.019 195.531 378.186V378.127L222.019 326.703H252.594L234.901 377.842Z" fill="#D0E6BB" stroke="#252525"/>
<path opacity="0.75" d="M438.726 378.006V377.506H438.226H438.135L433.447 326.703H468L477.5 378.097L477.575 378.506H477.992H478.067C477.991 384.114 475.944 389.465 472.364 393.424C468.717 397.455 463.782 399.71 458.649 399.71H458.146C453.013 399.71 448.078 397.455 444.431 393.424C440.783 389.39 438.726 383.91 438.726 378.186V378.006Z" fill="#D0E6BB" stroke="#252525"/>
<path d="M519.438 377.193V377.109L519.41 377.03L501.718 325.891H532.292L558.78 377.315V377.373C558.78 380.207 558.275 383.011 557.296 385.626C556.316 388.241 554.881 390.614 553.075 392.611C551.269 394.608 549.128 396.189 546.775 397.266C544.423 398.343 541.903 398.897 539.36 398.897H538.857C536.314 398.897 533.795 398.343 531.443 397.266C529.09 396.189 526.949 394.608 525.143 392.611C523.337 390.614 521.902 388.241 520.922 385.626C519.942 383.011 519.438 380.207 519.438 377.373V377.193Z" fill="#D0E6BB" stroke="#252525"/>
<path d="M222.191 326.701V308.541H532.493V326.701H222.191Z" fill="#DDEDC9" stroke="#252525"/>
<path d="M453.27 447.037H304.02V518.737H453.27V447.037Z" fill="white"/>
<path d="M317.125 503.971V460.367H356.468V503.971H317.125Z" fill="#EEF7E5" stroke="#252525"/>
<path d="M347.315 481.321L344.836 477.946L343.933 476.716V478.242V490.832H329.216V478.242V476.716L328.313 477.946L325.834 481.321L322.131 477.868L326.426 472.009L326.426 472.009L326.428 472.006C326.929 471.316 327.55 470.75 328.251 470.342C328.952 469.934 329.719 469.691 330.503 469.626C331.878 469.516 333.26 469.585 334.621 469.832L334.621 469.832L334.625 469.833C335.912 470.055 337.223 470.055 338.51 469.833L338.514 469.832C339.879 469.585 341.266 469.516 342.646 469.626C343.43 469.693 344.196 469.936 344.897 470.344C345.598 470.753 346.22 471.318 346.722 472.007L346.723 472.009L351.019 477.868L347.315 481.321Z" fill="#CDE8AE" stroke="#252525"/>
<path opacity="0.09" d="M333.891 469.24C333.891 469.24 333.891 469.24 333.891 469.24L333.891 469.24Z" fill="#252525" stroke="#252525"/>
<path d="M461.5 449.502C461.5 454.498 457.669 458.502 453 458.502C448.331 458.502 444.5 454.498 444.5 449.502C444.5 444.506 448.331 440.502 453 440.502C457.669 440.502 461.5 444.506 461.5 449.502Z" fill="#C0DE9A" stroke="#252525"/>
<path d="M370.023 477.43V468.12H423.277V477.43H370.023Z" fill="white" stroke="#252525"/>
<path d="M370.023 495.936V486.626H423.277V495.936H370.023Z" fill="#C9E8A5" stroke="#252525"/>
<path d="M290.944 439.869H237.504V537.061H290.944V439.869Z" fill="#C2D8AD"/>
<path d="M523.907 442.854H501.168V537.06H523.907V442.854Z" fill="#C2D8AD"/>
<path d="M422.572 186.196C421.914 189.17 421.923 192.785 422.703 196.178C422.529 196.443 422.359 196.713 422.195 196.986C420.024 200.601 418.327 204.222 418.242 208.51C418.18 211.576 419.345 214.323 419.563 217.343L426.93 236.405C428.643 238.871 432.587 236.942 434.312 235.335C437.808 231.887 437.44 227.266 437.726 223.002C438.078 219.709 439.275 217.047 439.859 213.794C440.314 211.256 439.775 208.609 439.708 206.058C439.651 203.904 440.198 202.462 440.68 200.691C443.179 197.572 446.361 194.165 446.245 190.251L429.654 179.839C426.705 176.254 422.967 184.412 422.572 186.196Z" fill="#ECF7E9"/>
<path d="M439.791 203.405C440.422 202.81 441.132 202.249 441.782 201.665C442.537 200.986 443.266 200.281 443.955 199.561C445.01 198.457 446.548 196.744 446.505 195.572C446.495 195.289 446.02 195.364 445.862 195.696C445.569 196.318 445.363 196.884 444.941 197.509C444.456 198.227 443.832 198.917 443.197 199.585C442.602 200.211 441.978 200.822 441.361 201.436C440.743 202.051 440.198 202.681 439.618 203.311C439.492 203.448 439.654 203.535 439.791 203.405Z" fill="#525252"/>
<mask id="path-42-inside-1_1352_1660" fill="white">
<path d="M422.488 253.109C426.918 252.465 429.462 247.648 429.664 243.848C429.891 241.252 429.104 238.954 428.783 236.739C428.164 233.511 428.813 231.23 429.165 227.936C429.578 224.08 428.189 220.426 427.195 216.773C426.243 213.267 423.679 209.592 424.968 205.854C425.955 202.989 428.194 201.251 429.933 198.972C432.173 196.038 433.491 192.226 435.396 189.06C435.54 188.817 431.705 188.876 431.374 188.95C429.766 189.303 428.276 190.128 426.864 190.941C424.373 192.378 422.227 193.49 419.498 194.371C414.539 195.972 412.69 200.295 411.473 205.133C408.948 215.172 409.735 228.47 414.962 237.612L422.488 253.109Z"/>
</mask>
<path d="M422.488 253.109C426.918 252.465 429.462 247.648 429.664 243.848C429.891 241.252 429.104 238.954 428.783 236.739C428.164 233.511 428.813 231.23 429.165 227.936C429.578 224.08 428.189 220.426 427.195 216.773C426.243 213.267 423.679 209.592 424.968 205.854C425.955 202.989 428.194 201.251 429.933 198.972C432.173 196.038 433.491 192.226 435.396 189.06C435.54 188.817 431.705 188.876 431.374 188.95C429.766 189.303 428.276 190.128 426.864 190.941C424.373 192.378 422.227 193.49 419.498 194.371C414.539 195.972 412.69 200.295 411.473 205.133C408.948 215.172 409.735 228.47 414.962 237.612L422.488 253.109Z" fill="#ECF6E9"/>
<path d="M429.664 243.848L428.665 243.795L428.666 243.777L428.668 243.76L429.664 243.848ZM428.783 236.739L429.766 236.551L429.77 236.573L429.773 236.596L428.783 236.739ZM429.165 227.936L428.17 227.83L428.17 227.83L429.165 227.936ZM427.195 216.773L426.23 217.035L426.23 217.035L427.195 216.773ZM424.968 205.854L425.913 206.18L425.913 206.18L424.968 205.854ZM429.933 198.972L429.138 198.366L429.138 198.366L429.933 198.972ZM435.396 189.06L436.256 189.57L436.253 189.575L435.396 189.06ZM431.374 188.95L431.592 189.926L431.589 189.926L431.374 188.95ZM426.864 190.941L426.364 190.075L426.365 190.075L426.864 190.941ZM419.498 194.371L419.805 195.323L419.805 195.323L419.498 194.371ZM411.473 205.133L412.443 205.377L412.443 205.377L411.473 205.133ZM414.962 237.612L415.831 237.116L415.847 237.145L415.862 237.175L414.962 237.612ZM422.345 252.119C424.213 251.848 425.735 250.691 426.838 249.094C427.946 247.49 428.574 245.515 428.665 243.795L430.663 243.901C430.552 245.981 429.807 248.315 428.484 250.23C427.157 252.152 425.193 253.726 422.632 254.098L422.345 252.119ZM428.668 243.76C428.771 242.588 428.646 241.462 428.445 240.325C428.256 239.262 427.953 237.985 427.794 236.882L429.773 236.596C429.934 237.708 430.185 238.687 430.414 239.976C430.629 241.191 430.785 242.512 430.66 243.935L428.668 243.76ZM427.801 236.928C427.145 233.505 427.836 230.961 428.17 227.83L430.159 228.043C429.79 231.498 429.183 233.517 429.766 236.551L427.801 236.928ZM428.17 227.83C428.557 224.216 427.262 220.827 426.23 217.035L428.16 216.51C429.117 220.025 430.598 223.943 430.159 228.043L428.17 227.83ZM426.23 217.035C426.008 216.218 425.688 215.377 425.334 214.481C424.986 213.601 424.602 212.66 424.291 211.712C423.667 209.812 423.272 207.704 424.022 205.528L425.913 206.18C425.375 207.742 425.617 209.34 426.191 211.088C426.479 211.965 426.834 212.833 427.194 213.746C427.548 214.641 427.906 215.575 428.16 216.51L426.23 217.035ZM424.022 205.528C424.573 203.93 425.466 202.671 426.401 201.552C426.865 200.997 427.356 200.458 427.816 199.941C428.282 199.417 428.728 198.904 429.138 198.366L430.728 199.579C430.27 200.18 429.783 200.739 429.31 201.271C428.829 201.81 428.373 202.311 427.936 202.834C427.07 203.87 426.35 204.912 425.913 206.18L424.022 205.528ZM429.138 198.366C430.195 196.981 431.049 195.37 431.894 193.66C432.725 191.978 433.559 190.174 434.539 188.544L436.253 189.575C435.329 191.112 434.551 192.797 433.687 194.546C432.836 196.268 431.911 198.03 430.728 199.579L429.138 198.366ZM434.536 188.55C434.4 188.78 434.339 189.11 434.481 189.436C434.592 189.694 434.778 189.821 434.841 189.861C434.919 189.911 434.984 189.935 435.005 189.943C435.033 189.952 435.049 189.956 435.05 189.956C435.05 189.956 435.029 189.952 434.979 189.945C434.931 189.939 434.87 189.933 434.795 189.927C434.488 189.902 434.041 189.889 433.557 189.886C433.078 189.883 432.584 189.889 432.192 189.901C431.996 189.907 431.831 189.914 431.708 189.921C431.549 189.931 431.54 189.937 431.592 189.926L431.156 187.974C431.291 187.944 431.474 187.932 431.588 187.925C431.737 187.916 431.925 187.908 432.132 187.902C432.548 187.89 433.066 187.883 433.57 187.886C434.068 187.889 434.573 187.903 434.954 187.933C435.135 187.947 435.337 187.969 435.506 188.009C435.569 188.024 435.744 188.065 435.915 188.174C435.999 188.227 436.198 188.368 436.316 188.64C436.463 188.981 436.401 189.325 436.256 189.57L434.536 188.55ZM431.589 189.926C430.151 190.242 428.786 190.988 427.363 191.808L426.365 190.075C427.767 189.267 429.38 188.364 431.159 187.973L431.589 189.926ZM427.363 191.808C424.848 193.258 422.632 194.41 419.805 195.323L419.191 193.42C421.822 192.57 423.897 191.497 426.364 190.075L427.363 191.808ZM419.805 195.323C415.385 196.75 413.649 200.579 412.443 205.377L410.503 204.889C411.73 200.011 413.693 195.194 419.191 193.42L419.805 195.323ZM412.443 205.377C409.964 215.229 410.76 228.249 415.831 237.116L414.094 238.109C408.709 228.691 407.931 215.115 410.503 204.889L412.443 205.377ZM415.862 237.175L423.388 252.672L421.589 253.545L414.063 238.049L415.862 237.175Z" fill="black" mask="url(#path-42-inside-1_1352_1660)"/>
<path d="M423.877 250.72C427.522 247.779 427.261 243.896 426.259 240.121C425.36 234.444 427.017 229.228 425.844 223.744C424.332 217.481 419.932 212.615 422.344 205.856C423.35 202.92 430.824 194.673 430.039 192.375C428.532 188.748 422.904 192.053 421.45 193.47C416.08 198.018 413.817 205.284 414.234 212.311C414.893 224.654 423.195 237.172 420.668 249.903L423.877 250.72Z" fill="#D0DEBF"/>
<path d="M405.843 239.69C406.088 243.331 408.928 246.537 410.312 249.842C412.014 253.385 413.978 261.469 419.021 258.417C426.291 253.97 423.808 240.76 423.288 233.654C422.69 227.972 421.064 223.005 418.948 217.772C417.961 215.256 416.652 210.528 417.153 207.741C417.935 203.386 430.955 192.958 425.296 189.426" stroke="black"/>
<path d="M412.757 200.109C409.786 202.632 405.393 205.079 403.484 208.693C401.278 212.971 403.949 218.124 405.002 222.269C406.545 227.764 405.944 232.042 405.269 237.183L405.417 237.985C405.662 241.626 408.502 244.833 409.887 248.138C411.588 251.68 413.552 259.764 418.595 256.712C420.721 255.412 422.009 253.36 422.76 250.933L422.016 250.675C419.238 254.132 415.474 248.063 414.599 245.927C412.419 241.04 412.058 235.043 412.3 229.692C412.527 225.419 414.181 221.221 413.507 216.964C412.608 211.949 412.685 210.524 416.111 206.463C416.375 206.131 416.631 205.795 416.888 205.46C417.898 202.661 422.576 198.009 424.929 194.015C422.918 190.453 413.95 199.136 412.757 200.109Z" fill="#D0DEBF"/>
<path d="M551.996 71.0229C550.826 71.1236 549.629 71.3106 548.409 71.5873C542.73 72.885 537.182 76.5013 531.386 76.3705C527.661 76.2873 521.747 72.2227 518.337 75.0162C515.314 77.4945 514.476 87.568 513.079 91.4795C508.767 103.551 502.4 116.124 491.303 123.273C481.124 129.895 468.265 134.419 456.274 137.12C447.874 138.849 439.646 140.608 431.356 142.714C425.385 144.234 422.358 148.36 419.771 153.663C419.392 154.439 419.126 155.201 418.959 155.947C412.794 160.666 410.36 169.687 405.518 175.474C401.855 179.851 398.51 184.463 394.674 188.808C391.341 192.346 386.727 196.012 385.012 200.558C383.865 203.948 384.9 207.19 385.176 210.656C385.676 214.882 386.003 219.075 386.676 223.331C387.864 230.738 388.877 238.11 390.239 245.546C390.864 249.075 391.877 256.448 395.253 258.673L395.403 258.107L395.427 258.704C400.51 259.437 404.718 251.022 405.928 247.284C407.189 243.162 408.326 236.754 406.76 232.306C409.295 227.203 408.581 219.739 406.894 214.503L407.582 211.891C412.117 208.875 416.78 202.447 418.504 200.279C421.756 196.188 428.401 195.224 433.002 192.634C435.152 191.592 438.113 189.989 440.121 189.792C441.613 191.007 443.287 192.08 444.643 193.151C448.752 196.395 452.993 199.488 457.467 202.215C457.892 204.541 458.197 206.89 458.426 209.244L458.654 209.344C457.562 211.197 456.641 213.094 455.272 214.792C447.175 224.843 437.237 233.129 432.341 245.375C429.398 252.756 423.898 264.355 431.147 271.05C433.229 273.052 437.75 273.717 440.335 272.281C440.363 272.265 440.389 272.247 440.417 272.229C440.522 272.168 440.623 272.105 440.72 272.037C445.26 269.192 448.804 263.827 451.714 259.542C455.255 254.326 461.393 249.092 463.262 243.261L463.439 243.407C463.406 243.308 463.36 243.21 463.316 243.111C463.765 242.932 464.222 242.678 464.687 242.33C470.024 238.338 473.807 232.702 479.093 228.657C484.429 224.575 488.74 221.703 492.35 216.269C493.452 215.828 494.468 215.173 495.679 214.527C498.308 213.125 500.938 211.722 503.489 210.182C508.533 207.14 513.03 203.545 516.783 198.987C523.758 190.518 528.752 180.685 533.723 170.97C536.175 166.175 538.624 161.373 541.339 156.72C544.067 152.046 547.21 147.733 550.069 143.113C556.483 132.758 561.86 121.499 566.965 110.428C568.289 107.888 569.251 105.283 570.358 102.793C573.844 98.8645 574.06 95.5161 573.715 90.4237C572.865 77.937 563.844 70.0091 551.996 71.0229Z" fill="#F5FBF3"/>
<mask id="path-48-inside-2_1352_1660" fill="white">
<path d="M458.97 243.554C456.91 242.613 454.873 241.656 452.838 240.658C450.879 239.697 448.839 238.893 446.664 238.609C446.487 238.585 446.448 238.851 446.623 238.882C448.867 239.269 450.905 240.234 452.91 241.278C454.816 242.272 456.73 243.511 458.816 244.097C459.136 244.188 459.253 243.684 458.97 243.554ZM444.358 240.474C444.195 240.217 443.783 240.463 443.902 240.735C445.003 243.3 447.669 245.44 449.916 246.96C452.102 248.44 455.221 250.002 457.862 248.791C458.027 248.715 457.925 248.466 457.754 248.53C455.084 249.54 452.006 247.653 449.908 246.155C447.75 244.616 445.792 242.712 444.358 240.474ZM444.188 256.636C445.089 256.947 446.045 257.368 446.574 258.206C446.979 258.85 446.938 259.634 446.732 260.337C446.486 261.178 446.031 261.953 445.573 262.692C445.068 263.508 444.52 264.295 444.013 265.108C443.825 265.41 443.644 265.716 443.472 266.029C443.115 266.826 442.781 267.636 442.354 268.401C441.968 269.096 441.479 269.761 440.787 270.178C440.008 270.648 439.074 270.628 438.217 270.419C437.179 270.164 436.197 269.662 435.319 269.063C434.463 268.478 433.692 267.76 433.118 266.893C432.594 266.102 432.204 265.22 431.969 264.301C431.512 262.516 431.699 260.579 432.663 258.988C433.766 257.167 435.763 255.88 437.862 255.593C440.007 255.298 442.182 255.943 444.188 256.636ZM432.351 259.251C431.933 260.031 431.694 260.901 431.614 261.78C431.452 263.571 431.988 265.379 432.943 266.885C433.484 267.734 434.211 268.434 435.02 269.024C435.858 269.635 436.796 270.13 437.785 270.444C438.608 270.704 439.494 270.82 440.327 270.545C441.04 270.309 441.599 269.774 442.031 269.178C442.71 268.24 443.132 267.134 443.602 266.085C444.5 264.448 445.708 262.991 446.508 261.3C446.823 260.636 447.07 259.905 447.023 259.162C446.976 258.434 446.565 257.828 446.006 257.385C445.169 256.725 444.081 256.433 443.079 256.123C442.068 255.811 441.034 255.555 439.978 255.44C438.992 255.333 437.988 255.368 437.024 255.609C436.016 255.861 435.091 256.352 434.281 256.995C433.497 257.616 432.825 258.369 432.351 259.251ZM516.859 77.5009C514.445 86.6902 511.367 95.669 506.955 104.103C504.732 108.351 502.109 112.382 498.979 116.019C495.768 119.75 491.955 122.726 487.721 125.213C477.679 131.109 466.217 134.972 454.845 137.321C448.536 138.623 442.239 139.971 435.956 141.396C433.267 142.006 430.409 142.452 427.866 143.553C426.044 144.343 424.467 145.561 423.159 147.046C420.79 149.737 419.772 153.157 418.166 156.29C418.14 156.344 418.152 156.389 418.181 156.422C413.198 160.521 410.597 167.287 407.187 172.635C405.863 174.713 404.227 176.545 402.686 178.461C400.735 180.883 398.815 183.329 396.818 185.713C394.982 187.903 393.03 189.914 390.983 191.904C389.196 193.64 387.448 195.422 386.025 197.475C384.607 199.519 383.766 201.747 383.795 204.255C383.811 205.596 384.059 206.931 384.275 208.252C384.529 209.794 384.712 211.343 384.883 212.897C385.236 216.097 385.532 219.305 385.96 222.496C386.388 225.698 386.922 228.883 387.3 232.091C387.959 237.672 388.976 243.246 390.022 248.769C390.703 252.353 391.522 256.79 394.728 259.002C394.782 259.039 394.838 259.073 394.895 259.108C394.968 259.154 395.046 259.144 395.104 259.109C395.119 259.121 395.139 259.128 395.162 259.132C399.994 259.974 403.293 254.212 405.009 250.589C407.545 245.237 407.775 238.931 406.915 233.151C406.893 232.998 406.776 232.93 406.656 232.927C407.708 231.1 408.321 228.983 408.545 226.831C409.024 222.215 408.218 217.034 406.246 212.816C408.776 211.629 410.963 210.019 412.986 207.944C414.279 206.617 415.459 205.18 416.581 203.707C417.755 202.17 418.743 200.505 420.217 199.23C422.9 196.909 426.613 195.878 429.873 194.661C431.48 194.06 432.982 193.263 434.523 192.514C436.233 191.682 438.059 190.721 439.974 190.51C440.085 190.498 440.164 190.448 440.224 190.386C445.471 194.898 450.927 199.15 456.965 202.558C457.415 204.874 457.765 207.211 458.046 209.55C458.057 209.633 458.122 209.668 458.186 209.664C455.957 213.792 452.552 217.279 449.539 220.821C446.159 224.793 442.615 228.677 439.383 232.771C436.189 236.817 433.464 241.162 431.491 245.932C429.719 250.214 427.865 254.507 427.092 259.105C426.333 263.618 427.028 268.205 430.381 271.525C431.814 272.943 433.812 273.587 435.784 273.767C437.624 273.935 439.225 273.5 440.632 272.4C443.291 270.781 445.56 268.645 447.511 266.221C449.606 263.618 451.304 260.726 453.404 258.13C457.058 253.615 462.374 249.655 463.46 243.623C463.46 243.622 463.461 243.622 463.461 243.622C466.503 241.753 468.997 239.448 471.443 236.863C473.992 234.17 476.487 231.446 479.445 229.188C484.175 225.579 489.272 221.57 492.465 216.419C492.514 216.493 492.603 216.54 492.696 216.496C497.486 214.213 502.232 211.936 506.663 208.987C511.206 205.967 514.989 202.282 518.34 197.993C525.616 188.679 530.504 177.84 535.882 167.394C538.774 161.781 541.782 156.282 545.342 151.06C548.755 146.055 551.998 140.993 554.936 135.692C557.92 130.307 560.554 124.754 563.176 119.189C564.481 116.418 565.764 113.638 567.039 110.855C568.289 108.127 569.423 105.356 570.644 102.615C570.977 101.869 571.339 101.136 571.721 100.413C571.888 100.095 571.382 99.8847 571.214 100.194C569.791 102.792 568.734 105.569 567.521 108.267C566.269 111.054 564.91 113.803 563.596 116.561C560.948 122.12 558.123 127.587 555.206 133.011C549.369 143.859 542.145 153.857 536.406 164.762C530.834 175.351 525.62 186.2 518.458 195.843C515.111 200.35 511.337 204.289 506.735 207.526C502.383 210.588 497.633 213.091 493.073 215.823C492.947 215.898 492.821 215.974 492.695 216.05C492.894 215.715 493.086 215.379 493.268 215.035C493.363 214.858 493.076 214.688 492.966 214.856C491.07 217.745 489.087 220.319 486.458 222.587C483.956 224.746 481.135 226.499 478.513 228.503C472.866 232.817 468.92 238.973 463.18 243.182C462.002 240.369 458.543 238.97 456.062 237.574C455.894 237.481 455.73 237.758 455.891 237.862C457.117 238.648 458.352 239.41 459.541 240.255C460.801 241.152 462.33 242.199 462.991 243.657C460.665 249.143 456.286 252.955 452.572 257.479C448.68 262.219 445.948 268.269 440.836 271.897C440.81 271.899 440.783 271.906 440.755 271.928C439.266 273.14 436.662 273.021 434.889 272.698C432.514 272.266 430.775 270.857 429.48 268.865C426.795 264.733 427.848 259.279 429.168 254.876C429.847 252.611 430.721 250.411 431.587 248.212C432.484 245.931 433.38 243.665 434.484 241.473C436.851 236.77 440.12 232.466 443.539 228.486C446.351 225.211 449.506 222.26 452.351 219.016C453.835 217.322 455.284 215.633 456.497 213.733C457.654 211.924 458.563 209.979 459.32 207.972C459.384 207.803 459.133 207.693 459.061 207.86C458.831 208.394 458.577 208.913 458.308 209.424C458.046 206.097 457.642 202.741 456.884 199.486C456.14 196.294 454.997 193.296 453.664 190.306C453.591 190.14 453.333 190.246 453.403 190.414C454.97 194.166 456.068 198.075 456.865 202.049C450.137 197.536 443.729 192.548 437.401 187.501C437.24 187.374 437.055 187.616 437.206 187.749C437.944 188.405 438.688 189.056 439.433 189.703C436.13 190.239 433.116 192.414 430.131 193.789C426.9 195.276 423.403 196.18 420.39 198.118C418.938 199.052 417.945 200.184 416.905 201.543C415.701 203.116 414.491 204.681 413.185 206.171C410.6 209.117 407.415 211.88 403.814 213.495C403.649 213.57 403.75 213.814 403.921 213.755C404.537 213.547 405.127 213.308 405.704 213.056C407.179 217.283 407.93 221.754 407.627 226.238C407.321 230.734 405.784 235.446 401.338 237.329C401.179 237.396 401.28 237.639 401.438 237.576C403.61 236.7 405.241 235.196 406.399 233.358C407.064 238.626 406.537 244.455 404.47 249.368C403.555 251.544 402.372 253.636 400.895 255.481C399.5 257.222 397.594 259.011 395.204 258.853C395.188 258.852 395.174 258.856 395.16 258.859C395.149 258.844 395.14 258.829 395.122 258.816C393.574 257.643 392.798 255.478 392.2 253.695C391.529 251.693 391.135 249.605 390.777 247.529C389.777 241.715 388.868 235.884 387.816 230.081C386.663 223.718 385.904 217.336 385.21 210.911C384.903 208.066 384.387 205.113 384.879 202.264C385.327 199.665 387.156 197.385 388.854 195.463C390.408 193.703 392.12 192.09 393.757 190.408C395.664 188.449 397.337 186.263 399.024 184.114C400.787 181.867 402.524 179.6 404.321 177.378C405.64 175.745 406.931 174.145 408.028 172.35C412.051 165.765 414.823 157.16 422.741 154.288C423.027 154.184 422.847 153.744 422.563 153.854C421.076 154.42 419.761 155.187 418.578 156.103C419.59 154.287 420.643 152.499 421.753 150.74C422.834 149.029 423.99 147.423 425.563 146.126C427.448 144.571 429.715 143.85 432.038 143.235C435.243 142.385 438.46 141.596 441.692 140.849C447.786 139.442 453.957 138.324 460.02 136.784C465.554 135.376 471.003 133.626 476.299 131.491C485.724 127.69 494.926 122.739 501.385 114.703C507.376 107.247 511.168 98.3014 514.057 89.2554C515.29 85.3999 516.39 81.5017 517.384 77.5798C517.469 77.246 516.945 77.1749 516.859 77.5009Z"/>
</mask>
<path d="M458.97 243.554C456.91 242.613 454.873 241.656 452.838 240.658C450.879 239.697 448.839 238.893 446.664 238.609C446.487 238.585 446.448 238.851 446.623 238.882C448.867 239.269 450.905 240.234 452.91 241.278C454.816 242.272 456.73 243.511 458.816 244.097C459.136 244.188 459.253 243.684 458.97 243.554ZM444.358 240.474C444.195 240.217 443.783 240.463 443.902 240.735C445.003 243.3 447.669 245.44 449.916 246.96C452.102 248.44 455.221 250.002 457.862 248.791C458.027 248.715 457.925 248.466 457.754 248.53C455.084 249.54 452.006 247.653 449.908 246.155C447.75 244.616 445.792 242.712 444.358 240.474ZM444.188 256.636C445.089 256.947 446.045 257.368 446.574 258.206C446.979 258.85 446.938 259.634 446.732 260.337C446.486 261.178 446.031 261.953 445.573 262.692C445.068 263.508 444.52 264.295 444.013 265.108C443.825 265.41 443.644 265.716 443.472 266.029C443.115 266.826 442.781 267.636 442.354 268.401C441.968 269.096 441.479 269.761 440.787 270.178C440.008 270.648 439.074 270.628 438.217 270.419C437.179 270.164 436.197 269.662 435.319 269.063C434.463 268.478 433.692 267.76 433.118 266.893C432.594 266.102 432.204 265.22 431.969 264.301C431.512 262.516 431.699 260.579 432.663 258.988C433.766 257.167 435.763 255.88 437.862 255.593C440.007 255.298 442.182 255.943 444.188 256.636ZM432.351 259.251C431.933 260.031 431.694 260.901 431.614 261.78C431.452 263.571 431.988 265.379 432.943 266.885C433.484 267.734 434.211 268.434 435.02 269.024C435.858 269.635 436.796 270.13 437.785 270.444C438.608 270.704 439.494 270.82 440.327 270.545C441.04 270.309 441.599 269.774 442.031 269.178C442.71 268.24 443.132 267.134 443.602 266.085C444.5 264.448 445.708 262.991 446.508 261.3C446.823 260.636 447.07 259.905 447.023 259.162C446.976 258.434 446.565 257.828 446.006 257.385C445.169 256.725 444.081 256.433 443.079 256.123C442.068 255.811 441.034 255.555 439.978 255.44C438.992 255.333 437.988 255.368 437.024 255.609C436.016 255.861 435.091 256.352 434.281 256.995C433.497 257.616 432.825 258.369 432.351 259.251ZM516.859 77.5009C514.445 86.6902 511.367 95.669 506.955 104.103C504.732 108.351 502.109 112.382 498.979 116.019C495.768 119.75 491.955 122.726 487.721 125.213C477.679 131.109 466.217 134.972 454.845 137.321C448.536 138.623 442.239 139.971 435.956 141.396C433.267 142.006 430.409 142.452 427.866 143.553C426.044 144.343 424.467 145.561 423.159 147.046C420.79 149.737 419.772 153.157 418.166 156.29C418.14 156.344 418.152 156.389 418.181 156.422C413.198 160.521 410.597 167.287 407.187 172.635C405.863 174.713 404.227 176.545 402.686 178.461C400.735 180.883 398.815 183.329 396.818 185.713C394.982 187.903 393.03 189.914 390.983 191.904C389.196 193.64 387.448 195.422 386.025 197.475C384.607 199.519 383.766 201.747 383.795 204.255C383.811 205.596 384.059 206.931 384.275 208.252C384.529 209.794 384.712 211.343 384.883 212.897C385.236 216.097 385.532 219.305 385.96 222.496C386.388 225.698 386.922 228.883 387.3 232.091C387.959 237.672 388.976 243.246 390.022 248.769C390.703 252.353 391.522 256.79 394.728 259.002C394.782 259.039 394.838 259.073 394.895 259.108C394.968 259.154 395.046 259.144 395.104 259.109C395.119 259.121 395.139 259.128 395.162 259.132C399.994 259.974 403.293 254.212 405.009 250.589C407.545 245.237 407.775 238.931 406.915 233.151C406.893 232.998 406.776 232.93 406.656 232.927C407.708 231.1 408.321 228.983 408.545 226.831C409.024 222.215 408.218 217.034 406.246 212.816C408.776 211.629 410.963 210.019 412.986 207.944C414.279 206.617 415.459 205.18 416.581 203.707C417.755 202.17 418.743 200.505 420.217 199.23C422.9 196.909 426.613 195.878 429.873 194.661C431.48 194.06 432.982 193.263 434.523 192.514C436.233 191.682 438.059 190.721 439.974 190.51C440.085 190.498 440.164 190.448 440.224 190.386C445.471 194.898 450.927 199.15 456.965 202.558C457.415 204.874 457.765 207.211 458.046 209.55C458.057 209.633 458.122 209.668 458.186 209.664C455.957 213.792 452.552 217.279 449.539 220.821C446.159 224.793 442.615 228.677 439.383 232.771C436.189 236.817 433.464 241.162 431.491 245.932C429.719 250.214 427.865 254.507 427.092 259.105C426.333 263.618 427.028 268.205 430.381 271.525C431.814 272.943 433.812 273.587 435.784 273.767C437.624 273.935 439.225 273.5 440.632 272.4C443.291 270.781 445.56 268.645 447.511 266.221C449.606 263.618 451.304 260.726 453.404 258.13C457.058 253.615 462.374 249.655 463.46 243.623C463.46 243.622 463.461 243.622 463.461 243.622C466.503 241.753 468.997 239.448 471.443 236.863C473.992 234.17 476.487 231.446 479.445 229.188C484.175 225.579 489.272 221.57 492.465 216.419C492.514 216.493 492.603 216.54 492.696 216.496C497.486 214.213 502.232 211.936 506.663 208.987C511.206 205.967 514.989 202.282 518.34 197.993C525.616 188.679 530.504 177.84 535.882 167.394C538.774 161.781 541.782 156.282 545.342 151.06C548.755 146.055 551.998 140.993 554.936 135.692C557.92 130.307 560.554 124.754 563.176 119.189C564.481 116.418 565.764 113.638 567.039 110.855C568.289 108.127 569.423 105.356 570.644 102.615C570.977 101.869 571.339 101.136 571.721 100.413C571.888 100.095 571.382 99.8847 571.214 100.194C569.791 102.792 568.734 105.569 567.521 108.267C566.269 111.054 564.91 113.803 563.596 116.561C560.948 122.12 558.123 127.587 555.206 133.011C549.369 143.859 542.145 153.857 536.406 164.762C530.834 175.351 525.62 186.2 518.458 195.843C515.111 200.35 511.337 204.289 506.735 207.526C502.383 210.588 497.633 213.091 493.073 215.823C492.947 215.898 492.821 215.974 492.695 216.05C492.894 215.715 493.086 215.379 493.268 215.035C493.363 214.858 493.076 214.688 492.966 214.856C491.07 217.745 489.087 220.319 486.458 222.587C483.956 224.746 481.135 226.499 478.513 228.503C472.866 232.817 468.92 238.973 463.18 243.182C462.002 240.369 458.543 238.97 456.062 237.574C455.894 237.481 455.73 237.758 455.891 237.862C457.117 238.648 458.352 239.41 459.541 240.255C460.801 241.152 462.33 242.199 462.991 243.657C460.665 249.143 456.286 252.955 452.572 257.479C448.68 262.219 445.948 268.269 440.836 271.897C440.81 271.899 440.783 271.906 440.755 271.928C439.266 273.14 436.662 273.021 434.889 272.698C432.514 272.266 430.775 270.857 429.48 268.865C426.795 264.733 427.848 259.279 429.168 254.876C429.847 252.611 430.721 250.411 431.587 248.212C432.484 245.931 433.38 243.665 434.484 241.473C436.851 236.77 440.12 232.466 443.539 228.486C446.351 225.211 449.506 222.26 452.351 219.016C453.835 217.322 455.284 215.633 456.497 213.733C457.654 211.924 458.563 209.979 459.32 207.972C459.384 207.803 459.133 207.693 459.061 207.86C458.831 208.394 458.577 208.913 458.308 209.424C458.046 206.097 457.642 202.741 456.884 199.486C456.14 196.294 454.997 193.296 453.664 190.306C453.591 190.14 453.333 190.246 453.403 190.414C454.97 194.166 456.068 198.075 456.865 202.049C450.137 197.536 443.729 192.548 437.401 187.501C437.24 187.374 437.055 187.616 437.206 187.749C437.944 188.405 438.688 189.056 439.433 189.703C436.13 190.239 433.116 192.414 430.131 193.789C426.9 195.276 423.403 196.18 420.39 198.118C418.938 199.052 417.945 200.184 416.905 201.543C415.701 203.116 414.491 204.681 413.185 206.171C410.6 209.117 407.415 211.88 403.814 213.495C403.649 213.57 403.75 213.814 403.921 213.755C404.537 213.547 405.127 213.308 405.704 213.056C407.179 217.283 407.93 221.754 407.627 226.238C407.321 230.734 405.784 235.446 401.338 237.329C401.179 237.396 401.28 237.639 401.438 237.576C403.61 236.7 405.241 235.196 406.399 233.358C407.064 238.626 406.537 244.455 404.47 249.368C403.555 251.544 402.372 253.636 400.895 255.481C399.5 257.222 397.594 259.011 395.204 258.853C395.188 258.852 395.174 258.856 395.16 258.859C395.149 258.844 395.14 258.829 395.122 258.816C393.574 257.643 392.798 255.478 392.2 253.695C391.529 251.693 391.135 249.605 390.777 247.529C389.777 241.715 388.868 235.884 387.816 230.081C386.663 223.718 385.904 217.336 385.21 210.911C384.903 208.066 384.387 205.113 384.879 202.264C385.327 199.665 387.156 197.385 388.854 195.463C390.408 193.703 392.12 192.09 393.757 190.408C395.664 188.449 397.337 186.263 399.024 184.114C400.787 181.867 402.524 179.6 404.321 177.378C405.64 175.745 406.931 174.145 408.028 172.35C412.051 165.765 414.823 157.16 422.741 154.288C423.027 154.184 422.847 153.744 422.563 153.854C421.076 154.42 419.761 155.187 418.578 156.103C419.59 154.287 420.643 152.499 421.753 150.74C422.834 149.029 423.99 147.423 425.563 146.126C427.448 144.571 429.715 143.85 432.038 143.235C435.243 142.385 438.46 141.596 441.692 140.849C447.786 139.442 453.957 138.324 460.02 136.784C465.554 135.376 471.003 133.626 476.299 131.491C485.724 127.69 494.926 122.739 501.385 114.703C507.376 107.247 511.168 98.3014 514.057 89.2554C515.29 85.3999 516.39 81.5017 517.384 77.5798C517.469 77.246 516.945 77.1749 516.859 77.5009Z" fill="#525252"/>
<path d="M452.838 240.658L451.517 243.352L451.516 243.351L452.838 240.658ZM446.664 238.609L446.275 241.583L446.269 241.582L446.664 238.609ZM446.623 238.882L446.113 241.839L446.102 241.837L446.623 238.882ZM452.91 241.278L454.296 238.618L454.297 238.618L452.91 241.278ZM458.816 244.097L459.626 241.209L459.633 241.21L458.816 244.097ZM444.358 240.474L441.832 242.092L441.827 242.083L444.358 240.474ZM443.902 240.735L446.652 239.537L446.655 239.544L446.658 239.551L443.902 240.735ZM449.916 246.96L448.234 249.445L448.234 249.445L449.916 246.96ZM457.862 248.791L459.127 251.512L459.12 251.515L459.112 251.519L457.862 248.791ZM457.754 248.53L456.692 245.724L456.702 245.721L457.754 248.53ZM449.908 246.155L451.651 243.713L451.651 243.714L449.908 246.155ZM446.574 258.206L449.111 256.606L449.113 256.608L446.574 258.206ZM446.732 260.337L443.852 259.495L443.853 259.492L446.732 260.337ZM445.573 262.692L443.021 261.113L443.024 261.11L445.573 262.692ZM444.013 265.108L441.465 263.525L441.467 263.521L444.013 265.108ZM443.472 266.029L440.736 264.8L440.784 264.692L440.841 264.589L443.472 266.029ZM442.354 268.401L439.732 266.943L439.735 266.937L442.354 268.401ZM440.787 270.178L442.337 272.747L442.336 272.747L440.787 270.178ZM438.217 270.419L437.506 273.333L437.503 273.332L438.217 270.419ZM435.319 269.063L437.01 266.585L437.012 266.586L435.319 269.063ZM433.118 266.893L430.617 268.551L430.616 268.548L433.118 266.893ZM431.969 264.301L429.063 265.045L429.063 265.045L431.969 264.301ZM432.663 258.988L430.097 257.434L430.097 257.433L432.663 258.988ZM437.862 255.593L438.27 258.565L438.269 258.565L437.862 255.593ZM431.614 261.78L434.602 262.052L434.602 262.052L431.614 261.78ZM432.943 266.885L430.413 268.497L430.41 268.492L432.943 266.885ZM435.02 269.024L433.253 271.449L433.253 271.449L435.02 269.024ZM437.785 270.444L436.882 273.305L436.877 273.303L437.785 270.444ZM440.327 270.545L441.272 273.393L441.268 273.394L440.327 270.545ZM442.031 269.178L444.46 270.938L444.46 270.939L442.031 269.178ZM443.602 266.085L440.865 264.857L440.914 264.748L440.972 264.642L443.602 266.085ZM446.508 261.3L443.796 260.017L443.798 260.014L446.508 261.3ZM447.023 259.162L450.017 258.968L450.017 258.972L447.023 259.162ZM446.006 257.385L447.864 255.029L447.868 255.033L446.006 257.385ZM443.079 256.123L443.964 253.257L443.964 253.257L443.079 256.123ZM439.978 255.44L440.302 252.458L440.303 252.458L439.978 255.44ZM437.024 255.609L436.295 252.699L436.297 252.699L437.024 255.609ZM434.281 256.995L436.145 259.345L436.144 259.345L434.281 256.995ZM506.955 104.103L509.613 105.494L509.613 105.494L506.955 104.103ZM498.979 116.019L501.253 117.976L501.253 117.977L498.979 116.019ZM487.721 125.213L489.24 127.8L489.24 127.8L487.721 125.213ZM454.845 137.321L455.452 140.259L455.452 140.259L454.845 137.321ZM435.956 141.396L435.292 138.47L435.292 138.47L435.956 141.396ZM427.866 143.553L426.673 140.8L426.675 140.8L427.866 143.553ZM423.159 147.046L425.411 149.028L425.411 149.029L423.159 147.046ZM418.166 156.29L415.477 154.96L415.487 154.941L415.497 154.922L418.166 156.29ZM418.181 156.422L420.443 154.451L422.471 156.778L420.087 158.739L418.181 156.422ZM407.187 172.635L404.658 171.023L404.658 171.023L407.187 172.635ZM402.686 178.461L405.023 180.341L405.022 180.342L402.686 178.461ZM396.818 185.713L399.117 187.64L399.117 187.64L396.818 185.713ZM390.983 191.904L393.074 194.055L393.073 194.056L390.983 191.904ZM386.025 197.475L388.491 199.184L388.49 199.185L386.025 197.475ZM383.795 204.255L380.796 204.29L380.796 204.29L383.795 204.255ZM384.275 208.252L381.315 208.74L381.315 208.737L384.275 208.252ZM384.883 212.897L387.865 212.567L387.865 212.568L384.883 212.897ZM385.96 222.496L388.933 222.098L388.933 222.098L385.96 222.496ZM387.3 232.091L384.321 232.443L384.321 232.442L387.3 232.091ZM390.022 248.769L387.075 249.328L387.074 249.327L390.022 248.769ZM394.728 259.002L393.051 261.49L393.037 261.481L393.024 261.471L394.728 259.002ZM394.895 259.108L396.456 256.546L396.476 256.558L396.496 256.571L394.895 259.108ZM395.104 259.109L393.553 256.541L395.313 255.478L396.94 256.737L395.104 259.109ZM395.162 259.132L395.631 256.169L395.654 256.173L395.678 256.177L395.162 259.132ZM405.009 250.589L402.297 249.305L402.298 249.304L405.009 250.589ZM406.915 233.151L403.948 233.592L403.947 233.585L406.915 233.151ZM406.656 232.927L406.584 235.926L401.539 235.805L404.056 231.431L406.656 232.927ZM408.545 226.831L411.529 227.141L411.529 227.141L408.545 226.831ZM406.246 212.816L403.528 214.086L402.259 211.371L404.972 210.099L406.246 212.816ZM412.986 207.944L415.134 210.037L415.134 210.037L412.986 207.944ZM416.581 203.707L414.195 201.889L414.197 201.887L416.581 203.707ZM420.217 199.23L418.254 196.961L418.255 196.961L420.217 199.23ZM429.873 194.661L430.924 197.471L430.922 197.472L429.873 194.661ZM434.523 192.514L435.835 195.212L435.834 195.212L434.523 192.514ZM439.974 190.51L440.306 193.492L440.302 193.492L439.974 190.51ZM440.224 190.386L438.061 188.307L440.028 186.26L442.181 188.111L440.224 190.386ZM456.965 202.558L458.44 199.946L459.646 200.626L459.91 201.986L456.965 202.558ZM458.046 209.55L455.069 209.918L455.068 209.908L458.046 209.55ZM458.186 209.664L457.955 206.672L463.438 206.249L460.826 211.088L458.186 209.664ZM449.539 220.821L447.254 218.877L447.254 218.877L449.539 220.821ZM439.383 232.771L437.028 230.912L437.028 230.912L439.383 232.771ZM431.491 245.932L434.263 247.079L434.263 247.079L431.491 245.932ZM427.092 259.105L424.133 258.607L424.133 258.607L427.092 259.105ZM430.381 271.525L428.271 273.657L428.27 273.656L430.381 271.525ZM435.784 273.767L436.056 270.779L436.056 270.779L435.784 273.767ZM440.632 272.4L438.783 270.037L438.922 269.928L439.072 269.837L440.632 272.4ZM447.511 266.221L445.175 264.34L445.175 264.34L447.511 266.221ZM453.404 258.13L451.072 256.243L451.072 256.243L453.404 258.13ZM463.46 243.623L465.929 241.918L466.632 242.937L466.413 244.154L463.46 243.623ZM463.461 243.622L465.032 246.178L464.501 246.505L463.883 246.592L463.461 243.622ZM471.443 236.863L469.264 234.801L469.264 234.801L471.443 236.863ZM479.445 229.188L477.625 226.804L477.625 226.804L479.445 229.188ZM492.465 216.419L489.916 214.838L492.406 210.821L494.981 214.784L492.465 216.419ZM492.696 216.496L493.987 219.204L493.982 219.207L492.696 216.496ZM506.663 208.987L505.001 206.49L505.002 206.489L506.663 208.987ZM518.34 197.993L520.704 199.84L520.704 199.84L518.34 197.993ZM535.882 167.394L533.215 166.021L533.215 166.021L535.882 167.394ZM545.342 151.06L547.821 152.75L547.821 152.75L545.342 151.06ZM554.936 135.692L552.312 134.238L552.312 134.238L554.936 135.692ZM563.176 119.189L565.891 120.467L565.89 120.467L563.176 119.189ZM567.039 110.855L569.767 112.105L569.767 112.105L567.039 110.855ZM570.644 102.615L567.904 101.394L567.905 101.393L570.644 102.615ZM571.721 100.413L574.376 101.81L574.374 101.814L571.721 100.413ZM571.214 100.194L573.847 101.631L573.845 101.634L571.214 100.194ZM567.521 108.267L564.785 107.038L564.785 107.037L567.521 108.267ZM563.596 116.561L566.305 117.851L566.305 117.852L563.596 116.561ZM555.206 133.011L557.848 134.432L557.848 134.432L555.206 133.011ZM536.406 164.762L539.061 166.159L539.061 166.159L536.406 164.762ZM518.458 195.843L520.867 197.632L520.867 197.632L518.458 195.843ZM506.735 207.526L505.009 205.072L505.009 205.072L506.735 207.526ZM493.073 215.823L494.615 218.396L494.608 218.4L493.073 215.823ZM492.695 216.05L494.244 218.619L490.116 214.518L492.695 216.05ZM493.268 215.035L490.615 213.634L490.62 213.623L490.626 213.613L493.268 215.035ZM492.966 214.856L495.478 216.496L495.475 216.502L492.966 214.856ZM486.458 222.587L488.417 224.859L488.417 224.859L486.458 222.587ZM478.513 228.503L480.334 230.886L480.334 230.887L478.513 228.503ZM463.18 243.182L464.954 245.602L461.883 247.854L460.413 244.341L463.18 243.182ZM456.062 237.574L457.518 234.951L457.526 234.955L457.533 234.959L456.062 237.574ZM455.891 237.862L454.271 240.387L454.266 240.383L455.891 237.862ZM459.541 240.255L461.28 237.811L461.28 237.811L459.541 240.255ZM462.991 243.657L465.723 242.417L466.267 243.616L465.753 244.828L462.991 243.657ZM452.572 257.479L454.891 259.383L454.891 259.383L452.572 257.479ZM440.836 271.897L442.573 274.344L441.906 274.817L441.091 274.886L440.836 271.897ZM440.755 271.928L438.862 269.601L438.872 269.592L438.883 269.584L440.755 271.928ZM434.889 272.698L435.426 269.746L435.427 269.747L434.889 272.698ZM429.48 268.865L426.965 270.5L426.965 270.5L429.48 268.865ZM429.168 254.876L426.294 254.014L426.294 254.014L429.168 254.876ZM431.587 248.212L434.379 249.31L434.378 249.311L431.587 248.212ZM434.484 241.473L437.163 242.822L437.163 242.822L434.484 241.473ZM443.539 228.486L445.815 230.44L445.815 230.44L443.539 228.486ZM452.351 219.016L454.607 220.993L454.606 220.994L452.351 219.016ZM456.497 213.733L453.969 212.118L453.969 212.118L456.497 213.733ZM459.32 207.972L462.128 209.027L462.127 209.031L459.32 207.972ZM459.061 207.86L456.306 206.672L456.307 206.671L459.061 207.86ZM458.308 209.424L460.964 210.82L456.135 220.012L455.318 209.66L458.308 209.424ZM456.884 199.486L459.806 198.805L459.806 198.806L456.884 199.486ZM453.664 190.306L450.924 191.528L450.921 191.52L453.664 190.306ZM453.403 190.414L456.168 189.249L456.172 189.258L453.403 190.414ZM456.865 202.049L459.807 201.459L461.237 208.593L455.194 204.54L456.865 202.049ZM437.401 187.501L439.261 185.148L439.272 185.156L437.401 187.501ZM437.206 187.749L439.19 185.499L439.198 185.506L437.206 187.749ZM439.433 189.703L441.399 187.437L446.239 191.636L439.914 192.664L439.433 189.703ZM430.131 193.789L428.876 191.063L428.876 191.063L430.131 193.789ZM420.39 198.118L418.767 195.595L418.767 195.594L420.39 198.118ZM416.905 201.543L419.287 203.367L419.287 203.368L416.905 201.543ZM413.185 206.171L415.44 208.149L415.44 208.149L413.185 206.171ZM403.814 213.495L402.575 210.762L402.586 210.758L403.814 213.495ZM403.921 213.755L402.945 210.919L402.952 210.916L402.959 210.914L403.921 213.755ZM405.704 213.056L404.503 210.307L407.471 209.01L408.537 212.068L405.704 213.056ZM407.627 226.238L410.62 226.44L410.62 226.441L407.627 226.238ZM401.338 237.329L400.166 234.568L400.167 234.567L401.338 237.329ZM401.438 237.576L402.56 240.358L402.552 240.361L401.438 237.576ZM406.399 233.358L403.862 231.759L408.328 224.673L409.376 232.983L406.399 233.358ZM404.47 249.368L401.705 248.205L401.705 248.204L404.47 249.368ZM400.895 255.481L403.238 257.356L403.237 257.357L400.895 255.481ZM395.204 258.853L395.006 261.847L394.992 261.846L395.204 258.853ZM395.16 258.859L395.732 261.804L393.9 262.16L392.771 260.674L395.16 258.859ZM395.122 258.816L393.376 261.256L393.343 261.232L393.31 261.207L395.122 258.816ZM392.2 253.695L389.356 254.649L389.356 254.649L392.2 253.695ZM390.777 247.529L387.82 248.039L387.82 248.037L390.777 247.529ZM387.816 230.081L384.864 230.616L384.864 230.616L387.816 230.081ZM385.21 210.911L382.227 211.234L382.227 211.233L385.21 210.911ZM384.879 202.264L387.835 202.774L387.835 202.774L384.879 202.264ZM388.854 195.463L391.103 197.448L391.103 197.449L388.854 195.463ZM393.757 190.408L395.907 192.501L395.907 192.501L393.757 190.408ZM399.024 184.114L401.384 185.966L401.384 185.967L399.024 184.114ZM404.321 177.378L406.654 179.263L406.654 179.264L404.321 177.378ZM408.028 172.35L410.588 173.914L410.588 173.914L408.028 172.35ZM422.741 154.288L423.766 157.107L423.764 157.108L422.741 154.288ZM422.563 153.854L423.638 156.654L423.631 156.657L422.563 153.854ZM418.578 156.103L420.415 158.475L415.957 154.644L418.578 156.103ZM421.753 150.74L419.217 149.139L419.217 149.138L421.753 150.74ZM425.563 146.126L423.654 143.812L423.654 143.812L425.563 146.126ZM432.038 143.235L432.807 146.135L432.807 146.135L432.038 143.235ZM441.692 140.849L441.016 137.926L441.017 137.925L441.692 140.849ZM460.02 136.784L460.759 139.691L460.759 139.691L460.02 136.784ZM476.299 131.491L477.422 134.273L477.421 134.273L476.299 131.491ZM501.385 114.703L503.723 116.582L503.723 116.583L501.385 114.703ZM514.057 89.2554L511.199 88.3427L511.2 88.3416L514.057 89.2554ZM517.384 77.5798L514.475 76.8431L514.477 76.8357L517.384 77.5798ZM457.723 246.283C455.645 245.333 453.583 244.365 451.517 243.352L454.158 237.965C456.164 238.948 458.176 239.892 460.217 240.825L457.723 246.283ZM451.516 243.351C449.682 242.451 447.981 241.806 446.275 241.583L447.054 235.634C449.697 235.98 452.076 236.942 454.16 237.965L451.516 243.351ZM446.269 241.582C447.032 241.684 447.858 241.473 448.507 240.918C449.101 240.411 449.391 239.753 449.479 239.167C449.566 238.582 449.479 237.878 449.071 237.228C448.626 236.519 447.912 236.063 447.144 235.928L446.102 241.837C445.246 241.686 444.471 241.185 443.99 240.418C443.546 239.711 443.447 238.936 443.544 238.283C443.642 237.63 443.964 236.908 444.61 236.356C445.311 235.757 446.208 235.521 447.06 235.635L446.269 241.582ZM447.132 235.926C449.871 236.398 452.265 237.56 454.296 238.618L451.524 243.939C449.546 242.909 447.863 242.14 446.113 241.839L447.132 235.926ZM454.297 238.618C456.558 239.797 457.94 240.735 459.626 241.209L458.005 246.985C455.519 246.288 453.075 244.748 451.523 243.938L454.297 238.618ZM459.633 241.21C458.886 240.999 458.008 241.106 457.282 241.62C456.64 242.074 456.337 242.685 456.215 243.154C456.005 243.964 456.145 245.56 457.721 246.282L460.219 240.826C462.079 241.678 462.301 243.59 462.023 244.662C461.867 245.262 461.493 245.99 460.748 246.517C459.918 247.104 458.906 247.24 457.998 246.983L459.633 241.21ZM441.827 242.083C442.251 242.75 442.957 243.217 443.765 243.336C444.489 243.443 445.109 243.247 445.54 242.995C446.313 242.543 447.379 241.207 446.652 239.537L441.151 241.932C440.306 239.991 441.518 238.397 442.509 237.817C443.048 237.501 443.794 237.276 444.638 237.4C445.565 237.536 446.384 238.068 446.89 238.864L441.827 242.083ZM446.658 239.551C447.383 241.24 449.361 242.962 451.597 244.476L448.234 249.445C445.978 247.917 442.623 245.361 441.145 241.918L446.658 239.551ZM451.597 244.476C452.578 245.14 453.622 245.717 454.598 246.016C455.567 246.314 456.192 246.257 456.612 246.064L459.112 251.519C456.892 252.536 454.636 252.304 452.839 251.753C451.049 251.204 449.439 250.26 448.234 249.445L451.597 244.476ZM456.597 246.071C455.915 246.388 455.349 246.986 455.091 247.766C454.852 248.487 454.93 249.192 455.159 249.749C455.389 250.307 455.834 250.871 456.526 251.217C457.276 251.592 458.107 251.601 458.806 251.34L456.702 245.721C457.487 245.427 458.394 245.444 459.206 245.849C459.961 246.226 460.453 246.846 460.708 247.467C461.231 248.737 460.921 250.677 459.127 251.512L456.597 246.071ZM458.815 251.336C456.505 252.21 454.239 251.746 452.526 251.078C450.802 250.405 449.262 249.38 448.165 248.597L451.651 243.714C452.652 244.428 453.7 245.095 454.707 245.488C455.725 245.886 456.333 245.86 456.692 245.724L458.815 251.336ZM448.166 248.597C445.766 246.885 443.514 244.717 441.832 242.092L446.884 238.855C448.07 240.707 449.735 242.346 451.651 243.713L448.166 248.597ZM445.168 253.8C446.08 254.116 447.976 254.805 449.111 256.606L444.036 259.806C444.094 259.897 444.125 259.884 443.985 259.801C443.831 259.709 443.595 259.605 443.208 259.471L445.168 253.8ZM449.113 256.608C450.181 258.304 449.925 260.111 449.61 261.183L443.853 259.492C443.891 259.364 443.883 259.326 443.885 259.369C443.887 259.43 443.909 259.605 444.035 259.805L449.113 256.608ZM449.611 261.18C449.238 262.453 448.579 263.536 448.121 264.274L443.024 261.11C443.483 260.37 443.733 259.903 443.852 259.495L449.611 261.18ZM448.124 264.27C447.846 264.719 447.561 265.153 447.3 265.55C447.032 265.957 446.789 266.326 446.559 266.696L441.467 263.521C441.744 263.078 442.029 262.646 442.287 262.252C442.553 261.848 442.794 261.481 443.021 261.113L448.124 264.27ZM446.561 266.691C446.394 266.961 446.242 267.218 446.104 267.47L440.841 264.589C441.045 264.215 441.257 263.86 441.465 263.525L446.561 266.691ZM446.209 267.258C445.904 267.937 445.485 268.948 444.973 269.864L439.735 266.937C440.078 266.324 440.325 265.714 440.736 264.8L446.209 267.258ZM444.976 269.859C444.49 270.733 443.688 271.932 442.337 272.747L439.238 267.609C439.245 267.605 439.297 267.572 439.39 267.462C439.485 267.349 439.598 267.183 439.732 266.943L444.976 269.859ZM442.336 272.747C440.585 273.803 438.719 273.629 437.506 273.333L438.928 267.504C439.147 267.558 439.283 267.563 439.343 267.559C439.39 267.556 439.332 267.552 439.238 267.609L442.336 272.747ZM437.503 273.332C436.018 272.969 434.705 272.277 433.627 271.539L437.012 266.586C437.688 267.048 438.34 267.36 438.931 267.505L437.503 273.332ZM433.629 271.541C432.527 270.789 431.451 269.809 430.617 268.551L435.619 265.236C435.933 265.711 436.398 266.167 437.01 266.585L433.629 271.541ZM430.616 268.548C429.907 267.476 429.38 266.286 429.063 265.045L434.875 263.557C435.028 264.154 435.282 264.727 435.62 265.239L430.616 268.548ZM429.063 265.045C428.435 262.592 428.659 259.808 430.097 257.434L435.229 260.542C434.74 261.35 434.589 262.439 434.876 263.558L429.063 265.045ZM430.097 257.433C431.679 254.823 434.478 253.028 437.456 252.62L438.269 258.565C437.048 258.732 435.853 259.512 435.228 260.543L430.097 257.433ZM437.455 252.621C440.382 252.219 443.174 253.111 445.168 253.8L443.208 259.471C441.191 258.774 439.632 258.378 438.27 258.565L437.455 252.621ZM434.995 260.669C434.79 261.052 434.65 261.524 434.602 262.052L428.627 261.509C428.738 260.278 429.077 259.01 429.707 257.834L434.995 260.669ZM434.602 262.052C434.509 263.077 434.814 264.234 435.477 265.277L430.41 268.492C429.162 266.525 428.394 264.064 428.627 261.508L434.602 262.052ZM435.473 265.272C435.762 265.726 436.194 266.168 436.788 266.6L433.253 271.449C432.227 270.701 431.206 269.741 430.413 268.497L435.473 265.272ZM436.788 266.6C437.392 267.041 438.044 267.378 438.693 267.585L436.877 273.303C435.549 272.881 434.324 272.229 433.253 271.449L436.788 266.6ZM438.688 267.583C438.936 267.661 439.118 267.693 439.243 267.701C439.36 267.709 439.397 267.693 439.386 267.697L441.268 273.394C439.588 273.949 437.995 273.656 436.882 273.305L438.688 267.583ZM439.382 267.698C439.316 267.72 439.307 267.74 439.354 267.7C439.406 267.656 439.492 267.569 439.601 267.418L444.46 270.939C443.841 271.793 442.82 272.879 441.272 273.393L439.382 267.698ZM439.601 267.419C440.044 266.806 440.293 266.133 440.865 264.857L446.339 267.312C445.971 268.134 445.376 269.673 444.46 270.938L439.601 267.419ZM440.972 264.642C441.495 263.689 442.11 262.786 442.587 262.062C443.097 261.288 443.495 260.654 443.796 260.017L449.219 262.584C448.721 263.637 448.115 264.577 447.597 265.364C447.045 266.201 446.607 266.844 446.232 267.528L440.972 264.642ZM443.798 260.014C443.906 259.786 443.968 259.616 444.002 259.491C444.034 259.369 444.028 259.33 444.029 259.351L450.017 258.972C450.112 260.472 449.611 261.758 449.218 262.586L443.798 260.014ZM444.029 259.355C444.039 259.513 444.091 259.638 444.133 259.708C444.17 259.769 444.187 259.771 444.144 259.737L447.868 255.033C448.886 255.839 449.9 257.161 450.017 258.968L444.029 259.355ZM444.148 259.74C443.854 259.509 443.423 259.369 442.194 258.99L443.964 253.257C444.739 253.496 446.485 253.942 447.864 255.029L444.148 259.74ZM442.195 258.99C441.284 258.709 440.449 258.509 439.654 258.423L440.303 252.458C441.618 252.601 442.851 252.913 443.964 253.257L442.195 258.99ZM439.655 258.423C438.949 258.346 438.309 258.38 437.75 258.52L436.297 252.699C437.668 252.356 439.035 252.32 440.302 252.458L439.655 258.423ZM437.752 258.519C437.216 258.654 436.669 258.929 436.145 259.345L432.416 254.644C433.512 253.775 434.817 253.069 436.295 252.699L437.752 258.519ZM436.144 259.345C435.627 259.755 435.244 260.204 434.995 260.67L429.708 257.833C430.405 256.533 431.367 255.476 432.417 254.644L436.144 259.345ZM519.76 78.2631C517.311 87.5874 514.163 96.7961 509.613 105.494L504.297 102.712C508.571 94.5418 511.579 85.7929 513.957 76.7387L519.76 78.2631ZM509.613 105.494C507.303 109.908 504.557 114.137 501.253 117.976L496.705 114.062C499.662 110.627 502.161 106.794 504.297 102.712L509.613 105.494ZM501.253 117.977C497.785 122.004 493.7 125.181 489.24 127.8L486.202 122.626C490.211 120.272 493.75 117.495 496.706 114.062L501.253 117.977ZM489.24 127.8C478.844 133.904 467.053 137.863 455.452 140.259L454.238 134.383C465.38 132.082 476.513 128.315 486.202 122.626L489.24 127.8ZM455.452 140.259C449.156 141.559 442.879 142.902 436.619 144.322L435.292 138.47C441.599 137.04 447.915 135.688 454.239 134.383L455.452 140.259ZM436.619 144.322C433.647 144.996 431.261 145.352 429.058 146.306L426.675 140.8C429.556 139.552 432.888 139.016 435.292 138.47L436.619 144.322ZM429.059 146.305C427.695 146.897 426.467 147.829 425.411 149.028L420.908 145.064C422.467 143.293 424.394 141.788 426.673 140.8L429.059 146.305ZM425.411 149.029C424.497 150.066 423.792 151.303 423.087 152.788C422.474 154.08 421.634 156.103 420.836 157.659L415.497 154.922C416.305 153.344 416.777 152.091 417.667 150.216C418.464 148.535 419.452 146.716 420.908 145.063L425.411 149.029ZM420.855 157.621C421.086 157.154 421.218 156.558 421.118 155.908C421.021 155.277 420.736 154.787 420.443 154.451L415.92 158.394C415.598 158.024 415.292 157.495 415.188 156.82C415.081 156.126 415.22 155.48 415.477 154.96L420.855 157.621ZM420.087 158.739C418.003 160.453 416.32 162.809 414.676 165.588C413.856 166.974 413.085 168.394 412.269 169.873C411.466 171.327 410.624 172.825 409.717 174.248L404.658 171.023C405.455 169.772 406.218 168.418 407.017 166.972C407.802 165.549 408.633 164.018 409.512 162.533C411.267 159.566 413.376 156.49 416.276 154.105L420.087 158.739ZM409.717 174.248C408.274 176.511 406.436 178.586 405.023 180.341L400.348 176.58C402.018 174.505 403.452 172.914 404.658 171.023L409.717 174.248ZM405.022 180.342C403.103 182.726 401.139 185.226 399.117 187.64L394.518 183.786C396.49 181.432 398.368 179.04 400.349 176.579L405.022 180.342ZM399.117 187.64C397.191 189.938 395.16 192.028 393.074 194.055L388.892 189.753C390.9 187.801 392.773 185.868 394.518 183.786L399.117 187.64ZM393.073 194.056C391.3 195.778 389.735 197.388 388.491 199.184L383.559 195.766C385.161 193.455 387.091 191.502 388.893 189.752L393.073 194.056ZM388.49 199.185C387.349 200.829 386.775 202.459 386.795 204.219L380.796 204.29C380.757 201.035 381.865 198.208 383.56 195.765L388.49 199.185ZM386.795 204.219C386.808 205.279 387.002 206.341 387.236 207.768L381.315 208.737C381.116 207.522 380.815 205.914 380.796 204.29L386.795 204.219ZM387.235 207.765C387.503 209.39 387.693 211.007 387.865 212.567L381.902 213.226C381.731 211.68 381.555 210.198 381.315 208.74L387.235 207.765ZM387.865 212.568C388.225 215.84 388.512 218.951 388.933 222.098L382.986 222.894C382.553 219.658 382.246 216.354 381.901 213.225L387.865 212.568ZM388.933 222.098C389.339 225.128 389.903 228.541 390.28 231.74L384.321 232.442C383.942 229.225 383.438 226.267 382.986 222.894L388.933 222.098ZM390.28 231.74C390.925 237.207 391.924 242.69 392.97 248.21L387.074 249.327C386.028 243.803 384.993 238.138 384.321 232.443L390.28 231.74ZM392.969 248.209C393.32 250.054 393.653 251.795 394.236 253.343C394.81 254.868 395.522 255.905 396.432 256.533L393.024 261.471C390.727 259.887 389.427 257.6 388.621 255.457C387.822 253.337 387.405 251.068 387.075 249.328L392.969 248.209ZM396.404 256.514C396.399 256.511 396.399 256.511 396.408 256.517C396.418 256.523 396.432 256.531 396.456 256.546L393.335 261.67C393.272 261.632 393.166 261.567 393.051 261.49L396.404 256.514ZM396.496 256.571C395.463 255.919 394.31 256.084 393.553 256.541L396.655 261.677C395.782 262.205 394.473 262.389 393.294 261.645L396.496 256.571ZM396.94 256.737C396.419 256.334 395.902 256.212 395.631 256.169L394.694 262.095C394.376 262.045 393.818 261.908 393.268 261.482L396.94 256.737ZM395.678 256.177C396.634 256.343 397.71 255.958 399.045 254.505C400.371 253.062 401.469 251.053 402.297 249.305L407.72 251.872C406.833 253.747 405.423 256.431 403.463 258.565C401.511 260.688 398.522 262.763 394.647 262.087L395.678 256.177ZM402.298 249.304C404.486 244.686 404.759 239.045 403.948 233.592L409.882 232.709C410.791 238.816 410.604 245.787 407.72 251.873L402.298 249.304ZM403.947 233.585C404.043 234.24 404.39 234.893 404.984 235.353C405.53 235.777 406.123 235.915 406.584 235.926L406.729 229.928C407.309 229.942 408.02 230.115 408.66 230.612C409.348 231.145 409.765 231.908 409.883 232.716L403.947 233.585ZM404.056 231.431C404.864 230.027 405.373 228.328 405.561 226.522L411.529 227.141C411.27 229.638 410.551 232.174 409.257 234.423L404.056 231.431ZM405.561 226.522C405.986 222.419 405.258 217.788 403.528 214.086L408.963 211.545C411.177 216.281 412.061 222.011 411.529 227.141L405.561 226.522ZM404.972 210.099C407.141 209.082 409.038 207.696 410.837 205.85L415.134 210.037C412.888 212.342 410.411 214.176 407.519 215.532L404.972 210.099ZM410.837 205.85C412.015 204.641 413.114 203.307 414.195 201.889L418.967 205.526C417.804 207.053 416.542 208.592 415.134 210.037L410.837 205.85ZM414.197 201.887C415.087 200.721 416.469 198.506 418.254 196.961L422.18 201.498C421.017 202.504 420.423 203.619 418.966 205.528L414.197 201.887ZM418.255 196.961C419.937 195.506 421.862 194.522 423.67 193.765C425.397 193.041 427.383 192.389 428.824 191.851L430.922 197.472C429.103 198.151 427.602 198.623 425.988 199.299C424.453 199.941 423.181 200.633 422.18 201.499L418.255 196.961ZM428.822 191.852C430.253 191.316 431.543 190.627 433.212 189.816L435.834 195.212C434.422 195.898 432.707 196.804 430.924 197.471L428.822 191.852ZM433.211 189.816C434.728 189.078 437.093 187.81 439.645 187.528L440.302 193.492C439.025 193.633 437.738 194.286 435.835 195.212L433.211 189.816ZM439.642 187.529C439.322 187.564 439.006 187.661 438.715 187.815C438.43 187.966 438.215 188.147 438.061 188.307L442.388 192.464C441.929 192.941 441.23 193.389 440.306 193.492L439.642 187.529ZM442.181 188.111C447.363 192.569 452.649 196.677 458.44 199.946L455.491 205.171C449.205 201.623 443.578 197.227 438.268 192.66L442.181 188.111ZM459.91 201.986C460.376 204.386 460.737 206.796 461.025 209.192L455.068 209.908C454.794 207.626 454.454 205.362 454.02 203.13L459.91 201.986ZM461.024 209.182C460.933 208.448 460.545 207.71 459.856 207.211C459.222 206.751 458.522 206.629 457.955 206.672L458.417 212.655C457.786 212.703 457.021 212.566 456.336 212.069C455.596 211.533 455.17 210.735 455.069 209.918L461.024 209.182ZM460.826 211.088C458.399 215.584 454.646 219.448 451.823 222.765L447.254 218.877C450.459 215.11 453.515 212.001 455.546 208.239L460.826 211.088ZM451.823 222.765C448.349 226.848 444.928 230.588 441.738 234.63L437.028 230.912C440.301 226.767 443.969 222.737 447.254 218.877L451.823 222.765ZM441.738 234.63C438.676 238.509 436.109 242.617 434.263 247.079L428.719 244.785C430.819 239.707 433.702 235.125 437.028 230.912L441.738 234.63ZM434.263 247.079C432.45 251.459 430.755 255.41 430.05 259.602L424.133 258.607C424.975 253.604 426.987 248.969 428.719 244.785L434.263 247.079ZM430.05 259.602C429.387 263.545 430.073 266.998 432.492 269.393L428.27 273.656C423.983 269.412 423.279 263.691 424.133 258.607L430.05 259.602ZM432.491 269.392C433.255 270.148 434.485 270.636 436.056 270.779L435.511 276.755C433.138 276.538 430.374 275.738 428.271 273.657L432.491 269.392ZM436.056 270.779C437.197 270.884 438.024 270.631 438.783 270.037L442.48 274.762C440.425 276.37 438.052 276.987 435.511 276.755L436.056 270.779ZM439.072 269.837C441.377 268.434 443.393 266.553 445.175 264.34L449.848 268.102C447.727 270.737 445.206 273.127 442.191 274.962L439.072 269.837ZM445.175 264.34C446.142 263.138 447.028 261.857 447.988 260.467C448.927 259.109 449.939 257.644 451.072 256.243L455.737 260.017C454.769 261.213 453.882 262.492 452.924 263.879C451.986 265.235 450.976 266.701 449.848 268.102L445.175 264.34ZM451.072 256.243C452.063 255.018 453.152 253.85 454.173 252.758C455.219 251.64 456.195 250.601 457.089 249.526C458.875 247.381 460.099 245.362 460.508 243.091L466.413 244.154C465.736 247.916 463.758 250.893 461.701 253.365C460.674 254.599 459.568 255.773 458.555 256.856C457.518 257.965 456.572 258.984 455.737 260.017L451.072 256.243ZM460.991 245.327C460.703 244.909 460.408 244.245 460.468 243.41C460.526 242.587 460.9 241.99 461.208 241.64C461.722 241.057 462.318 240.847 462.405 240.814C462.601 240.74 462.763 240.703 462.836 240.688C462.882 240.678 462.922 240.671 462.954 240.665C462.97 240.662 462.986 240.66 463 240.658C463.007 240.657 463.014 240.656 463.021 240.655C463.024 240.654 463.027 240.654 463.03 240.653C463.032 240.653 463.034 240.653 463.035 240.652C463.036 240.652 463.037 240.652 463.038 240.652C463.038 240.652 463.038 240.652 463.039 240.652C463.039 240.652 463.04 240.652 463.461 243.622C463.883 246.592 463.884 246.592 463.884 246.592C463.884 246.592 463.885 246.592 463.885 246.592C463.886 246.592 463.887 246.592 463.888 246.592C463.889 246.591 463.891 246.591 463.892 246.591C463.896 246.59 463.899 246.59 463.902 246.589C463.909 246.588 463.916 246.587 463.923 246.586C463.937 246.584 463.952 246.582 463.969 246.579C464.001 246.573 464.041 246.566 464.086 246.556C464.159 246.541 464.32 246.504 464.516 246.43C464.616 246.393 464.773 246.328 464.954 246.224C465.12 246.129 465.42 245.937 465.712 245.605C466.02 245.255 466.394 244.658 466.452 243.835C466.512 243 466.217 242.336 465.929 241.918L460.991 245.327ZM461.891 241.066C464.614 239.392 466.902 237.298 469.264 234.801L473.622 238.925C471.093 241.598 468.392 244.113 465.032 246.178L461.891 241.066ZM469.264 234.801C471.751 232.173 474.431 229.241 477.625 226.804L481.265 231.573C478.543 233.651 476.233 236.167 473.622 238.925L469.264 234.801ZM477.625 226.804C482.411 223.151 487.056 219.45 489.916 214.838L495.015 218C491.487 223.69 485.939 228.007 481.265 231.573L477.625 226.804ZM494.981 214.784C494.716 214.376 494.282 213.951 493.651 213.706C492.958 213.437 492.144 213.438 491.41 213.786L493.982 219.207C492.101 220.099 490.528 218.943 489.95 218.053L494.981 214.784ZM491.405 213.788C496.22 211.493 500.775 209.301 505.001 206.49L508.325 211.485C503.688 214.57 498.753 216.933 493.987 219.204L491.405 213.788ZM505.002 206.489C509.237 203.673 512.791 200.222 515.976 196.146L520.704 199.84C517.187 204.341 513.174 208.26 508.324 211.485L505.002 206.489ZM515.975 196.146C523.026 187.121 527.736 176.662 533.215 166.021L538.55 168.768C533.272 179.018 528.206 190.236 520.704 199.84L515.975 196.146ZM533.215 166.021C536.125 160.372 539.199 154.745 542.864 149.37L547.821 152.75C544.365 157.819 541.423 163.189 538.549 168.768L533.215 166.021ZM542.864 149.37C546.246 144.41 549.434 139.431 552.312 134.238L557.56 137.146C554.562 142.556 551.264 147.7 547.821 152.75L542.864 149.37ZM552.312 134.238C555.241 128.951 557.837 123.484 560.462 117.91L565.89 120.467C563.272 126.025 560.598 131.663 557.56 137.146L552.312 134.238ZM560.462 117.911C561.761 115.153 563.039 112.384 564.312 109.605L569.767 112.105C568.489 114.892 567.202 117.682 565.891 120.467L560.462 117.911ZM564.312 109.605C565.58 106.838 566.606 104.306 567.904 101.394L573.384 103.837C572.24 106.405 570.999 109.416 569.767 112.105L564.312 109.605ZM567.905 101.393C568.269 100.576 568.661 99.7825 569.068 99.0124L574.374 101.814C574.018 102.489 573.685 103.162 573.384 103.838L567.905 101.393ZM569.066 99.0159C568.721 99.6722 568.614 100.565 568.995 101.421C569.335 102.185 569.928 102.621 570.423 102.83C571.368 103.231 573.024 103.139 573.847 101.631L568.58 98.7561C569.572 96.9398 571.566 96.7984 572.764 97.3058C573.385 97.5693 574.084 98.0982 574.477 98.9809C574.911 99.9568 574.805 100.995 574.376 101.81L569.066 99.0159ZM573.845 101.634C572.495 104.1 571.569 106.579 570.257 109.497L564.785 107.037C565.899 104.558 567.086 101.485 568.582 98.7531L573.845 101.634ZM570.258 109.497C568.988 112.323 567.593 115.146 566.305 117.851L560.888 115.271C562.227 112.46 563.551 109.784 564.785 107.038L570.258 109.497ZM566.305 117.852C563.629 123.468 560.78 128.98 557.848 134.432L552.564 131.59C555.466 126.194 558.266 120.773 560.888 115.271L566.305 117.852ZM557.848 134.432C554.875 139.956 551.556 145.253 548.315 150.452C545.056 155.68 541.872 160.818 539.061 166.159L533.752 163.365C536.679 157.802 539.977 152.487 543.224 147.278C546.489 142.04 549.7 136.913 552.564 131.589L557.848 134.432ZM539.061 166.159C533.563 176.608 528.206 187.749 520.867 197.632L516.05 194.055C523.033 184.651 528.106 174.093 533.752 163.365L539.061 166.159ZM520.867 197.632C517.372 202.338 513.377 206.521 508.461 209.98L505.009 205.072C509.296 202.056 512.85 198.363 516.05 194.055L520.867 197.632ZM508.461 209.98C503.993 213.123 498.981 215.781 494.615 218.396L491.532 213.249C496.284 210.402 500.773 208.052 505.009 205.072L508.461 209.98ZM494.608 218.4C494.49 218.471 494.371 218.542 494.244 218.619L491.146 213.481C491.271 213.406 491.404 213.325 491.539 213.245L494.608 218.4ZM490.116 214.518C490.298 214.211 490.463 213.92 490.615 213.634L495.92 216.436C495.708 216.837 495.49 217.219 495.274 217.582L490.116 214.518ZM490.626 213.613C490.214 214.378 490.189 215.263 490.489 216.017C490.757 216.691 491.226 217.137 491.662 217.395C492.098 217.654 492.713 217.853 493.432 217.766C494.236 217.67 495.002 217.226 495.478 216.496L490.454 213.216C490.986 212.402 491.829 211.916 492.714 211.809C493.515 211.713 494.216 211.934 494.725 212.236C495.235 212.539 495.765 213.049 496.064 213.8C496.394 214.63 496.369 215.603 495.909 216.457L490.626 213.613ZM495.475 216.502C493.501 219.509 491.341 222.336 488.417 224.859L484.498 220.316C486.833 218.301 488.64 215.981 490.458 213.21L495.475 216.502ZM488.417 224.859C487.056 226.033 485.632 227.077 484.271 228.046C482.877 229.039 481.592 229.925 480.334 230.886L476.691 226.119C478.055 225.076 479.492 224.083 480.79 223.159C482.12 222.212 483.357 221.3 484.498 220.316L488.417 224.859ZM480.334 230.887C477.754 232.858 475.533 235.272 473.083 237.919C470.696 240.499 468.091 243.301 464.954 245.602L461.406 240.763C464.009 238.854 466.247 236.474 468.679 233.844C471.049 231.283 473.625 228.462 476.691 226.119L480.334 230.887ZM460.413 244.341C460.16 243.737 459.577 243.092 458.453 242.348C457.234 241.54 456.114 241.046 454.59 240.188L457.533 234.959C458.491 235.498 460.342 236.402 461.767 237.346C463.287 238.352 465.022 239.814 465.947 242.024L460.413 244.341ZM454.606 240.197C455.385 240.629 456.288 240.656 457.052 240.352C457.731 240.081 458.175 239.609 458.431 239.178C458.688 238.746 458.89 238.134 458.806 237.413C458.711 236.603 458.264 235.822 457.516 235.34L454.266 240.383C453.436 239.849 452.95 238.995 452.846 238.107C452.753 237.308 452.976 236.612 453.275 236.11C453.573 235.609 454.079 235.078 454.832 234.778C455.669 234.445 456.655 234.472 457.518 234.951L454.606 240.197ZM457.51 235.336C458.678 236.085 460.013 236.91 461.28 237.811L457.802 242.7C456.691 241.91 455.557 241.211 454.271 240.387L457.51 235.336ZM461.28 237.811C461.863 238.226 462.716 238.818 463.489 239.509C464.269 240.206 465.152 241.158 465.723 242.417L460.259 244.896C460.169 244.698 459.956 244.398 459.492 243.983C459.02 243.562 458.478 243.181 457.801 242.699L461.28 237.811ZM465.753 244.828C464.424 247.963 462.536 250.55 460.6 252.858C459.636 254.007 458.629 255.121 457.672 256.187C456.701 257.268 455.772 258.309 454.891 259.383L450.253 255.576C451.229 254.387 452.24 253.256 453.207 252.178C454.188 251.086 455.118 250.056 456.004 249.001C457.767 246.899 459.232 244.837 460.229 242.486L465.753 244.828ZM454.891 259.383C453.028 261.651 451.58 264.052 449.611 266.837C447.747 269.474 445.551 272.23 442.573 274.344L439.1 269.451C441.234 267.936 442.959 265.853 444.712 263.373C446.36 261.041 448.224 258.047 450.254 255.576L454.891 259.383ZM441.091 274.886C441.231 274.874 441.48 274.843 441.777 274.74C442.085 274.634 442.373 274.475 442.627 274.272L438.883 269.584C439.515 269.079 440.173 268.943 440.581 268.908L441.091 274.886ZM442.649 274.255C441.229 275.41 439.503 275.776 438.159 275.88C436.766 275.987 435.401 275.841 434.352 275.649L435.427 269.747C436.15 269.878 436.974 269.953 437.699 269.897C438.472 269.838 438.793 269.657 438.862 269.601L442.649 274.255ZM434.352 275.65C430.98 275.036 428.596 273.009 426.965 270.5L431.996 267.23C432.954 268.705 434.049 269.496 435.426 269.746L434.352 275.65ZM426.965 270.5C425.179 267.752 424.717 264.68 424.824 261.858C424.931 259.051 425.608 256.303 426.294 254.014L432.042 255.737C431.408 257.852 430.898 260.032 430.82 262.086C430.742 264.125 431.096 265.846 431.996 267.231L426.965 270.5ZM426.294 254.014C427.017 251.606 427.94 249.285 428.795 247.113L434.378 249.311C433.501 251.538 432.678 253.616 432.041 255.738L426.294 254.014ZM428.795 247.114C429.686 244.849 430.629 242.457 431.804 240.124L437.163 242.822C436.131 244.873 435.282 247.013 434.379 249.31L428.795 247.114ZM431.804 240.124C434.331 235.105 437.778 230.588 441.264 226.531L445.815 230.44C442.462 234.343 439.372 238.434 437.163 242.822L431.804 240.124ZM441.263 226.531C442.733 224.82 444.281 223.205 445.772 221.658C447.282 220.091 448.729 218.596 450.095 217.038L454.606 220.994C453.128 222.679 451.575 224.282 450.093 225.821C448.593 227.378 447.158 228.876 445.815 230.44L441.263 226.531ZM450.094 217.039C451.582 215.341 452.892 213.805 453.969 212.118L459.025 215.348C457.676 217.461 456.087 219.304 454.607 220.993L450.094 217.039ZM453.969 212.118C454.986 210.527 455.809 208.78 456.513 206.913L462.127 209.031C461.317 211.177 460.321 213.321 459.025 215.349L453.969 212.118ZM456.512 206.916C455.867 208.631 456.961 210.068 458.043 210.54C458.584 210.775 459.305 210.883 460.064 210.637C460.897 210.368 461.51 209.757 461.816 209.049L456.307 206.671C456.649 205.879 457.32 205.219 458.218 204.929C459.042 204.662 459.836 204.776 460.44 205.04C461.649 205.566 462.837 207.143 462.128 209.027L456.512 206.916ZM461.816 209.047C461.549 209.668 461.259 210.258 460.964 210.82L455.653 208.029C455.895 207.568 456.114 207.119 456.306 206.672L461.816 209.047ZM455.318 209.66C455.061 206.406 454.673 203.216 453.963 200.167L459.806 198.806C460.612 202.267 461.031 205.788 461.299 209.188L455.318 209.66ZM453.963 200.168C453.277 197.231 452.215 194.423 450.924 191.528L456.404 189.085C457.779 192.168 459.002 195.358 459.806 198.805L453.963 200.168ZM450.921 191.52C451.241 192.245 451.864 192.827 452.66 193.084C453.385 193.318 454.082 193.231 454.622 193.009C455.16 192.787 455.736 192.35 456.09 191.639C456.48 190.855 456.475 189.978 456.168 189.249L450.639 191.579C450.296 190.766 450.297 189.813 450.718 188.967C451.102 188.194 451.734 187.709 452.337 187.461C452.942 187.212 453.713 187.119 454.505 187.375C455.367 187.653 456.05 188.285 456.407 189.092L450.921 191.52ZM456.172 189.258C457.831 193.232 458.981 197.339 459.807 201.459L453.924 202.639C453.156 198.812 452.109 195.1 450.635 191.57L456.172 189.258ZM455.194 204.54C448.357 199.955 441.869 194.902 435.53 189.847L439.272 185.156C445.59 190.195 451.917 195.118 458.536 199.557L455.194 204.54ZM435.541 189.855C436.131 190.322 436.953 190.577 437.819 190.419C438.61 190.275 439.196 189.832 439.557 189.366C440.276 188.438 440.536 186.686 439.19 185.499L435.222 190C433.725 188.679 434.001 186.739 434.816 185.689C435.225 185.162 435.877 184.674 436.744 184.516C437.685 184.345 438.591 184.618 439.261 185.148L435.541 189.855ZM439.198 185.506C439.926 186.153 440.661 186.796 441.399 187.437L437.467 191.968C436.715 191.316 435.963 190.657 435.214 189.993L439.198 185.506ZM439.914 192.664C438.727 192.857 437.479 193.365 436.022 194.106C434.766 194.744 432.898 195.817 431.385 196.514L428.876 191.063C430.348 190.386 431.48 189.684 433.303 188.757C434.925 187.933 436.836 187.085 438.952 186.741L439.914 192.664ZM431.385 196.514C429.671 197.303 427.805 197.972 426.282 198.574C424.674 199.21 423.267 199.834 422.013 200.641L418.767 195.594C420.526 194.463 422.374 193.667 424.076 192.994C425.862 192.288 427.36 191.761 428.876 191.063L431.385 196.514ZM422.013 200.64C420.999 201.293 420.257 202.1 419.287 203.367L414.523 199.72C415.634 198.269 416.878 196.81 418.767 195.595L422.013 200.64ZM419.287 203.368C418.085 204.937 416.82 206.576 415.44 208.149L410.929 204.193C412.162 202.787 413.317 201.295 414.524 199.719L419.287 203.368ZM415.44 208.149C412.691 211.283 409.174 214.379 405.041 216.232L402.586 210.758C405.657 209.38 408.509 206.952 410.929 204.192L415.44 208.149ZM405.052 216.227C405.729 215.921 406.31 215.33 406.579 214.536C406.827 213.801 406.744 213.085 406.513 212.527C406.038 211.38 404.606 210.347 402.945 210.919L404.898 216.592C403.066 217.223 401.498 216.097 400.97 214.824C400.712 214.202 400.624 213.415 400.895 212.615C401.185 211.755 401.816 211.107 402.575 210.763L405.052 216.227ZM402.959 210.914C403.469 210.741 403.975 210.538 404.503 210.307L406.906 215.805C406.279 216.079 405.606 216.352 404.884 216.597L402.959 210.914ZM408.537 212.068C410.122 216.611 410.955 221.489 410.62 226.44L404.633 226.035C404.905 222.018 404.236 217.954 402.872 214.044L408.537 212.068ZM410.62 226.441C410.295 231.228 408.592 237.514 402.508 240.092L400.167 234.567C402.976 233.377 404.348 230.241 404.633 226.035L410.62 226.441ZM402.509 240.091C403.237 239.783 403.841 239.165 404.111 238.351C404.357 237.611 404.266 236.902 404.043 236.36C403.821 235.818 403.387 235.252 402.693 234.899C401.93 234.511 401.063 234.495 400.325 234.79L402.552 240.361C401.734 240.688 400.796 240.665 399.974 240.248C399.222 239.865 398.743 239.246 398.495 238.643C398.247 238.04 398.151 237.261 398.417 236.459C398.708 235.583 399.359 234.91 400.166 234.568L402.509 240.091ZM400.316 234.793C401.832 234.182 402.996 233.132 403.862 231.759L408.937 234.958C407.487 237.259 405.389 239.217 402.56 240.358L400.316 234.793ZM409.376 232.983C410.093 238.668 409.544 245.044 407.236 250.531L401.705 248.204C403.53 243.866 404.035 238.583 403.423 233.734L409.376 232.983ZM407.236 250.531C406.231 252.919 404.915 255.261 403.238 257.356L398.553 253.606C399.83 252.011 400.879 250.168 401.705 248.205L407.236 250.531ZM403.237 257.357C401.828 259.115 399.046 262.113 395.006 261.846L395.401 255.86C395.748 255.882 396.169 255.783 396.737 255.397C397.331 254.994 397.94 254.372 398.554 253.605L403.237 257.357ZM394.992 261.846C395.308 261.868 395.56 261.834 395.696 261.81C395.758 261.799 395.806 261.789 395.806 261.789C395.823 261.785 395.776 261.795 395.732 261.804L394.588 255.914C394.551 255.921 394.512 255.93 394.536 255.925C394.543 255.923 394.598 255.911 394.666 255.899C394.817 255.873 395.083 255.837 395.415 255.86L394.992 261.846ZM392.771 260.674C392.756 260.653 392.717 260.601 392.742 260.634C392.75 260.645 392.785 260.692 392.833 260.75C392.94 260.879 393.118 261.071 393.376 261.256L396.867 256.376C397.144 256.574 397.335 256.78 397.454 256.923C397.509 256.989 397.549 257.044 397.562 257.062C397.593 257.102 397.56 257.058 397.549 257.044L392.771 260.674ZM393.31 261.207C392.034 260.24 391.2 258.965 390.63 257.842C390.058 256.715 389.655 255.539 389.356 254.649L395.045 252.742C395.344 253.634 395.628 254.432 395.98 255.127C396.335 255.825 396.662 256.219 396.934 256.425L393.31 261.207ZM389.356 254.649C388.605 252.409 388.18 250.121 387.82 248.039L393.733 247.018C394.09 249.089 394.453 250.977 395.045 252.742L389.356 254.649ZM387.82 248.037C386.808 242.148 385.916 236.415 384.864 230.616L390.768 229.546C391.821 235.354 392.747 241.281 393.733 247.02L387.82 248.037ZM384.864 230.616C383.691 224.142 382.923 217.671 382.227 211.234L388.192 210.589C388.885 217.001 389.635 223.294 390.768 229.546L384.864 230.616ZM382.227 211.233C381.952 208.686 381.339 205.138 381.923 201.754L387.835 202.774C387.436 205.089 387.853 207.446 388.192 210.59L382.227 211.233ZM381.923 201.754C382.533 198.217 384.945 195.357 386.606 193.476L391.103 197.449C389.368 199.413 388.122 201.114 387.835 202.774L381.923 201.754ZM386.605 193.477C388.219 191.65 390.096 189.868 391.607 188.316L395.907 192.501C394.144 194.312 392.597 195.756 391.103 197.448L386.605 193.477ZM391.607 188.316C393.377 186.498 394.936 184.462 396.665 182.261L401.384 185.967C399.737 188.064 397.951 190.4 395.907 192.501L391.607 188.316ZM396.664 182.263C398.398 180.053 400.173 177.736 401.988 175.492L406.654 179.264C404.874 181.465 403.176 183.682 401.384 185.966L396.664 182.263ZM401.987 175.493C403.325 173.837 404.49 172.386 405.468 170.785L410.588 173.914C409.372 175.904 407.956 177.653 406.654 179.263L401.987 175.493ZM405.468 170.786C406.417 169.232 407.295 167.556 408.265 165.74C409.214 163.962 410.241 162.073 411.415 160.282C413.773 156.686 416.897 153.217 421.718 151.468L423.764 157.108C420.667 158.232 418.446 160.501 416.433 163.572C415.422 165.114 414.506 166.789 413.557 168.567C412.628 170.306 411.651 172.174 410.588 173.914L405.468 170.786ZM421.716 151.468C420.979 151.737 420.332 152.338 420.041 153.173C419.781 153.919 419.881 154.619 420.089 155.127C420.299 155.639 420.705 156.175 421.357 156.517C422.077 156.895 422.913 156.933 423.638 156.654L421.488 151.053C422.355 150.72 423.32 150.771 424.145 151.205C424.901 151.601 425.388 152.233 425.642 152.854C425.895 153.472 426.004 154.295 425.706 155.149C425.378 156.092 424.647 156.787 423.766 157.107L421.716 151.468ZM423.631 156.657C422.442 157.11 421.384 157.725 420.415 158.475L416.742 153.731C418.138 152.65 419.709 151.73 421.495 151.05L423.631 156.657ZM415.957 154.644C416.992 152.785 418.073 150.949 419.217 149.139L424.29 152.342C423.212 154.048 422.187 155.788 421.2 157.562L415.957 154.644ZM419.217 149.138C420.347 147.35 421.707 145.418 423.654 143.812L427.472 148.44C426.274 149.428 425.321 150.709 424.289 152.343L419.217 149.138ZM423.654 143.812C426.084 141.807 428.918 140.958 431.269 140.335L432.807 146.135C430.513 146.743 428.812 147.334 427.472 148.44L423.654 143.812ZM431.269 140.335C434.51 139.476 437.759 138.679 441.016 137.926L442.367 143.772C439.162 144.513 435.976 145.294 432.807 146.135L431.269 140.335ZM441.017 137.925C447.357 136.462 453.201 135.421 459.281 133.876L460.759 139.691C454.713 141.228 448.215 142.422 442.366 143.772L441.017 137.925ZM459.28 133.876C464.695 132.499 470.015 130.79 475.178 128.708L477.421 134.273C471.991 136.463 466.413 138.254 460.759 139.691L459.28 133.876ZM475.177 128.708C484.447 124.97 493.073 120.256 499.046 112.824L503.723 116.583C496.78 125.222 487 130.41 477.422 134.273L475.177 128.708ZM499.046 112.824C504.703 105.784 508.358 97.2402 511.199 88.3427L516.915 90.1681C513.978 99.3625 510.05 108.709 503.723 116.582L499.046 112.824ZM511.2 88.3416C512.412 84.5515 513.495 80.7129 514.475 76.8431L520.292 78.3165C519.285 82.2904 518.168 86.2483 516.914 90.1692L511.2 88.3416ZM514.477 76.8357C514.291 77.564 514.396 78.4841 515 79.2455C515.534 79.9187 516.235 80.1875 516.761 80.2627C517.752 80.4045 519.324 79.9224 519.76 78.2645L513.958 76.7372C514.48 74.7534 516.356 74.1438 517.61 74.3232C518.267 74.4172 519.089 74.7459 519.7 75.5162C520.381 76.3745 520.519 77.4287 520.29 78.3239L514.477 76.8357Z" fill="black" mask="url(#path-48-inside-2_1352_1660)"/>
<path d="M492.232 118.357L503.595 101.137L559.93 139.858L544.058 158.522C544.058 158.522 524.896 150.434 516.232 143.39C507.569 136.346 492.232 118.357 492.232 118.357Z" fill="#F1F1F1" stroke="black"/>
<path d="M494.457 107.986L518.085 52.4183L602.705 98.7846L552.733 157.546C552.733 157.546 537.557 148.378 521.633 135.458C505.71 122.539 494.457 107.986 494.457 107.986Z" fill="#F7FBF3" stroke="black"/>
<path d="M516.845 65.718L519.884 43.359L613.82 86.4894L595.982 105.149L516.845 65.718Z" fill="#F4FBF3"/>
<path d="M434.218 291.608C422.103 301.609 404.176 299.896 394.175 287.781C384.174 275.667 385.887 257.739 398.002 247.739C410.116 237.738 428.044 239.451 438.045 251.566C448.045 263.68 446.332 281.608 434.218 291.608Z" fill="#8FC055" stroke="black"/>
<g opacity="0.29">
<path opacity="0.29" d="M401.639 281.619C408.236 289.611 420.062 290.741 428.053 284.144C436.045 277.547 437.175 265.721 430.578 257.729C423.981 249.738 412.155 248.608 404.163 255.205C396.172 261.802 395.042 273.628 401.639 281.619Z" fill="white"/>
</g>
<path d="M407.033 269.207L410.241 268.829C410.187 270.272 410.624 271.69 411.48 272.851C412.466 274.045 413.393 274.161 414.351 273.37C416.517 271.582 411.891 266.059 415.689 262.924C418.131 260.909 421.081 261.316 423.283 263.983C423.919 264.731 424.384 265.609 424.647 266.555C424.91 267.502 424.964 268.494 424.805 269.463L421.754 269.379C421.834 268.822 421.802 268.255 421.659 267.711C421.517 267.166 421.267 266.656 420.924 266.21C420.088 265.197 419.226 264.985 418.281 265.765C416.273 267.423 421.035 272.833 417.011 276.154C414.595 278.149 411.525 277.991 408.983 274.913C407.703 273.288 407.015 271.275 407.033 269.207ZM424.38 261.111L426.075 263.164L423.044 265.667L421.349 263.613L424.38 261.111ZM409.711 273.221L411.406 275.274L408.08 278.02L406.385 275.966L409.711 273.221Z" fill="white"/>
<path d="M432.547 244.846C429.963 249.428 425.134 259.428 426.486 262.777C428.177 266.964 430.901 271.479 435.466 271.513C440.031 271.548 442.097 272.206 446.166 267.421" stroke="black"/>
<path d="M427.494 256.957C430.194 248.226 434.558 241.961 436.108 240.654C442.247 243.468 454.115 255.097 449.604 262C443.549 271.266 441.449 270.817 438.306 271.426C435.162 272.035 424.12 267.871 427.494 256.957Z" fill="#F5FBF3"/>
<path d="M433.441 251.511C437.783 252.579 439.656 255.265 442.678 256.085C443.891 256.46 446.48 257.48 447.135 258.562C447.79 259.644 445.832 262.924 444.771 264.428C444.016 265.317 442.016 267.205 440.066 267.646C437.627 268.198 433.819 264.959 431.209 263.396C428.6 261.834 431.381 251.004 433.441 251.511Z" fill="#F5FBF3" stroke="black" stroke-width="0.5"/>
<path d="M518 185C529.2 172.2 534 159.667 535 155L540 157C534.667 167.167 525.5 186.5 517 197C506.476 210 493.5 214 492.5 215.5C488.5 221.5 482.667 224.833 479 228C480.667 225.167 485.1 218.1 489.5 212.5C495 205.5 504 201 518 185Z" fill="#D0DEBF"/>
</svg>
