<svg width="103" height="103" viewBox="0 0 103 103" fill="none" xmlns="http://www.w3.org/2000/svg">
<path d="M25.75 64.375V60.0833C25.75 57.8069 26.6543 55.6237 28.264 54.014C29.8737 52.4043 32.0569 51.5 34.3333 51.5H68.6667C70.9431 51.5 73.1263 52.4043 74.736 54.014C76.3457 55.6237 77.25 57.8069 77.25 60.0833V64.375" stroke="#46AC34" stroke-width="3" stroke-linecap="round" stroke-linejoin="round"/>
<path d="M51.5 38.625V51.5" stroke="#46AC34" stroke-width="3" stroke-linecap="round" stroke-linejoin="round"/>
<path d="M30.0417 64.375H21.4583C16.7179 64.375 12.875 68.2179 12.875 72.9583V81.5417C12.875 86.2821 16.7179 90.125 21.4583 90.125H30.0417C34.7821 90.125 38.625 86.2821 38.625 81.5417V72.9583C38.625 68.2179 34.7821 64.375 30.0417 64.375Z" stroke="#F1F1F1" stroke-width="3" stroke-linecap="round" stroke-linejoin="round"/>
<path d="M81.5417 64.375H72.9583C68.2179 64.375 64.375 68.2179 64.375 72.9583V81.5417C64.375 86.2821 68.2179 90.125 72.9583 90.125H81.5417C86.2821 90.125 90.125 86.2821 90.125 81.5417V72.9583C90.125 68.2179 86.2821 64.375 81.5417 64.375Z" stroke="#F1F1F1" stroke-width="3" stroke-linecap="round" stroke-linejoin="round"/>
<path d="M55.7917 12.875H47.2083C42.4679 12.875 38.625 16.7179 38.625 21.4583V30.0417C38.625 34.7821 42.4679 38.625 47.2083 38.625H55.7917C60.5321 38.625 64.375 34.7821 64.375 30.0417V21.4583C64.375 16.7179 60.5321 12.875 55.7917 12.875Z" stroke="#F1F1F1" stroke-width="3" stroke-linecap="round" stroke-linejoin="round"/>
</svg>
