<svg width="49" height="49" viewBox="0 0 49 49" fill="none" xmlns="http://www.w3.org/2000/svg">
<path d="M24.4987 26.5417C25.6263 26.5417 26.5404 25.6276 26.5404 24.5C26.5404 23.3725 25.6263 22.4584 24.4987 22.4584C23.3711 22.4584 22.457 23.3725 22.457 24.5C22.457 25.6276 23.3711 26.5417 24.4987 26.5417Z" stroke="#BFE09A" stroke-width="2" stroke-linecap="round" stroke-linejoin="round"/>
<path d="M24.5013 34.7083C30.1392 34.7083 34.7096 30.1379 34.7096 24.5C34.7096 18.8621 30.1392 14.2916 24.5013 14.2916C18.8634 14.2916 14.293 18.8621 14.293 24.5C14.293 30.1379 18.8634 34.7083 24.5013 34.7083Z" stroke="#BFE09A" stroke-width="2" stroke-linecap="round" stroke-linejoin="round"/>
<path d="M24.5 42.875C34.6482 42.875 42.875 34.6482 42.875 24.5C42.875 14.3518 34.6482 6.125 24.5 6.125C14.3518 6.125 6.125 14.3518 6.125 24.5C6.125 34.6482 14.3518 42.875 24.5 42.875Z" stroke="#BFE09A" stroke-width="2" stroke-linecap="round" stroke-linejoin="round"/>
</svg>
