<svg width="72" height="73" viewBox="0 0 72 73" fill="none" xmlns="http://www.w3.org/2000/svg">
<ellipse cx="36" cy="36.998" rx="25.4558" ry="25.4558" transform="rotate(-45 36 36.998)" fill="url(#paint0_linear_2345_19600)"/>
<path d="M24.0676 34.6117C24.9462 34.6117 25.6585 33.8994 25.6585 33.0207C25.6585 32.142 24.9462 31.4297 24.0676 31.4297C23.1889 31.4297 22.4766 32.142 22.4766 33.0207C22.4766 33.8994 23.1889 34.6117 24.0676 34.6117Z" stroke="#252525" stroke-width="1.30188" stroke-linecap="round" stroke-linejoin="round"/>
<path d="M32.0207 26.6585C32.8994 26.6585 33.6117 25.9462 33.6117 25.0676C33.6117 24.1889 32.8994 23.4766 32.0207 23.4766C31.142 23.4766 30.4297 24.1889 30.4297 25.0676C30.4297 25.9462 31.142 26.6585 32.0207 26.6585Z" stroke="#252525" stroke-width="1.30188" stroke-linecap="round" stroke-linejoin="round"/>
<path d="M32.0207 42.5667C32.8994 42.5667 33.6117 41.8544 33.6117 40.9758C33.6117 40.0971 32.8994 39.3848 32.0207 39.3848C31.142 39.3848 30.4297 40.0971 30.4297 40.9758C30.4297 41.8544 31.142 42.5667 32.0207 42.5667Z" stroke="#252525" stroke-width="1.30188" stroke-linecap="round" stroke-linejoin="round"/>
<path d="M24.0676 50.5218C24.9462 50.5218 25.6585 49.8095 25.6585 48.9308C25.6585 48.0522 24.9462 47.3398 24.0676 47.3398C23.1889 47.3398 22.4766 48.0522 22.4766 48.9308C22.4766 49.8095 23.1889 50.5218 24.0676 50.5218Z" stroke="#252525" stroke-width="1.30188" stroke-linecap="round" stroke-linejoin="round"/>
<path d="M39.9816 34.6117C40.8603 34.6117 41.5726 33.8994 41.5726 33.0207C41.5726 32.142 40.8603 31.4297 39.9816 31.4297C39.1029 31.4297 38.3906 32.142 38.3906 33.0207C38.3906 33.8994 39.1029 34.6117 39.9816 34.6117Z" stroke="#252525" stroke-width="1.30188" stroke-linecap="round" stroke-linejoin="round"/>
<path d="M47.9269 26.6585C48.8056 26.6585 49.5179 25.9462 49.5179 25.0676C49.5179 24.1889 48.8056 23.4766 47.9269 23.4766C47.0482 23.4766 46.3359 24.1889 46.3359 25.0676C46.3359 25.9462 47.0482 26.6585 47.9269 26.6585Z" stroke="#252525" stroke-width="1.30188" stroke-linecap="round" stroke-linejoin="round"/>
<path d="M39.9816 50.5218C40.8603 50.5218 41.5726 49.8095 41.5726 48.9308C41.5726 48.0522 40.8603 47.3398 39.9816 47.3398C39.1029 47.3398 38.3906 48.0522 38.3906 48.9308C38.3906 49.8095 39.1029 50.5218 39.9816 50.5218Z" stroke="#252525" stroke-width="1.30188" stroke-linecap="round" stroke-linejoin="round"/>
<path d="M47.9269 42.5667C48.8056 42.5667 49.5179 41.8544 49.5179 40.9758C49.5179 40.0971 48.8056 39.3848 47.9269 39.3848C47.0482 39.3848 46.3359 40.0971 46.3359 40.9758C46.3359 41.8544 47.0482 42.5667 47.9269 42.5667Z" stroke="#252525" stroke-width="1.30188" stroke-linecap="round" stroke-linejoin="round"/>
<defs>
<linearGradient id="paint0_linear_2345_19600" x1="36" y1="11.5422" x2="51.0124" y2="62.4539" gradientUnits="userSpaceOnUse">
<stop stop-color="#A7CD7E"/>
<stop offset="1" stop-color="#7BCD25" stop-opacity="0"/>
</linearGradient>
</defs>
</svg>
