<svg width="72" height="72" viewBox="0 0 72 72" fill="none" xmlns="http://www.w3.org/2000/svg">
<path d="M59.139 45.39C59.7121 43.3074 60.0017 41.157 60 38.997C60 36.705 59.679 34.488 59.079 32.388M53.169 22.23C50.0953 19.079 46.2135 16.8351 41.949 15.744L53.169 22.23ZM30.036 15.744C25.7009 16.8558 21.7634 19.1587 18.669 22.392L30.036 15.744ZM13.026 32.037C12.344 34.294 11.9983 36.6392 12 38.997C12 41.211 12.3 43.356 12.861 45.393L13.026 32.037ZM18.741 55.677C21.8203 58.8675 25.7239 61.1418 30.018 62.247L18.741 55.677ZM42.012 62.238C46.2919 61.1301 50.1822 58.8605 53.253 55.68L42.012 62.238Z" stroke="#252525" stroke-width="2.5" stroke-linecap="round" stroke-linejoin="round"/>
<path d="M36 21C39.3137 21 42 18.3137 42 15C42 11.6863 39.3137 9 36 9C32.6863 9 30 11.6863 30 15C30 18.3137 32.6863 21 36 21Z" stroke="#8FC055" stroke-width="2.5" stroke-linecap="round" stroke-linejoin="round"/>
<path d="M15 57C18.3137 57 21 54.3137 21 51C21 47.6863 18.3137 45 15 45C11.6863 45 9 47.6863 9 51C9 54.3137 11.6863 57 15 57Z" stroke="#8FC055" stroke-width="2.5" stroke-linecap="round" stroke-linejoin="round"/>
<path d="M57 57C60.3137 57 63 54.3137 63 51C63 47.6863 60.3137 45 57 45C53.6863 45 51 47.6863 51 51C51 54.3137 53.6863 57 57 57Z" stroke="#8FC055" stroke-width="2.5" stroke-linecap="round" stroke-linejoin="round"/>
</svg>
