<svg width="20" height="20" viewBox="0 0 20 20" fill="none" xmlns="http://www.w3.org/2000/svg">
<path d="M3.33398 4.16711H5.00065" stroke="#46AC34" stroke-linecap="round" stroke-linejoin="round"/>
<path d="M4.16602 3.33289V4.99955" stroke="#46AC34" stroke-linecap="round" stroke-linejoin="round"/>
<path d="M9.58268 3.33289L9.16602 4.99955" stroke="#46AC34" stroke-linecap="round" stroke-linejoin="round"/>
<path d="M15 4.16711H16.6667" stroke="#46AC34" stroke-linecap="round" stroke-linejoin="round"/>
<path d="M15.834 3.33289V4.99955" stroke="#46AC34" stroke-linecap="round" stroke-linejoin="round"/>
<path d="M12.4993 7.5L11.666 8.33333" stroke="#46AC34" stroke-linecap="round" stroke-linejoin="round"/>
<path d="M15 10.8333L16.6667 10.4166" stroke="#46AC34" stroke-linecap="round" stroke-linejoin="round"/>
<path d="M15 15.8334H16.6667" stroke="#46AC34" stroke-linecap="round" stroke-linejoin="round"/>
<path d="M15.834 15.0004V16.667" stroke="#46AC34" stroke-linecap="round" stroke-linejoin="round"/>
<path d="M11.6675 13.765L6.2358 8.33337L2.57747 16.3167C2.50669 16.4717 2.48498 16.6446 2.51524 16.8123C2.54549 16.98 2.62628 17.1344 2.74676 17.2549C2.86725 17.3754 3.02168 17.4562 3.18936 17.4864C3.35705 17.5167 3.52997 17.495 3.68497 17.4242L11.6675 13.7659V13.765Z" stroke="#252525" stroke-linecap="round" stroke-linejoin="round"/>
</svg>
