<svg width="92" height="114" viewBox="0 0 92 114" fill="none" xmlns="http://www.w3.org/2000/svg">
<path d="M22.9948 103.867C27.229 103.867 30.6615 100.464 30.6615 96.267C30.6615 92.0696 27.229 88.667 22.9948 88.667C18.7606 88.667 15.3281 92.0696 15.3281 96.267C15.3281 100.464 18.7606 103.867 22.9948 103.867Z" stroke="#252525" stroke-width="3" stroke-linecap="round" stroke-linejoin="round"/>
<path d="M65.1628 103.867C69.3969 103.867 72.8294 100.464 72.8294 96.267C72.8294 92.0696 69.3969 88.667 65.1628 88.667C60.9286 88.667 57.4961 92.0696 57.4961 96.267C57.4961 100.464 60.9286 103.867 65.1628 103.867Z" stroke="#252525" stroke-width="3" stroke-linecap="round" stroke-linejoin="round"/>
<path d="M65.1615 88.6678H22.9948V35.4678H15.3281" stroke="#252525" stroke-width="3" stroke-linecap="round" stroke-linejoin="round"/>
<path d="M76.6628 46.8662L72.8294 73.4662H22.9961" stroke="#252525" stroke-width="3" stroke-linecap="round" stroke-linejoin="round"/>
<path d="M76.6623 46.8662H24.2734" stroke="#252525" stroke-width="3" stroke-linecap="round" stroke-linejoin="round"/>
<path d="M40.8867 27.868L57.4978 11.4014" stroke="#46AC34" stroke-width="3" stroke-linecap="round" stroke-linejoin="round"/>
<path d="M42.1645 13.9347C42.8702 13.9347 43.4423 13.3676 43.4423 12.668C43.4423 11.9685 42.8702 11.4014 42.1645 11.4014C41.4588 11.4014 40.8867 11.9685 40.8867 12.668C40.8867 13.3676 41.4588 13.9347 42.1645 13.9347Z" stroke="#46AC34" stroke-width="3" stroke-linecap="round" stroke-linejoin="round"/>
<path d="M56.2192 27.8673C56.9249 27.8673 57.497 27.3002 57.497 26.6007C57.497 25.9011 56.9249 25.334 56.2192 25.334C55.5135 25.334 54.9414 25.9011 54.9414 26.6007C54.9414 27.3002 55.5135 27.8673 56.2192 27.8673Z" stroke="#46AC34" stroke-width="3" stroke-linecap="round" stroke-linejoin="round"/>
</svg>
