<svg width="60" height="60" viewBox="0 0 60 60" fill="none" xmlns="http://www.w3.org/2000/svg">
<path d="M40 40V45C40 46.3261 39.4732 47.5979 38.5355 48.5355C37.5979 49.4732 36.3261 50 35 50H15C13.6739 50 12.4021 49.4732 11.4645 48.5355C10.5268 47.5979 10 46.3261 10 45V25C10 23.6739 10.5268 22.4021 11.4645 21.4645C12.4021 20.5268 13.6739 20 15 20H20V15C20 13.6739 20.5268 12.4021 21.4645 11.4645C22.4021 10.5268 23.6739 10 25 10H45C46.3261 10 47.5979 10.5268 48.5355 11.4645C49.4732 12.4021 50 13.6739 50 15V35C50 36.3261 49.4732 37.5979 48.5355 38.5355C47.5979 39.4732 46.3261 40 45 40H40Z" stroke="#252525" stroke-width="2" stroke-linecap="round" stroke-linejoin="round"/>
<path d="M25 20H20V25" stroke="#252525" stroke-width="2" stroke-linecap="round" stroke-linejoin="round"/>
<path d="M20 35V40H25" stroke="#252525" stroke-width="2" stroke-linecap="round" stroke-linejoin="round"/>
<path d="M35 20H40V25" stroke="#252525" stroke-width="2" stroke-linecap="round" stroke-linejoin="round"/>
<path d="M40 35V40H35" stroke="#252525" stroke-width="2" stroke-linecap="round" stroke-linejoin="round"/>
<path d="M29.969 36.852C33.7532 36.852 36.8209 33.7843 36.8209 30.0002C36.8209 26.216 33.7532 23.1483 29.969 23.1483C26.1849 23.1483 23.1172 26.216 23.1172 30.0002C23.1172 33.7843 26.1849 36.852 29.969 36.852Z" stroke="#46AC34" stroke-width="2" stroke-linecap="round" stroke-linejoin="round"/>
<path d="M32.1007 27.7163C31.9628 27.477 31.7624 27.2798 31.521 27.1457C31.2796 27.0116 31.0063 26.9457 30.7303 26.955H29.2077C28.8039 26.955 28.4166 27.1154 28.131 27.4009C27.8455 27.6865 27.6851 28.0738 27.6851 28.4776C27.6851 28.8814 27.8455 29.2687 28.131 29.5543C28.4166 29.8398 28.8039 30.0002 29.2077 30.0002H30.7303C31.1342 30.0002 31.5214 30.1607 31.807 30.4462C32.0925 30.7318 32.253 31.119 32.253 31.5229C32.253 31.9267 32.0925 32.314 31.807 32.5995C31.5214 32.8851 31.1342 33.0455 30.7303 33.0455H29.2077C28.9317 33.0548 28.6584 32.9889 28.417 32.8548C28.1756 32.7206 27.9752 32.5234 27.8373 32.2842" stroke="#46AC34" stroke-width="2" stroke-linecap="round" stroke-linejoin="round"/>
<path d="M29.969 33.0454V34.5681M29.969 25.4323V26.9549V25.4323Z" stroke="#46AC34" stroke-width="2" stroke-linecap="round" stroke-linejoin="round"/>
</svg>
