<svg width="20" height="20" viewBox="0 0 20 20" fill="none" xmlns="http://www.w3.org/2000/svg">
<path d="M7.50065 3.33337H4.16732C3.70708 3.33337 3.33398 3.70647 3.33398 4.16671V7.50004C3.33398 7.96028 3.70708 8.33337 4.16732 8.33337H7.50065C7.96089 8.33337 8.33398 7.96028 8.33398 7.50004V4.16671C8.33398 3.70647 7.96089 3.33337 7.50065 3.33337Z" stroke="#252525" stroke-linecap="round" stroke-linejoin="round"/>
<path d="M15.8327 3.33337H12.4993C12.0391 3.33337 11.666 3.70647 11.666 4.16671V7.50004C11.666 7.96028 12.0391 8.33337 12.4993 8.33337H15.8327C16.2929 8.33337 16.666 7.96028 16.666 7.50004V4.16671C16.666 3.70647 16.2929 3.33337 15.8327 3.33337Z" stroke="#252525" stroke-linecap="round" stroke-linejoin="round"/>
<path d="M7.50065 11.6666H4.16732C3.70708 11.6666 3.33398 12.0397 3.33398 12.5V15.8333C3.33398 16.2935 3.70708 16.6666 4.16732 16.6666H7.50065C7.96089 16.6666 8.33398 16.2935 8.33398 15.8333V12.5C8.33398 12.0397 7.96089 11.6666 7.50065 11.6666Z" stroke="#252525" stroke-linecap="round" stroke-linejoin="round"/>
<path d="M14.166 11.6666V16.6666M11.666 14.1666H16.666H11.666Z" stroke="#46AC34" stroke-linecap="round" stroke-linejoin="round"/>
</svg>
