<svg width="73" height="73" viewBox="0 0 73 73" fill="none" xmlns="http://www.w3.org/2000/svg">
<path d="M48.1918 48.6074V54.6074C48.1918 56.1987 47.5596 57.7248 46.4344 58.8501C45.3092 59.9753 43.7831 60.6074 42.1918 60.6074H18.1918C16.6005 60.6074 15.0743 59.9753 13.9491 58.8501C12.8239 57.7248 12.1918 56.1987 12.1918 54.6074V30.6074C12.1918 29.0161 12.8239 27.49 13.9491 26.3648C15.0743 25.2396 16.6005 24.6074 18.1918 24.6074H24.1918V18.6074C24.1918 17.0161 24.8239 15.49 25.9491 14.3648C27.0744 13.2396 28.6005 12.6074 30.1918 12.6074H54.1918C55.7831 12.6074 57.3092 13.2396 58.4344 14.3648C59.5596 15.49 60.1918 17.0161 60.1918 18.6074V42.6074C60.1918 44.1987 59.5596 45.7248 58.4344 46.8501C57.3092 47.9753 55.7831 48.6074 54.1918 48.6074H48.1918Z" stroke="#252525" stroke-width="2" stroke-linecap="round" stroke-linejoin="round"/>
<path d="M30.1918 24.6074H24.1918V30.6074" stroke="#252525" stroke-width="2" stroke-linecap="round" stroke-linejoin="round"/>
<path d="M24.1918 42.6074V48.6074H30.1918" stroke="#252525" stroke-width="2" stroke-linecap="round" stroke-linejoin="round"/>
<path d="M42.1918 24.6074H48.1918V30.6074" stroke="#252525" stroke-width="2" stroke-linecap="round" stroke-linejoin="round"/>
<path d="M48.1918 42.6074V48.6074H42.1918" stroke="#252525" stroke-width="2" stroke-linecap="round" stroke-linejoin="round"/>
<path d="M36.1547 44.8297C40.6957 44.8297 44.377 41.1485 44.377 36.6075C44.377 32.0665 40.6957 28.3853 36.1547 28.3853C31.6137 28.3853 27.9325 32.0665 27.9325 36.6075C27.9325 41.1485 31.6137 44.8297 36.1547 44.8297Z" stroke="#46AC34" stroke-width="2" stroke-linecap="round" stroke-linejoin="round"/>
<path d="M38.7128 33.8668C38.5473 33.5797 38.3069 33.343 38.0172 33.1821C37.7275 33.0212 37.3996 32.942 37.0684 32.9532H35.2412C34.7566 32.9532 34.2919 33.1457 33.9492 33.4883C33.6066 33.831 33.4141 34.2958 33.4141 34.7803C33.4141 35.2649 33.6066 35.7297 33.9492 36.0723C34.2919 36.415 34.7566 36.6075 35.2412 36.6075H37.0684C37.553 36.6075 38.0177 36.8 38.3604 37.1427C38.703 37.4853 38.8955 37.9501 38.8955 38.4347C38.8955 38.9193 38.703 39.384 38.3604 39.7267C38.0177 40.0693 37.553 40.2618 37.0684 40.2618H35.2412C34.91 40.273 34.5821 40.1939 34.2924 40.0329C34.0027 39.872 33.7623 39.6353 33.5968 39.3483" stroke="#46AC34" stroke-width="2" stroke-linecap="round" stroke-linejoin="round"/>
<path d="M36.1548 40.2618V42.0889M36.1548 31.126V32.9531V31.126Z" stroke="#46AC34" stroke-width="2" stroke-linecap="round" stroke-linejoin="round"/>
</svg>
