<svg width="92" height="114" viewBox="0 0 92 114" fill="none" xmlns="http://www.w3.org/2000/svg">
<path d="M11.5 105.135H80.5" stroke="#252525" stroke-width="3" stroke-linecap="round" stroke-linejoin="round"/>
<path d="M11.5 63.335H80.5" stroke="#252525" stroke-width="3" stroke-linecap="round" stroke-linejoin="round"/>
<path d="M19.168 53.2018L46.0013 41.8018L72.8346 53.2018" stroke="#252525" stroke-width="3" stroke-linecap="round" stroke-linejoin="round"/>
<path d="M15.332 63.335V105.135" stroke="#252525" stroke-width="3" stroke-linecap="round" stroke-linejoin="round"/>
<path d="M76.668 63.335V105.135" stroke="#252525" stroke-width="3" stroke-linecap="round" stroke-linejoin="round"/>
<path d="M30.668 78.5342V89.9342" stroke="#252525" stroke-width="3" stroke-linecap="round" stroke-linejoin="round"/>
<path d="M46 78.5342V89.9342" stroke="#252525" stroke-width="3" stroke-linecap="round" stroke-linejoin="round"/>
<path d="M61.3359 78.5342V89.9342" stroke="#252525" stroke-width="3" stroke-linecap="round" stroke-linejoin="round"/>
<path d="M38.8649 19.1073V28.3962C38.8649 28.7041 38.7415 28.9994 38.5218 29.2172C38.3021 29.4349 38.0042 29.5573 37.6936 29.5573H35.351C35.0403 29.5573 34.7424 29.4349 34.5228 29.2172C34.3031 28.9994 34.1797 28.7041 34.1797 28.3962V20.2684C34.1797 19.9604 34.3031 19.6651 34.5228 19.4474C34.7424 19.2296 35.0403 19.1073 35.351 19.1073H38.8649ZM38.8649 19.1073C40.1075 19.1073 41.2992 18.6179 42.1778 17.7469C43.0564 16.8759 43.5501 15.6946 43.5501 14.4628V13.3017C43.5501 12.6858 43.7969 12.0952 44.2362 11.6597C44.6755 11.2242 45.2714 10.9795 45.8926 10.9795C46.5139 10.9795 47.1098 11.2242 47.5491 11.6597C47.9884 12.0952 48.2352 12.6858 48.2352 13.3017V19.1073H51.7491C52.3704 19.1073 52.9663 19.3519 53.4056 19.7874C53.8449 20.2229 54.0917 20.8136 54.0917 21.4295L52.9204 27.235C52.752 27.9474 52.4324 28.559 52.0099 28.9778C51.5874 29.3967 51.0848 29.6 50.5778 29.5573H42.3788C41.4468 29.5573 40.553 29.1903 39.8941 28.537C39.2351 27.8838 38.8649 26.9978 38.8649 26.0739" stroke="#46AC34" stroke-width="3" stroke-linecap="round" stroke-linejoin="round"/>
</svg>
