<svg width="103" height="103" viewBox="0 0 103 103" fill="none" xmlns="http://www.w3.org/2000/svg">
<path d="M17.1641 25.7493C17.1641 23.4729 18.0779 21.2897 19.7045 19.68C21.3312 18.0703 23.5373 17.166 25.8377 17.166H69.2062C70.3564 17.166 71.4595 17.6182 72.2728 18.423C73.0861 19.2279 73.543 20.3195 73.543 21.4577V34.3327H77.8799M17.1641 25.7493C17.1641 28.0258 18.0779 30.209 19.7045 31.8187C21.3312 33.4284 23.5373 34.3327 25.8377 34.3327H77.8799M17.1641 25.7493V77.2493C17.1641 79.5258 18.0779 81.709 19.7045 83.3187C21.3312 84.9284 23.5373 85.8327 25.8377 85.8327H77.8799C79.0301 85.8327 80.1332 85.3805 80.9465 84.5757C81.7598 83.7708 82.2167 82.6792 82.2167 81.541V68.666M77.8799 34.3327C79.0301 34.3327 80.1332 34.7848 80.9465 35.5897M77.8799 34.3327C77.8799 34.3327 79.9099 34.3327 80.9465 35.5897M80.9465 35.5897C81.7598 36.3945 82.2167 37.4861 82.2167 38.6243M80.9465 35.5897C82.2167 36.5335 82.2167 38.6243 82.2167 38.6243M82.2167 38.6243V49.7387V46.2173V41.8156V38.6243Z" stroke="#F1F1F1" stroke-width="3" stroke-linecap="round" stroke-linejoin="round"/>
<path d="M85.8318 49.6934V67.7635H67.7617C65.3654 67.7635 63.0673 66.8116 61.3729 65.1172C59.6785 63.4228 58.7266 61.1247 58.7266 58.7284C58.7266 56.3322 59.6785 54.0341 61.3729 52.3397C63.0673 50.6453 65.3654 49.6934 67.7617 49.6934H85.8318Z" stroke="#F1F1F1" stroke-width="3" stroke-linecap="round" stroke-linejoin="round"/>
<path d="M38.7383 71.4893C45.8489 71.4893 51.6133 65.7249 51.6133 58.6143C51.6133 51.5036 45.8489 45.7393 38.7383 45.7393C31.6276 45.7393 25.8633 51.5036 25.8633 58.6143C25.8633 65.7249 31.6276 71.4893 38.7383 71.4893Z" stroke="#46AC34" stroke-width="3" stroke-linecap="round" stroke-linejoin="round"/>
<path d="M37.043 53.3066V60.083L40.657 64.1487" stroke="#46AC34" stroke-width="3" stroke-linecap="round" stroke-linejoin="round"/>
</svg>
