<svg width="136" height="136" viewBox="0 0 136 136" fill="none" xmlns="http://www.w3.org/2000/svg">
<circle cx="67.8822" cy="67.8823" r="48" transform="rotate(-45 67.8822 67.8823)" fill="url(#paint0_linear_1287_1423)"/>
<path d="M60 67.8823L62.18 70.3823L66 65.3823M84 77.8823H74V57.8823H84C84.5304 57.8823 85.0391 58.093 85.4142 58.4681C85.7893 58.8432 86 59.3519 86 59.8823V75.8823C86 76.4128 85.7893 76.9215 85.4142 77.2965C85.0391 77.6716 84.5304 77.8823 84 77.8823ZM74 65.8823H86H74ZM74 83.8823V51.8823C74 51.3519 73.7893 50.8432 73.4142 50.4681C73.0391 50.093 72.5304 49.8823 72 49.8823H52C51.4696 49.8823 50.9609 50.093 50.5858 50.4681C50.2107 50.8432 50 51.3519 50 51.8823V83.8823C50 84.4128 50.2107 84.9215 50.5858 85.2965C50.9609 85.6716 51.4696 85.8823 52 85.8823H72C72.5304 85.8823 73.0391 85.6716 73.4142 85.2965C73.7893 84.9215 74 84.4128 74 83.8823ZM66 49.8823H58L59 53.8823H65L66 49.8823Z" stroke="#252525" stroke-width="2" stroke-linecap="round" stroke-linejoin="round"/>
<defs>
<linearGradient id="paint0_linear_1287_1423" x1="67.8822" y1="19.8823" x2="96.1899" y2="115.882" gradientUnits="userSpaceOnUse">
<stop stop-color="#A7CD7E"/>
<stop offset="1" stop-color="#7BCD25" stop-opacity="0"/>
</linearGradient>
</defs>
</svg>
