<svg width="34" height="23" viewBox="0 0 34 23" fill="none" xmlns="http://www.w3.org/2000/svg">
<path d="M33 22H1V1H33V22ZM33 1H25.8889C25.8889 2.5913 26.6381 4.11742 27.9717 5.24264C29.3053 6.36786 31.114 7 33 7V1ZM1 7C2.88598 7 4.69472 6.36786 6.02832 5.24264C7.36191 4.11742 8.11111 2.5913 8.11111 1H1V7ZM33 16C31.114 16 29.3053 16.6321 27.9717 17.7574C26.6381 18.8826 25.8889 20.4087 25.8889 22H33V16ZM1 22H8.11111C8.11111 20.4087 7.36191 18.8826 6.02832 17.7574C4.69472 16.6321 2.88598 16 1 16V16V22ZM17 8.5C16.2968 8.5 15.6093 8.67595 15.0246 9.00559C14.4399 9.33524 13.9842 9.80377 13.7151 10.352C13.446 10.9001 13.3756 11.5033 13.5128 12.0853C13.65 12.6672 13.9886 13.2018 14.4858 13.6213C14.9831 14.0409 15.6166 14.3266 16.3063 14.4424C16.9961 14.5581 17.711 14.4987 18.3607 14.2716C19.0103 14.0446 19.5656 13.6601 19.9563 13.1667C20.347 12.6734 20.5556 12.0933 20.5556 11.5C20.5556 10.7044 20.181 9.94129 19.5142 9.37868C18.8474 8.81607 17.943 8.5 17 8.5Z" stroke="#525252" stroke-width="1.5" stroke-linecap="round" stroke-linejoin="round"/>
</svg>
