<svg width="90" height="91" viewBox="0 0 90 91" fill="none" xmlns="http://www.w3.org/2000/svg">
<path d="M33.7422 41.6768C42.0265 41.6768 48.7422 34.961 48.7422 26.6768C48.7422 18.3925 42.0265 11.6768 33.7422 11.6768C25.4579 11.6768 18.7422 18.3925 18.7422 26.6768C18.7422 34.961 25.4579 41.6768 33.7422 41.6768Z" stroke="#252525" stroke-width="3" stroke-linecap="round" stroke-linejoin="round"/>
<path d="M11.25 79.1767V71.6767C11.25 67.6984 12.8304 63.8831 15.6434 61.0701C18.4564 58.257 22.2718 56.6767 26.25 56.6767H41.25C45.2282 56.6767 49.0436 58.257 51.8566 61.0701C54.6696 63.8831 56.25 67.6984 56.25 71.6767V79.1767" stroke="#252525" stroke-width="3" stroke-linecap="round" stroke-linejoin="round"/>
<path d="M60 41.6787L67.5 49.1787L82.5 34.1787" stroke="#46AC34" stroke-width="3" stroke-linecap="round" stroke-linejoin="round"/>
</svg>
