<svg width="103" height="104" viewBox="0 0 103 104" fill="none" xmlns="http://www.w3.org/2000/svg">
<path d="M25.75 64.8037V60.512C25.75 58.2356 26.6543 56.0524 28.264 54.4427C29.8737 52.833 32.0569 51.9287 34.3333 51.9287H68.6667C70.9431 51.9287 73.1263 52.833 74.736 54.4427C76.3457 56.0524 77.25 58.2356 77.25 60.512V64.8037" stroke="#46AC34" stroke-width="3" stroke-linecap="round" stroke-linejoin="round"/>
<path d="M51.5 39.0537V51.9287" stroke="#46AC34" stroke-width="3" stroke-linecap="round" stroke-linejoin="round"/>
<path d="M30.0417 64.8037H21.4583C16.7179 64.8037 12.875 68.6466 12.875 73.387V81.9704C12.875 86.7108 16.7179 90.5537 21.4583 90.5537H30.0417C34.7821 90.5537 38.625 86.7108 38.625 81.9704V73.387C38.625 68.6466 34.7821 64.8037 30.0417 64.8037Z" stroke="#252525" stroke-width="3" stroke-linecap="round" stroke-linejoin="round"/>
<path d="M81.5417 64.8037H72.9583C68.2179 64.8037 64.375 68.6466 64.375 73.387V81.9704C64.375 86.7108 68.2179 90.5537 72.9583 90.5537H81.5417C86.2821 90.5537 90.125 86.7108 90.125 81.9704V73.387C90.125 68.6466 86.2821 64.8037 81.5417 64.8037Z" stroke="#252525" stroke-width="3" stroke-linecap="round" stroke-linejoin="round"/>
<path d="M55.7917 13.3037H47.2083C42.4679 13.3037 38.625 17.1466 38.625 21.887V30.4704C38.625 35.2108 42.4679 39.0537 47.2083 39.0537H55.7917C60.5321 39.0537 64.375 35.2108 64.375 30.4704V21.887C64.375 17.1466 60.5321 13.3037 55.7917 13.3037Z" stroke="#252525" stroke-width="3" stroke-linecap="round" stroke-linejoin="round"/>
</svg>
