<svg width="103" height="104" viewBox="0 0 103 104" fill="none" xmlns="http://www.w3.org/2000/svg">
<path d="M17.1641 26.1781C17.1641 23.9016 18.0779 21.7184 19.7045 20.1087C21.3312 18.499 23.5373 17.5947 25.8377 17.5947H69.2062C70.3564 17.5947 71.4595 18.0469 72.2728 18.8517C73.0861 19.6566 73.543 20.7482 73.543 21.8864V34.7614H77.8799M17.1641 26.1781C17.1641 28.4545 18.0779 30.6377 19.7045 32.2474C21.3312 33.8571 23.5373 34.7614 25.8377 34.7614H77.8799M17.1641 26.1781V77.6781C17.1641 79.9545 18.0779 82.1377 19.7045 83.7474C21.3312 85.3571 23.5373 86.2614 25.8377 86.2614H77.8799C79.0301 86.2614 80.1332 85.8092 80.9465 85.0044C81.7598 84.1996 82.2167 83.1079 82.2167 81.9697V69.0947M77.8799 34.7614C79.0301 34.7614 80.1332 35.2135 80.9465 36.0184M77.8799 34.7614C77.8799 34.7614 79.9099 34.7614 80.9465 36.0184M80.9465 36.0184C81.7598 36.8232 82.2167 37.9148 82.2167 39.0531M80.9465 36.0184C82.2167 36.9622 82.2167 39.0531 82.2167 39.0531M82.2167 39.0531V50.1674V46.646V42.2443V39.0531Z" stroke="#252525" stroke-width="3" stroke-linecap="round" stroke-linejoin="round"/>
<path d="M85.8318 50.1221V68.1922H67.7617C65.3654 68.1922 63.0673 67.2403 61.3729 65.5459C59.6785 63.8515 58.7266 61.5534 58.7266 59.1572C58.7266 56.7609 59.6785 54.4628 61.3729 52.7684C63.0673 51.074 65.3654 50.1221 67.7617 50.1221H85.8318Z" stroke="#252525" stroke-width="3" stroke-linecap="round" stroke-linejoin="round"/>
<path d="M38.7344 71.918C45.845 71.918 51.6094 66.1536 51.6094 59.043C51.6094 51.9323 45.845 46.168 38.7344 46.168C31.6237 46.168 25.8594 51.9323 25.8594 59.043C25.8594 66.1536 31.6237 71.918 38.7344 71.918Z" stroke="#46AC34" stroke-width="3" stroke-linecap="round" stroke-linejoin="round"/>
<path d="M37.0469 53.7354V60.5117L40.6609 64.5775" stroke="#46AC34" stroke-width="3" stroke-linecap="round" stroke-linejoin="round"/>
</svg>
