<svg width="30" height="30" viewBox="0 0 30 30" fill="none" xmlns="http://www.w3.org/2000/svg">
<path d="M27.8333 27.8333L20.125 20.125M23.2083 12.4167C23.2083 14.5511 22.5754 16.6375 21.3896 18.4122C20.2038 20.1869 18.5184 21.5701 16.5465 22.3869C14.5745 23.2037 12.4047 23.4174 10.3113 23.001C8.21794 22.5846 6.29505 21.5568 4.78581 20.0475C3.27657 18.5383 2.24876 16.6154 1.83236 14.522C1.41596 12.4286 1.62968 10.2588 2.44647 8.28687C3.26327 6.31496 4.64646 4.62953 6.42114 3.44372C8.19582 2.25792 10.2823 1.625 12.4167 1.625C15.2788 1.625 18.0237 2.76198 20.0475 4.78581C22.0714 6.80964 23.2083 9.55454 23.2083 12.4167V12.4167Z" stroke="#252525" stroke-width="2" stroke-linecap="round" stroke-linejoin="round"/>
<path d="M28.6029 28.6041L23.207 23.2083" stroke="#252525" stroke-width="2" stroke-linecap="round" stroke-linejoin="round"/>
</svg>
