<svg width="36" height="38" viewBox="0 0 36 38" fill="none" xmlns="http://www.w3.org/2000/svg">
<path d="M30.0736 31.3333L22.7507 23.625M25.6799 15.9167C25.6799 18.0511 25.0786 20.1375 23.9521 21.9122C22.8256 23.6869 21.2245 25.0701 19.3511 25.8869C17.4778 26.7037 15.4165 26.9174 13.4278 26.501C11.4391 26.0846 9.61232 25.0568 8.17854 23.5475C6.74477 22.0383 5.76835 20.1154 5.37278 18.022C4.9772 15.9286 5.18022 13.7588 5.95618 11.7869C6.73213 9.81496 8.04616 8.12953 9.73211 6.94372C11.418 5.75792 13.4002 5.125 15.4278 5.125C18.1469 5.125 20.7545 6.26198 22.6771 8.28581C24.5998 10.3096 25.6799 13.0545 25.6799 15.9167V15.9167Z" stroke="#252525" stroke-width="2" stroke-linecap="round" stroke-linejoin="round"/>
<path d="M30.8057 32.1048L25.6797 26.709" stroke="#252525" stroke-width="2" stroke-linecap="round" stroke-linejoin="round"/>
</svg>
