<svg width="29" height="29" viewBox="0 0 29 29" fill="none" xmlns="http://www.w3.org/2000/svg">
<path d="M27.8333 27.3333L20.125 19.625M23.2083 11.9167C23.2083 14.0511 22.5754 16.1375 21.3896 17.9122C20.2038 19.6869 18.5184 21.0701 16.5465 21.8869C14.5745 22.7037 12.4047 22.9174 10.3113 22.501C8.21794 22.0846 6.29505 21.0568 4.78581 19.5475C3.27657 18.0383 2.24876 16.1154 1.83236 14.022C1.41596 11.9286 1.62968 9.75879 2.44647 7.78687C3.26327 5.81496 4.64646 4.12953 6.42114 2.94372C8.19582 1.75792 10.2823 1.125 12.4167 1.125C15.2788 1.125 18.0237 2.26198 20.0475 4.28581C22.0714 6.30964 23.2083 9.05454 23.2083 11.9167V11.9167Z" stroke="#252525" stroke-width="2" stroke-linecap="round" stroke-linejoin="round"/>
</svg>
