<svg width="25" height="24" viewBox="0 0 25 24" fill="none" xmlns="http://www.w3.org/2000/svg">
<rect x="1.42969" y="0.5" width="23" height="23" rx="1.5" stroke="url(#paint0_linear_1810_9169)"/>
<path d="M17.929 18.7894C17.4871 18.8772 17.0291 18.8321 16.6129 18.6597C16.1967 18.4873 15.841 18.1954 15.5907 17.8208C15.3404 17.4462 15.2068 17.0058 15.2068 16.5553C15.2068 15.9512 15.4468 15.3719 15.874 14.9447C16.3011 14.5175 16.8805 14.2776 17.4846 14.2776C17.9351 14.2776 18.3755 14.4112 18.7501 14.6614C19.1246 14.9117 19.4166 15.2675 19.589 15.6837C19.7614 16.0999 19.8065 16.5579 19.7186 16.9997M10.4083 13.0172L15.4346 15.5303M10.4083 10.9824L15.4346 8.46924M8.37348 9.72202C8.82398 9.72202 9.26437 9.8556 9.63895 10.1059C10.0135 10.3562 10.3055 10.7119 10.4779 11.1281C10.6503 11.5443 10.6954 12.0023 10.6075 12.4442C10.5196 12.886 10.3027 13.2919 9.98411 13.6104C9.66556 13.929 9.2597 14.1459 8.81785 14.2338C8.37601 14.3217 7.91802 14.2766 7.50181 14.1042C7.0856 13.9318 6.72986 13.6398 6.47958 13.2653C6.22929 12.8907 6.0957 12.4503 6.0957 11.9998C6.0957 11.3957 6.33568 10.8163 6.76285 10.3892C7.19002 9.96199 7.76938 9.72202 8.37348 9.72202Z" stroke="#525252" stroke-linecap="round" stroke-linejoin="round"/>
<path d="M20.24 7.11888C20.24 8.46014 19.1526 9.54745 17.8114 9.54745C16.4701 9.54745 15.3828 8.46014 15.3828 7.11888C15.3828 5.77762 16.4701 4.69031 17.8114 4.69031C19.1526 4.69031 20.24 5.77762 20.24 7.11888Z" stroke="#8FC055"/>
<defs>
<linearGradient id="paint0_linear_1810_9169" x1="0.929688" y1="24" x2="25.4488" y2="23.4574" gradientUnits="userSpaceOnUse">
<stop stop-color="#95C11F"/>
<stop offset="0.208333" stop-color="#77B82A"/>
<stop offset="0.59375" stop-color="#46AC34"/>
<stop offset="0.791667" stop-color="#3EAB35"/>
<stop offset="1" stop-color="#3AAA35"/>
</linearGradient>
</defs>
</svg>
