<svg width="72" height="72" viewBox="0 0 72 72" fill="none" xmlns="http://www.w3.org/2000/svg">
<path d="M24 45C24 47.3638 24.4656 49.7044 25.3702 51.8883C26.2748 54.0722 27.6006 56.0565 29.2721 57.7279C30.9435 59.3994 32.9278 60.7252 35.1117 61.6298C37.2956 62.5344 39.6362 63 42 63C44.3638 63 46.7044 62.5344 48.8883 61.6298C51.0722 60.7252 53.0565 59.3994 54.7279 57.7279C56.3994 56.0565 57.7252 54.0722 58.6298 51.8883C59.5344 49.7044 60 47.3638 60 45V36" stroke="#252525" stroke-width="2.5" stroke-linecap="round" stroke-linejoin="round"/>
<path d="M60 36C63.3137 36 66 33.3137 66 30C66 26.6863 63.3137 24 60 24C56.6863 24 54 26.6863 54 30C54 33.3137 56.6863 36 60 36Z" stroke="#252525" stroke-width="2.5" stroke-linecap="round" stroke-linejoin="round"/>
<path d="M18 12H15C13.4087 12 11.8826 12.6321 10.7574 13.7574C9.63214 14.8826 9 16.4087 9 18V28.5C9 32.8761 10.7384 37.0729 13.8327 40.1673C16.9271 43.2616 21.1239 45 25.5 45C29.8761 45 34.0729 43.2616 37.1673 40.1673C40.2616 37.0729 42 32.8761 42 28.5V18C42 16.4087 41.3679 14.8826 40.2426 13.7574C39.1174 12.6321 37.5913 12 36 12H33" stroke="#8FC055" stroke-width="2.5" stroke-linecap="round" stroke-linejoin="round"/>
<path d="M33 9V15" stroke="#252525" stroke-width="2.5" stroke-linecap="round" stroke-linejoin="round"/>
<path d="M18 9V15" stroke="#252525" stroke-width="2.5" stroke-linecap="round" stroke-linejoin="round"/>
</svg>
