<svg width="136" height="136" viewBox="0 0 136 136" fill="none" xmlns="http://www.w3.org/2000/svg">
<circle cx="67.8822" cy="67.8818" r="48" transform="rotate(-45 67.8822 67.8818)" fill="url(#paint0_linear_1971_21928)"/>
<path d="M56.7917 63.9587V84.292C56.7917 84.9661 56.5239 85.6126 56.0472 86.0892C55.5706 86.5659 54.9241 86.8337 54.25 86.8337H49.1667C48.4926 86.8337 47.8461 86.5659 47.3694 86.0892C46.8928 85.6126 46.625 84.9661 46.625 84.292V66.5003C46.625 65.8262 46.8928 65.1798 47.3694 64.7031C47.8461 64.2264 48.4926 63.9587 49.1667 63.9587H56.7917ZM56.7917 63.9587C59.488 63.9587 62.074 62.8875 63.9806 60.9809C65.8872 59.0743 66.9583 56.4884 66.9583 53.792V51.2503C66.9583 49.9021 67.4939 48.6092 68.4472 47.6559C69.4005 46.7026 70.6935 46.167 72.0417 46.167C73.3899 46.167 74.6828 46.7026 75.6361 47.6559C76.5894 48.6092 77.125 49.9021 77.125 51.2503V63.9587H84.75C86.0982 63.9587 87.3912 64.4942 88.3445 65.4475C89.2978 66.4008 89.8333 67.6938 89.8333 69.042L87.2917 81.7503C86.9261 83.3096 86.2327 84.6484 85.3159 85.5653C84.3991 86.4821 83.3085 86.9273 82.2083 86.8337H64.4167C62.3944 86.8337 60.4549 86.0303 59.025 84.6004C57.595 83.1704 56.7917 81.2309 56.7917 79.2087" stroke="#252525" stroke-width="2.75" stroke-linecap="round" stroke-linejoin="round"/>
<defs>
<linearGradient id="paint0_linear_1971_21928" x1="67.8822" y1="19.8818" x2="96.1899" y2="115.882" gradientUnits="userSpaceOnUse">
<stop stop-color="#A7CD7E"/>
<stop offset="1" stop-color="#7BCD25" stop-opacity="0"/>
</linearGradient>
</defs>
</svg>
