<svg width="72" height="72" viewBox="0 0 72 72" fill="none" xmlns="http://www.w3.org/2000/svg">
<path d="M50.1957 30C55.1697 21.39 56.8707 13.068 53.9997 11.412C51.1287 9.75603 44.7747 15.39 39.8037 24" stroke="#8FC055" stroke-width="2.5" stroke-linecap="round" stroke-linejoin="round"/>
<path d="M45 27L36 42.588" stroke="#8FC055" stroke-width="2.5" stroke-linecap="round" stroke-linejoin="round"/>
<path d="M52.6588 50.25C48.4393 46.031 42.7167 43.6608 36.7498 43.6608C30.7829 43.6608 25.0603 46.031 20.8408 50.25" stroke="#252525" stroke-width="2.5" stroke-linecap="round" stroke-linejoin="round"/>
<path d="M54.0001 11.412C49.8659 9.02515 44.9528 8.37833 40.3417 9.61381C35.7306 10.8493 31.7991 13.8659 29.4121 18L60.5881 36C62.9749 31.8658 63.6218 26.9527 62.3863 22.3416C61.1508 17.7305 58.1342 13.799 54.0001 11.412V11.412Z" stroke="#252525" stroke-width="2.5" stroke-linecap="round" stroke-linejoin="round"/>
<path d="M9 57.75C9.93388 57.2857 10.9575 57.0298 12 57C13.1685 56.9755 14.3254 57.2359 15.3707 57.7585C16.4161 58.2812 17.3185 59.0505 18 60C18.6815 60.9495 19.5839 61.7188 20.6293 62.2414C21.6746 62.7641 22.8315 63.0245 24 63C25.1685 63.0245 26.3254 62.7641 27.3707 62.2414C28.4161 61.7188 29.3185 60.9495 30 60C30.6815 59.0505 31.5839 58.2812 32.6293 57.7585C33.6746 57.2359 34.8315 56.9755 36 57C37.1685 56.9755 38.3254 57.2359 39.3707 57.7585C40.4161 58.2812 41.3185 59.0505 42 60C42.6815 60.9495 43.5839 61.7188 44.6293 62.2414C45.6746 62.7641 46.8315 63.0245 48 63C49.1685 63.0245 50.3254 62.7641 51.3707 62.2414C52.4161 61.7188 53.3185 60.9495 54 60C54.6815 59.0505 55.5839 58.2812 56.6293 57.7585C57.6746 57.2359 58.8315 56.9755 60 57C61.0425 57.0298 62.0661 57.2857 63 57.75" stroke="#252525" stroke-width="2.5" stroke-linecap="round" stroke-linejoin="round"/>
<path d="M9 63.75C9.93388 63.2857 10.9575 63.0298 12 63C13.1685 62.9755 14.3254 63.2359 15.3707 63.7585C16.4161 64.2812 17.3185 65.0505 18 66C18.6815 66.9495 19.5839 67.7188 20.6293 68.2414C21.6746 68.7641 22.8315 69.0245 24 69C25.1685 69.0245 26.3254 68.7641 27.3707 68.2414C28.4161 67.7188 29.3185 66.9495 30 66C30.6815 65.0505 31.5839 64.2812 32.6293 63.7585C33.6746 63.2359 34.8315 62.9755 36 63C37.1685 62.9755 38.3254 63.2359 39.3707 63.7585C40.4161 64.2812 41.3185 65.0505 42 66C42.6815 66.9495 43.5839 67.7188 44.6293 68.2414C45.6746 68.7641 46.8315 69.0245 48 69C49.1685 69.0245 50.3254 68.7641 51.3707 68.2414C52.4161 67.7188 53.3185 66.9495 54 66C54.6815 65.0505 55.5839 64.2812 56.6293 63.7585C57.6746 63.2359 58.8315 62.9755 60 63C61.0425 63.0298 62.0661 63.2857 63 63.75" stroke="#252525" stroke-width="2.5" stroke-linecap="round" stroke-linejoin="round"/>
</svg>
