<svg width="71" height="74" viewBox="0 0 71 74" fill="none" xmlns="http://www.w3.org/2000/svg">
<path d="M26.9859 33.768C33.3855 33.768 38.5734 28.2704 38.5734 21.4888C38.5734 14.7071 33.3855 9.20947 26.9859 9.20947C20.5863 9.20947 15.3984 14.7071 15.3984 21.4888C15.3984 28.2704 20.5863 33.768 26.9859 33.768Z" stroke="black" stroke-width="2.5" stroke-linecap="round" stroke-linejoin="round"/>
<path d="M9.60547 64.4662V58.3265C9.60547 55.0699 10.8263 51.9466 12.9994 49.6438C15.1724 47.341 18.1198 46.0472 21.193 46.0472H32.7805C35.8537 46.0472 38.801 47.341 40.9741 49.6438C43.1471 51.9466 44.368 55.0699 44.368 58.3265V64.4662" stroke="black" stroke-width="2.5" stroke-linecap="round" stroke-linejoin="round"/>
<path d="M47.2656 9.6084C49.7581 10.2847 51.9674 11.8208 53.545 13.9746C55.1226 16.1285 55.979 18.7774 55.979 21.504C55.979 24.2305 55.1226 26.8795 53.545 29.0333C51.9674 31.1871 49.7581 32.7232 47.2656 33.3995" stroke="#87BD28" stroke-width="2.5" stroke-linecap="round" stroke-linejoin="round"/>
<path d="M61.7492 64.4662V58.3265C61.7345 55.6163 60.8741 52.9875 59.3021 50.8497C57.7302 48.7118 55.5349 47.1852 53.0586 46.5077" stroke="#87BD28" stroke-width="2.5" stroke-linecap="round" stroke-linejoin="round"/>
</svg>
