<svg width="136" height="136" viewBox="0 0 136 136" fill="none" xmlns="http://www.w3.org/2000/svg">
<circle cx="67.8822" cy="67.8823" r="48" transform="rotate(-45 67.8822 67.8823)" fill="url(#paint0_linear_1287_1420)"/>
<path d="M80 69.8823V57.8823L72 49.8823H54C53.4696 49.8823 52.9609 50.093 52.5858 50.4681C52.2107 50.8432 52 51.3519 52 51.8823V83.8823C52 84.4128 52.2107 84.9215 52.5858 85.2965C52.9609 85.6716 53.4696 85.8823 54 85.8823H68" stroke="#252525" stroke-width="2" stroke-linecap="round" stroke-linejoin="round"/>
<path d="M80 77.8823V85.8823M76 81.8823H84H76Z" stroke="#252525" stroke-width="2" stroke-linecap="round" stroke-linejoin="round"/>
<path d="M73.3571 61.246H61H64.3701C65.5619 61.246 66.7048 61.7194 67.5475 62.5621C68.3902 63.4048 68.8636 64.5477 68.8636 65.7395C68.8636 66.9312 68.3902 68.0742 67.5475 68.9169C66.7048 69.7596 65.5619 70.233 64.3701 70.233H61L67.7403 76.9732" stroke="#252525" stroke-width="2" stroke-linecap="round" stroke-linejoin="round"/>
<path d="M61 65.7395H73.3571" stroke="#252525" stroke-width="2" stroke-linecap="round" stroke-linejoin="round"/>
<defs>
<linearGradient id="paint0_linear_1287_1420" x1="67.8822" y1="19.8823" x2="96.1899" y2="115.882" gradientUnits="userSpaceOnUse">
<stop stop-color="#A7CD7E"/>
<stop offset="1" stop-color="#7BCD25" stop-opacity="0"/>
</linearGradient>
</defs>
</svg>
