<svg width="47" height="48" viewBox="0 0 47 48" fill="none" xmlns="http://www.w3.org/2000/svg">
<path d="M19.1035 31.7033L21.2294 29.4794L20.6736 27.4578H18.1586C18.1586 27.4578 17.5889 31.1256 21.6601 35.3423C25.7313 39.5589 29.2745 39.0102 29.2745 39.0102V36.3964L27.3292 35.8188L25.1894 38.0282M36.0551 35.3423C35.7349 37.364 34.9593 39.2784 33.7915 40.9292C32.6238 42.58 31.0971 43.9205 29.3359 44.8413C27.5747 45.7621 25.629 46.2372 23.6575 46.2276C21.6861 46.218 19.7447 45.7242 17.9919 44.7864L11.2112 46.2304L12.6007 39.1834C11.6939 37.3551 11.2176 35.3291 11.211 33.2721C11.2044 31.2151 11.6677 29.1859 12.5629 27.3513C13.458 25.5167 14.7593 23.9291 16.3599 22.719C17.9604 21.509 19.8145 20.711 21.7696 20.3908C23.7248 20.0707 25.7251 20.2373 27.6062 20.8772C29.4872 21.517 31.1953 22.6118 32.5899 24.0714C33.9845 25.531 35.0258 27.3138 35.6283 29.2732C36.2307 31.2326 36.377 33.3127 36.0551 35.3423V35.3423Z" stroke="#525252" stroke-width="2" stroke-linecap="round" stroke-linejoin="round"/>
<rect x="1" y="1" width="44.5714" height="44.5714" rx="1" stroke="url(#paint0_linear_2456_19307)" stroke-width="2"/>
<defs>
<linearGradient id="paint0_linear_2456_19307" x1="8.67461e-08" y1="46.5714" x2="47.5787" y2="45.5185" gradientUnits="userSpaceOnUse">
<stop stop-color="#95C11F"/>
<stop offset="0.208333" stop-color="#77B82A"/>
<stop offset="0.59375" stop-color="#46AC34"/>
<stop offset="0.791667" stop-color="#3EAB35"/>
<stop offset="1" stop-color="#3AAA35"/>
</linearGradient>
</defs>
</svg>
