<svg width="75" height="75" viewBox="0 0 75 75" fill="none" xmlns="http://www.w3.org/2000/svg">
<path d="M37.2123 9.33923C31.9679 17.7433 29.1875 27.4506 29.1875 37.3568C29.1875 47.2629 31.9679 56.9702 37.2123 65.3743" stroke="#46AC34" stroke-width="2.5" stroke-linecap="round" stroke-linejoin="round"/>
<path d="M37.5 9.33911C42.7444 17.7432 45.5248 27.4505 45.5248 37.3566C45.5248 47.2628 42.7444 56.9701 37.5 65.3742" stroke="#46AC34" stroke-width="2.5" stroke-linecap="round" stroke-linejoin="round"/>
<path d="M37.3574 65.3743C52.831 65.3743 65.3749 52.8304 65.3749 37.3568C65.3749 21.8831 52.831 9.33923 37.3574 9.33923C21.8837 9.33923 9.33984 21.8831 9.33984 37.3568C9.33984 52.8304 21.8837 65.3743 37.3574 65.3743Z" stroke="black" stroke-width="2.5" stroke-linecap="round" stroke-linejoin="round"/>
<path d="M11.207 28.0176H63.5064" stroke="black" stroke-width="2.5" stroke-linecap="round" stroke-linejoin="round"/>
<path d="M11.207 46.6958H63.5064" stroke="black" stroke-width="2.5" stroke-linecap="round" stroke-linejoin="round"/>
</svg>
