<svg width="20" height="20" viewBox="0 0 20 20" fill="none" xmlns="http://www.w3.org/2000/svg">
<path d="M5.00065 17.4996C5.92113 17.4996 6.66732 16.7534 6.66732 15.8329C6.66732 14.9125 5.92113 14.1663 5.00065 14.1663C4.08018 14.1663 3.33398 14.9125 3.33398 15.8329C3.33398 16.7534 4.08018 17.4996 5.00065 17.4996Z" stroke="#252525" stroke-linecap="round" stroke-linejoin="round"/>
<path d="M14.1667 17.4996C15.0871 17.4996 15.8333 16.7534 15.8333 15.8329C15.8333 14.9125 15.0871 14.1663 14.1667 14.1663C13.2462 14.1663 12.5 14.9125 12.5 15.8329C12.5 16.7534 13.2462 17.4996 14.1667 17.4996Z" stroke="#252525" stroke-linecap="round" stroke-linejoin="round"/>
<path d="M14.1673 14.1663H5.00065V2.49963H3.33398" stroke="#252525" stroke-linecap="round" stroke-linejoin="round"/>
<path d="M5 4.16626L10.0042 4.52376M15.9525 10.0013L15.8333 10.8329H5" stroke="#252525" stroke-linecap="round" stroke-linejoin="round"/>
<path d="M14.3174 8.61682C15.6064 8.61682 16.5244 8.08948 16.9883 7.15686C17.0664 7.00061 17.1055 6.86877 17.1055 6.71741C17.1055 6.48792 16.9395 6.3219 16.7051 6.3219C16.5098 6.3219 16.3877 6.41467 16.2949 6.62952C15.9629 7.42053 15.2402 7.80627 14.3223 7.80627C12.9307 7.80627 12.0469 6.70276 12.0469 4.97424C12.0469 3.26038 12.9404 2.14709 14.3174 2.14709C15.1865 2.14709 15.9434 2.59631 16.2754 3.42639C16.373 3.67542 16.5244 3.7926 16.7393 3.7926C16.9785 3.7926 17.1348 3.63635 17.1348 3.39221C17.1348 3.28967 17.1104 3.1676 17.0615 3.04553C16.6465 1.99573 15.6016 1.33655 14.3174 1.33655C12.3887 1.33655 11.1436 2.76233 11.1436 4.97424C11.1436 7.20569 12.374 8.61682 14.3174 8.61682Z" fill="#46AC34"/>
</svg>
